<?xml version="1.0" encoding="utf-8"?>
<!-- Generator: Adobe Illustrator 18.1.0, SVG Export Plug-In . SVG Version: 6.00 Build 0)  -->
<svg version="1.1" id="scene1" xmlns="http://www.w3.org/2000/svg" xmlns:xlink="http://www.w3.org/1999/xlink" x="0px" y="0px"
	 width="500px" height="250px" viewBox="0 0 500 250" style="enable-background:new 0 0 500 250;" xml:space="preserve">
<style type="text/css">
	.st0{fill:#75A4E9;}
	.st1{fill:none;}
	.st2{fill:#F2F2F2;}
	.st3{font-family:'Arial'; font-weight: bold;}
	.st4{font-size:16px;}
	.st5{fill:#003366;}
	.st6{font-family:'Arial';}
	.st7{font-size:12px;}
	.st8{fill:#9FC7F7;}
	.st9{font-size:14px;}
	.st10{fill:#FF0000;}
	.st11{fill:#FFFFFF;}
	.st12{fill:#FF7BAC;}
	.st13{fill:none;stroke:#FF0000;stroke-width:3;stroke-miterlimit:10;}
	.st14{fill:none;stroke:#FF0000;stroke-width:3;stroke-miterlimit:10;stroke-dasharray:3,3;}
	.st15{fill:none;stroke:#C9C7C9;stroke-width:2;stroke-miterlimit:10;}
	.st16{fill:none;stroke:#C9C7C9;stroke-width:2;stroke-miterlimit:10;stroke-dasharray:11,11;}
	.st17{fill:#C9C7C9;}
	.st18{fill:none;stroke:#C9C7C9;stroke-width:2;stroke-miterlimit:10;stroke-dasharray:12.049,12.049;}
	.st19{fill:none;stroke:#00FF18;stroke-width:2;stroke-miterlimit:10;}
	.st20{fill:none;stroke:#00FF18;stroke-width:2;stroke-miterlimit:10;stroke-dasharray:11.5935,11.5935;}
	.st21{fill:#00FF18;}
	.st22{fill:none;stroke:#00FF18;stroke-width:2;stroke-miterlimit:10;stroke-dasharray:11.995,11.995;}
	.st23{fill:#D6D6D6;}
	.st24{fill:#0071BC;}
</style>
<rect id="bg_1_" class="st0" width="500" height="250"/>
<rect x="9" y="10.5" class="st1" width="256" height="21.5"/>
<text id="title" transform="matrix(1 0 0 1 9 21.9561)" class="st2 st3 st4">Reduce vertical speed</text>
<rect x="11.5" y="214" class="st1" width="182.5" height="32"/>
<text id="text5" transform="matrix(1 0 0 1 11.5 222.5918)"><tspan x="0" y="0" class="st5 st6 st7">1. TCAS detects a</tspan><tspan x="0" y="14.4" class="st5 st6 st7">threat and issues a &apos;descend&apos; RA</tspan></text>
<rect x="211.5" y="214" class="st1" width="182.5" height="32"/>
<text id="text6" transform="matrix(1 0 0 1 211.5 222.5918)"><tspan x="0" y="0" class="st5 st6 st7">2. TCAS reduces the strength</tspan><tspan x="0" y="14.4" class="st5 st6 st7">of the &apos;descend&apos; RA.</tspan></text>
<rect x="11" y="42.5" class="st1" width="109" height="32"/>
<text id="text1" transform="matrix(1 0 0 1 48.3931 52.5239)"><tspan x="0" y="0" class="st8 st3 st9">OWN</tspan><tspan x="-18.7" y="16.8" class="st8 st3 st9">AIRCRAFT</tspan></text>
<rect x="377" y="20.8" class="st1" width="109" height="18.5"/>
<text id="text2" transform="matrix(1 0 0 1 403.163 30.8513)" class="st8 st3 st9">THREAT</text>
<rect x="9.5" y="115" class="st1" width="119" height="20"/>
<text id="text3" transform="matrix(1 0 0 1 9.4516 123.5918)" class="st10 st6 st7">&quot;Descend, descend&quot;</text>
<rect x="8.2" y="150" class="st1" width="171.5" height="20"/>
<text id="text4" transform="matrix(1 0 0 1 8.218 158.5918)" class="st10 st6 st7">&quot;Adjust vertical speed, adjust&quot;</text>
<g id="acft1">
	<path d="M34.3,81c2.2,2.3,4.4,4.5,6.6,6.8c3.5,3.7,7.1,6.4,12.7,6.2c10.1-0.4,20.2,0,30.3-0.1c6.8-0.1,13.4-0.1,19.1,4.5
		c0,0.9,0,1.8,0,2.7c-4.7,3-9.8,4.1-15.3,4c-2.3,0-4.8-0.4-6.6,1.8c-1.6,0-3.3,0-4.9,0c-2.3-0.6-4.6-1.5-6.9-1.7
		c-5.8-0.5-11.7-0.1-17.4-1.1c-8.2-1.5-16.2-3.8-23.8-7.4c0-0.6,0-1.2,0-1.8c1.5-0.3,2.9-0.7,4.6-1.1c-1.6-3.6-3.1-7.1-4.6-10.5
		c0-0.7,0-1.5,0-2.2C30.2,81,32.2,81,34.3,81z M67.8,101.2c-2.7,0-5.4-0.1-8.2-0.1c0-0.3,0-0.8-0.2-0.9c-2.2-1.1-4.3-2.2-6.9-1.9
		c-1.4,0.1-2.4,0.2-2.4,1.7c-2.7,0.9-2.2-1.7-3.3-2.4c1.4-1.1,2.5-2.1,4-0.3c0.2,0.3,1,0.2,1.5,0.2c7.3,0,14.6,0,21.9,0
		c2,0,4,0,5.9,0c0,0.3,0,0.6,0,0.9c-1.1,0-2.3-0.1-3.4,0c-0.5,0-1,0.4-1.4,0.6c0.5,0.3,1,0.6,1.5,0.8c0.5,0.1,1.1-0.1,1.5,0.1
		c1.8,0.7,4.6,0.3,4.1,3.6c6.6,0.8,16.1-0.3,19-3.4c-1-2.3-3-1.5-5-1.5c0.4-0.7,0.7-1.2,1.3-2.2c-3.8-0.4-7.1-1.1-10.5-1.1
		c-14.5,0-28.9,0.2-43.4,0.2c-1.6,0-3,0.2-3.9,1.6c-0.9-0.2-1.8-0.5-2.9-0.8c0.9-0.3,1.6-0.5,2.9-0.9c-2.2,0-3.8,0-5.7,0
		c0.6,0.3,0.9,0.4,1.4,0.7c-1,0.1-1.8,0.1-2.6,0.1c0,0.1,0,0.2,0,0.3c0.7,0.3,1.5,0.6,2.2,0.9c0.1,0.2,0.1,0.4,0.2,0.5
		c11.1,4.2,22.5,6.6,34.4,5.7c0.5,0,1-0.4,1.6-0.6c0-0.2-0.1-0.5-0.1-0.7c-2.3,0-4.5,0.1-6.8,0c-1.9-0.1-3.7-0.2-5.6-0.4
		c2.4,0,4.7,0,7.1-0.1C66.5,101.8,67.2,101.4,67.8,101.2c2.3,0.7,4.6,1.2,7.2,0C72.4,101.2,70.1,101.2,67.8,101.2z M29.7,82.8
		c1.5,3.6,3,7.4,4.6,11.1c0.2,0.5,1,0.9,1.5,0.9c3.3-0.1,6.6-0.3,9.3-0.5c-2.7-2.9-5.6-6-8.5-9.2C34.8,83.2,33,81.3,29.7,82.8z
		 M75.8,105.3c1.7,0,3.4,0.4,4.8-0.2c0.8-0.3,0.9-2.3,1.4-4c-2.5,0.1-4.3,0.2-6.2,0.3C75.8,102.7,75.8,103.7,75.8,105.3z M64.4,98.5
		c3,0.4,6.1,3.2,9.1,0.8c0-0.3,0-0.5,0-0.8C70.5,98.5,67.4,98.5,64.4,98.5z"/>
	<path class="st11" d="M40,97.1c0.9-1.4,2.3-1.6,3.9-1.6c14.5,0,28.9-0.2,43.4-0.2c3.4,0,6.7,0.7,10.5,1.1c-0.6,0.9-0.9,1.4-1.3,2.2
		c2,0,4-0.8,5,1.5c-2.9,3.1-12.4,4.2-19,3.4c0.4-3.2-2.3-2.9-4.1-3.6c-0.5-0.2-1.1,0-1.5-0.1c-0.5-0.2-1-0.5-1.5-0.8
		c0.5-0.2,0.9-0.5,1.4-0.6c1.1-0.1,2.3,0,3.4,0c0-0.3,0-0.6,0-0.9c-2,0-4,0-5.9,0c-7.3,0-14.6,0-21.9,0c-0.5,0-1.3,0.1-1.5-0.2
		c-1.4-1.8-2.6-0.8-4,0.3c1.1,0.8,0.7,3.3,3.3,2.4c0-1.5,1-1.5,2.4-1.7c2.6-0.3,4.8,0.9,6.9,1.9c0.2,0.1,0.1,0.6,0.2,0.9
		c-0.3,0.3-0.5,0.6-0.8,0.9c1.9,0.1,3.7,0.3,5.6,0.4c2.3,0.1,4.5,0,6.8,0c0,0.2,0.1,0.5,0.1,0.7c-0.5,0.2-1,0.5-1.6,0.6
		c-11.9,0.8-23.3-1.5-34.4-5.7c-0.1,0-0.1-0.3-0.2-0.5C36.8,97.3,38.4,97.2,40,97.1z M81.2,97.8c0,0.1,0,0.3,0,0.4
		c3.1,0,6.2,0,9.4,0c0-0.1,0-0.3,0-0.4C87.5,97.8,84.4,97.8,81.2,97.8z M93.9,100.1c0.3-3.6,0.2-3.7-2.4-3.2
		c0.1,1.1,0.2,2.1,0.4,3.2C92.6,100.1,93.2,100.1,93.9,100.1z"/>
	<path class="st11" d="M29.7,82.8c3.3-1.5,5.1,0.4,6.9,2.3c2.9,3.1,5.8,6.3,8.5,9.2c-2.7,0.2-6,0.4-9.3,0.5c-0.5,0-1.3-0.4-1.5-0.9
		C32.7,90.2,31.2,86.4,29.7,82.8z"/>
	<path class="st11" d="M75.8,105.3c0-1.6,0-2.6,0-3.8c1.9-0.1,3.7-0.2,6.2-0.3c-0.5,1.7-0.6,3.6-1.4,4
		C79.3,105.7,77.5,105.3,75.8,105.3z"/>
	<path class="st11" d="M64.4,98.5c3,0,6.1,0,9.1,0c0,0.3,0,0.5,0,0.8C70.5,101.7,67.4,98.9,64.4,98.5z"/>
	<path class="st11" d="M40,97.1c-1.6,0.1-3.2,0.2-4.8,0.3c-0.7-0.3-1.5-0.6-2.2-0.9c0-0.1,0-0.2,0-0.3c0.8,0,1.6-0.1,2.6-0.1
		c-0.5-0.2-0.8-0.4-1.4-0.7c1.9,0,3.6,0,5.7,0c-1.2,0.4-2,0.6-2.9,0.9C38.2,96.6,39.1,96.9,40,97.1z"/>
	<path class="st11" d="M58.8,102c0.3-0.3,0.5-0.6,0.8-0.9c2.7,0,5.4,0.1,8.2,0.1l0,0c-0.6,0.2-1.2,0.6-1.9,0.7
		C63.6,101.9,61.2,101.9,58.8,102z"/>
	<path class="st11" d="M67.8,101.2c2.3,0,4.6,0,7.2,0C72.4,102.4,70.1,101.9,67.8,101.2C67.8,101.2,67.8,101.2,67.8,101.2z"/>
	<path d="M81.2,97.8c3.1,0,6.2,0,9.3,0c0,0.1,0,0.3,0,0.4c-3.1,0-6.2,0-9.4,0C81.2,98.1,81.2,97.9,81.2,97.8z"/>
	<path d="M93.9,100.1c-0.7,0-1.3,0-2,0c-0.1-1.1-0.3-2.2-0.4-3.2C94,96.4,94.1,96.5,93.9,100.1z"/>
</g>
<g id="acft2">
	<path d="M486.4,11.8c0.3,0.7,0.5,1.4,0.8,2.1c-0.2,3.8-0.5,7.5-0.7,11.4c1.7-0.2,3.2-0.4,4.7-0.6c0.2,0.6,0.4,1.1,0.6,1.7
		c-5.9,6-12.6,11-19.9,15.1c-5,2.9-10.7,4.5-16,7c-2.1,1-3.9,2.6-5.9,4c-1.5,0.6-3.1,1.1-4.6,1.7c-2.4-1.5-4.6-0.3-6.8,0.6
		c-5.1,2-10.3,2.7-15.7,1.4c-0.3-0.8-0.6-1.7-0.9-2.5c3.7-6.2,10-8.5,16.4-10.7c9.5-3.3,18.9-7.1,28.5-10.2
		c5.3-1.7,7.8-5.6,9.8-10.2c1.3-2.9,2.6-5.8,3.8-8.6C482.5,13.2,484.5,12.5,486.4,11.8z M449.2,46.8c2.9,0.2,4.9-1,6.8-2.5
		c0.7,0,1.4,0.2,2,0c2.3-0.7,4.5-1.5,6.7-2.3c-1.7,0.8-3.4,1.6-5.2,2.3c-2.1,0.8-4.2,1.6-6.4,2.3c0,0.2,0.1,0.5,0.1,0.7
		c0.6,0,1.1,0.1,1.7,0c11.5-3.3,21.4-9.4,30.4-17.2c0.1-0.1,0-0.3,0-0.5c0.6-0.5,1.2-1.1,1.8-1.6c0-0.1-0.1-0.2-0.1-0.3
		c-0.7,0.2-1.5,0.4-2.5,0.8c0.4-0.4,0.6-0.6,1.1-1.1c-1.8,0.7-3.3,1.2-5.4,2c1.3,0,2.1-0.1,3-0.1c-1,0.7-1.7,1.2-2.5,1.7
		c-1.4-1-2.7-0.7-4.2-0.2c-13.6,4.9-27.3,9.7-40.9,14.6c-3.2,1.2-6.1,2.9-9.5,4.6c0.9,0.7,1.3,1,2,1.6c-1.9,0.7-4.1,0.6-4.2,3.1
		c3.8,2,13.1-0.3,19.1-3.3c-1.5-2.9,1.2-3.5,2.7-4.8c0.4-0.3,1-0.3,1.4-0.6c0.4-0.3,0.8-0.8,1.1-1.2c-0.5,0-1.1-0.2-1.5,0
		c-1.1,0.3-2.1,0.7-3.2,1.1c-0.1-0.3-0.2-0.6-0.3-0.9c1.9-0.7,3.7-1.4,5.6-2c6.9-2.5,13.7-5,20.6-7.5c0.5-0.2,1.2-0.4,1.3-0.7
		c0.7-2.2,2.2-1.6,3.8-1.1c-0.8,1.1,0.5,3.4-2.3,3.4c-0.5-1.4-1.5-1.1-2.8-0.8c-2.6,0.7-4.2,2.4-5.9,4.2c-0.1,0.1,0.1,0.6,0.2,0.9
		c-2.5,1-5.1,1.9-7.6,2.9C453.8,45.1,451.7,45.9,449.2,46.8z M479.8,18.6c-1.7,3.9-3.3,7.9-4.9,11.5c2.6-0.8,5.8-1.7,8.9-2.7
		c0.5-0.2,1.1-0.9,1.1-1.4c0.2-4,0.4-8.1,0.5-12C481.9,13.8,480.8,16.1,479.8,18.6z M448.6,47.3c-1.8,0.5-3.5,1.1-5.9,1.8
		c1.1,1.4,1.8,3.2,2.7,3.3c1.4,0.1,3-0.9,4.5-1.5C449.3,49.4,449,48.5,448.6,47.3z M449.7,43.7c0.1,0.2,0.2,0.5,0.3,0.7
		c3.7,1.2,5.6-2.4,8.3-3.9C455.4,41.7,452.6,42.7,449.7,43.7z"/>
	<path class="st11" d="M485.4,29.6c0,0.2,0.1,0.4,0,0.5c-9,7.7-18.9,13.9-30.4,17.2c-0.5,0.1-1.1,0-1.7,0c0-0.2-0.1-0.5-0.1-0.7
		c2.1-0.8,4.3-1.5,6.4-2.3c1.7-0.7,3.4-1.5,5.2-2.3c-0.3-0.2-0.7-0.4-1-0.5c-0.1-0.3-0.3-0.8-0.2-0.9c1.7-1.7,3.3-3.5,5.9-4.2
		c1.3-0.3,2.3-0.6,2.8,0.8c2.8-0.1,1.5-2.3,2.3-3.4c-1.7-0.6-3.1-1.1-3.8,1.1c-0.1,0.3-0.8,0.5-1.3,0.7c-6.9,2.5-13.7,5-20.6,7.5
		c-1.9,0.7-3.7,1.4-5.6,2c0.1,0.3,0.2,0.6,0.3,0.9c1.1-0.4,2.1-0.8,3.2-1.1c0.5-0.1,1,0,1.5,0c-0.4,0.4-0.7,0.9-1.1,1.2
		c-0.4,0.3-1,0.3-1.4,0.6c-1.5,1.3-4.2,1.9-2.7,4.8c-6,3-15.2,5.2-19.1,3.3c0.2-2.5,2.4-2.4,4.2-3.1c-0.7-0.5-1.1-0.9-2-1.6
		c3.4-1.7,6.3-3.4,9.5-4.6c13.6-5,27.2-9.7,40.9-14.6c1.5-0.6,2.8-0.9,4.2,0.2C482.3,30.5,483.8,30.1,485.4,29.6z M433.4,48.9
		c0.1,0.1,0.1,0.3,0.2,0.4c2.9-1.1,5.9-2.1,8.8-3.2c-0.1-0.1-0.1-0.3-0.2-0.4C439.3,46.8,436.3,47.9,433.4,48.9z M433,51.5
		c-0.3-1.1-0.5-2.1-0.8-3.2c-2.5,0.4-2.6,0.5-1.1,3.8C431.8,52,432.3,51.8,433,51.5z"/>
	<path class="st11" d="M485.5,14c-3.6-0.3-4.7,2.1-5.7,4.5c-1.7,3.9-3.3,7.9-4.9,11.5c2.6-0.8,5.8-1.7,8.9-2.7
		c0.5-0.2,1.1-0.9,1.1-1.4C485.2,22,485.4,17.9,485.5,14z"/>
	<path class="st11" d="M449.9,50.9c-0.5-1.5-0.9-2.4-1.3-3.6c-1.8,0.5-3.5,1.1-5.9,1.8c1.1,1.4,1.8,3.2,2.7,3.3
		C446.8,52.5,448.3,51.5,449.9,50.9z"/>
	<path class="st11" d="M458.3,40.6c-2.9,1-5.7,2.1-8.6,3.1c0.1,0.2,0.2,0.5,0.3,0.7C453.7,45.7,455.6,42.1,458.3,40.6z"/>
	<path class="st11" d="M480.7,31c1.5-0.4,3.1-0.9,4.6-1.3c0.6-0.5,1.2-1.1,1.8-1.6c0-0.1-0.1-0.2-0.1-0.3c-0.7,0.2-1.5,0.4-2.5,0.8
		c0.4-0.4,0.6-0.6,1.1-1.1c-1.8,0.7-3.3,1.2-5.4,2c1.3,0,2.1-0.1,3-0.1C482.2,29.9,481.5,30.4,480.7,31z"/>
	<path class="st11" d="M464.7,42c-0.3-0.2-0.7-0.4-1-0.5c-2.5,1-5.1,1.9-7.6,2.9l0,0c0.7,0,1.4,0.2,2,0
		C460.2,43.6,462.5,42.8,464.7,42z"/>
	<path class="st11" d="M456,44.3c-2.2,0.8-4.3,1.6-6.8,2.5C452.1,47,454.1,45.8,456,44.3C456,44.3,456,44.3,456,44.3z"/>
	<path d="M442.2,45.7c-2.9,1.1-5.9,2.1-8.8,3.2c0.1,0.1,0.1,0.3,0.2,0.4c2.9-1.1,5.9-2.1,8.8-3.2C442.3,46,442.2,45.9,442.2,45.7z"
		/>
	<path d="M431.1,52.2c0.7-0.2,1.2-0.4,1.9-0.7c-0.3-1.1-0.5-2.1-0.8-3.2C429.7,48.8,429.6,48.9,431.1,52.2z"/>
</g>
<g id="CPA">
	<rect x="242.5" y="29.1" class="st1" width="39.3" height="16"/>
	<text id="title_7_" transform="matrix(1 0 0 1 249.457 37.6495)" class="st10 st3 st7">CPA</text>
	<g>
		<line class="st12" x1="261" y1="44" x2="261" y2="183"/>
		<g>
			<line class="st13" x1="261.5" y1="44" x2="261.5" y2="46"/>
			<line class="st14" x1="261.5" y1="49" x2="261.5" y2="180"/>
			<line class="st13" x1="261.5" y1="182" x2="261.5" y2="183"/>
		</g>
	</g>
</g>
<g id="arrow1">
	<g>
		<line class="st15" x1="108" y1="100" x2="114" y2="100"/>
		<line class="st16" x1="125" y1="100" x2="231" y2="100"/>
		<line class="st15" x1="237" y1="100" x2="243" y2="100"/>
		<g>
			<polygon class="st17" points="257,100 237.1,108.1 241.8,100 237.1,91.9 			"/>
		</g>
	</g>
</g>
<g id="arrow2">
	<g>
		<line class="st15" x1="278.6" y1="96.3" x2="284.4" y2="94.7"/>
		<line class="st18" x1="296" y1="91.5" x2="406.4" y2="61.2"/>
		<line class="st15" x1="412.2" y1="59.6" x2="418" y2="58"/>
		<g>
			<polygon class="st17" points="265,100 286.3,102.6 279.6,96 282,86.9 			"/>
		</g>
	</g>
</g>
<g id="arrow4">
	<g>
		<path class="st19" d="M212.1,83.3c1.9,0,3.9,0,6,0"/>
		<path class="st20" d="M229.7,83.2c14.5-0.1,29.6-0.4,37.3-0.2c78.6,2,104.3-10.1,139.7-21.5"/>
		<path class="st19" d="M412.3,59.7c1.9-0.6,3.8-1.2,5.7-1.7"/>
		<g>
			<polygon class="st21" points="198,83 217.7,91.5 213.2,83.3 218,75.2 			"/>
		</g>
	</g>
</g>
<g id="arrow3">
	<g>
		<path class="st19" d="M108,100c2,0,4,0,6,0.1"/>
		<path class="st22" d="M126,100.6c26.7,2,46.9,8.4,61,14.4c28.5,12,37.9,24.6,64,33c17.5,5.7,35,8,49.9,8.8"/>
		<path class="st19" d="M306.9,157.1c2.1,0.1,4.1,0.1,6,0.1"/>
		<g>
			<polygon class="st21" points="327,157 307.2,165.4 311.8,157.2 307,149.1 			"/>
		</g>
	</g>
</g>
<g id="buttonStart">
	<path class="st23" d="M481.6,240h-54.8c-3.2,0-5.8-2.6-5.8-5.8v-8.9c0-3.2,2.6-5.8,5.8-5.8h54.8c3.2,0,5.8,2.6,5.8,5.8v8.9
		C487.4,237.4,484.8,240,481.6,240z"/>
	<rect x="425" y="224.2" class="st1" width="35" height="15"/>
	<text transform="matrix(1 0 0 1 429.6553 234.1911)" class="st24 st3 st9">Start</text>
	<g>
		<g>
			<polygon class="st24" points="470.2,223.7 479.7,229.2 470.2,234.6 			"/>
		</g>
	</g>
</g>
<g id="buttonNext">
	<path class="st23" d="M481.6,240h-54.8c-3.2,0-5.8-2.6-5.8-5.8v-8.9c0-3.2,2.6-5.8,5.8-5.8h54.8c3.2,0,5.8,2.6,5.8,5.8v8.9
		C487.4,237.4,484.8,240,481.6,240z"/>
	<rect x="425" y="224.2" class="st1" width="35" height="15"/>
	<text transform="matrix(1 0 0 1 429.6553 234.1911)" class="st24 st3 st9">Next</text>
	<g>
		<g>
			<polygon class="st24" points="470.2,223.7 479.7,229.2 470.2,234.6 			"/>
		</g>
	</g>
</g>
<g id="buttonReplay">
	<path class="st23" d="M481.6,240h-68.8c-3.2,0-5.8-2.6-5.8-5.8v-8.9c0-3.2,2.6-5.8,5.8-5.8h68.8c3.2,0,5.8,2.6,5.8,5.8v8.9
		C487.4,237.4,484.8,240,481.6,240z"/>
	<rect x="409.5" y="224.2" class="st1" width="50.5" height="15"/>
	<text transform="matrix(1 0 0 1 414.0898 234.1911)" class="st24 st3 st9">Replay</text>
	<g>
		<g>
			<polygon class="st24" points="479.7,223.7 470.2,229.2 479.7,234.6 			"/>
		</g>
	</g>
</g>

</svg>
