<?xml version="1.0" encoding="utf-8"?>
<!-- Generator: Adobe Illustrator 18.1.1, SVG Export Plug-In . SVG Version: 6.00 Build 0)  -->
<svg version="1.1" id="Layer_1" xmlns="http://www.w3.org/2000/svg" xmlns:xlink="http://www.w3.org/1999/xlink" x="0px" y="0px"
	 width="960px" height="560px" viewBox="0 0 960 560" style="enable-background:new 0 0 960 560;" xml:space="preserve">
<style type="text/css">
	.st0{fill:#FFFFFF;}
</style>
<g>
	<g>
		<path class="st0" d="M632,286c0,31.28,0,62.55,0,94c-61.67,0-123.33,0-185,0c2.47-3.51,5.93-4.18,9.99-3.93
			c8.86,0.54,17.62-0.32,26.1-3.02c4.16-1.32,8.58-2.57,10.97-6.77c-0.32-0.75-0.38-1.36-0.72-1.63c-5.23-4.11-10.53-8-17.49-8.79
			c-4.79-0.55-9.54-1.13-14.39-1.11c-24.78,0.06-49.56-0.12-74.33,0.11c-8.13,0.08-15.91-0.41-22.86-5.14
			c-0.33-0.33-0.67-0.66-1-0.99c-0.31-1.02-0.93-1.74-1.99-2.01c-0.33-0.33-0.66-0.66-1-1c-0.33-0.34-0.67-0.67-1-1.01
			c-0.33-0.33-0.67-0.67-1-1c-0.33-0.33-0.67-0.67-1-1c-0.33-0.33-0.67-0.67-1-1c-3.29-4.72-7.2-8.83-12-12.04
			c-0.95-2.78-3.21-3.7-5.82-3.8c-2.81-0.11-5.63,0.07-8.45,0.13c0-35,0-70,0-105c2.28,1.16,3.25-2.46,5.85-1.4
			c2.04,0.83,4.58,0.54,6.89,0.52c2.25-0.02,4.26,0.41,5.87,2.29c2.5-1.8,5.22-1.51,7.81-1.1c7.01,1.13,14.08,1.58,21.03,2.34
			c-3.13,5.44-3.19,7.77-0.21,10.22c2.23,1.82,4.06,1.58,6.72-0.9l0.08-0.06c3.69-2.3,1.79-5.37,0.91-8.46
			c1.67,0.23,2.19,1.94,3.66,2.02c1.15-0.39,2.2-1.25,3.69-0.8c3.3,1,6.8,1.29,9.78,3.37c3.03,2.11,6.77,3.2,9.81,0.95
			c6.01-4.44,13.5-2.75,19.82-5.55c0.3-0.13,0.88,0.35,1.33,0.55l-0.05,0.05c-3.22,2.1-3.75,3.76-2.17,6.78
			c1.39,2.66,3.66,3.79,6.12,3.06c2.87-0.86,4.65-4.09,4.18-7.12c-0.25-1.62-2.01-2.53-2.04-4.11c2.23-1.21,4.27,0.85,6.11-0.27
			c2.94-1.79,6.12-1.21,9.24-1.14c1.13,0.02,2.14,0.39,3.34-0.21c3.16-1.58,6.43-1.17,9.76,0.2c2.39-2.83,5.74-2,8.82-2.13
			c3.08-0.13,6.34-1.68,9.22,1.64c0.67-2.61,0.7-4.52,0.38-6.55c-4.14,1.9-51.86,5.27-66.38,4.78c-0.58-1.33-1.26-2.66-0.68-4.37
			c3.08-0.42,6.18-0.86,9.29-1.26c6.82-0.89,6.82-0.88,8.17-2.51c-1.11-1.47-2.71-0.88-4.14-0.98c-3.69-0.26-7.27,0.8-10.93,0.93
			c-9.11,0.34-10.9-1.39-11.12-10.38c-0.17-6.81,0.42-13.68-1.2-20.4c74.33,0,148.67,0,223,0c0,34,0,68,0,102
			c-3.08-2.91-6.76-4.7-10.78-5.91c-6.69-2.01-13.44-3.49-20.49-3.33c-5.46,0.12-10.94-0.12-16.4,0.07
			c-3.74,0.12-6.39-1.35-8.22-4.47c-1.43-2.42-2.77-4.9-4.15-7.35l0.05-0.05c3.68,1.62,7.74,0.89,11.54,1.84
			c1.21,0.3,2.24-0.3,2.41-1.76l0.12-0.12c3.27-1.94,2.21-4.91,1.54-7.53c-0.68-2.66-3.18-2.56-5.37-2.55
			c-3.81,0.02-7.64-0.32-11.28,1.45c-2.31,1.12-4.18,0.28-5.39-2.02c-0.62-1.18-1.38-2.27-2.06-3.42c-7-11.92-13.96-23.85-21-35.74
			c-3.38-5.7-5.89-6.52-12.85-4.5c1.83,5.77,6.57,10.75,4.88,17.56c3.95,2.55,6.18,7.36,3.93,11.88c4.44,1.35,4.63,5.52,5.98,8.63
			c-0.34,1.51-2.1,1.67-1.88,3.11c6.02,3.72,7.22,10.25,2.95,16.34c2.99,2.33,2.83,5.19,1.53,8.22c-2.36,0.71-4.54,0.46-6.68,0.41
			c-13.87-0.33-27.58,1.26-41.22,3.46c-2.96,0.48-4.59-0.13-6.3-2.43c-2.04-2.76-3.46-6.14-6.8-7.77l-0.12-0.15
			c-0.58-3.49-3.29-5.69-5.17-8.35c-3.02-4.26-6.62-4.86-12.03-2.05c2.82,7.94,5.68,15.96,8.47,23.81
			c-2.93,2.14-6.75,0.99-8.76,3.96c2.58,2.31,6.12,1.82,8.82,3.67c-3.03,8.3-5.96,16.35-8.9,24.42c7.54,2.04,9.7,1.32,12.92-4.05
			c0.33-0.33,0.66-0.66,1-1c3.82-3.75,6.42-8.45,9.63-12.68c2.38-3.13,5-3.92,8.6-3.32c14.6,2.42,29.29,4,44.12,3.93
			c1,0,2.01,0.02,2.82,0.97c0.88,2.96,0.51,5.73-1.5,7.26c2.46,6.87,4.32,12.77-3.53,16.7c0.09,1.49,2.13,1.74,1.98,3.31
			c-1.31,3.33-1.73,7.25-5.93,8.47c2.51,5.5-0.43,8.88-3.57,11.47c0.82,7.15-3.32,12.26-5.18,17.99c6.98,1.99,9.43,1.17,12.82-4.59
			c7.42-12.61,14.76-25.27,22.16-37.9c2.37-4.04,3.26-4.47,7.65-2.89c3.57,1.28,7.21,1.26,10.84,1.03c3.8-0.24,5.08-1.96,4.94-5.99
			c-0.13-3.82-1.25-5.05-5.12-5.19c-3.42-0.12-6.86-0.03-10.5-0.03c1.83-3.32,3.58-6.49,5.32-9.66l0.07-0.13
			c6.53-1.57,13.17-0.81,19.75-0.8c8.37,0.01,16.43-1.58,24.34-4.05c2.6-0.81,5.49-1.44,7.01-4.19l0.14-0.11
			C630.26,287.11,631.08,286.41,632,286z"/>
		<path class="st0" d="M330,214c0-10.95,0-21.9,0-33c25.67,0,51.33,0,77,0c-1.39,9.37-0.91,18.86-1.29,27.96
			c-2.71,2.25-5.27,3.13-8.26,2.87c-4.47-0.38-8.94-0.73-13.41-0.95c-1.36-0.07-3.09-0.55-4.05,2.1c5.66,2.18,11.91,1.16,17.43,2.88
			c0.33,1.94-0.11,3.28-1.41,4.53c-5.01-0.72-10.17-0.38-15.3-0.71c-13.75-0.89-27.49-1.96-41.24-2.7
			C335.94,216.8,332.63,216.67,330,214z"/>
		<path d="M481.28,308.27c-3.23,5.36-5.38,6.08-12.92,4.05c2.94-8.07,5.87-16.12,8.9-24.42c-2.7-1.85-6.25-1.36-8.82-3.67
			c2.01-2.96,5.83-1.81,8.76-3.96c-2.79-7.85-5.64-15.87-8.47-23.81c5.41-2.81,9.01-2.21,12.03,2.05c1.89,2.66,4.6,4.86,5.17,8.35
			c-3.2-1.28-4.14-4.55-6.08-6.93c-1.36-1.68-2.54-3.51-5.52-2.06c3.43,7.3,6.77,14.42,10.21,21.74c2.74-0.91,5.48-0.2,7.73-1.84
			c-0.49-2.06-1.92-3.32-2.75-4.91c-1.06-2.01-3.39-3.27-3.46-5.86c3.35,1.63,4.76,5.01,6.8,7.77c1.71,2.31,3.34,2.91,6.3,2.43
			c13.64-2.2,27.35-3.79,41.22-3.46c2.14,0.05,4.33,0.3,6.68-0.41c1.3-3.02,1.46-5.89-1.53-8.22c4.27-6.09,3.07-12.62-2.95-16.34
			c-0.21-1.45,1.54-1.6,1.88-3.11c-1.35-3.12-1.55-7.29-5.98-8.63c2.25-4.52,0.02-9.33-3.93-11.88c1.69-6.81-3.05-11.79-4.88-17.56
			c6.96-2.02,9.47-1.2,12.85,4.5c7.04,11.89,14,23.83,21,35.74c0.67,1.15,1.44,2.25,2.06,3.42c1.22,2.3,3.08,3.14,5.39,2.02
			c3.64-1.77,7.47-1.43,11.28-1.45c2.18-0.01,4.69-0.12,5.37,2.55c0.67,2.62,1.73,5.6-1.54,7.53c-0.6-2.37,0.63-4.99-0.93-7.18
			c-5.25-1.21-8.27-1.04-10.99,0.6c2.6,1.3,6.05-0.78,8.46,2.1c-2.31,3.04-6.07,0.7-9.46,2.89c4.81,0.64,8.81,1.17,12.8,1.7
			c-0.17,1.46-1.21,2.06-2.41,1.76c-3.8-0.95-7.86-0.22-11.54-1.84l-0.18-0.12l0.13,0.17c1.38,2.45,2.72,4.93,4.15,7.35
			c1.84,3.11,4.48,4.59,8.22,4.47c5.46-0.18,10.93,0.06,16.4-0.07c7.05-0.16,13.8,1.32,20.49,3.33c4.02,1.21,7.7,3.01,10.78,5.91
			c0,1,0,2,0,3c-0.92,0.41-1.74,1.11-2.85,0.9c1.21-3.18-0.05-5.03-3.15-5.91c-0.27-0.05-0.34-0.76-0.79-0.25
			c0.26,0.09,0.52,0.17,0.78,0.26c1,1.9,2.17,3.78,0.51,6.01c1.19,0,1.85,0,2.51,0c-1.52,2.75-4.41,3.38-7.01,4.19
			c-7.91,2.47-15.97,4.06-24.34,4.05c-6.58-0.01-13.22-0.77-19.75,0.8c-7.69-1.68-15.4-0.6-22.72-0.6
			c-1.13,1.56-1.12,2.81-0.82,3.88c1.1,3.93,1.38,7.94,0.34,11.83c-0.97,3.62-1.86,7.28-3.09,10.82
			c-3.02,8.65-8.06,16.4-11.33,24.95c-0.52,1.35-1.58,2.02-2.62,2.86c-3.02,2.43-3.92,5.79-4.12,9.36c1.85,0.89,2.91,0.35,3.7-0.96
			c0.95-1.57,1.92-3.12,2.83-4.71c8.94-15.78,17.79-31.61,26.87-47.32c1.97-3.41,3.29-7.3,6.6-10.22c1.35,0.89,2.82-0.05,4.3,0.23
			c-1.75,3.17-3.49,6.34-5.32,9.66c3.64,0,7.08-0.1,10.5,0.03c3.86,0.14,4.98,1.37,5.12,5.19c0.14,4.03-1.14,5.75-4.94,5.99
			c-3.64,0.23-7.27,0.25-10.84-1.03c-4.39-1.58-5.29-1.14-7.65,2.89c-7.4,12.63-14.74,25.29-22.16,37.9
			c-3.39,5.76-5.84,6.58-12.82,4.59c1.86-5.73,6-10.85,5.18-17.99c3.14-2.59,6.08-5.96,3.57-11.47c4.2-1.22,4.62-5.14,5.93-8.47
			c0.15-1.57-1.89-1.82-1.98-3.31c7.85-3.93,5.98-9.83,3.53-16.7c2.01-1.54,2.38-4.3,1.5-7.26c-0.8-0.96-1.82-0.98-2.82-0.97
			c-14.83,0.07-29.52-1.51-44.12-3.93c-3.59-0.6-6.22,0.19-8.6,3.32c-3.21,4.22-5.81,8.92-9.63,12.68c-0.23-0.2-0.45-0.4-0.68-0.59
			c3-5.66,7.4-10.38,10.96-15.73c-6.84-3.17-8-2.72-10.83,3.56c-1.69,3.77-3.6,7.44-5.35,11.18c-0.81,1.74-1.82,3.45-1.78,5.73
			c3.3,0.47,4.13-2.58,6.09-3.73C480.89,307.89,481.09,308.08,481.28,308.27z M542.99,351.97c-0.34,0.67-0.68,1.35-1.01,2.02
			l-0.16,0.2l0.2-0.16c0.34-0.68,0.67-1.35,1.01-2.03l0.16-0.2L542.99,351.97z M545.02,349.03c0.34-0.67,0.67-1.34,1.01-2.01
			c0.33-0.67,0.66-1.34,1-2.02l0.19-0.2c0,0-0.21,0.17-0.21,0.17c-0.33,0.67-0.67,1.34-1,2.01c-0.34,0.67-0.67,1.33-1.01,2
			l-0.18,0.19C544.8,349.19,545.02,349.03,545.02,349.03z M549.01,342.01c0.33-0.67,0.67-1.34,1-2c0.33-0.67,0.66-1.34,0.99-2.02
			c-0.33,0.67-0.67,1.33-1,2c-0.33,0.67-0.67,1.33-1,2l-0.19,0.2C548.8,342.19,549.01,342.01,549.01,342.01z M553.99,332.99
			c0.6-0.53,0.89-1.22,1-2c1.16-0.67,1.76-1.71,2-3c0.33-0.67,0.67-1.34,1-2.01c1.77-1.2,2.51-3.03,3-5c1.72-1.3,2.57-3.09,2.9-5.17
			c-1.46,1.45-2.45,3.17-2.87,5.2c-1.74,1.22-2.47,3.05-3,5c-0.33,0.67-0.67,1.34-1,2.01c-1.12,0.69-1.71,1.74-2,2.99
			c-0.33,0.67-0.67,1.33-1,2c-0.07,0.28-0.84,0.34-0.28,0.83C553.82,333.56,553.91,333.27,553.99,332.99z M547.02,328.02
			c0.04-0.29,0.76-0.4,0.23-0.85c-0.09,0.27-0.17,0.55-0.26,0.82c-0.07,0.29-0.8,0.36-0.27,0.84
			C546.82,328.56,546.92,328.29,547.02,328.02z M550.99,231.02l0.23,0.17c0,0-0.21-0.2-0.21-0.2c-0.34-0.67-0.67-1.33-1.01-2
			c-0.33-0.67-0.66-1.33-1-2c-0.33-0.67-0.67-1.34-1-2.02c-0.33-0.33-0.66-0.66-1-0.99c-0.33-0.67-0.67-1.33-1-2
			c-0.33-0.67-0.67-1.35-1-2.02l-0.2-0.17l0.17,0.2c0.33,0.67,0.67,1.34,1,2.02c0.34,0.67,0.67,1.33,1.01,2
			c0.33,0.33,0.67,0.66,1,0.98c0.34,0.67,0.67,1.33,1.01,2c0.33,0.67,0.67,1.33,1,2C550.33,229.68,550.66,230.35,550.99,231.02z
			 M548.99,316.97c-0.04,0.29-0.74,0.39-0.25,0.84c0.1-0.27,0.19-0.53,0.29-0.8l0.14-0.19L548.99,316.97z M549,323
			c0.07-0.29,0.81-0.36,0.26-0.84C549.17,322.44,549.09,322.72,549,323z M548.99,246c0.34,0.67,0.67,1.33,1.01,2
			c0.22,0.19-0.2,0.84,0.5,0.71c-0.17-0.23-0.33-0.47-0.5-0.7C549.67,247.33,549.34,246.66,548.99,246z M541.01,212.96l-0.2-0.15
			l0.16,0.2c0.34,0.67,0.68,1.35,1.02,2.02l0.2,0.17c0,0-0.16-0.2-0.16-0.2C541.69,214.31,541.35,213.64,541.01,212.96z
			 M547.01,240.99c-0.24-0.17,0.14-0.83-0.52-0.67c0.17,0.23,0.33,0.46,0.5,0.69c0.24,0.18-0.15,0.82,0.51,0.68
			C547.34,241.45,547.17,241.22,547.01,240.99z M556.01,238.99c0.33,0.67,0.67,1.34,1,2c0.52,1.95,1.24,3.79,3,4.99
			c0.12,0.78,0.39,1.47,1,2.01c0.51,1.96,1.23,3.79,3,4.99l0.2,0.24l-0.23-0.21c-0.48-1.98-1.22-3.8-3-4.99
			c-0.11-0.78-0.4-1.47-1-2.01c-0.5-1.96-1.28-3.76-3-4.99c-0.33-0.67-0.66-1.34-1-2.01c-0.27-1.27-0.86-2.32-2-3
			c-0.21-0.21,0.22-0.87-0.51-0.72c0.17,0.23,0.35,0.47,0.52,0.7C554.28,237.26,554.88,238.3,556.01,238.99z M568,260
			c-0.32-1.54-0.86-2.95-2.5-4.51C565.81,257.82,566.63,259.07,568,260c1.22,3.82,3.13,7.22,5.86,10.13
			C572.4,266.45,570.83,262.84,568,260z M484.79,286.57c1.78,0.36,3.55,0.86,5.35,1.07c7.48,0.85,14.76,3.98,22.51,2.07
			c0.6-0.15,1.41-0.03,1.95,0.27c5.14,2.9,10.84,2.72,16.41,2.83c11.32,0.21,22.64,0.07,33.95,0.26c2.51,0.04,4.84-0.81,7.39-0.56
			c11.45,1.1,22.91,0.38,34.49,0.36c2.4-4.55,5.74-4.6,9.64-1.75c1.91-2.82,5.03-3.97,7.06-6.84c-2.59-2.39-5.07-4.69-7.3-6.75
			c-2.24-0.29-2.25,2.38-4.77,2.06c-0.4-0.15-1.92-0.23-2.48-1.01c-2.44-3.34-5.94-3.3-9.42-3.32c-6.99-0.05-13.98,0.08-20.97-0.04
			c-2.88-0.05-5.59,0.36-8.45,1.86c-2.24-2.2-5.14-1.8-7.96-1.82c-13.3-0.1-26.6-0.1-39.88,0.94c-2.18,0.17-4.31,0.34-6.14,1.71
			c-1.63,1.22-3.35,1.39-5.11,0.31c-0.75-0.46-1.48-0.63-2.35-0.51c-7.35,0.98-14.69,2.07-21.89,3.95
			c8.35,0.28,16.67,0.23,24.99,0.32c2.19,0.02,4.72-0.3,6.15,3.03C506.8,288.26,495.74,286.14,484.79,286.57z M533.4,209.86
			c0.7,3.82,1.27,7.54,4.95,9.75c0.89,0.54,1.47,1.25,1.9,2.21c3.63,8.01,7.27,16.02,11,23.98c1.09,2.33,0.8,5.13,1.79,7.14
			c2.43,4.93,2.56,9.84,1.69,14.96c-0.3,1.8-0.89,3.53,0.33,5.55c7.08,0,14.29,0,21.58,0c-0.95-1.85-2.98,0.26-4.05-1.17
			c-8.17-14.07-16.23-28.22-24.27-42.37c-3.28-5.78-6.49-11.6-9.84-17.35C537.49,210.83,536.59,208.47,533.4,209.86z M573.55,314.02
			c4.41,1.26,8.12,1.22,11.94,0.2c0.45-2.04,0.88-3.78-0.49-5.71c-3.59-0.68-7.3-1.03-11.45,0.38c3.02,2,6.79-0.58,9.04,2.71
			C580.16,314.3,576.74,312.29,573.55,314.02z M471.73,311.28c3.49-7.51,6.98-15.02,10.68-23
			C478.02,289.45,476.39,292.92,471.73,311.28z M482.17,279.06c-3.26-6.8-6.64-13.85-10.02-20.91c-0.29,0.13-0.58,0.27-0.86,0.4
			c2.74,7.39,5.47,14.78,8.12,21.94C480.93,280.37,481.52,280.14,482.17,279.06z M510.91,284.66c-8.37-2.59-16.29-0.47-24.21,0
			C494.62,284.66,502.54,284.66,510.91,284.66z M574.29,299.13c-0.32-0.2-0.64-0.39-0.95-0.59c-2.62,4.44-5.37,8.8-6.86,13.89
			C569.08,308,571.68,303.56,574.29,299.13z M550.91,255.37c-1.02,1.92-1.42,3.3,1.07,4.29
			C553.13,257.77,552.94,256.53,550.91,255.37z M551.07,313.65c1.88-1.48,2.3-2.71,0.37-4.42
			C549.71,310.67,549.71,311.93,551.07,313.65z M552.98,306.37c0.96-1.38,0.98-2.43,0.02-3.73
			C551.99,304.04,551.97,305.09,552.98,306.37z M552.87,262.61c-0.82,1.25-0.91,2.23-0.05,3.56
			C553.91,264.83,554.05,263.84,552.87,262.61z M552.28,298.62c0.13,0.17,1-0.62,0-1.06C552.28,298.22,552.28,298.84,552.28,298.62z
			 M552.56,269.4c-0.61,0.73-0.44,1.47-0.13,2.26C552.98,270.92,552.81,270.18,552.56,269.4z M611.16,276.63
			c-0.18,0.14-0.37,0.26-0.53,0.42c-0.02,0.02,0.13,0.21,0.21,0.32c0.18-0.14,0.37-0.27,0.53-0.42
			C611.39,276.93,611.23,276.74,611.16,276.63z M570.75,255.35c-0.16,0-0.31,0-0.47,0c0,0.11,0,0.21,0,0.32c0.16,0,0.31,0,0.46-0.03
			C570.77,255.64,570.75,255.44,570.75,255.35z"/>
		<path d="M364.27,349.72c6.95,4.73,14.72,5.22,22.86,5.14c24.77-0.23,49.55-0.05,74.33-0.11c4.84-0.01,9.6,0.57,14.39,1.11
			c6.96,0.79,12.26,4.68,17.49,8.79c0.34,0.26,0.4,0.87,0.72,1.63c-2.39,4.2-6.81,5.44-10.97,6.77c-8.47,2.69-17.24,3.56-26.1,3.02
			c-4.05-0.25-7.52,0.42-9.99,3.93c-3.33,0-6.67,0-10,0c-5.35-2.95-11.07-4.02-17.19-3.95c-10.93,0.12-21.95,0.89-32.77-1.12
			c-19.59-3.65-38.59-9.41-57.05-16.93c0-0.67,0-1.33,0-2c3.45-0.26,6.93-0.36,10.67-1.9c-3.08-8.94-6.76-17.57-10.67-26.1
			c0-0.67,0-1.33,0-2c2.82-0.05,5.64-0.24,8.45-0.13c2.61,0.1,4.87,1.02,5.82,3.8c-0.17,0.2-0.35,0.39-0.53,0.59
			c-2.19-2.08-4.64-2.97-8.03-1.6c4.63,7.85,9.16,15.54,13.7,23.23c0.95,1.61,2.36,2.08,4.2,2.04c4.29-0.1,8.59-0.03,13.53-0.03
			c-1.45-1.52-2.44-2.56-3.43-3.6C363.9,350.1,364.08,349.91,364.27,349.72z M350.99,363.01c-1.35-1.13-2.76-2-4.91-1.51
			c1.61,1.5,3.33,1.29,4.93,1.48c1.07,1.15,2.5,1.59,3.95,2c4.96,1.42,9.93,2.78,14.86,4.31c17.28,5.39,35.01,4.96,53.57,4.4
			c-2.01-1.68-3.7-1.43-5.27-1.44c-5.5-0.04-10.99,0.02-16.49-0.05c-1.76-0.02-3.72,0.51-5.64-1.87c-0.35-0.3,1.7-1.14,0.64-2.09
			c-1.67-0.96-3.86-0.94-4.97-3.01c-0.88-1.64-2.75-1.79-4.39-1.89c-2.65-0.17-5.32-0.33-7.8,0.12c-1.47,0.76-1,2.61-2.62,3.49
			c-1.13,0.3-2.57,0.42-4.57-0.58c0.2-1.87-2.03-3.1-2.33-5.2c3.74-4.05,3.83-4.13,7.97-2.11c1.26,0.61,2.55,0.62,3.82,0.93
			c4.1,0.99,8.25,0.59,12.37,0.63c11.32,0.11,22.66,0.44,33.96-0.03c5.17-0.22,10.22,0.63,15.34,0.38c0.7-0.03,1.19,0.48,1.24,1.36
			c-2.85,3.04-6.8,0.8-10.53,1.71c1.51,2.37,3.5,1.48,5.11,1.74c5.16,0.83,10.96,0.66,11.77,7.92c7.3,0,14.31,0.42,21.24-0.13
			c5.44-0.44,10.76-2.13,15.84-4.32c1.22-0.53,2.51-1.02,3.17-2.29c0.52-0.99,0.11-1.56-0.96-1.71c-0.19-0.18-0.36-0.36-0.53-0.56
			c-2.34-2.82-5.85,0.87-7.57-0.75c-1.81-2.04,0.21-3.13-0.48-4.47c-2.1-0.91-4.35-1.37-6.68-1.44c0,0-0.07-0.06-0.07-0.06
			c-0.78-0.24-1.56-0.66-2.35-0.7c-7.29-0.34-14.55-1.2-21.88-1.08c-29.73,0.48-59.48-0.84-89.2,1c-0.96,0.06-2.02-0.2-2.82,0.68
			c-0.53,1.21,0.19,2.65-0.7,3.95C355.98,363.45,353.5,363.33,350.99,363.01z M435.89,377.43c3.65,0.57,7.05,1.11,10.5-0.21
			c0.58-2.16,1.44-4.15,0.86-6.6c-3.93-0.77-7.78-0.84-11.57,0.24C435.12,373.1,434.99,375.04,435.89,377.43z M347.91,353.22
			c-4.57-8.73-9.6-16.65-14.82-24.52c2.61,7.7,5.64,15.19,8.73,22.67C342.82,353.77,344.6,354.49,347.91,353.22z M422.5,364.3
			c2.11,0.22,4.34,1.06,7.41-0.31C426.86,362.93,424.72,363.16,422.5,364.3z M345.6,356.38c1.57,0.44,3.14,0.77,5.77,0
			C348.74,356.38,347.17,356.38,345.6,356.38z M412.59,363.54c1.02,0.35,1.95,0.39,3.07-0.09
			C414.51,363.2,413.58,363.1,412.59,363.54z"/>
		<path d="M330,214c2.63,2.67,5.94,2.8,9.47,2.99c13.76,0.74,27.49,1.81,41.24,2.7c5.13,0.33,10.28-0.01,15.3,0.71
			c1.3-1.25,1.74-2.59,1.41-4.53c-5.52-1.72-11.78-0.7-17.43-2.88c0.96-2.65,2.69-2.17,4.05-2.1c4.48,0.22,8.95,0.57,13.41,0.95
			c2.99,0.26,5.56-0.62,8.26-2.87c0.38-9.1-0.09-18.59,1.29-27.96c0.67,0,1.33,0,2,0c1.62,6.73,1.03,13.59,1.2,20.4
			c0.22,8.99,2.01,10.71,11.12,10.38c3.66-0.13,7.24-1.2,10.93-0.93c1.42,0.1,3.03-0.49,4.14,0.98c-1.35,1.63-1.35,1.63-8.17,2.51
			c-3.11,0.4-6.22,0.84-9.29,1.26c-0.58,1.71,0.1,3.04,0.68,4.37c14.52,0.5,62.25-2.88,66.38-4.78c0.32,2.03,0.29,3.94-0.38,6.55
			c-2.88-3.33-6.14-1.77-9.22-1.64c-3.09,0.13-6.44-0.71-8.82,2.13c-3.34-1.37-6.6-1.78-9.76-0.2c-1.2,0.6-2.21,0.23-3.34,0.21
			c-3.12-0.06-6.3-0.64-9.24,1.14c-1.84,1.12-3.87-0.94-6.11,0.27c0.03,1.58,1.79,2.5,2.04,4.11c0.47,3.03-1.31,6.26-4.18,7.12
			c-2.46,0.74-4.73-0.4-6.12-3.06c-1.58-3.02-1.05-4.68,2.17-6.78l0.05-0.05c-0.45-0.2-1.03-0.68-1.33-0.55
			c-6.32,2.81-13.82,1.11-19.82,5.55c-3.04,2.25-6.79,1.16-9.81-0.95c-2.99-2.08-6.48-2.37-9.78-3.37c-1.49-0.45-2.54,0.4-3.69,0.8
			c-1.48-0.08-1.99-1.79-3.66-2.02c0.88,3.08,2.78,6.16-0.91,8.46c-0.35-0.62-0.7-1.25-1.04-1.87c-0.65-0.6-1.31-0.87-1.99-0.04
			c-0.34,0-0.68,0-1.03,0c-0.33-0.34-0.66-0.67-0.99-1.01c0.02-0.66,0.04-1.33,0.06-1.99l0.12-0.2l-0.17,0.15
			c-0.59,0.68-0.72,1.36,0,2.03c0.33,0.33,0.67,0.66,1,0.99c0.33,0.33,0.66,0.33,0.99,0c0.63,0.05,1.27,0.1,1.9,0.15
			c0.36,0.62,0.72,1.23,1.08,1.85c-2.66,2.48-4.49,2.72-6.72,0.9c-2.99-2.45-2.92-4.78,0.21-10.22c-6.96-0.76-14.02-1.22-21.03-2.34
			c-2.59-0.42-5.31-0.7-7.81,1.1c-1.61-1.88-3.61-2.31-5.87-2.29c-2.31,0.02-4.85,0.3-6.89-0.52c-2.61-1.06-3.58,2.56-5.85,1.4
			C330,218.67,330,216.33,330,214z M436.01,231.01c-0.34,0-0.67-0.01-1-0.02c0.33,0.3,0.66,0.34,0.98-0.01
			c0.34-0.33,0.68-0.66,1.02-0.98l0.2-0.19l-0.22,0.18C436.66,230.33,436.34,230.67,436.01,231.01z M433,231.96l-0.05,0.05
			l0.17,0.12L433,231.96z M384,222.01c-2.03-1.26-4.18-0.7-6.31-0.35c2.11,0.11,4.22,0.22,6.33,0.32
			c6.51,1.86,11.01,2.43,13.41,1.71c-0.09-0.3-0.11-0.83-0.27-0.87C392.83,221.54,388.38,222.31,384,222.01z M412.98,215.08
			c0.33,0.31,0.67,0.62,1,0.93c0.16,1.01,0.25,1.99-1.05,2.82c-3.71-0.87-7.7,0.42-12-0.53c0.66,2.01-1.5,2.69-1.33,4.47
			c1.4,4.17,4.27,6.3,8.9,6.12c4.1-0.16,6.83-1.97,8.21-6.1c-1.82-1.92-1.35-4.69-2.71-6.81c-0.32-0.32-0.64-0.65-0.96-0.97
			c-1.75-4.46-5.11-5.15-9.27-1.85c1.32,1.55,3.14,1.47,4.9,1.58C410.12,214.83,411.61,214.12,412.98,215.08z M418.8,223.89
			c6.58-0.28,12.99-1.69,19.49-2.57C431.76,222.05,425.11,221.61,418.8,223.89z M408.71,201.86c-0.12-0.07-0.25-0.14-0.37-0.2
			c0,1.85,0,3.71,0,5.56c0.12-0.01,0.25-0.02,0.37-0.02C408.71,205.41,408.71,203.64,408.71,201.86z M381.92,227.83
			c0.12,0.09,0.24,0.17,0.36,0.26c0.05-0.12,0.18-0.28,0.14-0.36c-0.06-0.11-0.23-0.16-0.35-0.24
			C382.02,227.61,381.97,227.72,381.92,227.83z"/>
		<path class="st0" d="M330,358c18.46,7.51,37.46,13.28,57.05,16.93c10.82,2.01,21.83,1.25,32.77,1.12c6.12-0.07,11.83,1,17.19,3.95
			c-35.67,0-71.33,0-107,0C330,372.61,330,365.3,330,358z"/>
		<path class="st0" d="M330,328c3.91,8.53,7.59,17.16,10.67,26.1c-3.74,1.53-7.22,1.63-10.67,1.9C330,346.67,330,337.33,330,328z"/>
		<path d="M344.27,329.68c4.8,3.21,8.71,7.32,12,12.04c-0.19,0.19-0.38,0.38-0.57,0.57c-3.99-4.01-7.98-8.02-11.96-12.02
			C343.92,330.07,344.1,329.87,344.27,329.68z"/>
		<path d="M361.28,346.72c1.07,0.27,1.69,0.99,1.99,2.01c-0.18,0.2-0.37,0.4-0.55,0.6c-0.97-0.4-1.72-1.03-2.11-2.03
			C360.83,347.11,361.05,346.92,361.28,346.72z"/>
		<path d="M482.27,307.28c-0.33,0.33-0.66,0.66-1,1c-0.19-0.19-0.39-0.38-0.58-0.57c0.3-0.34,0.6-0.68,0.9-1.02
			C481.82,306.88,482.05,307.08,482.27,307.28z"/>
		<path d="M356.28,341.72c0.33,0.33,0.67,0.67,1,1c-0.19,0.19-0.38,0.39-0.58,0.58c-0.33-0.34-0.66-0.67-1-1.01
			C355.9,342.1,356.09,341.91,356.28,341.72z"/>
		<path d="M357.28,342.71c0.33,0.33,0.67,0.67,1,1c-0.19,0.2-0.38,0.39-0.58,0.58c-0.33-0.33-0.67-0.67-1-1
			C356.9,343.1,357.09,342.91,357.28,342.71z"/>
		<path d="M358.28,343.72c0.33,0.33,0.67,0.67,1,1c-0.19,0.19-0.38,0.39-0.58,0.58c-0.33-0.33-0.67-0.67-1-1
			C357.9,344.1,358.09,343.91,358.28,343.72z"/>
		<path d="M359.28,344.72c0.33,0.34,0.67,0.67,1,1.01c-0.19,0.19-0.39,0.39-0.59,0.58c-0.33-0.33-0.66-0.67-0.99-1
			C358.89,345.11,359.09,344.91,359.28,344.72z"/>
		<path d="M360.28,345.72c0.33,0.33,0.66,0.66,1,1c-0.22,0.2-0.44,0.39-0.67,0.59c-0.31-0.34-0.61-0.67-0.92-1.01
			C359.89,346.11,360.09,345.92,360.28,345.72z"/>
		<path d="M363.27,348.73c0.33,0.33,0.67,0.66,1,0.99c-0.19,0.19-0.38,0.38-0.56,0.57c-0.33-0.32-0.66-0.64-0.99-0.96
			C362.9,349.13,363.09,348.93,363.27,348.73z"/>
		<path class="st0" d="M484.79,286.57c10.95-0.43,22.01,1.69,33.16-1.57c-1.43-3.33-3.96-3.01-6.15-3.03
			c-8.32-0.09-16.64-0.04-24.99-0.32c7.21-1.88,14.54-2.97,21.89-3.95c0.88-0.12,1.61,0.05,2.35,0.51c1.75,1.08,3.48,0.91,5.11-0.31
			c1.83-1.37,3.96-1.54,6.14-1.71c13.28-1.04,26.58-1.04,39.88-0.94c2.82,0.02,5.72-0.38,7.96,1.82c2.86-1.5,5.57-1.91,8.45-1.86
			c6.99,0.12,13.98-0.02,20.97,0.04c3.48,0.03,6.98-0.02,9.42,3.32c0.57,0.78,2.08,0.86,2.48,1.01c2.52,0.32,2.53-2.35,4.77-2.06
			c2.23,2.06,4.71,4.36,7.3,6.75c-2.03,2.87-5.16,4.02-7.06,6.84c-3.9-2.86-7.24-2.81-9.64,1.75c-11.57,0.03-23.04,0.75-34.49-0.36
			c-2.55-0.25-4.89,0.61-7.39,0.56c-11.32-0.19-22.64-0.05-33.95-0.26c-5.57-0.1-11.27,0.07-16.41-2.83
			c-0.54-0.3-1.35-0.42-1.95-0.27c-7.75,1.91-15.02-1.21-22.51-2.07C488.33,287.43,486.57,286.93,484.79,286.57z"/>
		<path class="st0" d="M533.4,209.86c3.19-1.4,4.09,0.97,5.1,2.71c3.35,5.74,6.55,11.57,9.84,17.35
			c8.04,14.16,16.09,28.3,24.27,42.37c1.07,1.43,3.09-0.68,4.05,1.17c-7.29,0-14.5,0-21.58,0c-1.22-2.02-0.64-3.74-0.33-5.55
			c0.86-5.12,0.74-10.03-1.69-14.96c-0.99-2.01-0.7-4.82-1.79-7.14c-3.73-7.96-7.37-15.97-11-23.98c-0.43-0.96-1.01-1.67-1.9-2.21
			C534.67,217.4,534.1,213.68,533.4,209.86z"/>
		<path class="st0" d="M577.84,296.17c-1.48-0.28-2.94,0.65-4.3-0.23c-3.31,2.92-4.63,6.82-6.6,10.22
			c-9.08,15.7-17.92,31.54-26.87,47.32c-0.9,1.59-1.88,3.14-2.83,4.71c-0.79,1.31-1.85,1.86-3.7,0.96c0.2-3.57,1.1-6.93,4.12-9.36
			c1.04-0.84,2.11-1.51,2.62-2.86c3.27-8.55,8.31-16.3,11.33-24.95c1.23-3.53,2.13-7.2,3.09-10.82c1.04-3.89,0.76-7.9-0.34-11.83
			c-0.3-1.07-0.31-2.32,0.82-3.88c7.33,0.01,15.03-1.08,22.72,0.6L577.84,296.17z"/>
		<path class="st0" d="M481.59,306.69c-0.3,0.34-0.6,0.68-0.9,1.02c-1.96,1.15-2.79,4.2-6.09,3.73c-0.04-2.28,0.96-3.99,1.78-5.73
			c1.75-3.74,3.65-7.42,5.35-11.18c2.83-6.28,3.99-6.73,10.83-3.56C488.99,296.3,484.6,301.03,481.59,306.69z"/>
		<path class="st0" d="M486.05,267.01c0.07,2.59,2.4,3.84,3.46,5.86c0.84,1.59,2.26,2.85,2.75,4.91c-2.25,1.64-4.99,0.93-7.73,1.84
			c-3.44-7.32-6.78-14.44-10.21-21.74c2.99-1.45,4.16,0.39,5.52,2.06c1.94,2.38,2.89,5.65,6.08,6.93L486.05,267.01z"/>
		<path class="st0" d="M585.96,262.04c-3.99-0.53-7.99-1.06-12.8-1.7c3.39-2.2,7.15,0.15,9.46-2.89c-2.42-2.88-5.86-0.8-8.46-2.1
			c2.72-1.64,5.74-1.81,10.99-0.6c1.57,2.19,0.34,4.82,0.93,7.18L585.96,262.04z"/>
		<path class="st0" d="M573.55,314.02c3.19-1.73,6.61,0.28,9.04-2.43c-2.25-3.29-6.02-0.71-9.04-2.71
			c4.15-1.41,7.86-1.06,11.45-0.38c1.37,1.93,0.94,3.68,0.49,5.71C581.67,315.24,577.96,315.28,573.55,314.02z"/>
		<path class="st0" d="M471.73,311.28c4.66-18.36,6.29-21.83,10.68-23C478.71,296.26,475.22,303.77,471.73,311.28z"/>
		<path class="st0" d="M482.17,279.06c-0.65,1.08-1.24,1.31-2.76,1.44c-2.65-7.16-5.39-14.55-8.12-21.94
			c0.29-0.13,0.58-0.27,0.86-0.4C475.53,265.21,478.91,272.26,482.17,279.06z"/>
		<path class="st0" d="M510.91,284.66c-8.37,0-16.29,0-24.21,0C494.62,284.19,502.54,282.07,510.91,284.66z"/>
		<path class="st0" d="M574.29,299.13c-2.6,4.44-5.21,8.87-7.81,13.31c1.48-5.09,4.24-9.45,6.86-13.89
			C573.65,298.74,573.97,298.93,574.29,299.13z"/>
		<path class="st0" d="M568,260c2.83,2.85,4.4,6.45,5.86,10.13C571.13,267.22,569.22,263.82,568,260L568,260z"/>
		<path class="st0" d="M626,280.99c3.1,0.87,4.36,2.73,3.15,5.91l-0.14,0.11c-0.66,0-1.32,0-2.51,0c1.66-2.23,0.49-4.1-0.51-6.01
			L626,280.99z"/>
		<path class="st0" d="M550.91,255.37c2.03,1.17,2.22,2.41,1.07,4.29C549.49,258.67,549.89,257.29,550.91,255.37z"/>
		<path class="st0" d="M551.07,313.65c-1.36-1.72-1.35-2.98,0.37-4.42C553.37,310.94,552.95,312.17,551.07,313.65z"/>
		<path class="st0" d="M552.98,306.37c-1.01-1.28-0.99-2.33,0.02-3.73C553.96,303.94,553.94,304.99,552.98,306.37z"/>
		<path class="st0" d="M561.02,321.01c0.42-2.03,1.41-3.75,2.87-5.2c-0.33,2.08-1.18,3.87-2.9,5.17L561.02,321.01z"/>
		<path class="st0" d="M552.87,262.61c1.18,1.24,1.04,2.22-0.05,3.56C551.96,264.84,552.06,263.85,552.87,262.61z"/>
		<path class="st0" d="M560.02,245.98c-1.77-1.2-2.48-3.04-3-4.99l-0.02,0.02c1.72,1.23,2.5,3.03,3,4.99L560.02,245.98z"/>
		<path class="st0" d="M560.98,320.98c-0.49,1.97-1.23,3.8-3,5l0.02,0.02c0.53-1.95,1.27-3.77,3-5L560.98,320.98z"/>
		<path class="st0" d="M568,260c-1.36-0.93-2.18-2.18-2.5-4.51C567.14,257.04,567.68,258.46,568,260L568,260z"/>
		<path class="st0" d="M564.01,252.99c-1.77-1.2-2.49-3.04-3-4.99l-0.03,0.03c1.79,1.19,2.52,3.02,3,4.99L564.01,252.99z"/>
		<path class="st0" d="M552.28,298.62c0,0.22,0-0.4,0-1.06C553.28,298,552.41,298.79,552.28,298.62z"/>
		<path class="st0" d="M552.56,269.4c0.25,0.78,0.43,1.52-0.13,2.26C552.12,270.88,551.95,270.13,552.56,269.4z"/>
		<path class="st0" d="M555.01,331c0.29-1.25,0.88-2.3,2-2.99l-0.02-0.02c-0.24,1.28-0.84,2.32-2,3L555.01,331z"/>
		<path class="st0" d="M553.99,236.01c1.14,0.68,1.73,1.73,2,3l0.02-0.02c-1.13-0.69-1.73-1.73-2-2.99L553.99,236.01z"/>
		<path class="st0" d="M611.16,276.63c0.08,0.11,0.23,0.3,0.21,0.31c-0.16,0.16-0.35,0.29-0.53,0.42c-0.07-0.11-0.23-0.3-0.21-0.32
			C610.79,276.9,610.98,276.77,611.16,276.63z"/>
		<path class="st0" d="M570.75,255.35c0,0.09,0.02,0.28,0,0.29c-0.15,0.03-0.31,0.02-0.46,0.03c0-0.11,0-0.21,0-0.32
			C570.44,255.35,570.59,255.35,570.75,255.35z"/>
		<path class="st0" d="M547.01,240.99c0.16,0.23,0.33,0.47,0.49,0.7c-0.66,0.14-0.27-0.51-0.51-0.68
			C546.99,241.01,547.01,240.99,547.01,240.99z"/>
		<path class="st0" d="M541.01,212.96c0.34,0.68,0.68,1.35,1.01,2.03c0,0-0.04,0.04-0.04,0.04c-0.34-0.67-0.68-1.35-1.02-2.02
			C540.97,213.01,541.01,212.96,541.01,212.96z"/>
		<path class="st0" d="M559.99,246.01c0.6,0.54,0.89,1.23,1,2.01l0.03-0.03c-0.6-0.54-0.88-1.23-1-2.01L559.99,246.01z"/>
		<path class="st0" d="M545.01,219.98c0.33,0.67,0.67,1.35,1,2.02c0,0-0.03,0.03-0.03,0.03c-0.33-0.67-0.67-1.34-1-2.02
			L545.01,219.98z"/>
		<path class="st0" d="M546.99,224.02c-0.34-0.67-0.67-1.33-1.01-2l0.03-0.03c0.33,0.67,0.67,1.33,1,2L546.99,224.02z"/>
		<path class="st0" d="M550,248c0.17,0.23,0.33,0.47,0.5,0.7C549.8,248.84,550.22,248.19,550,248C550,248,550,248,550,248z"/>
		<path class="st0" d="M549,245.99c0.33,0.67,0.66,1.34,1,2.01c0,0,0,0,0,0C549.67,247.33,549.33,246.67,549,245.99L549,245.99z"/>
		<path class="st0" d="M549,323c0.09-0.28,0.17-0.56,0.26-0.84C549.81,322.64,549.07,322.71,549,323L549,323z"/>
		<path class="st0" d="M548.99,227.01c-0.34-0.67-0.67-1.33-1.01-2l0.03-0.03c0.33,0.67,0.67,1.34,1,2.02L548.99,227.01z"/>
		<path class="st0" d="M549.02,317.01c-0.1,0.27-0.19,0.53-0.29,0.8c-0.48-0.45,0.21-0.54,0.25-0.84L549.02,317.01z"/>
		<path class="st0" d="M549.01,227c0.33,0.67,0.66,1.33,1,2c0,0-0.01,0.01-0.01,0.01c-0.33-0.67-0.67-1.33-1-2
			C548.99,227.01,549.01,227,549.01,227z"/>
		<path class="st0" d="M554.01,236c-0.17-0.23-0.35-0.47-0.52-0.7c0.73-0.16,0.29,0.51,0.51,0.72
			C553.99,236.01,554.01,236,554.01,236z"/>
		<path class="st0" d="M550.01,229c0.34,0.67,0.67,1.33,1.01,2c0,0-0.02,0.03-0.02,0.03c-0.33-0.67-0.66-1.34-1-2.01
			C549.99,229.01,550.01,229,550.01,229z"/>
		<path class="st0" d="M546.99,327.99c0.09-0.27,0.17-0.55,0.26-0.82c0.53,0.45-0.19,0.55-0.23,0.85L546.99,327.99z"/>
		<path class="st0" d="M557.99,325.99c-0.33,0.67-0.67,1.34-1,2.01c0,0,0.02,0.02,0.02,0.02c0.33-0.67,0.67-1.34,1-2.01
			C558.01,326.01,557.99,325.99,557.99,325.99z"/>
		<path class="st0" d="M555.99,239c0.33,0.67,0.66,1.34,1,2.01c0,0,0.02-0.02,0.02-0.02c-0.33-0.67-0.67-1.34-1-2L555.99,239z"/>
		<path class="st0" d="M546.99,241.01c-0.17-0.23-0.33-0.46-0.5-0.69c0.67-0.16,0.28,0.5,0.52,0.67L546.99,241.01z"/>
		<path class="st0" d="M547.02,328.02c-0.1,0.27-0.2,0.55-0.3,0.82c-0.53-0.48,0.19-0.56,0.27-0.84
			C546.99,327.99,547.02,328.02,547.02,328.02z"/>
		<path class="st0" d="M554.99,330.99c-0.11,0.78-0.4,1.46-1,2l0.02,0.02c0.33-0.67,0.67-1.33,1-2L554.99,330.99z"/>
		<path class="st0" d="M553.99,332.99c-0.09,0.28-0.17,0.57-0.26,0.85c-0.56-0.49,0.2-0.55,0.28-0.83L553.99,332.99z"/>
		<path class="st0" d="M549.99,340c0.33-0.67,0.67-1.33,1-2L551,338c-0.33,0.67-0.66,1.34-1,2.01
			C550.01,340.01,549.99,340,549.99,340z"/>
		<path class="st0" d="M548.99,341.99c0.33-0.67,0.67-1.33,1-2c0,0,0.02,0.01,0.02,0.01c-0.33,0.67-0.67,1.34-1,2L548.99,341.99z"/>
		<path class="st0" d="M545.99,347c0.33-0.67,0.67-1.34,1-2.01l0.03,0.03c-0.33,0.67-0.66,1.34-1,2.02L545.99,347z"/>
		<path class="st0" d="M625.99,281.01c-0.26-0.09-0.52-0.17-0.78-0.26c0.45-0.5,0.52,0.2,0.79,0.25L625.99,281.01z"/>
		<path class="st0" d="M546.02,347.03c-0.34,0.67-0.67,1.34-1.01,2.01l-0.04-0.04c0.34-0.67,0.67-1.33,1.01-2L546.02,347.03z"/>
		<path class="st0" d="M541.97,353.99c0.34-0.67,0.68-1.35,1.01-2.02l0.04,0.04c-0.34,0.68-0.67,1.35-1.01,2.03L541.97,353.99z"/>
		<polygon class="st0" points="563.99,253.01 564.21,253.22 564.01,252.99 		"/>
		<polygon class="st0" points="548.99,316.97 549.17,316.82 549.02,317.01 		"/>
		<polygon class="st0" points="540.97,213.01 540.81,212.81 541.01,212.96 		"/>
		<polygon class="st0" points="542.03,214.99 542.18,215.19 541.99,215.03 		"/>
		<polygon class="st0" points="571.96,262 571.83,261.84 572.01,261.95 		"/>
		<polygon class="st0" points="544.98,220.01 544.81,219.81 545.01,219.98 		"/>
		<polygon class="st0" points="549.01,342.01 548.8,342.19 548.99,341.99 		"/>
		<polygon class="st0" points="546.99,344.98 547.2,344.81 547.02,345.01 		"/>
		<polygon class="st0" points="545.02,349.03 544.8,349.19 544.98,348.99 		"/>
		<polygon class="st0" points="542.01,354.03 541.81,354.19 541.97,353.99 		"/>
		<polygon class="st0" points="551.01,230.99 551.22,231.19 550.99,231.02 		"/>
		<path class="st0" d="M547.99,225.01c-0.33-0.33-0.67-0.66-1-0.98l0.03-0.03c0.33,0.33,0.66,0.66,1,0.99L547.99,225.01z"/>
		<polygon class="st0" points="542.99,351.97 543.19,351.81 543.02,352.01 		"/>
		<path class="st0" d="M490.29,365.25c1.07,0.15,1.49,0.72,0.96,1.71c-0.67,1.27-1.95,1.76-3.17,2.29
			c-5.08,2.19-10.4,3.88-15.84,4.32c-6.94,0.56-13.95,0.13-21.24,0.13c-0.81-7.26-6.61-7.09-11.77-7.92
			c-1.62-0.26-3.6,0.62-5.11-1.74c3.74-0.91,7.69,1.33,10.53-1.71c-0.05-0.88-0.53-1.39-1.24-1.36c-5.12,0.25-10.18-0.6-15.34-0.38
			c-11.3,0.47-22.64,0.14-33.96,0.03c-4.12-0.04-8.27,0.37-12.37-0.63c-1.27-0.31-2.56-0.31-3.82-0.93
			c-4.13-2.02-4.22-1.94-7.97,2.11c0.3,2.1,2.54,3.33,2.33,5.2c1.99,1,3.44,0.88,4.57,0.58c1.62-0.87,1.15-2.73,2.62-3.49
			c2.48-0.45,5.15-0.29,7.8-0.12c1.64,0.11,3.51,0.25,4.39,1.89c1.11,2.07,3.3,2.05,4.98,3.02c1.05,0.95-1,1.79-0.64,2.09
			c1.92,2.38,3.88,1.85,5.64,1.87c5.49,0.07,10.99,0.01,16.49,0.05c1.58,0.01,3.26-0.24,5.27,1.44c-18.56,0.56-36.29,0.99-53.57-4.4
			c-4.92-1.53-9.9-2.9-14.86-4.31c-1.45-0.42-2.88-0.85-3.95-2l-0.02,0.03c2.51,0.31,4.99,0.44,7.02-1.2
			c0.89-1.3,0.17-2.74,0.7-3.95c0.8-0.88,1.86-0.62,2.82-0.68c29.72-1.83,59.47-0.51,89.2-1c7.34-0.12,14.59,0.74,21.88,1.08
			c0.79,0.04,1.57,0.46,2.35,0.7c-1.65-0.02-3.32-0.13-4.74,1.48c-0.24,2.51-1.26,5.5,0.94,7.69c1.45,1.43,3.62,1.23,5.39-0.6
			c-0.36-2.86,0.19-5.86-1.52-8.52c2.33,0.07,4.57,0.53,6.68,1.44c0.69,1.34-1.33,2.44,0.48,4.47c1.72,1.62,5.22-2.07,7.57,0.75
			c-2.69,0.53-5.8-1.01-8.07,1.81C484.62,366.52,487.86,369.2,490.29,365.25z M468.83,362.19c-3.95-2.05-19.15-1.99-22.58,0.24
			c6.48,3.5,13.31-0.68,19.6,1.47C466.85,364.25,468.19,363.99,468.83,362.19z"/>
		<path class="st0" d="M362.72,349.33c0.33,0.32,0.66,0.64,0.99,0.96c0.99,1.04,1.98,2.08,3.43,3.6c-4.94,0-9.24-0.07-13.53,0.03
			c-1.84,0.04-3.25-0.42-4.2-2.04c-4.53-7.69-9.07-15.38-13.7-23.23c3.39-1.37,5.84-0.48,8.03,1.6c3.99,4.01,7.98,8.02,11.96,12.02
			c0.33,0.34,0.66,0.67,1,1.01c0.33,0.33,0.67,0.67,1,1c0.33,0.33,0.67,0.67,1,1c0.33,0.33,0.66,0.67,0.99,1
			c0.31,0.34,0.61,0.67,0.92,1.01C361.01,348.31,361.75,348.94,362.72,349.33z"/>
		<path class="st0" d="M435.89,377.43c-0.91-2.39-0.77-4.33-0.21-6.57c3.79-1.08,7.64-1.01,11.57-0.24c0.58,2.45-0.28,4.44-0.86,6.6
			C442.95,378.54,439.54,378,435.89,377.43z"/>
		<path class="st0" d="M347.91,353.22c-3.31,1.27-5.09,0.55-6.09-1.85c-3.09-7.47-6.12-14.97-8.73-22.67
			C338.31,336.57,343.34,344.5,347.91,353.22z"/>
		<path class="st0" d="M422.5,364.3c2.22-1.14,4.36-1.37,7.41-0.31C426.84,365.35,424.61,364.52,422.5,364.3z"/>
		<path class="st0" d="M351.02,362.98c-1.61-0.19-3.32,0.03-4.93-1.48c2.15-0.49,3.57,0.37,4.91,1.51L351.02,362.98z"/>
		<path class="st0" d="M345.6,356.38c1.57,0,3.14,0,5.77,0C348.74,357.15,347.17,356.83,345.6,356.38z"/>
		<path class="st0" d="M412.59,363.54c0.99-0.44,1.92-0.34,3.07-0.09C414.54,363.93,413.61,363.89,412.59,363.54z"/>
		<path class="st0" d="M414.01,215.98c1.37,2.11,0.9,4.89,2.71,6.81c-1.38,4.13-4.11,5.93-8.21,6.1c-4.63,0.18-7.5-1.95-8.9-6.12
			c-0.18-1.78,1.99-2.46,1.33-4.47c4.3,0.96,8.29-0.34,12,0.53c1.29-0.82,1.21-1.81,1.05-2.82L414.01,215.98z"/>
		<path class="st0" d="M418.8,223.89c6.31-2.28,12.97-1.84,19.49-2.57C431.79,222.2,425.38,223.61,418.8,223.89z"/>
		<path class="st0" d="M412.98,215.08c-1.36-0.97-2.86-0.25-4.29-0.34c-1.76-0.11-3.58-0.04-4.9-1.58c4.16-3.3,7.52-2.61,9.27,1.85
			L412.98,215.08z"/>
		<path class="st0" d="M384,222.01c4.39,0.3,8.84-0.47,13.16,0.81c0.16,0.05,0.18,0.57,0.27,0.87c-2.4,0.73-6.9,0.16-13.41-1.71
			L384,222.01z"/>
		<path class="st0" d="M408.71,201.86c0,1.78,0,3.55,0,5.33c-0.12,0.01-0.25,0.02-0.37,0.02c0-1.85,0-3.71,0-5.56
			C408.46,201.72,408.58,201.79,408.71,201.86z"/>
		<path class="st0" d="M384.01,221.99c-2.11-0.11-4.22-0.22-6.33-0.32c2.13-0.35,4.28-0.91,6.31,0.35L384.01,221.99z"/>
		<path class="st0" d="M381.92,227.83c0.05-0.11,0.1-0.23,0.15-0.34c0.12,0.08,0.3,0.13,0.35,0.24c0.04,0.08-0.09,0.24-0.14,0.36
			C382.16,228.01,382.04,227.92,381.92,227.83z"/>
		<path class="st0" d="M382.89,231.14c-0.63-0.05-1.27-0.1-1.9-0.15l0.02,0.02c0.68-0.83,1.34-0.56,1.99,0.04L382.89,231.14z"/>
		<path class="st0" d="M379.05,228.01c-0.02,0.66-0.04,1.33-0.06,1.99L379,230c-0.72-0.68-0.6-1.35,0-2.03L379.05,228.01z"/>
		<path class="st0" d="M383.01,231.05c0.35,0.62,0.7,1.25,1.04,1.87l-0.08,0.06c-0.36-0.62-0.72-1.23-1.08-1.85L383.01,231.05z"/>
		<path class="st0" d="M413.98,216.01c-0.33-0.31-0.67-0.62-1-0.93l0.08-0.08c0.32,0.32,0.64,0.65,0.96,0.97
			C414.01,215.98,413.98,216.01,413.98,216.01z"/>
		<path class="st0" d="M433.06,225l-0.05,0.05L433.06,225z"/>
		<polygon class="st0" points="379,227.96 379.17,227.81 379.05,228.01 		"/>
		<polygon class="st0" points="433,231.96 433.13,232.13 432.95,232.01 		"/>
		<polygon class="st0" points="436.99,229.99 437.21,229.82 437.01,230.01 		"/>
		<path class="st0" d="M435,231.01c0.34,0,0.67,0.01,1.01,0.01l-0.02-0.02C435.66,231.34,435.33,231.3,435,231.01L435,231.01z"/>
		<path class="st0" d="M432.95,232.01l0.05-0.05L432.95,232.01z"/>
		<path class="st0" d="M380.01,230.99c-0.33-0.33-0.67-0.66-1-0.99l-0.01,0.01c0.33,0.34,0.66,0.67,0.99,1.01L380.01,230.99z"/>
		<path class="st0" d="M379.99,231.01c0.34,0,0.68,0,1.03,0l-0.02-0.02c-0.33,0.33-0.66,0.33-0.99,0L379.99,231.01z"/>
		<path class="st0" d="M437.01,230.01c-0.34,0.33-0.68,0.66-1.02,0.98l0.02,0.02c0.33-0.34,0.65-0.68,0.98-1.02L437.01,230.01z"/>
		<path d="M468.83,362.19c-0.64,1.8-1.98,2.05-2.99,1.71c-6.29-2.15-13.12,2.03-19.6-1.47
			C449.68,360.21,464.88,360.14,468.83,362.19z"/>
		<path d="M475.04,358.03c1.71,2.66,1.17,5.66,1.52,8.52c-1.76,1.82-3.94,2.03-5.39,0.6c-2.21-2.19-1.19-5.18-0.94-7.69
			c1.42-1.61,3.09-1.51,4.74-1.48L475.04,358.03z M474.01,364.36c-0.1-0.25-0.14-0.61-0.33-0.72c-0.19-0.12-0.65-0.1-0.78,0.05
			c-0.39,0.43-0.13,0.81,0.34,0.93C473.46,364.67,473.75,364.45,474.01,364.36z"/>
		<path d="M490.29,365.25c-2.43,3.96-5.67,1.27-8.6,1.25c2.27-2.83,5.37-1.29,8.07-1.81C489.93,364.88,490.1,365.07,490.29,365.25z"
			/>
		<path class="st0" d="M474.01,364.36c-0.26,0.1-0.55,0.31-0.77,0.26c-0.47-0.12-0.73-0.5-0.34-0.93c0.13-0.15,0.59-0.16,0.78-0.05
			C473.86,363.75,473.9,364.11,474.01,364.36z"/>
	</g>
</g>
</svg>
