<?xml version="1.0" encoding="utf-8"?>
<!-- Generator: Adobe Illustrator 18.1.1, SVG Export Plug-In . SVG Version: 6.00 Build 0)  -->
<svg version="1.1" id="scene1" xmlns="http://www.w3.org/2000/svg" xmlns:xlink="http://www.w3.org/1999/xlink" x="0px" y="0px"
	 width="500px" height="250px" viewBox="0 0 500 250" enable-background="new 0 0 500 250" xml:space="preserve">
<rect id="bg_1_" fill="#75A4E9" width="500" height="250"/>
<g id="title">
	<rect x="9" y="10.5" fill="none" width="256" height="21.5"/>
	<path fill="#F2F2F2" d="M10.2,22V10.5H15c1.2,0,2.1,0.1,2.7,0.3c0.6,0.2,1,0.6,1.3,1.1c0.3,0.5,0.5,1.1,0.5,1.8
		c0,0.9-0.3,1.6-0.8,2.1c-0.5,0.6-1.3,0.9-2.3,1.1c0.5,0.3,0.9,0.6,1.2,1c0.3,0.3,0.8,1,1.3,1.9l1.4,2.2h-2.8L16,19.5
		c-0.6-0.9-1-1.5-1.2-1.7c-0.2-0.2-0.5-0.4-0.7-0.5c-0.2-0.1-0.6-0.1-1.2-0.1h-0.5V22H10.2z M12.5,15.3h1.7c1.1,0,1.8,0,2.1-0.1
		c0.3-0.1,0.5-0.3,0.6-0.5c0.2-0.2,0.2-0.5,0.2-0.9c0-0.4-0.1-0.7-0.3-0.9c-0.2-0.2-0.5-0.4-0.9-0.4c-0.2,0-0.8,0-1.7,0h-1.8V15.3z"
		/>
	<path fill="#F2F2F2" d="M26.5,19.3l2.2,0.4c-0.3,0.8-0.7,1.4-1.3,1.8c-0.6,0.4-1.4,0.6-2.3,0.6c-1.4,0-2.5-0.5-3.2-1.4
		c-0.5-0.8-0.8-1.7-0.8-2.9c0-1.4,0.4-2.5,1.1-3.2c0.7-0.8,1.6-1.2,2.7-1.2c1.2,0,2.2,0.4,2.9,1.2c0.7,0.8,1.1,2.1,1,3.7h-5.5
		c0,0.7,0.2,1.2,0.5,1.5c0.3,0.4,0.8,0.5,1.3,0.5c0.3,0,0.6-0.1,0.9-0.3S26.4,19.7,26.5,19.3z M26.6,17.1c0-0.6-0.2-1.1-0.5-1.4
		c-0.3-0.3-0.7-0.5-1.1-0.5c-0.5,0-0.9,0.2-1.2,0.5c-0.3,0.3-0.5,0.8-0.5,1.4H26.6z"/>
	<path fill="#F2F2F2" d="M38.2,22h-2v-1.2c-0.3,0.5-0.7,0.8-1.2,1.1s-0.9,0.3-1.4,0.3c-1,0-1.8-0.4-2.4-1.2c-0.7-0.8-1-1.8-1-3.2
		c0-1.4,0.3-2.5,1-3.2c0.7-0.7,1.5-1.1,2.5-1.1c0.9,0,1.7,0.4,2.4,1.2v-4.1h2.2V22z M32.4,17.6c0,0.9,0.1,1.5,0.4,1.9
		c0.4,0.6,0.8,0.9,1.5,0.9c0.5,0,0.9-0.2,1.3-0.6c0.4-0.4,0.5-1.1,0.5-1.9c0-1-0.2-1.6-0.5-2.1c-0.3-0.4-0.8-0.6-1.3-0.6
		c-0.5,0-1,0.2-1.3,0.6S32.4,16.8,32.4,17.6z"/>
	<path fill="#F2F2F2" d="M45.8,22v-1.2c-0.3,0.4-0.7,0.8-1.2,1s-1,0.4-1.6,0.4c-0.6,0-1.1-0.1-1.5-0.4c-0.4-0.2-0.8-0.6-1-1
		c-0.2-0.4-0.3-1.1-0.3-1.8v-5.3h2.2v3.8c0,1.2,0,1.9,0.1,2.1c0.1,0.3,0.2,0.5,0.4,0.6c0.2,0.2,0.5,0.2,0.8,0.2c0.4,0,0.7-0.1,1-0.3
		c0.3-0.2,0.5-0.5,0.6-0.8s0.2-1.1,0.2-2.2v-3.5h2.2V22H45.8z"/>
	<path fill="#F2F2F2" d="M57.4,16.1l-2.2,0.4c-0.1-0.4-0.2-0.8-0.5-1s-0.6-0.3-1-0.3c-0.5,0-1,0.2-1.3,0.6c-0.3,0.4-0.5,1-0.5,1.9
		c0,1,0.2,1.7,0.5,2.1c0.3,0.4,0.8,0.6,1.3,0.6c0.4,0,0.8-0.1,1-0.4c0.3-0.2,0.5-0.6,0.6-1.2l2.2,0.4c-0.2,1-0.7,1.7-1.3,2.2
		c-0.6,0.5-1.5,0.8-2.6,0.8c-1.2,0-2.2-0.4-2.9-1.1c-0.7-0.8-1.1-1.8-1.1-3.2c0-1.4,0.4-2.4,1.1-3.2c0.7-0.8,1.7-1.1,2.9-1.1
		c1,0,1.8,0.2,2.4,0.7C56.7,14.6,57.1,15.2,57.4,16.1z"/>
	<path fill="#F2F2F2" d="M63.9,19.3l2.2,0.4c-0.3,0.8-0.7,1.4-1.3,1.8c-0.6,0.4-1.4,0.6-2.3,0.6c-1.4,0-2.5-0.5-3.2-1.4
		c-0.5-0.8-0.8-1.7-0.8-2.9c0-1.4,0.4-2.5,1.1-3.2c0.7-0.8,1.6-1.2,2.7-1.2c1.2,0,2.2,0.4,2.9,1.2c0.7,0.8,1.1,2.1,1,3.7h-5.5
		c0,0.7,0.2,1.2,0.5,1.5c0.3,0.4,0.8,0.5,1.3,0.5c0.3,0,0.6-0.1,0.9-0.3S63.7,19.7,63.9,19.3z M64,17.1c0-0.6-0.2-1.1-0.5-1.4
		c-0.3-0.3-0.7-0.5-1.1-0.5c-0.5,0-0.9,0.2-1.2,0.5c-0.3,0.3-0.5,0.8-0.5,1.4H64z"/>
	<path fill="#F2F2F2" d="M74.7,22l-3.3-8.3h2.3l1.6,4.2l0.5,1.4c0.1-0.4,0.2-0.6,0.2-0.7c0.1-0.2,0.2-0.5,0.2-0.7l1.6-4.2h2.3
		L76.6,22H74.7z"/>
	<path fill="#F2F2F2" d="M86.1,19.3l2.2,0.4c-0.3,0.8-0.7,1.4-1.3,1.8c-0.6,0.4-1.4,0.6-2.3,0.6c-1.4,0-2.5-0.5-3.2-1.4
		c-0.5-0.8-0.8-1.7-0.8-2.9c0-1.4,0.4-2.5,1.1-3.2c0.7-0.8,1.6-1.2,2.7-1.2c1.2,0,2.2,0.4,2.9,1.2c0.7,0.8,1.1,2.1,1,3.7h-5.5
		c0,0.7,0.2,1.2,0.5,1.5c0.3,0.4,0.8,0.5,1.3,0.5c0.3,0,0.6-0.1,0.9-0.3S86,19.7,86.1,19.3z M86.2,17.1c0-0.6-0.2-1.1-0.5-1.4
		c-0.3-0.3-0.7-0.5-1.1-0.5c-0.5,0-0.9,0.2-1.2,0.5c-0.3,0.3-0.5,0.8-0.5,1.4H86.2z"/>
	<path fill="#F2F2F2" d="M92.3,22h-2.2v-8.3h2v1.2c0.3-0.6,0.7-0.9,0.9-1.1c0.3-0.2,0.6-0.3,0.9-0.3c0.5,0,1,0.1,1.4,0.4l-0.7,1.9
		c-0.4-0.2-0.7-0.4-1-0.4c-0.3,0-0.6,0.1-0.8,0.3c-0.2,0.2-0.4,0.5-0.5,0.9c-0.1,0.4-0.2,1.4-0.2,2.8V22z"/>
	<path fill="#F2F2F2" d="M100.2,13.7v1.8h-1.5v3.3c0,0.7,0,1.1,0,1.2c0,0.1,0.1,0.2,0.2,0.3c0.1,0.1,0.2,0.1,0.4,0.1
		c0.2,0,0.5-0.1,0.9-0.2l0.2,1.7c-0.5,0.2-1.1,0.3-1.7,0.3c-0.4,0-0.8-0.1-1.1-0.2c-0.3-0.1-0.6-0.3-0.7-0.5s-0.3-0.5-0.3-0.9
		c0-0.3-0.1-0.8-0.1-1.5v-3.6h-1v-1.8h1V12l2.2-1.3v2.9H100.2z"/>
	<path fill="#F2F2F2" d="M101.7,12.5v-2h2.2v2H101.7z M101.7,22v-8.3h2.2V22H101.7z"/>
	<path fill="#F2F2F2" d="M113.4,16.1l-2.2,0.4c-0.1-0.4-0.2-0.8-0.5-1s-0.6-0.3-1-0.3c-0.5,0-1,0.2-1.3,0.6c-0.3,0.4-0.5,1-0.5,1.9
		c0,1,0.2,1.7,0.5,2.1c0.3,0.4,0.8,0.6,1.3,0.6c0.4,0,0.8-0.1,1-0.4c0.3-0.2,0.5-0.6,0.6-1.2l2.2,0.4c-0.2,1-0.7,1.7-1.3,2.2
		c-0.6,0.5-1.5,0.8-2.6,0.8c-1.2,0-2.2-0.4-2.9-1.1c-0.7-0.8-1.1-1.8-1.1-3.2c0-1.4,0.4-2.4,1.1-3.2c0.7-0.8,1.7-1.1,2.9-1.1
		c1,0,1.8,0.2,2.4,0.7C112.7,14.6,113.2,15.2,113.4,16.1z"/>
	<path fill="#F2F2F2" d="M116.7,16.2l-2-0.4c0.2-0.8,0.6-1.4,1.2-1.8c0.5-0.4,1.4-0.6,2.4-0.6c1,0,1.7,0.1,2.2,0.3
		c0.5,0.2,0.8,0.5,1,0.9c0.2,0.4,0.3,1,0.3,2l0,2.6c0,0.7,0,1.3,0.1,1.6c0.1,0.3,0.2,0.7,0.4,1.1h-2.2c-0.1-0.1-0.1-0.4-0.2-0.6
		c0-0.1-0.1-0.2-0.1-0.3c-0.4,0.4-0.8,0.6-1.2,0.8c-0.4,0.2-0.9,0.3-1.4,0.3c-0.9,0-1.5-0.2-2-0.7c-0.5-0.5-0.7-1-0.7-1.8
		c0-0.5,0.1-0.9,0.3-1.3c0.2-0.4,0.5-0.6,0.9-0.8c0.4-0.2,1-0.4,1.7-0.5c1-0.2,1.7-0.4,2.1-0.5v-0.2c0-0.4-0.1-0.7-0.3-0.9
		c-0.2-0.2-0.6-0.3-1.2-0.3c-0.4,0-0.7,0.1-0.9,0.2C117,15.5,116.9,15.8,116.7,16.2z M119.7,18c-0.3,0.1-0.7,0.2-1.3,0.3
		c-0.6,0.1-1,0.3-1.2,0.4c-0.3,0.2-0.4,0.5-0.4,0.8c0,0.3,0.1,0.6,0.3,0.8c0.2,0.2,0.5,0.3,0.9,0.3c0.4,0,0.8-0.1,1.1-0.4
		c0.3-0.2,0.4-0.4,0.5-0.7c0.1-0.2,0.1-0.5,0.1-1.1V18z"/>
	<path fill="#F2F2F2" d="M124,22V10.5h2.2V22H124z"/>
	<path fill="#F2F2F2" d="M132.1,19.6l2.2-0.3c0.1,0.4,0.3,0.8,0.6,1c0.3,0.2,0.7,0.3,1.2,0.3c0.6,0,1-0.1,1.3-0.3
		c0.2-0.1,0.3-0.3,0.3-0.6c0-0.2-0.1-0.3-0.2-0.4c-0.1-0.1-0.4-0.2-0.7-0.3c-1.8-0.4-2.9-0.7-3.4-1.1c-0.7-0.4-1-1.1-1-1.9
		c0-0.7,0.3-1.3,0.9-1.8c0.6-0.5,1.4-0.7,2.6-0.7c1.1,0,2,0.2,2.5,0.6c0.6,0.4,0.9,0.9,1.1,1.6l-2.1,0.4c-0.1-0.3-0.3-0.6-0.5-0.7
		c-0.2-0.2-0.6-0.3-1.1-0.3c-0.6,0-1,0.1-1.2,0.2c-0.2,0.1-0.3,0.3-0.3,0.4c0,0.2,0.1,0.3,0.2,0.4c0.2,0.1,0.9,0.4,2.1,0.6
		c1.2,0.3,2,0.6,2.4,1c0.5,0.4,0.7,0.9,0.7,1.6c0,0.8-0.3,1.4-1,2c-0.6,0.5-1.6,0.8-2.8,0.8c-1.1,0-2-0.2-2.7-0.7
		C132.7,21,132.3,20.4,132.1,19.6z"/>
	<path fill="#F2F2F2" d="M141.7,13.7h2v1.2c0.3-0.4,0.6-0.8,1.1-1c0.5-0.3,1-0.4,1.5-0.4c1,0,1.8,0.4,2.5,1.1c0.7,0.8,1,1.8,1,3.2
		c0,1.4-0.3,2.5-1,3.2c-0.7,0.8-1.5,1.2-2.5,1.2c-0.5,0-0.9-0.1-1.2-0.3c-0.4-0.2-0.8-0.5-1.2-0.9v4.2h-2.2V13.7z M143.9,17.7
		c0,0.9,0.2,1.6,0.6,2.1c0.4,0.4,0.8,0.7,1.4,0.7c0.5,0,0.9-0.2,1.3-0.6c0.3-0.4,0.5-1.1,0.5-2c0-0.9-0.2-1.5-0.5-1.9
		c-0.3-0.4-0.8-0.6-1.3-0.6c-0.5,0-1,0.2-1.3,0.6C144.1,16.2,143.9,16.9,143.9,17.7z"/>
	<path fill="#F2F2F2" d="M156.4,19.3l2.2,0.4c-0.3,0.8-0.7,1.4-1.3,1.8c-0.6,0.4-1.4,0.6-2.3,0.6c-1.4,0-2.5-0.5-3.2-1.4
		c-0.5-0.8-0.8-1.7-0.8-2.9c0-1.4,0.4-2.5,1.1-3.2c0.7-0.8,1.6-1.2,2.7-1.2c1.2,0,2.2,0.4,2.9,1.2c0.7,0.8,1.1,2.1,1,3.7h-5.5
		c0,0.7,0.2,1.2,0.5,1.5c0.3,0.4,0.8,0.5,1.3,0.5c0.3,0,0.6-0.1,0.9-0.3S156.2,19.7,156.4,19.3z M156.5,17.1c0-0.6-0.2-1.1-0.5-1.4
		c-0.3-0.3-0.7-0.5-1.1-0.5c-0.5,0-0.9,0.2-1.2,0.5c-0.3,0.3-0.5,0.8-0.5,1.4H156.5z"/>
	<path fill="#F2F2F2" d="M165.3,19.3l2.2,0.4c-0.3,0.8-0.7,1.4-1.3,1.8c-0.6,0.4-1.4,0.6-2.3,0.6c-1.4,0-2.5-0.5-3.2-1.4
		c-0.5-0.8-0.8-1.7-0.8-2.9c0-1.4,0.4-2.5,1.1-3.2c0.7-0.8,1.6-1.2,2.7-1.2c1.2,0,2.2,0.4,2.9,1.2c0.7,0.8,1.1,2.1,1,3.7h-5.5
		c0,0.7,0.2,1.2,0.5,1.5c0.3,0.4,0.8,0.5,1.3,0.5c0.3,0,0.6-0.1,0.9-0.3S165.1,19.7,165.3,19.3z M165.4,17.1c0-0.6-0.2-1.1-0.5-1.4
		c-0.3-0.3-0.7-0.5-1.1-0.5c-0.5,0-0.9,0.2-1.2,0.5c-0.3,0.3-0.5,0.8-0.5,1.4H165.4z"/>
	<path fill="#F2F2F2" d="M177,22h-2v-1.2c-0.3,0.5-0.7,0.8-1.2,1.1s-0.9,0.3-1.4,0.3c-1,0-1.8-0.4-2.4-1.2c-0.7-0.8-1-1.8-1-3.2
		c0-1.4,0.3-2.5,1-3.2c0.7-0.7,1.5-1.1,2.5-1.1c0.9,0,1.7,0.4,2.4,1.2v-4.1h2.2V22z M171.1,17.6c0,0.9,0.1,1.5,0.4,1.9
		c0.4,0.6,0.8,0.9,1.5,0.9c0.5,0,0.9-0.2,1.3-0.6c0.4-0.4,0.5-1.1,0.5-1.9c0-1-0.2-1.6-0.5-2.1c-0.3-0.4-0.8-0.6-1.3-0.6
		c-0.5,0-1,0.2-1.3,0.6S171.1,16.8,171.1,17.6z"/>
</g>
<g id="text5">
	<rect x="11.5" y="214" fill="none" width="182.5" height="32"/>
	<path fill="#003366" d="M16,222.6h-1.1v-6.7c-0.3,0.2-0.6,0.5-1,0.7s-0.8,0.4-1.1,0.5v-1c0.6-0.3,1.1-0.6,1.5-1s0.8-0.8,0.9-1.1H16
		V222.6z"/>
	<path fill="#003366" d="M19.3,222.6v-1.2h1.2v1.2H19.3z"/>
	<path fill="#003366" d="M27.7,222.6V215h-2.8v-1h6.8v1h-2.8v7.6H27.7z"/>
	<path fill="#003366" d="M39,219.6l1.1,0.3c-0.2,0.9-0.7,1.6-1.3,2.1s-1.4,0.7-2.3,0.7c-0.9,0-1.7-0.2-2.3-0.6s-1-0.9-1.3-1.6
		s-0.5-1.5-0.5-2.3c0-0.9,0.2-1.7,0.5-2.3s0.8-1.2,1.5-1.5s1.3-0.5,2.1-0.5c0.9,0,1.6,0.2,2.2,0.7s1,1.1,1.2,1.8l-1.1,0.3
		c-0.2-0.6-0.5-1.1-0.9-1.4s-0.9-0.4-1.4-0.4c-0.7,0-1.2,0.2-1.7,0.5s-0.8,0.7-0.9,1.3s-0.3,1.1-0.3,1.6c0,0.7,0.1,1.4,0.3,1.9
		s0.5,1,1,1.2s0.9,0.4,1.5,0.4c0.6,0,1.2-0.2,1.6-0.6S38.9,220.3,39,219.6z"/>
	<path fill="#003366" d="M40.6,222.6l3.3-8.6h1.2l3.5,8.6h-1.3l-1-2.6h-3.6l-0.9,2.6H40.6z M43.1,219.1H46l-0.9-2.4
		c-0.3-0.7-0.5-1.3-0.6-1.8c-0.1,0.6-0.3,1.1-0.5,1.6L43.1,219.1z"/>
	<path fill="#003366" d="M49.2,219.8l1.1-0.1c0.1,0.4,0.2,0.8,0.4,1.1s0.5,0.5,0.9,0.7s0.8,0.3,1.3,0.3c0.4,0,0.8-0.1,1.1-0.2
		s0.6-0.3,0.7-0.5s0.2-0.5,0.2-0.7c0-0.3-0.1-0.5-0.2-0.7s-0.4-0.4-0.8-0.5c-0.2-0.1-0.7-0.2-1.5-0.4s-1.3-0.4-1.7-0.5
		c-0.4-0.2-0.7-0.5-0.9-0.8s-0.3-0.7-0.3-1.1c0-0.4,0.1-0.8,0.4-1.2s0.6-0.7,1.1-0.9s1-0.3,1.6-0.3c0.6,0,1.2,0.1,1.7,0.3
		s0.9,0.5,1.1,0.9s0.4,0.8,0.4,1.4l-1.1,0.1c-0.1-0.5-0.3-1-0.6-1.2s-0.8-0.4-1.5-0.4c-0.7,0-1.2,0.1-1.5,0.4s-0.5,0.6-0.5,0.9
		c0,0.3,0.1,0.6,0.3,0.8c0.2,0.2,0.8,0.4,1.7,0.6s1.6,0.4,1.9,0.5c0.5,0.2,0.9,0.5,1.1,0.9s0.4,0.8,0.4,1.2c0,0.5-0.1,0.9-0.4,1.3
		s-0.6,0.7-1.1,0.9s-1,0.3-1.7,0.3c-0.8,0-1.4-0.1-2-0.3s-0.9-0.6-1.2-1S49.2,220.4,49.2,219.8z"/>
	<path fill="#003366" d="M64.8,222.6v-0.8c-0.4,0.6-1,0.9-1.7,0.9c-0.5,0-1-0.1-1.4-0.4s-0.7-0.7-1-1.1s-0.3-1.1-0.3-1.7
		c0-0.6,0.1-1.2,0.3-1.7s0.5-0.9,0.9-1.2s0.9-0.4,1.4-0.4c0.4,0,0.7,0.1,1,0.2s0.5,0.4,0.7,0.6V214h1v8.6H64.8z M61.5,219.5
		c0,0.8,0.2,1.4,0.5,1.8s0.7,0.6,1.2,0.6c0.5,0,0.9-0.2,1.2-0.6s0.5-1,0.5-1.7c0-0.9-0.2-1.5-0.5-1.9s-0.7-0.6-1.2-0.6
		c-0.5,0-0.9,0.2-1.2,0.6S61.5,218.7,61.5,219.5z"/>
	<path fill="#003366" d="M71.7,220.6l1.1,0.1c-0.2,0.6-0.5,1.1-1,1.5s-1.1,0.5-1.8,0.5c-0.9,0-1.6-0.3-2.2-0.8s-0.8-1.3-0.8-2.4
		c0-1,0.3-1.9,0.8-2.4s1.2-0.9,2.1-0.9c0.8,0,1.5,0.3,2,0.8s0.8,1.4,0.8,2.4c0,0.1,0,0.2,0,0.3h-4.6c0,0.7,0.2,1.2,0.6,1.6
		s0.8,0.5,1.3,0.5c0.4,0,0.7-0.1,1-0.3S71.5,221,71.7,220.6z M68.2,218.9h3.5c0-0.5-0.2-0.9-0.4-1.2c-0.3-0.4-0.8-0.6-1.3-0.6
		c-0.5,0-0.9,0.2-1.2,0.5S68.3,218.3,68.2,218.9z"/>
	<path fill="#003366" d="M76.4,221.6l0.2,0.9c-0.3,0.1-0.6,0.1-0.8,0.1c-0.4,0-0.7-0.1-0.9-0.2s-0.4-0.3-0.4-0.5s-0.1-0.6-0.1-1.2
		v-3.6h-0.8v-0.8h0.8v-1.5l1-0.6v2.2h1.1v0.8h-1.1v3.6c0,0.3,0,0.5,0.1,0.6s0.1,0.2,0.2,0.2s0.2,0.1,0.4,0.1
		C76.1,221.7,76.2,221.7,76.4,221.6z"/>
	<path fill="#003366" d="M81.7,220.6l1.1,0.1c-0.2,0.6-0.5,1.1-1,1.5s-1.1,0.5-1.8,0.5c-0.9,0-1.6-0.3-2.2-0.8s-0.8-1.3-0.8-2.4
		c0-1,0.3-1.9,0.8-2.4s1.2-0.9,2.1-0.9c0.8,0,1.5,0.3,2,0.8s0.8,1.4,0.8,2.4c0,0.1,0,0.2,0,0.3h-4.6c0,0.7,0.2,1.2,0.6,1.6
		s0.8,0.5,1.3,0.5c0.4,0,0.7-0.1,1-0.3S81.5,221,81.7,220.6z M78.2,218.9h3.5c0-0.5-0.2-0.9-0.4-1.2c-0.3-0.4-0.8-0.6-1.3-0.6
		c-0.5,0-0.9,0.2-1.2,0.5S78.3,218.3,78.2,218.9z"/>
	<path fill="#003366" d="M88.2,220.3l1,0.1c-0.1,0.7-0.4,1.3-0.9,1.7s-1,0.6-1.7,0.6c-0.9,0-1.5-0.3-2.1-0.8s-0.8-1.4-0.8-2.4
		c0-0.7,0.1-1.3,0.3-1.8s0.6-0.9,1-1.1s1-0.4,1.5-0.4c0.7,0,1.2,0.2,1.7,0.5s0.7,0.8,0.8,1.5l-1,0.2c-0.1-0.4-0.3-0.7-0.5-0.9
		s-0.5-0.3-0.9-0.3c-0.5,0-1,0.2-1.3,0.6s-0.5,1-0.5,1.8c0,0.8,0.2,1.4,0.5,1.8s0.7,0.6,1.3,0.6c0.4,0,0.8-0.1,1-0.4
		S88.1,220.8,88.2,220.3z"/>
	<path fill="#003366" d="M92.4,221.6l0.2,0.9c-0.3,0.1-0.6,0.1-0.8,0.1c-0.4,0-0.7-0.1-0.9-0.2s-0.4-0.3-0.4-0.5s-0.1-0.6-0.1-1.2
		v-3.6h-0.8v-0.8h0.8v-1.5l1-0.6v2.2h1.1v0.8h-1.1v3.6c0,0.3,0,0.5,0.1,0.6s0.1,0.2,0.2,0.2s0.2,0.1,0.4,0.1
		C92.1,221.7,92.2,221.7,92.4,221.6z"/>
	<path fill="#003366" d="M93,220.7l1-0.2c0.1,0.4,0.2,0.7,0.5,1s0.6,0.3,1.1,0.3c0.5,0,0.8-0.1,1.1-0.3s0.4-0.4,0.4-0.7
		c0-0.2-0.1-0.4-0.3-0.6c-0.1-0.1-0.5-0.2-1.1-0.4c-0.8-0.2-1.3-0.4-1.6-0.5s-0.5-0.3-0.7-0.6s-0.2-0.5-0.2-0.8
		c0-0.3,0.1-0.5,0.2-0.8s0.3-0.4,0.5-0.6c0.2-0.1,0.4-0.2,0.7-0.3s0.6-0.1,0.9-0.1c0.5,0,0.9,0.1,1.3,0.2s0.6,0.3,0.8,0.6
		s0.3,0.6,0.4,1l-1,0.1c0-0.3-0.2-0.6-0.4-0.8s-0.5-0.3-1-0.3c-0.5,0-0.8,0.1-1,0.2s-0.3,0.3-0.3,0.6c0,0.1,0,0.3,0.1,0.4
		c0.1,0.1,0.2,0.2,0.4,0.3c0.1,0,0.4,0.1,0.9,0.3c0.7,0.2,1.3,0.4,1.6,0.5s0.5,0.3,0.7,0.6s0.3,0.5,0.3,0.9c0,0.4-0.1,0.7-0.3,1
		s-0.5,0.6-0.9,0.7s-0.8,0.3-1.3,0.3c-0.8,0-1.4-0.2-1.8-0.5S93.1,221.4,93,220.7z"/>
	<path fill="#003366" d="M106.8,221.8c-0.4,0.3-0.8,0.6-1.1,0.7s-0.7,0.2-1.2,0.2c-0.7,0-1.2-0.2-1.6-0.5s-0.6-0.8-0.6-1.3
		c0-0.3,0.1-0.6,0.2-0.8s0.3-0.5,0.5-0.6s0.5-0.3,0.8-0.3c0.2-0.1,0.5-0.1,0.9-0.2c0.9-0.1,1.5-0.2,1.9-0.4c0-0.1,0-0.2,0-0.3
		c0-0.4-0.1-0.7-0.3-0.9c-0.3-0.2-0.7-0.4-1.2-0.4c-0.5,0-0.9,0.1-1.1,0.3s-0.4,0.5-0.5,0.9l-1-0.1c0.1-0.4,0.2-0.8,0.5-1.1
		s0.5-0.5,0.9-0.6s0.9-0.2,1.4-0.2c0.5,0,1,0.1,1.3,0.2s0.6,0.3,0.7,0.5s0.3,0.4,0.3,0.7c0,0.2,0.1,0.5,0.1,1v1.4c0,1,0,1.6,0.1,1.9
		s0.1,0.5,0.3,0.7H107C106.9,222.4,106.9,222.1,106.8,221.8z M106.8,219.5c-0.4,0.2-1,0.3-1.7,0.4c-0.4,0.1-0.7,0.1-0.9,0.2
		s-0.3,0.2-0.4,0.3s-0.1,0.3-0.1,0.5c0,0.3,0.1,0.5,0.3,0.7s0.5,0.3,0.9,0.3c0.4,0,0.8-0.1,1.1-0.3s0.5-0.4,0.7-0.7
		c0.1-0.2,0.2-0.6,0.2-1.1V219.5z"/>
	<path fill="#003366" d="M14.6,236l0.2,0.9c-0.3,0.1-0.6,0.1-0.8,0.1c-0.4,0-0.7-0.1-0.9-0.2s-0.4-0.3-0.4-0.5s-0.1-0.6-0.1-1.2
		v-3.6h-0.8v-0.8h0.8v-1.5l1-0.6v2.2h1.1v0.8h-1.1v3.6c0,0.3,0,0.5,0.1,0.6s0.1,0.2,0.2,0.2s0.2,0.1,0.4,0.1
		C14.2,236.1,14.4,236.1,14.6,236z"/>
	<path fill="#003366" d="M15.6,237v-8.6h1.1v3.1c0.5-0.6,1.1-0.9,1.9-0.9c0.5,0,0.9,0.1,1.2,0.3s0.6,0.4,0.7,0.8s0.2,0.8,0.2,1.4
		v3.9h-1.1V233c0-0.5-0.1-0.9-0.3-1.2s-0.6-0.4-1-0.4c-0.3,0-0.6,0.1-0.9,0.2s-0.5,0.4-0.6,0.7s-0.2,0.7-0.2,1.1v3.4H15.6z"/>
	<path fill="#003366" d="M22.3,237v-6.2h0.9v0.9c0.2-0.4,0.5-0.7,0.7-0.9s0.4-0.2,0.7-0.2c0.4,0,0.7,0.1,1.1,0.3l-0.4,1
		c-0.3-0.2-0.5-0.2-0.8-0.2c-0.2,0-0.4,0.1-0.6,0.2s-0.3,0.3-0.4,0.6c-0.1,0.4-0.2,0.8-0.2,1.2v3.3H22.3z"/>
	<path fill="#003366" d="M30.6,235l1.1,0.1c-0.2,0.6-0.5,1.1-1,1.5s-1.1,0.5-1.8,0.5c-0.9,0-1.6-0.3-2.2-0.8s-0.8-1.3-0.8-2.4
		c0-1,0.3-1.9,0.8-2.4s1.2-0.9,2.1-0.9c0.8,0,1.5,0.3,2,0.8s0.8,1.4,0.8,2.4c0,0.1,0,0.2,0,0.3H27c0,0.7,0.2,1.2,0.6,1.6
		s0.8,0.5,1.3,0.5c0.4,0,0.7-0.1,1-0.3S30.4,235.4,30.6,235z M27.1,233.3h3.5c0-0.5-0.2-0.9-0.4-1.2c-0.3-0.4-0.8-0.6-1.3-0.6
		c-0.5,0-0.9,0.2-1.2,0.5S27.1,232.7,27.1,233.3z"/>
	<path fill="#003366" d="M37,236.2c-0.4,0.3-0.8,0.6-1.1,0.7s-0.7,0.2-1.2,0.2c-0.7,0-1.2-0.2-1.6-0.5s-0.6-0.8-0.6-1.3
		c0-0.3,0.1-0.6,0.2-0.8s0.3-0.5,0.5-0.6s0.5-0.3,0.8-0.3c0.2-0.1,0.5-0.1,0.9-0.2c0.9-0.1,1.5-0.2,1.9-0.4c0-0.1,0-0.2,0-0.3
		c0-0.4-0.1-0.7-0.3-0.9c-0.3-0.2-0.7-0.4-1.2-0.4c-0.5,0-0.9,0.1-1.1,0.3s-0.4,0.5-0.5,0.9l-1-0.1c0.1-0.4,0.2-0.8,0.5-1.1
		s0.5-0.5,0.9-0.6s0.9-0.2,1.4-0.2c0.5,0,1,0.1,1.3,0.2s0.6,0.3,0.7,0.5s0.3,0.4,0.3,0.7c0,0.2,0.1,0.5,0.1,1v1.4c0,1,0,1.6,0.1,1.9
		s0.1,0.5,0.3,0.7h-1.1C37.1,236.8,37.1,236.5,37,236.2z M36.9,233.9c-0.4,0.2-1,0.3-1.7,0.4c-0.4,0.1-0.7,0.1-0.9,0.2
		s-0.3,0.2-0.4,0.3s-0.1,0.3-0.1,0.5c0,0.3,0.1,0.5,0.3,0.7s0.5,0.3,0.9,0.3c0.4,0,0.8-0.1,1.1-0.3s0.5-0.4,0.7-0.7
		c0.1-0.2,0.2-0.6,0.2-1.1V233.9z"/>
	<path fill="#003366" d="M41.9,236l0.2,0.9c-0.3,0.1-0.6,0.1-0.8,0.1c-0.4,0-0.7-0.1-0.9-0.2s-0.4-0.3-0.4-0.5s-0.1-0.6-0.1-1.2
		v-3.6h-0.8v-0.8h0.8v-1.5l1-0.6v2.2h1.1v0.8h-1.1v3.6c0,0.3,0,0.5,0.1,0.6s0.1,0.2,0.2,0.2s0.2,0.1,0.4,0.1
		C41.6,236.1,41.8,236.1,41.9,236z"/>
	<path fill="#003366" d="M50.4,236.2c-0.4,0.3-0.8,0.6-1.1,0.7s-0.7,0.2-1.2,0.2c-0.7,0-1.2-0.2-1.6-0.5s-0.6-0.8-0.6-1.3
		c0-0.3,0.1-0.6,0.2-0.8s0.3-0.5,0.5-0.6s0.5-0.3,0.8-0.3c0.2-0.1,0.5-0.1,0.9-0.2c0.9-0.1,1.5-0.2,1.9-0.4c0-0.1,0-0.2,0-0.3
		c0-0.4-0.1-0.7-0.3-0.9c-0.3-0.2-0.7-0.4-1.2-0.4c-0.5,0-0.9,0.1-1.1,0.3s-0.4,0.5-0.5,0.9l-1-0.1c0.1-0.4,0.2-0.8,0.5-1.1
		s0.5-0.5,0.9-0.6s0.9-0.2,1.4-0.2c0.5,0,1,0.1,1.3,0.2s0.6,0.3,0.7,0.5s0.3,0.4,0.3,0.7c0,0.2,0.1,0.5,0.1,1v1.4c0,1,0,1.6,0.1,1.9
		s0.1,0.5,0.3,0.7h-1.1C50.5,236.8,50.4,236.5,50.4,236.2z M50.3,233.9c-0.4,0.2-1,0.3-1.7,0.4c-0.4,0.1-0.7,0.1-0.9,0.2
		s-0.3,0.2-0.4,0.3s-0.1,0.3-0.1,0.5c0,0.3,0.1,0.5,0.3,0.7s0.5,0.3,0.9,0.3c0.4,0,0.8-0.1,1.1-0.3s0.5-0.4,0.7-0.7
		c0.1-0.2,0.2-0.6,0.2-1.1V233.9z"/>
	<path fill="#003366" d="M53,237v-6.2h0.9v0.9c0.5-0.7,1.1-1,2-1c0.4,0,0.7,0.1,1,0.2s0.5,0.3,0.7,0.5s0.3,0.5,0.3,0.8
		c0,0.2,0.1,0.5,0.1,1v3.8H57v-3.8c0-0.4,0-0.8-0.1-1s-0.2-0.4-0.4-0.5s-0.5-0.2-0.7-0.2c-0.4,0-0.8,0.1-1.2,0.4s-0.5,0.8-0.5,1.6
		v3.4H53z"/>
	<path fill="#003366" d="M63.7,237v-0.8c-0.4,0.6-1,0.9-1.7,0.9c-0.5,0-1-0.1-1.4-0.4s-0.7-0.7-1-1.1s-0.3-1.1-0.3-1.7
		c0-0.6,0.1-1.2,0.3-1.7s0.5-0.9,0.9-1.2s0.9-0.4,1.4-0.4c0.4,0,0.7,0.1,1,0.2s0.5,0.4,0.7,0.6v-3.1h1v8.6H63.7z M60.4,233.9
		c0,0.8,0.2,1.4,0.5,1.8s0.7,0.6,1.2,0.6c0.5,0,0.9-0.2,1.2-0.6s0.5-1,0.5-1.7c0-0.9-0.2-1.5-0.5-1.9s-0.7-0.6-1.2-0.6
		c-0.5,0-0.9,0.2-1.2,0.6S60.4,233.1,60.4,233.9z"/>
	<path fill="#003366" d="M69.7,229.6v-1.2h1.1v1.2H69.7z M69.7,237v-6.2h1.1v6.2H69.7z"/>
	<path fill="#003366" d="M71.9,235.1l1-0.2c0.1,0.4,0.2,0.7,0.5,1s0.6,0.3,1.1,0.3c0.5,0,0.8-0.1,1.1-0.3s0.4-0.4,0.4-0.7
		c0-0.2-0.1-0.4-0.3-0.6c-0.1-0.1-0.5-0.2-1.1-0.4c-0.8-0.2-1.3-0.4-1.6-0.5s-0.5-0.3-0.7-0.6s-0.2-0.5-0.2-0.8
		c0-0.3,0.1-0.5,0.2-0.8s0.3-0.4,0.5-0.6c0.2-0.1,0.4-0.2,0.7-0.3s0.6-0.1,0.9-0.1c0.5,0,0.9,0.1,1.3,0.2s0.6,0.3,0.8,0.6
		s0.3,0.6,0.4,1l-1,0.1c0-0.3-0.2-0.6-0.4-0.8s-0.5-0.3-1-0.3c-0.5,0-0.8,0.1-1,0.2s-0.3,0.3-0.3,0.6c0,0.1,0,0.3,0.1,0.4
		c0.1,0.1,0.2,0.2,0.4,0.3c0.1,0,0.4,0.1,0.9,0.3c0.7,0.2,1.3,0.4,1.6,0.5s0.5,0.3,0.7,0.6s0.3,0.5,0.3,0.9c0,0.4-0.1,0.7-0.3,1
		s-0.5,0.6-0.9,0.7s-0.8,0.3-1.3,0.3c-0.8,0-1.4-0.2-1.8-0.5S72,235.8,71.9,235.1z"/>
	<path fill="#003366" d="M77.9,235.1l1-0.2c0.1,0.4,0.2,0.7,0.5,1s0.6,0.3,1.1,0.3c0.5,0,0.8-0.1,1.1-0.3s0.4-0.4,0.4-0.7
		c0-0.2-0.1-0.4-0.3-0.6c-0.1-0.1-0.5-0.2-1.1-0.4c-0.8-0.2-1.3-0.4-1.6-0.5s-0.5-0.3-0.7-0.6s-0.2-0.5-0.2-0.8
		c0-0.3,0.1-0.5,0.2-0.8s0.3-0.4,0.5-0.6c0.2-0.1,0.4-0.2,0.7-0.3s0.6-0.1,0.9-0.1c0.5,0,0.9,0.1,1.3,0.2s0.6,0.3,0.8,0.6
		s0.3,0.6,0.4,1l-1,0.1c0-0.3-0.2-0.6-0.4-0.8s-0.5-0.3-1-0.3c-0.5,0-0.8,0.1-1,0.2s-0.3,0.3-0.3,0.6c0,0.1,0,0.3,0.1,0.4
		c0.1,0.1,0.2,0.2,0.4,0.3c0.1,0,0.4,0.1,0.9,0.3c0.7,0.2,1.3,0.4,1.6,0.5s0.5,0.3,0.7,0.6s0.3,0.5,0.3,0.9c0,0.4-0.1,0.7-0.3,1
		s-0.5,0.6-0.9,0.7s-0.8,0.3-1.3,0.3c-0.8,0-1.4-0.2-1.8-0.5S78,235.8,77.9,235.1z"/>
	<path fill="#003366" d="M88.4,237v-0.9c-0.5,0.7-1.1,1.1-2,1.1c-0.4,0-0.7-0.1-1-0.2s-0.6-0.3-0.7-0.5s-0.3-0.5-0.3-0.8
		c0-0.2-0.1-0.5-0.1-1v-3.9h1.1v3.5c0,0.6,0,0.9,0.1,1.1c0.1,0.3,0.2,0.5,0.4,0.7s0.5,0.2,0.8,0.2s0.6-0.1,0.9-0.2s0.5-0.4,0.6-0.7
		s0.2-0.7,0.2-1.2v-3.3h1.1v6.2H88.4z"/>
	<path fill="#003366" d="M95.3,235l1.1,0.1c-0.2,0.6-0.5,1.1-1,1.5s-1.1,0.5-1.8,0.5c-0.9,0-1.6-0.3-2.2-0.8s-0.8-1.3-0.8-2.4
		c0-1,0.3-1.9,0.8-2.4s1.2-0.9,2.1-0.9c0.8,0,1.5,0.3,2,0.8s0.8,1.4,0.8,2.4c0,0.1,0,0.2,0,0.3h-4.6c0,0.7,0.2,1.2,0.6,1.6
		s0.8,0.5,1.3,0.5c0.4,0,0.7-0.1,1-0.3S95.1,235.4,95.3,235z M91.8,233.3h3.5c0-0.5-0.2-0.9-0.4-1.2c-0.3-0.4-0.8-0.6-1.3-0.6
		c-0.5,0-0.9,0.2-1.2,0.5S91.8,232.7,91.8,233.3z"/>
	<path fill="#003366" d="M97.3,235.1l1-0.2c0.1,0.4,0.2,0.7,0.5,1s0.6,0.3,1.1,0.3c0.5,0,0.8-0.1,1.1-0.3s0.4-0.4,0.4-0.7
		c0-0.2-0.1-0.4-0.3-0.6c-0.1-0.1-0.5-0.2-1.1-0.4c-0.8-0.2-1.3-0.4-1.6-0.5s-0.5-0.3-0.7-0.6s-0.2-0.5-0.2-0.8
		c0-0.3,0.1-0.5,0.2-0.8s0.3-0.4,0.5-0.6c0.2-0.1,0.4-0.2,0.7-0.3s0.6-0.1,0.9-0.1c0.5,0,0.9,0.1,1.3,0.2s0.6,0.3,0.8,0.6
		s0.3,0.6,0.4,1l-1,0.1c0-0.3-0.2-0.6-0.4-0.8s-0.5-0.3-1-0.3c-0.5,0-0.8,0.1-1,0.2s-0.3,0.3-0.3,0.6c0,0.1,0,0.3,0.1,0.4
		c0.1,0.1,0.2,0.2,0.4,0.3c0.1,0,0.4,0.1,0.9,0.3c0.7,0.2,1.3,0.4,1.6,0.5s0.5,0.3,0.7,0.6s0.3,0.5,0.3,0.9c0,0.4-0.1,0.7-0.3,1
		s-0.5,0.6-0.9,0.7s-0.8,0.3-1.3,0.3c-0.8,0-1.4-0.2-1.8-0.5S97.4,235.8,97.3,235.1z"/>
	<path fill="#003366" d="M111.1,236.2c-0.4,0.3-0.8,0.6-1.1,0.7s-0.7,0.2-1.2,0.2c-0.7,0-1.2-0.2-1.6-0.5s-0.6-0.8-0.6-1.3
		c0-0.3,0.1-0.6,0.2-0.8s0.3-0.5,0.5-0.6s0.5-0.3,0.8-0.3c0.2-0.1,0.5-0.1,0.9-0.2c0.9-0.1,1.5-0.2,1.9-0.4c0-0.1,0-0.2,0-0.3
		c0-0.4-0.1-0.7-0.3-0.9c-0.3-0.2-0.7-0.4-1.2-0.4c-0.5,0-0.9,0.1-1.1,0.3s-0.4,0.5-0.5,0.9l-1-0.1c0.1-0.4,0.2-0.8,0.5-1.1
		s0.5-0.5,0.9-0.6s0.9-0.2,1.4-0.2c0.5,0,1,0.1,1.3,0.2s0.6,0.3,0.7,0.5s0.3,0.4,0.3,0.7c0,0.2,0.1,0.5,0.1,1v1.4c0,1,0,1.6,0.1,1.9
		s0.1,0.5,0.3,0.7h-1.1C111.2,236.8,111.1,236.5,111.1,236.2z M111,233.9c-0.4,0.2-1,0.3-1.7,0.4c-0.4,0.1-0.7,0.1-0.9,0.2
		s-0.3,0.2-0.4,0.3s-0.1,0.3-0.1,0.5c0,0.3,0.1,0.5,0.3,0.7s0.5,0.3,0.9,0.3c0.4,0,0.8-0.1,1.1-0.3s0.5-0.4,0.7-0.7
		c0.1-0.2,0.2-0.6,0.2-1.1V233.9z"/>
	<path fill="#003366" d="M117,231.4l-0.3-1.6v-1.4h1.2v1.4l-0.3,1.6H117z"/>
	<path fill="#003366" d="M123.3,237v-0.8c-0.4,0.6-1,0.9-1.7,0.9c-0.5,0-1-0.1-1.4-0.4s-0.7-0.7-1-1.1s-0.3-1.1-0.3-1.7
		c0-0.6,0.1-1.2,0.3-1.7s0.5-0.9,0.9-1.2s0.9-0.4,1.4-0.4c0.4,0,0.7,0.1,1,0.2s0.5,0.4,0.7,0.6v-3.1h1v8.6H123.3z M120,233.9
		c0,0.8,0.2,1.4,0.5,1.8s0.7,0.6,1.2,0.6c0.5,0,0.9-0.2,1.2-0.6s0.5-1,0.5-1.7c0-0.9-0.2-1.5-0.5-1.9s-0.7-0.6-1.2-0.6
		c-0.5,0-0.9,0.2-1.2,0.6S120,233.1,120,233.9z"/>
	<path fill="#003366" d="M130.2,235l1.1,0.1c-0.2,0.6-0.5,1.1-1,1.5s-1.1,0.5-1.8,0.5c-0.9,0-1.6-0.3-2.2-0.8s-0.8-1.3-0.8-2.4
		c0-1,0.3-1.9,0.8-2.4s1.2-0.9,2.1-0.9c0.8,0,1.5,0.3,2,0.8s0.8,1.4,0.8,2.4c0,0.1,0,0.2,0,0.3h-4.6c0,0.7,0.2,1.2,0.6,1.6
		s0.8,0.5,1.3,0.5c0.4,0,0.7-0.1,1-0.3S130.1,235.4,130.2,235z M126.8,233.3h3.5c0-0.5-0.2-0.9-0.4-1.2c-0.3-0.4-0.8-0.6-1.3-0.6
		c-0.5,0-0.9,0.2-1.2,0.5S126.8,232.7,126.8,233.3z"/>
	<path fill="#003366" d="M132.2,235.1l1-0.2c0.1,0.4,0.2,0.7,0.5,1s0.6,0.3,1.1,0.3c0.5,0,0.8-0.1,1.1-0.3s0.4-0.4,0.4-0.7
		c0-0.2-0.1-0.4-0.3-0.6c-0.1-0.1-0.5-0.2-1.1-0.4c-0.8-0.2-1.3-0.4-1.6-0.5s-0.5-0.3-0.7-0.6s-0.2-0.5-0.2-0.8
		c0-0.3,0.1-0.5,0.2-0.8s0.3-0.4,0.5-0.6c0.2-0.1,0.4-0.2,0.7-0.3s0.6-0.1,0.9-0.1c0.5,0,0.9,0.1,1.3,0.2s0.6,0.3,0.8,0.6
		s0.3,0.6,0.4,1l-1,0.1c0-0.3-0.2-0.6-0.4-0.8s-0.5-0.3-1-0.3c-0.5,0-0.8,0.1-1,0.2s-0.3,0.3-0.3,0.6c0,0.1,0,0.3,0.1,0.4
		c0.1,0.1,0.2,0.2,0.4,0.3c0.1,0,0.4,0.1,0.9,0.3c0.7,0.2,1.3,0.4,1.6,0.5s0.5,0.3,0.7,0.6s0.3,0.5,0.3,0.9c0,0.4-0.1,0.7-0.3,1
		s-0.5,0.6-0.9,0.7s-0.8,0.3-1.3,0.3c-0.8,0-1.4-0.2-1.8-0.5S132.4,235.8,132.2,235.1z"/>
	<path fill="#003366" d="M142.7,234.7l1,0.1c-0.1,0.7-0.4,1.3-0.9,1.7s-1,0.6-1.7,0.6c-0.9,0-1.5-0.3-2.1-0.8s-0.8-1.4-0.8-2.4
		c0-0.7,0.1-1.3,0.3-1.8s0.6-0.9,1-1.1s1-0.4,1.5-0.4c0.7,0,1.2,0.2,1.7,0.5s0.7,0.8,0.8,1.5l-1,0.2c-0.1-0.4-0.3-0.7-0.5-0.9
		s-0.5-0.3-0.9-0.3c-0.5,0-1,0.2-1.3,0.6s-0.5,1-0.5,1.8c0,0.8,0.2,1.4,0.5,1.8s0.7,0.6,1.3,0.6c0.4,0,0.8-0.1,1-0.4
		S142.6,235.2,142.7,234.7z"/>
	<path fill="#003366" d="M148.9,235l1.1,0.1c-0.2,0.6-0.5,1.1-1,1.5s-1.1,0.5-1.8,0.5c-0.9,0-1.6-0.3-2.2-0.8s-0.8-1.3-0.8-2.4
		c0-1,0.3-1.9,0.8-2.4s1.2-0.9,2.1-0.9c0.8,0,1.5,0.3,2,0.8s0.8,1.4,0.8,2.4c0,0.1,0,0.2,0,0.3h-4.6c0,0.7,0.2,1.2,0.6,1.6
		s0.8,0.5,1.3,0.5c0.4,0,0.7-0.1,1-0.3S148.8,235.4,148.9,235z M145.5,233.3h3.5c0-0.5-0.2-0.9-0.4-1.2c-0.3-0.4-0.8-0.6-1.3-0.6
		c-0.5,0-0.9,0.2-1.2,0.5S145.5,232.7,145.5,233.3z"/>
	<path fill="#003366" d="M151.3,237v-6.2h0.9v0.9c0.5-0.7,1.1-1,2-1c0.4,0,0.7,0.1,1,0.2s0.5,0.3,0.7,0.5s0.3,0.5,0.3,0.8
		c0,0.2,0.1,0.5,0.1,1v3.8h-1.1v-3.8c0-0.4,0-0.8-0.1-1s-0.2-0.4-0.4-0.5s-0.5-0.2-0.7-0.2c-0.4,0-0.8,0.1-1.2,0.4s-0.5,0.8-0.5,1.6
		v3.4H151.3z"/>
	<path fill="#003366" d="M162,237v-0.8c-0.4,0.6-1,0.9-1.7,0.9c-0.5,0-1-0.1-1.4-0.4s-0.7-0.7-1-1.1s-0.3-1.1-0.3-1.7
		c0-0.6,0.1-1.2,0.3-1.7s0.5-0.9,0.9-1.2s0.9-0.4,1.4-0.4c0.4,0,0.7,0.1,1,0.2s0.5,0.4,0.7,0.6v-3.1h1v8.6H162z M158.7,233.9
		c0,0.8,0.2,1.4,0.5,1.8s0.7,0.6,1.2,0.6c0.5,0,0.9-0.2,1.2-0.6s0.5-1,0.5-1.7c0-0.9-0.2-1.5-0.5-1.9s-0.7-0.6-1.2-0.6
		c-0.5,0-0.9,0.2-1.2,0.6S158.7,233.1,158.7,233.9z"/>
	<path fill="#003366" d="M164.7,231.4l-0.3-1.6v-1.4h1.2v1.4l-0.3,1.6H164.7z"/>
	<path fill="#003366" d="M170.5,237v-8.6h3.8c0.8,0,1.3,0.1,1.7,0.2s0.7,0.4,1,0.8s0.4,0.8,0.4,1.3c0,0.6-0.2,1.1-0.6,1.5
		s-1,0.7-1.8,0.8c0.3,0.1,0.5,0.3,0.7,0.4c0.3,0.3,0.6,0.7,0.9,1.1l1.5,2.3h-1.4l-1.1-1.8c-0.3-0.5-0.6-0.9-0.8-1.2
		s-0.4-0.5-0.6-0.6s-0.3-0.2-0.5-0.2c-0.1,0-0.3,0-0.6,0h-1.3v3.8H170.5z M171.6,232.2h2.4c0.5,0,0.9-0.1,1.2-0.2s0.5-0.3,0.7-0.5
		s0.2-0.5,0.2-0.8c0-0.4-0.1-0.7-0.4-1s-0.8-0.4-1.4-0.4h-2.7V232.2z"/>
	<path fill="#003366" d="M178.2,237l3.3-8.6h1.2l3.5,8.6h-1.3l-1-2.6h-3.6l-0.9,2.6H178.2z M180.6,233.5h2.9l-0.9-2.4
		c-0.3-0.7-0.5-1.3-0.6-1.8c-0.1,0.6-0.3,1.1-0.5,1.6L180.6,233.5z"/>
</g>
<g id="text6">
	<rect x="211.5" y="214" fill="none" width="182.5" height="32"/>
	<path fill="#003366" d="M217.5,221.6v1h-5.7c0-0.3,0-0.5,0.1-0.7c0.1-0.4,0.4-0.8,0.7-1.1s0.8-0.8,1.4-1.3c0.9-0.8,1.6-1.4,1.9-1.8
		s0.5-0.9,0.5-1.3c0-0.4-0.1-0.8-0.4-1.1s-0.7-0.4-1.2-0.4c-0.5,0-0.9,0.2-1.2,0.5s-0.5,0.7-0.5,1.3l-1.1-0.1
		c0.1-0.8,0.4-1.4,0.8-1.8s1.1-0.6,2-0.6c0.8,0,1.5,0.2,2,0.7s0.7,1,0.7,1.7c0,0.3-0.1,0.7-0.2,1s-0.4,0.7-0.7,1s-0.9,0.9-1.6,1.5
		c-0.6,0.5-1,0.9-1.2,1.1s-0.3,0.4-0.4,0.6H217.5z"/>
	<path fill="#003366" d="M219.3,222.6v-1.2h1.2v1.2H219.3z"/>
	<path fill="#003366" d="M227.7,222.6V215h-2.8v-1h6.8v1h-2.8v7.6H227.7z"/>
	<path fill="#003366" d="M239,219.6l1.1,0.3c-0.2,0.9-0.7,1.6-1.3,2.1s-1.4,0.7-2.3,0.7c-0.9,0-1.7-0.2-2.3-0.6s-1-0.9-1.3-1.6
		s-0.5-1.5-0.5-2.3c0-0.9,0.2-1.7,0.5-2.3s0.8-1.2,1.5-1.5s1.3-0.5,2.1-0.5c0.9,0,1.6,0.2,2.2,0.7s1,1.1,1.2,1.8l-1.1,0.3
		c-0.2-0.6-0.5-1.1-0.9-1.4s-0.9-0.4-1.4-0.4c-0.7,0-1.2,0.2-1.7,0.5s-0.8,0.7-0.9,1.3s-0.3,1.1-0.3,1.6c0,0.7,0.1,1.4,0.3,1.9
		s0.5,1,1,1.2s0.9,0.4,1.5,0.4c0.6,0,1.2-0.2,1.6-0.6S238.9,220.3,239,219.6z"/>
	<path fill="#003366" d="M240.6,222.6l3.3-8.6h1.2l3.5,8.6h-1.3l-1-2.6h-3.6l-0.9,2.6H240.6z M243.1,219.1h2.9l-0.9-2.4
		c-0.3-0.7-0.5-1.3-0.6-1.8c-0.1,0.6-0.3,1.1-0.5,1.6L243.1,219.1z"/>
	<path fill="#003366" d="M249.2,219.8l1.1-0.1c0.1,0.4,0.2,0.8,0.4,1.1s0.5,0.5,0.9,0.7s0.8,0.3,1.3,0.3c0.4,0,0.8-0.1,1.1-0.2
		s0.6-0.3,0.7-0.5s0.2-0.5,0.2-0.7c0-0.3-0.1-0.5-0.2-0.7s-0.4-0.4-0.8-0.5c-0.2-0.1-0.7-0.2-1.5-0.4s-1.3-0.4-1.7-0.5
		c-0.4-0.2-0.7-0.5-0.9-0.8s-0.3-0.7-0.3-1.1c0-0.4,0.1-0.8,0.4-1.2s0.6-0.7,1.1-0.9s1-0.3,1.6-0.3c0.6,0,1.2,0.1,1.7,0.3
		s0.9,0.5,1.1,0.9s0.4,0.8,0.4,1.4l-1.1,0.1c-0.1-0.5-0.3-1-0.6-1.2s-0.8-0.4-1.5-0.4c-0.7,0-1.2,0.1-1.5,0.4s-0.5,0.6-0.5,0.9
		c0,0.3,0.1,0.6,0.3,0.8c0.2,0.2,0.8,0.4,1.7,0.6s1.6,0.4,1.9,0.5c0.5,0.2,0.9,0.5,1.1,0.9s0.4,0.8,0.4,1.2c0,0.5-0.1,0.9-0.4,1.3
		s-0.6,0.7-1.1,0.9s-1,0.3-1.7,0.3c-0.8,0-1.4-0.1-2-0.3s-0.9-0.6-1.2-1S249.2,220.4,249.2,219.8z"/>
	<path fill="#003366" d="M260.7,222.6v-6.2h0.9v0.9c0.2-0.4,0.5-0.7,0.7-0.9s0.4-0.2,0.7-0.2c0.4,0,0.7,0.1,1.1,0.3l-0.4,1
		c-0.3-0.2-0.5-0.2-0.8-0.2c-0.2,0-0.4,0.1-0.6,0.2s-0.3,0.3-0.4,0.6c-0.1,0.4-0.2,0.8-0.2,1.2v3.3H260.7z"/>
	<path fill="#003366" d="M269,220.6l1.1,0.1c-0.2,0.6-0.5,1.1-1,1.5s-1.1,0.5-1.8,0.5c-0.9,0-1.6-0.3-2.2-0.8s-0.8-1.3-0.8-2.4
		c0-1,0.3-1.9,0.8-2.4s1.2-0.9,2.1-0.9c0.8,0,1.5,0.3,2,0.8s0.8,1.4,0.8,2.4c0,0.1,0,0.2,0,0.3h-4.6c0,0.7,0.2,1.2,0.6,1.6
		s0.8,0.5,1.3,0.5c0.4,0,0.7-0.1,1-0.3S268.8,221,269,220.6z M265.5,218.9h3.5c0-0.5-0.2-0.9-0.4-1.2c-0.3-0.4-0.8-0.6-1.3-0.6
		c-0.5,0-0.9,0.2-1.2,0.5S265.6,218.3,265.5,218.9z"/>
	<path fill="#003366" d="M275.5,222.6v-0.8c-0.4,0.6-1,0.9-1.7,0.9c-0.5,0-1-0.1-1.4-0.4s-0.7-0.7-1-1.1s-0.3-1.1-0.3-1.7
		c0-0.6,0.1-1.2,0.3-1.7s0.5-0.9,0.9-1.2s0.9-0.4,1.4-0.4c0.4,0,0.7,0.1,1,0.2s0.5,0.4,0.7,0.6V214h1v8.6H275.5z M272.1,219.5
		c0,0.8,0.2,1.4,0.5,1.8s0.7,0.6,1.2,0.6c0.5,0,0.9-0.2,1.2-0.6s0.5-1,0.5-1.7c0-0.9-0.2-1.5-0.5-1.9s-0.7-0.6-1.2-0.6
		c-0.5,0-0.9,0.2-1.2,0.6S272.1,218.7,272.1,219.5z"/>
	<path fill="#003366" d="M282.2,222.6v-0.9c-0.5,0.7-1.1,1.1-2,1.1c-0.4,0-0.7-0.1-1-0.2s-0.6-0.3-0.7-0.5s-0.3-0.5-0.3-0.8
		c0-0.2-0.1-0.5-0.1-1v-3.9h1.1v3.5c0,0.6,0,0.9,0.1,1.1c0.1,0.3,0.2,0.5,0.4,0.7s0.5,0.2,0.8,0.2s0.6-0.1,0.9-0.2s0.5-0.4,0.6-0.7
		s0.2-0.7,0.2-1.2v-3.3h1.1v6.2H282.2z"/>
	<path fill="#003366" d="M288.8,220.3l1,0.1c-0.1,0.7-0.4,1.3-0.9,1.7s-1,0.6-1.7,0.6c-0.9,0-1.5-0.3-2.1-0.8s-0.8-1.4-0.8-2.4
		c0-0.7,0.1-1.3,0.3-1.8s0.6-0.9,1-1.1s1-0.4,1.5-0.4c0.7,0,1.2,0.2,1.7,0.5s0.7,0.8,0.8,1.5l-1,0.2c-0.1-0.4-0.3-0.7-0.5-0.9
		s-0.5-0.3-0.9-0.3c-0.5,0-1,0.2-1.3,0.6s-0.5,1-0.5,1.8c0,0.8,0.2,1.4,0.5,1.8s0.7,0.6,1.3,0.6c0.4,0,0.8-0.1,1-0.4
		S288.8,220.8,288.8,220.3z"/>
	<path fill="#003366" d="M295,220.6l1.1,0.1c-0.2,0.6-0.5,1.1-1,1.5s-1.1,0.5-1.8,0.5c-0.9,0-1.6-0.3-2.2-0.8s-0.8-1.3-0.8-2.4
		c0-1,0.3-1.9,0.8-2.4s1.2-0.9,2.1-0.9c0.8,0,1.5,0.3,2,0.8s0.8,1.4,0.8,2.4c0,0.1,0,0.2,0,0.3h-4.6c0,0.7,0.2,1.2,0.6,1.6
		s0.8,0.5,1.3,0.5c0.4,0,0.7-0.1,1-0.3S294.9,221,295,220.6z M291.6,218.9h3.5c0-0.5-0.2-0.9-0.4-1.2c-0.3-0.4-0.8-0.6-1.3-0.6
		c-0.5,0-0.9,0.2-1.2,0.5S291.6,218.3,291.6,218.9z"/>
	<path fill="#003366" d="M297,220.7l1-0.2c0.1,0.4,0.2,0.7,0.5,1s0.6,0.3,1.1,0.3c0.5,0,0.8-0.1,1.1-0.3s0.4-0.4,0.4-0.7
		c0-0.2-0.1-0.4-0.3-0.6c-0.1-0.1-0.5-0.2-1.1-0.4c-0.8-0.2-1.3-0.4-1.6-0.5s-0.5-0.3-0.7-0.6s-0.2-0.5-0.2-0.8
		c0-0.3,0.1-0.5,0.2-0.8s0.3-0.4,0.5-0.6c0.2-0.1,0.4-0.2,0.7-0.3s0.6-0.1,0.9-0.1c0.5,0,0.9,0.1,1.3,0.2s0.6,0.3,0.8,0.6
		s0.3,0.6,0.4,1l-1,0.1c0-0.3-0.2-0.6-0.4-0.8s-0.5-0.3-1-0.3c-0.5,0-0.8,0.1-1,0.2s-0.3,0.3-0.3,0.6c0,0.1,0,0.3,0.1,0.4
		c0.1,0.1,0.2,0.2,0.4,0.3c0.1,0,0.4,0.1,0.9,0.3c0.7,0.2,1.3,0.4,1.6,0.5s0.5,0.3,0.7,0.6s0.3,0.5,0.3,0.9c0,0.4-0.1,0.7-0.3,1
		s-0.5,0.6-0.9,0.7s-0.8,0.3-1.3,0.3c-0.8,0-1.4-0.2-1.8-0.5S297.1,221.4,297,220.7z"/>
	<path fill="#003366" d="M309.1,221.6l0.2,0.9c-0.3,0.1-0.6,0.1-0.8,0.1c-0.4,0-0.7-0.1-0.9-0.2s-0.4-0.3-0.4-0.5s-0.1-0.6-0.1-1.2
		v-3.6h-0.8v-0.8h0.8v-1.5l1-0.6v2.2h1.1v0.8H308v3.6c0,0.3,0,0.5,0.1,0.6s0.1,0.2,0.2,0.2s0.2,0.1,0.4,0.1
		C308.7,221.7,308.9,221.7,309.1,221.6z"/>
	<path fill="#003366" d="M310.1,222.6V214h1.1v3.1c0.5-0.6,1.1-0.9,1.9-0.9c0.5,0,0.9,0.1,1.2,0.3s0.6,0.4,0.7,0.8s0.2,0.8,0.2,1.4
		v3.9h-1.1v-3.9c0-0.5-0.1-0.9-0.3-1.2s-0.6-0.4-1-0.4c-0.3,0-0.6,0.1-0.9,0.2s-0.5,0.4-0.6,0.7s-0.2,0.7-0.2,1.1v3.4H310.1z"/>
	<path fill="#003366" d="M321,220.6l1.1,0.1c-0.2,0.6-0.5,1.1-1,1.5s-1.1,0.5-1.8,0.5c-0.9,0-1.6-0.3-2.2-0.8s-0.8-1.3-0.8-2.4
		c0-1,0.3-1.9,0.8-2.4s1.2-0.9,2.1-0.9c0.8,0,1.5,0.3,2,0.8s0.8,1.4,0.8,2.4c0,0.1,0,0.2,0,0.3h-4.6c0,0.7,0.2,1.2,0.6,1.6
		s0.8,0.5,1.3,0.5c0.4,0,0.7-0.1,1-0.3S320.9,221,321,220.6z M317.6,218.9h3.5c0-0.5-0.2-0.9-0.4-1.2c-0.3-0.4-0.8-0.6-1.3-0.6
		c-0.5,0-0.9,0.2-1.2,0.5S317.6,218.3,317.6,218.9z"/>
	<path fill="#003366" d="M326.4,220.7l1-0.2c0.1,0.4,0.2,0.7,0.5,1s0.6,0.3,1.1,0.3c0.5,0,0.8-0.1,1.1-0.3s0.4-0.4,0.4-0.7
		c0-0.2-0.1-0.4-0.3-0.6c-0.1-0.1-0.5-0.2-1.1-0.4c-0.8-0.2-1.3-0.4-1.6-0.5s-0.5-0.3-0.7-0.6s-0.2-0.5-0.2-0.8
		c0-0.3,0.1-0.5,0.2-0.8s0.3-0.4,0.5-0.6c0.2-0.1,0.4-0.2,0.7-0.3s0.6-0.1,0.9-0.1c0.5,0,0.9,0.1,1.3,0.2s0.6,0.3,0.8,0.6
		s0.3,0.6,0.4,1l-1,0.1c0-0.3-0.2-0.6-0.4-0.8s-0.5-0.3-1-0.3c-0.5,0-0.8,0.1-1,0.2s-0.3,0.3-0.3,0.6c0,0.1,0,0.3,0.1,0.4
		c0.1,0.1,0.2,0.2,0.4,0.3c0.1,0,0.4,0.1,0.9,0.3c0.7,0.2,1.3,0.4,1.6,0.5s0.5,0.3,0.7,0.6s0.3,0.5,0.3,0.9c0,0.4-0.1,0.7-0.3,1
		s-0.5,0.6-0.9,0.7s-0.8,0.3-1.3,0.3c-0.8,0-1.4-0.2-1.8-0.5S326.5,221.4,326.4,220.7z"/>
	<path fill="#003366" d="M335.1,221.6l0.2,0.9c-0.3,0.1-0.6,0.1-0.8,0.1c-0.4,0-0.7-0.1-0.9-0.2s-0.4-0.3-0.4-0.5s-0.1-0.6-0.1-1.2
		v-3.6h-0.8v-0.8h0.8v-1.5l1-0.6v2.2h1.1v0.8H334v3.6c0,0.3,0,0.5,0.1,0.6s0.1,0.2,0.2,0.2s0.2,0.1,0.4,0.1
		C334.8,221.7,334.9,221.7,335.1,221.6z"/>
	<path fill="#003366" d="M336.1,222.6v-6.2h0.9v0.9c0.2-0.4,0.5-0.7,0.7-0.9s0.4-0.2,0.7-0.2c0.4,0,0.7,0.1,1.1,0.3l-0.4,1
		c-0.3-0.2-0.5-0.2-0.8-0.2c-0.2,0-0.4,0.1-0.6,0.2s-0.3,0.3-0.4,0.6c-0.1,0.4-0.2,0.8-0.2,1.2v3.3H336.1z"/>
	<path fill="#003366" d="M344.4,220.6l1.1,0.1c-0.2,0.6-0.5,1.1-1,1.5s-1.1,0.5-1.8,0.5c-0.9,0-1.6-0.3-2.2-0.8s-0.8-1.3-0.8-2.4
		c0-1,0.3-1.9,0.8-2.4s1.2-0.9,2.1-0.9c0.8,0,1.5,0.3,2,0.8s0.8,1.4,0.8,2.4c0,0.1,0,0.2,0,0.3h-4.6c0,0.7,0.2,1.2,0.6,1.6
		s0.8,0.5,1.3,0.5c0.4,0,0.7-0.1,1-0.3S344.2,221,344.4,220.6z M340.9,218.9h3.5c0-0.5-0.2-0.9-0.4-1.2c-0.3-0.4-0.8-0.6-1.3-0.6
		c-0.5,0-0.9,0.2-1.2,0.5S341,218.3,340.9,218.9z"/>
	<path fill="#003366" d="M346.8,222.6v-6.2h0.9v0.9c0.5-0.7,1.1-1,2-1c0.4,0,0.7,0.1,1,0.2s0.5,0.3,0.7,0.5s0.3,0.5,0.3,0.8
		c0,0.2,0.1,0.5,0.1,1v3.8h-1.1v-3.8c0-0.4,0-0.8-0.1-1s-0.2-0.4-0.4-0.5s-0.5-0.2-0.7-0.2c-0.4,0-0.8,0.1-1.2,0.4s-0.5,0.8-0.5,1.6
		v3.4H346.8z"/>
	<path fill="#003366" d="M353.3,223.1l1,0.2c0,0.3,0.2,0.5,0.4,0.7c0.3,0.2,0.6,0.3,1.1,0.3c0.5,0,0.9-0.1,1.1-0.3s0.4-0.5,0.5-0.8
		c0.1-0.2,0.1-0.7,0.1-1.4c-0.5,0.5-1,0.8-1.7,0.8c-0.9,0-1.5-0.3-2-0.9s-0.7-1.4-0.7-2.2c0-0.6,0.1-1.1,0.3-1.6s0.5-0.9,0.9-1.2
		s0.9-0.4,1.4-0.4c0.7,0,1.3,0.3,1.8,0.9v-0.8h1v5.4c0,1-0.1,1.7-0.3,2.1s-0.5,0.7-0.9,1s-1,0.4-1.6,0.4c-0.7,0-1.3-0.2-1.8-0.5
		S353.3,223.8,353.3,223.1z M354.2,219.4c0,0.8,0.2,1.4,0.5,1.8s0.7,0.6,1.2,0.6c0.5,0,0.9-0.2,1.2-0.6s0.5-1,0.5-1.8
		c0-0.8-0.2-1.3-0.5-1.7s-0.7-0.6-1.2-0.6c-0.5,0-0.9,0.2-1.2,0.6S354.2,218.6,354.2,219.4z"/>
	<path fill="#003366" d="M362.4,221.6l0.2,0.9c-0.3,0.1-0.6,0.1-0.8,0.1c-0.4,0-0.7-0.1-0.9-0.2s-0.4-0.3-0.4-0.5s-0.1-0.6-0.1-1.2
		v-3.6h-0.8v-0.8h0.8v-1.5l1-0.6v2.2h1.1v0.8h-1.1v3.6c0,0.3,0,0.5,0.1,0.6s0.1,0.2,0.2,0.2s0.2,0.1,0.4,0.1
		C362.1,221.7,362.3,221.7,362.4,221.6z"/>
	<path fill="#003366" d="M363.5,222.6V214h1.1v3.1c0.5-0.6,1.1-0.9,1.9-0.9c0.5,0,0.9,0.1,1.2,0.3s0.6,0.4,0.7,0.8s0.2,0.8,0.2,1.4
		v3.9h-1.1v-3.9c0-0.5-0.1-0.9-0.3-1.2s-0.6-0.4-1-0.4c-0.3,0-0.6,0.1-0.9,0.2s-0.5,0.4-0.6,0.7s-0.2,0.7-0.2,1.1v3.4H363.5z"/>
	<path fill="#003366" d="M211.9,233.9c0-1.2,0.3-2,1-2.6c0.5-0.5,1.2-0.7,2-0.7c0.9,0,1.6,0.3,2.1,0.8s0.8,1.3,0.8,2.3
		c0,0.8-0.1,1.4-0.4,1.9s-0.6,0.8-1,1.1s-1,0.4-1.5,0.4c-0.9,0-1.6-0.3-2.1-0.8S211.9,234.9,211.9,233.9z M213,233.9
		c0,0.8,0.2,1.4,0.5,1.8s0.8,0.6,1.3,0.6c0.5,0,1-0.2,1.3-0.6s0.5-1,0.5-1.8c0-0.8-0.2-1.4-0.5-1.8s-0.8-0.6-1.3-0.6
		c-0.5,0-1,0.2-1.3,0.6S213,233.1,213,233.9z"/>
	<path fill="#003366" d="M219.2,237v-5.4h-0.9v-0.8h0.9v-0.7c0-0.4,0-0.7,0.1-0.9c0.1-0.3,0.3-0.5,0.5-0.7s0.6-0.3,1.1-0.3
		c0.3,0,0.6,0,1,0.1l-0.2,0.9c-0.2,0-0.4-0.1-0.6-0.1c-0.3,0-0.5,0.1-0.7,0.2s-0.2,0.4-0.2,0.8v0.6h1.2v0.8h-1.2v5.4H219.2z"/>
	<path fill="#003366" d="M227.9,236l0.2,0.9c-0.3,0.1-0.6,0.1-0.8,0.1c-0.4,0-0.7-0.1-0.9-0.2s-0.4-0.3-0.4-0.5s-0.1-0.6-0.1-1.2
		v-3.6h-0.8v-0.8h0.8v-1.5l1-0.6v2.2h1.1v0.8h-1.1v3.6c0,0.3,0,0.5,0.1,0.6s0.1,0.2,0.2,0.2s0.2,0.1,0.4,0.1
		C227.6,236.1,227.7,236.1,227.9,236z"/>
	<path fill="#003366" d="M229,237v-8.6h1.1v3.1c0.5-0.6,1.1-0.9,1.9-0.9c0.5,0,0.9,0.1,1.2,0.3s0.6,0.4,0.7,0.8s0.2,0.8,0.2,1.4v3.9
		H233V233c0-0.5-0.1-0.9-0.3-1.2s-0.6-0.4-1-0.4c-0.3,0-0.6,0.1-0.9,0.2s-0.5,0.4-0.6,0.7s-0.2,0.7-0.2,1.1v3.4H229z"/>
	<path fill="#003366" d="M239.9,235l1.1,0.1c-0.2,0.6-0.5,1.1-1,1.5s-1.1,0.5-1.8,0.5c-0.9,0-1.6-0.3-2.2-0.8s-0.8-1.3-0.8-2.4
		c0-1,0.3-1.9,0.8-2.4s1.2-0.9,2.1-0.9c0.8,0,1.5,0.3,2,0.8s0.8,1.4,0.8,2.4c0,0.1,0,0.2,0,0.3h-4.6c0,0.7,0.2,1.2,0.6,1.6
		s0.8,0.5,1.3,0.5c0.4,0,0.7-0.1,1-0.3S239.7,235.4,239.9,235z M236.4,233.3h3.5c0-0.5-0.2-0.9-0.4-1.2c-0.3-0.4-0.8-0.6-1.3-0.6
		c-0.5,0-0.9,0.2-1.2,0.5S236.5,232.7,236.4,233.3z"/>
	<path fill="#003366" d="M245.7,231.4l-0.3-1.6v-1.4h1.2v1.4l-0.3,1.6H245.7z M247.6,231.4l-0.3-1.6v-1.4h1.2v1.4l-0.3,1.6H247.6z"
		/>
	<path fill="#003366" d="M253.9,237v-0.8c-0.4,0.6-1,0.9-1.7,0.9c-0.5,0-1-0.1-1.4-0.4s-0.7-0.7-1-1.1s-0.3-1.1-0.3-1.7
		c0-0.6,0.1-1.2,0.3-1.7s0.5-0.9,0.9-1.2s0.9-0.4,1.4-0.4c0.4,0,0.7,0.1,1,0.2s0.5,0.4,0.7,0.6v-3.1h1v8.6H253.9z M250.6,233.9
		c0,0.8,0.2,1.4,0.5,1.8s0.7,0.6,1.2,0.6c0.5,0,0.9-0.2,1.2-0.6s0.5-1,0.5-1.7c0-0.9-0.2-1.5-0.5-1.9s-0.7-0.6-1.2-0.6
		c-0.5,0-0.9,0.2-1.2,0.6S250.6,233.1,250.6,233.9z"/>
	<path fill="#003366" d="M260.8,235l1.1,0.1c-0.2,0.6-0.5,1.1-1,1.5s-1.1,0.5-1.8,0.5c-0.9,0-1.6-0.3-2.2-0.8s-0.8-1.3-0.8-2.4
		c0-1,0.3-1.9,0.8-2.4s1.2-0.9,2.1-0.9c0.8,0,1.5,0.3,2,0.8s0.8,1.4,0.8,2.4c0,0.1,0,0.2,0,0.3h-4.6c0,0.7,0.2,1.2,0.6,1.6
		s0.8,0.5,1.3,0.5c0.4,0,0.7-0.1,1-0.3S260.7,235.4,260.8,235z M257.4,233.3h3.5c0-0.5-0.2-0.9-0.4-1.2c-0.3-0.4-0.8-0.6-1.3-0.6
		c-0.5,0-0.9,0.2-1.2,0.5S257.4,232.7,257.4,233.3z"/>
	<path fill="#003366" d="M262.8,235.1l1-0.2c0.1,0.4,0.2,0.7,0.5,1s0.6,0.3,1.1,0.3c0.5,0,0.8-0.1,1.1-0.3s0.4-0.4,0.4-0.7
		c0-0.2-0.1-0.4-0.3-0.6c-0.1-0.1-0.5-0.2-1.1-0.4c-0.8-0.2-1.3-0.4-1.6-0.5s-0.5-0.3-0.7-0.6s-0.2-0.5-0.2-0.8
		c0-0.3,0.1-0.5,0.2-0.8s0.3-0.4,0.5-0.6c0.2-0.1,0.4-0.2,0.7-0.3s0.6-0.1,0.9-0.1c0.5,0,0.9,0.1,1.3,0.2s0.6,0.3,0.8,0.6
		s0.3,0.6,0.4,1l-1,0.1c0-0.3-0.2-0.6-0.4-0.8s-0.5-0.3-1-0.3c-0.5,0-0.8,0.1-1,0.2s-0.3,0.3-0.3,0.6c0,0.1,0,0.3,0.1,0.4
		c0.1,0.1,0.2,0.2,0.4,0.3c0.1,0,0.4,0.1,0.9,0.3c0.7,0.2,1.3,0.4,1.6,0.5s0.5,0.3,0.7,0.6s0.3,0.5,0.3,0.9c0,0.4-0.1,0.7-0.3,1
		s-0.5,0.6-0.9,0.7s-0.8,0.3-1.3,0.3c-0.8,0-1.4-0.2-1.8-0.5S263,235.8,262.8,235.1z"/>
	<path fill="#003366" d="M273.3,234.7l1,0.1c-0.1,0.7-0.4,1.3-0.9,1.7s-1,0.6-1.7,0.6c-0.9,0-1.5-0.3-2.1-0.8s-0.8-1.4-0.8-2.4
		c0-0.7,0.1-1.3,0.3-1.8s0.6-0.9,1-1.1s1-0.4,1.5-0.4c0.7,0,1.2,0.2,1.7,0.5s0.7,0.8,0.8,1.5l-1,0.2c-0.1-0.4-0.3-0.7-0.5-0.9
		s-0.5-0.3-0.9-0.3c-0.5,0-1,0.2-1.3,0.6s-0.5,1-0.5,1.8c0,0.8,0.2,1.4,0.5,1.8s0.7,0.6,1.3,0.6c0.4,0,0.8-0.1,1-0.4
		S273.2,235.2,273.3,234.7z"/>
	<path fill="#003366" d="M279.5,235l1.1,0.1c-0.2,0.6-0.5,1.1-1,1.5s-1.1,0.5-1.8,0.5c-0.9,0-1.6-0.3-2.2-0.8s-0.8-1.3-0.8-2.4
		c0-1,0.3-1.9,0.8-2.4s1.2-0.9,2.1-0.9c0.8,0,1.5,0.3,2,0.8s0.8,1.4,0.8,2.4c0,0.1,0,0.2,0,0.3H276c0,0.7,0.2,1.2,0.6,1.6
		s0.8,0.5,1.3,0.5c0.4,0,0.7-0.1,1-0.3S279.4,235.4,279.5,235z M276.1,233.3h3.5c0-0.5-0.2-0.9-0.4-1.2c-0.3-0.4-0.8-0.6-1.3-0.6
		c-0.5,0-0.9,0.2-1.2,0.5S276.1,232.7,276.1,233.3z"/>
	<path fill="#003366" d="M281.9,237v-6.2h0.9v0.9c0.5-0.7,1.1-1,2-1c0.4,0,0.7,0.1,1,0.2s0.5,0.3,0.7,0.5s0.3,0.5,0.3,0.8
		c0,0.2,0.1,0.5,0.1,1v3.8h-1.1v-3.8c0-0.4,0-0.8-0.1-1s-0.2-0.4-0.4-0.5s-0.5-0.2-0.7-0.2c-0.4,0-0.8,0.1-1.2,0.4s-0.5,0.8-0.5,1.6
		v3.4H281.9z"/>
	<path fill="#003366" d="M292.6,237v-0.8c-0.4,0.6-1,0.9-1.7,0.9c-0.5,0-1-0.1-1.4-0.4s-0.7-0.7-1-1.1s-0.3-1.1-0.3-1.7
		c0-0.6,0.1-1.2,0.3-1.7s0.5-0.9,0.9-1.2s0.9-0.4,1.4-0.4c0.4,0,0.7,0.1,1,0.2s0.5,0.4,0.7,0.6v-3.1h1v8.6H292.6z M289.3,233.9
		c0,0.8,0.2,1.4,0.5,1.8s0.7,0.6,1.2,0.6c0.5,0,0.9-0.2,1.2-0.6s0.5-1,0.5-1.7c0-0.9-0.2-1.5-0.5-1.9s-0.7-0.6-1.2-0.6
		c-0.5,0-0.9,0.2-1.2,0.6S289.3,233.1,289.3,233.9z"/>
	<path fill="#003366" d="M295.3,231.4l-0.3-1.6v-1.4h1.2v1.4l-0.3,1.6H295.3z M297.3,231.4l-0.3-1.6v-1.4h1.2v1.4l-0.3,1.6H297.3z"
		/>
	<path fill="#003366" d="M303,237v-8.6h3.8c0.8,0,1.3,0.1,1.7,0.2s0.7,0.4,1,0.8s0.4,0.8,0.4,1.3c0,0.6-0.2,1.1-0.6,1.5
		s-1,0.7-1.8,0.8c0.3,0.1,0.5,0.3,0.7,0.4c0.3,0.3,0.6,0.7,0.9,1.1l1.5,2.3h-1.4l-1.1-1.8c-0.3-0.5-0.6-0.9-0.8-1.2
		s-0.4-0.5-0.6-0.6s-0.3-0.2-0.5-0.2c-0.1,0-0.3,0-0.6,0h-1.3v3.8H303z M304.2,232.2h2.4c0.5,0,0.9-0.1,1.2-0.2s0.5-0.3,0.7-0.5
		s0.2-0.5,0.2-0.8c0-0.4-0.1-0.7-0.4-1s-0.8-0.4-1.4-0.4h-2.7V232.2z"/>
	<path fill="#003366" d="M310.7,237l3.3-8.6h1.2l3.5,8.6h-1.3l-1-2.6h-3.6l-0.9,2.6H310.7z M313.2,233.5h2.9l-0.9-2.4
		c-0.3-0.7-0.5-1.3-0.6-1.8c-0.1,0.6-0.3,1.1-0.5,1.6L313.2,233.5z"/>
	<path fill="#003366" d="M319.8,237v-1.2h1.2v1.2H319.8z"/>
</g>
<g id="text1">
	<rect x="11" y="42.5" fill="none" width="109" height="32"/>
	<path fill="#9FC7F7" d="M49,47.6c0-1,0.2-1.9,0.5-2.6c0.2-0.5,0.5-1,0.9-1.4s0.8-0.7,1.3-0.9c0.6-0.3,1.3-0.4,2.2-0.4
		c1.5,0,2.7,0.5,3.5,1.4s1.3,2.2,1.3,3.8c0,1.6-0.4,2.9-1.3,3.8s-2.1,1.4-3.5,1.4c-1.5,0-2.7-0.5-3.6-1.4S49,49.2,49,47.6z
		 M51.1,47.5c0,1.1,0.3,2,0.8,2.6s1.2,0.9,2,0.9s1.5-0.3,2-0.9s0.8-1.5,0.8-2.6c0-1.1-0.3-2-0.8-2.6s-1.2-0.8-2-0.8s-1.5,0.3-2,0.9
		S51.1,46.4,51.1,47.5z"/>
	<path fill="#9FC7F7" d="M61.7,52.5l-2.4-10h2.1l1.5,6.9l1.8-6.9h2.4l1.8,7l1.5-7h2l-2.4,10h-2.1l-2-7.5l-2,7.5H61.7z"/>
	<path fill="#9FC7F7" d="M73.5,52.5v-10h2l4.1,6.7v-6.7h1.9v10h-2l-4-6.5v6.5H73.5z"/>
	<path fill="#9FC7F7" d="M39.8,69.3h-2.2L36.7,67h-4l-0.8,2.3h-2.1l3.9-10h2.1L39.8,69.3z M36.1,65.4l-1.4-3.7l-1.4,3.7H36.1z"/>
	<path fill="#9FC7F7" d="M40.8,69.3v-10h2v10H40.8z"/>
	<path fill="#9FC7F7" d="M44.8,69.3v-10H49c1.1,0,1.8,0.1,2.3,0.3s0.9,0.5,1.2,1s0.4,1,0.4,1.6c0,0.8-0.2,1.4-0.7,1.9
		s-1.1,0.8-2,0.9c0.4,0.3,0.8,0.5,1.1,0.8s0.7,0.8,1.2,1.6l1.2,2h-2.4l-1.5-2.2c-0.5-0.8-0.9-1.3-1.1-1.5s-0.4-0.3-0.6-0.4
		s-0.6-0.1-1-0.1h-0.4v4.2H44.8z M46.8,63.5h1.5c1,0,1.6,0,1.8-0.1s0.4-0.2,0.6-0.4s0.2-0.5,0.2-0.8c0-0.3-0.1-0.6-0.3-0.8
		s-0.4-0.3-0.8-0.4c-0.2,0-0.7,0-1.5,0h-1.6V63.5z"/>
	<path fill="#9FC7F7" d="M61.3,65.6l2,0.6c-0.3,1.1-0.8,1.9-1.5,2.4s-1.6,0.8-2.7,0.8c-1.3,0-2.4-0.5-3.3-1.4s-1.3-2.2-1.3-3.7
		c0-1.7,0.4-3,1.3-3.9s2-1.4,3.4-1.4c1.2,0,2.2,0.4,3,1.1c0.5,0.4,0.8,1,1,1.8l-2,0.5c-0.1-0.5-0.4-0.9-0.7-1.2s-0.8-0.5-1.4-0.5
		c-0.7,0-1.3,0.3-1.8,0.8s-0.7,1.4-0.7,2.6c0,1.3,0.2,2.2,0.7,2.7s1,0.8,1.8,0.8c0.5,0,1-0.2,1.4-0.5S61.1,66.4,61.3,65.6z"/>
	<path fill="#9FC7F7" d="M65,69.3v-10h4.3c1.1,0,1.8,0.1,2.3,0.3s0.9,0.5,1.2,1s0.4,1,0.4,1.6c0,0.8-0.2,1.4-0.7,1.9s-1.1,0.8-2,0.9
		c0.4,0.3,0.8,0.5,1.1,0.8s0.7,0.8,1.2,1.6l1.2,2h-2.4l-1.5-2.2c-0.5-0.8-0.9-1.3-1.1-1.5s-0.4-0.3-0.6-0.4s-0.6-0.1-1-0.1H67v4.2
		H65z M67,63.5h1.5c1,0,1.6,0,1.8-0.1s0.4-0.2,0.6-0.4s0.2-0.5,0.2-0.8c0-0.3-0.1-0.6-0.3-0.8s-0.4-0.3-0.8-0.4c-0.2,0-0.7,0-1.5,0
		H67V63.5z"/>
	<path fill="#9FC7F7" d="M84.1,69.3h-2.2L81,67h-4l-0.8,2.3h-2.1l3.9-10h2.1L84.1,69.3z M80.4,65.4L79,61.6l-1.4,3.7H80.4z"/>
	<path fill="#9FC7F7" d="M85.2,69.3v-10h6.9V61h-4.8v2.4h4.2v1.7h-4.2v4.3H85.2z"/>
	<path fill="#9FC7F7" d="M96,69.3V61h-3v-1.7h8V61h-3v8.3H96z"/>
</g>
<g id="text2">
	<rect x="377" y="20.8" fill="none" width="109" height="18.5"/>
	<path fill="#9FC7F7" d="M407,30.9v-8.3h-3v-1.7h8v1.7h-3v8.3H407z"/>
	<path fill="#9FC7F7" d="M413.3,30.9v-10h2v3.9h4v-3.9h2v10h-2v-4.4h-4v4.4H413.3z"/>
	<path fill="#9FC7F7" d="M423.4,30.9v-10h4.3c1.1,0,1.8,0.1,2.3,0.3s0.9,0.5,1.2,1c0.3,0.5,0.4,1,0.4,1.6c0,0.8-0.2,1.4-0.7,1.9
		c-0.4,0.5-1.1,0.8-2,0.9c0.4,0.3,0.8,0.5,1.1,0.8c0.3,0.3,0.7,0.8,1.2,1.6l1.2,2H430l-1.5-2.2c-0.5-0.8-0.9-1.3-1.1-1.5
		s-0.4-0.3-0.6-0.4c-0.2-0.1-0.6-0.1-1-0.1h-0.4v4.2H423.4z M425.4,25.1h1.5c1,0,1.6,0,1.8-0.1c0.2-0.1,0.4-0.2,0.6-0.4
		s0.2-0.5,0.2-0.8c0-0.3-0.1-0.6-0.3-0.8c-0.2-0.2-0.4-0.3-0.8-0.4c-0.2,0-0.7,0-1.5,0h-1.6V25.1z"/>
	<path fill="#9FC7F7" d="M433.5,30.9v-10h7.4v1.7h-5.4v2.2h5v1.7h-5v2.7h5.6v1.7H433.5z"/>
	<path fill="#9FC7F7" d="M451.8,30.9h-2.2l-0.9-2.3h-4l-0.8,2.3h-2.1l3.9-10h2.1L451.8,30.9z M448.1,26.9l-1.4-3.7l-1.4,3.7H448.1z"
		/>
	<path fill="#9FC7F7" d="M454.1,30.9v-8.3h-3v-1.7h8v1.7h-3v8.3H454.1z"/>
</g>
<g id="text3">
	<rect x="9.5" y="115" fill="none" width="119" height="20"/>
	<path fill="#FF0000" d="M11.1,116.4v1.2H9.9v-1c0-0.5,0.1-0.9,0.2-1.1c0.2-0.3,0.4-0.5,0.8-0.7l0.3,0.4c-0.2,0.1-0.4,0.2-0.5,0.4
		s-0.2,0.4-0.2,0.8H11.1z M12.9,116.4v1.2h-1.1v-1c0-0.5,0.1-0.9,0.2-1.1c0.2-0.3,0.4-0.5,0.8-0.7l0.3,0.4c-0.2,0.1-0.4,0.2-0.5,0.4
		s-0.2,0.4-0.2,0.8H12.9z"/>
	<path fill="#FF0000" d="M14.4,123.6V115h3c0.7,0,1.2,0,1.5,0.1c0.5,0.1,0.9,0.3,1.3,0.6c0.5,0.4,0.8,0.9,1,1.5s0.3,1.3,0.3,2
		c0,0.7-0.1,1.2-0.2,1.7s-0.3,0.9-0.6,1.3s-0.5,0.6-0.8,0.8s-0.6,0.3-1,0.4s-0.9,0.1-1.4,0.1H14.4z M15.5,122.6h1.8
		c0.6,0,1-0.1,1.3-0.2s0.6-0.3,0.8-0.4c0.3-0.3,0.5-0.6,0.6-1.1s0.2-1,0.2-1.7c0-0.9-0.1-1.6-0.4-2.1s-0.7-0.8-1.1-1
		c-0.3-0.1-0.8-0.2-1.5-0.2h-1.8V122.6z"/>
	<path fill="#FF0000" d="M27.2,121.6l1.1,0.1c-0.2,0.6-0.5,1.1-1,1.5s-1.1,0.5-1.8,0.5c-0.9,0-1.6-0.3-2.2-0.8s-0.8-1.3-0.8-2.4
		c0-1,0.3-1.9,0.8-2.4s1.2-0.9,2.1-0.9c0.8,0,1.5,0.3,2,0.8s0.8,1.4,0.8,2.4c0,0.1,0,0.2,0,0.3h-4.6c0,0.7,0.2,1.2,0.6,1.6
		s0.8,0.5,1.3,0.5c0.4,0,0.7-0.1,1-0.3S27,122,27.2,121.6z M23.7,119.9h3.5c0-0.5-0.2-0.9-0.4-1.2c-0.3-0.4-0.8-0.6-1.3-0.6
		c-0.5,0-0.9,0.2-1.2,0.5S23.7,119.3,23.7,119.9z"/>
	<path fill="#FF0000" d="M29.2,121.7l1-0.2c0.1,0.4,0.2,0.7,0.5,1s0.6,0.3,1.1,0.3c0.5,0,0.8-0.1,1.1-0.3s0.4-0.4,0.4-0.7
		c0-0.2-0.1-0.4-0.3-0.6c-0.1-0.1-0.5-0.2-1.1-0.4c-0.8-0.2-1.3-0.4-1.6-0.5s-0.5-0.3-0.7-0.6s-0.2-0.5-0.2-0.8
		c0-0.3,0.1-0.5,0.2-0.8s0.3-0.4,0.5-0.6c0.2-0.1,0.4-0.2,0.7-0.3s0.6-0.1,0.9-0.1c0.5,0,0.9,0.1,1.3,0.2s0.6,0.3,0.8,0.6
		s0.3,0.6,0.4,1l-1,0.1c0-0.3-0.2-0.6-0.4-0.8s-0.5-0.3-1-0.3c-0.5,0-0.8,0.1-1,0.2s-0.3,0.3-0.3,0.6c0,0.1,0,0.3,0.1,0.4
		c0.1,0.1,0.2,0.2,0.4,0.3c0.1,0,0.4,0.1,0.9,0.3c0.7,0.2,1.3,0.4,1.6,0.5s0.5,0.3,0.7,0.6s0.3,0.5,0.3,0.9c0,0.4-0.1,0.7-0.3,1
		s-0.5,0.6-0.9,0.7s-0.8,0.3-1.3,0.3c-0.8,0-1.4-0.2-1.8-0.5S29.3,122.4,29.2,121.7z"/>
	<path fill="#FF0000" d="M39.6,121.3l1,0.1c-0.1,0.7-0.4,1.3-0.9,1.7s-1,0.6-1.7,0.6c-0.9,0-1.5-0.3-2.1-0.8s-0.8-1.4-0.8-2.4
		c0-0.7,0.1-1.3,0.3-1.8s0.6-0.9,1-1.1s1-0.4,1.5-0.4c0.7,0,1.2,0.2,1.7,0.5s0.7,0.8,0.8,1.5l-1,0.2c-0.1-0.4-0.3-0.7-0.5-0.9
		s-0.5-0.3-0.9-0.3c-0.5,0-1,0.2-1.3,0.6s-0.5,1-0.5,1.8c0,0.8,0.2,1.4,0.5,1.8s0.7,0.6,1.3,0.6c0.4,0,0.8-0.1,1-0.4
		S39.6,121.8,39.6,121.3z"/>
	<path fill="#FF0000" d="M45.8,121.6l1.1,0.1c-0.2,0.6-0.5,1.1-1,1.5s-1.1,0.5-1.8,0.5c-0.9,0-1.6-0.3-2.2-0.8s-0.8-1.3-0.8-2.4
		c0-1,0.3-1.9,0.8-2.4s1.2-0.9,2.1-0.9c0.8,0,1.5,0.3,2,0.8s0.8,1.4,0.8,2.4c0,0.1,0,0.2,0,0.3h-4.6c0,0.7,0.2,1.2,0.6,1.6
		s0.8,0.5,1.3,0.5c0.4,0,0.7-0.1,1-0.3S45.7,122,45.8,121.6z M42.4,119.9h3.5c0-0.5-0.2-0.9-0.4-1.2c-0.3-0.4-0.8-0.6-1.3-0.6
		c-0.5,0-0.9,0.2-1.2,0.5S42.4,119.3,42.4,119.9z"/>
	<path fill="#FF0000" d="M48.3,123.6v-6.2h0.9v0.9c0.5-0.7,1.1-1,2-1c0.4,0,0.7,0.1,1,0.2s0.5,0.3,0.7,0.5s0.3,0.5,0.3,0.8
		c0,0.2,0.1,0.5,0.1,1v3.8h-1.1v-3.8c0-0.4,0-0.8-0.1-1s-0.2-0.4-0.4-0.5s-0.5-0.2-0.7-0.2c-0.4,0-0.8,0.1-1.2,0.4s-0.5,0.8-0.5,1.6
		v3.4H48.3z"/>
	<path fill="#FF0000" d="M59,123.6v-0.8c-0.4,0.6-1,0.9-1.7,0.9c-0.5,0-1-0.1-1.4-0.4s-0.7-0.7-1-1.1s-0.3-1.1-0.3-1.7
		c0-0.6,0.1-1.2,0.3-1.7s0.5-0.9,0.9-1.2s0.9-0.4,1.4-0.4c0.4,0,0.7,0.1,1,0.2s0.5,0.4,0.7,0.6V115h1v8.6H59z M55.6,120.5
		c0,0.8,0.2,1.4,0.5,1.8s0.7,0.6,1.2,0.6c0.5,0,0.9-0.2,1.2-0.6s0.5-1,0.5-1.7c0-0.9-0.2-1.5-0.5-1.9s-0.7-0.6-1.2-0.6
		c-0.5,0-0.9,0.2-1.2,0.6S55.6,119.7,55.6,120.5z"/>
	<path fill="#FF0000" d="M61.9,123.6v-1.2h1.2v1.2c0,0.4-0.1,0.8-0.2,1.1s-0.4,0.5-0.7,0.6l-0.3-0.5c0.2-0.1,0.4-0.2,0.5-0.4
		s0.2-0.5,0.2-0.8H61.9z"/>
	<path fill="#FF0000" d="M72.3,123.6v-0.8c-0.4,0.6-1,0.9-1.7,0.9c-0.5,0-1-0.1-1.4-0.4s-0.7-0.7-1-1.1s-0.3-1.1-0.3-1.7
		c0-0.6,0.1-1.2,0.3-1.7s0.5-0.9,0.9-1.2s0.9-0.4,1.4-0.4c0.4,0,0.7,0.1,1,0.2s0.5,0.4,0.7,0.6V115h1v8.6H72.3z M69,120.5
		c0,0.8,0.2,1.4,0.5,1.8s0.7,0.6,1.2,0.6c0.5,0,0.9-0.2,1.2-0.6s0.5-1,0.5-1.7c0-0.9-0.2-1.5-0.5-1.9s-0.7-0.6-1.2-0.6
		c-0.5,0-0.9,0.2-1.2,0.6S69,119.7,69,120.5z"/>
	<path fill="#FF0000" d="M79.2,121.6l1.1,0.1c-0.2,0.6-0.5,1.1-1,1.5s-1.1,0.5-1.8,0.5c-0.9,0-1.6-0.3-2.2-0.8s-0.8-1.3-0.8-2.4
		c0-1,0.3-1.9,0.8-2.4s1.2-0.9,2.1-0.9c0.8,0,1.5,0.3,2,0.8s0.8,1.4,0.8,2.4c0,0.1,0,0.2,0,0.3h-4.6c0,0.7,0.2,1.2,0.6,1.6
		s0.8,0.5,1.3,0.5c0.4,0,0.7-0.1,1-0.3S79,122,79.2,121.6z M75.7,119.9h3.5c0-0.5-0.2-0.9-0.4-1.2c-0.3-0.4-0.8-0.6-1.3-0.6
		c-0.5,0-0.9,0.2-1.2,0.5S75.8,119.3,75.7,119.9z"/>
	<path fill="#FF0000" d="M81.2,121.7l1-0.2c0.1,0.4,0.2,0.7,0.5,1s0.6,0.3,1.1,0.3c0.5,0,0.8-0.1,1.1-0.3s0.4-0.4,0.4-0.7
		c0-0.2-0.1-0.4-0.3-0.6c-0.1-0.1-0.5-0.2-1.1-0.4c-0.8-0.2-1.3-0.4-1.6-0.5s-0.5-0.3-0.7-0.6s-0.2-0.5-0.2-0.8
		c0-0.3,0.1-0.5,0.2-0.8s0.3-0.4,0.5-0.6c0.2-0.1,0.4-0.2,0.7-0.3s0.6-0.1,0.9-0.1c0.5,0,0.9,0.1,1.3,0.2s0.6,0.3,0.8,0.6
		s0.3,0.6,0.4,1l-1,0.1c0-0.3-0.2-0.6-0.4-0.8s-0.5-0.3-1-0.3c-0.5,0-0.8,0.1-1,0.2s-0.3,0.3-0.3,0.6c0,0.1,0,0.3,0.1,0.4
		c0.1,0.1,0.2,0.2,0.4,0.3c0.1,0,0.4,0.1,0.9,0.3c0.7,0.2,1.3,0.4,1.6,0.5s0.5,0.3,0.7,0.6s0.3,0.5,0.3,0.9c0,0.4-0.1,0.7-0.3,1
		s-0.5,0.6-0.9,0.7s-0.8,0.3-1.3,0.3c-0.8,0-1.4-0.2-1.8-0.5S81.3,122.4,81.2,121.7z"/>
	<path fill="#FF0000" d="M91.7,121.3l1,0.1c-0.1,0.7-0.4,1.3-0.9,1.7s-1,0.6-1.7,0.6c-0.9,0-1.5-0.3-2.1-0.8s-0.8-1.4-0.8-2.4
		c0-0.7,0.1-1.3,0.3-1.8s0.6-0.9,1-1.1s1-0.4,1.5-0.4c0.7,0,1.2,0.2,1.7,0.5s0.7,0.8,0.8,1.5l-1,0.2c-0.1-0.4-0.3-0.7-0.5-0.9
		s-0.5-0.3-0.9-0.3c-0.5,0-1,0.2-1.3,0.6s-0.5,1-0.5,1.8c0,0.8,0.2,1.4,0.5,1.8s0.7,0.6,1.3,0.6c0.4,0,0.8-0.1,1-0.4
		S91.6,121.8,91.7,121.3z"/>
	<path fill="#FF0000" d="M97.9,121.6l1.1,0.1c-0.2,0.6-0.5,1.1-1,1.5s-1.1,0.5-1.8,0.5c-0.9,0-1.6-0.3-2.2-0.8s-0.8-1.3-0.8-2.4
		c0-1,0.3-1.9,0.8-2.4s1.2-0.9,2.1-0.9c0.8,0,1.5,0.3,2,0.8s0.8,1.4,0.8,2.4c0,0.1,0,0.2,0,0.3h-4.6c0,0.7,0.2,1.2,0.6,1.6
		s0.8,0.5,1.3,0.5c0.4,0,0.7-0.1,1-0.3S97.7,122,97.9,121.6z M94.4,119.9h3.5c0-0.5-0.2-0.9-0.4-1.2c-0.3-0.4-0.8-0.6-1.3-0.6
		c-0.5,0-0.9,0.2-1.2,0.5S94.4,119.3,94.4,119.9z"/>
	<path fill="#FF0000" d="M100.3,123.6v-6.2h0.9v0.9c0.5-0.7,1.1-1,2-1c0.4,0,0.7,0.1,1,0.2s0.5,0.3,0.7,0.5s0.3,0.5,0.3,0.8
		c0,0.2,0.1,0.5,0.1,1v3.8h-1.1v-3.8c0-0.4,0-0.8-0.1-1s-0.2-0.4-0.4-0.5s-0.5-0.2-0.7-0.2c-0.4,0-0.8,0.1-1.2,0.4s-0.5,0.8-0.5,1.6
		v3.4H100.3z"/>
	<path fill="#FF0000" d="M111,123.6v-0.8c-0.4,0.6-1,0.9-1.7,0.9c-0.5,0-1-0.1-1.4-0.4s-0.7-0.7-1-1.1s-0.3-1.1-0.3-1.7
		c0-0.6,0.1-1.2,0.3-1.7s0.5-0.9,0.9-1.2s0.9-0.4,1.4-0.4c0.4,0,0.7,0.1,1,0.2s0.5,0.4,0.7,0.6V115h1v8.6H111z M107.7,120.5
		c0,0.8,0.2,1.4,0.5,1.8s0.7,0.6,1.2,0.6c0.5,0,0.9-0.2,1.2-0.6s0.5-1,0.5-1.7c0-0.9-0.2-1.5-0.5-1.9s-0.7-0.6-1.2-0.6
		c-0.5,0-0.9,0.2-1.2,0.6S107.7,119.7,107.7,120.5z"/>
	<path fill="#FF0000" d="M113.4,116.1v-1.2h1.1v1c0,0.5-0.1,0.9-0.2,1.1c-0.2,0.3-0.4,0.6-0.8,0.7l-0.3-0.4c0.2-0.1,0.4-0.2,0.5-0.4
		s0.2-0.4,0.2-0.8H113.4z M115.2,116.1v-1.2h1.1v1c0,0.5-0.1,0.9-0.2,1.1c-0.2,0.3-0.4,0.6-0.8,0.7l-0.3-0.4
		c0.2-0.1,0.4-0.2,0.5-0.4s0.2-0.4,0.2-0.8H115.2z"/>
</g>
<g id="text4">
	<rect x="8.2" y="150" fill="none" width="171.5" height="20"/>
	<path fill="#FF0000" d="M9.8,151.4v1.2H8.7v-1c0-0.5,0.1-0.9,0.2-1.1c0.2-0.3,0.4-0.5,0.8-0.7l0.3,0.4c-0.2,0.1-0.4,0.2-0.5,0.4
		s-0.2,0.4-0.2,0.8H9.8z M11.7,151.4v1.2h-1.1v-1c0-0.5,0.1-0.9,0.2-1.1c0.2-0.3,0.4-0.5,0.8-0.7l0.3,0.4c-0.2,0.1-0.4,0.2-0.5,0.4
		s-0.2,0.4-0.2,0.8H11.7z"/>
	<path fill="#FF0000" d="M12.2,158.6l3.3-8.6h1.2l3.5,8.6h-1.3l-1-2.6h-3.6l-0.9,2.6H12.2z M14.7,155.1h2.9l-0.9-2.4
		c-0.3-0.7-0.5-1.3-0.6-1.8c-0.1,0.6-0.3,1.1-0.5,1.6L14.7,155.1z"/>
	<path fill="#FF0000" d="M25,158.6v-0.8c-0.4,0.6-1,0.9-1.7,0.9c-0.5,0-1-0.1-1.4-0.4s-0.7-0.7-1-1.1s-0.3-1.1-0.3-1.7
		c0-0.6,0.1-1.2,0.3-1.7s0.5-0.9,0.9-1.2s0.9-0.4,1.4-0.4c0.4,0,0.7,0.1,1,0.2s0.5,0.4,0.7,0.6V150h1v8.6H25z M21.7,155.5
		c0,0.8,0.2,1.4,0.5,1.8s0.7,0.6,1.2,0.6c0.5,0,0.9-0.2,1.2-0.6s0.5-1,0.5-1.7c0-0.9-0.2-1.5-0.5-1.9s-0.7-0.6-1.2-0.6
		c-0.5,0-0.9,0.2-1.2,0.6S21.7,154.7,21.7,155.5z"/>
	<path fill="#FF0000" d="M26.3,161l0.2-0.9c0.2,0.1,0.4,0.1,0.5,0.1c0.2,0,0.4-0.1,0.5-0.2s0.2-0.5,0.2-1.1v-6.5h1.1v6.6
		c0,0.8-0.1,1.3-0.3,1.6c-0.3,0.4-0.7,0.6-1.3,0.6C26.9,161.1,26.6,161.1,26.3,161z M27.7,151.2V150h1.1v1.2H27.7z"/>
	<path fill="#FF0000" d="M34.4,158.6v-0.9c-0.5,0.7-1.1,1.1-2,1.1c-0.4,0-0.7-0.1-1-0.2s-0.6-0.3-0.7-0.5s-0.3-0.5-0.3-0.8
		c0-0.2-0.1-0.5-0.1-1v-3.9h1.1v3.5c0,0.6,0,0.9,0.1,1.1c0.1,0.3,0.2,0.5,0.4,0.7s0.5,0.2,0.8,0.2s0.6-0.1,0.9-0.2s0.5-0.4,0.6-0.7
		s0.2-0.7,0.2-1.2v-3.3h1.1v6.2H34.4z"/>
	<path fill="#FF0000" d="M36.6,156.7l1-0.2c0.1,0.4,0.2,0.7,0.5,1s0.6,0.3,1.1,0.3c0.5,0,0.8-0.1,1.1-0.3s0.4-0.4,0.4-0.7
		c0-0.2-0.1-0.4-0.3-0.6c-0.1-0.1-0.5-0.2-1.1-0.4c-0.8-0.2-1.3-0.4-1.6-0.5s-0.5-0.3-0.7-0.6s-0.2-0.5-0.2-0.8
		c0-0.3,0.1-0.5,0.2-0.8s0.3-0.4,0.5-0.6c0.2-0.1,0.4-0.2,0.7-0.3s0.6-0.1,0.9-0.1c0.5,0,0.9,0.1,1.3,0.2s0.6,0.3,0.8,0.6
		s0.3,0.6,0.4,1l-1,0.1c0-0.3-0.2-0.6-0.4-0.8s-0.5-0.3-1-0.3c-0.5,0-0.8,0.1-1,0.2s-0.3,0.3-0.3,0.6c0,0.1,0,0.3,0.1,0.4
		c0.1,0.1,0.2,0.2,0.4,0.3c0.1,0,0.4,0.1,0.9,0.3c0.7,0.2,1.3,0.4,1.6,0.5s0.5,0.3,0.7,0.6s0.3,0.5,0.3,0.9c0,0.4-0.1,0.7-0.3,1
		s-0.5,0.6-0.9,0.7s-0.8,0.3-1.3,0.3c-0.8,0-1.4-0.2-1.8-0.5S36.7,157.4,36.6,156.7z"/>
	<path fill="#FF0000" d="M45.3,157.6l0.2,0.9c-0.3,0.1-0.6,0.1-0.8,0.1c-0.4,0-0.7-0.1-0.9-0.2s-0.4-0.3-0.4-0.5s-0.1-0.6-0.1-1.2
		v-3.6h-0.8v-0.8h0.8v-1.5l1-0.6v2.2h1.1v0.8h-1.1v3.6c0,0.3,0,0.5,0.1,0.6s0.1,0.2,0.2,0.2s0.2,0.1,0.4,0.1
		C45,157.7,45.1,157.7,45.3,157.6z"/>
	<path fill="#FF0000" d="M51.4,158.6l-2.4-6.2h1.1l1.3,3.7c0.1,0.4,0.3,0.8,0.4,1.3c0.1-0.3,0.2-0.7,0.4-1.2l1.4-3.8h1.1l-2.4,6.2
		H51.4z"/>
	<path fill="#FF0000" d="M60,156.6l1.1,0.1c-0.2,0.6-0.5,1.1-1,1.5s-1.1,0.5-1.8,0.5c-0.9,0-1.6-0.3-2.2-0.8s-0.8-1.3-0.8-2.4
		c0-1,0.3-1.9,0.8-2.4s1.2-0.9,2.1-0.9c0.8,0,1.5,0.3,2,0.8s0.8,1.4,0.8,2.4c0,0.1,0,0.2,0,0.3h-4.6c0,0.7,0.2,1.2,0.6,1.6
		s0.8,0.5,1.3,0.5c0.4,0,0.7-0.1,1-0.3S59.8,157,60,156.6z M56.5,154.9H60c0-0.5-0.2-0.9-0.4-1.2c-0.3-0.4-0.8-0.6-1.3-0.6
		c-0.5,0-0.9,0.2-1.2,0.5S56.5,154.3,56.5,154.9z"/>
	<path fill="#FF0000" d="M62.4,158.6v-6.2h0.9v0.9c0.2-0.4,0.5-0.7,0.7-0.9s0.4-0.2,0.7-0.2c0.4,0,0.7,0.1,1.1,0.3l-0.4,1
		c-0.3-0.2-0.5-0.2-0.8-0.2c-0.2,0-0.4,0.1-0.6,0.2s-0.3,0.3-0.4,0.6c-0.1,0.4-0.2,0.8-0.2,1.2v3.3H62.4z"/>
	<path fill="#FF0000" d="M68.7,157.6l0.2,0.9c-0.3,0.1-0.6,0.1-0.8,0.1c-0.4,0-0.7-0.1-0.9-0.2s-0.4-0.3-0.4-0.5s-0.1-0.6-0.1-1.2
		v-3.6h-0.8v-0.8h0.8v-1.5l1-0.6v2.2h1.1v0.8h-1.1v3.6c0,0.3,0,0.5,0.1,0.6s0.1,0.2,0.2,0.2s0.2,0.1,0.4,0.1
		C68.3,157.7,68.5,157.7,68.7,157.6z"/>
	<path fill="#FF0000" d="M69.7,151.2V150h1.1v1.2H69.7z M69.7,158.6v-6.2h1.1v6.2H69.7z"/>
	<path fill="#FF0000" d="M76.4,156.3l1,0.1c-0.1,0.7-0.4,1.3-0.9,1.7s-1,0.6-1.7,0.6c-0.9,0-1.5-0.3-2.1-0.8s-0.8-1.4-0.8-2.4
		c0-0.7,0.1-1.3,0.3-1.8s0.6-0.9,1-1.1s1-0.4,1.5-0.4c0.7,0,1.2,0.2,1.7,0.5s0.7,0.8,0.8,1.5l-1,0.2c-0.1-0.4-0.3-0.7-0.5-0.9
		s-0.5-0.3-0.9-0.3c-0.5,0-1,0.2-1.3,0.6s-0.5,1-0.5,1.8c0,0.8,0.2,1.4,0.5,1.8s0.7,0.6,1.3,0.6c0.4,0,0.8-0.1,1-0.4
		S76.3,156.8,76.4,156.3z"/>
	<path fill="#FF0000" d="M82.4,157.8c-0.4,0.3-0.8,0.6-1.1,0.7s-0.7,0.2-1.2,0.2c-0.7,0-1.2-0.2-1.6-0.5S78,157.5,78,157
		c0-0.3,0.1-0.6,0.2-0.8s0.3-0.5,0.5-0.6s0.5-0.3,0.8-0.3c0.2-0.1,0.5-0.1,0.9-0.2c0.9-0.1,1.5-0.2,1.9-0.4c0-0.1,0-0.2,0-0.3
		c0-0.4-0.1-0.7-0.3-0.9c-0.3-0.2-0.7-0.4-1.2-0.4c-0.5,0-0.9,0.1-1.1,0.3s-0.4,0.5-0.5,0.9l-1-0.1c0.1-0.4,0.2-0.8,0.5-1.1
		s0.5-0.5,0.9-0.6s0.9-0.2,1.4-0.2c0.5,0,1,0.1,1.3,0.2s0.6,0.3,0.7,0.5s0.3,0.4,0.3,0.7c0,0.2,0.1,0.5,0.1,1v1.4c0,1,0,1.6,0.1,1.9
		s0.1,0.5,0.3,0.7h-1.1C82.5,158.4,82.5,158.1,82.4,157.8z M82.3,155.5c-0.4,0.2-1,0.3-1.7,0.4c-0.4,0.1-0.7,0.1-0.9,0.2
		s-0.3,0.2-0.4,0.3s-0.1,0.3-0.1,0.5c0,0.3,0.1,0.5,0.3,0.7s0.5,0.3,0.9,0.3c0.4,0,0.8-0.1,1.1-0.3s0.5-0.4,0.7-0.7
		c0.1-0.2,0.2-0.6,0.2-1.1V155.5z"/>
	<path fill="#FF0000" d="M85,158.6V150h1.1v8.6H85z"/>
	<path fill="#FF0000" d="M90.6,156.7l1-0.2c0.1,0.4,0.2,0.7,0.5,1s0.6,0.3,1.1,0.3c0.5,0,0.8-0.1,1.1-0.3s0.4-0.4,0.4-0.7
		c0-0.2-0.1-0.4-0.3-0.6c-0.1-0.1-0.5-0.2-1.1-0.4c-0.8-0.2-1.3-0.4-1.6-0.5s-0.5-0.3-0.7-0.6s-0.2-0.5-0.2-0.8
		c0-0.3,0.1-0.5,0.2-0.8s0.3-0.4,0.5-0.6c0.2-0.1,0.4-0.2,0.7-0.3s0.6-0.1,0.9-0.1c0.5,0,0.9,0.1,1.3,0.2s0.6,0.3,0.8,0.6
		s0.3,0.6,0.4,1l-1,0.1c0-0.3-0.2-0.6-0.4-0.8s-0.5-0.3-1-0.3c-0.5,0-0.8,0.1-1,0.2s-0.3,0.3-0.3,0.6c0,0.1,0,0.3,0.1,0.4
		c0.1,0.1,0.2,0.2,0.4,0.3c0.1,0,0.4,0.1,0.9,0.3c0.7,0.2,1.3,0.4,1.6,0.5s0.5,0.3,0.7,0.6s0.3,0.5,0.3,0.9c0,0.4-0.1,0.7-0.3,1
		s-0.5,0.6-0.9,0.7s-0.8,0.3-1.3,0.3c-0.8,0-1.4-0.2-1.8-0.5S90.7,157.4,90.6,156.7z"/>
	<path fill="#FF0000" d="M97,161v-8.6h1v0.8c0.2-0.3,0.5-0.6,0.8-0.7s0.6-0.2,1-0.2c0.5,0,1,0.1,1.4,0.4s0.7,0.7,0.9,1.2
		s0.3,1,0.3,1.6c0,0.6-0.1,1.2-0.3,1.7s-0.6,0.9-1,1.2s-0.9,0.4-1.4,0.4c-0.4,0-0.7-0.1-0.9-0.2s-0.5-0.3-0.7-0.6v3H97z M98,155.5
		c0,0.8,0.2,1.4,0.5,1.8s0.7,0.6,1.2,0.6c0.5,0,0.9-0.2,1.2-0.6s0.5-1,0.5-1.8c0-0.8-0.2-1.4-0.5-1.8s-0.7-0.6-1.2-0.6
		c-0.4,0-0.8,0.2-1.2,0.6S98,154.7,98,155.5z"/>
	<path fill="#FF0000" d="M108,156.6l1.1,0.1c-0.2,0.6-0.5,1.1-1,1.5s-1.1,0.5-1.8,0.5c-0.9,0-1.6-0.3-2.2-0.8s-0.8-1.3-0.8-2.4
		c0-1,0.3-1.9,0.8-2.4s1.2-0.9,2.1-0.9c0.8,0,1.5,0.3,2,0.8s0.8,1.4,0.8,2.4c0,0.1,0,0.2,0,0.3h-4.6c0,0.7,0.2,1.2,0.6,1.6
		s0.8,0.5,1.3,0.5c0.4,0,0.7-0.1,1-0.3S107.8,157,108,156.6z M104.5,154.9h3.5c0-0.5-0.2-0.9-0.4-1.2c-0.3-0.4-0.8-0.6-1.3-0.6
		c-0.5,0-0.9,0.2-1.2,0.5S104.5,154.3,104.5,154.9z"/>
	<path fill="#FF0000" d="M114.6,156.6l1.1,0.1c-0.2,0.6-0.5,1.1-1,1.5s-1.1,0.5-1.8,0.5c-0.9,0-1.6-0.3-2.2-0.8s-0.8-1.3-0.8-2.4
		c0-1,0.3-1.9,0.8-2.4s1.2-0.9,2.1-0.9c0.8,0,1.5,0.3,2,0.8s0.8,1.4,0.8,2.4c0,0.1,0,0.2,0,0.3h-4.6c0,0.7,0.2,1.2,0.6,1.6
		s0.8,0.5,1.3,0.5c0.4,0,0.7-0.1,1-0.3S114.5,157,114.6,156.6z M111.2,154.9h3.5c0-0.5-0.2-0.9-0.4-1.2c-0.3-0.4-0.8-0.6-1.3-0.6
		c-0.5,0-0.9,0.2-1.2,0.5S111.2,154.3,111.2,154.9z"/>
	<path fill="#FF0000" d="M121.1,158.6v-0.8c-0.4,0.6-1,0.9-1.7,0.9c-0.5,0-1-0.1-1.4-0.4s-0.7-0.7-1-1.1s-0.3-1.1-0.3-1.7
		c0-0.6,0.1-1.2,0.3-1.7s0.5-0.9,0.9-1.2s0.9-0.4,1.4-0.4c0.4,0,0.7,0.1,1,0.2s0.5,0.4,0.7,0.6V150h1v8.6H121.1z M117.8,155.5
		c0,0.8,0.2,1.4,0.5,1.8s0.7,0.6,1.2,0.6c0.5,0,0.9-0.2,1.2-0.6s0.5-1,0.5-1.7c0-0.9-0.2-1.5-0.5-1.9s-0.7-0.6-1.2-0.6
		c-0.5,0-0.9,0.2-1.2,0.6S117.8,154.7,117.8,155.5z"/>
	<path fill="#FF0000" d="M124,158.6v-1.2h1.2v1.2c0,0.4-0.1,0.8-0.2,1.1s-0.4,0.5-0.7,0.6l-0.3-0.5c0.2-0.1,0.4-0.2,0.5-0.4
		s0.2-0.5,0.2-0.8H124z"/>
	<path fill="#FF0000" d="M134.5,157.8c-0.4,0.3-0.8,0.6-1.1,0.7s-0.7,0.2-1.2,0.2c-0.7,0-1.2-0.2-1.6-0.5s-0.6-0.8-0.6-1.3
		c0-0.3,0.1-0.6,0.2-0.8s0.3-0.5,0.5-0.6s0.5-0.3,0.8-0.3c0.2-0.1,0.5-0.1,0.9-0.2c0.9-0.1,1.5-0.2,1.9-0.4c0-0.1,0-0.2,0-0.3
		c0-0.4-0.1-0.7-0.3-0.9c-0.3-0.2-0.7-0.4-1.2-0.4c-0.5,0-0.9,0.1-1.1,0.3s-0.4,0.5-0.5,0.9l-1-0.1c0.1-0.4,0.2-0.8,0.5-1.1
		s0.5-0.5,0.9-0.6s0.9-0.2,1.4-0.2c0.5,0,1,0.1,1.3,0.2s0.6,0.3,0.7,0.5s0.3,0.4,0.3,0.7c0,0.2,0.1,0.5,0.1,1v1.4c0,1,0,1.6,0.1,1.9
		s0.1,0.5,0.3,0.7h-1.1C134.6,158.4,134.5,158.1,134.5,157.8z M134.4,155.5c-0.4,0.2-1,0.3-1.7,0.4c-0.4,0.1-0.7,0.1-0.9,0.2
		s-0.3,0.2-0.4,0.3s-0.1,0.3-0.1,0.5c0,0.3,0.1,0.5,0.3,0.7s0.5,0.3,0.9,0.3c0.4,0,0.8-0.1,1.1-0.3s0.5-0.4,0.7-0.7
		c0.1-0.2,0.2-0.6,0.2-1.1V155.5z"/>
	<path fill="#FF0000" d="M141.1,158.6v-0.8c-0.4,0.6-1,0.9-1.7,0.9c-0.5,0-1-0.1-1.4-0.4s-0.7-0.7-1-1.1s-0.3-1.1-0.3-1.7
		c0-0.6,0.1-1.2,0.3-1.7s0.5-0.9,0.9-1.2s0.9-0.4,1.4-0.4c0.4,0,0.7,0.1,1,0.2s0.5,0.4,0.7,0.6V150h1v8.6H141.1z M137.8,155.5
		c0,0.8,0.2,1.4,0.5,1.8s0.7,0.6,1.2,0.6c0.5,0,0.9-0.2,1.2-0.6s0.5-1,0.5-1.7c0-0.9-0.2-1.5-0.5-1.9s-0.7-0.6-1.2-0.6
		c-0.5,0-0.9,0.2-1.2,0.6S137.8,154.7,137.8,155.5z"/>
	<path fill="#FF0000" d="M142.4,161l0.2-0.9c0.2,0.1,0.4,0.1,0.5,0.1c0.2,0,0.4-0.1,0.5-0.2s0.2-0.5,0.2-1.1v-6.5h1.1v6.6
		c0,0.8-0.1,1.3-0.3,1.6c-0.3,0.4-0.7,0.6-1.3,0.6C142.9,161.1,142.7,161.1,142.4,161z M143.7,151.2V150h1.1v1.2H143.7z"/>
	<path fill="#FF0000" d="M150.5,158.6v-0.9c-0.5,0.7-1.1,1.1-2,1.1c-0.4,0-0.7-0.1-1-0.2s-0.6-0.3-0.7-0.5s-0.3-0.5-0.3-0.8
		c0-0.2-0.1-0.5-0.1-1v-3.9h1.1v3.5c0,0.6,0,0.9,0.1,1.1c0.1,0.3,0.2,0.5,0.4,0.7s0.5,0.2,0.8,0.2s0.6-0.1,0.9-0.2s0.5-0.4,0.6-0.7
		s0.2-0.7,0.2-1.2v-3.3h1.1v6.2H150.5z"/>
	<path fill="#FF0000" d="M152.7,156.7l1-0.2c0.1,0.4,0.2,0.7,0.5,1s0.6,0.3,1.1,0.3c0.5,0,0.8-0.1,1.1-0.3s0.4-0.4,0.4-0.7
		c0-0.2-0.1-0.4-0.3-0.6c-0.1-0.1-0.5-0.2-1.1-0.4c-0.8-0.2-1.3-0.4-1.6-0.5s-0.5-0.3-0.7-0.6s-0.2-0.5-0.2-0.8
		c0-0.3,0.1-0.5,0.2-0.8s0.3-0.4,0.5-0.6c0.2-0.1,0.4-0.2,0.7-0.3s0.6-0.1,0.9-0.1c0.5,0,0.9,0.1,1.3,0.2s0.6,0.3,0.8,0.6
		s0.3,0.6,0.4,1l-1,0.1c0-0.3-0.2-0.6-0.4-0.8s-0.5-0.3-1-0.3c-0.5,0-0.8,0.1-1,0.2s-0.3,0.3-0.3,0.6c0,0.1,0,0.3,0.1,0.4
		c0.1,0.1,0.2,0.2,0.4,0.3c0.1,0,0.4,0.1,0.9,0.3c0.7,0.2,1.3,0.4,1.6,0.5s0.5,0.3,0.7,0.6s0.3,0.5,0.3,0.9c0,0.4-0.1,0.7-0.3,1
		s-0.5,0.6-0.9,0.7s-0.8,0.3-1.3,0.3c-0.8,0-1.4-0.2-1.8-0.5S152.8,157.4,152.7,156.7z"/>
	<path fill="#FF0000" d="M161.4,157.6l0.2,0.9c-0.3,0.1-0.6,0.1-0.8,0.1c-0.4,0-0.7-0.1-0.9-0.2s-0.4-0.3-0.4-0.5s-0.1-0.6-0.1-1.2
		v-3.6h-0.8v-0.8h0.8v-1.5l1-0.6v2.2h1.1v0.8h-1.1v3.6c0,0.3,0,0.5,0.1,0.6s0.1,0.2,0.2,0.2s0.2,0.1,0.4,0.1
		C161,157.7,161.2,157.7,161.4,157.6z"/>
</g>
<g id="acft1">
	<path d="M34.3,81c2.2,2.3,4.4,4.5,6.6,6.8c3.5,3.7,7.1,6.4,12.7,6.2c10.1-0.4,20.2,0,30.3-0.1c6.8-0.1,13.4-0.1,19.1,4.5
		c0,0.9,0,1.8,0,2.7c-4.7,3-9.8,4.1-15.3,4c-2.3,0-4.8-0.4-6.6,1.8c-1.6,0-3.3,0-4.9,0c-2.3-0.6-4.6-1.5-6.9-1.7
		c-5.8-0.5-11.7-0.1-17.4-1.1c-8.2-1.5-16.2-3.8-23.8-7.4c0-0.6,0-1.2,0-1.8c1.5-0.3,2.9-0.7,4.6-1.1c-1.6-3.6-3.1-7.1-4.6-10.5
		c0-0.7,0-1.5,0-2.2C30.2,81,32.2,81,34.3,81z M67.8,101.2c-2.7,0-5.4-0.1-8.2-0.1c0-0.3,0-0.8-0.2-0.9c-2.2-1.1-4.3-2.2-6.9-1.9
		c-1.4,0.1-2.4,0.2-2.4,1.7c-2.7,0.9-2.2-1.7-3.3-2.4c1.4-1.1,2.5-2.1,4-0.3c0.2,0.3,1,0.2,1.5,0.2c7.3,0,14.6,0,21.9,0
		c2,0,4,0,5.9,0c0,0.3,0,0.6,0,0.9c-1.1,0-2.3-0.1-3.4,0c-0.5,0-1,0.4-1.4,0.6c0.5,0.3,1,0.6,1.5,0.8c0.5,0.1,1.1-0.1,1.5,0.1
		c1.8,0.7,4.6,0.3,4.1,3.6c6.6,0.8,16.1-0.3,19-3.4c-1-2.3-3-1.5-5-1.5c0.4-0.7,0.7-1.2,1.3-2.2c-3.8-0.4-7.1-1.1-10.5-1.1
		c-14.5,0-28.9,0.2-43.4,0.2c-1.6,0-3,0.2-3.9,1.6c-0.9-0.2-1.8-0.5-2.9-0.8c0.9-0.3,1.6-0.5,2.9-0.9c-2.2,0-3.8,0-5.7,0
		c0.6,0.3,0.9,0.4,1.4,0.7c-1,0.1-1.8,0.1-2.6,0.1c0,0.1,0,0.2,0,0.3c0.7,0.3,1.5,0.6,2.2,0.9c0.1,0.2,0.1,0.4,0.2,0.5
		c11.1,4.2,22.5,6.6,34.4,5.7c0.5,0,1-0.4,1.6-0.6c0-0.2-0.1-0.5-0.1-0.7c-2.3,0-4.5,0.1-6.8,0c-1.9-0.1-3.7-0.2-5.6-0.4
		c2.4,0,4.7,0,7.1-0.1C66.5,101.8,67.2,101.4,67.8,101.2c2.3,0.7,4.6,1.2,7.2,0C72.4,101.2,70.1,101.2,67.8,101.2z M29.7,82.8
		c1.5,3.6,3,7.4,4.6,11.1c0.2,0.5,1,0.9,1.5,0.9c3.3-0.1,6.6-0.3,9.3-0.5c-2.7-2.9-5.6-6-8.5-9.2C34.8,83.2,33,81.3,29.7,82.8z
		 M75.8,105.3c1.7,0,3.4,0.4,4.8-0.2c0.8-0.3,0.9-2.3,1.4-4c-2.5,0.1-4.3,0.2-6.2,0.3C75.8,102.7,75.8,103.7,75.8,105.3z M64.4,98.5
		c3,0.4,6.1,3.2,9.1,0.8c0-0.3,0-0.5,0-0.8C70.5,98.5,67.4,98.5,64.4,98.5z"/>
	<path fill="#FFFFFF" d="M40,97.1c0.9-1.4,2.3-1.6,3.9-1.6c14.5,0,28.9-0.2,43.4-0.2c3.4,0,6.7,0.7,10.5,1.1
		c-0.6,0.9-0.9,1.4-1.3,2.2c2,0,4-0.8,5,1.5c-2.9,3.1-12.4,4.2-19,3.4c0.4-3.2-2.3-2.9-4.1-3.6c-0.5-0.2-1.1,0-1.5-0.1
		c-0.5-0.2-1-0.5-1.5-0.8c0.5-0.2,0.9-0.5,1.4-0.6c1.1-0.1,2.3,0,3.4,0c0-0.3,0-0.6,0-0.9c-2,0-4,0-5.9,0c-7.3,0-14.6,0-21.9,0
		c-0.5,0-1.3,0.1-1.5-0.2c-1.4-1.8-2.6-0.8-4,0.3c1.1,0.8,0.7,3.3,3.3,2.4c0-1.5,1-1.5,2.4-1.7c2.6-0.3,4.8,0.9,6.9,1.9
		c0.2,0.1,0.1,0.6,0.2,0.9c-0.3,0.3-0.5,0.6-0.8,0.9c1.9,0.1,3.7,0.3,5.6,0.4c2.3,0.1,4.5,0,6.8,0c0,0.2,0.1,0.5,0.1,0.7
		c-0.5,0.2-1,0.5-1.6,0.6c-11.9,0.8-23.3-1.5-34.4-5.7c-0.1,0-0.1-0.3-0.2-0.5C36.8,97.3,38.4,97.2,40,97.1z M81.2,97.8
		c0,0.1,0,0.3,0,0.4c3.1,0,6.2,0,9.4,0c0-0.1,0-0.3,0-0.4C87.5,97.8,84.4,97.8,81.2,97.8z M93.9,100.1c0.3-3.6,0.2-3.7-2.4-3.2
		c0.1,1.1,0.2,2.1,0.4,3.2C92.6,100.1,93.2,100.1,93.9,100.1z"/>
	<path fill="#FFFFFF" d="M29.7,82.8c3.3-1.5,5.1,0.4,6.9,2.3c2.9,3.1,5.8,6.3,8.5,9.2c-2.7,0.2-6,0.4-9.3,0.5
		c-0.5,0-1.3-0.4-1.5-0.9C32.7,90.2,31.2,86.4,29.7,82.8z"/>
	<path fill="#FFFFFF" d="M75.8,105.3c0-1.6,0-2.6,0-3.8c1.9-0.1,3.7-0.2,6.2-0.3c-0.5,1.7-0.6,3.6-1.4,4
		C79.3,105.7,77.5,105.3,75.8,105.3z"/>
	<path fill="#FFFFFF" d="M64.4,98.5c3,0,6.1,0,9.1,0c0,0.3,0,0.5,0,0.8C70.5,101.7,67.4,98.9,64.4,98.5z"/>
	<path fill="#FFFFFF" d="M40,97.1c-1.6,0.1-3.2,0.2-4.8,0.3c-0.7-0.3-1.5-0.6-2.2-0.9c0-0.1,0-0.2,0-0.3c0.8,0,1.6-0.1,2.6-0.1
		c-0.5-0.2-0.8-0.4-1.4-0.7c1.9,0,3.6,0,5.7,0c-1.2,0.4-2,0.6-2.9,0.9C38.2,96.6,39.1,96.9,40,97.1z"/>
	<path fill="#FFFFFF" d="M58.8,102c0.3-0.3,0.5-0.6,0.8-0.9c2.7,0,5.4,0.1,8.2,0.1l0,0c-0.6,0.2-1.2,0.6-1.9,0.7
		C63.6,101.9,61.2,101.9,58.8,102z"/>
	<path fill="#FFFFFF" d="M67.8,101.2c2.3,0,4.6,0,7.2,0C72.4,102.4,70.1,101.9,67.8,101.2C67.8,101.2,67.8,101.2,67.8,101.2z"/>
	<path d="M81.2,97.8c3.1,0,6.2,0,9.3,0c0,0.1,0,0.3,0,0.4c-3.1,0-6.2,0-9.4,0C81.2,98.1,81.2,97.9,81.2,97.8z"/>
	<path d="M93.9,100.1c-0.7,0-1.3,0-2,0c-0.1-1.1-0.3-2.2-0.4-3.2C94,96.4,94.1,96.5,93.9,100.1z"/>
</g>
<g id="acft2">
	<path d="M486.4,11.8c0.3,0.7,0.5,1.4,0.8,2.1c-0.2,3.8-0.5,7.5-0.7,11.4c1.7-0.2,3.2-0.4,4.7-0.6c0.2,0.6,0.4,1.1,0.6,1.7
		c-5.9,6-12.6,11-19.9,15.1c-5,2.9-10.7,4.5-16,7c-2.1,1-3.9,2.6-5.9,4c-1.5,0.6-3.1,1.1-4.6,1.7c-2.4-1.5-4.6-0.3-6.8,0.6
		c-5.1,2-10.3,2.7-15.7,1.4c-0.3-0.8-0.6-1.7-0.9-2.5c3.7-6.2,10-8.5,16.4-10.7c9.5-3.3,18.9-7.1,28.5-10.2
		c5.3-1.7,7.8-5.6,9.8-10.2c1.3-2.9,2.6-5.8,3.8-8.6C482.5,13.2,484.5,12.5,486.4,11.8z M449.2,46.8c2.9,0.2,4.9-1,6.8-2.5
		c0.7,0,1.4,0.2,2,0c2.3-0.7,4.5-1.5,6.7-2.3c-1.7,0.8-3.4,1.6-5.2,2.3c-2.1,0.8-4.2,1.6-6.4,2.3c0,0.2,0.1,0.5,0.1,0.7
		c0.6,0,1.1,0.1,1.7,0c11.5-3.3,21.4-9.4,30.4-17.2c0.1-0.1,0-0.3,0-0.5c0.6-0.5,1.2-1.1,1.8-1.6c0-0.1-0.1-0.2-0.1-0.3
		c-0.7,0.2-1.5,0.4-2.5,0.8c0.4-0.4,0.6-0.6,1.1-1.1c-1.8,0.7-3.3,1.2-5.4,2c1.3,0,2.1-0.1,3-0.1c-1,0.7-1.7,1.2-2.5,1.7
		c-1.4-1-2.7-0.7-4.2-0.2c-13.6,4.9-27.3,9.7-40.9,14.6c-3.2,1.2-6.1,2.9-9.5,4.6c0.9,0.7,1.3,1,2,1.6c-1.9,0.7-4.1,0.6-4.2,3.1
		c3.8,2,13.1-0.3,19.1-3.3c-1.5-2.9,1.2-3.5,2.7-4.8c0.4-0.3,1-0.3,1.4-0.6c0.4-0.3,0.8-0.8,1.1-1.2c-0.5,0-1.1-0.2-1.5,0
		c-1.1,0.3-2.1,0.7-3.2,1.1c-0.1-0.3-0.2-0.6-0.3-0.9c1.9-0.7,3.7-1.4,5.6-2c6.9-2.5,13.7-5,20.6-7.5c0.5-0.2,1.2-0.4,1.3-0.7
		c0.7-2.2,2.2-1.6,3.8-1.1c-0.8,1.1,0.5,3.4-2.3,3.4c-0.5-1.4-1.5-1.1-2.8-0.8c-2.6,0.7-4.2,2.4-5.9,4.2c-0.1,0.1,0.1,0.6,0.2,0.9
		c-2.5,1-5.1,1.9-7.6,2.9C453.8,45.1,451.7,45.9,449.2,46.8z M479.8,18.6c-1.7,3.9-3.3,7.9-4.9,11.5c2.6-0.8,5.8-1.7,8.9-2.7
		c0.5-0.2,1.1-0.9,1.1-1.4c0.2-4,0.4-8.1,0.5-12C481.9,13.8,480.8,16.1,479.8,18.6z M448.6,47.3c-1.8,0.5-3.5,1.1-5.9,1.8
		c1.1,1.4,1.8,3.2,2.7,3.3c1.4,0.1,3-0.9,4.5-1.5C449.3,49.4,449,48.5,448.6,47.3z M449.7,43.7c0.1,0.2,0.2,0.5,0.3,0.7
		c3.7,1.2,5.6-2.4,8.3-3.9C455.4,41.7,452.6,42.7,449.7,43.7z"/>
	<path fill="#FFFFFF" d="M485.4,29.6c0,0.2,0.1,0.4,0,0.5c-9,7.7-18.9,13.9-30.4,17.2c-0.5,0.1-1.1,0-1.7,0c0-0.2-0.1-0.5-0.1-0.7
		c2.1-0.8,4.3-1.5,6.4-2.3c1.7-0.7,3.4-1.5,5.2-2.3c-0.3-0.2-0.7-0.4-1-0.5c-0.1-0.3-0.3-0.8-0.2-0.9c1.7-1.7,3.3-3.5,5.9-4.2
		c1.3-0.3,2.3-0.6,2.8,0.8c2.8-0.1,1.5-2.3,2.3-3.4c-1.7-0.6-3.1-1.1-3.8,1.1c-0.1,0.3-0.8,0.5-1.3,0.7c-6.9,2.5-13.7,5-20.6,7.5
		c-1.9,0.7-3.7,1.4-5.6,2c0.1,0.3,0.2,0.6,0.3,0.9c1.1-0.4,2.1-0.8,3.2-1.1c0.5-0.1,1,0,1.5,0c-0.4,0.4-0.7,0.9-1.1,1.2
		c-0.4,0.3-1,0.3-1.4,0.6c-1.5,1.3-4.2,1.9-2.7,4.8c-6,3-15.2,5.2-19.1,3.3c0.2-2.5,2.4-2.4,4.2-3.1c-0.7-0.5-1.1-0.9-2-1.6
		c3.4-1.7,6.3-3.4,9.5-4.6c13.6-5,27.2-9.7,40.9-14.6c1.5-0.6,2.8-0.9,4.2,0.2C482.3,30.5,483.8,30.1,485.4,29.6z M433.4,48.9
		c0.1,0.1,0.1,0.3,0.2,0.4c2.9-1.1,5.9-2.1,8.8-3.2c-0.1-0.1-0.1-0.3-0.2-0.4C439.3,46.8,436.3,47.9,433.4,48.9z M433,51.5
		c-0.3-1.1-0.5-2.1-0.8-3.2c-2.5,0.4-2.6,0.5-1.1,3.8C431.8,52,432.3,51.8,433,51.5z"/>
	<path fill="#FFFFFF" d="M485.5,14c-3.6-0.3-4.7,2.1-5.7,4.5c-1.7,3.9-3.3,7.9-4.9,11.5c2.6-0.8,5.8-1.7,8.9-2.7
		c0.5-0.2,1.1-0.9,1.1-1.4C485.2,22,485.4,17.9,485.5,14z"/>
	<path fill="#FFFFFF" d="M449.9,50.9c-0.5-1.5-0.9-2.4-1.3-3.6c-1.8,0.5-3.5,1.1-5.9,1.8c1.1,1.4,1.8,3.2,2.7,3.3
		C446.8,52.5,448.3,51.5,449.9,50.9z"/>
	<path fill="#FFFFFF" d="M458.3,40.6c-2.9,1-5.7,2.1-8.6,3.1c0.1,0.2,0.2,0.5,0.3,0.7C453.7,45.7,455.6,42.1,458.3,40.6z"/>
	<path fill="#FFFFFF" d="M480.7,31c1.5-0.4,3.1-0.9,4.6-1.3c0.6-0.5,1.2-1.1,1.8-1.6c0-0.1-0.1-0.2-0.1-0.3
		c-0.7,0.2-1.5,0.4-2.5,0.8c0.4-0.4,0.6-0.6,1.1-1.1c-1.8,0.7-3.3,1.2-5.4,2c1.3,0,2.1-0.1,3-0.1C482.2,29.9,481.5,30.4,480.7,31z"
		/>
	<path fill="#FFFFFF" d="M464.7,42c-0.3-0.2-0.7-0.4-1-0.5c-2.5,1-5.1,1.9-7.6,2.9l0,0c0.7,0,1.4,0.2,2,0
		C460.2,43.6,462.5,42.8,464.7,42z"/>
	<path fill="#FFFFFF" d="M456,44.3c-2.2,0.8-4.3,1.6-6.8,2.5C452.1,47,454.1,45.8,456,44.3C456,44.3,456,44.3,456,44.3z"/>
	<path d="M442.2,45.7c-2.9,1.1-5.9,2.1-8.8,3.2c0.1,0.1,0.1,0.3,0.2,0.4c2.9-1.1,5.9-2.1,8.8-3.2C442.3,46,442.2,45.9,442.2,45.7z"
		/>
	<path d="M431.1,52.2c0.7-0.2,1.2-0.4,1.9-0.7c-0.3-1.1-0.5-2.1-0.8-3.2C429.7,48.8,429.6,48.9,431.1,52.2z"/>
</g>
<g id="CPA">
	<g id="title_7_">
		<rect x="242.5" y="29.1" fill="none" width="39.3" height="16"/>
		<path fill="#FF0000" d="M256.5,34.5l1.7,0.5c-0.3,0.9-0.7,1.6-1.3,2.1s-1.4,0.7-2.3,0.7c-1.1,0-2.1-0.4-2.8-1.2s-1.1-1.8-1.1-3.2
			c0-1.4,0.4-2.5,1.1-3.3s1.7-1.2,2.9-1.2c1.1,0,1.9,0.3,2.6,0.9c0.4,0.4,0.7,0.9,0.9,1.6l-1.7,0.4c-0.1-0.4-0.3-0.8-0.6-1.1
			s-0.7-0.4-1.2-0.4c-0.6,0-1.2,0.2-1.5,0.7s-0.6,1.2-0.6,2.2c0,1.1,0.2,1.9,0.6,2.3s0.9,0.7,1.5,0.7c0.5,0,0.9-0.1,1.2-0.4
			S256.3,35.1,256.5,34.5z"/>
		<path fill="#FF0000" d="M259.7,37.6v-8.6h2.8c1.1,0,1.7,0,2.1,0.1c0.5,0.1,0.9,0.4,1.2,0.8s0.5,1,0.5,1.7c0,0.5-0.1,1-0.3,1.3
			s-0.4,0.6-0.7,0.8s-0.6,0.3-0.9,0.4c-0.4,0.1-1,0.1-1.8,0.1h-1.1v3.2H259.7z M261.4,30.5V33h0.9c0.7,0,1.1,0,1.4-0.1
			s0.4-0.2,0.5-0.4s0.2-0.4,0.2-0.7c0-0.3-0.1-0.6-0.3-0.8s-0.4-0.3-0.7-0.4c-0.2,0-0.6-0.1-1.2-0.1H261.4z"/>
		<path fill="#FF0000" d="M274.5,37.6h-1.9l-0.8-2h-3.4l-0.7,2h-1.8l3.3-8.6h1.8L274.5,37.6z M271.3,34.3l-1.2-3.2l-1.2,3.2H271.3z"
			/>
	</g>
	<g>
		<line fill="#FF7BAC" x1="261" y1="44" x2="261" y2="183"/>
		<g>
			<line fill="none" stroke="#FF0000" stroke-width="3" stroke-miterlimit="10" x1="261.5" y1="44" x2="261.5" y2="46"/>
			
				<line fill="none" stroke="#FF0000" stroke-width="3" stroke-miterlimit="10" stroke-dasharray="3,3" x1="261.5" y1="49" x2="261.5" y2="180"/>
			<line fill="none" stroke="#FF0000" stroke-width="3" stroke-miterlimit="10" x1="261.5" y1="182" x2="261.5" y2="183"/>
		</g>
	</g>
</g>
<g id="arrow1">
	<g>
		<line fill="none" stroke="#C9C7C9" stroke-width="2" stroke-miterlimit="10" x1="108" y1="100" x2="114" y2="100"/>
		
			<line fill="none" stroke="#C9C7C9" stroke-width="2" stroke-miterlimit="10" stroke-dasharray="11,11" x1="125" y1="100" x2="231" y2="100"/>
		<line fill="none" stroke="#C9C7C9" stroke-width="2" stroke-miterlimit="10" x1="237" y1="100" x2="243" y2="100"/>
		<g>
			<polygon fill="#C9C7C9" points="257,100 237.1,108.1 241.8,100 237.1,91.9 			"/>
		</g>
	</g>
</g>
<g id="arrow2">
	<g>
		<line fill="none" stroke="#C9C7C9" stroke-width="2" stroke-miterlimit="10" x1="278.6" y1="96.3" x2="284.4" y2="94.7"/>
		
			<line fill="none" stroke="#C9C7C9" stroke-width="2" stroke-miterlimit="10" stroke-dasharray="12.049,12.049" x1="296" y1="91.5" x2="406.4" y2="61.2"/>
		<line fill="none" stroke="#C9C7C9" stroke-width="2" stroke-miterlimit="10" x1="412.2" y1="59.6" x2="418" y2="58"/>
		<g>
			<polygon fill="#C9C7C9" points="265,100 286.3,102.6 279.6,96 282,86.9 			"/>
		</g>
	</g>
</g>
<g id="arrow4">
	<g>
		<path fill="none" stroke="#00FF18" stroke-width="2" stroke-miterlimit="10" d="M212.1,83.3c1.9,0,3.9,0,6,0"/>
		<path fill="none" stroke="#00FF18" stroke-width="2" stroke-miterlimit="10" stroke-dasharray="11.5935,11.5935" d="M229.7,83.2
			c14.5-0.1,29.6-0.4,37.3-0.2c78.6,2,104.3-10.1,139.7-21.5"/>
		<path fill="none" stroke="#00FF18" stroke-width="2" stroke-miterlimit="10" d="M412.3,59.7c1.9-0.6,3.8-1.2,5.7-1.7"/>
		<g>
			<polygon fill="#00FF18" points="198,83 217.7,91.5 213.2,83.3 218,75.2 			"/>
		</g>
	</g>
</g>
<g id="arrow3">
	<g>
		<path fill="none" stroke="#00FF18" stroke-width="2" stroke-miterlimit="10" d="M108,100c2,0,4,0,6,0.1"/>
		<path fill="none" stroke="#00FF18" stroke-width="2" stroke-miterlimit="10" stroke-dasharray="11.995,11.995" d="M126,100.6
			c26.7,2,46.9,8.4,61,14.4c28.5,12,37.9,24.6,64,33c17.5,5.7,35,8,49.9,8.8"/>
		<path fill="none" stroke="#00FF18" stroke-width="2" stroke-miterlimit="10" d="M306.9,157.1c2.1,0.1,4.1,0.1,6,0.1"/>
		<g>
			<polygon fill="#00FF18" points="327,157 307.2,165.4 311.8,157.2 307,149.1 			"/>
		</g>
	</g>
</g>
<g id="buttonNext">
	<path fill="#D6D6D6" d="M481.6,240h-54.8c-3.2,0-5.8-2.6-5.8-5.8v-8.9c0-3.2,2.6-5.8,5.8-5.8h54.8c3.2,0,5.8,2.6,5.8,5.8v8.9
		C487.4,237.4,484.8,240,481.6,240z"/>
	<g>
		<rect x="425" y="224.2" fill="none" width="35" height="15"/>
		<path fill="#0071BC" d="M430.7,234.2v-10h2l4.1,6.7v-6.7h1.9v10h-2l-4-6.5v6.5H430.7z"/>
		<path fill="#0071BC" d="M445,231.9l1.9,0.3c-0.2,0.7-0.6,1.2-1.2,1.6c-0.5,0.4-1.2,0.6-2,0.6c-1.3,0-2.2-0.4-2.8-1.2
			c-0.5-0.7-0.7-1.5-0.7-2.5c0-1.2,0.3-2.1,0.9-2.8c0.6-0.7,1.4-1,2.4-1c1.1,0,1.9,0.4,2.6,1.1c0.6,0.7,0.9,1.8,0.9,3.3h-4.8
			c0,0.6,0.2,1,0.5,1.3c0.3,0.3,0.7,0.5,1.1,0.5c0.3,0,0.6-0.1,0.8-0.2S444.9,232.2,445,231.9z M445.1,229.9c0-0.6-0.2-1-0.4-1.3
			c-0.3-0.3-0.6-0.4-1-0.4c-0.4,0-0.8,0.2-1,0.5c-0.3,0.3-0.4,0.7-0.4,1.2H445.1z"/>
		<path fill="#0071BC" d="M447.6,234.2l2.6-3.7l-2.5-3.5h2.3l1.3,2l1.4-2h2.3l-2.5,3.4l2.7,3.8h-2.4l-1.5-2.2l-1.5,2.2H447.6z"/>
		<path fill="#0071BC" d="M459.7,226.9v1.5h-1.3v2.9c0,0.6,0,0.9,0,1c0,0.1,0.1,0.2,0.2,0.2c0.1,0.1,0.2,0.1,0.3,0.1
			c0.2,0,0.4-0.1,0.8-0.2l0.2,1.5c-0.4,0.2-1,0.3-1.5,0.3c-0.3,0-0.7-0.1-0.9-0.2s-0.5-0.3-0.6-0.5c-0.1-0.2-0.2-0.4-0.3-0.7
			c0-0.2-0.1-0.7-0.1-1.4v-3.2h-0.9v-1.5h0.9v-1.4l1.9-1.1v2.6H459.7z"/>
	</g>
	<g>
		<g>
			<polygon fill="#0071BC" points="470.2,223.7 479.7,229.2 470.2,234.6 			"/>
		</g>
	</g>
</g>
<g id="buttonReplay">
	<path fill="#D6D6D6" d="M481.6,240h-68.8c-3.2,0-5.8-2.6-5.8-5.8v-8.9c0-3.2,2.6-5.8,5.8-5.8h68.8c3.2,0,5.8,2.6,5.8,5.8v8.9
		C487.4,237.4,484.8,240,481.6,240z"/>
	<g>
		<rect x="409.5" y="224.2" fill="none" width="50.5" height="15"/>
		<path fill="#0071BC" d="M415.1,234.2v-10h4.3c1.1,0,1.8,0.1,2.3,0.3c0.5,0.2,0.9,0.5,1.2,1c0.3,0.5,0.4,1,0.4,1.6
			c0,0.8-0.2,1.4-0.7,1.9c-0.4,0.5-1.1,0.8-2,0.9c0.4,0.3,0.8,0.5,1.1,0.8c0.3,0.3,0.7,0.8,1.2,1.6l1.2,2h-2.4l-1.5-2.2
			c-0.5-0.8-0.9-1.3-1.1-1.5c-0.2-0.2-0.4-0.3-0.6-0.4s-0.6-0.1-1-0.1h-0.4v4.2H415.1z M417.1,228.4h1.5c1,0,1.6,0,1.8-0.1
			s0.4-0.2,0.6-0.4c0.1-0.2,0.2-0.5,0.2-0.8c0-0.3-0.1-0.6-0.3-0.8c-0.2-0.2-0.4-0.3-0.8-0.4c-0.2,0-0.7,0-1.5,0h-1.6V228.4z"/>
		<path fill="#0071BC" d="M429.4,231.9l1.9,0.3c-0.2,0.7-0.6,1.2-1.2,1.6c-0.5,0.4-1.2,0.6-2,0.6c-1.3,0-2.2-0.4-2.8-1.2
			c-0.5-0.7-0.7-1.5-0.7-2.5c0-1.2,0.3-2.1,0.9-2.8c0.6-0.7,1.4-1,2.4-1c1.1,0,1.9,0.4,2.6,1.1c0.6,0.7,0.9,1.8,0.9,3.3h-4.8
			c0,0.6,0.2,1,0.5,1.3c0.3,0.3,0.7,0.5,1.1,0.5c0.3,0,0.6-0.1,0.8-0.2S429.3,232.2,429.4,231.9z M429.5,229.9c0-0.6-0.2-1-0.4-1.3
			c-0.3-0.3-0.6-0.4-1-0.4c-0.4,0-0.8,0.2-1,0.5c-0.3,0.3-0.4,0.7-0.4,1.2H429.5z"/>
		<path fill="#0071BC" d="M432.9,226.9h1.8v1.1c0.2-0.4,0.5-0.7,0.9-0.9c0.4-0.2,0.8-0.3,1.3-0.3c0.8,0,1.6,0.3,2.1,1
			c0.6,0.7,0.9,1.6,0.9,2.8c0,1.2-0.3,2.2-0.9,2.8c-0.6,0.7-1.3,1-2.2,1c-0.4,0-0.8-0.1-1.1-0.2c-0.3-0.2-0.7-0.4-1-0.8v3.7h-1.9
			V226.9z M434.8,230.4c0,0.8,0.2,1.4,0.5,1.8s0.7,0.6,1.2,0.6c0.4,0,0.8-0.2,1.1-0.5c0.3-0.4,0.4-0.9,0.4-1.8
			c0-0.8-0.2-1.3-0.5-1.7s-0.7-0.6-1.1-0.6c-0.5,0-0.9,0.2-1.2,0.5S434.8,229.7,434.8,230.4z"/>
		<path fill="#0071BC" d="M441.5,234.2v-10h1.9v10H441.5z"/>
		<path fill="#0071BC" d="M446.9,229.1l-1.7-0.3c0.2-0.7,0.5-1.2,1-1.6c0.5-0.3,1.2-0.5,2.1-0.5c0.9,0,1.5,0.1,1.9,0.3
			c0.4,0.2,0.7,0.5,0.9,0.8c0.2,0.3,0.3,0.9,0.3,1.7l0,2.2c0,0.6,0,1.1,0.1,1.4c0.1,0.3,0.2,0.6,0.3,1h-1.9c0-0.1-0.1-0.3-0.2-0.6
			c0-0.1-0.1-0.2-0.1-0.2c-0.3,0.3-0.7,0.6-1.1,0.7c-0.4,0.2-0.8,0.2-1.2,0.2c-0.7,0-1.3-0.2-1.8-0.6c-0.4-0.4-0.6-0.9-0.6-1.5
			c0-0.4,0.1-0.8,0.3-1.1s0.5-0.6,0.8-0.7c0.4-0.2,0.9-0.3,1.5-0.4c0.9-0.2,1.5-0.3,1.9-0.5v-0.2c0-0.4-0.1-0.6-0.3-0.8
			s-0.5-0.2-1-0.2c-0.3,0-0.6,0.1-0.8,0.2C447.1,228.6,447,228.8,446.9,229.1z M449.4,230.7c-0.2,0.1-0.6,0.2-1.2,0.3
			c-0.5,0.1-0.9,0.2-1,0.3c-0.3,0.2-0.4,0.4-0.4,0.7c0,0.3,0.1,0.5,0.3,0.7c0.2,0.2,0.5,0.3,0.8,0.3c0.3,0,0.7-0.1,1-0.3
			c0.2-0.2,0.4-0.4,0.5-0.6c0-0.2,0.1-0.5,0.1-0.9V230.7z"/>
		<path fill="#0071BC" d="M452.3,226.9h2l1.7,5.2l1.7-5.2h2l-2.6,7l-0.5,1.3c-0.2,0.4-0.3,0.7-0.5,1c-0.2,0.2-0.3,0.4-0.5,0.5
			c-0.2,0.1-0.4,0.2-0.7,0.3c-0.3,0.1-0.6,0.1-1,0.1c-0.4,0-0.7,0-1.1-0.1l-0.2-1.5c0.3,0.1,0.6,0.1,0.8,0.1c0.4,0,0.8-0.1,1-0.4
			c0.2-0.3,0.4-0.6,0.5-1L452.3,226.9z"/>
	</g>
	<g>
		<g>
			<polygon fill="#0071BC" points="479.7,223.7 470.2,229.2 479.7,234.6 			"/>
		</g>
	</g>
</g>
<g>
</g>
<g>
</g>
<g>
</g>
<g>
</g>
<g>
</g>
<g>
</g>
<g>
</g>
<g>
</g>
<g>
</g>
<g>
</g>
<g>
</g>
<g>
</g>
<g>
</g>
<g>
</g>
<g>
</g>
<g>
</g>
<g>
</g>
<g>
</g>
<g>
</g>
<g>
</g>
</svg>
