<?xml version="1.0" encoding="utf-8"?>
<!-- Generator: Adobe Illustrator 18.1.0, SVG Export Plug-In . SVG Version: 6.00 Build 0)  -->
<svg version="1.1" id="Layer_1" xmlns="http://www.w3.org/2000/svg" xmlns:xlink="http://www.w3.org/1999/xlink" x="0px" y="0px"
	 width="500px" height="250px" viewBox="0 0 500 250" style="enable-background:new 0 0 500 250;" xml:space="preserve">
<g id="ec-ACSA-acft-side">
	<path d="M181,97c4.9,5.1,9.9,10.2,14.7,15.3c7.8,8.2,16,14.4,28.6,13.9c22.6-0.8,45.3,0,67.9-0.3c15.2-0.2,30.1-0.2,42.8,10.1
		c0,2,0,4,0,6c-10.4,6.8-22,9.3-34.3,9c-5.3-0.1-10.8-1-14.7,4c-3.7,0-7.3,0-11,0c-5.1-1.3-10.2-3.4-15.4-3.9
		c-13-1.1-26.3-0.2-39.1-2.5c-18.4-3.3-36.5-8.6-53.5-16.7c0-1.3,0-2.7,0-4c3.3-0.8,6.6-1.5,10.4-2.4c-3.6-8.1-7-15.8-10.4-23.6
		c0-1.7,0-3.3,0-5C171.7,97,176.3,97,181,97z M256.1,142.3c-6.1-0.1-12.2-0.2-18.3-0.2c-0.1-0.7,0-1.9-0.4-2
		c-4.9-2.4-9.7-4.9-15.6-4.3c-3.1,0.3-5.4,0.4-5.4,3.8c-6,2.1-4.9-3.7-7.5-5.5c3.1-2.5,5.7-4.8,8.9-0.7c0.5,0.6,2.2,0.5,3.3,0.5
		c16.4,0,32.8,0.1,49.2,0.1c4.4,0,8.9,0,13.3,0c0,0.7,0,1.4,0,2.1c-2.5,0-5.1-0.1-7.6,0.1c-1.1,0.1-2.1,0.8-3.2,1.3
		c1.1,0.6,2.2,1.4,3.3,1.8c1.1,0.3,2.4-0.1,3.5,0.2c4.1,1.5,10.3,0.8,9.3,8c14.9,1.8,36.2-0.6,42.7-7.7c-2.2-5.1-6.8-3.3-11.3-3.3
		c1-1.6,1.7-2.7,3-4.8c-8.5-0.9-16-2.4-23.6-2.4c-32.5,0-64.9,0.4-97.4,0.5c-3.6,0-6.7,0.4-8.8,3.6c-2-0.5-4-1.1-6.5-1.8
		c2-0.7,3.6-1.2,6.4-2.1c-4.9,0-8.5,0-12.9,0c1.4,0.7,2.1,1,3.2,1.5c-2.4,0.1-4.1,0.2-5.8,0.3c0,0.2-0.1,0.5-0.1,0.7
		c1.6,0.7,3.3,1.3,4.9,2c0.2,0.4,0.2,1,0.5,1.1c24.9,9.4,50.5,14.7,77.2,12.9c1.2-0.1,2.3-0.8,3.5-1.3c-0.1-0.5-0.2-1-0.3-1.6
		c-5.1,0-10.2,0.1-15.2,0c-4.2-0.1-8.4-0.6-12.6-0.8c5.3-0.1,10.6,0,15.9-0.3C253.3,143.7,254.7,142.8,256.1,142.3
		c5.1,1.7,10.3,2.7,16.3,0C266.4,142.3,261.3,142.3,256.1,142.3z M170.6,101c3.3,8.1,6.7,16.6,10.3,24.9c0.4,1,2.3,2,3.5,2
		c7.4-0.2,14.9-0.8,20.9-1.1c-6-6.5-12.6-13.5-19.1-20.6C182.1,101.9,178,97.7,170.6,101z M274.1,151.5c3.8,0,7.7,0.9,10.7-0.4
		c1.8-0.8,1.9-5.1,3.2-8.9c-5.6,0.3-9.6,0.5-13.9,0.8C274.1,145.7,274.1,148,274.1,151.5z M248.5,136.3c6.8,1,13.6,7.2,20.5,1.8
		c0-0.6,0-1.2,0-1.8C262.2,136.3,255.3,136.3,248.5,136.3z"/>
	<path style="fill:#FFFFFF;" d="M193.7,133.1c2.1-3.2,5.1-3.6,8.8-3.6c32.5-0.1,64.9-0.6,97.4-0.5c7.6,0,15.1,1.5,23.6,2.4
		c-1.3,2.1-2,3.2-3,4.8c4.4,0.1,9-1.8,11.3,3.3c-6.6,7.1-27.8,9.5-42.7,7.7c1-7.2-5.2-6.5-9.3-8c-1-0.4-2.4,0.1-3.5-0.2
		c-1.2-0.3-2.2-1.2-3.3-1.8c1.1-0.4,2.1-1.2,3.2-1.3c2.5-0.2,5.1-0.1,7.6-0.1c0-0.7,0-1.4,0-2.1c-4.4,0-8.9,0-13.3,0
		c-16.4,0-32.8,0-49.2-0.1c-1.1,0-2.8,0.1-3.3-0.5c-3.2-4.1-5.8-1.7-8.9,0.7c2.6,1.7,1.5,7.5,7.5,5.5c0-3.4,2.3-3.5,5.4-3.8
		c5.9-0.6,10.7,1.9,15.6,4.3c0.4,0.2,0.2,1.3,0.4,2c-0.6,0.6-1.2,1.3-1.8,1.9c4.2,0.3,8.4,0.7,12.6,0.8c5.1,0.1,10.1,0,15.2,0
		c0.1,0.5,0.2,1,0.3,1.6c-1.2,0.4-2.3,1.2-3.5,1.3c-26.8,1.9-52.3-3.5-77.2-12.9c-0.3-0.1-0.3-0.7-0.5-1.1
		C186.5,133.6,190.1,133.4,193.7,133.1z M286.3,134.7c0,0.3,0,0.7,0,1c7,0,14,0,21,0c0-0.3,0-0.7,0-1
		C300.3,134.7,293.3,134.7,286.3,134.7z M314.7,139.8c0.6-8.1,0.4-8.3-5.3-7.3c0.3,2.4,0.6,4.8,0.8,7.3
		C311.8,139.8,313.1,139.8,314.7,139.8z"/>
	<path style="fill:#FFFFFF;" d="M170.6,101c7.4-3.3,11.5,0.8,15.5,5.2c6.5,7.1,13.1,14.1,19.1,20.6c-6,0.4-13.4,0.9-20.9,1.1
		c-1.2,0-3-1-3.5-2C177.3,117.6,174,109.2,170.6,101z"/>
	<path style="fill:#FFFFFF;" d="M274.1,151.5c0-3.5,0-5.8,0-8.5c4.2-0.2,8.3-0.5,13.9-0.8c-1.2,3.8-1.4,8.1-3.2,8.9
		C281.9,152.5,277.9,151.5,274.1,151.5z"/>
	<path style="fill:#FFFFFF;" d="M248.5,136.3c6.8,0,13.7,0,20.5,0c0,0.6,0,1.2,0,1.8C262.1,143.5,255.3,137.2,248.5,136.3z"/>
	<path style="fill:#FFFFFF;" d="M193.7,133.1c-3.6,0.2-7.2,0.5-10.8,0.7c-1.6-0.7-3.3-1.3-4.9-2c0-0.2,0.1-0.5,0.1-0.7
		c1.7-0.1,3.5-0.2,5.8-0.3c-1.1-0.5-1.8-0.9-3.2-1.5c4.4,0,8,0,12.9,0c-2.8,0.9-4.4,1.4-6.4,2.1C189.7,132,191.7,132.6,193.7,133.1z
		"/>
	<path style="fill:#FFFFFF;" d="M236,144c0.6-0.6,1.2-1.3,1.8-1.9c6.1,0.1,12.2,0.2,18.3,0.2c0,0,0,0,0,0c-1.4,0.5-2.8,1.4-4.2,1.5
		C246.6,144,241.3,144,236,144z"/>
	<path style="fill:#FFFFFF;" d="M256.1,142.3c5.2,0,10.3,0,16.3,0C266.4,145,261.3,144,256.1,142.3
		C256.1,142.3,256.1,142.3,256.1,142.3z"/>
	<path d="M286.3,134.7c7,0,14,0,21,0c0,0.3,0,0.7,0,1c-7,0-14,0-21,0C286.3,135.3,286.3,135,286.3,134.7z"/>
	<path d="M314.7,139.8c-1.6,0-2.9,0-4.4,0c-0.3-2.5-0.6-4.9-0.8-7.3C315.1,131.5,315.2,131.7,314.7,139.8z"/>
</g>
</svg>
