<?xml version="1.0" encoding="utf-8"?>
<!-- Generator: Adobe Illustrator 18.1.1, SVG Export Plug-In . SVG Version: 6.00 Build 0)  -->
<svg version="1.1" id="Layer_1" xmlns="http://www.w3.org/2000/svg" xmlns:xlink="http://www.w3.org/1999/xlink" x="0px" y="0px"
	 width="164px" height="155px" viewBox="0 0 164 155" style="enable-background:new 0 0 164 155;" xml:space="preserve">
<style type="text/css">
	.st0{fill:#FFFFFF;}
</style>
<g>
	<g>
		<path class="st0" d="M165,80c0,25.33,0,50.67,0,76c-31,0-62,0-93,0c0.68-1.09,1.39-2.15,2.03-3.26c2.72-4.75,5.34-9.56,8.13-14.26
			c5.84-9.81,11.77-19.57,17.78-29.55c1.41,0.09,3.31-0.3,4.64,0.4c4.03,2.12,8.28,1.58,12.39,1.67c0.83-0.37,1.62-0.62,2.28-1.05
			c0.67-0.43,1.22-1.05,1.74-1.51c0-2.03,0-3.86,0-6.04c-0.73-0.78-1.62-1.74-2.34-2.51c-4.82,0.38-9.21-0.43-14.15,0.72
			c2.26-3.61,4.29-6.84,6.26-9.98c1.15-0.59,2.15-1.11,2.98-1.54c9.56-0.58,19.01,0.81,28.35-1.09c4.55-0.92,9.23-1.32,13.5-3.25
			C158.8,83.32,161.87,81.6,165,80z"/>
		<path class="st0" d="M1,77C1,51.67,1,26.33,1,1c20.33,0,40.67,0,61,0c-0.78,1.93,1.52,1.77,1.96,2.86
			c1.78,4.44,3.56,8.87,5.3,13.2c-1.01,0.78-1.69,1.31-2.88,2.23c1.6,0.51,2.6,0.83,3.94,1.26c1.08,2.57,2.25,5.34,3.34,7.95
			c-0.88,0.66-1.74,1.29-2.7,2.01c1.41,0.68,2.56,1.24,3.89,1.88c1.04,2.52,2.14,5.17,3.22,7.77c-1.1,0.83-2.05,1.55-2.89,2.19
			c0.99,2.31,3.04,1.27,4.35,1.82c1.98,3.98,1.45,8.1,1.43,12.35c-0.97,0.79-2.03,1.64-3.49,2.83c1.54,0.48,2.54,0.8,3.68,1.15
			c-0.46,2.56,0.31,5.06-0.52,7.49c-4.38,0-8.54,0-12.7,0c-3.16,0-6.54-0.7-9.44,0.17c-4.95,1.48-10.01,0.41-14.96,1.69
			c-4.8,1.24-9.9,1.3-15.5,1.95c-5.52-7.36-11.37-15.14-16.94-22.57c-3.37,0-6.13,0-9.4,0c2.69,8.87,6.15,17.05,9.17,25.85
			C7.57,75.72,4.29,76.36,1,77z"/>
		<path class="st0" d="M72,1c31,0,62,0,93,0c0,25.33,0,50.67,0,76c-2.56-1.66-4.92-4.04-7.73-4.84c-7.38-2.09-14.75-4.54-22.64-4.21
			c-5.13,0.22-10.29,0.03-15.43,0.05c-2.76,0.01-5.53,0.17-8.16-0.95l-0.1-0.1c-0.7-1.2-1.49-2.35-2.07-3.61
			c-1.16-2.52-3.32-4.5-3.89-7.33l0.03-0.03c4.17,0.6,8.35,1.19,12.74,1.82c0.33-0.49,0.77-1.12,1.21-1.76c0,0,0.08-0.08,0.08-0.08
			c0.65-0.45,1.29-0.91,1.9-1.33c0-2.14,0-4.12,0-6.28c-0.75-0.76-1.56-1.59-1.91-1.95c-6.71-1.23-12.58,0.07-18.49,1.98
			c-1-1.46-1.89-2.61-2.61-3.85c-1.78-3.06-3.42-6.2-5.23-9.24c-4.19-7.06-8.43-14.08-12.67-21.11C77.36,9.77,74.67,5.39,72,1z"/>
		<path class="st0" d="M62,156c-20.33,0-40.67,0-61,0c0-16.33,0-32.67,0-49c3.15,0,6.3,0,9.45,0c2.79-2.61,5.32-5.31,6.61-8.95
			c2.93-1.67,4.07-4.81,5.93-7.34c0.81-1.11,2.43-1.86,2.07-3.66c0.33-0.33,0.66-0.66,0.99-1c0.91-0.68,1.81-1.35,2.61-1.95
			c3.07,0.65,6.01,1.48,9,1.85c4.96,0.6,9.91,1.33,14.86,1.91c7.32,0.86,14.74,0.8,22.12,1.15c2.09,0.1,4.24-0.33,6.27,0.32
			c0,2.56,0,4.86,0,6.98c-0.64,1.34-3.11-0.25-2.79,2.32c0.81,0.22,1.71,0.45,2.89,0.77c-0.23,4.49,0.74,9.08-1.5,13.43
			c-1.43,0.45-3.43-0.47-4.25,1.63c0.93,0.7,1.89,1.42,2.79,2.11c-1.2,2.89-2.3,5.53-3.33,8.01c-1.3,0.52-2.46,0.99-3.82,1.53
			c0.91,1.16,1.57,2.01,2.35,3.01c-1.01,2.57-1.99,5.07-2.87,7.3c-1.46,0.47-2.44,0.79-3.98,1.28c1.24,1.04,2,1.67,2.81,2.34
			c-0.49,1.29-0.83,2.35-1.28,3.36c-0.9,2.05-2.41,4.01-2.66,6.12c-0.31,2.62-2.43,3.88-3.27,5.98C61.95,155.65,62,155.83,62,156z"
			/>
		<path d="M62,156c0-0.17-0.05-0.35,0.01-0.5c0.84-2.1,2.96-3.36,3.27-5.98c0.25-2.11,1.76-4.07,2.66-6.12
			c0.45-1.02,0.8-2.08,1.28-3.36c-0.81-0.67-1.57-1.31-2.81-2.34c1.54-0.5,2.52-0.81,3.98-1.28c0.87-2.22,1.86-4.72,2.87-7.3
			c-0.78-1-1.45-1.85-2.35-3.01c1.36-0.55,2.52-1.01,3.82-1.53c1.03-2.47,2.13-5.12,3.33-8.01c-0.91-0.68-1.87-1.41-2.79-2.11
			c0.82-2.09,2.82-1.18,4.25-1.63c2.24-4.36,1.27-8.94,1.5-13.43c-1.18-0.31-2.08-0.55-2.89-0.77c-0.32-2.57,2.16-0.98,2.79-2.32
			c0-2.12,0-4.42,0-6.98c-2.03-0.65-4.17-0.22-6.27-0.32c-7.38-0.35-14.8-0.29-22.12-1.15c-4.95-0.58-9.9-1.31-14.86-1.91
			c-2.99-0.36-5.93-1.2-9-1.85c-0.8,0.6-1.71,1.27-2.61,1.95c0,0-0.12-0.12-0.12-0.12c0-0.49,0-0.98,0-1.99
			c-3.1,0.93-5.7-2.32-9.04-0.39c-3.23,6.99-6.52,14.11-9.79,21.17c0.73,0.56,1.09,0.84,1.84,1.41c1.38-1.52,2.7-3.05,4.11-4.49
			c1.25-1.28,2.58-2.48,3.88-3.71l0.13,0.12c-1.28,3.64-3.82,6.34-6.61,8.95c-3.16,0-6.31,0-9.45,0c0-0.67,0-1.33,0-2
			c0.61-0.5,1.56-0.87,1.79-1.51c2.67-7.38,5.23-14.8,7.88-22.39C7.49,80.41,4.24,79.7,1,79c0-0.67,0-1.33,0-2
			c3.29-0.64,6.57-1.28,9.84-1.91c-3.02-8.8-6.48-16.99-9.17-25.85c3.27,0,6.03,0,9.4,0c5.57,7.42,11.42,15.21,16.94,22.57
			c5.6-0.65,10.7-0.72,15.5-1.95c4.96-1.28,10.02-0.22,14.96-1.69c2.91-0.87,6.28-0.16,9.44-0.17c4.16,0,8.32,0,12.7,0
			c0.83-2.43,0.06-4.92,0.52-7.49c-1.14-0.36-2.13-0.67-3.68-1.15c1.46-1.18,2.52-2.04,3.49-2.83c0.02-4.24,0.55-8.37-1.43-12.35
			c-1.31-0.55-3.36,0.49-4.35-1.82c0.84-0.64,1.79-1.36,2.89-2.19c-1.08-2.6-2.17-5.25-3.22-7.77c-1.32-0.64-2.48-1.2-3.89-1.88
			c0.96-0.71,1.82-1.35,2.7-2.01c-1.1-2.61-2.26-5.38-3.34-7.95c-1.34-0.43-2.34-0.75-3.94-1.26c1.19-0.92,1.87-1.45,2.88-2.23
			c-1.74-4.33-3.52-8.77-5.3-13.2C63.52,2.77,61.22,2.93,62,1c3.33,0,6.67,0,10,0c2.67,4.39,5.36,8.77,8.02,13.17
			c4.24,7.03,8.48,14.05,12.67,21.11c1.81,3.04,3.45,6.18,5.23,9.24c0.72,1.24,1.61,2.39,2.61,3.85c5.91-1.91,11.78-3.21,18.49-1.98
			c0.36,0.36,1.17,1.19,1.91,1.95c0,2.17,0,4.14,0,6.28c-0.61,0.43-1.25,0.88-1.9,1.33c-0.06-2.61-0.11-5.22-0.17-7.73
			c-4.5,0-8.6,0-12.67,0c-0.05,0.55-0.08,0.87-0.15,1.63c3.12,0.06,6.22,0.11,9.32,0.22c0.19,0.01,0.37,0.47,0.77,1.02
			c-0.56,0.62-1.19,1.3-1.86,2.04c-2.72,0-5.35,0-8.33,0c0.73,0.81,1.23,1.36,1.43,1.58c4.13,0.47,7.85,0.89,11.57,1.31
			c-0.44,0.64-0.88,1.27-1.21,1.76c-4.39-0.63-8.56-1.22-12.74-1.82c-0.18-0.27-0.36-0.54,0.06,0.08c-0.63-0.41-0.36-0.23-0.08-0.05
			c0.57,2.82,2.73,4.81,3.89,7.33c0.58,1.25,1.37,2.41,2.07,3.61c-1.79-1.06-3.61,0.38-5.52-0.08c-1.25-2.54-2.41-5.2-3.84-7.71
			c-3.27-5.73-6.75-11.34-9.99-17.09c-3.64-6.44-7-13.04-10.67-19.46c-3.75-6.57-7.73-13-11.69-19.63c-0.82,0.07-1.8,0.14-2.77,0.25
			c-0.13,0.01-0.23,0.22-0.67,0.67c1.14,2.9,2.36,5.98,3.41,8.64c1.54,0.82,2.66,1.42,3.33,1.77c2.53,5.49,4.67,10.66,7.27,15.58
			c1.27,2.41,5.73,12.7,5.99,15.64c-0.56,0.3-1.11,0.61-1.66,0.91c1.31,0.55,2.59,1.09,3.96,1.67c-0.5,0.75-0.77,1.16-1.16,1.73
			c0.61,1.84,1.43,3.7,1.58,5.9c0.13,1.89-1.34,3.98,0.36,5.75c-1.68,2.09-0.75,4.27-0.55,6.49c3.16,0,5.99,0.1,8.82-0.03
			c3.48-0.15,6.93-0.54,10.44-0.05c1.08,0.15,2.7,0.88,3.46-0.87c2.63,1.12,5.4,0.96,8.16,0.95c5.14-0.02,10.3,0.17,15.43-0.05
			c7.89-0.34,15.26,2.11,22.64,4.21c2.81,0.8,5.16,3.18,7.73,4.84c0,1,0,2,0,3c-3.13,1.6-6.2,3.32-9.4,4.77
			c-4.28,1.94-8.96,2.33-13.5,3.25c-9.35,1.89-18.8,0.5-28.35,1.09c-0.83,0.43-1.83,0.95-2.98,1.54c-1.96,3.13-3.99,6.37-6.26,9.98
			c4.94-1.15,9.33-0.35,14.15-0.72c0.72,0.77,1.61,1.72,2.34,2.51c0,2.18,0,4.01,0,6.04c-0.51,0.46-1.06,1.07-1.74,1.51
			c-0.67,0.43-1.45,0.68-2.28,1.05c-4.11-0.09-8.36,0.46-12.39-1.67c-1.33-0.7-3.23-0.31-4.64-0.4
			c-6.01,9.98-11.94,19.73-17.78,29.55c-2.8,4.7-5.42,9.51-8.13,14.26c-0.64,1.11-1.35,2.17-2.03,3.26C68.67,156,65.33,156,62,156z
			 M76.03,146.03c0.27-0.19,0.54-0.38,0.81-0.57c-0.1-0.1-0.2-0.2-0.3-0.3c-0.19,0.27-0.38,0.54-0.57,0.81
			c-0.27,0.19-0.54,0.37-0.8,0.56c0.1,0.1,0.2,0.2,0.31,0.3C75.66,146.57,75.84,146.3,76.03,146.03z M79.02,141.02
			c0.27-0.19,0.54-0.37-0.15,0.1c0.47-0.69,0.28-0.42,0.1-0.15c-0.27,0.18-0.54,0.37,0.14-0.1
			C78.65,141.57,78.84,141.3,79.02,141.02z M144,71C144.17,71.28,144.34,71.55,144,71C144.56,71.34,144.28,71.17,144,71
			C143.83,70.72,143.66,70.45,144,71C143.45,70.66,143.72,70.83,144,71z M74.97,9.03c0.19,0.27,0.37,0.54,0.56,0.81
			c0.1-0.1,0.2-0.2,0.31-0.3c-0.27-0.19-0.54-0.37-0.81-0.56c-0.19-0.27-0.38-0.54-0.56-0.81c-0.1,0.1-0.2,0.2-0.3,0.3
			C74.43,8.65,74.7,8.84,74.97,9.03z M82.01,117.01c1.12-0.38,1.36-0.94,0.09-2.18c-0.05,0.98-0.08,1.57-0.12,2.15
			c-0.27,0.18-0.55,0.36,0.07-0.05C81.66,117.56,81.83,117.29,82.01,117.01z M94,115c1.31-0.18,0.92-1.21,1-2
			c1.49-0.45,2.12-1.48,2-3c0.28-0.17,0.55-0.35-0.01,0.01c0.35-0.57,0.18-0.29,0.01-0.01c-1.49,0.45-2.12,1.48-2,3
			C93.69,113.18,94.08,114.21,94,115c-1.32,0.17-0.92,1.2-1.01,1.99c-1.49,0.45-2.11,1.48-2,3c-1.3,0.18-0.91,1.21-1,2
			c-1.3,0.18-0.91,1.21-1,2c-0.33,0.33-0.67,0.67-1,1c-1.29,0.19-0.91,1.21-1,2c-1.14,0.37-1.35,0.93-0.09,2.18
			c0.05-1,0.08-1.58,0.11-2.17c1.3-0.19,0.91-1.21,1-2c0.33-0.33,0.67-0.67,1-1c1.3-0.19,0.91-1.21,1-2c1.3-0.19,0.91-1.21,1-2
			c1.49-0.45,2.11-1.48,2-3C94.31,116.82,93.92,115.79,94,115z M97,47C97.17,47.28,97.34,47.56,97,47C97.56,47.34,97.28,47.17,97,47
			c-0.08-0.8,0.31-1.82-0.99-2.01c0.12-1.52-0.51-2.55-2-3c-0.08-0.79,0.31-1.82-1-2c-0.08-0.79,0.31-1.82-1-2
			c-0.33-0.33-0.67-0.67-1-1c-0.09-0.79,0.3-1.82-1-2c-0.09-0.79,0.3-1.82-1-2c-0.18-0.28-0.35-0.55,0.03,0.05
			c-0.6-0.39-0.32-0.21-0.05-0.03c0.09,0.79-0.3,1.82,1,2c0.09,0.79-0.3,1.82,1,2c0.33,0.33,0.67,0.67,1,1c0.09,0.79-0.31,1.82,1,2
			c0.09,0.79-0.31,1.82,1,2c-0.12,1.52,0.51,2.55,2,3C96.08,45.8,95.68,46.83,97,47z M86.99,30.01c0.18,0.28,0.35,0.55-0.04-0.06
			c0.61,0.39,0.33,0.22,0.06,0.04c-0.13-0.58-0.26-1.16-0.39-1.73c-0.22,0.12-0.45,0.23-0.67,0.35
			C86.29,29.07,86.64,29.54,86.99,30.01z M82.99,23.02c0.18,0.27,0.36,0.55-0.06-0.09c0.63,0.42,0.36,0.24,0.08,0.06
			c-0.09-0.79,0.28-1.81-1-2c-0.18-0.27-0.36-0.55,0.06,0.1c-0.64-0.43-0.37-0.24-0.09-0.06C82.08,21.8,81.71,22.82,82.99,23.02z
			 M82.02,136.02c1.27-0.2,0.9-1.22,1-2c1.11-0.38,1.36-0.94,0.09-2.17c-0.06,0.98-0.09,1.56-0.12,2.14c-1.28,0.19-0.9,1.22-1,2
			c-0.27,0.18-0.54,0.36,0.11-0.07C81.66,136.56,81.84,136.29,82.02,136.02z M78.98,16.02c0.18,0.27,0.37,0.54-0.1-0.14
			c0.68,0.46,0.41,0.28,0.14,0.1c-0.1-0.78,0.26-1.8-1-2c-0.18-0.27-0.37-0.54,0.11,0.16c-0.7-0.48-0.43-0.29-0.16-0.11
			C78.31,14.69,78.64,15.36,78.98,16.02z M101,103c-2.01,0.54-1.95,2.4-3.38,4.68C100.34,106.22,100.85,104.73,101,103
			c1.32-0.17,0.92-1.21,1-2c2.21-0.94,2.68-2.93,3-5c2.01-0.55,1.96-2.39,3.36-4.67c-2.7,1.45-3.21,2.94-3.36,4.67
			c-2.21,0.94-2.68,2.92-3,5C100.68,101.17,101.08,102.21,101,103z M105,61c0.14,1.73,0.66,3.22,2.51,3.86
			C106.96,63.39,107.01,61.54,105,61c-0.78-2.65-1.37-5.41-4-7c-0.85-3.07-0.85-3.07-3.06-4.36C99.1,51.01,98.7,53.37,101,54
			C101.78,56.65,102.37,59.41,105,61z M12,84c-0.27,0.15-0.71,0.23-0.79,0.45c-1.94,5.2-3.87,10.41-5.75,15.64
			c-0.54,1.51-0.93,3.07-1.39,4.61c1.05-0.45,1.58-1.06,1.91-1.77c2.09-4.49,4.11-9.01,6.19-13.5c0.88-1.89,1.93-3.7,2.76-5.6
			c0.2-0.47-0.17-1.18-0.29-1.87c-1.02,0.11-1.79,0.19-2.54,0.27C12.06,83.01,12.03,83.5,12,84C12,84,12,84,12,84z M140.63,69.95
			c-4.46,0.4-8.45-0.74-12.48-0.5c-3.58,0.21-7.18,0.17-10.73,0.2c-3.54,0.03-7.18,0.23-11.07-0.31c-0.48,0.4-1.21,1-1.91,1.57
			c-1.02,0-1.99,0-2.91,0c-0.37-0.65-0.69-1.2-1.13-1.96c-0.66,0.27-1.38,0.85-2.03,0.78c-2.01-0.21-4,0-5.97-0.06
			c-2.11-0.06-4.25-0.06-6.37-0.13c-1.99-0.06-3.99-0.11-5.97,0.04c-2.48,0.18-5.01-1.13-7.27-0.45c-3.91,1.17-7.81,0.83-11.72,0.85
			c-4.08,0.02-8.13-0.05-11.89,1.54c-0.22,0.5-0.41,0.94-0.78,1.78c-2.51-0.43-5.03-1.16-7.56-1.21c-2.56-0.05-5.12,0.58-7.69,0.92
			c-2.56,0.33-5.14,0.6-7.68,1.03c-2.42,0.41-4.82,0.98-7.23,1.48c0.01,0.1,0.01,0.2,0.02,0.3c9.95,0,19.89,0,29.73,0
			c1.19,0.78,2.18,1.43,3.59,2.36c-0.97,0.85-1.58,1.38-2.02,1.77c-5.67,0.36-11.08,0.54-16.45,1.1c-5.37,0.57-10.6-1.97-16.83-0.59
			c9.23,1.54,17.61,2.94,26.16,4.37c0.7-0.55,1.59-1.24,2.55-1.99c1.68,0.91,3.25,1.77,5.76,3.14c3.12-0.45,7.3,0.81,11.5,0.91
			c12.48,0.28,24.97,0.13,37.46,0.07c1.57-0.01,3.14-0.48,5.03-0.78c2.61,1.08,19.93,1.45,35.91,0.62c0.23-0.86,0.47-1.76,0.76-2.85
			c1.69-0.38,3.37-0.76,4.93-1.12c0.51,0.92,0.82,1.48,1.16,2.08c0.99,0,1.96,0,3.12,0c0.59-3.54,4.69-3.73,6.39-6.73
			c-1.55-1.14-3.13-2.27-4.67-3.44c-1.57-1.2-2.13-3.7-4.9-3.65c-0.29,0.93-0.6,1.93-0.97,3.12c-1.9-0.56-3.56-1.05-5.21-1.54
			C141.05,71.82,140.88,71.05,140.63,69.95z M69.53,153.8c1.86-3.44,3.65-6.85,5.53-10.21c3.06-5.48,6.15-10.94,9.29-16.37
			c3.78-6.55,7.63-13.06,11.44-19.6c2.26-3.89,4.68-7.7,6.69-11.72c1.02-2.03,3.08-3.85,2.3-6.9c-2.89,0-5.69-0.06-8.48,0.02
			c-2.75,0.08-5.55-0.36-8.45,0.36c0.52,7.1,1.68,14.01-1.54,20.52c-0.68,0.12-1.41,0.25-2.48,0.45c0.95,0.52,1.51,0.82,2.47,1.35
			c-3.8,10.76-9.69,20.61-13.46,30.85c-1.56,0.83-2.68,1.42-3.72,1.97c-0.73,3.2-2.91,5.8-3.1,9.29
			C67.37,153.8,68.47,153.8,69.53,153.8z M26.19,71.82C20.8,64.66,15.75,57.95,10.51,51c-1.07,0.1-2.27,0.21-3.85,0.36
			c1.17,2.27,2.14,4.1,3.07,5.95c0.93,1.87,1.77,3.78,2.74,5.63c1.03,1.95,3,3.82,3.05,5.76c0.05,2.33,1.65,3.46,1.91,5.3
			C20.42,73.25,23.03,72.61,26.19,71.82z M118.9,102.24c-4.55,0-8.64,0-12.7,0c-0.05,0.55-0.07,0.88-0.14,1.63
			c3.11,0.06,6.2,0.11,9.29,0.22c0.2,0.01,0.39,0.46,0.8,0.98c-0.56,0.63-1.17,1.33-1.68,1.9c-2.89,0.14-5.58-0.13-8.78,0.25
			c1.01,0.93,1.49,1.37,1.94,1.79c1.91,0,3.74,0.06,5.56-0.02c1.93-0.08,3.91,0.36,5.71-0.35
			C118.9,106.41,118.9,104.44,118.9,102.24z M4.76,51.06c-0.29,0.12-0.58,0.24-0.87,0.36c2.84,7.81,5.69,15.62,8.52,23.42
			c0.88-0.49,1.71-0.96,2.89-1.62C11.78,65.81,8.27,58.43,4.76,51.06z M42.84,78.76c-4.37-1.03-18.38-0.96-22,0
			C28.48,78.76,35.66,78.76,42.84,78.76z M83.25,107.98c2.65-1.29,2.65-1.29,2.37-4.81c-0.73,0-1.48,0-2.37,0
			C83.25,104.82,83.25,106.34,83.25,107.98z M82.96,53.15c1.45-0.2,2.2-0.3,2.84-0.39c0.51-2.24-0.24-3.35-2.52-3.86
			C83.19,50.24,83.1,51.42,82.96,53.15z M159.16,80.58c0.24,0.22,0.47,0.44,0.71,0.66c1.03-0.89,2.05-1.78,3.13-2.71
			c-0.89-1.24-1.57-2.31-2.39-3.26c-0.2-0.24-0.84-0.1-1.68-0.16c0.87,1.11,1.52,1.93,2.26,2.88
			C160.47,78.91,159.82,79.74,159.16,80.58z M86.74,100.95c0.08-1.24,0.28-2.49,0.17-3.72c-0.04-0.46-0.79-0.85-1.22-1.28
			C85.32,97.84,84.37,99.53,86.74,100.95z M84.97,56.34c0.07,1.37,0.13,2.45,0.19,3.49c0.65,0.04,0.96,0.06,1.49,0.1
			c0-1.3,0-2.57,0-3.9C86,56.15,85.7,56.2,84.97,56.34z M85.76,62.18c-0.9,1.53-0.96,3.04,0,5.71
			C85.76,65.2,85.76,63.69,85.76,62.18z M85.28,94.6c0.16,0.04,0.33,0.08,0.49,0.12c0-1.51,0-3.02,0-4.53
			c-0.16-0.01-0.33-0.01-0.49-0.02C85.28,91.65,85.28,93.13,85.28,94.6z M110.55,88.83c-1.79,0.25-2.57,0.36-3.71,0.52
			c0.71,0.79,1.11,1.24,1.56,1.74C109.02,90.44,109.44,89.99,110.55,88.83z M79.75,122.14c-0.19,0.02-0.39,0.04-0.58,0.06
			c0.06,0.51,0.11,1.02,0.17,1.53c0.19-0.02,0.39-0.04,0.58-0.06C79.87,123.16,79.81,122.65,79.75,122.14z M79.73,33.11
			c-0.18,0.02-0.37,0.04-0.55,0.06c0.05,0.52,0.11,1.04,0.16,1.56c0.2-0.02,0.4-0.05,0.6-0.07C79.87,34.15,79.8,33.63,79.73,33.11z
			 M104.64,49.93c-0.01-0.3-0.01-0.59-0.02-0.89c-0.5,0.08-1,0.16-1.51,0.23c0,0.14,0,0.29,0,0.43
			C103.62,49.79,104.13,49.86,104.64,49.93z M82.93,40.36c-0.3,0.01-0.59,0.01-0.89,0.02c0.08,0.5,0.16,1.01,0.24,1.51
			c0.15,0,0.29,0,0.44,0C82.79,41.37,82.86,40.87,82.93,40.36z M144.87,85.75c-0.02-0.19-0.04-0.39-0.07-0.58
			c-0.51,0.06-1.02,0.12-1.52,0.18c0.02,0.19,0.04,0.39,0.06,0.58C143.85,85.87,144.36,85.81,144.87,85.75z M104.88,103.73
			c-0.02-0.18-0.04-0.37-0.06-0.55c-0.52,0.05-1.03,0.11-1.55,0.16c0.02,0.2,0.04,0.4,0.07,0.6
			C103.85,103.87,104.37,103.8,104.88,103.73z M103.36,107.07c0.01,0.3,0.01,0.59,0.02,0.89c0.5-0.08,1.01-0.16,1.51-0.24
			c0-0.15,0-0.29,0-0.44C104.37,107.21,103.86,107.14,103.36,107.07z M73.73,6.34c-0.09-0.04-0.21-0.16-0.27-0.13
			c-0.12,0.05-0.22,0.18-0.33,0.27c0.2,0.06,0.4,0.12,0.6,0.18C73.73,6.56,73.73,6.45,73.73,6.34z M76.8,11.44
			c-0.09-0.11-0.19-0.22-0.28-0.32c-0.1,0.1-0.21,0.2-0.31,0.3c0.15,0.11,0.3,0.21,0.44,0.32C76.7,11.64,76.75,11.54,76.8,11.44z
			 M80.8,18.44c-0.09-0.11-0.19-0.22-0.28-0.32c-0.1,0.1-0.21,0.2-0.31,0.3c0.15,0.11,0.3,0.21,0.44,0.32
			C80.7,18.64,80.75,18.54,80.8,18.44z M80.35,36.27c-0.04,0.09-0.16,0.21-0.13,0.28c0.05,0.13,0.18,0.22,0.27,0.33
			c0.06-0.2,0.12-0.41,0.18-0.61C80.56,36.27,80.46,36.27,80.35,36.27z M77.35,34.27c-0.04,0.09-0.16,0.21-0.13,0.28
			c0.05,0.13,0.18,0.22,0.27,0.33c0.06-0.2,0.12-0.4,0.17-0.61C77.56,34.27,77.45,34.27,77.35,34.27z M84.8,25.44
			c-0.09-0.11-0.19-0.22-0.28-0.32c-0.1,0.1-0.21,0.2-0.31,0.3c0.15,0.11,0.3,0.21,0.44,0.32C84.7,25.64,84.75,25.54,84.8,25.44z
			 M81.35,112.27c-0.04,0.09-0.16,0.21-0.13,0.28c0.05,0.13,0.18,0.22,0.27,0.33c0.06-0.2,0.12-0.4,0.17-0.61
			C81.56,112.27,81.45,112.27,81.35,112.27z M83.73,113.34c-0.09-0.04-0.21-0.16-0.28-0.13c-0.13,0.05-0.22,0.18-0.33,0.27
			c0.2,0.06,0.4,0.12,0.6,0.18C83.73,113.56,83.73,113.45,83.73,113.34z M104.8,53.44c-0.09-0.11-0.19-0.21-0.28-0.32
			c-0.1,0.1-0.21,0.2-0.31,0.29c0.15,0.11,0.3,0.21,0.44,0.32C104.7,53.64,104.75,53.54,104.8,53.44z M80.55,114.8
			c0.11-0.1,0.21-0.19,0.32-0.29c-0.1-0.1-0.2-0.21-0.3-0.31c-0.11,0.15-0.21,0.3-0.32,0.45C80.36,114.7,80.46,114.75,80.55,114.8z
			 M79.72,117.34c-0.08-0.04-0.21-0.16-0.27-0.13c-0.12,0.05-0.22,0.18-0.33,0.27c0.2,0.06,0.4,0.12,0.6,0.18
			C79.72,117.56,79.72,117.45,79.72,117.34z M80.55,120.8c0.11-0.1,0.21-0.19,0.32-0.29c-0.1-0.1-0.2-0.21-0.3-0.31
			c-0.11,0.15-0.21,0.3-0.32,0.45C80.36,120.7,80.46,120.75,80.55,120.8z M82.34,46.27c-0.04,0.09-0.16,0.21-0.13,0.28
			c0.05,0.13,0.18,0.22,0.27,0.33c0.06-0.2,0.12-0.4,0.17-0.6C82.56,46.27,82.45,46.27,82.34,46.27z M81.8,44.44
			c-0.09-0.11-0.19-0.22-0.28-0.32c-0.1,0.1-0.21,0.2-0.31,0.3c0.15,0.11,0.29,0.21,0.44,0.32C81.7,44.64,81.75,44.54,81.8,44.44z
			 M83.73,43.34c-0.09-0.04-0.21-0.16-0.28-0.13c-0.13,0.05-0.22,0.18-0.33,0.27c0.2,0.06,0.4,0.12,0.6,0.18
			C83.73,43.56,83.73,43.45,83.73,43.34z M79.55,39.8c0.11-0.1,0.21-0.19,0.32-0.29c-0.1-0.1-0.2-0.21-0.3-0.31
			c-0.11,0.15-0.21,0.3-0.32,0.45C79.36,39.7,79.46,39.75,79.55,39.8z M80.35,138.27c-0.04,0.09-0.16,0.21-0.13,0.28
			c0.05,0.13,0.18,0.22,0.27,0.33c0.06-0.2,0.12-0.4,0.18-0.61C80.56,138.27,80.45,138.27,80.35,138.27z M77.8,143.44
			c-0.09-0.11-0.19-0.22-0.28-0.32c-0.1,0.1-0.21,0.2-0.31,0.3c0.15,0.11,0.3,0.21,0.44,0.32C77.7,143.64,77.75,143.54,77.8,143.44z
			 M74.35,148.27c-0.04,0.09-0.16,0.21-0.13,0.28c0.05,0.13,0.18,0.22,0.27,0.33c0.06-0.2,0.12-0.4,0.18-0.61
			C74.56,148.27,74.46,148.27,74.35,148.27z M73.73,150.34c-0.08-0.04-0.21-0.16-0.27-0.13c-0.12,0.05-0.22,0.18-0.33,0.27
			c0.2,0.06,0.4,0.12,0.6,0.18C73.73,150.56,73.73,150.45,73.73,150.34z"/>
		<path class="st0" d="M1,79c3.24,0.7,6.49,1.41,9.68,2.1c-2.65,7.59-5.21,15.01-7.88,22.39C2.56,104.13,1.61,104.5,1,105
			C1,96.33,1,87.67,1,79z"/>
		<path d="M25.06,87.06c0.36,1.8-1.26,2.55-2.07,3.66c-1.86,2.53-3,5.67-5.93,7.34l-0.13-0.12c1.7-4.37,4.72-7.78,8.01-11
			L25.06,87.06z"/>
		<path d="M26.05,86.06c-0.33,0.33-0.66,0.66-0.99,1l-0.12-0.12c0.33-0.33,0.66-0.66,1-1C25.94,85.94,26.05,86.06,26.05,86.06z"/>
		<path class="st0" d="M140.63,69.95c0.25,1.1,0.43,1.87,0.62,2.72c1.65,0.49,3.32,0.98,5.21,1.54c0.37-1.18,0.68-2.18,0.97-3.12
			c2.78-0.04,3.33,2.45,4.9,3.65c1.54,1.18,3.13,2.31,4.67,3.44c-1.69,3.01-5.8,3.19-6.39,6.73c-1.15,0-2.13,0-3.12,0
			c-0.34-0.61-0.65-1.16-1.16-2.08c-1.56,0.35-3.25,0.74-4.93,1.12c-0.29,1.09-0.53,1.99-0.76,2.85
			c-15.98,0.82-33.3,0.45-35.91-0.62c-1.89,0.31-3.46,0.77-5.03,0.78c-12.49,0.06-24.98,0.21-37.46-0.07
			c-4.21-0.09-8.38-1.36-11.5-0.91c-2.51-1.37-4.08-2.23-5.76-3.14c-0.97,0.75-1.85,1.44-2.55,1.99C33.89,83.4,25.52,82,16.29,80.46
			c6.24-1.38,11.46,1.15,16.83,0.59c5.37-0.57,10.78-0.74,16.45-1.1c0.44-0.38,1.05-0.92,2.02-1.77c-1.41-0.93-2.4-1.58-3.59-2.36
			c-9.84,0-19.78,0-29.73,0c-0.01-0.1-0.01-0.2-0.02-0.3c2.41-0.5,4.8-1.08,7.23-1.48c2.55-0.43,5.12-0.69,7.68-1.03
			c2.56-0.33,5.13-0.96,7.69-0.92c2.53,0.05,5.05,0.78,7.56,1.21c0.37-0.84,0.56-1.28,0.78-1.78c3.76-1.59,7.82-1.52,11.89-1.54
			c3.91-0.02,7.81,0.32,11.72-0.85c2.26-0.68,4.79,0.63,7.27,0.45c1.98-0.14,3.98-0.1,5.97-0.04c2.12,0.07,4.26,0.07,6.37,0.13
			c1.97,0.05,3.96-0.15,5.97,0.06c0.65,0.07,1.37-0.51,2.03-0.78c0.44,0.76,0.75,1.31,1.13,1.96c0.92,0,1.89,0,2.91,0
			c0.69-0.57,1.42-1.17,1.91-1.57c3.89,0.54,7.53,0.34,11.07,0.31c3.56-0.03,7.16,0.01,10.73-0.2
			C132.17,69.2,136.17,70.34,140.63,69.95z"/>
		<path class="st0" d="M111.05,67.05c-0.77,1.75-2.38,1.02-3.46,0.87c-3.5-0.49-6.96-0.1-10.44,0.05c-2.82,0.12-5.66,0.03-8.82,0.03
			c-0.2-2.22-1.13-4.4,0.55-6.49c-1.7-1.76-0.23-3.86-0.36-5.75c-0.16-2.2-0.97-4.06-1.58-5.9c0.39-0.58,0.66-0.98,1.16-1.73
			c-1.36-0.57-2.65-1.12-3.96-1.67c0.55-0.3,1.11-0.61,1.66-0.91c-0.25-2.94-4.72-13.23-5.99-15.64c-2.6-4.92-4.74-10.09-7.27-15.58
			c-0.67-0.36-1.79-0.95-3.33-1.77c-1.05-2.66-2.27-5.75-3.41-8.64c0.44-0.45,0.54-0.66,0.67-0.67c0.97-0.11,1.94-0.18,2.77-0.25
			c3.96,6.62,7.94,13.06,11.69,19.63c3.67,6.42,7.03,13.02,10.67,19.46c3.24,5.75,6.73,11.36,9.99,17.09
			c1.43,2.51,2.59,5.17,3.84,7.71c1.92,0.45,3.74-0.98,5.52,0.08L111.05,67.05z"/>
		<path class="st0" d="M69.53,153.8c-1.05,0-2.15,0-3.52,0c0.2-3.49,2.37-6.09,3.1-9.29c1.04-0.55,2.16-1.14,3.72-1.97
			c3.77-10.23,9.66-20.09,13.46-30.85c-0.96-0.52-1.52-0.83-2.47-1.35c1.07-0.19,1.8-0.33,2.48-0.45
			c3.22-6.51,2.06-13.42,1.54-20.52c2.9-0.72,5.69-0.28,8.45-0.36c2.79-0.08,5.59-0.02,8.48-0.02c0.79,3.04-1.28,4.87-2.3,6.9
			c-2.01,4.01-4.42,7.83-6.69,11.72c-3.81,6.54-7.66,13.05-11.44,19.6c-3.14,5.43-6.22,10.9-9.29,16.37
			C73.18,146.95,71.39,150.36,69.53,153.8z M101.8,92.44c-0.1-0.11-0.19-0.22-0.29-0.32c-0.1,0.1-0.21,0.2-0.31,0.3
			c0.15,0.11,0.3,0.21,0.45,0.32C101.7,92.64,101.75,92.54,101.8,92.44z"/>
		<path class="st0" d="M25.94,85.94c-0.33,0.33-0.66,0.66-1,1c-3.29,3.22-6.31,6.63-8.01,11c-1.3,1.23-2.63,2.43-3.88,3.71
			c-1.41,1.45-2.73,2.98-4.11,4.49c-0.74-0.57-1.11-0.85-1.84-1.41c3.26-7.06,6.56-14.18,9.79-21.17c3.34-1.93,5.95,1.32,9.04,0.39
			C25.94,84.97,25.94,85.45,25.94,85.94z"/>
		<path class="st0" d="M26.19,71.82c-3.16,0.78-5.76,1.43-8.75,2.17c-0.26-1.84-1.86-2.97-1.91-5.3c-0.04-1.94-2.02-3.81-3.05-5.76
			c-0.97-1.84-1.81-3.76-2.74-5.63c-0.93-1.85-1.9-3.68-3.07-5.95c1.58-0.15,2.78-0.26,3.85-0.36
			C15.75,57.95,20.8,64.66,26.19,71.82z"/>
		<path class="st0" d="M118.96,56.04c-3.72-0.42-7.44-0.84-11.57-1.31c-0.2-0.22-0.7-0.77-1.43-1.58c2.98,0,5.61,0,8.33,0
			c0.67-0.73,1.29-1.42,1.86-2.04c-0.4-0.55-0.58-1.02-0.77-1.02c-3.1-0.11-6.2-0.16-9.32-0.22c0.07-0.76,0.1-1.08,0.15-1.63
			c4.07,0,8.17,0,12.67,0c0.06,2.51,0.11,5.12,0.17,7.73L118.96,56.04z"/>
		<path class="st0" d="M118.9,102.24c0,2.21,0,4.18,0,6.4c-1.8,0.71-3.79,0.27-5.71,0.35c-1.82,0.07-3.65,0.02-5.56,0.02
			c-0.45-0.41-0.93-0.86-1.94-1.79c3.2-0.37,5.9-0.1,8.78-0.25c0.51-0.57,1.12-1.26,1.68-1.9c-0.41-0.53-0.6-0.98-0.8-0.98
			c-3.09-0.11-6.19-0.16-9.29-0.22c0.06-0.75,0.09-1.07,0.14-1.63C110.26,102.24,114.35,102.24,118.9,102.24z"/>
		<path class="st0" d="M4.76,51.06c3.51,7.38,7.02,14.75,10.54,22.15c-1.19,0.67-2.02,1.13-2.89,1.62
			c-2.84-7.79-5.68-15.6-8.52-23.42C4.18,51.3,4.47,51.18,4.76,51.06z"/>
		<path class="st0" d="M12,84c0.03-0.49,0.06-0.99,0.11-1.78c0.74-0.08,1.51-0.16,2.54-0.27c0.12,0.69,0.5,1.41,0.29,1.87
			c-0.83,1.91-1.88,3.72-2.76,5.6c-2.09,4.49-4.11,9.01-6.19,13.5c-0.33,0.71-0.86,1.32-1.91,1.77c0.46-1.54,0.84-3.1,1.39-4.61
			c1.88-5.23,3.81-10.43,5.75-15.64C11.29,84.23,11.73,84.15,12,84C12.17,84.28,12.34,84.56,12,84C12.56,84.34,12.28,84.17,12,84z"
			/>
		<path class="st0" d="M42.84,78.76c-7.18,0-14.36,0-22,0C24.46,77.8,38.47,77.72,42.84,78.76z"/>
		<path class="st0" d="M83.25,107.98c0-1.64,0-3.16,0-4.81c0.88,0,1.63,0,2.37,0C85.9,106.69,85.9,106.69,83.25,107.98z"/>
		<path class="st0" d="M82.96,53.15c0.13-1.73,0.22-2.91,0.33-4.24c2.27,0.5,3.03,1.62,2.52,3.86
			C85.16,52.84,84.41,52.95,82.96,53.15z"/>
		<path class="st0" d="M159.16,80.58c0.65-0.84,1.3-1.67,2.02-2.6c-0.75-0.95-1.39-1.77-2.26-2.88c0.84,0.07,1.48-0.07,1.68,0.16
			c0.82,0.96,1.51,2.03,2.39,3.26c-1.07,0.93-2.1,1.82-3.13,2.71C159.64,81.02,159.4,80.8,159.16,80.58z"/>
		<path class="st0" d="M105,61c-2.63-1.59-3.22-4.35-4-7l0,0C103.63,55.59,104.22,58.35,105,61L105,61z"/>
		<path class="st0" d="M86.74,100.95c-2.37-1.42-1.42-3.11-1.05-4.99c0.43,0.42,1.18,0.82,1.22,1.28
			C87.02,98.46,86.82,99.71,86.74,100.95z"/>
		<path class="st0" d="M84.97,56.34c0.73-0.14,1.03-0.19,1.68-0.31c0,1.33,0,2.61,0,3.9c-0.53-0.04-0.84-0.06-1.49-0.1
			C85.1,58.79,85.04,57.71,84.97,56.34z"/>
		<path class="st0" d="M101,54c-2.3-0.63-1.9-2.99-3.05-4.36C100.15,50.93,100.15,50.93,101,54L101,54z"/>
		<path class="st0" d="M105,96c-0.32,2.07-0.79,4.06-3,5l0,0C102.32,98.92,102.79,96.94,105,96L105,96z"/>
		<path class="st0" d="M101,103c-0.15,1.72-0.66,3.22-3.38,4.68C99.05,105.4,98.99,103.54,101,103L101,103z"/>
		<path class="st0" d="M105,61c2.01,0.54,1.96,2.39,2.51,3.86C105.66,64.22,105.14,62.73,105,61L105,61z"/>
		<path class="st0" d="M105,96c0.14-1.73,0.66-3.22,3.36-4.67C106.96,93.61,107,95.45,105,96L105,96z"/>
		<path class="st0" d="M85.76,62.18c0,1.51,0,3.02,0,5.71C84.8,65.22,84.87,63.71,85.76,62.18z"/>
		<path class="st0" d="M85.28,94.6c0-1.48,0-2.95,0-4.43c0.16,0.01,0.33,0.01,0.49,0.02c0,1.51,0,3.02,0,4.53
			C85.61,94.68,85.44,94.64,85.28,94.6z"/>
		<path class="st0" d="M97,110c0.12,1.52-0.51,2.55-2,3L95,113C94.88,111.47,95.5,110.45,97,110L97,110z"/>
		<path class="st0" d="M96,45c-1.49-0.45-2.12-1.48-2-3L94,42C95.5,42.44,96.12,43.47,96,45L96,45z"/>
		<path class="st0" d="M110.55,88.83c-1.11,1.16-1.53,1.61-2.15,2.26c-0.45-0.5-0.85-0.95-1.56-1.74
			C107.98,89.19,108.75,89.08,110.55,88.83z"/>
		<path class="st0" d="M93.01,117c0.11,1.52-0.51,2.55-2,3L90.99,120c-0.11-1.52,0.51-2.55,2-3L93.01,117z"/>
		<path class="st0" d="M91.01,120.01c-0.09,0.79,0.3,1.82-1,2l-0.02-0.01c0.09-0.79-0.3-1.82,1-2L91.01,120.01z"/>
		<path class="st0" d="M79.75,122.14c0.06,0.51,0.11,1.02,0.17,1.53c-0.19,0.02-0.39,0.04-0.58,0.06c-0.06-0.51-0.11-1.02-0.17-1.53
			C79.37,122.18,79.56,122.16,79.75,122.14z"/>
		<path class="st0" d="M88.99,123.99c0.09-0.79-0.3-1.82,1-2l0.02,0.01c-0.09,0.79,0.3,1.82-1,2L88.99,123.99z"/>
		<path class="st0" d="M86.99,126.99c0.09-0.79-0.29-1.81,1-2l0.02,0.02c-0.09,0.79,0.3,1.82-1,2L86.99,126.99z"/>
		<path class="st0" d="M87.01,127.01c-0.03,0.58-0.06,1.17-0.11,2.17c-1.27-1.25-1.05-1.82,0.09-2.18L87.01,127.01z"/>
		<path class="st0" d="M78.98,16.02c-0.34-0.67-0.67-1.33-1.01-2l0.05-0.05c1.26,0.2,0.9,1.22,1,2L78.98,16.02z"/>
		<path class="st0" d="M82.98,133.99c0.03-0.58,0.07-1.17,0.12-2.14c1.27,1.23,1.02,1.79-0.09,2.17L82.98,133.99z"/>
		<path class="st0" d="M83.02,134.02c-0.1,0.79,0.28,1.8-1,2l-0.04-0.04c0.1-0.78-0.28-1.81,1-2L83.02,134.02z"/>
		<path class="st0" d="M82.01,20.98c1.28,0.19,0.91,1.22,1,2l-0.03,0.03c-1.28-0.19-0.9-1.21-1-2L82.01,20.98z"/>
		<path class="st0" d="M86.99,30.01c-0.35-0.47-0.7-0.94-1.04-1.41c0.22-0.12,0.45-0.23,0.67-0.35c0.13,0.58,0.26,1.16,0.39,1.73
			L86.99,30.01z"/>
		<path class="st0" d="M79.73,33.11c0.07,0.52,0.14,1.03,0.21,1.55c-0.2,0.02-0.4,0.05-0.6,0.07c-0.05-0.52-0.11-1.04-0.16-1.56
			C79.36,33.16,79.55,33.13,79.73,33.11z"/>
		<path class="st0" d="M89.01,32.99c1.3,0.19,0.91,1.21,1,2l-0.01,0.01c-1.3-0.18-0.91-1.21-1-2L89.01,32.99z"/>
		<path class="st0" d="M90.01,34.99c1.31,0.18,0.91,1.21,1,2l-0.01,0.01c-1.3-0.18-0.91-1.21-1-2L90.01,34.99z"/>
		<path class="st0" d="M92.01,37.99c1.31,0.18,0.91,1.21,1,2L93,40c-1.31-0.18-0.92-1.21-1-2L92.01,37.99z"/>
		<path class="st0" d="M93,40c1.31,0.18,0.92,1.21,1,2L94,42C92.69,41.83,93.08,40.79,93,40L93,40z"/>
		<path class="st0" d="M97,47c-1.32-0.17-0.92-1.21-1-2L96,45C97.31,45.18,96.92,46.21,97,47L97,47z"/>
		<path class="st0" d="M104.64,49.93c-0.51-0.07-1.01-0.15-1.52-0.22c0-0.14,0-0.29,0-0.43c0.5-0.08,1-0.16,1.51-0.23
			C104.63,49.34,104.63,49.64,104.64,49.93z"/>
		<path class="st0" d="M82.93,40.36c-0.07,0.51-0.14,1.02-0.21,1.53c-0.15,0-0.29,0-0.44,0c-0.08-0.5-0.16-1.01-0.24-1.51
			C82.34,40.37,82.63,40.36,82.93,40.36z"/>
		<path class="st0" d="M144.87,85.75c-0.51,0.06-1.02,0.12-1.53,0.18c-0.02-0.19-0.04-0.39-0.06-0.58c0.51-0.06,1.02-0.12,1.52-0.18
			C144.82,85.36,144.84,85.56,144.87,85.75z"/>
		<path class="st0" d="M102,101c-0.08,0.79,0.32,1.83-1,2l0,0C101.08,102.21,100.68,101.17,102,101L102,101z"/>
		<path class="st0" d="M104.88,103.73c-0.52,0.07-1.03,0.14-1.55,0.2c-0.02-0.2-0.04-0.4-0.07-0.6c0.52-0.05,1.03-0.11,1.55-0.16
			C104.84,103.36,104.86,103.55,104.88,103.73z"/>
		<path class="st0" d="M103.36,107.07c0.51,0.07,1.02,0.14,1.52,0.21c0,0.15,0,0.29,0,0.44c-0.5,0.08-1.01,0.16-1.51,0.24
			C103.37,107.66,103.36,107.36,103.36,107.07z"/>
		<path class="st0" d="M94,115c0.09-0.79-0.31-1.82,1-2L95,113C94.92,113.79,95.31,114.83,94,115L94,115z"/>
		<path class="st0" d="M81.99,116.99c0.03-0.59,0.06-1.17,0.12-2.15c1.27,1.24,1.03,1.8-0.09,2.18L81.99,116.99z"/>
		<path class="st0" d="M92.99,116.99c0.09-0.79-0.31-1.82,1-2L94,115c-0.08,0.79,0.31,1.82-1,2L92.99,116.99z"/>
		<path class="st0" d="M73.73,6.34c0,0.11,0,0.21,0,0.32c-0.2-0.06-0.4-0.12-0.6-0.18c0.11-0.1,0.2-0.22,0.33-0.27
			C73.52,6.19,73.64,6.3,73.73,6.34z"/>
		<path class="st0" d="M74.97,9.03c-0.27-0.19-0.54-0.38-0.81-0.57c0.1-0.1,0.2-0.2,0.3-0.3c0.19,0.27,0.38,0.54,0.56,0.81
			C75.03,8.97,74.97,9.03,74.97,9.03z"/>
		<path class="st0" d="M75.03,8.97c0.27,0.19,0.54,0.37,0.81,0.56c-0.1,0.1-0.2,0.2-0.31,0.3c-0.19-0.27-0.37-0.54-0.56-0.81
			C74.97,9.03,75.03,8.97,75.03,8.97z"/>
		<path class="st0" d="M76.8,11.44c-0.05,0.1-0.1,0.2-0.15,0.3c-0.15-0.11-0.3-0.21-0.44-0.32c0.1-0.1,0.21-0.2,0.31-0.3
			C76.61,11.23,76.7,11.34,76.8,11.44z"/>
		<path class="st0" d="M77.97,14.02c-0.27-0.19-0.54-0.37,0.16,0.11c-0.47-0.7-0.29-0.43-0.11-0.16
			C78.02,13.97,77.97,14.02,77.97,14.02z"/>
		<path class="st0" d="M79.02,15.98c0.27,0.18,0.54,0.37-0.14-0.1c0.46,0.68,0.28,0.41,0.1,0.14
			C78.98,16.02,79.02,15.98,79.02,15.98z"/>
		<path class="st0" d="M80.8,18.44c-0.05,0.1-0.1,0.2-0.15,0.3c-0.15-0.11-0.3-0.21-0.44-0.32c0.1-0.1,0.21-0.2,0.31-0.3
			C80.61,18.23,80.7,18.34,80.8,18.44z"/>
		<path class="st0" d="M91.01,36.99c0.33,0.33,0.67,0.67,1,1l-0.01,0.01c-0.33-0.33-0.67-0.67-1-1L91.01,36.99z"/>
		<path class="st0" d="M80.35,36.27c0.11,0,0.21,0,0.32,0c-0.06,0.2-0.12,0.41-0.18,0.61c-0.09-0.11-0.22-0.2-0.27-0.33
			C80.19,36.48,80.3,36.36,80.35,36.27z"/>
		<path class="st0" d="M144,71C143.72,70.83,143.45,70.66,144,71C143.66,70.45,143.83,70.72,144,71L144,71z"/>
		<path class="st0" d="M77.35,34.27c0.11,0,0.21,0,0.31,0c-0.06,0.2-0.12,0.4-0.17,0.61c-0.09-0.11-0.22-0.2-0.27-0.33
			C77.19,34.48,77.3,34.36,77.35,34.27z"/>
		<path class="st0" d="M88.99,33.01c-0.27-0.18-0.55-0.35,0.05,0.03c-0.38-0.6-0.21-0.33-0.03-0.05L88.99,33.01z"/>
		<path class="st0" d="M87.01,29.99c0.28,0.18,0.55,0.36-0.06-0.04c0.39,0.61,0.21,0.33,0.04,0.06L87.01,29.99z"/>
		<path class="st0" d="M104.98,56.01c-0.27-0.18-0.55-0.36,0.08,0.05c-0.41-0.63-0.23-0.36-0.06-0.08
			C105.01,55.98,104.98,56.01,104.98,56.01z"/>
		<path class="st0" d="M97,110c0.17-0.28,0.34-0.56-0.01,0.01C97.56,109.65,97.28,109.83,97,110L97,110z"/>
		<path class="st0" d="M84.8,25.44c-0.05,0.1-0.1,0.2-0.15,0.3c-0.15-0.11-0.3-0.21-0.44-0.32c0.1-0.1,0.21-0.2,0.31-0.3
			C84.61,25.23,84.7,25.34,84.8,25.44z"/>
		<path class="st0" d="M81.35,112.27c0.11,0,0.21,0,0.31,0c-0.06,0.2-0.12,0.4-0.17,0.61c-0.09-0.11-0.22-0.2-0.27-0.33
			C81.19,112.48,81.3,112.36,81.35,112.27z"/>
		<path class="st0" d="M83.73,113.34c0,0.11,0,0.22,0,0.32c-0.2-0.06-0.4-0.12-0.6-0.18c0.11-0.1,0.2-0.23,0.33-0.27
			C83.52,113.19,83.64,113.3,83.73,113.34z"/>
		<path class="st0" d="M104.8,53.44c-0.05,0.1-0.1,0.2-0.15,0.29c-0.15-0.11-0.3-0.21-0.44-0.32c0.1-0.1,0.21-0.2,0.31-0.29
			C104.61,53.23,104.7,53.34,104.8,53.44z"/>
		<path class="st0" d="M80.55,114.8c-0.1-0.05-0.19-0.1-0.29-0.15c0.11-0.15,0.21-0.3,0.32-0.45c0.1,0.1,0.2,0.21,0.3,0.31
			C80.77,114.61,80.66,114.71,80.55,114.8z"/>
		<path class="st0" d="M144,71C144.28,71.17,144.56,71.34,144,71C144.34,71.55,144.17,71.28,144,71L144,71z"/>
		<path class="st0" d="M79.72,117.34c0,0.11,0,0.21,0,0.32c-0.2-0.06-0.4-0.12-0.6-0.18c0.11-0.1,0.2-0.22,0.33-0.27
			C79.52,117.19,79.64,117.3,79.72,117.34z"/>
		<path class="st0" d="M82.01,117.01c-0.18,0.27-0.36,0.55,0.05-0.07c-0.62,0.4-0.35,0.23-0.07,0.05L82.01,117.01z"/>
		<path class="st0" d="M81.98,21.02c-0.27-0.18-0.55-0.36,0.09,0.06c-0.42-0.64-0.24-0.37-0.06-0.1L81.98,21.02z"/>
		<path class="st0" d="M80.55,120.8c-0.1-0.05-0.2-0.1-0.29-0.15c0.11-0.15,0.21-0.3,0.32-0.45c0.1,0.1,0.2,0.21,0.3,0.31
			C80.77,120.61,80.66,120.71,80.55,120.8z"/>
		<path class="st0" d="M97,47C97.28,47.17,97.56,47.34,97,47C97.34,47.56,97.17,47.28,97,47C97,47,97,47,97,47z"/>
		<path class="st0" d="M82.34,46.27c0.11,0,0.21,0,0.32,0c-0.06,0.2-0.12,0.4-0.17,0.6c-0.09-0.11-0.22-0.2-0.27-0.33
			C82.19,46.48,82.3,46.36,82.34,46.27z"/>
		<path class="st0" d="M81.8,44.44c-0.05,0.1-0.1,0.2-0.15,0.3c-0.15-0.11-0.29-0.21-0.44-0.32c0.1-0.1,0.21-0.2,0.31-0.3
			C81.61,44.23,81.7,44.34,81.8,44.44z"/>
		<path class="st0" d="M89.01,124.01c-0.33,0.33-0.67,0.67-1,1l-0.02-0.02c0.33-0.33,0.67-0.67,1-1L89.01,124.01z"/>
		<path class="st0" d="M83.73,43.34c0,0.11,0,0.22,0,0.32c-0.2-0.06-0.4-0.12-0.6-0.18c0.11-0.1,0.2-0.23,0.33-0.27
			C83.52,43.19,83.64,43.3,83.73,43.34z"/>
		<path class="st0" d="M83.02,22.99c0.27,0.18,0.55,0.36-0.08-0.06c0.41,0.63,0.23,0.36,0.06,0.09
			C82.99,23.02,83.02,22.99,83.02,22.99z"/>
		<path class="st0" d="M79.55,39.8c-0.1-0.05-0.19-0.1-0.29-0.15c0.11-0.15,0.21-0.3,0.32-0.45c0.1,0.1,0.2,0.21,0.3,0.31
			C79.77,39.61,79.66,39.71,79.55,39.8z"/>
		<path class="st0" d="M82.02,136.02c-0.18,0.27-0.36,0.55,0.07-0.11c-0.65,0.43-0.38,0.25-0.11,0.07L82.02,136.02z"/>
		<path class="st0" d="M80.35,138.27c0.11,0,0.21,0,0.32,0c-0.06,0.2-0.12,0.4-0.18,0.61c-0.09-0.11-0.22-0.2-0.27-0.33
			C80.19,138.48,80.3,138.36,80.35,138.27z"/>
		<path class="st0" d="M78.98,140.98c0.18-0.27,0.37-0.55-0.1,0.15c0.69-0.47,0.42-0.29,0.15-0.1
			C79.02,141.02,78.98,140.98,78.98,140.98z"/>
		<path class="st0" d="M79.02,141.02c-0.18,0.27-0.37,0.55,0.1-0.14c-0.68,0.47-0.41,0.28-0.14,0.1
			C78.98,140.98,79.02,141.02,79.02,141.02z"/>
		<path class="st0" d="M77.8,143.44c-0.05,0.1-0.1,0.2-0.15,0.3c-0.15-0.11-0.3-0.21-0.44-0.32c0.1-0.1,0.21-0.2,0.31-0.3
			C77.61,143.23,77.7,143.34,77.8,143.44z"/>
		<path class="st0" d="M75.97,145.97c0.19-0.27,0.38-0.54,0.57-0.81c0.1,0.1,0.2,0.2,0.3,0.3c-0.27,0.19-0.54,0.38-0.81,0.57
			L75.97,145.97z"/>
		<path class="st0" d="M76.03,146.03c-0.19,0.27-0.37,0.54-0.56,0.81c-0.1-0.1-0.2-0.2-0.31-0.3c0.27-0.19,0.54-0.37,0.8-0.56
			C75.97,145.97,76.03,146.03,76.03,146.03z"/>
		<path class="st0" d="M74.35,148.27c0.11,0,0.21,0,0.32,0c-0.06,0.2-0.12,0.4-0.18,0.61c-0.09-0.11-0.22-0.2-0.27-0.33
			C74.19,148.48,74.3,148.36,74.35,148.27z"/>
		<path class="st0" d="M73.73,150.34c0,0.11,0,0.21,0,0.32c-0.2-0.06-0.4-0.12-0.6-0.18c0.11-0.1,0.2-0.22,0.33-0.27
			C73.52,150.19,73.64,150.3,73.73,150.34z"/>
		<path d="M101.8,92.44c-0.05,0.1-0.1,0.2-0.15,0.3c-0.15-0.11-0.3-0.21-0.45-0.32c0.1-0.1,0.21-0.2,0.31-0.3
			C101.61,92.23,101.71,92.34,101.8,92.44z"/>
		<path d="M12,84C12.28,84.17,12.56,84.34,12,84C12.34,84.56,12.17,84.28,12,84C12,84,12,84,12,84z"/>
	</g>
</g>
</svg>
