<?xml version="1.0" encoding="utf-8"?>
<!-- Generator: Adobe Illustrator 18.1.1, SVG Export Plug-In . SVG Version: 6.00 Build 0)  -->
<svg version="1.1" id="Layer_1" xmlns="http://www.w3.org/2000/svg" xmlns:xlink="http://www.w3.org/1999/xlink" x="0px" y="0px"
	 width="220px" height="250px" viewBox="0 0 220 250" >
<style type="text/css">
	.st0{fill:#A2CEF9;}
	.st1{fill:#F7A4A4;stroke:#FF0000;stroke-width:3;stroke-miterlimit:10;}
	.st2{fill:#FFFFFF;}
	.st3{fill:#EEEEEE;}
	.st4{fill:#FF0000;}
	.st5{fill:none;}
	.st6{fill:#003366;}
</style>
<rect id="bg_1_" x="0" y="0" class="st0" width="220" height="250"/>
<ellipse id="radius" transform="matrix(0.7128 0.7014 -0.7014 0.7128 51.1018 -19.698)" class="st1" cx="49.6" cy="52.55" rx="44.74" ry="23.17"/>
<g id="acft1">
	<g>
		<path class="st2" d="M114.16,202.75c-0.1,0-0.19,0-0.29,0c-0.23-0.22-0.5-0.34-0.8-0.44c-0.9-0.32-1.79-0.65-2.69-0.97
			c-0.07,0.2,0.01,0.4-0.13,0.62c-0.14,0.21-0.12,0.53-0.17,0.8c-0.1,0-0.19,0-0.29,0c0.01-0.52-0.29-0.96-0.31-1.42
			c-0.24,0.09-0.44,0.18-0.65,0.26c-0.84,0.32-1.69,0.62-2.53,0.95c-0.22,0.09-0.4,0.09-0.59,0.02c0-0.41,0-0.8,0-1.22
			c1.08-0.91,2.32-1.67,3.42-2.66c-0.4-0.8-0.3-1.65-0.48-2.47c-0.17-0.8-0.14-1.66-0.17-2.49c-0.02-0.87-0.01-1.74-0.01-2.62
			c-0.41,0-0.79,0-1.14,0c-0.03,0.16-0.05,0.29-0.1,0.55c-0.19-0.27-0.3-0.42-0.42-0.58c-0.32,0-0.64,0.03-0.95-0.01
			c-0.25-0.03-0.45,0.09-0.67,0.16c-0.23,0.08-0.22,0.33-0.27,0.54c-0.02,0.09-0.08,0.17-0.14,0.29c-0.18-0.27-0.27-0.42-0.36-0.55
			c-0.43,0.17-0.82,0.34-1.15,0.47c-0.09,0.22-0.15,0.39-0.23,0.59c-0.16-0.14-0.28-0.25-0.39-0.34c-0.39,0-0.63,0.34-1,0.34
			c-0.13,0-0.25,0.21-0.21,0.41c0.01,0.04-0.06,0.1-0.12,0.21c-0.15-0.14-0.27-0.25-0.35-0.32c-0.27,0.09-0.55,0.13-0.78,0.26
			c-0.43,0.25-1.04,0.17-1.3,0.72c-0.01,0.03-0.14,0-0.21,0c0-0.49,0-0.97,0-1.46c0.39-0.24,0.76-0.5,1.16-0.73
			c0.62-0.37,1.23-0.75,1.88-1.09c0.78-0.41,1.52-0.92,2.27-1.38c0.52-0.32,1.05-0.62,1.52-0.9c0.17-0.58-0.36-0.91-0.27-1.43
			c0.07-0.47,0.02-0.96,0.02-1.43c0.4-0.28,0.83-0.21,1.2-0.21c0.21,0.14,0.38,0.25,0.58,0.39c-0.05,0.3-0.15,0.62-0.16,0.94
			c-0.01,0.34-0.06,0.67-0.15,1c0.69-0.34,1.39-0.59,1.75-1.29c0-0.82,0-1.65,0-2.48c0-0.46-0.04-0.93,0.01-1.38
			c0.04-0.45,0.17-0.89,0.27-1.34c0.2-0.91,0.49-1.61,1.03-2.27c0.15,0,0.29,0,0.44,0c0.36,0.68,0.89,1.28,0.88,2.12
			c0.26,0.22,0.12,0.56,0.27,0.84c0.12,0.22,0.01,0.53,0.14,0.82c0.12,0.26,0.02,0.62,0.02,0.94c0,0.95,0,1.89,0,2.8
			c0.36,0.73,1.13,0.85,1.73,1.36c-0.23-0.82-0.07-1.54-0.13-2.21c0.43-0.31,0.86-0.2,1.15-0.22c0.22,0.17,0.35,0.27,0.45,0.34
			c0,0.59,0,1.12,0,1.62c-0.26,0.34-0.34,0.68-0.25,1.11c0.16,0.1,0.34,0.21,0.52,0.32c0.42,0.26,0.88,0.47,1.29,0.74
			c1.01,0.66,2.08,1.22,3.1,1.85c0.64,0.4,1.32,0.72,1.92,1.17c0,0.49,0,0.97,0,1.46c-0.09-0.02-0.26-0.04-0.26-0.05
			c0.01-0.3-0.3-0.34-0.43-0.37c-0.61-0.11-1.13-0.47-1.72-0.61c-0.06,0.11-0.12,0.21-0.24,0.41c-0.14-0.28-0.23-0.48-0.32-0.65
			c-0.35-0.13-0.69-0.25-1.01-0.37c-0.14,0.12-0.25,0.22-0.42,0.37c-0.08-0.26-0.13-0.43-0.18-0.6c-0.4-0.16-0.79-0.32-1.19-0.47
			c-0.15,0.15-0.11,0.49-0.51,0.42c0-0.17,0-0.35,0-0.53c-0.22-0.13-0.39-0.23-0.54-0.31c-0.52,0-1,0-1.49,0
			c-0.02,0.15-0.05,0.28-0.07,0.41c-0.08,0-0.12,0.01-0.17,0.01c-0.1-0.15-0.19-0.3-0.26-0.41c-0.36,0-0.67,0-0.99,0
			c0,0.63,0.02,1.24-0.01,1.85c-0.02,0.61-0.09,1.22-0.14,1.83c-0.05,0.61-0.1,1.22-0.15,1.83c0,0.02,0.01,0.06,0,0.07
			c-0.32,0.31-0.01,0.75-0.2,1.08c-0.21,0.36-0.02,0.75-0.09,1.08c1.1,0.84,2.17,1.66,3.22,2.45
			C114.16,201.83,114.16,202.29,114.16,202.75z"/>
	</g>
	<g>
		<g>
			<path d="M109.86,203.1c-0.1-0.5-0.19-1-0.29-1.47c-0.49,0.01-0.7,0.5-1.17,0.55c-0.43,0.05-0.84,0.25-1.25,0.4
				c-0.41,0.15-0.8,0.32-1.27,0.38c0-0.46,0-0.87,0-1.37c0.42-0.32,0.89-0.7,1.38-1.05c0.34-0.25,0.71-0.45,1.07-0.67
				c0.37-0.23,0.65-0.53,0.82-0.87c-0.39-2.52-0.63-5.02-0.52-7.57c-0.4-0.1-0.78-0.03-1.2-0.05c-0.03,0.18-0.07,0.37-0.14,0.71
				c-0.16-0.32-0.25-0.49-0.34-0.67c-0.65-0.1-1.27-0.03-1.89,0.15c-0.12,0.23,0.1,0.56-0.26,0.75c-0.09-0.12-0.19-0.25-0.3-0.4
				c-0.36,0.15-0.73,0.3-1.08,0.44c-0.09,0.18-0.17,0.34-0.26,0.54c-0.1-0.13-0.19-0.25-0.29-0.38c-0.4,0.15-0.83,0.31-1.22,0.45
				c-0.06,0.2-0.11,0.34-0.18,0.56c-0.13-0.16-0.2-0.26-0.28-0.36c-0.52,0.16-1.05,0.31-1.56,0.5c-0.24,0.09-0.52,0.15-0.62,0.45
				c-0.01,0.03-0.13,0.01-0.2,0.02c0-0.46,0-0.92,0-1.38c0.45-0.28,0.84-0.65,1.38-0.76c0.06-0.01,0.15-0.03,0.18-0.08
				c0.46-0.68,1.24-0.92,1.9-1.26c0.77-0.39,1.46-0.92,2.29-1.25c0.02-0.32,0.32-0.45,0.55-0.48c0.29-0.05,0.43-0.22,0.62-0.41
				c-0.1-0.42-0.24-0.84-0.29-1.28c-0.05-0.43-0.01-0.87-0.01-1.33c0.11-0.1,0.23-0.2,0.36-0.32c0.27,0,0.54,0,0.83,0
				c0.06,0.08,0.12,0.17,0.18,0.26c-0.36,0.01-0.72,0.02-1.07,0.02c0,0.67,0,1.28,0,1.89c0.08,0.01,0.12,0.01,0.21,0.02
				c0.01-0.11,0.03-0.21,0.03-0.32c0.01-0.37,0-0.74,0.01-1.1c0-0.03,0.07-0.05,0.14-0.11c0.09,0.08,0.18,0.16,0.28,0.26
				c0,0.42,0,0.83,0,1.42c0.14-0.21,0.2-0.29,0.21-0.3c0.07-0.65,0.13-1.21,0.19-1.77c0.09,0.06,0.18,0.12,0.24,0.17
				c-0.09,0.65-0.17,1.27-0.25,1.9c-0.04,0.02-0.08,0.05,0.01-0.01c-0.06,0.09-0.03,0.05-0.01,0.01c0.04,0,0.1,0.01,0.13-0.01
				c0.51-0.27,1.01-0.54,1.52-0.82c-0.15,0.25,0.05,0.5-0.01,0.75c-0.19,0.1-0.38,0.24-0.59,0.31c-0.67,0.21-1.25,0.58-1.8,0.99
				c-0.39,0.29-0.79,0.52-1.23,0.72c-0.28,0.13-0.52,0.36-0.8,0.47c-0.56,0.22-0.99,0.66-1.6,0.81c-0.27,0.07-0.5,0.28-0.74,0.44
				c-0.21,0.14-0.39,0.33-0.62,0.45c-0.65,0.36-1.32,0.71-1.96,1.04c0,0.17,0,0.32,0,0.53c0.52-0.18,1-0.33,1.42-0.48
				c0.11-0.21,0.19-0.36,0.25-0.49c0.38-0.16,0.75-0.28,1.07-0.47c0.31-0.18,0.72-0.19,0.94-0.53c0.31,0.15,0.27-0.27,0.53-0.31
				c0.38-0.05,0.74-0.28,1.11-0.42c0.3-0.12,0.6-0.31,0.94-0.22c0.05,0.09,0.09,0.16,0.13,0.23c0.08-0.18,0.15-0.36,0.23-0.54
				c0.11,0.07,0.16,0.11,0.18,0.12c0.35-0.08,0.7-0.26,0.98-0.19c0.34,0.08,0.66-0.11,1,0.06c0.18,0.09,0.49,0.1,0.72-0.04
				c0-0.46,0.01-0.9,0-1.33c-0.02-0.48-0.07-0.96-0.01-1.44c0.02-0.15,0.12-0.37-0.12-0.48c0.24-1.26,0.07-2.54,0.14-3.8
				c0.04-0.73,0.09-1.46,0.36-2.16c0.09-0.22,0.12-0.47,0.19-0.7c0.1-0.37,0.27-0.7,0.53-0.99c0.08-0.09,0.11-0.23,0.16-0.35
				c0.18,0,0.37,0,0.55,0c0.05,0.15,0.06,0.32,0.15,0.43c0.43,0.54,0.57,1.19,0.78,1.82c0.1,0.32,0.06,0.65,0.16,0.99
				c0.18,0.65,0.18,1.34,0.16,2.02c-0.01,0.46,0,0.92,0,1.38c0,0.45-0.06,0.91,0.27,1.43c0.4,0.22,0.92,0.51,1.45,0.8
				c-0.13-0.7-0.04-1.35-0.08-2.02c0.11-0.11,0.22-0.23,0.34-0.35c0.27,0,0.54,0,0.87,0c0.1,0.15,0.22,0.34,0.32,0.5
				c0,0.31-0.01,0.59,0,0.86c0.01,0.25-0.05,0.48-0.13,0.72c-0.1,0.31-0.14,0.65-0.19,0.94c0.37,0.38,1.01,0.2,1.18,0.76
				c0.66,0.38,1.28,0.83,1.97,1.13c0.7,0.3,1.28,0.8,1.99,1.07c0.42,0.68,1.36,0.63,1.81,1.28c-0.01,0.42,0.03,0.85-0.04,1.42
				c-0.37-0.51-0.81-0.59-1.25-0.71c-0.36-0.09-0.69-0.28-1.05-0.44c-0.11,0.12-0.2,0.23-0.34,0.39c-0.05-0.2-0.08-0.32-0.12-0.47
				c-0.34-0.29-0.77-0.37-1.21-0.47c-0.12,0.1-0.22,0.19-0.36,0.32c-0.08-0.16-0.16-0.31-0.27-0.54c-0.27-0.11-0.64-0.27-1.06-0.44
				c-0.09,0.11-0.2,0.24-0.31,0.38c-0.32-0.13-0.14-0.45-0.2-0.7c-0.64-0.28-1.31-0.24-2.03-0.21c-0.01,0.16-0.03,0.31-0.05,0.48
				c-0.05,0.02-0.11,0.04-0.22,0.08c-0.03-0.19-0.05-0.36-0.08-0.54c-0.4,0-0.78,0-1.21,0c0,0.57,0,1.11,0,1.66
				c0.01,0.84-0.13,1.67-0.17,2.51c-0.03,0.73-0.15,1.46-0.25,2.19c-0.06,0.41-0.16,0.82-0.24,1.2c0.09,0.19,0.17,0.37,0.25,0.54
				l-0.02,0.02c-0.07,0-0.14,0-0.2,0c-0.06,0.2-0.11,0.39-0.16,0.58c-0.06,0.22-0.08,0.44,0.02,0.68c0.22,0.08,0.45,0.16,0.67,0.26
				c0.2,0.09,0.39,0.21,0.6,0.3c0.22,0.1,0.46,0.16,0.67,0.28c0.18,0.1,0.32,0.28,0.5,0.37c0.2,0.11,0.43,0.17,0.65,0.24
				c0.06-0.07,0.1-0.12,0.11-0.13c-0.07-0.42-0.28-0.71-0.65-0.89c-0.17-0.08-0.28-0.29-0.41-0.44l0.02-0.02
				c0.5,0.18,0.88,0.53,1.23,0.91c0,0.48,0,0.96,0,1.44c-0.09,0-0.18,0-0.28,0c-0.05-0.17-0.17-0.23-0.34-0.28
				c-0.65-0.2-1.28-0.5-1.94-0.64c-0.45-0.09-0.67-0.54-1.12-0.56c-0.05,0.18-0.11,0.37-0.15,0.56c-0.06,0.3-0.12,0.61-0.17,0.91
				C110.14,203.1,110,203.1,109.86,203.1z M109.03,182.27C108.99,182.29,108.95,182.31,109.03,182.27
				C108.98,182.34,109.01,182.3,109.03,182.27C109.07,182.24,109.11,182.22,109.03,182.27
				C109.08,182.19,109.06,182.23,109.03,182.27z M119.93,192.21c0.03,0.04,0.05,0.07,0.08,0.11c0.01-0.01,0.03-0.03,0.04-0.04
				C120.01,192.25,119.97,192.22,119.93,192.21c-0.02-0.05-0.04-0.08-0.07-0.12c-0.01,0.01-0.03,0.03-0.04,0.04
				C119.85,192.15,119.89,192.18,119.93,192.21z M99.93,192.34c0.08-0.02,0.16-0.04,0.24-0.06c-0.02-0.03-0.03-0.06-0.05-0.09
				C100.05,192.24,99.99,192.29,99.93,192.34c-0.05,0.02-0.08,0.04-0.12,0.07c0.01,0.01,0.03,0.03,0.04,0.04
				C99.88,192.42,99.9,192.38,99.93,192.34z M119.25,191.65c-0.03-0.04-0.05-0.07,0.01,0.02
				C119.16,191.6,119.2,191.63,119.25,191.65c0.01,0.09,0.03,0.16,0.05,0.24c0.03-0.01,0.06-0.03,0.1-0.04
				C119.34,191.78,119.29,191.71,119.25,191.65z M118.55,191.24c0.02,0.04,0.05,0.08-0.01-0.01
				C118.63,191.28,118.59,191.26,118.55,191.24c-0.02-0.18-0.16-0.13-0.27-0.14c-0.05-0.15-0.13-0.19-0.3-0.01
				c0.13,0.01,0.22,0.01,0.3,0.02C118.3,191.28,118.44,191.22,118.55,191.24z M115.79,191.24c0.02,0.04,0.05,0.08-0.01-0.01
				C115.87,191.28,115.83,191.26,115.79,191.24c-0.05-0.16-0.13-0.19-0.3-0.02C115.63,191.23,115.71,191.23,115.79,191.24z
				 M101.72,191.24c0.11-0.01,0.25,0.04,0.28-0.14c0.04-0.02,0.08-0.05-0.01,0.01c0.06-0.09,0.03-0.05,0.01-0.01
				C101.88,191.11,101.74,191.06,101.72,191.24c-0.04,0.02-0.08,0.05,0.01-0.01C101.67,191.31,101.69,191.28,101.72,191.24z
				 M103.51,190.27c0.11-0.01,0.25,0.04,0.28-0.14c0.11-0.01,0.25,0.04,0.28-0.14c0.05-0.05,0.09-0.09,0.14-0.14
				c0.11-0.01,0.25,0.04,0.28-0.14c0.11-0.01,0.25,0.04,0.28-0.14c0.18-0.06,0.36-0.12,0.54-0.18c0.01-0.1,0.01-0.17,0.01-0.23
				c0.11-0.01,0.25,0.04,0.28-0.14c0.04-0.02,0.08-0.05,0,0c0.05-0.08,0.02-0.04,0,0c-0.11,0.01-0.25-0.04-0.28,0.14
				c-0.11,0-0.22,0-0.34,0c-0.07,0.15-0.14,0.28-0.21,0.41c-0.11,0.01-0.25-0.04-0.28,0.14c-0.11,0.01-0.25-0.04-0.28,0.14
				c-0.05,0.05-0.09,0.09-0.14,0.14c-0.11,0.01-0.25-0.04-0.28,0.14C103.68,190.14,103.54,190.09,103.51,190.27
				C103.47,190.29,103.43,190.32,103.51,190.27C103.46,190.35,103.49,190.31,103.51,190.27z M103.1,190.54
				c-0.08,0.02-0.16,0.04-0.24,0.05c0.02,0.03,0.03,0.06,0.05,0.09C102.97,190.64,103.03,190.6,103.1,190.54
				C103.14,190.52,103.18,190.5,103.1,190.54C103.15,190.47,103.12,190.51,103.1,190.54z M116.9,190.41
				c-0.05-0.05-0.09-0.09-0.14-0.14c-0.03-0.18-0.17-0.13-0.28-0.14c-0.03-0.18-0.17-0.13-0.28-0.14c-0.06-0.21-0.2-0.29-0.41-0.28
				c-0.03-0.18-0.17-0.13-0.28-0.14c-0.02-0.18-0.17-0.13-0.28-0.14c0-0.07-0.01-0.13-0.01-0.23c-0.17-0.06-0.35-0.12-0.54-0.18
				c-0.02-0.04-0.05-0.08,0,0c-0.08-0.05-0.04-0.02,0,0c0.07,0.13,0.14,0.27,0.21,0.41c0.12,0,0.23,0,0.34,0
				c0.02,0.18,0.17,0.13,0.28,0.14c0.02,0.18,0.17,0.13,0.28,0.14c0.06,0.21,0.2,0.29,0.41,0.28c0.02,0.18,0.17,0.13,0.28,0.14
				c0.03,0.18,0.17,0.13,0.28,0.14C116.8,190.32,116.85,190.36,116.9,190.41c0.02,0.18,0.17,0.13,0.27,0.14
				c0.05,0.16,0.13,0.19,0.3,0.01c-0.14-0.01-0.22-0.01-0.3-0.01C117.15,190.37,117.01,190.42,116.9,190.41z M100.76,191.93
				c0.08-0.01,0.15-0.02,0.25-0.03c0.01-0.09,0.02-0.17,0.03-0.25c0.04-0.03,0.07-0.05-0.02,0.01c0.06-0.09,0.04-0.06,0.01-0.02
				c-0.08,0.01-0.15,0.02-0.25,0.03C100.77,191.77,100.76,191.85,100.76,191.93c-0.04,0.02-0.08,0.04,0.01-0.02
				C100.7,192,100.73,191.97,100.76,191.93z M113.72,188.48c-0.02-0.18-0.17-0.13-0.28-0.14c-0.13-0.31-0.4-0.37-0.69-0.41
				c-0.16-0.24-0.44-0.25-0.67-0.35c0.13,0.3,0.38,0.36,0.67,0.35c0.13,0.3,0.4,0.37,0.69,0.41
				C113.47,188.52,113.61,188.46,113.72,188.48c0.07,0.28,0.33,0.27,0.65,0.47C114.17,188.57,113.96,188.5,113.72,188.48z
				 M107.51,187.92c-0.37,0.11-0.75,0.19-0.97,0.55c-0.42,0.12-0.42,0.12-0.6,0.42c0.19-0.16,0.52-0.1,0.6-0.42
				C106.91,188.37,107.29,188.29,107.51,187.92c0.19-0.05,0.38-0.08,0.56-0.15c0.06-0.02,0.09-0.13,0.14-0.21
				c-0.02-0.02-0.05-0.04-0.07-0.05C107.93,187.65,107.72,187.79,107.51,187.92z M110.96,201.45L110.96,201.45
				c0.12,0.23,0.42,0.1,0.56,0.28c0.23,0.3,0.57,0.34,0.9,0.44c0.48,0.15,0.95,0.34,1.42,0.51c0.03,0.01,0.08-0.02,0.2-0.06
				c-0.33-0.22-0.63-0.38-0.96-0.49c-0.2-0.06-0.43-0.12-0.59-0.25c-0.48-0.4-1.06-0.61-1.62-0.84c-0.04-0.02-0.12,0.04-0.19,0.06
				c0.01,0.12,0.02,0.23,0.03,0.33C110.83,201.44,110.89,201.44,110.96,201.45z M110.47,200.89c0.21-1.35,0.4-2.56,0.6-3.79
				c-0.07-0.09-0.16-0.21-0.27-0.35c0.13-0.27,0.09-0.62,0.46-0.78c-0.09-0.58,0.09-1.15,0.1-1.74c0.04-1.86,0.02-3.72,0.01-5.59
				c0-0.22-0.07-0.43-0.11-0.68c0.15-0.38,0.21-3.25,0.08-5.25c-0.1-0.02-0.21-0.04-0.36-0.06c-0.06-0.23-0.12-0.48-0.18-0.71
				c0.14-0.08,0.22-0.12,0.29-0.16c0-0.19,0-0.37,0-0.43c-0.35-0.4-0.64-0.72-0.99-1.11c-0.35,0.57-0.96,0.85-1.11,1.53
				c0.18,0.06,0.32,0.1,0.48,0.15c-0.08,0.26-0.15,0.49-0.22,0.72c-0.12,0.03-0.22,0.05-0.33,0.08c-0.18,1.66-0.08,3.32-0.1,5.05
				c0.04,0.05,0.13,0.17,0.19,0.24c0,0.17,0,0.28,0,0.39c-0.09,0.05-0.16,0.09-0.24,0.13c0.04,0.27-0.02,0.56,0.01,0.81
				c0.07,0.5,0.03,1,0.03,1.49c0.01,0.53,0.1,1.07-0.06,1.59c-0.03,0.08-0.03,0.2,0,0.27c0.24,0.5,0.11,1.03,0.13,1.55
				c0.02,0.61-0.04,1.22,0.2,1.77c0.09,0.06,0.16,0.1,0.22,0.13c-0.02,0.37,0.03,0.7-0.12,1.04c-0.09,0.19-0.09,0.48,0,0.68
				c0.21,0.47,0.09,0.97,0.24,1.44c0.13,0.41,0.14,0.86,0.2,1.29c0.02,0,0.04,0,0.06,0c0-1.46,0-2.93,0-4.35
				c0.1-0.18,0.17-0.32,0.28-0.5c0.16,0.08,0.31,0.16,0.43,0.22c0.05,0.86,0.08,1.65,0.16,2.44
				C110.64,199.18,110.3,199.95,110.47,200.89z M121.16,193.1c-0.5-0.25-1.01-0.48-1.49-0.76c-0.47-0.27-0.95-0.54-1.36-0.89
				c-0.33-0.27-0.76-0.29-1.07-0.52c-1-0.74-2.2-1.11-3.18-1.88c-0.38-0.3-0.82-0.53-1.27-0.73c-0.34-0.16-0.68-0.4-1.11-0.38
				c0,0.84,0,1.64,0,2.48c0.27,0,0.52,0,0.77,0c0.24,0,0.47-0.08,0.71-0.09c0.53-0.03,1,0.21,1.49,0.27
				c0.04,0.12,0.07,0.23,0.11,0.37c0.07-0.12,0.11-0.2,0.16-0.29c0.76,0.06,1.35,0.55,2.05,0.75c0.23,0.06,0.4,0.32,0.59,0.48
				c0.68,0.18,1.29,0.52,1.91,0.77c0.09,0.19,0.17,0.35,0.26,0.53c0.23,0.05,0.47,0.08,0.7,0.16c0.24,0.08,0.43,0.35,0.73,0.17
				C121.16,193.37,121.16,193.23,121.16,193.1z M109.15,199.52c-1.03,0.72-2.01,1.41-2.98,2.08c0,0.24,0,0.45,0,0.67
				c0.47-0.07,0.72-0.44,1.08-0.62c0.37-0.19,0.8-0.27,1.14-0.51c0.33-0.23,0.78-0.15,1.04-0.5
				C109.34,200.28,109.25,199.92,109.15,199.52z M114.52,187.6c0-0.59,0-1.15,0-1.72c-0.32,0-0.61,0-0.93,0c0,0.62,0,1.21,0,1.8
				c0,0.03,0.05,0.06,0.08,0.09c0.04-0.01,0.08-0.02,0.19-0.03c0-0.48,0-0.97,0-1.55c0.19,0.13,0.3,0.2,0.42,0.29
				c0,0.43,0,0.86,0,1.34C114.41,187.71,114.47,187.65,114.52,187.6z M109.38,201.01c-0.31,0.13-0.6,0.24-0.88,0.35
				c-0.29,0.12-0.61,0.19-0.84,0.38c-0.23,0.19-0.5,0.33-0.74,0.5c-0.23,0.16-0.6,0.07-0.78,0.43c0.67-0.09,1.2-0.42,1.81-0.56
				c0.57-0.13,1.02-0.61,1.62-0.7C109.5,201.28,109.46,201.18,109.38,201.01z M110.24,200.17c0-1.03,0-2.07,0-3.11
				c-0.08-0.01-0.12-0.01-0.16-0.02c-0.12,0.57-0.11,2.67,0.01,3.15C110.13,200.19,110.17,200.18,110.24,200.17z M113.71,190.72
				c0.02,0.16,0.04,0.27,0.05,0.38c0.24-0.03,0.47,0.08,0.66-0.09C114.31,190.62,114.04,190.67,113.71,190.72z M110.04,179.73
				c0.2,0.11,0.34,0.2,0.48,0.28c0.02-0.03,0.04-0.06,0.06-0.09c-0.13-0.14-0.26-0.29-0.42-0.46c-0.2,0.14-0.38,0.25-0.55,0.39
				c-0.03,0.02,0,0.12,0,0.21C109.76,179.95,109.88,179.85,110.04,179.73z M106.4,190.72c-0.36,0.01-0.36,0.01-0.53,0.21
				c-0.02,0.02,0.02,0.08,0.03,0.14c0.16,0,0.33,0,0.5,0C106.4,190.94,106.4,190.85,106.4,190.72z M113.43,190.55
				c-0.21,0-0.36-0.02-0.51,0.01c-0.06,0.01-0.11,0.12-0.21,0.23c0.3,0,0.51,0,0.72,0C113.43,190.71,113.43,190.66,113.43,190.55z
				 M107.5,190.58c-0.26-0.02-0.39-0.05-0.51-0.03c-0.06,0.01-0.11,0.12-0.16,0.18C107.03,190.77,107.23,190.91,107.5,190.58z
				 M111.82,190.72c0.21,0.12,0.42,0.13,0.79,0C112.23,190.72,112.02,190.72,111.82,190.72z M108.43,190.78
				c0.01-0.02,0.01-0.05,0.02-0.07c-0.21,0-0.42,0-0.62,0c0,0.02,0,0.05,0,0.07C108.02,190.78,108.22,190.78,108.43,190.78z
				 M111.63,187.2c0.03,0.2,0.04,0.31,0.07,0.48c0.1-0.12,0.16-0.18,0.22-0.25C111.84,187.36,111.77,187.31,111.63,187.2z
				 M111.2,182.15c-0.03,0-0.05,0.01-0.08,0.01c0.01,0.07,0.02,0.14,0.02,0.21c0.03,0,0.05-0.01,0.08-0.01
				C111.22,182.29,111.21,182.22,111.2,182.15z M105.89,188.18c0.03,0,0.05-0.01,0.08-0.01c-0.01-0.07-0.02-0.14-0.02-0.21
				c-0.03,0-0.05,0.01-0.08,0.01C105.88,188.04,105.88,188.11,105.89,188.18z M113.85,187.97c-0.04,0-0.08,0-0.12,0
				c0.01,0.07,0.02,0.14,0.03,0.21c0.02,0,0.04,0,0.06,0C113.83,188.11,113.84,188.04,113.85,187.97z M114.38,187.94
				c-0.03,0-0.05,0.01-0.08,0.01c0.01,0.07,0.02,0.14,0.02,0.21c0.03,0,0.05-0.01,0.08-0.01
				C114.39,188.08,114.39,188.01,114.38,187.94z M104.74,191.2c0-0.03-0.01-0.05-0.01-0.08c-0.07,0.01-0.14,0.01-0.21,0.02
				c0,0.03,0.01,0.06,0.01,0.08C104.6,191.22,104.67,191.21,104.74,191.2z M105.05,191.27c0,0.03,0.01,0.05,0.01,0.08
				c0.07-0.01,0.14-0.01,0.21-0.02c0-0.03-0.01-0.05-0.01-0.08C105.19,191.25,105.12,191.26,105.05,191.27z M115.22,191.34
				c0-0.03-0.01-0.05-0.01-0.08c-0.07,0.01-0.14,0.02-0.21,0.02c0,0.03,0.01,0.05,0.01,0.08
				C115.08,191.36,115.15,191.35,115.22,191.34z M103.53,191.55c0,0.03,0.01,0.05,0.01,0.08c0.07-0.01,0.14-0.01,0.21-0.02
				c0-0.03-0.01-0.06-0.01-0.08C103.67,191.53,103.6,191.54,103.53,191.55z M116.53,191.52c0,0.04,0,0.08,0,0.12
				c0.07-0.01,0.14-0.02,0.21-0.03c0-0.02,0-0.04,0-0.06C116.67,191.54,116.6,191.53,116.53,191.52z M102.37,190.87
				c-0.01-0.01-0.03-0.02-0.04-0.02c-0.02,0.01-0.03,0.02-0.05,0.04c0.03,0.01,0.06,0.02,0.08,0.02
				C102.37,190.9,102.37,190.88,102.37,190.87z M101.41,191.44c-0.01-0.01-0.03-0.03-0.04-0.04c-0.01,0.01-0.03,0.03-0.04,0.04
				c0.02,0.01,0.04,0.03,0.06,0.04C101.4,191.46,101.41,191.45,101.41,191.44z M104.04,191.44c-0.01-0.01-0.03-0.03-0.04-0.04
				c-0.01,0.01-0.03,0.03-0.04,0.04c0.02,0.01,0.04,0.03,0.06,0.04C104.02,191.46,104.03,191.45,104.04,191.44z M115.49,191.44
				c-0.01-0.01-0.03-0.03-0.04-0.04c-0.01,0.01-0.03,0.03-0.04,0.04c0.02,0.01,0.04,0.03,0.06,0.04
				C115.48,191.46,115.48,191.45,115.49,191.44z M116.32,191.44c-0.01-0.01-0.03-0.03-0.04-0.04c-0.01,0.01-0.03,0.03-0.04,0.04
				c0.02,0.01,0.04,0.03,0.06,0.04C116.3,191.46,116.31,191.45,116.32,191.44z M118.93,191.42c-0.01-0.01-0.03-0.02-0.04-0.02
				c-0.02,0.01-0.03,0.02-0.05,0.04c0.03,0.01,0.06,0.02,0.08,0.02C118.93,191.45,118.93,191.44,118.93,191.42z M104.44,191.56
				c-0.01-0.01-0.03-0.02-0.04-0.02c-0.02,0.01-0.03,0.02-0.05,0.04c0.03,0.01,0.06,0.02,0.08,0.02
				C104.44,191.59,104.44,191.57,104.44,191.56z M115.87,191.62c0.01-0.01,0.03-0.03,0.04-0.04c-0.01-0.01-0.03-0.03-0.04-0.04
				c-0.01,0.02-0.03,0.04-0.04,0.06C115.84,191.61,115.86,191.61,115.87,191.62z M105.54,191.15c-0.01-0.01-0.03-0.02-0.04-0.02
				c-0.02,0.01-0.03,0.02-0.05,0.04c0.03,0.01,0.06,0.02,0.08,0.02C105.54,191.17,105.54,191.16,105.54,191.15z M105,191.02
				c-0.01-0.01-0.03-0.03-0.04-0.04c-0.01,0.01-0.03,0.03-0.04,0.04c0.02,0.01,0.04,0.03,0.06,0.04
				C104.99,191.05,105,191.03,105,191.02z M103.7,191.96c-0.01,0.01-0.02,0.03-0.02,0.04c0.01,0.02,0.02,0.03,0.04,0.04
				c0.01-0.03,0.02-0.06,0.02-0.08C103.73,191.96,103.71,191.96,103.7,191.96z M119.63,191.99c-0.01-0.01-0.03-0.03-0.04-0.04
				c-0.01,0.01-0.03,0.03-0.04,0.04c0.02,0.01,0.04,0.03,0.06,0.04C119.62,192.01,119.62,192,119.63,191.99z M100.45,192.13
				c-0.01-0.01-0.03-0.03-0.04-0.04c-0.01,0.01-0.03,0.03-0.04,0.04c0.02,0.01,0.04,0.03,0.06,0.04
				C100.43,192.15,100.44,192.14,100.45,192.13z M115.29,191c-0.01,0.01-0.02,0.03-0.02,0.04c0.01,0.02,0.02,0.03,0.04,0.05
				c0.01-0.03,0.02-0.06,0.02-0.08C115.32,191,115.3,191,115.29,191z M120.46,192.4c-0.01-0.01-0.03-0.03-0.04-0.04
				c-0.01,0.01-0.03,0.03-0.04,0.04c0.02,0.01,0.04,0.03,0.06,0.04C120.44,192.43,120.45,192.41,120.46,192.4z M120.72,192.53
				c-0.01-0.01-0.03-0.02-0.04-0.02c-0.02,0.01-0.03,0.02-0.05,0.04c0.03,0.01,0.06,0.02,0.08,0.02
				C120.72,192.55,120.72,192.54,120.72,192.53z M106.51,187.97c-0.01-0.01-0.03-0.02-0.04-0.02c-0.02,0.01-0.03,0.02-0.04,0.04
				c0.03,0.01,0.06,0.02,0.08,0.02C106.51,188,106.51,187.99,106.51,187.97z M99.61,192.53c-0.01-0.01-0.03-0.02-0.04-0.02
				c-0.02,0.01-0.03,0.02-0.05,0.04c0.03,0.01,0.06,0.02,0.08,0.02C99.61,192.55,99.61,192.54,99.61,192.53z"/>
			<path d="M111.38,199.64c0.25-0.05,0.34,0.19,0.51,0.28c0.21,0.12,0.38,0.35,0.59,0.39c0.28,0.06,0.42,0.22,0.55,0.43l-0.02,0.02
				c-0.67-0.19-1.2-0.59-1.66-1.11L111.38,199.64z"/>
			<path d="M111.25,199.51c0.05,0.05,0.09,0.09,0.14,0.14l-0.02,0.02c-0.05-0.05-0.09-0.09-0.14-0.14L111.25,199.51z"/>
			<path d="M112.11,188.38c0.02,0,0.03,0,0.04,0c-0.01,0.03-0.02,0.06-0.02,0.08c-0.01-0.01-0.03-0.03-0.04-0.05
				C112.09,188.4,112.11,188.39,112.11,188.38z"/>
			<path d="M110.96,201.45C110.99,201.41,111.01,201.37,110.96,201.45C111.04,201.4,111,201.42,110.96,201.45L110.96,201.45z"/>
		</g>
	</g>
</g>
<g id="acft2">
	<g>
		<path class="st2" d="M23.69,31.31c0.07-0.07,0.14-0.14,0.21-0.21c0.31,0,0.6-0.11,0.88-0.25c0.86-0.4,1.73-0.8,2.6-1.2
			c-0.1-0.19-0.29-0.28-0.34-0.53c-0.04-0.25-0.28-0.46-0.44-0.69c0.07-0.07,0.14-0.14,0.21-0.21c0.36,0.38,0.88,0.48,1.22,0.79
			c0.1-0.23,0.19-0.44,0.29-0.64c0.38-0.82,0.77-1.63,1.13-2.45c0.09-0.21,0.22-0.34,0.41-0.43c0.29,0.29,0.56,0.57,0.86,0.87
			c-0.13,1.41-0.48,2.82-0.57,4.29c0.85,0.28,1.37,0.97,2.07,1.42c0.69,0.45,1.27,1.08,1.87,1.65c0.63,0.6,1.23,1.24,1.84,1.86
			c0.29-0.29,0.56-0.55,0.81-0.8c-0.09-0.14-0.17-0.24-0.32-0.46c0.32,0.06,0.51,0.09,0.71,0.12c0.23-0.23,0.44-0.47,0.68-0.66
			c0.2-0.16,0.26-0.38,0.36-0.58c0.11-0.22-0.08-0.39-0.19-0.57c-0.05-0.08-0.06-0.17-0.11-0.3c0.32,0.07,0.49,0.11,0.64,0.14
			c0.18-0.42,0.35-0.82,0.49-1.14c-0.09-0.22-0.16-0.38-0.25-0.58c0.22-0.01,0.37-0.02,0.52-0.03c0.28-0.27,0.21-0.68,0.47-0.94
			c0.09-0.09,0.03-0.32-0.14-0.44c-0.04-0.03-0.03-0.11-0.06-0.23c0.2-0.01,0.36-0.01,0.48-0.02c0.13-0.26,0.3-0.48,0.37-0.74
			c0.12-0.48,0.62-0.85,0.42-1.43c-0.01-0.03,0.1-0.1,0.15-0.15c0.34,0.35,0.68,0.69,1.03,1.04c-0.1,0.44-0.2,0.89-0.31,1.33
			c-0.18,0.7-0.35,1.4-0.58,2.09c-0.27,0.84-0.44,1.72-0.65,2.58c-0.15,0.59-0.31,1.18-0.45,1.71c0.29,0.53,0.9,0.4,1.2,0.82
			c0.28,0.39,0.66,0.7,0.99,1.03c-0.08,0.48-0.44,0.73-0.71,0.99c-0.25,0.05-0.45,0.09-0.68,0.13c-0.17-0.25-0.33-0.54-0.55-0.78
			c-0.23-0.25-0.43-0.52-0.59-0.82c-0.25,0.73-0.57,1.4-0.34,2.14c0.58,0.59,1.16,1.17,1.74,1.76c0.32,0.33,0.68,0.63,0.96,0.99
			c0.28,0.35,0.5,0.76,0.75,1.14c0.5,0.79,0.78,1.49,0.86,2.34c-0.1,0.1-0.21,0.21-0.31,0.31c-0.73-0.23-1.54-0.29-2.11-0.89
			c-0.34,0.02-0.49-0.31-0.78-0.4c-0.24-0.07-0.38-0.37-0.67-0.48c-0.27-0.11-0.45-0.42-0.68-0.65c-0.66-0.67-1.33-1.35-1.96-1.99
			c-0.77-0.27-1.4,0.19-2.18,0.25c0.73,0.42,1.13,1.04,1.64,1.48c-0.09,0.52-0.47,0.75-0.67,0.96c-0.27,0.04-0.44,0.06-0.56,0.07
			c-0.41-0.42-0.79-0.8-1.14-1.16c-0.05-0.42-0.24-0.72-0.6-0.96c-0.19,0.04-0.39,0.09-0.59,0.14c-0.48,0.11-0.96,0.28-1.44,0.38
			c-1.18,0.24-2.33,0.59-3.51,0.86c-0.73,0.17-1.44,0.41-2.19,0.52c-0.34-0.35-0.68-0.69-1.03-1.04c0.08-0.05,0.21-0.16,0.22-0.15
			c0.2,0.22,0.45,0.04,0.56-0.04c0.51-0.35,1.13-0.46,1.65-0.78c-0.03-0.12-0.06-0.24-0.12-0.46c0.3,0.1,0.5,0.17,0.68,0.24
			c0.34-0.15,0.67-0.3,0.98-0.44c0.01-0.19,0.02-0.33,0.04-0.56c0.24,0.13,0.4,0.21,0.55,0.3c0.39-0.17,0.79-0.33,1.18-0.5
			c0-0.21-0.27-0.43,0.07-0.66c0.12,0.12,0.25,0.25,0.37,0.38c0.24-0.06,0.44-0.11,0.6-0.15c0.37-0.36,0.71-0.7,1.06-1.04
			c-0.09-0.12-0.17-0.23-0.24-0.34c0.05-0.06,0.08-0.09,0.12-0.13c0.18,0.04,0.35,0.08,0.47,0.11c0.26-0.26,0.48-0.47,0.71-0.7
			c-0.45-0.45-0.88-0.87-1.29-1.32c-0.41-0.45-0.79-0.94-1.19-1.41c-0.39-0.47-0.79-0.94-1.18-1.41c-0.02-0.02-0.05-0.04-0.05-0.05
			c0.01-0.45-0.52-0.54-0.62-0.91c-0.11-0.41-0.51-0.55-0.69-0.84c-1.37,0.18-2.71,0.35-4.01,0.51
			C24.34,31.97,24.01,31.64,23.69,31.31z"/>
	</g>
	<g>
		<g>
			<path d="M35.16,41.42c0.46,0.51,0.92,1.02,1.39,1.55c0.12,0.57-0.46,0.71-0.73,1.14c-0.11-0.12-0.18-0.19-0.25-0.27
				c0.26-0.23,0.53-0.46,0.83-0.72c-0.27-0.25-0.49-0.46-0.71-0.66c-0.22-0.2-0.39-0.45-0.86-0.69c0.25,0.56,0.58,0.75,0.8,1.03
				c0.08,0.1,0.09,0.26,0.13,0.39c-0.05,0.04-0.1,0.07-0.15,0.11c-0.32-0.28-0.64-0.55-0.96-0.83c-0.04,0.04-0.08,0.08-0.12,0.12
				c0.35,0.41,0.69,0.83,1.04,1.24c-0.74-0.25-1.13-0.7-1.39-1.59c0.05-0.04,0.11-0.08,0.16-0.12c-0.02-0.02-0.04-0.04-0.06-0.06
				c-0.04,0.05-0.08,0.11-0.12,0.16c-0.18-0.12-0.35-0.25-0.55-0.39c-0.13,0-0.28,0-0.44,0c-0.14-0.33-0.35-0.2-0.55,0
				c0.18,0,0.37,0,0.55,0c-0.08,0.07-0.16,0.18-0.25,0.19c-0.18,0.03-0.37,0.01-0.55,0.01l0,0c-0.1-0.37-0.4-0.13-0.6-0.2
				l-0.01-0.01c0.06-0.07,0.11-0.17,0.18-0.19c0.31-0.08,0.63-0.12,0.93-0.21c0.33-0.1,0.66-0.24,0.98-0.36
				c0.31,0.37,0.64,0.04,0.86-0.06c0.48-0.22,1.11-0.05,1.42-0.52c-0.59-0.59-1.17-1.17-1.75-1.74c-0.21,0.18-0.51,0.42-0.81,0.67
				c0-0.12,0-0.25,0-0.37c0.06-0.07,0.13-0.14,0.19-0.21c0.07-0.07,0.13-0.13,0.2-0.2c0.05-0.04,0.11-0.08,0.16-0.12
				c-0.02-0.02-0.04-0.04-0.06-0.06c-0.04,0.05-0.08,0.11-0.12,0.16c-0.07,0.07-0.13,0.13-0.2,0.2c-0.07,0.06-0.14,0.13-0.21,0.19
				c-0.19,0.17-0.39,0.33-0.67,0.58c0.23,0.03,0.35,0.04,0.47,0.06c-0.17,0.32-0.35,0.61-0.78,0.58c0.05-0.18,0.1-0.36,0.15-0.55
				c-0.05-0.03-0.11-0.06-0.16-0.09c-0.15,0.16-0.3,0.32-0.55,0.59c0.29,0.04,0.41,0.05,0.54,0.07c-0.09,0.13-0.18,0.26-0.27,0.38
				c-0.08-0.06-0.13-0.09-0.19-0.13c-0.42,0.46-1.25,0.86-1.94,0.94c-0.04-0.05-0.07-0.11-0.11-0.16c-0.02,0.02-0.04,0.04-0.06,0.06
				c0.05,0.04,0.11,0.07,0.16,0.11c-0.83,0.57-1.87,0.67-2.71,1.15c-0.23-0.11-0.42-0.21-0.5-0.25c-0.46,0.12-0.83,0.21-1.2,0.31
				l-0.01-0.01c0.26-0.16,0.52-0.34,0.79-0.48c0.25-0.13,0.52-0.21,0.77-0.32c-0.04-0.16-0.07-0.26-0.1-0.37
				c1.09,0.29,1.35,0.2,1.87-0.65c0.11,0.04,0.22,0.08,0.4,0.15c0.39-0.19,0.83-0.42,1.29-0.65c-0.06-0.16-0.1-0.3-0.15-0.44
				c0.08-0.02,0.16-0.06,0.19-0.04c0.19,0.12,0.37,0.26,0.55,0.39c0.04,0.05,0.07,0.11-0.02-0.03c0.13,0.09,0.08,0.05,0.03,0.02
				c0.45-0.41,0.91-0.82,1.36-1.23c-0.06-0.17-0.12-0.31-0.22-0.57c0.22,0.09,0.34,0.13,0.49,0.19c0.2-0.24,0.4-0.49,0.63-0.78
				c-0.38-0.45-0.85-1.01-1.31-1.58c-0.09-0.12-0.12-0.29-0.17-0.44l0.02-0.02c0.15,0.12,0.32,0.23,0.45,0.37
				c0.62,0.68,1.22,1.37,1.85,2.04c0.38,0.41,0.81,0.79,1.19,1.2c0.37,0.4,0.82,0.71,1.16,1.14c0.35,0.44,0.79,0.8,1.19,1.21
				c0.67,0.69,1.33,1.38,1.99,2.07l-0.02,0.02c-0.32,0.05-0.47-0.19-0.65-0.37c-0.75-0.75-1.49-1.5-2.23-2.25c-0.4,0-0.76,0-1.12,0
				l0,0c0-0.07,0-0.13,0-0.2c0.06-0.03,0.11-0.07-0.01,0c0.07-0.12,0.04-0.06,0,0c-0.18,0-0.37-0.02-0.55,0.01
				c-0.09,0.02-0.17,0.12-0.25,0.19l0,0c-0.18,0.02-0.37,0.04-0.55,0.06c0,0.05,0,0.09,0.01,0.14
				C34.8,41.42,34.98,41.42,35.16,41.42L35.16,41.42z M36.85,41c-0.22-0.2-0.31-0.28-0.41-0.37C36.3,40.95,36.42,41.02,36.85,41z
				 M34.27,41.63c0.01-0.05,0.03-0.11,0.04-0.16c-0.17,0-0.34,0-0.51,0c0,0.03-0.01,0.07-0.01,0.1
				C33.95,41.58,34.11,41.61,34.27,41.63z M31.21,40.67c-0.01,0.02-0.03,0.04-0.03,0.05c0.01,0.03,0.04,0.04,0.05,0.07
				c0.01-0.04,0.02-0.08,0.04-0.12C31.26,40.67,31.24,40.67,31.21,40.67z M34.72,41.71c-0.02-0.02-0.04-0.04-0.06-0.06
				c-0.02,0.02-0.04,0.04-0.06,0.06c0.03,0.02,0.06,0.04,0.09,0.06C34.7,41.75,34.71,41.73,34.72,41.71z"/>
			<path d="M38.38,33.19c-0.14-0.22-0.29-0.45-0.54-0.85c0.35,0.1,0.51,0.14,0.64,0.18c0.16-0.24,0.33-0.48,0.5-0.73
				c0.07,0.07,0.13,0.14,0.2,0.2c0.08,0.22,0.19,0.28,0.43,0.02c-0.19-0.01-0.3-0.02-0.42-0.03c-0.07-0.07-0.13-0.13-0.2-0.2
				c-0.03-0.31-0.07-0.62-0.1-1c0.1,0.03,0.24,0.07,0.4,0.12c0.15-0.36,0.32-0.74,0.49-1.15c-0.06-0.13-0.12-0.27-0.22-0.48
				c0.2-0.05,0.36-0.1,0.51-0.14c0.18-0.26,0.35-0.51,0.52-0.77c0,0,0.01,0.01,0.01,0.01c0.03,0.31,0.06,0.62,0.09,0.96
				c-0.21,0.48-0.44,1.01-0.67,1.53c0.3,0.35-0.17,0.57-0.17,0.9c0.01,0.34-0.24,0.68-0.37,1.02c-0.13,0.33-0.24,0.66-0.39,0.97
				c-0.05,0.1-0.2,0.15-0.3,0.22c-0.06-0.07-0.13-0.14-0.19-0.21c-0.04-0.05-0.08-0.1-0.12-0.15c-0.02,0.02-0.04,0.04-0.06,0.06
				c0.05,0.04,0.1,0.08,0.16,0.12c0.07,0.06,0.14,0.13,0.21,0.19c0.03,0.3-0.08,0.51-0.39,0.59c-0.01-0.19-0.03-0.37-0.05-0.64
				c-0.18,0.09-0.31,0.12-0.39,0.19c-0.09,0.08-0.14,0.2-0.14,0.2c0.1,0.21,0.16,0.35,0.2,0.43c0.19-0.08,0.28-0.12,0.36-0.16
				c0.03,0.43-0.26,0.61-0.58,0.78c-0.02-0.12-0.03-0.25-0.07-0.47c-0.24,0.15-0.39,0.25-0.58,0.37c0.16,0.13,0.29,0.22,0.42,0.32
				c0,0.1,0,0.2,0,0.29c-0.28,0.15-0.54,0.3-0.85,0.47c0.45,0.52,0.85,0.97,1.25,1.43c-0.17-0.07-0.39-0.09-0.5-0.22
				c-0.58-0.64-1.14-1.31-1.7-1.97l0.02-0.02c0.5,0.07,0.61-0.43,0.94-0.62c-0.05-0.18-0.09-0.34-0.15-0.56
				c0.18,0.08,0.29,0.13,0.49,0.22C37.47,34.17,37.92,33.68,38.38,33.19c0.03,0.06,0.07,0.12-0.02-0.02
				C38.49,33.26,38.43,33.22,38.38,33.19z M36.78,35.81c0.05-0.04,0.1-0.08,0.16-0.12c-0.02-0.02-0.04-0.04-0.06-0.06
				c-0.04,0.05-0.08,0.11-0.12,0.16c-0.05,0.04-0.1,0.08-0.16,0.12c0.02,0.02,0.04,0.04,0.06,0.06
				C36.7,35.92,36.74,35.86,36.78,35.81z M38.88,33.55c0.02-0.02,0.04-0.04,0.06-0.06c-0.02-0.02-0.04-0.04-0.06-0.06
				c-0.02,0.03-0.04,0.06-0.06,0.09C38.85,33.53,38.86,33.54,38.88,33.55z M39.09,33.15c0.02-0.02,0.04-0.04,0.06-0.06
				c-0.02-0.02-0.04-0.04-0.06-0.06c-0.02,0.03-0.04,0.06-0.06,0.09C39.05,33.13,39.07,33.14,39.09,33.15z M39.24,32.44
				c-0.01,0.02-0.03,0.04-0.03,0.06c0.01,0.03,0.04,0.04,0.05,0.07c0.01-0.04,0.02-0.08,0.04-0.12
				C39.29,32.44,39.27,32.44,39.24,32.44z"/>
			<path d="M29.12,32c-0.73,0-1.46-0.01-2.2-0.01l0,0c0.09-0.07,0.18-0.19,0.27-0.19c0.49-0.02,0.98-0.01,1.51-0.01
				c-0.18-0.3-0.29-0.55-0.46-0.76c-0.18-0.22-0.35-0.49-0.71-0.45c0.05-0.11,0.09-0.22,0.14-0.34c-0.09-0.07-0.18-0.14-0.28-0.23
				c-0.05,0.12-0.08,0.21-0.11,0.27c-0.33,0.04-0.65,0.08-0.97,0.12l-0.01-0.01c0.31-0.21,0.62-0.41,0.97-0.64
				c-0.19-0.41-0.38-0.82-0.66-1.41c0.6,0.34,1.05,0.59,1.49,0.84l0.02,0.02c0.1,0.33,0.32,0.19,0.48,0.14
				c0.12-0.13,0.21-0.24,0.3-0.34c-0.03,0.24-0.06,0.48-0.08,0.71c0.29,0.22,0.6,0.47,0.91,0.71c0.15-0.17,0.27-0.3,0.39-0.43
				c0,0,0,0,0,0c0,0.35-0.05,0.7,0.21,0.99l-0.02,0.02c-0.16-0.07-0.33-0.14-0.49-0.21c-0.16-0.07-0.33-0.14-0.5-0.2
				c-0.07-0.07-0.13-0.14-0.2-0.2c-0.07-0.07-0.13-0.14-0.2-0.2c-0.04-0.05-0.08-0.11-0.12-0.16c-0.02,0.02-0.04,0.04-0.06,0.06
				c0.05,0.04,0.11,0.08,0.16,0.12c0.07,0.06,0.14,0.13,0.21,0.19c0.07,0.07,0.14,0.13,0.2,0.2c0.66,0.69,1.32,1.38,1.98,2.07
				c0.25,0.26,0.55,0.5,0.52,0.95c-0.14-0.02-0.31,0.02-0.39-0.05c-0.49-0.38-0.96-0.79-1.43-1.19c-0.3-0.25-0.59-0.52-0.88-0.78
				c-0.07-0.07-0.13-0.13-0.2-0.2c0-0.13,0.01-0.26,0.01-0.39l0.09-0.01l0.09,0.01c0.07,0.07,0.13,0.13,0.2,0.2
				c0.07,0.07,0.13,0.13,0.2,0.2c0.07,0.07,0.13,0.13,0.2,0.2c0.07,0.07,0.13,0.13,0.2,0.2c0.07,0.07,0.13,0.13,0.2,0.2
				c0.07,0.07,0.13,0.13,0.2,0.2c0.07,0.07,0.13,0.13,0.2,0.2c0.07,0.07,0.13,0.14,0.2,0.2c0.04,0.05,0.08,0.11,0.12,0.16
				c0.02-0.02,0.04-0.04,0.06-0.06c-0.05-0.04-0.11-0.08-0.16-0.11c-0.07-0.07-0.13-0.13-0.2-0.2c-0.07-0.07-0.13-0.13-0.2-0.2
				c-0.07-0.07-0.13-0.13-0.2-0.2c-0.07-0.07-0.13-0.13-0.2-0.2c-0.07-0.07-0.13-0.13-0.2-0.2c-0.07-0.07-0.13-0.13-0.2-0.2
				c-0.07-0.07-0.13-0.13-0.2-0.2c-0.07-0.07-0.13-0.13-0.2-0.2c-0.07-0.07-0.13-0.13-0.2-0.2c-0.02-0.05-0.05-0.1-0.07-0.15
				c-0.05,0.05-0.1,0.09-0.15,0.14c-0.06,0.02-0.12,0.02-0.18,0.01c-0.07-0.07-0.13-0.14-0.2-0.2c-0.04-0.05-0.08-0.11-0.12-0.16
				c-0.02,0.02-0.04,0.04-0.06,0.06c0.05,0.04,0.11,0.08,0.16,0.12c0.07,0.07,0.14,0.13,0.21,0.2c0.07,0.07,0.13,0.13,0.2,0.2
				c0.02,0.16-0.06,0.36,0.2,0.4c0.07,0.07,0.13,0.13,0.2,0.2c0,0.13,0.01,0.26,0.01,0.39L29.12,32z"/>
			<path d="M40.98,31.58c0,0.18,0.02,0.37-0.01,0.55c-0.02,0.09-0.13,0.17-0.19,0.25c-0.03-0.06-0.07-0.11,0,0
				c-0.11-0.07-0.06-0.04,0,0c-0.08,0.26,0.21,0.62-0.2,0.8c-0.03-0.12-0.05-0.23-0.08-0.35c-0.05,0.02-0.09,0.04-0.14,0.06
				c0.07,0.1,0.14,0.19,0.22,0.29c-0.08,0.26,0.21,0.62-0.2,0.8c-0.02-0.18-0.04-0.36-0.06-0.54c-0.05,0.19-0.3,0.44,0.06,0.54
				c-0.08,0.26,0.2,0.62-0.2,0.8c-0.02-0.18-0.04-0.36-0.09-0.74c-0.12,0.42-0.24,0.64,0.09,0.74c-0.05,0.28-0.1,0.56-0.17,0.94
				c0.81,0.51,1.73,1.02,2.24,2.04c-0.26,0.29-0.5,0.55-0.75,0.82c-0.09-0.08-0.17-0.14-0.3-0.25c0.16-0.31,0.43-0.5,0.83-0.68
				c-0.4-0.36-0.75-0.71-1.14-1.04c-0.14-0.12-0.34-0.17-0.51-0.26c-0.04-0.05-0.09-0.1-0.13-0.15c-0.02,0.02-0.04,0.04-0.06,0.05
				c0.05,0.04,0.1,0.09,0.15,0.13c0.33,0.37,0.66,0.73,1.05,1.15c-0.2,0.02-0.36,0.03-0.47,0.04c-0.34-0.29-0.64-0.54-0.95-0.79
				l-0.04-0.04c-0.03-0.05-0.05-0.11-0.08-0.16c-0.03,0.05-0.05,0.11-0.08,0.16l-0.04,0.03l-0.09-0.01l-0.09,0
				c0,0-0.02-0.02-0.02-0.02c0-0.26,0.01-0.53,0.01-0.79c0.23-0.07,0.27-0.19,0.02-0.44c-0.01,0.2-0.02,0.31-0.02,0.43
				c-0.06,0-0.13,0-0.19,0.01L39.37,36c0.01-0.23-0.05-0.5,0.04-0.69c0.51-1.05,0.65-2.21,0.99-3.3c0.09-0.27,0.04-0.65,0.37-0.83
				l0.01,0.01C40.8,31.34,40.72,31.55,40.98,31.58L40.98,31.58z M39.85,35.05c-0.01,0.02-0.03,0.04-0.03,0.06
				c0.01,0.03,0.04,0.04,0.05,0.07c0.01-0.04,0.02-0.08,0.04-0.12C39.89,35.05,39.87,35.05,39.85,35.05z"/>
			<path d="M29.54,42.83c-0.18,0.41-0.54,0.12-0.8,0.2c-0.03-0.06-0.07-0.11,0,0c-0.12-0.07-0.06-0.04,0,0
				c-0.58,0.45-1.29,0.46-1.96,0.59c-0.29,0.06-0.6,0.01-0.96,0.01c-0.27-0.28-0.57-0.59-0.94-0.97c0.34-0.02,0.6-0.03,0.85-0.04
				l0.01,0.01c-0.05,0.11-0.1,0.22-0.16,0.35c0.12,0.1,0.24,0.2,0.36,0.29c0.26-0.09,0.47-0.24,0.68-0.23
				c0.83,0.02,1.57-0.3,2.34-0.51c0.52-0.14,1.04-0.36,1.6-0.31l0.01,0.01c0.1,0.37,0.4,0.13,0.6,0.2l0,0
				c-0.18,0.4-0.54,0.12-0.8,0.2c-0.03-0.06-0.07-0.11,0,0c-0.11-0.07-0.06-0.04,0,0C30.16,43.03,29.8,42.75,29.54,42.83
				c-0.07-0.23-0.19-0.27-0.46,0C29.3,42.83,29.42,42.83,29.54,42.83z M27.89,43.12c-0.02-0.02-0.04-0.04-0.06-0.06
				c-0.02,0.02-0.04,0.04-0.06,0.06c0.03,0.02,0.06,0.04,0.09,0.06C27.87,43.16,27.88,43.14,27.89,43.12z M26.64,43.39
				c0.02-0.02,0.04-0.04,0.06-0.06c-0.02-0.02-0.04-0.04-0.06-0.06c-0.02,0.03-0.04,0.06-0.06,0.09
				C26.6,43.37,26.62,43.38,26.64,43.39z M27.07,43.3c-0.02-0.01-0.04-0.03-0.06-0.03c-0.03,0.01-0.04,0.04-0.07,0.05
				c0.04,0.01,0.08,0.02,0.12,0.04C27.07,43.34,27.07,43.32,27.07,43.3z"/>
			<path d="M42.99,45.44c-0.39,0.03-0.77-0.02-1.11-0.23c-0.66-0.43-1.48-0.62-1.91-1.37l0.02-0.02c0.18-0.04,0.36-0.08,0.57-0.12
				c0.18,0.11,0.4,0.25,0.61,0.38c-0.06,0.12-0.1,0.2-0.15,0.29c0.09,0.09,0.19,0.18,0.23,0.21c0.49,0,0.9,0,1.33,0
				c0-0.55,0-1.05,0-1.54l0.02-0.02c0.36,0.49,0.85,0.92,0.8,1.61l-0.01,0.01c-0.25,0.17-0.38,0.51-0.8,0.45
				C42.77,45.24,42.88,45.34,42.99,45.44L42.99,45.44z M40.73,44.1c-0.02-0.01-0.04-0.03-0.06-0.03c-0.03,0.01-0.04,0.04-0.07,0.05
				c0.04,0.01,0.08,0.02,0.12,0.04C40.73,44.14,40.73,44.12,40.73,44.1z"/>
			<path d="M41.58,29.58c-0.08,0.27,0.2,0.62-0.19,0.81l-0.01-0.01c-0.01-0.16,0.07-0.36-0.19-0.39l-0.01-0.01
				c0.1-0.74,0.19-1.48,0.29-2.24c-0.09-0.06-0.2-0.12-0.3-0.18c-0.15,0.16-0.27,0.29-0.38,0.42l-0.01-0.01
				c0.04-0.32,0.08-0.64,0.12-1.01c0.49,0.15,0.72,0.61,1.08,0.91C42,28.48,42.04,29.08,41.58,29.58
				C41.55,29.52,41.51,29.46,41.58,29.58C41.47,29.51,41.53,29.54,41.58,29.58z M41.65,28.63c-0.01,0.02-0.03,0.04-0.03,0.06
				c0.01,0.03,0.04,0.04,0.05,0.07c0.01-0.04,0.02-0.08,0.04-0.12C41.7,28.63,41.68,28.63,41.65,28.63z"/>
			<path d="M29.13,27.16c-0.03-0.63,0.36-1.08,0.65-1.57c0.32,0.32,0.62,0.61,0.96,0.94c0.06,0.4-0.16,0.86-0.02,1.32
				c-0.36,0.43-0.07,0.97-0.22,1.43c-0.01,0.04-0.1,0.06-0.16,0.09l-0.01-0.01c0.07-0.9-0.16-1.82,0.21-2.78
				c-0.2-0.08-0.4-0.16-0.6-0.24c-0.03-0.12-0.06-0.23-0.08-0.35c-0.04,0-0.07,0.01-0.11,0.01c-0.01,0.11-0.01,0.23-0.02,0.34
				c-0.26,0.04-0.18,0.25-0.2,0.41C29.41,26.9,29.27,27.04,29.13,27.16L29.13,27.16z"/>
			<path d="M40.19,40.01c0.87,0.87,1.74,1.75,2.59,2.6c-0.08,0.2-0.13,0.31-0.18,0.42c0,0-0.02,0.02-0.02,0.02
				c-0.18,0.04-0.36,0.08-0.58,0.12c-0.12-0.2-0.25-0.44-0.38-0.66c0.14-0.16,0.25-0.27,0.37-0.41c-0.55-0.54-1.08-1.04-1.58-1.57
				c-0.12-0.13-0.16-0.34-0.24-0.51L40.19,40.01z M42.14,42.45c-0.04,0-0.08,0.01-0.12,0.01c0.01,0.1,0.02,0.2,0.04,0.31
				c0.04,0,0.08-0.01,0.12-0.01C42.16,42.66,42.15,42.55,42.14,42.45z"/>
			<path d="M39.59,36.81c-0.08,0.5-0.14,1-0.26,1.5c-0.03,0.12-0.23,0.21-0.35,0.31l-0.01-0.01c-0.06-0.07-0.12-0.13-0.19-0.2
				c-0.07-0.07-0.13-0.13-0.2-0.2c0.16-0.43,0.35-0.85,0.42-1.32c0.04-0.3,0.08-0.66,0.38-0.89L39.38,36c0,0.27,0,0.53-0.01,0.8
				c-0.33,0.14-0.2,0.35,0,0.55c0-0.18,0-0.36,0-0.55c0.06,0,0.13,0,0.19-0.01L39.59,36.81z M39.03,38.17
				c0.04-0.01,0.08-0.01,0.13-0.02c-0.02-0.16-0.04-0.32-0.05-0.48c-0.05,0.01-0.09,0.01-0.14,0.02
				C38.99,37.85,39.01,38.01,39.03,38.17z"/>
			<path d="M24.51,32.19c-0.27-0.23-0.53-0.46-0.84-0.73c0.69-0.18,1.15-0.73,1.85-0.68l0.01,0.01c-0.08,0.07-0.17,0.14-0.25,0.2
				c-0.18,0.13-0.37,0.26-0.56,0.39c-0.12,0.03-0.23,0.05-0.35,0.08c0.02,0.04,0.05,0.09,0.07,0.13c0.09-0.07,0.19-0.14,0.28-0.21
				c0.2,0,0.39,0,0.59,0.01c-0.25,0.17-0.5,0.34-0.78,0.54c0,0.05,0,0.15,0,0.25L24.51,32.19z"/>
			<path d="M31.15,31.57c0.72,0.32,1.36,0.74,1.81,1.41L32.94,33c-0.69-0.12-1.3-0.37-1.58-1.09c-0.05-0.12-0.15-0.21-0.22-0.31
				L31.15,31.57z"/>
			<path d="M33.36,33.38c0.12,0.03,0.28,0.02,0.36,0.09c0.43,0.43,0.84,0.87,1.25,1.31l-0.02,0.02c-0.12-0.03-0.28-0.02-0.36-0.09
				c-0.43-0.43-0.84-0.87-1.25-1.31L33.36,33.38z"/>
			<path d="M41.39,30.38c-0.01,0.44-0.09,0.86-0.41,1.2l0,0c-0.02-0.16,0.07-0.36-0.2-0.4l-0.01-0.01c0-0.45-0.04-0.91,0.4-1.2
				l0.01,0.01c0.01,0.15-0.07,0.36,0.19,0.39L41.39,30.38z M41.09,30.74c0.02-0.02,0.04-0.04,0.06-0.06
				c-0.02-0.02-0.04-0.04-0.06-0.06c-0.02,0.03-0.04,0.06-0.06,0.09C41.05,30.72,41.07,30.73,41.09,30.74z"/>
			<path d="M30.93,34.4c-0.35-0.27-0.77-0.48-0.8-1l0.02-0.02c0.16,0.01,0.32,0.02,0.56,0.03c0.08,0.32,0.16,0.65,0.25,0.98
				L30.93,34.4z"/>
			<path d="M31.95,42.23c-0.19,0.4-0.54,0.12-0.8,0.2l0,0c-0.1-0.37-0.4-0.13-0.6-0.2l-0.01-0.01c0.34-0.31,0.76-0.4,1.2-0.4
				c0,0,0.01,0.01,0.01,0.01c-0.12,0.11-0.23,0.21-0.43,0.4C31.58,42.22,31.76,42.22,31.95,42.23L31.95,42.23z"/>
			<path d="M31.94,35.61c-0.4-0.35-0.92-0.59-1-1.21l0.02-0.02c0.4,0.34,0.92,0.6,1.01,1.2L31.94,35.61z"/>
			<path d="M43.4,44.63c0.37,0.27,0.11,0.62,0.2,0.93c-0.28,0.09-0.5,0.22-0.61-0.11l0.01-0.01c0.12-0.01,0.23-0.02,0.39-0.04
				c0-0.28,0-0.52,0-0.76L43.4,44.63z"/>
			<path d="M26.93,31.99c-0.09,0.07-0.17,0.19-0.26,0.19c-0.38,0.02-0.76,0.01-1.15,0.01c0,0,0,0,0,0c0.09-0.07,0.17-0.19,0.26-0.19
				C26.16,31.97,26.55,31.98,26.93,31.99L26.93,31.99z"/>
			<path d="M30.35,30.97c0.42-0.01,0.61,0.3,0.8,0.6l-0.02,0.02c-0.43,0.01-0.61-0.3-0.8-0.6L30.35,30.97z"/>
			<path d="M30.13,33.4c-0.3-0.19-0.61-0.38-0.6-0.8l0.02-0.02c0.3,0.19,0.61,0.38,0.6,0.8L30.13,33.4z"/>
			<path d="M39.99,37.2c0.31,0.19,0.62,0.37,0.6,0.8l-0.01,0.01c-0.31-0.19-0.62-0.37-0.6-0.8L39.99,37.2z"/>
			<path d="M25.52,32.19c-0.34,0.29-0.64,0.29-1.01,0.01l0.02-0.02C24.86,32.18,25.19,32.18,25.52,32.19L25.52,32.19z"/>
			<path d="M29.53,32.6c-0.27-0.11-0.42-0.3-0.4-0.6l0.02-0.02c0.27,0.11,0.42,0.3,0.4,0.6L29.53,32.6z"/>
			<path d="M35.96,41.22c-0.18,0.4-0.54,0.12-0.8,0.2l0,0c0-0.07,0-0.13,0-0.2l0,0C35.43,41.22,35.69,41.22,35.96,41.22L35.96,41.22
				z"/>
			<path d="M30.34,29.38c-0.07,0.2,0.17,0.5-0.2,0.6l0,0C30.21,29.78,29.97,29.47,30.34,29.38L30.34,29.38z"/>
			<path d="M38.99,38.8c0.29-0.02,0.42,0.12,0.4,0.41l-0.02,0.02c-0.14-0.13-0.27-0.26-0.41-0.4L38.99,38.8z"/>
			<path d="M40.59,38c0.12,0.09,0.24,0.17,0.39,0.28c-0.32,0.09-0.32,0.09-0.4-0.26L40.59,38z"/>
			<path d="M25.92,30.57c0.04-0.26,0.24-0.18,0.4-0.2l0.01,0.01C26.29,30.64,26.09,30.56,25.92,30.57L25.92,30.57z"/>
			<path d="M25.52,30.78c0.04-0.26,0.24-0.18,0.4-0.2l0.01,0.01C25.89,30.84,25.68,30.77,25.52,30.78L25.52,30.78z"/>
			<path d="M28.93,27.56c0.02-0.16-0.06-0.36,0.2-0.4l0.01,0.01C29.12,27.33,29.2,27.53,28.93,27.56L28.93,27.56z"/>
			<path d="M28.73,27.97c0.02-0.16-0.06-0.36,0.2-0.4l0.01,0.01C28.92,27.73,29,27.94,28.73,27.97L28.73,27.97z"/>
			<path d="M39.97,37.21c-0.07-0.13-0.14-0.26-0.21-0.39l0.04-0.03l0.08,0.01l0.08-0.01c0,0,0.04,0.04,0.04,0.04
				c0,0.13-0.01,0.25-0.01,0.38L39.97,37.21z"/>
			<path d="M28.52,28.36c0.07-0.13,0.14-0.27,0.21-0.4l0.01,0.01c-0.07,0.14-0.13,0.27-0.2,0.41L28.52,28.36z"/>
			<path d="M28.33,28.77c0.07-0.13,0.13-0.27,0.2-0.4l0.02,0.02c-0.07,0.13-0.14,0.27-0.21,0.4L28.33,28.77z"/>
			<path d="M28.12,29.16c0.07-0.13,0.14-0.26,0.21-0.4l0.01,0.01c-0.07,0.14-0.13,0.27-0.2,0.41L28.12,29.16z"/>
			<path d="M40.58,28.37c0.02-0.16-0.06-0.36,0.2-0.4l0.01,0.01C40.77,28.13,40.84,28.34,40.58,28.37L40.58,28.37z"/>
			<path d="M32.35,42.02c-0.03,0.26-0.24,0.19-0.4,0.2l-0.01-0.01C31.98,41.96,32.19,42.04,32.35,42.02L32.35,42.02z"/>
			<path d="M34.97,34.79c0.07,0.07,0.13,0.13,0.2,0.2L35.15,35c-0.07-0.07-0.13-0.13-0.2-0.2L34.97,34.79z"/>
			<path d="M35.17,34.99c0.07,0.07,0.13,0.13,0.2,0.2l-0.02,0.02c-0.07-0.07-0.13-0.13-0.2-0.2L35.17,34.99z"/>
			<path d="M35.37,35.19c0.07,0.07,0.13,0.13,0.2,0.2l-0.02,0.02c-0.07-0.07-0.13-0.13-0.2-0.2L35.37,35.19z"/>
			<path d="M35.57,35.39c0.07,0.07,0.13,0.13,0.2,0.2l-0.02,0.02c-0.07-0.07-0.13-0.13-0.2-0.2L35.57,35.39z"/>
			<path d="M32.14,35.81c-0.07-0.07-0.13-0.13-0.2-0.2l0.02-0.02c0.07,0.07,0.13,0.13,0.2,0.2L32.14,35.81z"/>
			<path d="M38.98,38.62c-0.01,0.06-0.01,0.12,0.01,0.18l-0.03,0.03c-0.06-0.07-0.11-0.13-0.17-0.2c0.06-0.01,0.12-0.02,0.18-0.02
				L38.98,38.62z"/>
			<path d="M39.39,39.2c0.07,0.07,0.13,0.14,0.2,0.2l-0.02,0.02c-0.07-0.07-0.14-0.13-0.2-0.2L39.39,39.2z"/>
			<path d="M33.16,33.18c0.07,0.07,0.13,0.13,0.2,0.2l-0.02,0.02c-0.07-0.07-0.13-0.13-0.2-0.2L33.16,33.18z"/>
			<path d="M39.59,39.4c0.07,0.07,0.13,0.13,0.2,0.2l-0.02,0.02c-0.07-0.07-0.13-0.13-0.2-0.2L39.59,39.4z"/>
			<path d="M39.79,39.61c0.07,0.07,0.13,0.13,0.2,0.2l-0.02,0.02c-0.07-0.07-0.13-0.13-0.2-0.2L39.79,39.61z"/>
			<path d="M39.99,39.81c0.07,0.07,0.13,0.13,0.2,0.2l-0.02,0.02c-0.07-0.07-0.13-0.13-0.2-0.2L39.99,39.81z"/>
			<path d="M32.96,32.98c0.07,0.07,0.13,0.13,0.2,0.2l-0.02,0.02c-0.07-0.07-0.13-0.13-0.2-0.2L32.96,32.98z"/>
			<path d="M38.57,38.21c0.01,0.06,0.01,0.12-0.01,0.18c-0.3,0.06-0.57,0.04-0.74-0.27c0.06-0.09,0.12-0.19,0.18-0.29
				C38.18,37.96,38.37,38.09,38.57,38.21z"/>
			<path d="M38.77,38.42c0.01,0.06,0.01,0.12-0.01,0.17c-0.05-0.05-0.11-0.11-0.16-0.16C38.65,38.41,38.71,38.4,38.77,38.42z"/>
			<path d="M33.37,39.6c0.06-0.06,0.11-0.11,0.17-0.17C33.48,39.49,33.42,39.54,33.37,39.6z"/>
			<path d="M37.59,35.58c0.06-0.06,0.11-0.11,0.17-0.17C37.7,35.47,37.64,35.53,37.59,35.58z"/>
			<path d="M29.74,26.37c0.06-0.01,0.12-0.01,0.18,0.01c-0.04,0.45-0.54,2.12-0.74,2.44c-0.04,0.07-0.16,0.1-0.24,0.14
				c0.17-0.54,0.35-1.08,0.51-1.62c0.05-0.18,0.06-0.38,0.08-0.57C29.8,26.73,29.72,26.52,29.74,26.37z"/>
			<path d="M25.34,31.37c0.63-0.54,1.42-0.62,2.18-0.78C26.89,31.14,26.1,31.22,25.34,31.37z"/>
			<path d="M28.93,30.79c0.01,0.06,0.01,0.12-0.01,0.18l-0.09,0.02l-0.09,0c-0.01-0.06-0.01-0.12,0.01-0.18
				C28.81,30.78,28.87,30.78,28.93,30.79z"/>
		</g>
	</g>
</g>
<rect id="rateBG" x="173.56" y="13.86" class="st3" width="13" height="77"/>
<rect id="rate" x="173.56" y="40.19" class="st4" width="13" height="50.67"/>
<g id="text">
	<rect x="149.56" y="97.19" class="st5" width="61.67" height="32"/>
	<path class="st6" d="M166.78,102.77l1.14,0.29c-0.24,0.93-0.67,1.65-1.29,2.14s-1.38,0.74-2.27,0.74c-0.93,0-1.68-0.19-2.26-0.57
		s-1.02-0.92-1.32-1.64s-0.46-1.48-0.46-2.3c0-0.89,0.17-1.67,0.51-2.34s0.83-1.17,1.46-1.52s1.32-0.52,2.08-0.52
		c0.86,0,1.58,0.22,2.17,0.66s0.99,1.05,1.22,1.85l-1.12,0.26c-0.2-0.63-0.49-1.08-0.87-1.37s-0.86-0.43-1.43-0.43
		c-0.66,0-1.21,0.16-1.65,0.47s-0.76,0.74-0.94,1.27s-0.27,1.08-0.27,1.65c0,0.73,0.11,1.37,0.32,1.91s0.54,0.95,0.99,1.22
		s0.94,0.4,1.46,0.4c0.64,0,1.18-0.18,1.62-0.55S166.62,103.49,166.78,102.77z"/>
	<path class="st6" d="M169.16,105.78v-8.59h1.05v8.59H169.16z"/>
	<path class="st6" d="M171.45,102.67c0-1.15,0.32-2.01,0.96-2.56c0.54-0.46,1.19-0.69,1.96-0.69c0.86,0,1.55,0.28,2.1,0.84
		s0.81,1.33,0.81,2.32c0,0.8-0.12,1.43-0.36,1.89s-0.59,0.82-1.05,1.07s-0.96,0.38-1.5,0.38c-0.87,0-1.57-0.28-2.11-0.84
		S171.45,103.72,171.45,102.67z M172.54,102.67c0,0.8,0.17,1.39,0.52,1.79s0.79,0.59,1.31,0.59c0.52,0,0.96-0.2,1.31-0.6
		s0.52-1.01,0.52-1.82c0-0.77-0.17-1.35-0.52-1.75s-0.79-0.59-1.3-0.59c-0.53,0-0.96,0.2-1.31,0.59S172.54,101.87,172.54,102.67z"/>
	<path class="st6" d="M178.1,103.92l1.04-0.16c0.06,0.42,0.22,0.74,0.49,0.96s0.64,0.33,1.12,0.33c0.48,0,0.84-0.1,1.08-0.3
		s0.35-0.43,0.35-0.69c0-0.24-0.1-0.43-0.31-0.56c-0.14-0.09-0.5-0.21-1.08-0.36c-0.77-0.2-1.31-0.36-1.61-0.51
		s-0.53-0.34-0.68-0.59s-0.23-0.53-0.23-0.83c0-0.28,0.06-0.53,0.19-0.77s0.3-0.43,0.52-0.59c0.16-0.12,0.39-0.22,0.67-0.31
		s0.59-0.13,0.91-0.13c0.49,0,0.92,0.07,1.29,0.21s0.64,0.33,0.82,0.57s0.3,0.56,0.36,0.96L182,101.3
		c-0.05-0.32-0.18-0.57-0.41-0.75s-0.54-0.27-0.95-0.27c-0.48,0-0.83,0.08-1.04,0.24s-0.31,0.35-0.31,0.56
		c0,0.14,0.04,0.26,0.13,0.37c0.09,0.11,0.22,0.21,0.4,0.28c0.11,0.04,0.42,0.13,0.93,0.27c0.75,0.2,1.27,0.36,1.56,0.49
		s0.53,0.31,0.69,0.55s0.25,0.54,0.25,0.9c0,0.35-0.1,0.68-0.31,0.99s-0.5,0.55-0.89,0.72s-0.82,0.25-1.31,0.25
		c-0.81,0-1.42-0.17-1.85-0.5S178.21,104.58,178.1,103.92z"/>
	<path class="st6" d="M188.6,105.78v-0.91c-0.48,0.7-1.14,1.05-1.97,1.05c-0.37,0-0.71-0.07-1.03-0.21s-0.55-0.32-0.71-0.53
		s-0.26-0.47-0.33-0.78c-0.04-0.21-0.06-0.54-0.06-0.98v-3.86h1.05v3.45c0,0.55,0.02,0.92,0.06,1.11c0.07,0.28,0.21,0.5,0.42,0.65
		s0.48,0.24,0.8,0.24s0.61-0.08,0.89-0.24s0.47-0.38,0.59-0.66s0.17-0.68,0.17-1.22v-3.33h1.05v6.22H188.6z"/>
	<path class="st6" d="M191.18,105.78v-6.22h0.95v0.94c0.24-0.44,0.47-0.73,0.67-0.87s0.43-0.21,0.68-0.21
		c0.36,0,0.72,0.11,1.08,0.34l-0.36,0.98c-0.26-0.15-0.52-0.23-0.77-0.23c-0.23,0-0.44,0.07-0.62,0.21s-0.31,0.33-0.39,0.58
		c-0.12,0.38-0.18,0.79-0.18,1.23v3.26H191.18z"/>
	<path class="st6" d="M199.45,103.78l1.09,0.13c-0.17,0.64-0.49,1.13-0.96,1.48s-1.06,0.53-1.78,0.53c-0.91,0-1.63-0.28-2.16-0.84
		s-0.8-1.35-0.8-2.36c0-1.05,0.27-1.86,0.81-2.44s1.24-0.87,2.1-0.87c0.83,0,1.51,0.28,2.04,0.85s0.79,1.36,0.79,2.39
		c0,0.06,0,0.16-0.01,0.28h-4.64c0.04,0.68,0.23,1.21,0.58,1.57s0.78,0.54,1.3,0.54c0.39,0,0.72-0.1,0.99-0.3
		S199.29,104.22,199.45,103.78z M195.99,102.07h3.47c-0.05-0.52-0.18-0.92-0.4-1.18c-0.34-0.41-0.77-0.61-1.31-0.61
		c-0.48,0-0.89,0.16-1.22,0.49S196.02,101.53,195.99,102.07z"/>
	<path class="st6" d="M170.84,120.18v-6.22h0.95v0.94c0.24-0.44,0.47-0.73,0.67-0.87s0.43-0.21,0.68-0.21
		c0.36,0,0.72,0.11,1.08,0.34l-0.36,0.98c-0.26-0.15-0.52-0.23-0.77-0.23c-0.23,0-0.44,0.07-0.62,0.21s-0.31,0.33-0.39,0.58
		c-0.12,0.38-0.18,0.79-0.18,1.23v3.26H170.84z"/>
	<path class="st6" d="M178.91,119.41c-0.39,0.33-0.77,0.57-1.13,0.7s-0.75,0.21-1.16,0.21c-0.68,0-1.21-0.17-1.58-0.5
		s-0.55-0.76-0.55-1.28c0-0.3,0.07-0.58,0.21-0.83s0.32-0.45,0.54-0.61s0.48-0.27,0.76-0.35c0.21-0.05,0.52-0.11,0.94-0.16
		c0.85-0.1,1.48-0.22,1.88-0.36c0-0.14,0.01-0.24,0.01-0.28c0-0.43-0.1-0.73-0.3-0.91c-0.27-0.24-0.67-0.36-1.2-0.36
		c-0.5,0-0.86,0.09-1.1,0.26s-0.41,0.48-0.53,0.92l-1.03-0.14c0.09-0.44,0.25-0.8,0.46-1.07s0.53-0.48,0.93-0.63
		s0.88-0.22,1.41-0.22c0.53,0,0.96,0.06,1.29,0.19s0.58,0.28,0.73,0.47s0.27,0.43,0.33,0.72c0.04,0.18,0.05,0.5,0.05,0.97v1.41
		c0,0.98,0.02,1.6,0.07,1.86s0.13,0.51,0.27,0.75h-1.1C179.01,119.96,178.94,119.71,178.91,119.41z M178.82,117.06
		c-0.38,0.16-0.96,0.29-1.72,0.4c-0.43,0.06-0.74,0.13-0.92,0.21s-0.32,0.19-0.42,0.34s-0.15,0.32-0.15,0.5
		c0,0.28,0.11,0.52,0.32,0.7s0.52,0.28,0.93,0.28c0.41,0,0.77-0.09,1.08-0.27s0.55-0.42,0.7-0.73c0.11-0.24,0.17-0.59,0.17-1.05
		V117.06z"/>
	<path class="st6" d="M183.82,119.24l0.15,0.93c-0.3,0.06-0.56,0.09-0.8,0.09c-0.38,0-0.68-0.06-0.89-0.18s-0.36-0.28-0.45-0.48
		s-0.13-0.61-0.13-1.25v-3.58h-0.77v-0.82h0.77v-1.54l1.05-0.63v2.17h1.06v0.82h-1.06v3.64c0,0.3,0.02,0.49,0.06,0.58
		s0.1,0.15,0.18,0.21s0.2,0.08,0.36,0.08C183.48,119.28,183.63,119.26,183.82,119.24z"/>
	<path class="st6" d="M189.11,118.18l1.09,0.13c-0.17,0.64-0.49,1.13-0.96,1.48s-1.06,0.53-1.78,0.53c-0.91,0-1.63-0.28-2.16-0.84
		s-0.8-1.35-0.8-2.36c0-1.05,0.27-1.86,0.81-2.44s1.24-0.87,2.1-0.87c0.83,0,1.51,0.28,2.04,0.85s0.79,1.36,0.79,2.39
		c0,0.06,0,0.16-0.01,0.28h-4.64c0.04,0.68,0.23,1.21,0.58,1.57s0.78,0.54,1.3,0.54c0.39,0,0.72-0.1,0.99-0.3
		S188.95,118.62,189.11,118.18z M185.65,116.47h3.47c-0.05-0.52-0.18-0.92-0.4-1.18c-0.34-0.41-0.77-0.61-1.31-0.61
		c-0.48,0-0.89,0.16-1.22,0.49S185.69,115.93,185.65,116.47z"/>
</g>

</svg>
