<?xml version="1.0" encoding="utf-8"?>
<!-- Generator: Adobe Illustrator 18.1.1, SVG Export Plug-In . SVG Version: 6.00 Build 0)  -->
<svg version="1.1" id="scene1" xmlns="http://www.w3.org/2000/svg" xmlns:xlink="http://www.w3.org/1999/xlink" x="0px" y="0px"
	 width="500px" height="250px" viewBox="0 0 500 250" style="enable-background:new 0 0 500 250;" xml:space="preserve">
<style type="text/css">
	.st0{fill:#A2CEF9;}
	.st1{fill:none;}
	.st2{fill:#FFFFFF;}
	.st3{fill:#003366;}
	.st4{fill:#999999;}
	.st5{fill:#FF4425;}
	.st6{fill:#F15A24;}
	.st7{fill:none;stroke:#FF4425;stroke-width:3;stroke-miterlimit:10;}
	.st8{fill:none;stroke:#FF4425;stroke-width:3;stroke-miterlimit:10;stroke-dasharray:3,3;}
	.st9{fill:none;stroke:#EAE8EA;stroke-width:2;stroke-miterlimit:10;}
	.st10{fill:none;stroke:#EAE8EA;stroke-width:2;stroke-miterlimit:10;stroke-dasharray:11,11;}
	.st11{fill:#EAE8EA;}
	.st12{fill:none;stroke:#EAE8EA;stroke-width:2;stroke-miterlimit:10;stroke-dasharray:11.3747,11.3747;}
	.st13{fill:none;stroke:#EAE8EA;stroke-width:2;stroke-miterlimit:10;stroke-dasharray:11.5534,11.5534;}
	.st14{fill:none;stroke:#EAE8EA;stroke-width:2;stroke-miterlimit:10;stroke-dasharray:11.9609,11.9609;}
	.st15{fill:none;stroke:#00FF18;stroke-width:2;stroke-miterlimit:10;}
	.st16{fill:none;stroke:#00FF18;stroke-width:2;stroke-miterlimit:10;stroke-dasharray:12.1038,12.1038;}
	.st17{fill:#00FF18;}
	.st18{fill:none;stroke:#00FF18;stroke-width:2;stroke-miterlimit:10;stroke-dasharray:11.8556,11.8556;}
	.st19{fill:#76B82A;}
	.st20{fill:none;stroke:#FFFFFF;stroke-width:3;stroke-miterlimit:10;}
</style>
<rect id="bg_1_" class="st0" width="500" height="250"/>
<g id="title">
	<rect x="9" y="10.5" class="st1" width="256" height="21.5"/>
	<path class="st2" d="M10.17,21.96V10.5h4.87c1.22,0,2.11,0.1,2.67,0.31c0.55,0.21,1,0.57,1.33,1.1c0.33,0.53,0.5,1.13,0.5,1.8
		c0,0.86-0.25,1.57-0.76,2.13c-0.51,0.56-1.26,0.91-2.27,1.06c0.5,0.29,0.91,0.61,1.24,0.96c0.33,0.35,0.76,0.97,1.32,1.86l1.4,2.23
		H17.7l-1.67-2.49c-0.59-0.89-1-1.45-1.22-1.68c-0.22-0.23-0.45-0.39-0.7-0.48c-0.25-0.09-0.63-0.13-1.16-0.13h-0.47v4.78H10.17z
		 M12.48,15.35h1.71c1.11,0,1.8-0.05,2.08-0.14c0.28-0.09,0.49-0.25,0.65-0.48c0.16-0.23,0.23-0.52,0.23-0.86
		c0-0.39-0.1-0.7-0.31-0.93c-0.21-0.24-0.5-0.39-0.87-0.45c-0.19-0.03-0.75-0.04-1.69-0.04h-1.8V15.35z"/>
	<path class="st2" d="M32.05,21.96h-2.52l-1-2.6h-4.58l-0.95,2.6h-2.45l4.46-11.45h2.45L32.05,21.96z M27.79,17.42l-1.58-4.25
		l-1.55,4.25H27.79z"/>
	<path class="st2" d="M36.54,18.23l2.25-0.22c0.14,0.76,0.41,1.31,0.82,1.66c0.41,0.35,0.97,0.53,1.68,0.53
		c0.74,0,1.31-0.16,1.68-0.47c0.38-0.31,0.57-0.68,0.57-1.11c0-0.27-0.08-0.5-0.24-0.69c-0.16-0.19-0.44-0.36-0.83-0.5
		c-0.27-0.09-0.89-0.26-1.85-0.5c-1.24-0.31-2.11-0.68-2.61-1.13c-0.7-0.63-1.05-1.4-1.05-2.3c0-0.58,0.17-1.13,0.5-1.64
		c0.33-0.51,0.81-0.89,1.43-1.16c0.62-0.27,1.37-0.4,2.25-0.4c1.44,0,2.52,0.32,3.25,0.95c0.73,0.63,1.11,1.47,1.14,2.52l-2.31,0.1
		c-0.1-0.59-0.31-1.01-0.64-1.27c-0.33-0.26-0.81-0.39-1.46-0.39c-0.67,0-1.2,0.14-1.58,0.41c-0.25,0.18-0.37,0.41-0.37,0.71
		c0,0.27,0.11,0.5,0.34,0.7c0.29,0.25,1,0.5,2.13,0.77s1.96,0.54,2.5,0.82c0.54,0.28,0.96,0.67,1.27,1.16s0.46,1.1,0.46,1.82
		c0,0.66-0.18,1.27-0.55,1.84c-0.36,0.57-0.88,1-1.55,1.28c-0.67,0.28-1.5,0.42-2.49,0.42c-1.45,0-2.56-0.33-3.34-1
		C37.15,20.49,36.69,19.51,36.54,18.23z"/>
	<path class="st2" d="M52.59,19.31l2.19,0.37c-0.28,0.8-0.73,1.41-1.33,1.83c-0.61,0.42-1.37,0.63-2.28,0.63
		c-1.44,0-2.51-0.47-3.2-1.41c-0.55-0.75-0.82-1.71-0.82-2.86c0-1.38,0.36-2.45,1.08-3.23c0.72-0.78,1.63-1.17,2.73-1.17
		c1.23,0,2.21,0.41,2.92,1.22c0.71,0.82,1.05,2.06,1.02,3.75h-5.5c0.02,0.65,0.19,1.16,0.53,1.52c0.34,0.36,0.76,0.54,1.27,0.54
		c0.34,0,0.63-0.09,0.87-0.28S52.47,19.73,52.59,19.31z M52.71,17.1c-0.02-0.64-0.18-1.12-0.49-1.45c-0.31-0.33-0.69-0.5-1.14-0.5
		c-0.48,0-0.88,0.17-1.19,0.52c-0.31,0.35-0.47,0.82-0.46,1.42H52.71z"/>
	<path class="st2" d="M64.23,21.96h-2.2v-4.23c0-0.9-0.05-1.48-0.14-1.74c-0.09-0.26-0.25-0.47-0.46-0.61
		c-0.21-0.15-0.46-0.22-0.76-0.22c-0.38,0-0.72,0.1-1.02,0.31c-0.3,0.21-0.51,0.48-0.62,0.83c-0.11,0.34-0.17,0.98-0.17,1.91v3.76
		h-2.2v-8.3h2.04v1.22c0.72-0.94,1.64-1.41,2.73-1.41c0.48,0,0.93,0.09,1.33,0.26c0.4,0.17,0.7,0.4,0.91,0.67
		c0.21,0.27,0.35,0.58,0.43,0.92c0.08,0.34,0.12,0.84,0.12,1.48V21.96z"/>
	<path class="st2" d="M65.68,19.59l2.2-0.34c0.09,0.43,0.28,0.75,0.57,0.97c0.29,0.22,0.69,0.33,1.2,0.33c0.57,0,0.99-0.1,1.28-0.31
		c0.19-0.15,0.29-0.34,0.29-0.59c0-0.17-0.05-0.3-0.16-0.41c-0.11-0.1-0.35-0.2-0.73-0.29c-1.77-0.39-2.89-0.75-3.37-1.07
		c-0.66-0.45-0.98-1.07-0.98-1.87c0-0.72,0.28-1.32,0.85-1.81c0.57-0.49,1.45-0.73,2.64-0.73c1.14,0,1.98,0.19,2.53,0.55
		c0.55,0.37,0.93,0.92,1.14,1.64l-2.07,0.38c-0.09-0.32-0.26-0.57-0.5-0.74c-0.25-0.17-0.6-0.26-1.06-0.26
		c-0.58,0-0.99,0.08-1.24,0.24c-0.17,0.11-0.25,0.26-0.25,0.45c0,0.16,0.07,0.29,0.22,0.4c0.2,0.15,0.88,0.35,2.05,0.62
		c1.17,0.27,1.99,0.59,2.45,0.98c0.46,0.39,0.69,0.94,0.69,1.63c0,0.76-0.32,1.41-0.95,1.96c-0.64,0.55-1.58,0.82-2.82,0.82
		c-1.13,0-2.02-0.23-2.68-0.69C66.31,21,65.88,20.38,65.68,19.59z"/>
	<path class="st2" d="M80.16,19.31l2.19,0.37c-0.28,0.8-0.73,1.41-1.33,1.83c-0.61,0.42-1.37,0.63-2.28,0.63
		c-1.44,0-2.51-0.47-3.2-1.41c-0.55-0.75-0.82-1.71-0.82-2.86c0-1.38,0.36-2.45,1.08-3.23c0.72-0.78,1.63-1.17,2.73-1.17
		c1.23,0,2.21,0.41,2.92,1.22c0.71,0.82,1.05,2.06,1.02,3.75h-5.5c0.02,0.65,0.19,1.16,0.53,1.52c0.34,0.36,0.76,0.54,1.27,0.54
		c0.34,0,0.63-0.09,0.87-0.28S80.04,19.73,80.16,19.31z M80.28,17.1c-0.02-0.64-0.18-1.12-0.49-1.45c-0.31-0.33-0.69-0.5-1.14-0.5
		c-0.48,0-0.88,0.17-1.19,0.52c-0.31,0.35-0.47,0.82-0.46,1.42H80.28z"/>
	<path class="st2" d="M88.72,21.96V10.5h4.87c1.22,0,2.11,0.1,2.67,0.31c0.55,0.21,1,0.57,1.33,1.1c0.33,0.53,0.5,1.13,0.5,1.8
		c0,0.86-0.25,1.57-0.76,2.13c-0.51,0.56-1.26,0.91-2.27,1.06c0.5,0.29,0.91,0.61,1.24,0.96c0.33,0.35,0.76,0.97,1.32,1.86l1.4,2.23
		h-2.77l-1.67-2.49c-0.59-0.89-1-1.45-1.22-1.68c-0.22-0.23-0.45-0.39-0.7-0.48c-0.25-0.09-0.63-0.13-1.16-0.13h-0.47v4.78H88.72z
		 M91.03,15.35h1.71c1.11,0,1.8-0.05,2.08-0.14c0.28-0.09,0.49-0.25,0.65-0.48c0.16-0.23,0.23-0.52,0.23-0.86
		c0-0.39-0.1-0.7-0.31-0.93c-0.21-0.24-0.5-0.39-0.87-0.45c-0.19-0.03-0.75-0.04-1.69-0.04h-1.8V15.35z"/>
	<path class="st2" d="M105.05,19.31l2.19,0.37c-0.28,0.8-0.73,1.41-1.33,1.83c-0.61,0.42-1.37,0.63-2.28,0.63
		c-1.44,0-2.51-0.47-3.2-1.41c-0.55-0.75-0.82-1.71-0.82-2.86c0-1.38,0.36-2.45,1.08-3.23c0.72-0.78,1.63-1.17,2.73-1.17
		c1.23,0,2.21,0.41,2.92,1.22c0.71,0.82,1.05,2.06,1.02,3.75h-5.5c0.02,0.65,0.19,1.16,0.53,1.52c0.34,0.36,0.76,0.54,1.27,0.54
		c0.34,0,0.63-0.09,0.87-0.28S104.93,19.73,105.05,19.31z M105.18,17.1c-0.02-0.64-0.18-1.12-0.49-1.45
		c-0.31-0.33-0.69-0.5-1.14-0.5c-0.48,0-0.88,0.17-1.19,0.52c-0.31,0.35-0.47,0.82-0.46,1.42H105.18z"/>
	<path class="st2" d="M111.43,21.96l-3.34-8.3h2.3l1.56,4.23l0.45,1.41c0.12-0.36,0.2-0.6,0.23-0.71c0.07-0.23,0.15-0.47,0.23-0.7
		l1.58-4.23h2.26l-3.3,8.3H111.43z"/>
	<path class="st2" d="M122.85,19.31l2.19,0.37c-0.28,0.8-0.73,1.41-1.33,1.83c-0.61,0.42-1.37,0.63-2.28,0.63
		c-1.44,0-2.51-0.47-3.2-1.41c-0.55-0.75-0.82-1.71-0.82-2.86c0-1.38,0.36-2.45,1.08-3.23c0.72-0.78,1.63-1.17,2.73-1.17
		c1.23,0,2.21,0.41,2.92,1.22c0.71,0.82,1.05,2.06,1.02,3.75h-5.5c0.02,0.65,0.19,1.16,0.53,1.52c0.34,0.36,0.76,0.54,1.27,0.54
		c0.34,0,0.63-0.09,0.87-0.28S122.73,19.73,122.85,19.31z M122.98,17.1c-0.02-0.64-0.18-1.12-0.49-1.45
		c-0.31-0.33-0.69-0.5-1.14-0.5c-0.48,0-0.88,0.17-1.19,0.52c-0.31,0.35-0.47,0.82-0.46,1.42H122.98z"/>
	<path class="st2" d="M129.05,21.96h-2.2v-8.3h2.04v1.18c0.35-0.56,0.66-0.92,0.94-1.1c0.28-0.18,0.59-0.27,0.95-0.27
		c0.5,0,0.98,0.14,1.45,0.41l-0.68,1.91c-0.37-0.24-0.71-0.36-1.03-0.36c-0.31,0-0.57,0.08-0.78,0.25c-0.21,0.17-0.38,0.48-0.5,0.92
		c-0.12,0.44-0.18,1.37-0.18,2.78V21.96z"/>
	<path class="st2" d="M132.4,19.59l2.2-0.34c0.09,0.43,0.28,0.75,0.57,0.97c0.29,0.22,0.69,0.33,1.2,0.33c0.57,0,0.99-0.1,1.28-0.31
		c0.19-0.15,0.29-0.34,0.29-0.59c0-0.17-0.05-0.3-0.16-0.41c-0.11-0.1-0.35-0.2-0.73-0.29c-1.77-0.39-2.89-0.75-3.37-1.07
		c-0.66-0.45-0.98-1.07-0.98-1.87c0-0.72,0.28-1.32,0.85-1.81c0.57-0.49,1.45-0.73,2.64-0.73c1.14,0,1.98,0.19,2.53,0.55
		c0.55,0.37,0.93,0.92,1.14,1.64l-2.07,0.38c-0.09-0.32-0.26-0.57-0.5-0.74c-0.25-0.17-0.6-0.26-1.06-0.26
		c-0.58,0-0.99,0.08-1.24,0.24c-0.17,0.11-0.25,0.26-0.25,0.45c0,0.16,0.07,0.29,0.22,0.4c0.2,0.15,0.88,0.35,2.05,0.62
		c1.17,0.27,1.99,0.59,2.45,0.98c0.46,0.39,0.69,0.94,0.69,1.63c0,0.76-0.32,1.41-0.95,1.96c-0.64,0.55-1.58,0.82-2.82,0.82
		c-1.13,0-2.02-0.23-2.68-0.69C133.03,21,132.6,20.38,132.4,19.59z"/>
	<path class="st2" d="M143.71,16.19l-1.99-0.36c0.22-0.8,0.61-1.4,1.16-1.78c0.55-0.39,1.36-0.58,2.44-0.58
		c0.98,0,1.71,0.12,2.19,0.35c0.48,0.23,0.82,0.53,1.01,0.88c0.2,0.36,0.29,1.01,0.29,1.96l-0.02,2.56c0,0.73,0.04,1.27,0.11,1.61
		c0.07,0.35,0.2,0.72,0.39,1.11h-2.17c-0.06-0.15-0.13-0.36-0.21-0.65c-0.04-0.13-0.06-0.22-0.08-0.26
		c-0.38,0.36-0.78,0.64-1.2,0.82c-0.43,0.18-0.88,0.27-1.37,0.27c-0.85,0-1.53-0.23-2.02-0.7c-0.49-0.46-0.74-1.05-0.74-1.76
		c0-0.47,0.11-0.89,0.34-1.25c0.22-0.37,0.54-0.65,0.94-0.84c0.4-0.2,0.99-0.37,1.75-0.51c1.03-0.19,1.74-0.37,2.13-0.54v-0.22
		c0-0.42-0.1-0.72-0.31-0.9c-0.21-0.18-0.6-0.27-1.18-0.27c-0.39,0-0.7,0.08-0.91,0.23C144.02,15.54,143.85,15.8,143.71,16.19z
		 M146.65,17.97c-0.28,0.09-0.73,0.21-1.34,0.34c-0.61,0.13-1.01,0.26-1.2,0.38c-0.29,0.2-0.43,0.46-0.43,0.77
		c0,0.31,0.11,0.57,0.34,0.8c0.23,0.22,0.52,0.34,0.88,0.34c0.4,0,0.77-0.13,1.13-0.39c0.27-0.2,0.44-0.44,0.52-0.73
		c0.06-0.19,0.09-0.54,0.09-1.07V17.97z"/>
	<path class="st2" d="M150.97,21.96V10.5h2.2v11.45H150.97z"/>
</g>
<g id="text5">
	<rect x="11.5" y="197" class="st1" width="139.5" height="49"/>
	<path class="st3" d="M16.72,207.02h-1.23v-7.84c-0.3,0.28-0.68,0.56-1.17,0.85c-0.48,0.28-0.91,0.49-1.3,0.63v-1.19
		c0.69-0.32,1.29-0.71,1.8-1.18c0.52-0.46,0.88-0.91,1.09-1.34h0.79V207.02z"/>
	<path class="st3" d="M20.56,207.02v-1.4h1.4v1.4H20.56z"/>
	<path class="st3" d="M30.44,207.02v-8.84h-3.3V197h7.94v1.18h-3.32v8.84H30.44z"/>
	<path class="st3" d="M43.59,203.51l1.33,0.34c-0.28,1.09-0.78,1.92-1.5,2.49s-1.61,0.86-2.65,0.86c-1.08,0-1.96-0.22-2.64-0.66
		s-1.19-1.08-1.54-1.91s-0.53-1.73-0.53-2.69c0-1.04,0.2-1.95,0.6-2.73s0.97-1.37,1.7-1.77s1.55-0.6,2.43-0.6
		c1,0,1.85,0.25,2.53,0.77c0.68,0.51,1.16,1.23,1.43,2.15l-1.31,0.31c-0.23-0.73-0.57-1.26-1.01-1.59c-0.44-0.33-1-0.5-1.67-0.5
		c-0.77,0-1.41,0.18-1.93,0.55s-0.88,0.87-1.09,1.49s-0.31,1.26-0.31,1.92c0,0.85,0.12,1.6,0.37,2.23s0.63,1.11,1.16,1.42
		s1.09,0.47,1.7,0.47c0.74,0,1.37-0.21,1.89-0.64C43.06,204.99,43.41,204.35,43.59,203.51z"/>
	<path class="st3" d="M45.45,207.02L49.3,197h1.43l4.1,10.02h-1.51l-1.17-3.04h-4.19l-1.1,3.04H45.45z M48.35,202.91h3.4l-1.05-2.78
		c-0.32-0.84-0.56-1.54-0.71-2.08c-0.13,0.64-0.31,1.28-0.54,1.91L48.35,202.91z"/>
	<path class="st3" d="M55.44,203.8l1.25-0.11c0.06,0.5,0.2,0.91,0.41,1.23s0.55,0.58,1.01,0.78s0.97,0.3,1.54,0.3
		c0.51,0,0.95-0.08,1.34-0.23s0.68-0.36,0.86-0.62s0.28-0.55,0.28-0.86c0-0.31-0.09-0.59-0.27-0.82s-0.48-0.43-0.9-0.59
		c-0.27-0.11-0.86-0.27-1.78-0.49s-1.57-0.43-1.93-0.63c-0.48-0.25-0.83-0.56-1.07-0.93s-0.35-0.79-0.35-1.25
		c0-0.51,0.14-0.98,0.43-1.42s0.71-0.77,1.26-1c0.55-0.23,1.16-0.34,1.84-0.34c0.74,0,1.4,0.12,1.97,0.36s1,0.59,1.31,1.06
		s0.47,0.99,0.49,1.58l-1.27,0.1c-0.07-0.63-0.3-1.11-0.69-1.44c-0.39-0.32-0.98-0.49-1.75-0.49c-0.8,0-1.39,0.15-1.75,0.44
		s-0.55,0.65-0.55,1.06c0,0.36,0.13,0.66,0.39,0.89c0.26,0.23,0.92,0.47,2,0.71s1.82,0.46,2.22,0.64c0.58,0.27,1.01,0.61,1.29,1.02
		s0.42,0.89,0.42,1.42c0,0.53-0.15,1.04-0.46,1.51s-0.74,0.84-1.32,1.1s-1.22,0.39-1.93,0.39c-0.91,0-1.67-0.13-2.28-0.4
		c-0.61-0.26-1.09-0.66-1.44-1.19S55.46,204.47,55.44,203.8z"/>
	<path class="st3" d="M73.67,207.02v-0.92c-0.46,0.72-1.14,1.08-2.03,1.08c-0.58,0-1.11-0.16-1.6-0.48
		c-0.49-0.32-0.86-0.76-1.13-1.34s-0.4-1.23-0.4-1.97c0-0.72,0.12-1.38,0.36-1.97s0.6-1.04,1.09-1.36s1.02-0.47,1.62-0.47
		c0.44,0,0.83,0.09,1.17,0.28s0.62,0.42,0.83,0.72V197h1.22v10.02H73.67z M69.78,203.4c0,0.93,0.2,1.63,0.59,2.09
		c0.39,0.46,0.85,0.69,1.39,0.69c0.54,0,0.99-0.22,1.37-0.66s0.56-1.11,0.56-2.01c0-0.99-0.19-1.72-0.57-2.19s-0.85-0.7-1.42-0.7
		c-0.55,0-1,0.22-1.37,0.67C69.97,201.74,69.78,202.44,69.78,203.4z"/>
	<path class="st3" d="M81.72,204.69l1.27,0.16c-0.2,0.74-0.57,1.32-1.11,1.73s-1.23,0.62-2.08,0.62c-1.06,0-1.9-0.33-2.53-0.98
		s-0.93-1.57-0.93-2.75c0-1.22,0.31-2.17,0.94-2.84c0.63-0.67,1.44-1.01,2.45-1.01c0.97,0,1.76,0.33,2.38,0.99
		c0.62,0.66,0.92,1.59,0.92,2.79c0,0.07,0,0.18-0.01,0.33h-5.41c0.05,0.8,0.27,1.41,0.68,1.83s0.91,0.63,1.52,0.63
		c0.45,0,0.84-0.12,1.16-0.36C81.28,205.58,81.53,205.21,81.72,204.69z M77.68,202.7h4.05c-0.05-0.61-0.21-1.07-0.46-1.38
		c-0.39-0.47-0.9-0.71-1.52-0.71c-0.56,0-1.04,0.19-1.43,0.57C77.93,201.56,77.72,202.06,77.68,202.7z"/>
	<path class="st3" d="M87.22,205.92l0.18,1.09c-0.35,0.07-0.66,0.11-0.93,0.11c-0.45,0-0.79-0.07-1.04-0.21
		c-0.25-0.14-0.42-0.33-0.52-0.56s-0.15-0.71-0.15-1.45v-4.18h-0.9v-0.96h0.9v-1.8l1.22-0.74v2.54h1.24v0.96h-1.24v4.25
		c0,0.35,0.02,0.58,0.06,0.68c0.04,0.1,0.11,0.18,0.21,0.24c0.1,0.06,0.24,0.09,0.42,0.09C86.82,205.97,87,205.96,87.22,205.92z"/>
	<path class="st3" d="M93.39,204.69l1.27,0.16c-0.2,0.74-0.57,1.32-1.11,1.73s-1.23,0.62-2.08,0.62c-1.06,0-1.9-0.33-2.53-0.98
		s-0.93-1.57-0.93-2.75c0-1.22,0.31-2.17,0.94-2.84c0.63-0.67,1.44-1.01,2.45-1.01c0.97,0,1.76,0.33,2.38,0.99
		c0.62,0.66,0.92,1.59,0.92,2.79c0,0.07,0,0.18-0.01,0.33h-5.41c0.05,0.8,0.27,1.41,0.68,1.83s0.91,0.63,1.52,0.63
		c0.45,0,0.84-0.12,1.16-0.36C92.95,205.58,93.21,205.21,93.39,204.69z M89.35,202.7h4.05c-0.05-0.61-0.21-1.07-0.46-1.38
		c-0.39-0.47-0.9-0.71-1.52-0.71c-0.56,0-1.04,0.19-1.43,0.57C89.61,201.56,89.4,202.06,89.35,202.7z"/>
	<path class="st3" d="M100.95,204.37l1.21,0.16c-0.13,0.83-0.47,1.49-1.02,1.96s-1.21,0.71-2.01,0.71c-0.99,0-1.79-0.32-2.4-0.97
		s-0.91-1.58-0.91-2.79c0-0.78,0.13-1.47,0.39-2.06s0.66-1.03,1.19-1.32s1.11-0.44,1.73-0.44c0.79,0,1.43,0.2,1.93,0.6
		s0.82,0.96,0.96,1.7l-1.2,0.19c-0.11-0.49-0.32-0.86-0.6-1.1s-0.64-0.37-1.05-0.37c-0.62,0-1.12,0.22-1.51,0.67
		s-0.58,1.15-0.58,2.11c0,0.98,0.19,1.68,0.56,2.13c0.37,0.44,0.86,0.66,1.46,0.66c0.48,0,0.89-0.15,1.21-0.44
		C100.66,205.44,100.86,204.98,100.95,204.37z"/>
	<path class="st3" d="M105.9,205.92l0.18,1.09c-0.35,0.07-0.66,0.11-0.93,0.11c-0.45,0-0.79-0.07-1.04-0.21
		c-0.25-0.14-0.42-0.33-0.52-0.56s-0.15-0.71-0.15-1.45v-4.18h-0.9v-0.96h0.9v-1.8l1.22-0.74v2.54h1.24v0.96h-1.24v4.25
		c0,0.35,0.02,0.58,0.06,0.68c0.04,0.1,0.11,0.18,0.21,0.24c0.1,0.06,0.24,0.09,0.42,0.09C105.49,205.97,105.67,205.96,105.9,205.92
		z"/>
	<path class="st3" d="M106.61,204.86l1.22-0.19c0.07,0.49,0.26,0.86,0.57,1.12s0.75,0.39,1.31,0.39c0.56,0,0.98-0.12,1.26-0.34
		s0.41-0.5,0.41-0.81c0-0.28-0.12-0.5-0.36-0.66c-0.17-0.11-0.59-0.25-1.26-0.42c-0.9-0.23-1.53-0.42-1.88-0.59s-0.61-0.4-0.79-0.69
		s-0.27-0.62-0.27-0.97c0-0.32,0.07-0.62,0.22-0.9s0.35-0.5,0.6-0.69c0.19-0.14,0.45-0.26,0.78-0.36s0.68-0.15,1.06-0.15
		c0.57,0,1.07,0.08,1.5,0.25s0.75,0.39,0.95,0.67s0.35,0.66,0.42,1.12l-1.2,0.16c-0.05-0.37-0.21-0.67-0.48-0.88
		c-0.26-0.21-0.63-0.31-1.11-0.31c-0.56,0-0.97,0.09-1.21,0.28c-0.24,0.19-0.36,0.41-0.36,0.66c0,0.16,0.05,0.3,0.15,0.43
		c0.1,0.13,0.26,0.24,0.47,0.33c0.12,0.05,0.49,0.15,1.09,0.31c0.87,0.23,1.48,0.42,1.82,0.57s0.61,0.36,0.81,0.65
		c0.2,0.28,0.29,0.63,0.29,1.05c0,0.41-0.12,0.8-0.36,1.16s-0.58,0.64-1.04,0.84s-0.96,0.3-1.53,0.3c-0.94,0-1.66-0.2-2.16-0.59
		C107.06,206.21,106.75,205.63,106.61,204.86z"/>
	<path class="st3" d="M122.73,206.13c-0.46,0.39-0.89,0.66-1.32,0.82c-0.42,0.16-0.87,0.24-1.36,0.24c-0.8,0-1.41-0.19-1.84-0.58
		s-0.64-0.89-0.64-1.49c0-0.36,0.08-0.68,0.24-0.97s0.37-0.53,0.64-0.71s0.56-0.31,0.89-0.4c0.24-0.06,0.61-0.13,1.09-0.19
		c0.99-0.12,1.73-0.26,2.19-0.42c0-0.17,0.01-0.28,0.01-0.32c0-0.5-0.12-0.86-0.35-1.06c-0.31-0.28-0.78-0.42-1.4-0.42
		c-0.58,0-1.01,0.1-1.28,0.3s-0.48,0.56-0.61,1.08l-1.2-0.16c0.11-0.52,0.29-0.93,0.54-1.25s0.61-0.56,1.09-0.73
		s1.02-0.26,1.65-0.26c0.62,0,1.12,0.07,1.51,0.22c0.39,0.15,0.67,0.33,0.85,0.55s0.31,0.5,0.38,0.84c0.04,0.21,0.06,0.59,0.06,1.13
		v1.64c0,1.14,0.03,1.87,0.08,2.17s0.16,0.59,0.31,0.87h-1.29C122.85,206.77,122.76,206.47,122.73,206.13z M122.63,203.38
		c-0.45,0.18-1.12,0.34-2.01,0.46c-0.51,0.07-0.86,0.15-1.07,0.25c-0.21,0.09-0.37,0.22-0.49,0.4s-0.17,0.37-0.17,0.58
		c0,0.33,0.12,0.6,0.37,0.82s0.61,0.33,1.09,0.33c0.47,0,0.9-0.1,1.26-0.31s0.64-0.49,0.81-0.85c0.13-0.28,0.2-0.69,0.2-1.23V203.38
		z"/>
	<path class="st3" d="M15.11,222.72l0.18,1.09c-0.35,0.07-0.66,0.11-0.93,0.11c-0.45,0-0.79-0.07-1.04-0.21
		c-0.25-0.14-0.42-0.33-0.52-0.56s-0.15-0.71-0.15-1.45v-4.18h-0.9v-0.96h0.9v-1.8l1.22-0.74v2.54h1.24v0.96h-1.24v4.24
		c0,0.35,0.02,0.58,0.06,0.68c0.04,0.1,0.11,0.18,0.21,0.24c0.1,0.06,0.24,0.09,0.42,0.09C14.71,222.77,14.89,222.75,15.11,222.72z"
		/>
	<path class="st3" d="M16.31,223.82V213.8h1.23v3.6c0.57-0.67,1.3-1,2.17-1c0.54,0,1,0.11,1.4,0.32s0.68,0.5,0.85,0.88
		c0.17,0.37,0.26,0.92,0.26,1.63v4.6H21v-4.6c0-0.62-0.13-1.06-0.4-1.34s-0.64-0.42-1.13-0.42c-0.36,0-0.71,0.1-1.03,0.28
		s-0.55,0.45-0.69,0.77c-0.14,0.32-0.21,0.77-0.21,1.34v3.97H16.31z"/>
	<path class="st3" d="M24.08,223.82v-7.26h1.11v1.1c0.28-0.51,0.54-0.85,0.78-1.02s0.5-0.25,0.79-0.25c0.41,0,0.84,0.13,1.26,0.4
		l-0.42,1.14c-0.3-0.18-0.6-0.27-0.9-0.27c-0.27,0-0.51,0.08-0.72,0.24s-0.37,0.39-0.46,0.67c-0.14,0.44-0.21,0.92-0.21,1.44v3.8
		H24.08z"/>
	<path class="st3" d="M33.73,221.49l1.27,0.16c-0.2,0.74-0.57,1.32-1.11,1.73s-1.23,0.62-2.08,0.62c-1.06,0-1.9-0.33-2.53-0.98
		s-0.93-1.57-0.93-2.75c0-1.22,0.31-2.17,0.94-2.84c0.63-0.67,1.44-1.01,2.45-1.01c0.97,0,1.76,0.33,2.38,0.99
		c0.62,0.66,0.92,1.59,0.92,2.79c0,0.07,0,0.18-0.01,0.33h-5.41c0.05,0.8,0.27,1.41,0.68,1.83s0.91,0.64,1.52,0.64
		c0.45,0,0.84-0.12,1.16-0.36C33.29,222.38,33.54,222.01,33.73,221.49z M29.69,219.5h4.05c-0.05-0.61-0.21-1.07-0.46-1.37
		c-0.39-0.47-0.9-0.71-1.52-0.71c-0.56,0-1.04,0.19-1.43,0.57C29.94,218.36,29.73,218.86,29.69,219.5z"/>
	<path class="st3" d="M41.28,222.93c-0.46,0.39-0.89,0.66-1.32,0.82c-0.42,0.16-0.87,0.24-1.36,0.24c-0.8,0-1.41-0.2-1.84-0.58
		s-0.64-0.89-0.64-1.49c0-0.36,0.08-0.68,0.24-0.97s0.37-0.53,0.64-0.71s0.56-0.31,0.89-0.4c0.24-0.06,0.61-0.13,1.09-0.18
		c0.99-0.12,1.73-0.26,2.19-0.42c0-0.17,0.01-0.28,0.01-0.32c0-0.5-0.12-0.85-0.35-1.06c-0.31-0.28-0.78-0.42-1.4-0.42
		c-0.58,0-1.01,0.1-1.28,0.3s-0.48,0.56-0.61,1.08l-1.2-0.16c0.11-0.51,0.29-0.93,0.54-1.25s0.61-0.56,1.09-0.73
		s1.02-0.26,1.65-0.26c0.62,0,1.12,0.07,1.51,0.22c0.39,0.15,0.67,0.33,0.85,0.55s0.31,0.5,0.38,0.84c0.04,0.21,0.06,0.59,0.06,1.13
		v1.64c0,1.14,0.03,1.87,0.08,2.17s0.16,0.59,0.31,0.87h-1.29C41.4,223.57,41.32,223.27,41.28,222.93z M41.18,220.18
		c-0.45,0.18-1.12,0.34-2.01,0.46c-0.51,0.07-0.86,0.16-1.07,0.25c-0.21,0.09-0.37,0.22-0.49,0.4s-0.17,0.37-0.17,0.58
		c0,0.33,0.12,0.6,0.37,0.82s0.61,0.33,1.09,0.33c0.47,0,0.9-0.1,1.26-0.31s0.64-0.49,0.81-0.85c0.13-0.28,0.2-0.69,0.2-1.23V220.18
		z"/>
	<path class="st3" d="M47.02,222.72l0.18,1.09c-0.35,0.07-0.66,0.11-0.93,0.11c-0.45,0-0.79-0.07-1.04-0.21
		c-0.25-0.14-0.42-0.33-0.52-0.56s-0.15-0.71-0.15-1.45v-4.18h-0.9v-0.96h0.9v-1.8l1.22-0.74v2.54h1.24v0.96h-1.24v4.24
		c0,0.35,0.02,0.58,0.06,0.68c0.04,0.1,0.11,0.18,0.21,0.24c0.1,0.06,0.24,0.09,0.42,0.09C46.62,222.77,46.8,222.75,47.02,222.72z"
		/>
	<path class="st3" d="M56.85,222.93c-0.46,0.39-0.89,0.66-1.32,0.82c-0.42,0.16-0.87,0.24-1.36,0.24c-0.8,0-1.41-0.2-1.84-0.58
		s-0.64-0.89-0.64-1.49c0-0.36,0.08-0.68,0.24-0.97s0.37-0.53,0.64-0.71s0.56-0.31,0.89-0.4c0.24-0.06,0.61-0.13,1.09-0.18
		c0.99-0.12,1.73-0.26,2.19-0.42c0-0.17,0.01-0.28,0.01-0.32c0-0.5-0.12-0.85-0.35-1.06c-0.31-0.28-0.78-0.42-1.4-0.42
		c-0.58,0-1.01,0.1-1.28,0.3s-0.48,0.56-0.61,1.08l-1.2-0.16c0.11-0.51,0.29-0.93,0.54-1.25s0.61-0.56,1.09-0.73
		s1.02-0.26,1.65-0.26c0.62,0,1.12,0.07,1.51,0.22c0.39,0.15,0.67,0.33,0.85,0.55s0.31,0.5,0.38,0.84c0.04,0.21,0.06,0.59,0.06,1.13
		v1.64c0,1.14,0.03,1.87,0.08,2.17s0.16,0.59,0.31,0.87H57.1C56.97,223.57,56.89,223.27,56.85,222.93z M56.75,220.18
		c-0.45,0.18-1.12,0.34-2.01,0.46c-0.51,0.07-0.86,0.16-1.07,0.25c-0.21,0.09-0.37,0.22-0.49,0.4s-0.17,0.37-0.17,0.58
		c0,0.33,0.12,0.6,0.37,0.82s0.61,0.33,1.09,0.33c0.47,0,0.9-0.1,1.26-0.31s0.64-0.49,0.81-0.85c0.13-0.28,0.2-0.69,0.2-1.23V220.18
		z"/>
	<path class="st3" d="M59.9,223.82v-7.26h1.11v1.03c0.53-0.8,1.3-1.2,2.31-1.2c0.44,0,0.84,0.08,1.21,0.24s0.64,0.36,0.82,0.62
		c0.18,0.26,0.31,0.56,0.38,0.91c0.05,0.23,0.07,0.63,0.07,1.2v4.46h-1.23v-4.42c0-0.5-0.05-0.88-0.14-1.13s-0.27-0.45-0.51-0.59
		s-0.53-0.22-0.86-0.22c-0.52,0-0.98,0.17-1.36,0.5c-0.38,0.33-0.57,0.96-0.57,1.89v3.96H59.9z"/>
	<path class="st3" d="M72.39,223.82v-0.92c-0.46,0.72-1.14,1.08-2.03,1.08c-0.58,0-1.11-0.16-1.6-0.48
		c-0.49-0.32-0.86-0.77-1.13-1.34s-0.4-1.23-0.4-1.97c0-0.72,0.12-1.38,0.36-1.97s0.6-1.04,1.09-1.36s1.02-0.47,1.62-0.47
		c0.44,0,0.83,0.09,1.17,0.28s0.62,0.42,0.83,0.72v-3.6h1.22v10.02H72.39z M68.5,220.2c0,0.93,0.2,1.62,0.59,2.08
		c0.39,0.46,0.85,0.69,1.39,0.69c0.54,0,0.99-0.22,1.37-0.66s0.56-1.11,0.56-2.01c0-0.99-0.19-1.72-0.57-2.19s-0.85-0.7-1.42-0.7
		c-0.55,0-1,0.22-1.37,0.67C68.69,218.54,68.5,219.24,68.5,220.2z"/>
	<path class="st3" d="M79.37,215.22v-1.41h1.23v1.41H79.37z M79.37,223.82v-7.26h1.23v7.26H79.37z"/>
	<path class="st3" d="M81.98,221.66l1.22-0.19c0.07,0.49,0.26,0.86,0.57,1.12s0.75,0.39,1.31,0.39c0.56,0,0.98-0.12,1.26-0.35
		s0.41-0.5,0.41-0.81c0-0.28-0.12-0.5-0.36-0.66c-0.17-0.11-0.59-0.25-1.26-0.42c-0.9-0.23-1.53-0.43-1.88-0.59s-0.61-0.4-0.79-0.69
		s-0.27-0.62-0.27-0.97c0-0.32,0.07-0.62,0.22-0.9s0.35-0.5,0.6-0.69c0.19-0.14,0.45-0.26,0.78-0.36s0.68-0.15,1.06-0.15
		c0.57,0,1.07,0.08,1.5,0.25s0.75,0.39,0.95,0.67s0.35,0.66,0.42,1.13l-1.2,0.16c-0.05-0.37-0.21-0.67-0.48-0.88
		c-0.26-0.21-0.63-0.31-1.11-0.31c-0.56,0-0.97,0.09-1.21,0.28c-0.24,0.19-0.36,0.41-0.36,0.66c0,0.16,0.05,0.3,0.15,0.43
		c0.1,0.13,0.26,0.24,0.47,0.33c0.12,0.04,0.49,0.15,1.09,0.31c0.87,0.23,1.48,0.42,1.82,0.57s0.61,0.36,0.81,0.65
		c0.2,0.28,0.29,0.63,0.29,1.05c0,0.41-0.12,0.8-0.36,1.16s-0.58,0.64-1.04,0.84s-0.96,0.3-1.53,0.3c-0.94,0-1.66-0.2-2.16-0.59
		C82.43,223.01,82.12,222.43,81.98,221.66z"/>
	<path class="st3" d="M88.98,221.66l1.22-0.19c0.07,0.49,0.26,0.86,0.57,1.12s0.75,0.39,1.31,0.39c0.56,0,0.98-0.12,1.26-0.35
		s0.41-0.5,0.41-0.81c0-0.28-0.12-0.5-0.36-0.66c-0.17-0.11-0.59-0.25-1.26-0.42c-0.9-0.23-1.53-0.43-1.88-0.59s-0.61-0.4-0.79-0.69
		s-0.27-0.62-0.27-0.97c0-0.32,0.07-0.62,0.22-0.9s0.35-0.5,0.6-0.69c0.19-0.14,0.45-0.26,0.78-0.36s0.68-0.15,1.06-0.15
		c0.57,0,1.07,0.08,1.5,0.25s0.75,0.39,0.95,0.67s0.35,0.66,0.42,1.13l-1.2,0.16c-0.05-0.37-0.21-0.67-0.48-0.88
		c-0.26-0.21-0.63-0.31-1.11-0.31c-0.56,0-0.97,0.09-1.21,0.28c-0.24,0.19-0.36,0.41-0.36,0.66c0,0.16,0.05,0.3,0.15,0.43
		c0.1,0.13,0.26,0.24,0.47,0.33c0.12,0.04,0.49,0.15,1.09,0.31c0.87,0.23,1.48,0.42,1.82,0.57s0.61,0.36,0.81,0.65
		c0.2,0.28,0.29,0.63,0.29,1.05c0,0.41-0.12,0.8-0.36,1.16s-0.58,0.64-1.04,0.84s-0.96,0.3-1.53,0.3c-0.94,0-1.66-0.2-2.16-0.59
		C89.43,223.01,89.12,222.43,88.98,221.66z"/>
	<path class="st3" d="M101.23,223.82v-1.07c-0.56,0.82-1.33,1.23-2.3,1.23c-0.43,0-0.83-0.08-1.2-0.25s-0.65-0.37-0.83-0.62
		s-0.31-0.55-0.38-0.91c-0.05-0.24-0.08-0.63-0.08-1.15v-4.5h1.23v4.03c0,0.64,0.02,1.08,0.08,1.3c0.08,0.32,0.24,0.58,0.49,0.76
		s0.56,0.28,0.93,0.28s0.72-0.09,1.04-0.28s0.55-0.45,0.69-0.77s0.2-0.8,0.2-1.42v-3.89h1.23v7.26H101.23z"/>
	<path class="st3" d="M109.23,221.49l1.27,0.16c-0.2,0.74-0.57,1.32-1.11,1.73s-1.23,0.62-2.08,0.62c-1.06,0-1.9-0.33-2.53-0.98
		s-0.93-1.57-0.93-2.75c0-1.22,0.31-2.17,0.94-2.84c0.63-0.67,1.44-1.01,2.45-1.01c0.97,0,1.76,0.33,2.38,0.99
		c0.62,0.66,0.92,1.59,0.92,2.79c0,0.07,0,0.18-0.01,0.33h-5.41c0.05,0.8,0.27,1.41,0.68,1.83s0.91,0.64,1.52,0.64
		c0.45,0,0.84-0.12,1.16-0.36C108.79,222.38,109.04,222.01,109.23,221.49z M105.19,219.5h4.05c-0.05-0.61-0.21-1.07-0.46-1.37
		c-0.39-0.47-0.9-0.71-1.52-0.71c-0.56,0-1.04,0.19-1.43,0.57C105.44,218.36,105.23,218.86,105.19,219.5z"/>
	<path class="st3" d="M111.55,221.66l1.22-0.19c0.07,0.49,0.26,0.86,0.57,1.12s0.75,0.39,1.31,0.39c0.56,0,0.98-0.12,1.26-0.35
		s0.41-0.5,0.41-0.81c0-0.28-0.12-0.5-0.36-0.66c-0.17-0.11-0.59-0.25-1.26-0.42c-0.9-0.23-1.53-0.43-1.88-0.59s-0.61-0.4-0.79-0.69
		s-0.27-0.62-0.27-0.97c0-0.32,0.07-0.62,0.22-0.9s0.35-0.5,0.6-0.69c0.19-0.14,0.45-0.26,0.78-0.36s0.68-0.15,1.06-0.15
		c0.57,0,1.07,0.08,1.5,0.25s0.75,0.39,0.95,0.67s0.35,0.66,0.42,1.13l-1.2,0.16c-0.05-0.37-0.21-0.67-0.48-0.88
		c-0.26-0.21-0.63-0.31-1.11-0.31c-0.56,0-0.97,0.09-1.21,0.28c-0.24,0.19-0.36,0.41-0.36,0.66c0,0.16,0.05,0.3,0.15,0.43
		c0.1,0.13,0.26,0.24,0.47,0.33c0.12,0.04,0.49,0.15,1.09,0.31c0.87,0.23,1.48,0.42,1.82,0.57s0.61,0.36,0.81,0.65
		c0.2,0.28,0.29,0.63,0.29,1.05c0,0.41-0.12,0.8-0.36,1.16s-0.58,0.64-1.04,0.84s-0.96,0.3-1.53,0.3c-0.94,0-1.66-0.2-2.16-0.59
		C112,223.01,111.69,222.43,111.55,221.66z"/>
	<path class="st3" d="M127.67,222.93c-0.46,0.39-0.89,0.66-1.32,0.82c-0.42,0.16-0.87,0.24-1.36,0.24c-0.8,0-1.41-0.2-1.84-0.58
		s-0.64-0.89-0.64-1.49c0-0.36,0.08-0.68,0.24-0.97s0.37-0.53,0.64-0.71s0.56-0.31,0.89-0.4c0.24-0.06,0.61-0.13,1.09-0.18
		c0.99-0.12,1.73-0.26,2.19-0.42c0-0.17,0.01-0.28,0.01-0.32c0-0.5-0.12-0.85-0.35-1.06c-0.31-0.28-0.78-0.42-1.4-0.42
		c-0.58,0-1.01,0.1-1.28,0.3s-0.48,0.56-0.61,1.08l-1.2-0.16c0.11-0.51,0.29-0.93,0.54-1.25s0.61-0.56,1.09-0.73
		s1.02-0.26,1.65-0.26c0.62,0,1.12,0.07,1.51,0.22c0.39,0.15,0.67,0.33,0.85,0.55s0.31,0.5,0.38,0.84c0.04,0.21,0.06,0.59,0.06,1.13
		v1.64c0,1.14,0.03,1.87,0.08,2.17s0.16,0.59,0.31,0.87h-1.29C127.79,223.57,127.71,223.27,127.67,222.93z M127.57,220.18
		c-0.45,0.18-1.12,0.34-2.01,0.46c-0.51,0.07-0.86,0.16-1.07,0.25c-0.21,0.09-0.37,0.22-0.49,0.4s-0.17,0.37-0.17,0.58
		c0,0.33,0.12,0.6,0.37,0.82s0.61,0.33,1.09,0.33c0.47,0,0.9-0.1,1.26-0.31s0.64-0.49,0.81-0.85c0.13-0.28,0.2-0.69,0.2-1.23V220.18
		z"/>
	<path class="st3" d="M12.43,234.15l-0.31-1.87v-1.67h1.4v1.67l-0.33,1.87H12.43z"/>
	<path class="st3" d="M19.83,237.96l1.21,0.16c-0.13,0.83-0.47,1.49-1.02,1.96c-0.54,0.47-1.21,0.71-2.01,0.71
		c-0.99,0-1.79-0.33-2.4-0.97c-0.6-0.65-0.91-1.58-0.91-2.79c0-0.78,0.13-1.47,0.39-2.06s0.66-1.03,1.19-1.32
		c0.53-0.29,1.11-0.44,1.73-0.44c0.79,0,1.43,0.2,1.93,0.6c0.5,0.4,0.82,0.96,0.96,1.7l-1.2,0.18c-0.11-0.49-0.32-0.85-0.6-1.1
		s-0.64-0.37-1.05-0.37c-0.62,0-1.12,0.22-1.51,0.67c-0.39,0.44-0.58,1.15-0.58,2.11c0,0.98,0.19,1.68,0.56,2.13
		s0.86,0.66,1.46,0.66c0.48,0,0.89-0.15,1.21-0.44S19.75,238.58,19.83,237.96z"/>
	<path class="st3" d="M22.07,240.62V230.6h1.23v10.02H22.07z"/>
	<path class="st3" d="M25.21,232.02v-1.42h1.23v1.42H25.21z M25.21,240.62v-7.26h1.23v7.26H25.21z"/>
	<path class="st3" d="M28.32,240.62v-7.26h1.1v1.02c0.23-0.36,0.53-0.64,0.91-0.86c0.38-0.22,0.81-0.33,1.29-0.33
		c0.54,0,0.98,0.11,1.32,0.33s0.59,0.54,0.73,0.94c0.57-0.85,1.32-1.27,2.24-1.27c0.72,0,1.27,0.2,1.66,0.6
		c0.39,0.4,0.58,1.01,0.58,1.84v4.98h-1.22v-4.57c0-0.49-0.04-0.85-0.12-1.06c-0.08-0.22-0.22-0.39-0.43-0.52s-0.46-0.2-0.74-0.2
		c-0.51,0-0.93,0.17-1.27,0.51c-0.34,0.34-0.51,0.88-0.51,1.63v4.22h-1.23v-4.72c0-0.55-0.1-0.96-0.3-1.23s-0.53-0.41-0.98-0.41
		c-0.35,0-0.67,0.09-0.96,0.27s-0.51,0.45-0.64,0.8s-0.2,0.86-0.2,1.52v3.77H28.32z"/>
	<path class="st3" d="M41.11,240.62h-1.14V230.6h1.23v3.58c0.52-0.65,1.18-0.98,1.99-0.98c0.45,0,0.87,0.09,1.27,0.27
		c0.4,0.18,0.73,0.43,0.98,0.76c0.26,0.33,0.46,0.72,0.6,1.18s0.22,0.95,0.22,1.48c0,1.24-0.31,2.21-0.92,2.88s-1.35,1.02-2.21,1.02
		c-0.86,0-1.53-0.36-2.02-1.07V240.62z M41.1,236.94c0,0.87,0.12,1.5,0.36,1.89c0.39,0.63,0.91,0.95,1.57,0.95
		c0.54,0,1-0.23,1.39-0.7c0.39-0.47,0.59-1.16,0.59-2.09c0-0.95-0.19-1.65-0.56-2.1s-0.83-0.68-1.36-0.68c-0.54,0-1,0.23-1.39,0.7
		C41.3,235.38,41.1,236.05,41.1,236.94z"/>
	<path class="st3" d="M47.77,234.15l-0.31-1.87v-1.67h1.4v1.67l-0.33,1.87H47.77z"/>
	<path class="st3" d="M54.5,240.62V230.6h4.44c0.89,0,1.57,0.09,2.04,0.27c0.46,0.18,0.84,0.5,1.11,0.95s0.42,0.96,0.42,1.51
		c0,0.71-0.23,1.31-0.69,1.8s-1.17,0.8-2.13,0.93c0.35,0.17,0.62,0.33,0.8,0.5c0.39,0.36,0.75,0.8,1.1,1.33l1.74,2.73h-1.67
		l-1.33-2.08c-0.39-0.6-0.71-1.06-0.96-1.38s-0.48-0.54-0.67-0.67s-0.4-0.22-0.6-0.27c-0.15-0.03-0.4-0.05-0.74-0.05h-1.54v4.45
		H54.5z M55.83,235.03h2.85c0.61,0,1.08-0.06,1.42-0.19c0.34-0.13,0.6-0.33,0.78-0.6c0.18-0.28,0.27-0.58,0.27-0.9
		c0-0.47-0.17-0.86-0.52-1.17s-0.89-0.46-1.63-0.46h-3.17V235.03z"/>
	<path class="st3" d="M63.49,240.62l3.85-10.02h1.43l4.1,10.02h-1.51l-1.17-3.04H66l-1.1,3.04H63.49z M66.39,236.51h3.4l-1.05-2.78
		c-0.32-0.84-0.56-1.54-0.71-2.08c-0.13,0.64-0.31,1.28-0.54,1.91L66.39,236.51z"/>
</g>
<g id="text6">
	<rect x="336" y="116.84" class="st1" width="147.67" height="22.94"/>
	<path class="st3" d="M343.05,125.68v1.18h-6.62c-0.01-0.3,0.04-0.58,0.14-0.85c0.17-0.45,0.44-0.9,0.81-1.33
		c0.37-0.44,0.91-0.94,1.61-1.52c1.09-0.89,1.83-1.6,2.21-2.12s0.57-1.02,0.57-1.48c0-0.49-0.17-0.9-0.52-1.23
		c-0.35-0.33-0.8-0.5-1.36-0.5c-0.59,0-1.07,0.18-1.42,0.53s-0.54,0.85-0.54,1.48l-1.26-0.13c0.09-0.94,0.41-1.66,0.98-2.16
		s1.32-0.74,2.28-0.74c0.96,0,1.72,0.27,2.28,0.8s0.84,1.19,0.84,1.98c0,0.4-0.08,0.8-0.25,1.18s-0.44,0.8-0.82,1.22
		c-0.38,0.43-1.01,1.02-1.9,1.76c-0.74,0.62-1.21,1.04-1.42,1.26s-0.38,0.44-0.52,0.67H343.05z"/>
	<path class="st3" d="M345.06,126.87v-1.4h1.4v1.4H345.06z"/>
	<path class="st3" d="M354.94,126.87v-8.84h-3.3v-1.18h7.94v1.18h-3.32v8.84H354.94z"/>
	<path class="st3" d="M360.79,126.87v-10.02h1.23v3.6c0.57-0.67,1.3-1,2.17-1c0.54,0,1,0.11,1.4,0.32s0.68,0.5,0.85,0.88
		c0.17,0.37,0.26,0.92,0.26,1.63v4.6h-1.23v-4.6c0-0.62-0.13-1.06-0.4-1.34c-0.27-0.28-0.64-0.42-1.13-0.42
		c-0.36,0-0.71,0.09-1.03,0.28c-0.32,0.19-0.55,0.45-0.69,0.77s-0.21,0.77-0.21,1.34v3.97H360.79z"/>
	<path class="st3" d="M373.54,124.53l1.27,0.16c-0.2,0.74-0.57,1.32-1.11,1.73s-1.24,0.62-2.08,0.62c-1.06,0-1.9-0.33-2.53-0.98
		c-0.62-0.65-0.93-1.57-0.93-2.75c0-1.22,0.31-2.17,0.94-2.84s1.44-1.01,2.45-1.01c0.97,0,1.76,0.33,2.38,0.99s0.92,1.59,0.92,2.79
		c0,0.07,0,0.18-0.01,0.33h-5.41c0.05,0.8,0.27,1.41,0.68,1.83s0.91,0.64,1.52,0.64c0.45,0,0.84-0.12,1.16-0.36
		S373.36,125.05,373.54,124.53z M369.5,122.54h4.05c-0.05-0.61-0.21-1.07-0.46-1.37c-0.39-0.47-0.9-0.71-1.52-0.71
		c-0.57,0-1.04,0.19-1.42,0.57C369.76,121.4,369.54,121.91,369.5,122.54z"/>
	<path class="st3" d="M382.94,125.77l0.18,1.09c-0.35,0.07-0.66,0.11-0.93,0.11c-0.45,0-0.79-0.07-1.04-0.21
		c-0.25-0.14-0.42-0.33-0.52-0.56c-0.1-0.23-0.15-0.71-0.15-1.45v-4.18h-0.9v-0.96h0.9v-1.8l1.22-0.74v2.54h1.24v0.96h-1.24v4.25
		c0,0.35,0.02,0.58,0.07,0.68c0.04,0.1,0.11,0.18,0.21,0.24c0.1,0.06,0.24,0.09,0.42,0.09C382.53,125.81,382.71,125.8,382.94,125.77
		z"/>
	<path class="st3" d="M384.14,126.87v-10.02h1.23v3.6c0.57-0.67,1.3-1,2.17-1c0.54,0,1,0.11,1.4,0.32s0.68,0.5,0.85,0.88
		c0.17,0.37,0.26,0.92,0.26,1.63v4.6h-1.23v-4.6c0-0.62-0.13-1.06-0.4-1.34c-0.27-0.28-0.64-0.42-1.13-0.42
		c-0.36,0-0.71,0.09-1.03,0.28c-0.32,0.19-0.55,0.45-0.69,0.77s-0.21,0.77-0.21,1.34v3.97H384.14z"/>
	<path class="st3" d="M391.91,126.87v-7.26h1.11v1.1c0.28-0.52,0.54-0.85,0.78-1.02c0.24-0.16,0.5-0.25,0.79-0.25
		c0.42,0,0.84,0.13,1.26,0.4l-0.42,1.14c-0.3-0.18-0.6-0.27-0.9-0.27c-0.27,0-0.51,0.08-0.72,0.24s-0.37,0.39-0.46,0.67
		c-0.14,0.44-0.21,0.92-0.21,1.44v3.8H391.91z"/>
	<path class="st3" d="M401.56,124.53l1.27,0.16c-0.2,0.74-0.57,1.32-1.11,1.73s-1.24,0.62-2.08,0.62c-1.06,0-1.9-0.33-2.53-0.98
		c-0.62-0.65-0.93-1.57-0.93-2.75c0-1.22,0.31-2.17,0.94-2.84s1.44-1.01,2.45-1.01c0.97,0,1.76,0.33,2.38,0.99s0.92,1.59,0.92,2.79
		c0,0.07,0,0.18-0.01,0.33h-5.41c0.05,0.8,0.27,1.41,0.68,1.83s0.91,0.64,1.52,0.64c0.45,0,0.84-0.12,1.16-0.36
		S401.37,125.05,401.56,124.53z M397.52,122.54h4.05c-0.05-0.61-0.21-1.07-0.46-1.37c-0.39-0.47-0.9-0.71-1.52-0.71
		c-0.57,0-1.04,0.19-1.42,0.57C397.77,121.4,397.56,121.91,397.52,122.54z"/>
	<path class="st3" d="M409.11,125.97c-0.46,0.39-0.89,0.66-1.32,0.82c-0.42,0.16-0.88,0.24-1.36,0.24c-0.8,0-1.41-0.2-1.84-0.58
		s-0.64-0.89-0.64-1.49c0-0.36,0.08-0.68,0.24-0.97c0.16-0.29,0.37-0.53,0.63-0.71c0.26-0.18,0.56-0.31,0.89-0.4
		c0.24-0.06,0.61-0.13,1.09-0.18c0.99-0.12,1.73-0.26,2.19-0.42c0-0.17,0.01-0.28,0.01-0.32c0-0.5-0.12-0.85-0.35-1.06
		c-0.31-0.28-0.78-0.42-1.4-0.42c-0.58,0-1.01,0.1-1.28,0.3c-0.28,0.2-0.48,0.56-0.61,1.08l-1.2-0.16c0.11-0.52,0.29-0.93,0.54-1.25
		s0.61-0.56,1.09-0.73s1.02-0.26,1.65-0.26c0.62,0,1.12,0.07,1.51,0.22s0.67,0.33,0.85,0.55s0.31,0.5,0.38,0.84
		c0.04,0.21,0.06,0.59,0.06,1.13v1.64c0,1.14,0.03,1.87,0.08,2.17c0.05,0.3,0.16,0.59,0.31,0.87h-1.29
		C409.23,126.61,409.15,126.31,409.11,125.97z M409.01,123.22c-0.45,0.18-1.12,0.34-2.01,0.46c-0.51,0.07-0.86,0.15-1.07,0.25
		s-0.37,0.22-0.49,0.4s-0.17,0.37-0.17,0.58c0,0.33,0.12,0.6,0.37,0.82c0.25,0.22,0.61,0.33,1.09,0.33c0.47,0,0.9-0.1,1.26-0.31
		s0.64-0.49,0.81-0.85c0.13-0.28,0.2-0.69,0.2-1.23V123.22z"/>
	<path class="st3" d="M414.85,125.77l0.18,1.09c-0.35,0.07-0.66,0.11-0.93,0.11c-0.45,0-0.79-0.07-1.04-0.21
		c-0.25-0.14-0.42-0.33-0.52-0.56c-0.1-0.23-0.15-0.71-0.15-1.45v-4.18h-0.9v-0.96h0.9v-1.8l1.22-0.74v2.54h1.24v0.96h-1.24v4.25
		c0,0.35,0.02,0.58,0.07,0.68c0.04,0.1,0.11,0.18,0.21,0.24c0.1,0.06,0.24,0.09,0.42,0.09C414.44,125.81,414.62,125.8,414.85,125.77
		z"/>
	<path class="st3" d="M419.91,126.87v-10.02h1.23v10.02H419.91z"/>
	<path class="st3" d="M428.02,124.53l1.27,0.16c-0.2,0.74-0.57,1.32-1.11,1.73s-1.23,0.62-2.08,0.62c-1.06,0-1.9-0.33-2.53-0.98
		c-0.62-0.65-0.93-1.57-0.93-2.75c0-1.22,0.31-2.17,0.94-2.84s1.45-1.01,2.45-1.01c0.97,0,1.76,0.33,2.38,0.99s0.92,1.59,0.92,2.79
		c0,0.07,0,0.18-0.01,0.33h-5.41c0.04,0.8,0.27,1.41,0.68,1.83s0.91,0.64,1.52,0.64c0.45,0,0.84-0.12,1.16-0.36
		S427.83,125.05,428.02,124.53z M423.98,122.54h4.05c-0.05-0.61-0.21-1.07-0.46-1.37c-0.39-0.47-0.9-0.71-1.52-0.71
		c-0.56,0-1.04,0.19-1.43,0.57C424.23,121.4,424.02,121.91,423.98,122.54z"/>
	<path class="st3" d="M432.85,126.87l-2.76-7.26h1.3l1.56,4.35c0.17,0.47,0.32,0.96,0.46,1.46c0.11-0.38,0.26-0.84,0.46-1.38
		l1.61-4.43h1.26l-2.75,7.26H432.85z"/>
	<path class="st3" d="M442.8,124.53l1.27,0.16c-0.2,0.74-0.57,1.32-1.11,1.73s-1.24,0.62-2.08,0.62c-1.06,0-1.9-0.33-2.53-0.98
		c-0.62-0.65-0.93-1.57-0.93-2.75c0-1.22,0.31-2.17,0.94-2.84s1.44-1.01,2.45-1.01c0.97,0,1.76,0.33,2.38,0.99s0.92,1.59,0.92,2.79
		c0,0.07,0,0.18-0.01,0.33h-5.41c0.05,0.8,0.27,1.41,0.68,1.83s0.91,0.64,1.52,0.64c0.45,0,0.84-0.12,1.16-0.36
		S442.62,125.05,442.8,124.53z M438.76,122.54h4.05c-0.05-0.61-0.21-1.07-0.46-1.37c-0.39-0.47-0.9-0.71-1.52-0.71
		c-0.57,0-1.04,0.19-1.42,0.57C439.02,121.4,438.81,121.91,438.76,122.54z"/>
	<path class="st3" d="M445.59,126.87v-10.02h1.23v10.02H445.59z"/>
	<path class="st3" d="M448.24,124.7l1.22-0.19c0.07,0.49,0.26,0.86,0.57,1.12c0.31,0.26,0.75,0.39,1.31,0.39
		c0.56,0,0.98-0.12,1.26-0.35s0.41-0.5,0.41-0.81c0-0.28-0.12-0.5-0.36-0.66c-0.17-0.11-0.59-0.25-1.26-0.42
		c-0.9-0.23-1.53-0.42-1.88-0.59c-0.35-0.17-0.61-0.4-0.79-0.69c-0.18-0.29-0.27-0.62-0.27-0.97c0-0.32,0.07-0.62,0.22-0.9
		c0.15-0.28,0.35-0.5,0.61-0.69c0.19-0.14,0.45-0.26,0.78-0.36c0.33-0.1,0.68-0.15,1.06-0.15c0.57,0,1.07,0.08,1.5,0.25
		c0.43,0.16,0.75,0.39,0.95,0.67s0.35,0.66,0.42,1.12l-1.2,0.16c-0.05-0.37-0.21-0.67-0.48-0.88c-0.26-0.21-0.63-0.31-1.11-0.31
		c-0.57,0-0.97,0.09-1.21,0.28s-0.36,0.41-0.36,0.66c0,0.16,0.05,0.3,0.15,0.43c0.1,0.13,0.26,0.24,0.47,0.33
		c0.12,0.05,0.49,0.15,1.09,0.31c0.87,0.23,1.48,0.42,1.82,0.57c0.34,0.15,0.62,0.36,0.81,0.65s0.29,0.63,0.29,1.05
		c0,0.41-0.12,0.8-0.36,1.16c-0.24,0.36-0.58,0.64-1.04,0.84s-0.96,0.3-1.53,0.3c-0.94,0-1.66-0.2-2.16-0.59
		C448.69,126.05,448.38,125.47,448.24,124.7z"/>
	<path class="st3" d="M459.16,123.24c0-1.34,0.37-2.34,1.12-2.99c0.62-0.54,1.39-0.81,2.28-0.81c1,0,1.81,0.33,2.45,0.98
		s0.95,1.56,0.95,2.71c0,0.93-0.14,1.67-0.42,2.2c-0.28,0.54-0.69,0.95-1.22,1.25c-0.54,0.3-1.12,0.44-1.75,0.44
		c-1.02,0-1.84-0.33-2.46-0.98C459.48,125.4,459.16,124.46,459.16,123.24z M460.43,123.24c0,0.93,0.2,1.63,0.61,2.09
		s0.92,0.69,1.53,0.69c0.61,0,1.12-0.23,1.52-0.7s0.61-1.17,0.61-2.13c0-0.9-0.2-1.58-0.61-2.04c-0.41-0.46-0.91-0.69-1.52-0.69
		c-0.62,0-1.13,0.23-1.53,0.69S460.43,122.31,460.43,123.24z"/>
	<path class="st3" d="M467.7,126.87v-6.3h-1.09v-0.96h1.09v-0.77c0-0.49,0.04-0.85,0.13-1.09c0.12-0.32,0.33-0.58,0.63-0.78
		c0.3-0.2,0.72-0.3,1.25-0.3c0.35,0,0.73,0.04,1.15,0.12l-0.18,1.07c-0.25-0.05-0.5-0.07-0.72-0.07c-0.37,0-0.64,0.08-0.79,0.24
		s-0.23,0.46-0.23,0.9v0.67h1.42v0.96h-1.42v6.3H467.7z"/>
	<path class="st3" d="M471.34,126.87v-6.3h-1.09v-0.96h1.09v-0.77c0-0.49,0.04-0.85,0.13-1.09c0.12-0.32,0.33-0.58,0.63-0.78
		c0.3-0.2,0.72-0.3,1.25-0.3c0.35,0,0.73,0.04,1.15,0.12l-0.18,1.07c-0.25-0.05-0.5-0.07-0.72-0.07c-0.37,0-0.64,0.08-0.79,0.24
		s-0.23,0.46-0.23,0.9v0.67h1.42v0.96h-1.42v6.3H471.34z"/>
	<path class="st3" d="M475.28,126.87v-1.4h1.4v1.4H475.28z"/>
</g>
<g id="text1">
	<rect x="11" y="37.5" class="st1" width="109" height="32"/>
	<path class="st4" d="M49,42.57c0-1.02,0.15-1.88,0.46-2.57c0.23-0.51,0.54-0.97,0.93-1.37s0.83-0.71,1.3-0.9
		c0.62-0.26,1.34-0.4,2.16-0.4c1.48,0,2.66,0.46,3.54,1.37s1.33,2.19,1.33,3.82c0,1.62-0.44,2.88-1.32,3.8s-2.06,1.37-3.53,1.37
		c-1.49,0-2.68-0.45-3.55-1.36S49,44.17,49,42.57z M51.09,42.51c0,1.13,0.26,2,0.79,2.58s1.19,0.88,2,0.88s1.47-0.29,1.99-0.87
		s0.78-1.45,0.78-2.61c0-1.15-0.25-2.01-0.76-2.57s-1.17-0.85-2.01-0.85s-1.51,0.29-2.02,0.86S51.09,41.35,51.09,42.51z"/>
	<path class="st4" d="M61.72,47.52L59.33,37.5h2.07l1.51,6.88l1.83-6.88h2.41l1.76,7l1.54-7h2.04l-2.43,10.02H67.9l-2-7.49
		l-1.99,7.49H61.72z"/>
	<path class="st4" d="M73.54,47.52V37.5h1.97l4.1,6.69V37.5h1.88v10.02h-2.03l-4.04-6.54v6.54H73.54z"/>
	<path class="st4" d="M39.78,64.32h-2.2l-0.88-2.28H32.7l-0.83,2.28h-2.15l3.9-10.02h2.14L39.78,64.32z M36.06,60.36l-1.38-3.72
		l-1.35,3.72H36.06z"/>
	<path class="st4" d="M40.79,64.32V54.3h2.02v10.02H40.79z"/>
	<path class="st4" d="M44.75,64.32V54.3h4.26c1.07,0,1.85,0.09,2.33,0.27s0.87,0.5,1.17,0.96s0.44,0.99,0.44,1.58
		c0,0.75-0.22,1.37-0.66,1.86s-1.1,0.8-1.98,0.93c0.44,0.26,0.8,0.54,1.08,0.84s0.67,0.85,1.15,1.63l1.22,1.96h-2.42l-1.46-2.18
		c-0.52-0.78-0.88-1.27-1.07-1.47s-0.39-0.34-0.61-0.42s-0.55-0.11-1.02-0.11h-0.41v4.18H44.75z M46.78,58.54h1.5
		c0.97,0,1.58-0.04,1.82-0.12s0.43-0.22,0.57-0.42s0.21-0.45,0.21-0.75c0-0.34-0.09-0.61-0.27-0.82s-0.43-0.34-0.76-0.39
		C49.67,56.01,49.18,56,48.36,56h-1.58V58.54z"/>
	<path class="st4" d="M61.27,60.64l1.96,0.62c-0.3,1.09-0.8,1.91-1.5,2.44s-1.59,0.8-2.66,0.8c-1.33,0-2.42-0.45-3.28-1.36
		s-1.29-2.15-1.29-3.73c0-1.67,0.43-2.96,1.29-3.89s1.99-1.38,3.4-1.38c1.23,0,2.22,0.36,2.99,1.09c0.46,0.43,0.8,1.04,1.03,1.85
		l-2,0.48c-0.12-0.52-0.37-0.93-0.74-1.23s-0.83-0.45-1.37-0.45c-0.74,0-1.35,0.27-1.81,0.8s-0.69,1.4-0.69,2.59
		c0,1.27,0.23,2.17,0.68,2.71s1.05,0.81,1.78,0.81c0.54,0,1-0.17,1.39-0.51S61.1,61.37,61.27,60.64z"/>
	<path class="st4" d="M64.97,64.32V54.3h4.26c1.07,0,1.85,0.09,2.33,0.27s0.87,0.5,1.17,0.96s0.44,0.99,0.44,1.58
		c0,0.75-0.22,1.37-0.66,1.86s-1.1,0.8-1.98,0.93c0.44,0.26,0.8,0.54,1.08,0.84s0.67,0.85,1.15,1.63l1.22,1.96h-2.42l-1.46-2.18
		c-0.52-0.78-0.88-1.27-1.07-1.47s-0.39-0.34-0.61-0.42s-0.55-0.11-1.02-0.11H67v4.18H64.97z M67,58.54h1.5
		c0.97,0,1.58-0.04,1.82-0.12s0.43-0.22,0.57-0.42s0.21-0.45,0.21-0.75c0-0.34-0.09-0.61-0.27-0.82s-0.43-0.34-0.76-0.39
		C69.89,56.01,69.4,56,68.58,56H67V58.54z"/>
	<path class="st4" d="M84.11,64.32h-2.2l-0.88-2.28h-4.01l-0.83,2.28h-2.15l3.9-10.02h2.14L84.11,64.32z M80.39,60.36l-1.38-3.72
		l-1.35,3.72H80.39z"/>
	<path class="st4" d="M85.2,64.32V54.3h6.87V56h-4.85v2.37h4.18v1.7h-4.18v4.26H85.2z"/>
	<path class="st4" d="M96,64.32V56h-2.97v-1.7h7.96V56h-2.97v8.33H96z"/>
</g>
<g id="text2">
	<rect x="377.05" y="15.83" class="st1" width="109" height="18.5"/>
	<path class="st4" d="M406.96,25.85v-8.33h-2.97v-1.7h7.96v1.7h-2.97v8.33H406.96z"/>
	<path class="st4" d="M413.26,25.85V15.83h2.02v3.94h3.96v-3.94h2.02v10.02h-2.02v-4.38h-3.96v4.38H413.26z"/>
	<path class="st4" d="M423.37,25.85V15.83h4.26c1.07,0,1.85,0.09,2.33,0.27s0.87,0.5,1.17,0.96c0.29,0.46,0.44,0.99,0.44,1.58
		c0,0.75-0.22,1.37-0.66,1.86c-0.44,0.49-1.1,0.8-1.98,0.93c0.44,0.26,0.8,0.54,1.08,0.84c0.29,0.31,0.67,0.85,1.15,1.63l1.22,1.96
		h-2.42l-1.46-2.18c-0.52-0.78-0.88-1.27-1.07-1.47s-0.39-0.34-0.61-0.42c-0.21-0.08-0.55-0.11-1.02-0.11h-0.41v4.18H423.37z
		 M425.39,20.07h1.5c0.97,0,1.58-0.04,1.82-0.12c0.24-0.08,0.43-0.22,0.57-0.42s0.21-0.45,0.21-0.75c0-0.34-0.09-0.61-0.27-0.82
		c-0.18-0.21-0.43-0.34-0.76-0.39c-0.16-0.02-0.66-0.03-1.48-0.03h-1.58V20.07z"/>
	<path class="st4" d="M433.47,25.85V15.83h7.43v1.7h-5.41v2.22h5.03v1.69h-5.03v2.73h5.6v1.69H433.47z"/>
	<path class="st4" d="M451.85,25.85h-2.2l-0.88-2.28h-4.01l-0.83,2.28h-2.15l3.9-10.02h2.14L451.85,25.85z M448.12,21.89l-1.38-3.72
		l-1.35,3.72H448.12z"/>
	<path class="st4" d="M454.14,25.85v-8.33h-2.97v-1.7h7.96v1.7h-2.97v8.33H454.14z"/>
</g>
<g id="text3">
	<rect x="9.45" y="125" class="st1" width="167.05" height="23"/>
	<path class="st5" d="M12.27,129.06h-1.92v-1.37c0-0.56,0.05-1,0.15-1.32s0.28-0.61,0.54-0.86s0.6-0.46,1.01-0.6l0.38,0.79
		c-0.38,0.13-0.66,0.31-0.82,0.53c-0.17,0.23-0.25,0.53-0.26,0.91h0.93V129.06z M15.48,129.06h-1.92v-1.37c0-0.56,0.05-1,0.15-1.32
		c0.1-0.32,0.28-0.61,0.55-0.86s0.6-0.46,1.01-0.6l0.38,0.79c-0.38,0.13-0.66,0.31-0.82,0.53c-0.17,0.23-0.25,0.53-0.26,0.91h0.93
		V129.06z"/>
	<path class="st5" d="M23.88,131.34l1.96,0.62c-0.3,1.09-0.8,1.91-1.5,2.44s-1.59,0.8-2.66,0.8c-1.33,0-2.42-0.46-3.28-1.36
		s-1.29-2.15-1.29-3.73c0-1.67,0.43-2.96,1.29-3.89s1.99-1.38,3.4-1.38c1.23,0,2.22,0.36,2.99,1.09c0.46,0.43,0.8,1.04,1.03,1.85
		l-2,0.48c-0.12-0.52-0.37-0.93-0.74-1.23s-0.83-0.45-1.37-0.45c-0.74,0-1.35,0.27-1.81,0.8s-0.69,1.4-0.69,2.59
		c0,1.27,0.23,2.17,0.68,2.71c0.46,0.54,1.05,0.81,1.78,0.81c0.54,0,1-0.17,1.39-0.51S23.71,132.07,23.88,131.34z"/>
	<path class="st5" d="M27.57,135.02V125h1.92v10.02H27.57z"/>
	<path class="st5" d="M31.46,126.78V125h1.92v1.78H31.46z M31.46,135.02v-7.26h1.92v7.26H31.46z"/>
	<path class="st5" d="M35.2,127.76h1.77v0.99c0.63-0.77,1.39-1.16,2.26-1.16c0.46,0,0.87,0.1,1.21,0.29s0.62,0.48,0.84,0.87
		c0.32-0.39,0.66-0.68,1.03-0.87s0.76-0.29,1.18-0.29c0.53,0,0.98,0.11,1.35,0.33s0.65,0.53,0.83,0.95c0.13,0.31,0.2,0.81,0.2,1.5
		v4.64h-1.92v-4.15c0-0.72-0.07-1.19-0.2-1.39c-0.18-0.27-0.45-0.41-0.82-0.41c-0.27,0-0.52,0.08-0.76,0.25s-0.41,0.4-0.51,0.72
		s-0.16,0.82-0.16,1.5v3.49h-1.92v-3.98c0-0.71-0.03-1.16-0.1-1.37s-0.17-0.36-0.32-0.46c-0.14-0.1-0.34-0.15-0.58-0.15
		c-0.3,0-0.56,0.08-0.8,0.24c-0.24,0.16-0.41,0.39-0.51,0.69s-0.15,0.8-0.15,1.5v3.53H35.2V127.76z"/>
	<path class="st5" d="M47.71,135.02V125h1.92v3.61c0.59-0.67,1.29-1.01,2.11-1.01c0.88,0,1.62,0.32,2.19,0.96s0.87,1.56,0.87,2.76
		c0,1.24-0.29,2.2-0.89,2.87s-1.31,1-2.15,1c-0.41,0-0.82-0.1-1.23-0.31s-0.75-0.51-1.04-0.92v1.07H47.71z M49.62,131.24
		c0,0.75,0.12,1.31,0.36,1.67c0.33,0.51,0.77,0.77,1.33,0.77c0.42,0,0.79-0.18,1.08-0.54s0.45-0.93,0.45-1.71
		c0-0.83-0.15-1.43-0.45-1.79s-0.69-0.55-1.16-0.55c-0.46,0-0.84,0.18-1.15,0.54S49.62,130.51,49.62,131.24z"/>
	<path class="st5" d="M56.3,133.1h1.92v1.37c0,0.56-0.05,1-0.14,1.32s-0.28,0.61-0.54,0.87c-0.27,0.25-0.6,0.46-1.02,0.6l-0.38-0.79
		c0.39-0.13,0.66-0.3,0.83-0.53c0.16-0.22,0.25-0.53,0.26-0.92H56.3V133.1z"/>
	<path class="st5" d="M70.46,129.91l-1.89,0.34c-0.06-0.38-0.21-0.66-0.43-0.85s-0.52-0.29-0.88-0.29c-0.48,0-0.86,0.16-1.15,0.5
		s-0.43,0.88-0.43,1.66c0,0.86,0.14,1.47,0.43,1.83s0.68,0.53,1.17,0.53c0.36,0,0.66-0.1,0.9-0.31s0.4-0.56,0.49-1.07l1.89,0.32
		c-0.2,0.87-0.57,1.52-1.13,1.96c-0.56,0.44-1.3,0.66-2.24,0.66c-1.06,0-1.91-0.33-2.54-1s-0.95-1.6-0.95-2.78
		c0-1.2,0.32-2.13,0.95-2.8s1.49-1,2.57-1c0.88,0,1.59,0.19,2.11,0.57S70.23,129.13,70.46,129.91z"/>
	<path class="st5" d="M71.91,135.02V125h1.92v10.02H71.91z"/>
	<path class="st5" d="M75.8,126.78V125h1.92v1.78H75.8z M75.8,135.02v-7.26h1.92v7.26H75.8z"/>
	<path class="st5" d="M79.55,127.76h1.77v0.99c0.63-0.77,1.39-1.16,2.26-1.16c0.46,0,0.87,0.1,1.21,0.29s0.62,0.48,0.84,0.87
		c0.32-0.39,0.66-0.68,1.03-0.87s0.76-0.29,1.18-0.29c0.53,0,0.98,0.11,1.35,0.33s0.65,0.53,0.83,0.95c0.13,0.31,0.2,0.81,0.2,1.5
		v4.64H88.3v-4.15c0-0.72-0.07-1.19-0.2-1.39c-0.18-0.27-0.45-0.41-0.82-0.41c-0.27,0-0.52,0.08-0.76,0.25s-0.41,0.4-0.51,0.72
		s-0.16,0.82-0.16,1.5v3.49h-1.92v-3.98c0-0.71-0.03-1.16-0.1-1.37s-0.17-0.36-0.32-0.46c-0.14-0.1-0.34-0.15-0.58-0.15
		c-0.3,0-0.56,0.08-0.8,0.24c-0.24,0.16-0.41,0.39-0.51,0.69s-0.15,0.8-0.15,1.5v3.53h-1.92V127.76z"/>
	<path class="st5" d="M92.06,135.02V125h1.92v3.61c0.59-0.67,1.29-1.01,2.11-1.01c0.88,0,1.62,0.32,2.19,0.96s0.87,1.56,0.87,2.76
		c0,1.24-0.29,2.2-0.89,2.87s-1.31,1-2.15,1c-0.41,0-0.82-0.1-1.23-0.31s-0.75-0.51-1.04-0.92v1.07H92.06z M93.96,131.24
		c0,0.75,0.12,1.31,0.36,1.67c0.33,0.51,0.77,0.77,1.33,0.77c0.42,0,0.79-0.18,1.08-0.54s0.45-0.93,0.45-1.71
		c0-0.83-0.15-1.43-0.45-1.79s-0.69-0.55-1.16-0.55c-0.46,0-0.84,0.18-1.15,0.54S93.96,130.51,93.96,131.24z"/>
	<path class="st5" d="M100.56,125h1.92v1.38c0,0.56-0.05,0.99-0.14,1.31c-0.1,0.32-0.28,0.61-0.54,0.87s-0.6,0.46-1.02,0.61
		l-0.38-0.8c0.39-0.13,0.66-0.3,0.83-0.53c0.16-0.23,0.25-0.53,0.26-0.91h-0.93V125z M103.79,125h1.92v1.38
		c0,0.56-0.05,0.99-0.15,1.31c-0.1,0.32-0.28,0.61-0.55,0.87s-0.6,0.46-1.01,0.61l-0.38-0.8c0.38-0.13,0.66-0.3,0.82-0.53
		c0.17-0.23,0.25-0.53,0.26-0.91h-0.92V125z"/>
</g>
<g id="text4">
	<rect x="8.22" y="153" class="st1" width="214.28" height="21.5"/>
	<path class="st5" d="M11.04,157.06H9.12v-1.37c0-0.56,0.05-1,0.15-1.32s0.28-0.61,0.54-0.87c0.26-0.25,0.6-0.46,1.01-0.6l0.38,0.79
		c-0.38,0.13-0.66,0.31-0.82,0.53c-0.17,0.23-0.25,0.53-0.26,0.91h0.93V157.06z M14.25,157.06h-1.92v-1.37c0-0.56,0.05-1,0.15-1.32
		c0.1-0.32,0.28-0.61,0.55-0.86c0.27-0.25,0.6-0.46,1.01-0.6l0.38,0.79c-0.38,0.13-0.66,0.31-0.82,0.53
		c-0.17,0.23-0.25,0.53-0.26,0.91h0.93V157.06z"/>
	<path class="st5" d="M16.23,153h3.7c0.83,0,1.47,0.06,1.91,0.19c0.59,0.17,1.09,0.48,1.51,0.92c0.42,0.44,0.74,0.98,0.96,1.62
		s0.33,1.43,0.33,2.37c0,0.82-0.1,1.54-0.31,2.13c-0.25,0.73-0.61,1.32-1.07,1.77c-0.35,0.34-0.82,0.61-1.42,0.8
		c-0.45,0.14-1.04,0.21-1.79,0.21h-3.81V153z M18.25,154.7v6.64h1.51c0.56,0,0.97-0.03,1.22-0.1c0.33-0.08,0.6-0.22,0.82-0.42
		c0.22-0.2,0.39-0.52,0.53-0.97s0.21-1.06,0.21-1.84c0-0.77-0.07-1.37-0.21-1.78c-0.14-0.42-0.33-0.74-0.57-0.97
		s-0.56-0.39-0.94-0.47c-0.28-0.06-0.84-0.1-1.66-0.1H18.25z"/>
	<path class="st5" d="M30.54,160.71l1.91,0.32c-0.25,0.7-0.63,1.24-1.17,1.6s-1.2,0.55-1.99,0.55c-1.26,0-2.2-0.41-2.8-1.24
		c-0.48-0.66-0.72-1.5-0.72-2.5c0-1.2,0.31-2.15,0.94-2.83s1.42-1.02,2.39-1.02c1.08,0,1.93,0.36,2.56,1.07s0.92,1.81,0.9,3.28
		h-4.81c0.01,0.57,0.17,1.01,0.46,1.33s0.67,0.47,1.11,0.47c0.3,0,0.55-0.08,0.76-0.25S30.43,161.08,30.54,160.71z M30.65,158.77
		c-0.01-0.56-0.16-0.98-0.43-1.27s-0.61-0.43-1-0.43c-0.42,0-0.77,0.15-1.04,0.46c-0.27,0.31-0.41,0.72-0.4,1.24H30.65z"/>
	<path class="st5" d="M33.44,160.95l1.93-0.29c0.08,0.37,0.25,0.66,0.5,0.85s0.6,0.29,1.05,0.29c0.5,0,0.87-0.09,1.12-0.27
		c0.17-0.13,0.25-0.3,0.25-0.51c0-0.15-0.05-0.27-0.14-0.36c-0.1-0.09-0.31-0.18-0.64-0.25c-1.55-0.34-2.53-0.65-2.95-0.94
		c-0.57-0.39-0.86-0.94-0.86-1.63c0-0.63,0.25-1.16,0.75-1.59c0.5-0.43,1.27-0.64,2.31-0.64c0.99,0,1.73,0.16,2.21,0.49
		c0.48,0.32,0.82,0.8,1,1.44l-1.81,0.33c-0.08-0.28-0.22-0.5-0.44-0.65s-0.53-0.23-0.93-0.23c-0.51,0-0.87,0.07-1.09,0.21
		c-0.15,0.1-0.22,0.23-0.22,0.39c0,0.14,0.06,0.25,0.19,0.35c0.17,0.13,0.77,0.31,1.79,0.54s1.74,0.52,2.14,0.86
		c0.4,0.34,0.6,0.82,0.6,1.43c0,0.67-0.28,1.24-0.83,1.72s-1.38,0.72-2.47,0.72c-0.99,0-1.77-0.2-2.35-0.6
		C34,162.19,33.62,161.64,33.44,160.95z"/>
	<path class="st5" d="M48.24,157.91l-1.89,0.34c-0.06-0.38-0.21-0.66-0.43-0.85s-0.52-0.29-0.88-0.29c-0.48,0-0.86,0.16-1.15,0.5
		s-0.43,0.88-0.43,1.66c0,0.86,0.14,1.47,0.43,1.83s0.68,0.53,1.17,0.53c0.36,0,0.66-0.1,0.9-0.31s0.4-0.56,0.49-1.07l1.89,0.32
		c-0.2,0.87-0.57,1.52-1.13,1.96c-0.56,0.44-1.3,0.66-2.24,0.66c-1.06,0-1.91-0.33-2.54-1s-0.95-1.6-0.95-2.78
		c0-1.2,0.32-2.13,0.95-2.8s1.49-1,2.57-1c0.88,0,1.59,0.19,2.11,0.57S48.01,157.13,48.24,157.91z"/>
	<path class="st5" d="M53.9,160.71l1.91,0.32c-0.25,0.7-0.63,1.24-1.17,1.6s-1.2,0.55-1.99,0.55c-1.26,0-2.2-0.41-2.8-1.24
		c-0.48-0.66-0.72-1.5-0.72-2.5c0-1.2,0.31-2.15,0.94-2.83s1.42-1.02,2.39-1.02c1.08,0,1.93,0.36,2.56,1.07s0.92,1.81,0.9,3.28H51.1
		c0.01,0.57,0.17,1.01,0.46,1.33s0.67,0.47,1.11,0.47c0.3,0,0.55-0.08,0.76-0.25S53.79,161.08,53.9,160.71z M54,158.77
		c-0.01-0.56-0.16-0.98-0.43-1.27s-0.61-0.43-1-0.43c-0.42,0-0.77,0.15-1.04,0.46c-0.27,0.31-0.41,0.72-0.4,1.24H54z"/>
	<path class="st5" d="M64.08,163.02h-1.92v-3.71c0-0.78-0.04-1.29-0.12-1.52s-0.22-0.41-0.4-0.54c-0.18-0.13-0.41-0.19-0.67-0.19
		c-0.33,0-0.63,0.09-0.9,0.27c-0.26,0.18-0.45,0.42-0.54,0.72s-0.15,0.86-0.15,1.67v3.29h-1.92v-7.26h1.78v1.07
		c0.63-0.82,1.43-1.23,2.39-1.23c0.42,0,0.81,0.08,1.16,0.23s0.62,0.35,0.8,0.58c0.18,0.24,0.31,0.51,0.38,0.81s0.11,0.73,0.11,1.29
		V163.02z"/>
	<path class="st5" d="M72.69,163.02H70.9v-1.07c-0.3,0.42-0.65,0.72-1.05,0.93s-0.81,0.3-1.22,0.3c-0.83,0-1.55-0.34-2.14-1.01
		s-0.89-1.61-0.89-2.81c0-1.23,0.29-2.17,0.87-2.81s1.31-0.96,2.19-0.96c0.81,0,1.51,0.34,2.11,1.01V153h1.92V163.02z M67.56,159.24
		c0,0.78,0.11,1.34,0.32,1.68c0.31,0.5,0.74,0.75,1.3,0.75c0.44,0,0.82-0.19,1.13-0.56s0.46-0.94,0.46-1.68
		c0-0.83-0.15-1.44-0.45-1.8s-0.69-0.55-1.16-0.55c-0.46,0-0.84,0.18-1.15,0.54S67.56,158.52,67.56,159.24z"/>
	<path class="st5" d="M74.53,161.1h1.92v1.37c0,0.56-0.05,1-0.14,1.32s-0.28,0.61-0.54,0.87c-0.27,0.25-0.6,0.46-1.02,0.6
		l-0.38-0.79c0.39-0.13,0.66-0.3,0.83-0.53c0.16-0.22,0.25-0.53,0.26-0.92h-0.93V161.1z"/>
	<path class="st5" d="M89.02,163.02h-1.78v-1.07c-0.3,0.42-0.65,0.72-1.05,0.93s-0.81,0.3-1.22,0.3c-0.83,0-1.55-0.34-2.14-1.01
		s-0.89-1.61-0.89-2.81c0-1.23,0.29-2.17,0.87-2.81s1.31-0.96,2.19-0.96c0.81,0,1.51,0.34,2.11,1.01V153h1.92V163.02z M83.89,159.24
		c0,0.78,0.11,1.34,0.32,1.68c0.31,0.5,0.74,0.75,1.3,0.75c0.44,0,0.82-0.19,1.13-0.56s0.46-0.94,0.46-1.68
		c0-0.83-0.15-1.44-0.45-1.8s-0.69-0.55-1.16-0.55c-0.46,0-0.84,0.18-1.15,0.54S83.89,158.52,83.89,159.24z"/>
	<path class="st5" d="M95.12,160.71l1.91,0.32c-0.25,0.7-0.63,1.24-1.17,1.6s-1.2,0.55-1.99,0.55c-1.26,0-2.2-0.41-2.8-1.24
		c-0.48-0.66-0.72-1.5-0.72-2.5c0-1.2,0.31-2.15,0.94-2.83s1.42-1.02,2.39-1.02c1.08,0,1.93,0.36,2.56,1.07s0.92,1.81,0.9,3.28
		h-4.81c0.01,0.57,0.17,1.01,0.46,1.33s0.67,0.47,1.11,0.47c0.3,0,0.55-0.08,0.76-0.25S95.01,161.08,95.12,160.71z M95.23,158.77
		c-0.01-0.56-0.16-0.98-0.43-1.27s-0.61-0.43-1-0.43c-0.42,0-0.77,0.15-1.04,0.46c-0.27,0.31-0.41,0.72-0.4,1.24H95.23z"/>
	<path class="st5" d="M98.02,160.95l1.93-0.29c0.08,0.37,0.25,0.66,0.5,0.85s0.6,0.29,1.05,0.29c0.5,0,0.87-0.09,1.12-0.27
		c0.17-0.13,0.25-0.3,0.25-0.51c0-0.15-0.05-0.27-0.14-0.36c-0.1-0.09-0.31-0.18-0.64-0.25c-1.55-0.34-2.53-0.65-2.95-0.94
		c-0.57-0.39-0.86-0.94-0.86-1.63c0-0.63,0.25-1.16,0.75-1.59c0.5-0.43,1.27-0.64,2.31-0.64c0.99,0,1.73,0.16,2.21,0.49
		c0.48,0.32,0.82,0.8,1,1.44l-1.81,0.33c-0.08-0.28-0.22-0.5-0.44-0.65s-0.53-0.23-0.93-0.23c-0.51,0-0.87,0.07-1.09,0.21
		c-0.15,0.1-0.22,0.23-0.22,0.39c0,0.14,0.06,0.25,0.19,0.35c0.17,0.13,0.77,0.31,1.79,0.54s1.74,0.52,2.14,0.86
		c0.4,0.34,0.6,0.82,0.6,1.43c0,0.67-0.28,1.24-0.83,1.72s-1.38,0.72-2.47,0.72c-0.99,0-1.77-0.2-2.35-0.6
		C98.58,162.19,98.2,161.64,98.02,160.95z"/>
	<path class="st5" d="M112.81,157.91l-1.89,0.34c-0.06-0.38-0.21-0.66-0.43-0.85s-0.52-0.29-0.88-0.29c-0.48,0-0.86,0.16-1.15,0.5
		s-0.43,0.88-0.43,1.66c0,0.86,0.14,1.47,0.43,1.83s0.68,0.53,1.17,0.53c0.36,0,0.66-0.1,0.9-0.31s0.4-0.56,0.49-1.07l1.89,0.32
		c-0.2,0.87-0.57,1.52-1.13,1.96c-0.56,0.44-1.3,0.66-2.24,0.66c-1.06,0-1.91-0.33-2.54-1s-0.95-1.6-0.95-2.78
		c0-1.2,0.32-2.13,0.95-2.8s1.49-1,2.57-1c0.88,0,1.59,0.19,2.11,0.57S112.59,157.13,112.81,157.91z"/>
	<path class="st5" d="M118.47,160.71l1.91,0.32c-0.25,0.7-0.63,1.24-1.17,1.6s-1.2,0.55-1.99,0.55c-1.26,0-2.2-0.41-2.8-1.24
		c-0.48-0.66-0.72-1.5-0.72-2.5c0-1.2,0.31-2.15,0.94-2.83s1.42-1.02,2.39-1.02c1.08,0,1.93,0.36,2.56,1.07s0.92,1.81,0.9,3.28
		h-4.81c0.01,0.57,0.17,1.01,0.46,1.33s0.67,0.47,1.11,0.47c0.3,0,0.55-0.08,0.76-0.25S118.37,161.08,118.47,160.71z M118.58,158.77
		c-0.01-0.56-0.16-0.98-0.43-1.27s-0.61-0.43-1-0.43c-0.42,0-0.77,0.15-1.04,0.46c-0.27,0.31-0.41,0.72-0.4,1.24H118.58z"/>
	<path class="st5" d="M128.66,163.02h-1.92v-3.71c0-0.78-0.04-1.29-0.12-1.52s-0.22-0.41-0.4-0.54c-0.18-0.13-0.41-0.19-0.67-0.19
		c-0.33,0-0.63,0.09-0.9,0.27c-0.26,0.18-0.45,0.42-0.54,0.72s-0.15,0.86-0.15,1.67v3.29h-1.92v-7.26h1.78v1.07
		c0.63-0.82,1.43-1.23,2.39-1.23c0.42,0,0.81,0.08,1.16,0.23s0.62,0.35,0.8,0.58c0.18,0.24,0.31,0.51,0.38,0.81s0.11,0.73,0.11,1.29
		V163.02z"/>
	<path class="st5" d="M137.27,163.02h-1.78v-1.07c-0.3,0.42-0.65,0.72-1.05,0.93s-0.81,0.3-1.22,0.3c-0.83,0-1.55-0.34-2.14-1.01
		s-0.89-1.61-0.89-2.81c0-1.23,0.29-2.17,0.87-2.81s1.31-0.96,2.19-0.96c0.81,0,1.51,0.34,2.11,1.01V153h1.92V163.02z
		 M132.14,159.24c0,0.78,0.11,1.34,0.32,1.68c0.31,0.5,0.74,0.75,1.3,0.75c0.44,0,0.82-0.19,1.13-0.56s0.46-0.94,0.46-1.68
		c0-0.83-0.15-1.44-0.45-1.8s-0.69-0.55-1.16-0.55c-0.46,0-0.84,0.18-1.15,0.54S132.14,158.52,132.14,159.24z"/>
	<path class="st5" d="M143.08,163.02V153h1.97l4.1,6.69V153h1.88v10.02H149l-4.04-6.54v6.54H143.08z"/>
	<path class="st5" d="M152.76,158.07c0-1.02,0.15-1.88,0.46-2.57c0.23-0.51,0.54-0.97,0.93-1.37c0.39-0.41,0.83-0.71,1.3-0.9
		c0.62-0.26,1.34-0.4,2.16-0.4c1.48,0,2.66,0.46,3.54,1.37s1.33,2.19,1.33,3.82c0,1.62-0.44,2.88-1.32,3.8s-2.06,1.37-3.53,1.37
		c-1.49,0-2.68-0.46-3.55-1.36S152.76,159.67,152.76,158.07z M154.85,158.01c0,1.13,0.26,2,0.79,2.58s1.19,0.88,2,0.88
		s1.47-0.29,1.99-0.87s0.78-1.45,0.78-2.62c0-1.15-0.25-2-0.76-2.57c-0.5-0.56-1.17-0.85-2.01-0.85s-1.51,0.29-2.02,0.86
		S154.85,156.85,154.85,158.01z"/>
	<path class="st5" d="M165.49,163.02L163.09,153h2.07l1.51,6.88l1.83-6.88h2.41l1.76,7l1.54-7h2.04l-2.43,10.02h-2.15l-2-7.49
		l-1.99,7.49H165.49z"/>
	<path class="st5" d="M177.13,153h1.92v1.38c0,0.56-0.05,0.99-0.14,1.31c-0.1,0.32-0.28,0.61-0.54,0.87s-0.6,0.46-1.02,0.61
		l-0.38-0.8c0.39-0.13,0.66-0.3,0.83-0.53c0.16-0.23,0.25-0.53,0.26-0.91h-0.93V153z M180.36,153h1.92v1.38
		c0,0.56-0.05,0.99-0.15,1.31c-0.1,0.32-0.28,0.61-0.55,0.87s-0.6,0.46-1.01,0.61l-0.38-0.8c0.38-0.13,0.66-0.3,0.82-0.53
		c0.17-0.23,0.25-0.53,0.26-0.91h-0.92V153z"/>
</g>
<g id="acft1">
	<path d="M14.31,76c2.19,2.27,4.4,4.52,6.57,6.81c3.47,3.66,7.11,6.42,12.73,6.21c10.08-0.37,20.17,0,30.26-0.14
		c6.77-0.09,13.43-0.08,19.06,4.49c0,0.89,0,1.78,0,2.67c-4.65,3.01-9.8,4.13-15.28,4.02c-2.34-0.05-4.81-0.42-6.55,1.77
		c-1.63,0-3.27,0-4.9,0c-2.29-0.59-4.55-1.52-6.88-1.72c-5.8-0.5-11.72-0.09-17.41-1.09c-8.2-1.46-16.24-3.83-23.84-7.44
		c0-0.59,0-1.19,0-1.78c1.46-0.34,2.93-0.69,4.62-1.08c-1.58-3.6-3.1-7.05-4.62-10.5c0-0.74,0-1.49,0-2.23
		C10.15,76,12.23,76,14.31,76z M47.78,96.2c-2.72-0.03-5.45-0.07-8.17-0.1c-0.05-0.31,0-0.83-0.16-0.91
		c-2.19-1.06-4.32-2.18-6.95-1.92c-1.37,0.13-2.39,0.19-2.41,1.68c-2.67,0.92-2.2-1.66-3.35-2.43c1.37-1.1,2.55-2.14,3.96-0.32
		c0.23,0.29,0.98,0.22,1.48,0.23c7.31,0.02,14.63,0.02,21.94,0.03c1.98,0,3.97,0,5.95,0c0,0.31,0,0.61,0,0.92
		c-1.13,0-2.26-0.06-3.39,0.03c-0.49,0.04-0.96,0.37-1.43,0.56c0.49,0.27,0.96,0.63,1.49,0.78c0.48,0.14,1.08-0.07,1.54,0.1
		c1.84,0.68,4.57,0.34,4.14,3.56c6.64,0.81,16.12-0.29,19.04-3.44c-0.99-2.27-3.04-1.45-5.02-1.48c0.44-0.72,0.75-1.21,1.33-2.16
		c-3.77-0.4-7.14-1.05-10.51-1.06c-14.46-0.01-28.93,0.19-43.39,0.23c-1.62,0-2.97,0.16-3.92,1.59c-0.89-0.24-1.77-0.48-2.91-0.8
		c0.9-0.29,1.62-0.52,2.86-0.92c-2.17,0-3.79,0-5.74,0c0.63,0.3,0.93,0.44,1.43,0.68c-1.05,0.06-1.82,0.1-2.6,0.14
		c-0.01,0.11-0.02,0.21-0.04,0.32c0.73,0.3,1.46,0.6,2.19,0.89c0.07,0.16,0.1,0.43,0.21,0.47c11.09,4.19,22.49,6.56,34.41,5.73
		c0.53-0.04,1.04-0.37,1.56-0.57c-0.04-0.23-0.08-0.46-0.11-0.7c-2.26,0-4.52,0.05-6.78-0.02c-1.88-0.05-3.75-0.25-5.62-0.38
		c2.36-0.03,4.73-0.01,7.09-0.12C46.54,96.82,47.16,96.41,47.78,96.2c2.29,0.74,4.58,1.21,7.24,0C52.37,96.2,50.08,96.2,47.78,96.2z
		 M9.7,77.8c1.48,3.62,2.98,7.38,4.59,11.09c0.2,0.45,1.02,0.91,1.54,0.89c3.32-0.11,6.63-0.35,9.29-0.5
		c-2.68-2.89-5.6-6.02-8.5-9.16C14.82,78.16,12.97,76.33,9.7,77.8z M55.81,100.29c1.67,0,3.44,0.42,4.77-0.16
		c0.78-0.34,0.86-2.28,1.41-3.97c-2.49,0.14-4.29,0.24-6.18,0.34C55.81,97.71,55.81,98.73,55.81,100.29z M44.39,93.49
		c3.02,0.44,6.06,3.21,9.12,0.79c0-0.26,0-0.53,0.01-0.79C50.47,93.49,47.43,93.49,44.39,93.49z"/>
	<path class="st2" d="M19.96,92.1c0.95-1.42,2.29-1.58,3.92-1.59c14.46-0.04,28.93-0.25,43.39-0.23c3.37,0,6.74,0.66,10.51,1.06
		c-0.59,0.95-0.89,1.44-1.33,2.16c1.98,0.02,4.03-0.79,5.02,1.48c-2.92,3.15-12.4,4.25-19.04,3.44c0.43-3.22-2.3-2.88-4.14-3.56
		c-0.46-0.17-1.06,0.04-1.54-0.1c-0.53-0.15-1-0.51-1.49-0.78c0.48-0.2,0.94-0.53,1.43-0.56c1.12-0.08,2.26-0.03,3.39-0.03
		c0-0.31,0-0.61,0-0.92c-1.98,0-3.97,0-5.95,0c-7.31-0.01-14.63-0.01-21.94-0.03c-0.51,0-1.26,0.06-1.48-0.23
		c-1.42-1.82-2.6-0.78-3.96,0.32c1.14,0.77,0.68,3.35,3.35,2.43c0.02-1.5,1.04-1.55,2.41-1.68c2.63-0.26,4.76,0.86,6.95,1.92
		c0.16,0.08,0.11,0.6,0.16,0.91c-0.26,0.29-0.53,0.58-0.79,0.87c1.87,0.13,3.75,0.32,5.62,0.38c2.26,0.07,4.52,0.02,6.78,0.02
		c0.04,0.23,0.08,0.46,0.11,0.7c-0.52,0.2-1.03,0.53-1.56,0.57c-11.92,0.83-23.32-1.54-34.41-5.73c-0.11-0.04-0.14-0.31-0.21-0.47
		C16.76,92.31,18.36,92.21,19.96,92.1z M61.24,92.78c-0.01,0.15-0.01,0.29-0.02,0.44c3.12,0,6.24,0,9.36,0
		c0-0.15,0.01-0.29,0.01-0.44C67.47,92.78,64.36,92.78,61.24,92.78z M73.87,95.09c0.25-3.61,0.17-3.72-2.35-3.24
		c0.12,1.06,0.25,2.12,0.38,3.24C72.6,95.09,73.17,95.09,73.87,95.09z"/>
	<path class="st2" d="M9.7,77.8c3.28-1.48,5.12,0.36,6.93,2.32c2.9,3.14,5.82,6.27,8.5,9.16c-2.66,0.16-5.98,0.4-9.29,0.5
		c-0.52,0.02-1.35-0.44-1.54-0.89C12.68,85.18,11.18,81.42,9.7,77.8z"/>
	<path class="st2" d="M55.81,100.29c0-1.56,0-2.58,0-3.8c1.89-0.1,3.69-0.2,6.18-0.34c-0.55,1.69-0.63,3.63-1.41,3.97
		C59.25,100.71,57.48,100.29,55.81,100.29z"/>
	<path class="st2" d="M44.39,93.49c3.04,0,6.08,0,9.12,0c0,0.26,0,0.53-0.01,0.79C50.45,96.7,47.41,93.93,44.39,93.49z"/>
	<path class="st2" d="M19.96,92.1c-1.6,0.11-3.2,0.21-4.8,0.32c-0.73-0.3-1.46-0.6-2.19-0.89c0.01-0.11,0.02-0.21,0.04-0.32
		c0.78-0.04,1.55-0.09,2.6-0.14c-0.5-0.24-0.8-0.38-1.43-0.68c1.94,0,3.56,0,5.74,0c-1.24,0.4-1.96,0.63-2.86,0.92
		C18.19,91.61,19.08,91.86,19.96,92.1z"/>
	<path class="st2" d="M38.82,96.96c0.26-0.29,0.53-0.58,0.79-0.87c2.72,0.03,5.45,0.07,8.17,0.1l0-0.02
		c-0.62,0.23-1.24,0.64-1.87,0.66C43.55,96.95,41.19,96.93,38.82,96.96z"/>
	<path class="st2" d="M47.78,96.2c2.29,0,4.59,0,7.24,0c-2.66,1.21-4.95,0.74-7.24-0.01C47.78,96.18,47.78,96.2,47.78,96.2z"/>
	<path d="M61.24,92.78c3.12,0,6.23,0,9.35,0c0,0.15-0.01,0.29-0.01,0.44c-3.12,0-6.24,0-9.36,0C61.23,93.07,61.24,92.93,61.24,92.78
		z"/>
	<path d="M73.87,95.09c-0.7,0-1.28,0-1.97,0c-0.13-1.11-0.25-2.18-0.38-3.24C74.04,91.37,74.12,91.48,73.87,95.09z"/>
</g>
<g id="acft2">
	<path d="M490.87,13.22c0.24,0.7,0.48,1.41,0.72,2.11c-0.32,3.76-0.64,7.51-0.97,11.43c1.72-0.17,3.22-0.32,4.72-0.47
		c0.19,0.56,0.38,1.12,0.58,1.69c-6.02,5.87-12.86,10.71-20.15,14.74c-5.05,2.79-10.79,4.32-16.12,6.66
		c-2.14,0.94-3.98,2.55-5.95,3.85c-1.55,0.53-3.09,1.06-4.64,1.58c-2.37-1.52-4.57-0.36-6.78,0.44c-5.15,1.88-10.38,2.48-15.76,1.13
		c-0.29-0.84-0.58-1.69-0.86-2.53c3.85-6.15,10.15-8.31,16.58-10.41c9.59-3.13,19.03-6.74,28.68-9.65
		c5.38-1.62,7.94-5.41,10.04-9.99c1.32-2.87,2.68-5.71,4.02-8.57C486.93,14.56,488.9,13.89,490.87,13.22z M452.96,47.51
		c2.91,0.29,4.92-0.9,6.85-2.35c0.67,0.01,1.38,0.19,1.99,0.01c2.27-0.66,4.5-1.44,6.75-2.18c-1.73,0.73-3.44,1.52-5.2,2.18
		c-2.12,0.79-4.27,1.48-6.41,2.21c0.04,0.23,0.08,0.46,0.12,0.7c0.55,0.02,1.14,0.17,1.66,0.03c11.55-3.07,21.57-9,30.71-16.54
		c0.09-0.08,0.04-0.34,0.05-0.51c0.6-0.52,1.19-1.04,1.79-1.56c-0.05-0.1-0.09-0.19-0.14-0.29c-0.75,0.21-1.5,0.42-2.51,0.7
		c0.39-0.38,0.63-0.62,1.13-1.11c-1.84,0.63-3.37,1.15-5.43,1.85c1.3-0.02,2.06-0.04,3.01-0.05c-0.98,0.66-1.74,1.18-2.5,1.69
		c-1.36-1.04-2.68-0.76-4.22-0.24c-13.7,4.64-27.45,9.11-41.14,13.8c-3.19,1.09-6.17,2.8-9.6,4.4c0.86,0.71,1.31,1.07,1.96,1.61
		c-1.87,0.66-4.07,0.55-4.27,3.02c3.78,2.03,13.1,0.01,19.13-2.9c-1.45-2.91,1.25-3.47,2.77-4.71c0.38-0.31,1.01-0.31,1.42-0.6
		c0.45-0.32,0.78-0.81,1.16-1.22c-0.51-0.03-1.06-0.19-1.54-0.07c-1.09,0.28-2.14,0.7-3.21,1.07c-0.1-0.29-0.2-0.58-0.3-0.87
		c1.88-0.64,3.75-1.28,5.63-1.92c6.92-2.37,13.84-4.74,20.75-7.12c0.48-0.17,1.21-0.35,1.33-0.69c0.76-2.18,2.21-1.58,3.86-0.98
		c-0.83,1.1,0.44,3.39-2.38,3.38c-0.5-1.41-1.49-1.13-2.83-0.81c-2.57,0.61-4.22,2.35-5.95,4.06c-0.13,0.13,0.09,0.6,0.15,0.91
		c-2.57,0.91-5.13,1.83-7.7,2.74C457.64,45.91,455.47,46.65,452.96,47.51z M484.11,19.88c-1.73,3.91-3.48,7.82-5.08,11.42
		c2.57-0.71,5.78-1.56,8.96-2.53c0.5-0.15,1.13-0.85,1.17-1.34c0.33-4.03,0.53-8.07,0.76-11.98
		C486.33,15.11,485.18,17.45,484.11,19.88z M452.31,48.04c-1.82,0.51-3.56,1-5.96,1.68c1.07,1.42,1.77,3.23,2.62,3.3
		c1.44,0.12,2.98-0.85,4.57-1.39C453.04,50.15,452.71,49.19,452.31,48.04z M453.52,44.46c0.09,0.25,0.17,0.5,0.26,0.74
		c3.68,1.31,5.66-2.3,8.37-3.69C459.27,42.49,456.39,43.47,453.52,44.46z"/>
	<path class="st2" d="M489.46,31.05c-0.01,0.17,0.04,0.43-0.05,0.51c-9.14,7.55-19.16,13.48-30.71,16.54
		c-0.51,0.14-1.1-0.02-1.66-0.03c-0.04-0.23-0.08-0.46-0.12-0.7c2.14-0.73,4.3-1.41,6.41-2.21c1.76-0.66,3.47-1.45,5.2-2.18
		c-0.34-0.19-0.68-0.38-1.03-0.57c-0.06-0.31-0.27-0.79-0.15-0.91c1.73-1.71,3.38-3.46,5.95-4.06c1.34-0.32,2.33-0.6,2.83,0.81
		c2.83,0.01,1.55-2.28,2.38-3.38c-1.65-0.6-3.1-1.2-3.86,0.98c-0.12,0.35-0.85,0.53-1.33,0.69c-6.91,2.38-13.83,4.75-20.75,7.12
		c-1.88,0.64-3.75,1.28-5.63,1.92c0.1,0.29,0.2,0.58,0.3,0.87c1.07-0.37,2.12-0.79,3.21-1.07c0.47-0.12,1.02,0.04,1.54,0.07
		c-0.38,0.41-0.71,0.91-1.16,1.22c-0.41,0.29-1.04,0.29-1.42,0.6c-1.52,1.23-4.22,1.8-2.77,4.71c-6.02,2.91-15.34,4.93-19.13,2.9
		c0.2-2.47,2.4-2.36,4.27-3.02c-0.65-0.54-1.1-0.9-1.96-1.61c3.44-1.59,6.42-3.31,9.6-4.4c13.68-4.69,27.44-9.16,41.14-13.8
		c1.54-0.52,2.86-0.8,4.22,0.24C486.37,31.88,487.91,31.47,489.46,31.05z M437.13,49.31c0.05,0.14,0.1,0.28,0.15,0.41
		c2.95-1.01,5.9-2.02,8.85-3.02c-0.05-0.14-0.11-0.27-0.16-0.41C443.03,47.29,440.08,48.3,437.13,49.31z M436.64,51.91
		c-0.24-1.1-0.46-2.14-0.69-3.18c-2.54,0.36-2.58,0.48-1.18,3.82C435.43,52.32,435.97,52.14,436.64,51.91z"/>
	<path class="st2" d="M489.91,15.45c-3.58-0.34-4.73,1.99-5.81,4.43c-1.73,3.91-3.48,7.82-5.08,11.42c2.57-0.71,5.78-1.56,8.96-2.53
		c0.5-0.15,1.13-0.85,1.17-1.34C489.48,23.4,489.68,19.36,489.91,15.45z"/>
	<path class="st2" d="M453.54,51.63c-0.5-1.48-0.83-2.44-1.23-3.59c-1.82,0.51-3.56,1-5.96,1.68c1.07,1.42,1.77,3.23,2.62,3.3
		C450.42,53.15,451.96,52.17,453.54,51.63z"/>
	<path class="st2" d="M462.15,41.51c-2.88,0.98-5.76,1.97-8.63,2.95c0.09,0.25,0.17,0.5,0.26,0.74
		C457.45,46.51,459.44,42.9,462.15,41.51z"/>
	<path class="st2" d="M484.82,32.3c1.55-0.42,3.1-0.83,4.64-1.25c0.6-0.52,1.19-1.04,1.79-1.56c-0.05-0.1-0.09-0.19-0.14-0.29
		c-0.75,0.21-1.5,0.42-2.51,0.7c0.39-0.38,0.63-0.62,1.13-1.11c-1.84,0.63-3.37,1.15-5.43,1.85c1.3-0.02,2.06-0.04,3.01-0.05
		C486.34,31.27,485.58,31.78,484.82,32.3z"/>
	<path class="st2" d="M468.54,42.99c-0.34-0.19-0.68-0.38-1.03-0.57c-2.57,0.91-5.13,1.83-7.7,2.74l0-0.02
		c0.66,0.02,1.38,0.2,1.99,0.02C464.06,44.51,466.3,43.73,468.54,42.99z"/>
	<path class="st2" d="M459.81,45.17c-2.17,0.74-4.34,1.48-6.85,2.34c2.91,0.29,4.92-0.9,6.85-2.35
		C459.81,45.15,459.81,45.17,459.81,45.17z"/>
	<path d="M445.98,46.28c-2.95,1.01-5.9,2.01-8.84,3.02c0.05,0.14,0.1,0.28,0.15,0.41c2.95-1.01,5.9-2.02,8.85-3.02
		C446.08,46.56,446.03,46.42,445.98,46.28z"/>
	<path d="M434.77,52.55c0.67-0.23,1.21-0.41,1.87-0.64c-0.24-1.1-0.46-2.14-0.69-3.18C433.4,49.09,433.36,49.21,434.77,52.55z"/>
</g>
<g id="CPA">
	<g id="title_7_">
		<rect x="242.5" y="29.06" class="st1" width="39.25" height="16"/>
		<path class="st5" d="M256.49,34.49l1.68,0.53c-0.26,0.94-0.69,1.63-1.29,2.09s-1.36,0.68-2.28,0.68c-1.14,0-2.08-0.39-2.81-1.17
			s-1.1-1.84-1.1-3.2c0-1.43,0.37-2.54,1.11-3.33s1.71-1.19,2.91-1.19c1.05,0,1.9,0.31,2.56,0.93c0.39,0.37,0.68,0.89,0.88,1.58
			l-1.72,0.41c-0.1-0.45-0.31-0.8-0.64-1.05s-0.71-0.39-1.17-0.39c-0.64,0-1.15,0.23-1.55,0.69s-0.59,1.2-0.59,2.22
			c0,1.09,0.2,1.86,0.59,2.32s0.9,0.69,1.52,0.69c0.46,0,0.86-0.15,1.19-0.44S256.35,35.12,256.49,34.49z"/>
		<path class="st5" d="M259.66,37.65v-8.59h2.78c1.05,0,1.74,0.04,2.06,0.13c0.49,0.13,0.9,0.41,1.24,0.84s0.5,0.99,0.5,1.67
			c0,0.53-0.1,0.97-0.29,1.33s-0.43,0.64-0.73,0.85s-0.59,0.34-0.9,0.41c-0.41,0.08-1.01,0.12-1.8,0.12h-1.13v3.24H259.66z
			 M261.4,30.51v2.44h0.95c0.68,0,1.14-0.04,1.37-0.13s0.41-0.23,0.54-0.42s0.2-0.41,0.2-0.67c0-0.31-0.09-0.57-0.28-0.77
			s-0.42-0.33-0.7-0.38c-0.21-0.04-0.62-0.06-1.25-0.06H261.4z"/>
		<path class="st5" d="M274.52,37.65h-1.89l-0.75-1.95h-3.43l-0.71,1.95h-1.84l3.35-8.59h1.83L274.52,37.65z M271.33,34.25
			l-1.18-3.19l-1.16,3.19H271.33z"/>
	</g>
	<g>
		<line class="st6" x1="261" y1="44" x2="261" y2="183"/>
		<g>
			<line class="st7" x1="261.5" y1="44" x2="261.5" y2="46"/>
			<line class="st8" x1="261.5" y1="49" x2="261.5" y2="180"/>
			<line class="st7" x1="261.5" y1="182" x2="261.5" y2="183"/>
		</g>
	</g>
</g>
<g id="arrow1">
	<g>
		<line class="st9" x1="108" y1="95" x2="114" y2="95"/>
		<line class="st10" x1="125" y1="95" x2="231" y2="95"/>
		<line class="st9" x1="237" y1="95" x2="243" y2="95"/>
		<g>
			<polygon class="st11" points="257,95 237.1,103.13 241.82,95 237.1,86.87 			"/>
		</g>
	</g>
</g>
<g id="arrow2">
	<g>
		<line class="st9" x1="108" y1="95" x2="113.74" y2="93.25"/>
		<line class="st12" x1="124.62" y1="89.92" x2="227.96" y2="58.33"/>
		<line class="st9" x1="233.4" y1="56.67" x2="239.13" y2="54.92"/>
		<g>
			<polygon class="st11" points="252.64,50.79 235.98,64.38 238.12,55.23 231.23,48.83 			"/>
		</g>
	</g>
</g>
<g id="arrow3_1_">
	<g>
		<line class="st9" x1="279.1" y1="60.26" x2="285.09" y2="59.95"/>
		<line class="st13" x1="296.63" y1="59.35" x2="406.24" y2="53.61"/>
		<line class="st9" x1="412.01" y1="53.31" x2="418" y2="53"/>
		<g>
			<polygon class="st11" points="265,61 285.3,68.08 280.16,60.21 284.45,51.84 			"/>
		</g>
	</g>
</g>
<g id="arrow4_1_">
	<g>
		<line class="st9" x1="280.66" y1="91.6" x2="286.49" y2="90.15"/>
		<line class="st14" x1="298.09" y1="87.27" x2="408.37" y2="59.89"/>
		<line class="st9" x1="414.18" y1="58.45" x2="420" y2="57"/>
		<g>
			<polygon class="st11" points="266.96,95 288.23,98.1 281.69,91.35 284.31,82.32 			"/>
		</g>
	</g>
</g>
<g id="arrow5">
	<g>
		<path class="st15" d="M39,97c1.53,0.53,3.51,0.89,5.88,1.08"/>
		<path class="st16" d="M56.98,97.91c9.88-0.79,22.61-2.95,37.1-6.39c18.55-4.41,41.95-13.1,53.93-14.24
			c13.5-1.29,23.68-1.5,32.64,4.5C201.39,95.66,213.39,124.83,227,136c26.07,21.39,65.5,36,94,42c13.27,2.79,22.38,4.04,29.85,4.5"
			/>
		<path class="st15" d="M356.9,182.72c2.06,0.02,4.04-0.01,6-0.07"/>
		<g>
			<polygon class="st17" points="377,182 357.47,190.97 361.84,182.65 356.77,174.73 			"/>
		</g>
	</g>
</g>
<g id="arrow6">
	<g>
		<path class="st15" d="M212.11,86.41c1.89,0.03,3.89,0.06,6,0.08"/>
		<path class="st18" d="M229.95,86.59c25.61,0.16,57.79-0.02,67.05-0.59c56.81-3.51,85.89-9.39,113.5-23.3"/>
		<path class="st15" d="M415.77,59.94c1.74-0.95,3.48-1.92,5.23-2.94"/>
		<g>
			<polygon class="st17" points="198,86 217.69,94.62 213.17,86.38 218.09,78.37 			"/>
		</g>
	</g>
</g>
<g id="buttonReplay">
	<circle class="st19" cx="464.76" cy="216.4" r="19.85"/>
	<g>
		<g>
			<polygon class="st2" points="466.82,200.11 455.89,206.42 466.82,212.73 			"/>
		</g>
	</g>
	<path class="st20" d="M465.11,206.07c5.92,0,10.71,4.8,10.71,10.71c0,5.92-4.8,10.71-10.71,10.71s-10.71-4.8-10.71-10.71"/>
	<path class="st20" d="M465.11,206.07"/>
	<path class="st20" d="M454.39,216.79"/>
</g>
<g id="buttonNext">
	<circle class="st19" cx="464.76" cy="216.4" r="19.85"/>
	<g>
		<g>
			<polygon class="st2" points="459.39,208.07 473.82,216.4 459.39,224.73 			"/>
		</g>
	</g>
</g>
<g id="text6_1_">
	<rect x="214" y="197" class="st1" width="163.05" height="49"/>
	<path class="st3" d="M214.59,204.38l1.23-0.16c0.14,0.7,0.38,1.2,0.72,1.51s0.75,0.46,1.24,0.46c0.58,0,1.07-0.2,1.47-0.6
		c0.4-0.4,0.6-0.9,0.6-1.49c0-0.57-0.18-1.03-0.55-1.4s-0.84-0.55-1.41-0.55c-0.23,0-0.52,0.05-0.87,0.14l0.14-1.08
		c0.08,0.01,0.15,0.01,0.2,0.01c0.52,0,1-0.14,1.42-0.41s0.63-0.69,0.63-1.26c0-0.45-0.15-0.83-0.46-1.12
		c-0.31-0.3-0.7-0.45-1.18-0.45c-0.48,0-0.88,0.15-1.2,0.45s-0.52,0.75-0.62,1.35l-1.23-0.22c0.15-0.82,0.49-1.46,1.03-1.92
		s1.2-0.68,1.99-0.68c0.55,0,1.05,0.12,1.51,0.35s0.81,0.55,1.06,0.96c0.24,0.41,0.37,0.84,0.37,1.29c0,0.43-0.12,0.83-0.35,1.18
		s-0.58,0.64-1.03,0.85c0.59,0.14,1.05,0.42,1.38,0.85s0.49,0.97,0.49,1.62c0,0.88-0.32,1.62-0.96,2.22s-1.44,0.91-2.42,0.91
		c-0.88,0-1.61-0.26-2.19-0.79C215,205.89,214.67,205.21,214.59,204.38z"/>
	<path class="st3" d="M223.06,207.02v-1.4h1.4v1.4H223.06z"/>
	<path class="st3" d="M232.94,207.02v-8.84h-3.3V197h7.94v1.18h-3.32v8.84H232.94z"/>
	<path class="st3" d="M238.49,203.8l1.25-0.11c0.06,0.5,0.2,0.91,0.41,1.23s0.55,0.58,1.01,0.78s0.97,0.3,1.54,0.3
		c0.51,0,0.95-0.08,1.34-0.23s0.68-0.36,0.86-0.62s0.28-0.55,0.28-0.86c0-0.31-0.09-0.59-0.27-0.82s-0.48-0.43-0.9-0.59
		c-0.27-0.11-0.86-0.27-1.78-0.49s-1.57-0.43-1.93-0.63c-0.48-0.25-0.83-0.56-1.07-0.93s-0.35-0.79-0.35-1.25
		c0-0.51,0.14-0.98,0.43-1.42s0.71-0.77,1.26-1c0.55-0.23,1.16-0.34,1.84-0.34c0.74,0,1.4,0.12,1.97,0.36s1,0.59,1.31,1.06
		s0.47,0.99,0.49,1.58l-1.27,0.1c-0.07-0.63-0.3-1.11-0.69-1.44c-0.39-0.32-0.98-0.49-1.75-0.49c-0.8,0-1.39,0.15-1.75,0.44
		s-0.55,0.65-0.55,1.06c0,0.36,0.13,0.66,0.39,0.89c0.26,0.23,0.92,0.47,2,0.71s1.82,0.46,2.22,0.64c0.58,0.27,1.01,0.61,1.29,1.02
		s0.42,0.89,0.42,1.42c0,0.53-0.15,1.04-0.46,1.51s-0.74,0.84-1.32,1.1s-1.22,0.39-1.93,0.39c-0.91,0-1.67-0.13-2.28-0.4
		c-0.61-0.26-1.09-0.66-1.44-1.19S238.51,204.47,238.49,203.8z"/>
	<path class="st3" d="M247.18,207.02l3.85-10.02h1.43l4.1,10.02h-1.51l-1.17-3.04h-4.19l-1.1,3.04H247.18z M250.07,202.91h3.4
		l-1.05-2.78c-0.32-0.84-0.56-1.54-0.71-2.08c-0.13,0.64-0.31,1.28-0.54,1.91L250.07,202.91z"/>
	<path class="st3" d="M264.77,203.51l1.33,0.34c-0.28,1.09-0.78,1.92-1.5,2.49c-0.72,0.57-1.61,0.86-2.65,0.86
		c-1.08,0-1.96-0.22-2.63-0.66c-0.68-0.44-1.19-1.08-1.54-1.91c-0.35-0.83-0.53-1.73-0.53-2.69c0-1.04,0.2-1.95,0.6-2.73
		c0.4-0.78,0.97-1.37,1.7-1.77c0.74-0.4,1.55-0.6,2.43-0.6c1,0,1.85,0.25,2.53,0.77c0.68,0.51,1.16,1.23,1.43,2.15l-1.31,0.31
		c-0.23-0.73-0.57-1.26-1.01-1.59c-0.44-0.33-1-0.5-1.67-0.5c-0.77,0-1.41,0.18-1.93,0.55c-0.52,0.37-0.88,0.87-1.09,1.49
		s-0.31,1.26-0.31,1.92c0,0.85,0.12,1.6,0.37,2.23c0.25,0.64,0.63,1.11,1.16,1.42s1.09,0.47,1.7,0.47c0.74,0,1.37-0.21,1.89-0.64
		C264.24,204.99,264.59,204.35,264.77,203.51z"/>
	<path class="st3" d="M271.47,198.42V197h1.23v1.42H271.47z M271.47,207.02v-7.26h1.23v7.26H271.47z"/>
	<path class="st3" d="M274.08,204.86l1.22-0.19c0.07,0.49,0.26,0.86,0.57,1.12c0.31,0.26,0.75,0.39,1.31,0.39
		c0.56,0,0.98-0.12,1.26-0.34s0.41-0.5,0.41-0.81c0-0.28-0.12-0.5-0.36-0.66c-0.17-0.11-0.59-0.25-1.26-0.42
		c-0.9-0.23-1.53-0.42-1.88-0.59c-0.35-0.17-0.61-0.4-0.79-0.69c-0.18-0.29-0.27-0.62-0.27-0.97c0-0.32,0.07-0.62,0.22-0.9
		c0.15-0.28,0.35-0.5,0.61-0.69c0.19-0.14,0.45-0.26,0.78-0.36c0.33-0.1,0.68-0.15,1.06-0.15c0.57,0,1.07,0.08,1.5,0.25
		c0.43,0.16,0.75,0.39,0.95,0.67s0.35,0.66,0.42,1.12l-1.2,0.16c-0.05-0.37-0.21-0.67-0.48-0.88c-0.26-0.21-0.63-0.31-1.11-0.31
		c-0.57,0-0.97,0.09-1.21,0.28c-0.24,0.19-0.36,0.41-0.36,0.66c0,0.16,0.05,0.3,0.15,0.43c0.1,0.13,0.26,0.24,0.47,0.33
		c0.12,0.05,0.49,0.15,1.09,0.31c0.87,0.23,1.48,0.42,1.82,0.57c0.34,0.15,0.62,0.36,0.81,0.65c0.2,0.28,0.29,0.63,0.29,1.05
		c0,0.41-0.12,0.8-0.36,1.16c-0.24,0.36-0.58,0.64-1.04,0.84s-0.96,0.3-1.53,0.3c-0.94,0-1.66-0.2-2.16-0.59
		C274.53,206.21,274.22,205.63,274.08,204.86z"/>
	<path class="st3" d="M281.08,204.86l1.22-0.19c0.07,0.49,0.26,0.86,0.57,1.12c0.31,0.26,0.75,0.39,1.31,0.39
		c0.56,0,0.98-0.12,1.26-0.34s0.41-0.5,0.41-0.81c0-0.28-0.12-0.5-0.36-0.66c-0.17-0.11-0.59-0.25-1.26-0.42
		c-0.9-0.23-1.53-0.42-1.88-0.59c-0.35-0.17-0.61-0.4-0.79-0.69c-0.18-0.29-0.27-0.62-0.27-0.97c0-0.32,0.07-0.62,0.22-0.9
		c0.15-0.28,0.35-0.5,0.61-0.69c0.19-0.14,0.45-0.26,0.78-0.36c0.33-0.1,0.68-0.15,1.06-0.15c0.57,0,1.07,0.08,1.5,0.25
		c0.43,0.16,0.75,0.39,0.95,0.67s0.35,0.66,0.42,1.12l-1.2,0.16c-0.05-0.37-0.21-0.67-0.48-0.88c-0.26-0.21-0.63-0.31-1.11-0.31
		c-0.57,0-0.97,0.09-1.21,0.28c-0.24,0.19-0.36,0.41-0.36,0.66c0,0.16,0.05,0.3,0.15,0.43c0.1,0.13,0.26,0.24,0.47,0.33
		c0.12,0.05,0.49,0.15,1.09,0.31c0.87,0.23,1.48,0.42,1.82,0.57c0.34,0.15,0.62,0.36,0.81,0.65c0.2,0.28,0.29,0.63,0.29,1.05
		c0,0.41-0.12,0.8-0.36,1.16c-0.24,0.36-0.58,0.64-1.04,0.84s-0.96,0.3-1.53,0.3c-0.94,0-1.66-0.2-2.16-0.59
		C281.53,206.21,281.22,205.63,281.08,204.86z"/>
	<path class="st3" d="M293.33,207.02v-1.07c-0.57,0.82-1.33,1.23-2.3,1.23c-0.43,0-0.83-0.08-1.2-0.25
		c-0.37-0.16-0.65-0.37-0.83-0.62c-0.18-0.25-0.31-0.55-0.38-0.91c-0.05-0.24-0.08-0.62-0.08-1.15v-4.5h1.23v4.03
		c0,0.64,0.02,1.08,0.08,1.3c0.08,0.32,0.24,0.58,0.49,0.76s0.56,0.28,0.93,0.28s0.71-0.1,1.04-0.28s0.55-0.45,0.69-0.77
		c0.13-0.33,0.2-0.8,0.2-1.42v-3.89h1.23v7.26H293.33z"/>
	<path class="st3" d="M301.33,204.69l1.27,0.16c-0.2,0.74-0.57,1.32-1.11,1.73s-1.23,0.62-2.08,0.62c-1.06,0-1.9-0.33-2.53-0.98
		c-0.62-0.65-0.93-1.57-0.93-2.75c0-1.22,0.31-2.17,0.94-2.84c0.63-0.67,1.45-1.01,2.45-1.01c0.97,0,1.76,0.33,2.38,0.99
		c0.62,0.66,0.92,1.59,0.92,2.79c0,0.07,0,0.18-0.01,0.33h-5.41c0.04,0.8,0.27,1.41,0.68,1.83s0.91,0.63,1.52,0.63
		c0.45,0,0.84-0.12,1.16-0.36C300.89,205.58,301.14,205.21,301.33,204.69z M297.29,202.7h4.05c-0.05-0.61-0.21-1.07-0.46-1.38
		c-0.39-0.47-0.9-0.71-1.52-0.71c-0.56,0-1.04,0.19-1.43,0.57C297.54,201.56,297.33,202.06,297.29,202.7z"/>
	<path class="st3" d="M303.65,204.86l1.22-0.19c0.07,0.49,0.26,0.86,0.57,1.12c0.31,0.26,0.75,0.39,1.31,0.39
		c0.56,0,0.98-0.12,1.26-0.34s0.41-0.5,0.41-0.81c0-0.28-0.12-0.5-0.36-0.66c-0.17-0.11-0.59-0.25-1.26-0.42
		c-0.9-0.23-1.53-0.42-1.88-0.59c-0.35-0.17-0.61-0.4-0.79-0.69c-0.18-0.29-0.27-0.62-0.27-0.97c0-0.32,0.07-0.62,0.22-0.9
		c0.15-0.28,0.35-0.5,0.61-0.69c0.19-0.14,0.45-0.26,0.78-0.36c0.33-0.1,0.68-0.15,1.06-0.15c0.57,0,1.07,0.08,1.5,0.25
		c0.43,0.16,0.75,0.39,0.95,0.67s0.35,0.66,0.42,1.12l-1.2,0.16c-0.05-0.37-0.21-0.67-0.48-0.88c-0.26-0.21-0.63-0.31-1.11-0.31
		c-0.57,0-0.97,0.09-1.21,0.28c-0.24,0.19-0.36,0.41-0.36,0.66c0,0.16,0.05,0.3,0.15,0.43c0.1,0.13,0.26,0.24,0.47,0.33
		c0.12,0.05,0.49,0.15,1.09,0.31c0.87,0.23,1.48,0.42,1.82,0.57c0.34,0.15,0.62,0.36,0.81,0.65c0.2,0.28,0.29,0.63,0.29,1.05
		c0,0.41-0.12,0.8-0.36,1.16c-0.24,0.36-0.58,0.64-1.04,0.84s-0.96,0.3-1.53,0.3c-0.94,0-1.66-0.2-2.16-0.59
		C304.11,206.21,303.79,205.63,303.65,204.86z"/>
	<path class="st3" d="M319.77,206.13c-0.46,0.39-0.89,0.66-1.32,0.82c-0.42,0.16-0.88,0.24-1.36,0.24c-0.8,0-1.41-0.19-1.84-0.58
		s-0.64-0.89-0.64-1.49c0-0.36,0.08-0.68,0.24-0.97c0.16-0.29,0.37-0.53,0.63-0.71c0.26-0.18,0.56-0.31,0.89-0.4
		c0.24-0.06,0.61-0.13,1.09-0.19c0.99-0.12,1.73-0.26,2.19-0.42c0-0.17,0.01-0.28,0.01-0.32c0-0.5-0.12-0.86-0.35-1.06
		c-0.31-0.28-0.78-0.42-1.4-0.42c-0.58,0-1.01,0.1-1.28,0.3c-0.28,0.2-0.48,0.56-0.61,1.08l-1.2-0.16c0.11-0.52,0.29-0.93,0.54-1.25
		s0.61-0.56,1.09-0.73s1.02-0.26,1.65-0.26c0.62,0,1.12,0.07,1.51,0.22c0.39,0.15,0.67,0.33,0.85,0.55s0.31,0.5,0.38,0.84
		c0.04,0.21,0.06,0.59,0.06,1.13v1.64c0,1.14,0.03,1.87,0.08,2.17c0.05,0.3,0.16,0.59,0.31,0.87h-1.29
		C319.89,206.77,319.81,206.47,319.77,206.13z M319.67,203.38c-0.45,0.18-1.12,0.34-2.01,0.46c-0.51,0.07-0.86,0.15-1.07,0.25
		c-0.21,0.09-0.37,0.22-0.49,0.4s-0.17,0.37-0.17,0.58c0,0.33,0.12,0.6,0.37,0.82c0.25,0.22,0.61,0.33,1.09,0.33
		c0.47,0,0.9-0.1,1.26-0.31s0.64-0.49,0.81-0.85c0.13-0.28,0.2-0.69,0.2-1.23V203.38z"/>
	<path class="st3" d="M214.43,221.66l1.22-0.19c0.07,0.49,0.26,0.86,0.57,1.12s0.75,0.39,1.31,0.39c0.56,0,0.98-0.12,1.26-0.35
		s0.41-0.5,0.41-0.81c0-0.28-0.12-0.5-0.36-0.66c-0.17-0.11-0.59-0.25-1.26-0.42c-0.9-0.23-1.53-0.43-1.88-0.59s-0.61-0.4-0.79-0.69
		s-0.27-0.62-0.27-0.97c0-0.32,0.07-0.62,0.22-0.9s0.35-0.5,0.6-0.69c0.19-0.14,0.45-0.26,0.78-0.36s0.68-0.15,1.06-0.15
		c0.57,0,1.07,0.08,1.5,0.25s0.75,0.39,0.95,0.67s0.35,0.66,0.42,1.13l-1.2,0.16c-0.05-0.37-0.21-0.67-0.48-0.88
		c-0.26-0.21-0.63-0.31-1.11-0.31c-0.56,0-0.97,0.09-1.21,0.28c-0.24,0.19-0.36,0.41-0.36,0.66c0,0.16,0.05,0.3,0.15,0.43
		c0.1,0.13,0.26,0.24,0.47,0.33c0.12,0.04,0.49,0.15,1.09,0.31c0.87,0.23,1.48,0.42,1.82,0.57s0.61,0.36,0.81,0.65
		c0.2,0.28,0.29,0.63,0.29,1.05c0,0.41-0.12,0.8-0.36,1.16s-0.58,0.64-1.04,0.84s-0.96,0.3-1.53,0.3c-0.94,0-1.66-0.2-2.16-0.59
		C214.88,223.01,214.57,222.43,214.43,221.66z"/>
	<path class="st3" d="M226.89,221.49l1.27,0.16c-0.2,0.74-0.57,1.32-1.11,1.73s-1.23,0.62-2.08,0.62c-1.06,0-1.9-0.33-2.53-0.98
		s-0.93-1.57-0.93-2.75c0-1.22,0.31-2.17,0.94-2.84c0.63-0.67,1.44-1.01,2.45-1.01c0.97,0,1.76,0.33,2.38,0.99
		c0.62,0.66,0.92,1.59,0.92,2.79c0,0.07,0,0.18-0.01,0.33h-5.41c0.05,0.8,0.27,1.41,0.68,1.83s0.91,0.64,1.52,0.64
		c0.45,0,0.84-0.12,1.16-0.36C226.45,222.38,226.71,222.01,226.89,221.49z M222.85,219.5h4.05c-0.05-0.61-0.21-1.07-0.46-1.37
		c-0.39-0.47-0.9-0.71-1.52-0.71c-0.56,0-1.04,0.19-1.43,0.57C223.11,218.36,222.89,218.86,222.85,219.5z"/>
	<path class="st3" d="M229.71,223.82v-7.26h1.11v1.03c0.53-0.8,1.3-1.2,2.31-1.2c0.44,0,0.84,0.08,1.21,0.24s0.64,0.36,0.82,0.62
		c0.18,0.26,0.31,0.56,0.38,0.91c0.05,0.23,0.07,0.63,0.07,1.2v4.46h-1.23v-4.42c0-0.5-0.05-0.88-0.14-1.13s-0.27-0.45-0.51-0.59
		s-0.53-0.22-0.86-0.22c-0.52,0-0.98,0.17-1.36,0.5c-0.38,0.33-0.57,0.96-0.57,1.89v3.96H229.71z"/>
	<path class="st3" d="M237,221.66l1.22-0.19c0.07,0.49,0.26,0.86,0.57,1.12s0.75,0.39,1.31,0.39c0.56,0,0.98-0.12,1.26-0.35
		s0.41-0.5,0.41-0.81c0-0.28-0.12-0.5-0.36-0.66c-0.17-0.11-0.59-0.25-1.26-0.42c-0.9-0.23-1.53-0.43-1.88-0.59s-0.61-0.4-0.79-0.69
		s-0.27-0.62-0.27-0.97c0-0.32,0.07-0.62,0.22-0.9s0.35-0.5,0.6-0.69c0.19-0.14,0.45-0.26,0.78-0.36s0.68-0.15,1.06-0.15
		c0.57,0,1.07,0.08,1.5,0.25s0.75,0.39,0.95,0.67s0.35,0.66,0.42,1.13l-1.2,0.16c-0.05-0.37-0.21-0.67-0.48-0.88
		c-0.26-0.21-0.63-0.31-1.11-0.31c-0.56,0-0.97,0.09-1.21,0.28c-0.24,0.19-0.36,0.41-0.36,0.66c0,0.16,0.05,0.3,0.15,0.43
		c0.1,0.13,0.26,0.24,0.47,0.33c0.12,0.04,0.49,0.15,1.09,0.31c0.87,0.23,1.48,0.42,1.82,0.57s0.61,0.36,0.81,0.65
		c0.2,0.28,0.29,0.63,0.29,1.05c0,0.41-0.12,0.8-0.36,1.16s-0.58,0.64-1.04,0.84s-0.96,0.3-1.53,0.3c-0.94,0-1.66-0.2-2.16-0.59
		C237.46,223.01,237.14,222.43,237,221.66z"/>
	<path class="st3" d="M249.46,221.49l1.27,0.16c-0.2,0.74-0.57,1.32-1.11,1.73s-1.23,0.62-2.08,0.62c-1.06,0-1.9-0.33-2.53-0.98
		s-0.93-1.57-0.93-2.75c0-1.22,0.31-2.17,0.94-2.84c0.63-0.67,1.44-1.01,2.45-1.01c0.97,0,1.76,0.33,2.38,0.99
		c0.62,0.66,0.92,1.59,0.92,2.79c0,0.07,0,0.18-0.01,0.33h-5.41c0.05,0.8,0.27,1.41,0.68,1.83s0.91,0.64,1.52,0.64
		c0.45,0,0.84-0.12,1.16-0.36C249.02,222.38,249.28,222.01,249.46,221.49z M245.42,219.5h4.05c-0.05-0.61-0.21-1.07-0.46-1.37
		c-0.39-0.47-0.9-0.71-1.52-0.71c-0.56,0-1.04,0.19-1.43,0.57C245.68,218.36,245.47,218.86,245.42,219.5z"/>
	<path class="st3" d="M251.8,220.82v-1.24h3.78v1.24H251.8z"/>
	<path class="st3" d="M256.93,223.82v-7.26h1.11v1.1c0.28-0.51,0.54-0.85,0.78-1.02c0.24-0.16,0.5-0.25,0.79-0.25
		c0.41,0,0.84,0.13,1.26,0.4l-0.42,1.14c-0.3-0.18-0.6-0.27-0.9-0.27c-0.27,0-0.51,0.08-0.72,0.24s-0.37,0.39-0.46,0.67
		c-0.14,0.44-0.21,0.92-0.21,1.44v3.8H256.93z"/>
	<path class="st3" d="M266.58,221.49l1.27,0.16c-0.2,0.74-0.57,1.32-1.11,1.73s-1.23,0.62-2.08,0.62c-1.06,0-1.9-0.33-2.53-0.98
		c-0.62-0.65-0.93-1.57-0.93-2.75c0-1.22,0.31-2.17,0.94-2.84c0.63-0.67,1.45-1.01,2.45-1.01c0.97,0,1.76,0.33,2.38,0.99
		c0.62,0.66,0.92,1.59,0.92,2.79c0,0.07,0,0.18-0.01,0.33h-5.41c0.04,0.8,0.27,1.41,0.68,1.83s0.91,0.64,1.52,0.64
		c0.45,0,0.84-0.12,1.16-0.36C266.13,222.38,266.39,222.01,266.58,221.49z M262.54,219.5h4.05c-0.05-0.61-0.21-1.07-0.46-1.37
		c-0.39-0.47-0.9-0.71-1.52-0.71c-0.56,0-1.04,0.19-1.43,0.57C262.79,218.36,262.58,218.86,262.54,219.5z"/>
	<path class="st3" d="M271.41,223.82l-2.76-7.26h1.3l1.56,4.35c0.17,0.47,0.32,0.96,0.46,1.46c0.11-0.38,0.26-0.84,0.46-1.38
		l1.61-4.43h1.26l-2.75,7.26H271.41z"/>
	<path class="st3" d="M281.36,221.49l1.27,0.16c-0.2,0.74-0.57,1.32-1.11,1.73s-1.24,0.62-2.08,0.62c-1.06,0-1.9-0.33-2.53-0.98
		c-0.62-0.65-0.93-1.57-0.93-2.75c0-1.22,0.31-2.17,0.94-2.84c0.63-0.67,1.44-1.01,2.45-1.01c0.97,0,1.76,0.33,2.38,0.99
		c0.62,0.66,0.92,1.59,0.92,2.79c0,0.07,0,0.18-0.01,0.33h-5.41c0.05,0.8,0.27,1.41,0.68,1.83s0.91,0.64,1.52,0.64
		c0.45,0,0.84-0.12,1.16-0.36C280.92,222.38,281.17,222.01,281.36,221.49z M277.32,219.5h4.05c-0.05-0.61-0.21-1.07-0.46-1.37
		c-0.39-0.47-0.9-0.71-1.52-0.71c-0.57,0-1.04,0.19-1.42,0.57C277.58,218.36,277.36,218.86,277.32,219.5z"/>
	<path class="st3" d="M284.16,223.82v-7.26h1.11v1.1c0.28-0.51,0.54-0.85,0.78-1.02c0.24-0.16,0.5-0.25,0.79-0.25
		c0.41,0,0.84,0.13,1.26,0.4l-0.42,1.14c-0.3-0.18-0.6-0.27-0.9-0.27c-0.27,0-0.51,0.08-0.72,0.24s-0.37,0.39-0.46,0.67
		c-0.14,0.44-0.21,0.92-0.21,1.44v3.8H284.16z"/>
	<path class="st3" d="M288.35,221.66l1.22-0.19c0.07,0.49,0.26,0.86,0.57,1.12c0.31,0.26,0.75,0.39,1.31,0.39
		c0.57,0,0.98-0.12,1.26-0.35s0.41-0.5,0.41-0.81c0-0.28-0.12-0.5-0.36-0.66c-0.17-0.11-0.59-0.25-1.26-0.42
		c-0.9-0.23-1.53-0.43-1.88-0.59c-0.35-0.17-0.61-0.4-0.79-0.69c-0.18-0.29-0.27-0.62-0.27-0.97c0-0.32,0.07-0.62,0.22-0.9
		c0.15-0.28,0.35-0.5,0.6-0.69c0.19-0.14,0.45-0.26,0.78-0.36c0.33-0.1,0.69-0.15,1.06-0.15c0.57,0,1.07,0.08,1.5,0.25
		c0.43,0.16,0.75,0.39,0.95,0.67s0.35,0.66,0.42,1.13l-1.2,0.16c-0.05-0.37-0.21-0.67-0.47-0.88c-0.26-0.21-0.63-0.31-1.11-0.31
		c-0.56,0-0.97,0.09-1.21,0.28c-0.24,0.19-0.36,0.41-0.36,0.66c0,0.16,0.05,0.3,0.15,0.43c0.1,0.13,0.26,0.24,0.47,0.33
		c0.12,0.04,0.49,0.15,1.09,0.31c0.87,0.23,1.48,0.42,1.82,0.57c0.34,0.15,0.61,0.36,0.81,0.65c0.2,0.28,0.29,0.63,0.29,1.05
		c0,0.41-0.12,0.8-0.36,1.16c-0.24,0.36-0.58,0.64-1.04,0.84s-0.96,0.3-1.53,0.3c-0.94,0-1.66-0.2-2.16-0.59
		C288.8,223.01,288.48,222.43,288.35,221.66z"/>
	<path class="st3" d="M300.58,222.93c-0.46,0.39-0.89,0.66-1.32,0.82c-0.42,0.16-0.88,0.24-1.36,0.24c-0.8,0-1.41-0.2-1.84-0.58
		s-0.64-0.89-0.64-1.49c0-0.36,0.08-0.68,0.24-0.97c0.16-0.29,0.37-0.53,0.63-0.71c0.26-0.18,0.56-0.31,0.89-0.4
		c0.24-0.06,0.61-0.13,1.09-0.18c0.99-0.12,1.73-0.26,2.19-0.42c0-0.17,0.01-0.28,0.01-0.32c0-0.5-0.12-0.85-0.35-1.06
		c-0.31-0.28-0.78-0.42-1.4-0.42c-0.58,0-1.01,0.1-1.28,0.3c-0.28,0.2-0.48,0.56-0.61,1.08l-1.2-0.16c0.11-0.51,0.29-0.93,0.54-1.25
		s0.61-0.56,1.09-0.73s1.02-0.26,1.65-0.26c0.62,0,1.12,0.07,1.51,0.22c0.39,0.15,0.67,0.33,0.85,0.55s0.31,0.5,0.38,0.84
		c0.04,0.21,0.06,0.59,0.06,1.13v1.64c0,1.14,0.03,1.87,0.08,2.17c0.05,0.3,0.16,0.59,0.31,0.87h-1.29
		C300.7,223.57,300.61,223.27,300.58,222.93z M300.47,220.18c-0.45,0.18-1.12,0.34-2.01,0.46c-0.51,0.07-0.86,0.16-1.07,0.25
		c-0.21,0.09-0.37,0.22-0.49,0.4s-0.17,0.37-0.17,0.58c0,0.33,0.12,0.6,0.37,0.82c0.25,0.22,0.61,0.33,1.09,0.33
		c0.47,0,0.9-0.1,1.26-0.31s0.64-0.49,0.81-0.85c0.13-0.28,0.2-0.69,0.2-1.23V220.18z"/>
	<path class="st3" d="M303.6,223.82V213.8h1.23v10.02H303.6z"/>
	<path class="st3" d="M310.8,223.82V213.8h4.44c0.89,0,1.57,0.09,2.04,0.27s0.84,0.5,1.11,0.95c0.28,0.46,0.42,0.96,0.42,1.51
		c0,0.71-0.23,1.31-0.69,1.8c-0.46,0.49-1.17,0.8-2.13,0.93c0.35,0.17,0.62,0.34,0.8,0.5c0.39,0.36,0.75,0.8,1.1,1.33l1.74,2.73
		h-1.67l-1.33-2.09c-0.39-0.6-0.71-1.06-0.96-1.38c-0.25-0.32-0.48-0.54-0.67-0.67c-0.2-0.13-0.4-0.22-0.61-0.27
		c-0.15-0.03-0.4-0.05-0.74-0.05h-1.54v4.45H310.8z M312.13,218.22h2.85c0.61,0,1.08-0.06,1.42-0.19s0.6-0.33,0.78-0.6
		s0.27-0.58,0.27-0.9c0-0.47-0.17-0.86-0.52-1.17c-0.34-0.3-0.89-0.46-1.63-0.46h-3.17V218.22z"/>
	<path class="st3" d="M319.79,223.82l3.85-10.02h1.43l4.1,10.02h-1.51l-1.17-3.04h-4.19l-1.1,3.04H319.79z M322.68,219.71h3.4
		l-1.05-2.78c-0.32-0.84-0.56-1.54-0.71-2.08c-0.13,0.64-0.31,1.28-0.54,1.91L322.68,219.71z"/>
	<path class="st3" d="M335.88,222.72l0.18,1.09c-0.35,0.07-0.66,0.11-0.93,0.11c-0.45,0-0.79-0.07-1.04-0.21
		c-0.25-0.14-0.42-0.33-0.52-0.56s-0.15-0.71-0.15-1.45v-4.18h-0.9v-0.96h0.9v-1.8l1.22-0.74v2.54h1.24v0.96h-1.24v4.24
		c0,0.35,0.02,0.58,0.06,0.68c0.04,0.1,0.11,0.18,0.21,0.24c0.1,0.06,0.24,0.09,0.42,0.09
		C335.47,222.77,335.65,222.75,335.88,222.72z"/>
	<path class="st3" d="M342.05,221.49l1.27,0.16c-0.2,0.74-0.57,1.32-1.11,1.73s-1.24,0.62-2.08,0.62c-1.06,0-1.9-0.33-2.53-0.98
		c-0.62-0.65-0.93-1.57-0.93-2.75c0-1.22,0.31-2.17,0.94-2.84c0.63-0.67,1.44-1.01,2.45-1.01c0.97,0,1.76,0.33,2.38,0.99
		c0.62,0.66,0.92,1.59,0.92,2.79c0,0.07,0,0.18-0.01,0.33h-5.41c0.05,0.8,0.27,1.41,0.68,1.83s0.91,0.64,1.52,0.64
		c0.45,0,0.84-0.12,1.16-0.36C341.61,222.38,341.86,222.01,342.05,221.49z M338.01,219.5h4.05c-0.05-0.61-0.21-1.07-0.46-1.37
		c-0.39-0.47-0.9-0.71-1.52-0.71c-0.57,0-1.04,0.19-1.42,0.57C338.26,218.36,338.05,218.86,338.01,219.5z"/>
	<path class="st3" d="M344.84,223.82V213.8h1.23v10.02H344.84z"/>
	<path class="st3" d="M347.95,223.82V213.8h1.23v10.02H347.95z"/>
	<path class="st3" d="M351.09,215.22v-1.41h1.23v1.41H351.09z M351.09,223.82v-7.26h1.23v7.26H351.09z"/>
	<path class="st3" d="M354.2,223.82v-7.26h1.11v1.03c0.53-0.8,1.3-1.2,2.31-1.2c0.44,0,0.84,0.08,1.21,0.24
		c0.37,0.16,0.64,0.36,0.82,0.62c0.18,0.26,0.31,0.56,0.38,0.91c0.04,0.23,0.07,0.63,0.07,1.2v4.46h-1.23v-4.42
		c0-0.5-0.05-0.88-0.14-1.13s-0.27-0.45-0.51-0.59c-0.24-0.15-0.53-0.22-0.86-0.22c-0.52,0-0.98,0.17-1.36,0.5
		c-0.38,0.33-0.57,0.96-0.57,1.89v3.96H354.2z"/>
	<path class="st3" d="M361.76,224.43l1.2,0.18c0.05,0.37,0.19,0.64,0.42,0.81c0.31,0.23,0.72,0.34,1.25,0.34
		c0.57,0,1.01-0.11,1.32-0.34c0.31-0.23,0.52-0.55,0.63-0.96c0.06-0.25,0.09-0.78,0.09-1.58c-0.54,0.63-1.21,0.95-2.01,0.95
		c-1,0-1.77-0.36-2.32-1.08c-0.55-0.72-0.82-1.58-0.82-2.59c0-0.69,0.13-1.33,0.38-1.92s0.61-1.04,1.09-1.36
		c0.48-0.32,1.04-0.48,1.68-0.48c0.86,0,1.56,0.35,2.12,1.04v-0.88h1.13v6.28c0,1.13-0.12,1.93-0.34,2.4
		c-0.23,0.47-0.6,0.84-1.09,1.12c-0.5,0.27-1.11,0.41-1.84,0.41c-0.87,0-1.57-0.19-2.1-0.58S361.74,225.21,361.76,224.43z
		 M362.78,220.06c0,0.95,0.19,1.65,0.57,2.08s0.85,0.66,1.42,0.66c0.57,0,1.04-0.22,1.42-0.65s0.57-1.12,0.57-2.05
		c0-0.89-0.2-1.56-0.59-2.01c-0.39-0.45-0.87-0.68-1.43-0.68c-0.55,0-1.01,0.22-1.39,0.67S362.78,219.19,362.78,220.06z"/>
	<path class="st3" d="M214.46,236.99c0-1.34,0.37-2.34,1.12-2.99c0.62-0.54,1.39-0.81,2.28-0.81c1,0,1.81,0.33,2.45,0.98
		c0.63,0.65,0.95,1.56,0.95,2.71c0,0.93-0.14,1.67-0.42,2.2c-0.28,0.54-0.69,0.95-1.22,1.25s-1.12,0.44-1.75,0.44
		c-1.02,0-1.84-0.33-2.46-0.98S214.46,238.22,214.46,236.99z M215.73,236.99c0,0.93,0.2,1.63,0.61,2.09
		c0.41,0.46,0.92,0.69,1.53,0.69c0.61,0,1.12-0.23,1.52-0.7s0.61-1.17,0.61-2.13c0-0.9-0.2-1.58-0.61-2.04
		c-0.41-0.46-0.92-0.69-1.52-0.69c-0.62,0-1.13,0.23-1.53,0.69S215.73,236.06,215.73,236.99z"/>
	<path class="st3" d="M224.05,240.62l-2.22-7.26h1.27l1.16,4.19l0.43,1.56c0.02-0.08,0.14-0.58,0.38-1.5l1.16-4.25h1.26l1.09,4.21
		l0.36,1.39l0.42-1.4l1.24-4.2h1.2l-2.27,7.26h-1.28l-1.16-4.35l-0.28-1.24l-1.47,5.58H224.05z"/>
	<path class="st3" d="M232.82,240.62v-7.26h1.11v1.03c0.53-0.8,1.3-1.2,2.31-1.2c0.44,0,0.84,0.08,1.21,0.24
		c0.37,0.16,0.64,0.36,0.82,0.62s0.31,0.56,0.38,0.91c0.05,0.23,0.07,0.63,0.07,1.2v4.46h-1.23v-4.42c0-0.5-0.05-0.88-0.14-1.12
		c-0.1-0.25-0.27-0.45-0.51-0.6c-0.24-0.15-0.53-0.22-0.86-0.22c-0.52,0-0.98,0.17-1.36,0.5s-0.57,0.96-0.57,1.89v3.96H232.82z"/>
	<path class="st3" d="M249.23,239.73c-0.46,0.39-0.89,0.66-1.32,0.82s-0.87,0.24-1.36,0.24c-0.8,0-1.41-0.19-1.84-0.58
		c-0.43-0.39-0.64-0.89-0.64-1.49c0-0.36,0.08-0.68,0.24-0.97c0.16-0.29,0.37-0.53,0.64-0.71s0.56-0.31,0.89-0.4
		c0.24-0.06,0.61-0.13,1.09-0.18c0.99-0.12,1.73-0.26,2.19-0.42c0-0.17,0.01-0.28,0.01-0.32c0-0.5-0.12-0.85-0.35-1.06
		c-0.31-0.28-0.78-0.42-1.4-0.42c-0.58,0-1.01,0.1-1.28,0.3c-0.28,0.2-0.48,0.56-0.61,1.08l-1.2-0.16c0.11-0.52,0.29-0.93,0.54-1.25
		c0.25-0.32,0.61-0.56,1.09-0.73c0.47-0.17,1.02-0.26,1.65-0.26c0.62,0,1.12,0.07,1.51,0.22s0.67,0.33,0.85,0.55
		c0.18,0.22,0.31,0.5,0.38,0.84c0.04,0.21,0.06,0.59,0.06,1.13v1.64c0,1.14,0.03,1.87,0.08,2.17c0.05,0.3,0.16,0.59,0.31,0.87h-1.29
		C249.35,240.37,249.27,240.07,249.23,239.73z M249.13,236.98c-0.45,0.18-1.12,0.34-2.01,0.46c-0.51,0.07-0.86,0.15-1.07,0.25
		s-0.37,0.22-0.49,0.4c-0.11,0.17-0.17,0.37-0.17,0.58c0,0.33,0.12,0.6,0.37,0.82s0.61,0.33,1.09,0.33c0.47,0,0.9-0.1,1.26-0.31
		c0.37-0.21,0.64-0.49,0.81-0.85c0.13-0.28,0.2-0.69,0.2-1.23V236.98z"/>
	<path class="st3" d="M252.29,232.02v-1.42h1.23v1.42H252.29z M252.29,240.62v-7.26h1.23v7.26H252.29z"/>
	<path class="st3" d="M255.38,240.62v-7.26h1.11v1.1c0.28-0.52,0.54-0.85,0.78-1.02c0.24-0.16,0.5-0.25,0.79-0.25
		c0.42,0,0.84,0.13,1.26,0.4l-0.42,1.14c-0.3-0.18-0.6-0.27-0.9-0.27c-0.27,0-0.51,0.08-0.72,0.24c-0.21,0.16-0.37,0.39-0.46,0.67
		c-0.14,0.44-0.21,0.92-0.21,1.44v3.8H255.38z"/>
	<path class="st3" d="M264.79,237.96l1.21,0.16c-0.13,0.83-0.47,1.49-1.01,1.96c-0.54,0.47-1.21,0.71-2.01,0.71
		c-0.99,0-1.79-0.33-2.4-0.97c-0.6-0.65-0.91-1.58-0.91-2.79c0-0.78,0.13-1.47,0.39-2.06s0.66-1.03,1.19-1.32
		c0.53-0.29,1.11-0.44,1.73-0.44c0.79,0,1.43,0.2,1.93,0.6c0.5,0.4,0.82,0.96,0.96,1.7l-1.2,0.18c-0.11-0.49-0.32-0.85-0.6-1.1
		c-0.29-0.25-0.64-0.37-1.05-0.37c-0.62,0-1.12,0.22-1.51,0.67c-0.39,0.44-0.58,1.15-0.58,2.11c0,0.98,0.19,1.68,0.56,2.13
		s0.86,0.66,1.46,0.66c0.48,0,0.89-0.15,1.21-0.44S264.71,238.58,264.79,237.96z"/>
	<path class="st3" d="M267.04,240.62v-7.26h1.11v1.1c0.28-0.52,0.54-0.85,0.78-1.02c0.24-0.16,0.5-0.25,0.79-0.25
		c0.42,0,0.84,0.13,1.26,0.4l-0.42,1.14c-0.3-0.18-0.6-0.27-0.9-0.27c-0.27,0-0.51,0.08-0.72,0.24c-0.21,0.16-0.37,0.39-0.46,0.67
		c-0.14,0.44-0.21,0.92-0.21,1.44v3.8H267.04z"/>
	<path class="st3" d="M276.45,239.73c-0.46,0.39-0.89,0.66-1.32,0.82c-0.42,0.16-0.87,0.24-1.36,0.24c-0.8,0-1.41-0.19-1.84-0.58
		c-0.43-0.39-0.64-0.89-0.64-1.49c0-0.36,0.08-0.68,0.24-0.97c0.16-0.29,0.37-0.53,0.64-0.71c0.26-0.18,0.56-0.31,0.88-0.4
		c0.24-0.06,0.61-0.13,1.09-0.18c0.99-0.12,1.72-0.26,2.19-0.42c0-0.17,0.01-0.28,0.01-0.32c0-0.5-0.12-0.85-0.35-1.06
		c-0.31-0.28-0.78-0.42-1.4-0.42c-0.58,0-1.01,0.1-1.28,0.3c-0.28,0.2-0.48,0.56-0.61,1.08l-1.2-0.16c0.11-0.52,0.29-0.93,0.54-1.25
		c0.25-0.32,0.61-0.56,1.09-0.73c0.47-0.17,1.02-0.26,1.65-0.26c0.62,0,1.12,0.07,1.51,0.22s0.67,0.33,0.85,0.55
		c0.18,0.22,0.31,0.5,0.38,0.84c0.04,0.21,0.06,0.59,0.06,1.13v1.64c0,1.14,0.03,1.87,0.08,2.17c0.05,0.3,0.16,0.59,0.31,0.87h-1.29
		C276.57,240.37,276.49,240.07,276.45,239.73z M276.35,236.98c-0.45,0.18-1.12,0.34-2.01,0.46c-0.51,0.07-0.86,0.15-1.07,0.25
		s-0.37,0.22-0.49,0.4c-0.11,0.17-0.17,0.37-0.17,0.58c0,0.33,0.12,0.6,0.37,0.82c0.25,0.22,0.61,0.33,1.09,0.33
		c0.47,0,0.9-0.1,1.26-0.31c0.37-0.21,0.64-0.49,0.81-0.85c0.13-0.28,0.2-0.69,0.2-1.23V236.98z"/>
	<path class="st3" d="M279.8,240.62v-6.3h-1.09v-0.96h1.09v-0.77c0-0.49,0.04-0.85,0.13-1.09c0.12-0.32,0.33-0.58,0.63-0.78
		c0.3-0.2,0.72-0.3,1.25-0.3c0.35,0,0.73,0.04,1.15,0.12l-0.18,1.07c-0.26-0.05-0.5-0.07-0.72-0.07c-0.37,0-0.64,0.08-0.79,0.24
		s-0.23,0.46-0.23,0.9v0.67h1.42v0.96h-1.42v6.3H279.8z"/>
	<path class="st3" d="M286.08,239.52l0.18,1.09c-0.35,0.07-0.66,0.11-0.93,0.11c-0.45,0-0.79-0.07-1.04-0.21s-0.42-0.33-0.52-0.56
		c-0.1-0.23-0.15-0.71-0.15-1.45v-4.18h-0.9v-0.96h0.9v-1.8l1.22-0.74v2.54h1.24v0.96h-1.24v4.25c0,0.35,0.02,0.58,0.07,0.68
		c0.04,0.1,0.11,0.18,0.21,0.24c0.1,0.06,0.24,0.09,0.42,0.09C285.67,239.57,285.86,239.55,286.08,239.52z"/>
	<path class="st3" d="M293.86,239.52l0.18,1.09c-0.35,0.07-0.66,0.11-0.93,0.11c-0.45,0-0.79-0.07-1.04-0.21s-0.42-0.33-0.52-0.56
		c-0.1-0.23-0.15-0.71-0.15-1.45v-4.18h-0.9v-0.96h0.9v-1.8l1.22-0.74v2.54h1.24v0.96h-1.24v4.25c0,0.35,0.02,0.58,0.07,0.68
		c0.04,0.1,0.11,0.18,0.21,0.24c0.1,0.06,0.24,0.09,0.42,0.09C293.45,239.57,293.63,239.55,293.86,239.52z"/>
	<path class="st3" d="M294.6,236.99c0-1.34,0.37-2.34,1.12-2.99c0.62-0.54,1.39-0.81,2.28-0.81c1,0,1.81,0.33,2.45,0.98
		c0.63,0.65,0.95,1.56,0.95,2.71c0,0.93-0.14,1.67-0.42,2.2c-0.28,0.54-0.69,0.95-1.22,1.25c-0.54,0.3-1.12,0.44-1.75,0.44
		c-1.02,0-1.84-0.33-2.46-0.98C294.92,239.16,294.6,238.22,294.6,236.99z M295.87,236.99c0,0.93,0.2,1.63,0.61,2.09
		c0.41,0.46,0.92,0.69,1.53,0.69c0.61,0,1.12-0.23,1.52-0.7s0.61-1.17,0.61-2.13c0-0.9-0.2-1.58-0.61-2.04
		c-0.41-0.46-0.91-0.69-1.52-0.69c-0.62,0-1.13,0.23-1.53,0.69S295.87,236.06,295.87,236.99z"/>
	<path class="st3" d="M311.45,240.62v-0.92c-0.46,0.72-1.14,1.08-2.03,1.08c-0.58,0-1.11-0.16-1.6-0.48
		c-0.49-0.32-0.86-0.76-1.13-1.34c-0.27-0.57-0.4-1.23-0.4-1.97c0-0.72,0.12-1.38,0.36-1.97c0.24-0.59,0.6-1.04,1.09-1.36
		s1.02-0.47,1.62-0.47c0.44,0,0.83,0.09,1.17,0.28c0.34,0.19,0.62,0.43,0.83,0.72v-3.6h1.22v10.02H311.45z M307.56,237
		c0,0.93,0.2,1.62,0.59,2.08s0.85,0.69,1.39,0.69c0.54,0,1-0.22,1.37-0.66c0.38-0.44,0.56-1.11,0.56-2.01
		c0-0.99-0.19-1.72-0.57-2.19s-0.85-0.7-1.42-0.7c-0.55,0-1,0.22-1.37,0.67C307.74,235.34,307.56,236.04,307.56,237z"/>
	<path class="st3" d="M319.49,238.29l1.27,0.16c-0.2,0.74-0.57,1.32-1.11,1.73s-1.24,0.62-2.08,0.62c-1.06,0-1.9-0.33-2.53-0.98
		c-0.62-0.65-0.93-1.57-0.93-2.75c0-1.22,0.31-2.17,0.94-2.84s1.44-1.01,2.45-1.01c0.97,0,1.76,0.33,2.38,0.99s0.92,1.59,0.92,2.79
		c0,0.07,0,0.18-0.01,0.33h-5.41c0.05,0.8,0.27,1.41,0.68,1.83s0.91,0.64,1.52,0.64c0.45,0,0.84-0.12,1.16-0.36
		S319.3,238.81,319.49,238.29z M315.45,236.3h4.05c-0.05-0.61-0.21-1.07-0.46-1.37c-0.39-0.47-0.9-0.71-1.52-0.71
		c-0.57,0-1.04,0.19-1.42,0.57C315.71,235.16,315.49,235.66,315.45,236.3z"/>
	<path class="st3" d="M321.82,238.46l1.22-0.19c0.07,0.49,0.26,0.86,0.57,1.12c0.31,0.26,0.75,0.39,1.31,0.39
		c0.57,0,0.98-0.12,1.26-0.34c0.27-0.23,0.41-0.5,0.41-0.81c0-0.28-0.12-0.5-0.36-0.66c-0.17-0.11-0.59-0.25-1.26-0.42
		c-0.9-0.23-1.53-0.42-1.88-0.59c-0.35-0.17-0.61-0.4-0.79-0.69c-0.18-0.29-0.27-0.62-0.27-0.97c0-0.32,0.07-0.62,0.22-0.9
		c0.15-0.28,0.35-0.5,0.6-0.69c0.19-0.14,0.45-0.26,0.78-0.36c0.33-0.1,0.69-0.15,1.06-0.15c0.57,0,1.07,0.08,1.5,0.25
		c0.43,0.16,0.75,0.39,0.95,0.67c0.21,0.28,0.35,0.65,0.42,1.12l-1.2,0.16c-0.05-0.37-0.21-0.67-0.47-0.88
		c-0.26-0.21-0.63-0.31-1.11-0.31c-0.56,0-0.97,0.09-1.21,0.28s-0.36,0.41-0.36,0.66c0,0.16,0.05,0.3,0.15,0.43
		c0.1,0.13,0.26,0.24,0.47,0.33c0.12,0.05,0.49,0.15,1.09,0.31c0.87,0.23,1.48,0.42,1.82,0.57c0.34,0.15,0.61,0.36,0.81,0.65
		s0.29,0.63,0.29,1.05c0,0.41-0.12,0.8-0.36,1.16c-0.24,0.36-0.58,0.64-1.04,0.84c-0.45,0.2-0.96,0.3-1.53,0.3
		c-0.94,0-1.66-0.2-2.16-0.59C322.27,239.81,321.95,239.23,321.82,238.46z"/>
	<path class="st3" d="M334.05,237.96l1.21,0.16c-0.13,0.83-0.47,1.49-1.02,1.96c-0.54,0.47-1.21,0.71-2.01,0.71
		c-0.99,0-1.79-0.33-2.4-0.97c-0.6-0.65-0.91-1.58-0.91-2.79c0-0.78,0.13-1.47,0.39-2.06s0.66-1.03,1.19-1.32
		c0.53-0.29,1.11-0.44,1.73-0.44c0.79,0,1.43,0.2,1.93,0.6c0.5,0.4,0.82,0.96,0.96,1.7l-1.2,0.18c-0.11-0.49-0.32-0.85-0.61-1.1
		c-0.29-0.25-0.64-0.37-1.05-0.37c-0.62,0-1.12,0.22-1.51,0.67c-0.39,0.44-0.58,1.15-0.58,2.11c0,0.98,0.19,1.68,0.56,2.13
		s0.86,0.66,1.46,0.66c0.48,0,0.89-0.15,1.21-0.44S333.96,238.58,334.05,237.96z"/>
	<path class="st3" d="M341.28,238.29l1.27,0.16c-0.2,0.74-0.57,1.32-1.11,1.73s-1.23,0.62-2.08,0.62c-1.06,0-1.9-0.33-2.53-0.98
		c-0.62-0.65-0.93-1.57-0.93-2.75c0-1.22,0.31-2.17,0.94-2.84s1.45-1.01,2.45-1.01c0.97,0,1.76,0.33,2.38,0.99s0.92,1.59,0.92,2.79
		c0,0.07,0,0.18-0.01,0.33h-5.41c0.04,0.8,0.27,1.41,0.68,1.83s0.91,0.64,1.52,0.64c0.45,0,0.84-0.12,1.16-0.36
		S341.09,238.81,341.28,238.29z M337.24,236.3h4.05c-0.05-0.61-0.21-1.07-0.46-1.37c-0.39-0.47-0.9-0.71-1.52-0.71
		c-0.56,0-1.04,0.19-1.43,0.57C337.49,235.16,337.28,235.66,337.24,236.3z"/>
	<path class="st3" d="M344.09,240.62v-7.26h1.11v1.03c0.53-0.8,1.3-1.2,2.31-1.2c0.44,0,0.84,0.08,1.21,0.24
		c0.37,0.16,0.64,0.36,0.82,0.62s0.31,0.56,0.38,0.91c0.04,0.23,0.07,0.63,0.07,1.2v4.46h-1.23v-4.42c0-0.5-0.05-0.88-0.14-1.12
		c-0.1-0.25-0.27-0.45-0.51-0.6c-0.24-0.15-0.53-0.22-0.86-0.22c-0.52,0-0.98,0.17-1.36,0.5c-0.38,0.33-0.57,0.96-0.57,1.89v3.96
		H344.09z"/>
	<path class="st3" d="M356.59,240.62v-0.92c-0.46,0.72-1.14,1.08-2.03,1.08c-0.58,0-1.11-0.16-1.6-0.48
		c-0.49-0.32-0.86-0.76-1.13-1.34c-0.27-0.57-0.4-1.23-0.4-1.97c0-0.72,0.12-1.38,0.36-1.97c0.24-0.59,0.6-1.04,1.09-1.36
		s1.02-0.47,1.62-0.47c0.44,0,0.83,0.09,1.17,0.28c0.34,0.19,0.62,0.43,0.83,0.72v-3.6h1.22v10.02H356.59z M352.7,237
		c0,0.93,0.2,1.62,0.59,2.08s0.85,0.69,1.39,0.69c0.54,0,1-0.22,1.37-0.66c0.38-0.44,0.56-1.11,0.56-2.01
		c0-0.99-0.19-1.72-0.57-2.19s-0.85-0.7-1.42-0.7c-0.55,0-1,0.22-1.37,0.67C352.88,235.34,352.7,236.04,352.7,237z"/>
	<path class="st3" d="M360.02,240.62v-1.4h1.4v1.4H360.02z"/>
</g>
<g>
</g>
<g>
</g>
<g>
</g>
<g>
</g>
<g>
</g>
<g>
</g>
<g>
</g>
<g>
</g>
<g>
</g>
<g>
</g>
<g>
</g>
<g>
</g>
<g>
</g>
<g>
</g>
<g>
</g>
<g>
</g>
<g>
</g>
<g>
</g>
<g>
</g>
<g>
</g>
</svg>
