<?xml version="1.0" encoding="utf-8"?>
<!-- Generator: Adobe Illustrator 18.1.1, SVG Export Plug-In . SVG Version: 6.00 Build 0)  -->
<svg version="1.1" id="scene1" xmlns="http://www.w3.org/2000/svg" xmlns:xlink="http://www.w3.org/1999/xlink" x="0px" y="0px"
	 width="500px" height="250px" viewBox="10 86 500 250" style="enable-background:new 10 86 500 250;" xml:space="preserve">
<style type="text/css">
	.st0{fill:#A2CEF9;}
	.st1{fill:none;}
	.st2{fill:#F2F2F2;}
	.st3{fill:#003366;}
	.st4{fill:#606060;}
	.st5{fill:#FF4425;}
	.st6{fill:#FFFFFF;}
	.st7{fill:none;stroke:#FF4425;stroke-width:3;stroke-miterlimit:10;}
	.st8{fill:none;stroke:#FF4425;stroke-width:3;stroke-miterlimit:10;stroke-dasharray:3,3;}
	.st9{fill:none;stroke:#EAE8EA;stroke-width:2;stroke-miterlimit:10;}
	.st10{fill:none;stroke:#EAE8EA;stroke-width:2;stroke-miterlimit:10;stroke-dasharray:11,11;}
	.st11{fill:#EAE8EA;}
	.st12{fill:none;stroke:#EAE8EA;stroke-width:2;stroke-miterlimit:10;stroke-dasharray:12.049,12.049;}
	.st13{fill:none;stroke:#00FF18;stroke-width:2;stroke-miterlimit:10;}
	.st14{fill:none;stroke:#00FF18;stroke-width:2;stroke-miterlimit:10;stroke-dasharray:11.5935,11.5935;}
	.st15{fill:#00FF18;}
	.st16{fill:none;stroke:#00FF18;stroke-width:2;stroke-miterlimit:10;stroke-dasharray:11.995,11.995;}
	.st17{fill:#76B82A;}
	.st18{fill:none;stroke:#FFFFFF;stroke-width:3;stroke-miterlimit:10;}
</style>
<rect id="bg" x="10" y="86" class="st0" width="500" height="250"/>
<g id="title">
	<rect x="19" y="96.5" class="st1" width="256" height="21.5"/>
	<path class="st2" d="M20.17,107.96V96.5h4.87c1.22,0,2.11,0.1,2.67,0.31c0.55,0.21,1,0.57,1.33,1.1c0.33,0.53,0.5,1.13,0.5,1.8
		c0,0.86-0.25,1.57-0.76,2.13c-0.51,0.56-1.26,0.91-2.27,1.06c0.5,0.29,0.91,0.61,1.24,0.96s0.76,0.97,1.32,1.86l1.4,2.23H27.7
		l-1.67-2.49c-0.59-0.89-1-1.45-1.22-1.68c-0.22-0.23-0.45-0.39-0.7-0.48c-0.25-0.09-0.63-0.13-1.16-0.13h-0.47v4.78L20.17,107.96
		L20.17,107.96z M22.48,101.35h1.71c1.11,0,1.8-0.05,2.08-0.14c0.28-0.09,0.49-0.25,0.65-0.48c0.16-0.23,0.23-0.52,0.23-0.86
		c0-0.39-0.1-0.7-0.31-0.93c-0.21-0.24-0.5-0.39-0.87-0.45c-0.19-0.03-0.75-0.04-1.69-0.04h-1.8V101.35z"/>
	<path class="st2" d="M36.51,105.31l2.19,0.37c-0.28,0.8-0.73,1.41-1.33,1.83c-0.61,0.42-1.37,0.63-2.28,0.63
		c-1.44,0-2.51-0.47-3.2-1.41c-0.55-0.75-0.82-1.71-0.82-2.86c0-1.38,0.36-2.45,1.08-3.23c0.72-0.78,1.63-1.17,2.73-1.17
		c1.23,0,2.21,0.41,2.92,1.22c0.71,0.82,1.05,2.06,1.02,3.75h-5.5c0.02,0.65,0.19,1.16,0.53,1.52c0.34,0.36,0.76,0.54,1.27,0.54
		c0.34,0,0.63-0.09,0.87-0.28S36.39,105.73,36.51,105.31z M36.63,103.1c-0.02-0.64-0.18-1.12-0.49-1.45s-0.69-0.5-1.14-0.5
		c-0.48,0-0.88,0.17-1.19,0.52c-0.31,0.35-0.47,0.82-0.46,1.42h3.28V103.1z"/>
	<path class="st2" d="M48.21,107.96h-2.04v-1.22c-0.34,0.47-0.74,0.83-1.2,1.06c-0.46,0.23-0.93,0.35-1.39,0.35
		c-0.95,0-1.77-0.38-2.45-1.15s-1.02-1.84-1.02-3.21c0-1.41,0.33-2.48,0.99-3.21c0.66-0.73,1.5-1.1,2.51-1.1
		c0.93,0,1.73,0.39,2.41,1.16V96.5h2.2L48.21,107.96L48.21,107.96z M42.35,103.63c0,0.89,0.12,1.53,0.37,1.92
		c0.35,0.57,0.85,0.86,1.48,0.86c0.5,0,0.93-0.21,1.29-0.64c0.35-0.43,0.53-1.07,0.53-1.93c0-0.95-0.17-1.64-0.52-2.06
		c-0.34-0.42-0.78-0.63-1.32-0.63c-0.52,0-0.96,0.21-1.31,0.62C42.52,102.18,42.35,102.8,42.35,103.63z"/>
	<path class="st2" d="M55.84,107.96v-1.24c-0.3,0.44-0.7,0.79-1.19,1.05c-0.49,0.26-1.01,0.38-1.56,0.38c-0.56,0-1.06-0.12-1.5-0.37
		c-0.44-0.24-0.76-0.59-0.96-1.03c-0.2-0.44-0.3-1.05-0.3-1.84v-5.25h2.2v3.81c0,1.17,0.04,1.88,0.12,2.14
		c0.08,0.26,0.23,0.47,0.44,0.63c0.21,0.15,0.48,0.23,0.81,0.23c0.38,0,0.71-0.1,1.01-0.31s0.5-0.46,0.61-0.77
		c0.11-0.31,0.16-1.05,0.16-2.24v-3.5h2.2v8.3h-2.04V107.96z"/>
	<path class="st2" d="M67.38,102.11l-2.16,0.39c-0.07-0.43-0.24-0.76-0.5-0.98c-0.26-0.22-0.59-0.33-1-0.33
		c-0.55,0-0.98,0.19-1.31,0.57c-0.33,0.38-0.49,1.01-0.49,1.89c0,0.98,0.17,1.68,0.5,2.09c0.33,0.41,0.77,0.61,1.33,0.61
		c0.42,0,0.76-0.12,1.02-0.36c0.27-0.24,0.45-0.64,0.56-1.22l2.16,0.37c-0.22,0.99-0.65,1.74-1.29,2.24
		c-0.64,0.51-1.49,0.76-2.55,0.76c-1.21,0-2.18-0.38-2.9-1.15c-0.72-0.77-1.08-1.83-1.08-3.18c0-1.37,0.36-2.44,1.09-3.2
		c0.72-0.76,1.7-1.14,2.94-1.14c1.01,0,1.81,0.22,2.41,0.65C66.69,100.56,67.12,101.22,67.38,102.11z"/>
	<path class="st2" d="M73.85,105.31l2.19,0.37c-0.28,0.8-0.73,1.41-1.33,1.83c-0.61,0.42-1.37,0.63-2.28,0.63
		c-1.44,0-2.51-0.47-3.2-1.41c-0.55-0.75-0.82-1.71-0.82-2.86c0-1.38,0.36-2.45,1.08-3.23s1.63-1.17,2.73-1.17
		c1.23,0,2.21,0.41,2.92,1.22c0.71,0.82,1.05,2.06,1.02,3.75h-5.5c0.02,0.65,0.19,1.16,0.53,1.52s0.76,0.54,1.27,0.54
		c0.34,0,0.63-0.09,0.87-0.28S73.73,105.73,73.85,105.31z M73.98,103.1c-0.02-0.64-0.18-1.12-0.49-1.45s-0.69-0.5-1.14-0.5
		c-0.48,0-0.88,0.17-1.19,0.52c-0.31,0.35-0.47,0.82-0.46,1.42h3.28V103.1z"/>
	<path class="st2" d="M84.67,107.96l-3.34-8.3h2.3l1.56,4.23l0.45,1.41c0.12-0.36,0.2-0.6,0.23-0.71c0.07-0.23,0.15-0.47,0.23-0.7
		l1.58-4.23h2.26l-3.3,8.3H84.67z"/>
	<path class="st2" d="M96.09,105.31l2.19,0.37c-0.28,0.8-0.73,1.41-1.33,1.83c-0.61,0.42-1.37,0.63-2.28,0.63
		c-1.44,0-2.51-0.47-3.2-1.41c-0.55-0.75-0.82-1.71-0.82-2.86c0-1.38,0.36-2.45,1.08-3.23s1.63-1.17,2.73-1.17
		c1.23,0,2.21,0.41,2.92,1.22c0.71,0.82,1.05,2.06,1.02,3.75h-5.5c0.02,0.65,0.19,1.16,0.53,1.52s0.76,0.54,1.27,0.54
		c0.34,0,0.63-0.09,0.87-0.28S95.97,105.73,96.09,105.31z M96.22,103.1c-0.02-0.64-0.18-1.12-0.49-1.45s-0.69-0.5-1.14-0.5
		c-0.48,0-0.88,0.17-1.19,0.52c-0.31,0.35-0.47,0.82-0.46,1.42h3.28V103.1z"/>
	<path class="st2" d="M102.29,107.96h-2.2v-8.3h2.04v1.18c0.35-0.56,0.66-0.92,0.94-1.1s0.59-0.27,0.95-0.27
		c0.5,0,0.98,0.14,1.45,0.41l-0.68,1.91c-0.37-0.24-0.71-0.36-1.03-0.36c-0.31,0-0.57,0.08-0.78,0.25c-0.21,0.17-0.38,0.48-0.5,0.92
		s-0.18,1.37-0.18,2.78v2.58H102.29z"/>
	<path class="st2" d="M110.22,99.66v1.75h-1.5v3.34c0,0.68,0.01,1.07,0.04,1.18s0.09,0.2,0.2,0.28c0.1,0.07,0.23,0.11,0.37,0.11
		c0.2,0,0.5-0.07,0.88-0.21l0.19,1.7c-0.51,0.22-1.09,0.33-1.73,0.33c-0.4,0-0.75-0.07-1.07-0.2s-0.55-0.3-0.7-0.52
		s-0.25-0.5-0.31-0.86c-0.05-0.25-0.07-0.77-0.07-1.55v-3.62h-1.01v-1.75h1.01v-1.65l2.2-1.28v2.93h1.5V99.66z"/>
	<path class="st2" d="M111.74,98.53V96.5h2.2v2.03H111.74z M111.74,107.96v-8.3h2.2v8.3H111.74z"/>
	<path class="st2" d="M123.42,102.11l-2.16,0.39c-0.07-0.43-0.24-0.76-0.5-0.98c-0.26-0.22-0.59-0.33-1-0.33
		c-0.55,0-0.98,0.19-1.31,0.57c-0.33,0.38-0.49,1.01-0.49,1.89c0,0.98,0.17,1.68,0.5,2.09c0.33,0.41,0.77,0.61,1.33,0.61
		c0.42,0,0.76-0.12,1.02-0.36c0.27-0.24,0.45-0.64,0.56-1.22l2.16,0.37c-0.22,0.99-0.65,1.74-1.29,2.24
		c-0.64,0.51-1.49,0.76-2.55,0.76c-1.21,0-2.18-0.38-2.9-1.15c-0.72-0.77-1.08-1.83-1.08-3.18c0-1.37,0.36-2.44,1.09-3.2
		c0.72-0.76,1.7-1.14,2.94-1.14c1.01,0,1.81,0.22,2.41,0.65C122.73,100.56,123.16,101.22,123.42,102.11z"/>
	<path class="st2" d="M126.73,102.19l-1.99-0.36c0.22-0.8,0.61-1.4,1.16-1.78c0.55-0.39,1.36-0.58,2.44-0.58
		c0.98,0,1.71,0.12,2.19,0.35c0.48,0.23,0.82,0.53,1.01,0.88c0.2,0.36,0.29,1.01,0.29,1.96l-0.02,2.56c0,0.73,0.04,1.27,0.11,1.61
		c0.07,0.35,0.2,0.72,0.39,1.11h-2.17c-0.06-0.15-0.13-0.36-0.21-0.65c-0.04-0.13-0.06-0.22-0.08-0.26
		c-0.38,0.36-0.78,0.64-1.2,0.82c-0.43,0.18-0.88,0.27-1.37,0.27c-0.85,0-1.53-0.23-2.02-0.7c-0.49-0.46-0.74-1.05-0.74-1.76
		c0-0.47,0.11-0.89,0.34-1.25c0.22-0.37,0.54-0.65,0.94-0.84c0.4-0.2,0.99-0.37,1.75-0.51c1.03-0.19,1.74-0.37,2.13-0.54v-0.22
		c0-0.42-0.1-0.72-0.31-0.9s-0.6-0.27-1.18-0.27c-0.39,0-0.7,0.08-0.91,0.23C127.04,101.54,126.86,101.8,126.73,102.19z
		 M129.66,103.97c-0.28,0.09-0.73,0.21-1.34,0.34c-0.61,0.13-1.01,0.26-1.2,0.38c-0.29,0.2-0.43,0.46-0.43,0.77
		c0,0.31,0.11,0.57,0.34,0.8c0.23,0.22,0.52,0.34,0.88,0.34c0.4,0,0.77-0.13,1.13-0.39c0.27-0.2,0.44-0.44,0.52-0.73
		c0.06-0.19,0.09-0.54,0.09-1.07v-0.44H129.66z"/>
	<path class="st2" d="M133.98,107.96V96.5h2.2v11.45h-2.2V107.96z"/>
	<path class="st2" d="M142.1,105.59l2.2-0.34c0.09,0.43,0.28,0.75,0.57,0.97c0.29,0.22,0.69,0.33,1.2,0.33
		c0.57,0,0.99-0.1,1.28-0.31c0.19-0.15,0.29-0.34,0.29-0.59c0-0.17-0.05-0.3-0.16-0.41c-0.11-0.1-0.35-0.2-0.73-0.29
		c-1.77-0.39-2.89-0.75-3.37-1.07c-0.66-0.45-0.98-1.07-0.98-1.87c0-0.72,0.28-1.32,0.85-1.81c0.57-0.49,1.45-0.73,2.64-0.73
		c1.14,0,1.98,0.19,2.53,0.55c0.55,0.37,0.93,0.92,1.14,1.64l-2.07,0.38c-0.09-0.32-0.26-0.57-0.5-0.74
		c-0.25-0.17-0.6-0.26-1.06-0.26c-0.58,0-0.99,0.08-1.24,0.24c-0.17,0.11-0.25,0.26-0.25,0.45c0,0.16,0.07,0.29,0.22,0.4
		c0.2,0.15,0.88,0.35,2.05,0.62s1.99,0.59,2.45,0.98c0.46,0.39,0.69,0.94,0.69,1.63c0,0.76-0.32,1.41-0.95,1.96
		c-0.64,0.55-1.58,0.82-2.82,0.82c-1.13,0-2.02-0.23-2.68-0.69C142.74,107,142.3,106.38,142.1,105.59z"/>
	<path class="st2" d="M151.71,99.66h2.05v1.22c0.27-0.42,0.63-0.75,1.08-1.02c0.45-0.26,0.96-0.39,1.51-0.39
		c0.96,0,1.78,0.38,2.45,1.13c0.67,0.76,1.01,1.81,1.01,3.16c0,1.39-0.34,2.46-1.02,3.23c-0.68,0.77-1.5,1.15-2.46,1.15
		c-0.46,0-0.87-0.09-1.25-0.27c-0.37-0.18-0.76-0.49-1.18-0.94v4.18h-2.2V99.66H151.71z M153.88,103.67c0,0.93,0.18,1.62,0.55,2.07
		c0.37,0.45,0.82,0.67,1.35,0.67c0.51,0,0.93-0.2,1.27-0.61c0.34-0.41,0.51-1.08,0.51-2.01c0-0.87-0.17-1.52-0.52-1.94
		s-0.78-0.63-1.3-0.63c-0.54,0-0.98,0.21-1.34,0.62C154.06,102.24,153.88,102.85,153.88,103.67z"/>
	<path class="st2" d="M166.35,105.31l2.19,0.37c-0.28,0.8-0.73,1.41-1.33,1.83c-0.61,0.42-1.37,0.63-2.28,0.63
		c-1.44,0-2.51-0.47-3.2-1.41c-0.55-0.75-0.82-1.71-0.82-2.86c0-1.38,0.36-2.45,1.08-3.23s1.63-1.17,2.73-1.17
		c1.23,0,2.21,0.41,2.92,1.22c0.71,0.82,1.05,2.06,1.02,3.75h-5.5c0.02,0.65,0.19,1.16,0.53,1.52s0.76,0.54,1.27,0.54
		c0.34,0,0.63-0.09,0.87-0.28S166.23,105.73,166.35,105.31z M166.48,103.1c-0.02-0.64-0.18-1.12-0.49-1.45
		c-0.31-0.33-0.69-0.5-1.14-0.5c-0.48,0-0.88,0.17-1.19,0.52c-0.31,0.35-0.47,0.82-0.46,1.42h3.28V103.1z"/>
	<path class="st2" d="M175.25,105.31l2.19,0.37c-0.28,0.8-0.73,1.41-1.33,1.83c-0.61,0.42-1.37,0.63-2.28,0.63
		c-1.44,0-2.51-0.47-3.2-1.41c-0.55-0.75-0.82-1.71-0.82-2.86c0-1.38,0.36-2.45,1.08-3.23s1.63-1.17,2.73-1.17
		c1.23,0,2.21,0.41,2.92,1.22c0.71,0.82,1.05,2.06,1.02,3.75h-5.5c0.02,0.65,0.19,1.16,0.53,1.52s0.76,0.54,1.27,0.54
		c0.34,0,0.63-0.09,0.87-0.28S175.13,105.73,175.25,105.31z M175.38,103.1c-0.02-0.64-0.18-1.12-0.49-1.45
		c-0.31-0.33-0.69-0.5-1.14-0.5c-0.48,0-0.88,0.17-1.19,0.52c-0.31,0.35-0.47,0.82-0.46,1.42h3.28V103.1z"/>
	<path class="st2" d="M186.95,107.96h-2.04v-1.22c-0.34,0.47-0.74,0.83-1.2,1.06c-0.46,0.23-0.93,0.35-1.39,0.35
		c-0.95,0-1.77-0.38-2.45-1.15s-1.02-1.84-1.02-3.21c0-1.41,0.33-2.48,0.99-3.21c0.66-0.73,1.5-1.1,2.51-1.1
		c0.93,0,1.73,0.39,2.41,1.16V96.5h2.2v11.46H186.95z M181.09,103.63c0,0.89,0.12,1.53,0.37,1.92c0.35,0.57,0.85,0.86,1.48,0.86
		c0.5,0,0.93-0.21,1.29-0.64c0.35-0.43,0.53-1.07,0.53-1.93c0-0.95-0.17-1.64-0.52-2.06c-0.34-0.42-0.78-0.63-1.32-0.63
		c-0.52,0-0.96,0.21-1.31,0.62C181.26,102.18,181.09,102.8,181.09,103.63z"/>
</g>
<g id="text5">
	<rect x="21.5" y="283" class="st1" width="139.5" height="49"/>
	<path class="st3" d="M26.72,293.02h-1.23v-7.84c-0.3,0.28-0.68,0.56-1.17,0.85c-0.48,0.28-0.91,0.49-1.3,0.63v-1.19
		c0.69-0.32,1.29-0.71,1.8-1.18c0.52-0.46,0.88-0.91,1.09-1.34h0.79v10.07H26.72z"/>
	<path class="st3" d="M30.56,293.02v-1.4h1.4v1.4H30.56z"/>
	<path class="st3" d="M40.44,293.02v-8.84h-3.3V283h7.94v1.18h-3.32v8.84L40.44,293.02L40.44,293.02z"/>
	<path class="st3" d="M53.59,289.51l1.33,0.34c-0.28,1.09-0.78,1.92-1.5,2.49s-1.61,0.86-2.65,0.86c-1.08,0-1.96-0.22-2.64-0.66
		s-1.19-1.08-1.54-1.91c-0.35-0.83-0.53-1.73-0.53-2.69c0-1.04,0.2-1.95,0.6-2.73s0.97-1.37,1.7-1.77c0.73-0.4,1.55-0.6,2.43-0.6
		c1,0,1.85,0.25,2.53,0.77c0.68,0.51,1.16,1.23,1.43,2.15l-1.31,0.31c-0.23-0.73-0.57-1.26-1.01-1.59s-1-0.5-1.67-0.5
		c-0.77,0-1.41,0.18-1.93,0.55c-0.52,0.37-0.88,0.87-1.09,1.49s-0.31,1.26-0.31,1.92c0,0.85,0.12,1.6,0.37,2.23s0.63,1.11,1.16,1.42
		s1.09,0.47,1.7,0.47c0.74,0,1.37-0.21,1.89-0.64C53.06,290.99,53.41,290.35,53.59,289.51z"/>
	<path class="st3" d="M55.45,293.02L59.3,283h1.43l4.1,10.02h-1.51l-1.17-3.04h-4.19l-1.1,3.04H55.45z M58.35,288.91h3.4l-1.05-2.78
		c-0.32-0.84-0.56-1.54-0.71-2.08c-0.13,0.64-0.31,1.28-0.54,1.91L58.35,288.91z"/>
	<path class="st3" d="M65.44,289.8l1.25-0.11c0.06,0.5,0.2,0.91,0.41,1.23c0.21,0.32,0.55,0.58,1.01,0.78
		c0.46,0.2,0.97,0.3,1.54,0.3c0.51,0,0.95-0.08,1.34-0.23c0.39-0.15,0.68-0.36,0.86-0.62c0.18-0.26,0.28-0.55,0.28-0.86
		s-0.09-0.59-0.27-0.82c-0.18-0.23-0.48-0.43-0.9-0.59c-0.27-0.11-0.86-0.27-1.78-0.49c-0.92-0.22-1.57-0.43-1.93-0.63
		c-0.48-0.25-0.83-0.56-1.07-0.93c-0.24-0.37-0.35-0.79-0.35-1.25c0-0.51,0.14-0.98,0.43-1.42c0.29-0.44,0.71-0.77,1.26-1
		s1.16-0.34,1.84-0.34c0.74,0,1.4,0.12,1.97,0.36c0.57,0.24,1,0.59,1.31,1.06c0.31,0.47,0.47,0.99,0.49,1.58l-1.27,0.1
		c-0.07-0.63-0.3-1.11-0.69-1.44c-0.39-0.32-0.98-0.49-1.75-0.49c-0.8,0-1.39,0.15-1.75,0.44c-0.36,0.29-0.55,0.65-0.55,1.06
		c0,0.36,0.13,0.66,0.39,0.89s0.92,0.47,2,0.71c1.08,0.24,1.82,0.46,2.22,0.64c0.58,0.27,1.01,0.61,1.29,1.02
		c0.28,0.41,0.42,0.89,0.42,1.42s-0.15,1.04-0.46,1.51c-0.31,0.47-0.74,0.84-1.32,1.1s-1.22,0.39-1.93,0.39
		c-0.91,0-1.67-0.13-2.28-0.4c-0.61-0.26-1.09-0.66-1.44-1.19C65.66,291.05,65.46,290.47,65.44,289.8z"/>
	<path class="st3" d="M83.67,293.02v-0.92c-0.46,0.72-1.14,1.08-2.03,1.08c-0.58,0-1.11-0.16-1.6-0.48s-0.86-0.76-1.13-1.34
		s-0.4-1.23-0.4-1.97c0-0.72,0.12-1.38,0.36-1.97s0.6-1.04,1.09-1.36s1.02-0.47,1.62-0.47c0.44,0,0.83,0.09,1.17,0.28
		s0.62,0.42,0.83,0.72V283h1.22v10.02H83.67z M79.78,289.4c0,0.93,0.2,1.63,0.59,2.09c0.39,0.46,0.85,0.69,1.39,0.69
		s0.99-0.22,1.37-0.66s0.56-1.11,0.56-2.01c0-0.99-0.19-1.72-0.57-2.19c-0.38-0.47-0.85-0.7-1.42-0.7c-0.55,0-1,0.22-1.37,0.67
		C79.97,287.74,79.78,288.44,79.78,289.4z"/>
	<path class="st3" d="M91.72,290.69l1.27,0.16c-0.2,0.74-0.57,1.32-1.11,1.73c-0.54,0.41-1.23,0.62-2.08,0.62
		c-1.06,0-1.9-0.33-2.53-0.98s-0.93-1.57-0.93-2.75c0-1.22,0.31-2.17,0.94-2.84c0.63-0.67,1.44-1.01,2.45-1.01
		c0.97,0,1.76,0.33,2.38,0.99c0.62,0.66,0.92,1.59,0.92,2.79c0,0.07,0,0.18-0.01,0.33h-5.41c0.05,0.8,0.27,1.41,0.68,1.83
		c0.41,0.42,0.91,0.63,1.52,0.63c0.45,0,0.84-0.12,1.16-0.36C91.28,291.58,91.53,291.21,91.72,290.69z M87.68,288.7h4.05
		c-0.05-0.61-0.21-1.07-0.46-1.38c-0.39-0.47-0.9-0.71-1.52-0.71c-0.56,0-1.04,0.19-1.43,0.57
		C87.93,287.56,87.72,288.06,87.68,288.7z"/>
	<path class="st3" d="M97.22,291.92l0.18,1.09c-0.35,0.07-0.66,0.11-0.93,0.11c-0.45,0-0.79-0.07-1.04-0.21
		c-0.25-0.14-0.42-0.33-0.52-0.56c-0.1-0.23-0.15-0.71-0.15-1.45v-4.18h-0.9v-0.96h0.9v-1.8l1.22-0.74v2.54h1.24v0.96h-1.24v4.25
		c0,0.35,0.02,0.58,0.06,0.68c0.04,0.1,0.11,0.18,0.21,0.24c0.1,0.06,0.24,0.09,0.42,0.09C96.82,291.97,97,291.96,97.22,291.92z"/>
	<path class="st3" d="M103.39,290.69l1.27,0.16c-0.2,0.74-0.57,1.32-1.11,1.73c-0.54,0.41-1.23,0.62-2.08,0.62
		c-1.06,0-1.9-0.33-2.53-0.98s-0.93-1.57-0.93-2.75c0-1.22,0.31-2.17,0.94-2.84c0.63-0.67,1.44-1.01,2.45-1.01
		c0.97,0,1.76,0.33,2.38,0.99c0.62,0.66,0.92,1.59,0.92,2.79c0,0.07,0,0.18-0.01,0.33h-5.41c0.05,0.8,0.27,1.41,0.68,1.83
		c0.41,0.42,0.91,0.63,1.52,0.63c0.45,0,0.84-0.12,1.16-0.36C102.95,291.58,103.21,291.21,103.39,290.69z M99.35,288.7h4.05
		c-0.05-0.61-0.21-1.07-0.46-1.38c-0.39-0.47-0.9-0.71-1.52-0.71c-0.56,0-1.04,0.19-1.43,0.57C99.61,287.56,99.4,288.06,99.35,288.7
		z"/>
	<path class="st3" d="M110.95,290.37l1.21,0.16c-0.13,0.83-0.47,1.49-1.02,1.96c-0.55,0.47-1.21,0.71-2.01,0.71
		c-0.99,0-1.79-0.32-2.4-0.97s-0.91-1.58-0.91-2.79c0-0.78,0.13-1.47,0.39-2.06c0.26-0.59,0.66-1.03,1.19-1.32
		c0.53-0.29,1.11-0.44,1.73-0.44c0.79,0,1.43,0.2,1.93,0.6c0.5,0.4,0.82,0.96,0.96,1.7l-1.2,0.19c-0.11-0.49-0.32-0.86-0.6-1.1
		s-0.64-0.37-1.05-0.37c-0.62,0-1.12,0.22-1.51,0.67c-0.39,0.45-0.58,1.15-0.58,2.11c0,0.98,0.19,1.68,0.56,2.13
		c0.37,0.44,0.86,0.66,1.46,0.66c0.48,0,0.89-0.15,1.21-0.44C110.66,291.44,110.86,290.98,110.95,290.37z"/>
	<path class="st3" d="M115.9,291.92l0.18,1.09c-0.35,0.07-0.66,0.11-0.93,0.11c-0.45,0-0.79-0.07-1.04-0.21
		c-0.25-0.14-0.42-0.33-0.52-0.56c-0.1-0.23-0.15-0.71-0.15-1.45v-4.18h-0.9v-0.96h0.9v-1.8l1.22-0.74v2.54h1.24v0.96h-1.24v4.25
		c0,0.35,0.02,0.58,0.06,0.68c0.04,0.1,0.11,0.18,0.21,0.24c0.1,0.06,0.24,0.09,0.42,0.09C115.49,291.97,115.67,291.96,115.9,291.92
		z"/>
	<path class="st3" d="M116.61,290.86l1.22-0.19c0.07,0.49,0.26,0.86,0.57,1.12c0.31,0.26,0.75,0.39,1.31,0.39s0.98-0.12,1.26-0.34
		s0.41-0.5,0.41-0.81c0-0.28-0.12-0.5-0.36-0.66c-0.17-0.11-0.59-0.25-1.26-0.42c-0.9-0.23-1.53-0.42-1.88-0.59
		c-0.35-0.17-0.61-0.4-0.79-0.69c-0.18-0.29-0.27-0.62-0.27-0.97c0-0.32,0.07-0.62,0.22-0.9c0.15-0.28,0.35-0.5,0.6-0.69
		c0.19-0.14,0.45-0.26,0.78-0.36s0.68-0.15,1.06-0.15c0.57,0,1.07,0.08,1.5,0.25s0.75,0.39,0.95,0.67c0.2,0.28,0.35,0.66,0.42,1.12
		l-1.2,0.16c-0.05-0.37-0.21-0.67-0.48-0.88c-0.26-0.21-0.63-0.31-1.11-0.31c-0.56,0-0.97,0.09-1.21,0.28s-0.36,0.41-0.36,0.66
		c0,0.16,0.05,0.3,0.15,0.43c0.1,0.13,0.26,0.24,0.47,0.33c0.12,0.05,0.49,0.15,1.09,0.31c0.87,0.23,1.48,0.42,1.82,0.57
		s0.61,0.36,0.81,0.65c0.2,0.28,0.29,0.63,0.29,1.05c0,0.41-0.12,0.8-0.36,1.16c-0.24,0.36-0.58,0.64-1.04,0.84
		c-0.46,0.2-0.96,0.3-1.53,0.3c-0.94,0-1.66-0.2-2.16-0.59C117.06,292.21,116.75,291.63,116.61,290.86z"/>
	<path class="st3" d="M132.73,292.13c-0.46,0.39-0.89,0.66-1.32,0.82c-0.42,0.16-0.87,0.24-1.36,0.24c-0.8,0-1.41-0.19-1.84-0.58
		s-0.64-0.89-0.64-1.49c0-0.36,0.08-0.68,0.24-0.97c0.16-0.29,0.37-0.53,0.64-0.71c0.27-0.18,0.56-0.31,0.89-0.4
		c0.24-0.06,0.61-0.13,1.09-0.19c0.99-0.12,1.73-0.26,2.19-0.42c0-0.17,0.01-0.28,0.01-0.32c0-0.5-0.12-0.86-0.35-1.06
		c-0.31-0.28-0.78-0.42-1.4-0.42c-0.58,0-1.01,0.1-1.28,0.3c-0.27,0.2-0.48,0.56-0.61,1.08l-1.2-0.16c0.11-0.52,0.29-0.93,0.54-1.25
		s0.61-0.56,1.09-0.73c0.48-0.17,1.02-0.26,1.65-0.26c0.62,0,1.12,0.07,1.51,0.22c0.39,0.15,0.67,0.33,0.85,0.55
		c0.18,0.22,0.31,0.5,0.38,0.84c0.04,0.21,0.06,0.59,0.06,1.13v1.64c0,1.14,0.03,1.87,0.08,2.17c0.05,0.3,0.16,0.59,0.31,0.87h-1.29
		C132.85,292.77,132.76,292.47,132.73,292.13z M132.63,289.38c-0.45,0.18-1.12,0.34-2.01,0.46c-0.51,0.07-0.86,0.15-1.07,0.25
		c-0.21,0.09-0.37,0.22-0.49,0.4s-0.17,0.37-0.17,0.58c0,0.33,0.12,0.6,0.37,0.82s0.61,0.33,1.09,0.33c0.47,0,0.9-0.1,1.26-0.31
		c0.36-0.21,0.64-0.49,0.81-0.85c0.13-0.28,0.2-0.69,0.2-1.23v-0.45H132.63z"/>
	<path class="st3" d="M25.11,308.72l0.18,1.09c-0.35,0.07-0.66,0.11-0.93,0.11c-0.45,0-0.79-0.07-1.04-0.21s-0.42-0.33-0.52-0.56
		s-0.15-0.71-0.15-1.45v-4.18h-0.9v-0.96h0.9v-1.8l1.22-0.74v2.54h1.24v0.96h-1.24v4.24c0,0.35,0.02,0.58,0.06,0.68
		c0.04,0.1,0.11,0.18,0.21,0.24c0.1,0.06,0.24,0.09,0.42,0.09C24.71,308.77,24.89,308.75,25.11,308.72z"/>
	<path class="st3" d="M26.31,309.82V299.8h1.23v3.6c0.57-0.67,1.3-1,2.17-1c0.54,0,1,0.11,1.4,0.32c0.4,0.21,0.68,0.5,0.85,0.88
		c0.17,0.37,0.26,0.92,0.26,1.63v4.6H31v-4.6c0-0.62-0.13-1.06-0.4-1.34c-0.27-0.28-0.64-0.42-1.13-0.42c-0.36,0-0.71,0.1-1.03,0.28
		s-0.55,0.45-0.69,0.77c-0.14,0.32-0.21,0.77-0.21,1.34v3.97h-1.23V309.82z"/>
	<path class="st3" d="M34.08,309.82v-7.26h1.11v1.1c0.28-0.51,0.54-0.85,0.78-1.02s0.5-0.25,0.79-0.25c0.41,0,0.84,0.13,1.26,0.4
		l-0.42,1.14c-0.3-0.18-0.6-0.27-0.9-0.27c-0.27,0-0.51,0.08-0.72,0.24c-0.21,0.16-0.37,0.39-0.46,0.67
		c-0.14,0.44-0.21,0.92-0.21,1.44v3.8h-1.23V309.82z"/>
	<path class="st3" d="M43.73,307.49l1.27,0.16c-0.2,0.74-0.57,1.32-1.11,1.73S42.66,310,41.81,310c-1.06,0-1.9-0.33-2.53-0.98
		c-0.63-0.65-0.93-1.57-0.93-2.75c0-1.22,0.31-2.17,0.94-2.84c0.63-0.67,1.44-1.01,2.45-1.01c0.97,0,1.76,0.33,2.38,0.99
		c0.62,0.66,0.92,1.59,0.92,2.79c0,0.07,0,0.18-0.01,0.33h-5.41c0.05,0.8,0.27,1.41,0.68,1.83s0.91,0.64,1.52,0.64
		c0.45,0,0.84-0.12,1.16-0.36C43.29,308.38,43.54,308.01,43.73,307.49z M39.69,305.5h4.05c-0.05-0.61-0.21-1.07-0.46-1.37
		c-0.39-0.47-0.9-0.71-1.52-0.71c-0.56,0-1.04,0.19-1.43,0.57C39.94,304.36,39.73,304.86,39.69,305.5z"/>
	<path class="st3" d="M51.28,308.93c-0.46,0.39-0.89,0.66-1.32,0.82c-0.42,0.16-0.87,0.24-1.36,0.24c-0.8,0-1.41-0.2-1.84-0.58
		s-0.64-0.89-0.64-1.49c0-0.36,0.08-0.68,0.24-0.97c0.16-0.29,0.37-0.53,0.64-0.71s0.56-0.31,0.89-0.4
		c0.24-0.06,0.61-0.13,1.09-0.18c0.99-0.12,1.73-0.26,2.19-0.42c0-0.17,0.01-0.28,0.01-0.32c0-0.5-0.12-0.85-0.35-1.06
		c-0.31-0.28-0.78-0.42-1.4-0.42c-0.58,0-1.01,0.1-1.28,0.3c-0.27,0.2-0.48,0.56-0.61,1.08l-1.2-0.16c0.11-0.51,0.29-0.93,0.54-1.25
		s0.61-0.56,1.09-0.73c0.48-0.17,1.02-0.26,1.65-0.26c0.62,0,1.12,0.07,1.51,0.22s0.67,0.33,0.85,0.55c0.18,0.22,0.31,0.5,0.38,0.84
		c0.04,0.21,0.06,0.59,0.06,1.13v1.64c0,1.14,0.03,1.87,0.08,2.17c0.05,0.3,0.16,0.59,0.31,0.87h-1.29
		C51.4,309.57,51.32,309.27,51.28,308.93z M51.18,306.18c-0.45,0.18-1.12,0.34-2.01,0.46c-0.51,0.07-0.86,0.16-1.07,0.25
		c-0.21,0.09-0.37,0.22-0.49,0.4s-0.17,0.37-0.17,0.58c0,0.33,0.12,0.6,0.37,0.82s0.61,0.33,1.09,0.33c0.47,0,0.9-0.1,1.26-0.31
		c0.36-0.21,0.64-0.49,0.81-0.85c0.13-0.28,0.2-0.69,0.2-1.23L51.18,306.18L51.18,306.18z"/>
	<path class="st3" d="M57.02,308.72l0.18,1.09c-0.35,0.07-0.66,0.11-0.93,0.11c-0.45,0-0.79-0.07-1.04-0.21s-0.42-0.33-0.52-0.56
		s-0.15-0.71-0.15-1.45v-4.18h-0.9v-0.96h0.9v-1.8l1.22-0.74v2.54h1.24v0.96h-1.24v4.24c0,0.35,0.02,0.58,0.06,0.68
		c0.04,0.1,0.11,0.18,0.21,0.24s0.24,0.09,0.42,0.09C56.62,308.77,56.8,308.75,57.02,308.72z"/>
	<path class="st3" d="M66.85,308.93c-0.46,0.39-0.89,0.66-1.32,0.82c-0.42,0.16-0.87,0.24-1.36,0.24c-0.8,0-1.41-0.2-1.84-0.58
		s-0.64-0.89-0.64-1.49c0-0.36,0.08-0.68,0.24-0.97c0.16-0.29,0.37-0.53,0.64-0.71s0.56-0.31,0.89-0.4
		c0.24-0.06,0.61-0.13,1.09-0.18c0.99-0.12,1.73-0.26,2.19-0.42c0-0.17,0.01-0.28,0.01-0.32c0-0.5-0.12-0.85-0.35-1.06
		c-0.31-0.28-0.78-0.42-1.4-0.42c-0.58,0-1.01,0.1-1.28,0.3c-0.27,0.2-0.48,0.56-0.61,1.08l-1.2-0.16c0.11-0.51,0.29-0.93,0.54-1.25
		s0.61-0.56,1.09-0.73c0.48-0.17,1.02-0.26,1.65-0.26c0.62,0,1.12,0.07,1.51,0.22s0.67,0.33,0.85,0.55c0.18,0.22,0.31,0.5,0.38,0.84
		c0.04,0.21,0.06,0.59,0.06,1.13v1.64c0,1.14,0.03,1.87,0.08,2.17c0.05,0.3,0.16,0.59,0.31,0.87H67.1
		C66.97,309.57,66.89,309.27,66.85,308.93z M66.75,306.18c-0.45,0.18-1.12,0.34-2.01,0.46c-0.51,0.07-0.86,0.16-1.07,0.25
		c-0.21,0.09-0.37,0.22-0.49,0.4s-0.17,0.37-0.17,0.58c0,0.33,0.12,0.6,0.37,0.82s0.61,0.33,1.09,0.33c0.47,0,0.9-0.1,1.26-0.31
		c0.36-0.21,0.64-0.49,0.81-0.85c0.13-0.28,0.2-0.69,0.2-1.23L66.75,306.18L66.75,306.18z"/>
	<path class="st3" d="M69.9,309.82v-7.26h1.11v1.03c0.53-0.8,1.3-1.2,2.31-1.2c0.44,0,0.84,0.08,1.21,0.24
		c0.37,0.16,0.64,0.36,0.82,0.62c0.18,0.26,0.31,0.56,0.38,0.91c0.05,0.23,0.07,0.63,0.07,1.2v4.46h-1.23v-4.42
		c0-0.5-0.05-0.88-0.14-1.13s-0.27-0.45-0.51-0.59c-0.24-0.14-0.53-0.22-0.86-0.22c-0.52,0-0.98,0.17-1.36,0.5
		c-0.38,0.33-0.57,0.96-0.57,1.89v3.96L69.9,309.82L69.9,309.82z"/>
	<path class="st3" d="M82.39,309.82v-0.92c-0.46,0.72-1.14,1.08-2.03,1.08c-0.58,0-1.11-0.16-1.6-0.48s-0.86-0.77-1.13-1.34
		c-0.27-0.57-0.4-1.23-0.4-1.97c0-0.72,0.12-1.38,0.36-1.97c0.24-0.59,0.6-1.04,1.09-1.36s1.02-0.47,1.62-0.47
		c0.44,0,0.83,0.09,1.17,0.28s0.62,0.42,0.83,0.72v-3.6h1.22v10.02h-1.13V309.82z M78.5,306.2c0,0.93,0.2,1.62,0.59,2.08
		s0.85,0.69,1.39,0.69s0.99-0.22,1.37-0.66s0.56-1.11,0.56-2.01c0-0.99-0.19-1.72-0.57-2.19c-0.38-0.47-0.85-0.7-1.42-0.7
		c-0.55,0-1,0.22-1.37,0.67C78.69,304.54,78.5,305.24,78.5,306.2z"/>
	<path class="st3" d="M89.37,301.22v-1.41h1.23v1.41H89.37z M89.37,309.82v-7.26h1.23v7.26H89.37z"/>
	<path class="st3" d="M91.98,307.66l1.22-0.19c0.07,0.49,0.26,0.86,0.57,1.12s0.75,0.39,1.31,0.39s0.98-0.12,1.26-0.35
		c0.28-0.23,0.41-0.5,0.41-0.81c0-0.28-0.12-0.5-0.36-0.66c-0.17-0.11-0.59-0.25-1.26-0.42c-0.9-0.23-1.53-0.43-1.88-0.59
		s-0.61-0.4-0.79-0.69s-0.27-0.62-0.27-0.97c0-0.32,0.07-0.62,0.22-0.9s0.35-0.5,0.6-0.69c0.19-0.14,0.45-0.26,0.78-0.36
		c0.33-0.1,0.68-0.15,1.06-0.15c0.57,0,1.07,0.08,1.5,0.25c0.43,0.17,0.75,0.39,0.95,0.67s0.35,0.66,0.42,1.13l-1.2,0.16
		c-0.05-0.37-0.21-0.67-0.48-0.88c-0.26-0.21-0.63-0.31-1.11-0.31c-0.56,0-0.97,0.09-1.21,0.28s-0.36,0.41-0.36,0.66
		c0,0.16,0.05,0.3,0.15,0.43c0.1,0.13,0.26,0.24,0.47,0.33c0.12,0.04,0.49,0.15,1.09,0.31c0.87,0.23,1.48,0.42,1.82,0.57
		c0.34,0.15,0.61,0.36,0.81,0.65c0.2,0.28,0.29,0.63,0.29,1.05c0,0.41-0.12,0.8-0.36,1.16s-0.58,0.64-1.04,0.84s-0.96,0.3-1.53,0.3
		c-0.94,0-1.66-0.2-2.16-0.59C92.43,309.01,92.12,308.43,91.98,307.66z"/>
	<path class="st3" d="M98.98,307.66l1.22-0.19c0.07,0.49,0.26,0.86,0.57,1.12s0.75,0.39,1.31,0.39s0.98-0.12,1.26-0.35
		c0.28-0.23,0.41-0.5,0.41-0.81c0-0.28-0.12-0.5-0.36-0.66c-0.17-0.11-0.59-0.25-1.26-0.42c-0.9-0.23-1.53-0.43-1.88-0.59
		s-0.61-0.4-0.79-0.69s-0.27-0.62-0.27-0.97c0-0.32,0.07-0.62,0.22-0.9s0.35-0.5,0.6-0.69c0.19-0.14,0.45-0.26,0.78-0.36
		c0.33-0.1,0.68-0.15,1.06-0.15c0.57,0,1.07,0.08,1.5,0.25c0.43,0.17,0.75,0.39,0.95,0.67s0.35,0.66,0.42,1.13l-1.2,0.16
		c-0.05-0.37-0.21-0.67-0.48-0.88c-0.26-0.21-0.63-0.31-1.11-0.31c-0.56,0-0.97,0.09-1.21,0.28s-0.36,0.41-0.36,0.66
		c0,0.16,0.05,0.3,0.15,0.43c0.1,0.13,0.26,0.24,0.47,0.33c0.12,0.04,0.49,0.15,1.09,0.31c0.87,0.23,1.48,0.42,1.82,0.57
		c0.34,0.15,0.61,0.36,0.81,0.65c0.2,0.28,0.29,0.63,0.29,1.05c0,0.41-0.12,0.8-0.36,1.16s-0.58,0.64-1.04,0.84s-0.96,0.3-1.53,0.3
		c-0.94,0-1.66-0.2-2.16-0.59C99.43,309.01,99.12,308.43,98.98,307.66z"/>
	<path class="st3" d="M111.23,309.82v-1.07c-0.56,0.82-1.33,1.23-2.3,1.23c-0.43,0-0.83-0.08-1.2-0.25
		c-0.37-0.17-0.65-0.37-0.83-0.62s-0.31-0.55-0.38-0.91c-0.05-0.24-0.08-0.63-0.08-1.15v-4.5h1.23v4.03c0,0.64,0.02,1.08,0.08,1.3
		c0.08,0.32,0.24,0.58,0.49,0.76s0.56,0.28,0.93,0.28s0.72-0.09,1.04-0.28s0.55-0.45,0.69-0.77s0.2-0.8,0.2-1.42v-3.89h1.23v7.26
		H111.23L111.23,309.82z"/>
	<path class="st3" d="M119.23,307.49l1.27,0.16c-0.2,0.74-0.57,1.32-1.11,1.73s-1.23,0.62-2.08,0.62c-1.06,0-1.9-0.33-2.53-0.98
		c-0.63-0.65-0.93-1.57-0.93-2.75c0-1.22,0.31-2.17,0.94-2.84c0.63-0.67,1.44-1.01,2.45-1.01c0.97,0,1.76,0.33,2.38,0.99
		c0.62,0.66,0.92,1.59,0.92,2.79c0,0.07,0,0.18-0.01,0.33h-5.41c0.05,0.8,0.27,1.41,0.68,1.83s0.91,0.64,1.52,0.64
		c0.45,0,0.84-0.12,1.16-0.36C118.79,308.38,119.04,308.01,119.23,307.49z M115.19,305.5h4.05c-0.05-0.61-0.21-1.07-0.46-1.37
		c-0.39-0.47-0.9-0.71-1.52-0.71c-0.56,0-1.04,0.19-1.43,0.57C115.44,304.36,115.23,304.86,115.19,305.5z"/>
	<path class="st3" d="M121.55,307.66l1.22-0.19c0.07,0.49,0.26,0.86,0.57,1.12s0.75,0.39,1.31,0.39s0.98-0.12,1.26-0.35
		c0.28-0.23,0.41-0.5,0.41-0.81c0-0.28-0.12-0.5-0.36-0.66c-0.17-0.11-0.59-0.25-1.26-0.42c-0.9-0.23-1.53-0.43-1.88-0.59
		s-0.61-0.4-0.79-0.69s-0.27-0.62-0.27-0.97c0-0.32,0.07-0.62,0.22-0.9s0.35-0.5,0.6-0.69c0.19-0.14,0.45-0.26,0.78-0.36
		c0.33-0.1,0.68-0.15,1.06-0.15c0.57,0,1.07,0.08,1.5,0.25c0.43,0.17,0.75,0.39,0.95,0.67s0.35,0.66,0.42,1.13l-1.2,0.16
		c-0.05-0.37-0.21-0.67-0.48-0.88c-0.26-0.21-0.63-0.31-1.11-0.31c-0.56,0-0.97,0.09-1.21,0.28s-0.36,0.41-0.36,0.66
		c0,0.16,0.05,0.3,0.15,0.43c0.1,0.13,0.26,0.24,0.47,0.33c0.12,0.04,0.49,0.15,1.09,0.31c0.87,0.23,1.48,0.42,1.82,0.57
		c0.34,0.15,0.61,0.36,0.81,0.65c0.2,0.28,0.29,0.63,0.29,1.05c0,0.41-0.12,0.8-0.36,1.16s-0.58,0.64-1.04,0.84s-0.96,0.3-1.53,0.3
		c-0.94,0-1.66-0.2-2.16-0.59C122,309.01,121.69,308.43,121.55,307.66z"/>
	<path class="st3" d="M137.67,308.93c-0.46,0.39-0.89,0.66-1.32,0.82c-0.42,0.16-0.87,0.24-1.36,0.24c-0.8,0-1.41-0.2-1.84-0.58
		s-0.64-0.89-0.64-1.49c0-0.36,0.08-0.68,0.24-0.97c0.16-0.29,0.37-0.53,0.64-0.71s0.56-0.31,0.89-0.4
		c0.24-0.06,0.61-0.13,1.09-0.18c0.99-0.12,1.73-0.26,2.19-0.42c0-0.17,0.01-0.28,0.01-0.32c0-0.5-0.12-0.85-0.35-1.06
		c-0.31-0.28-0.78-0.42-1.4-0.42c-0.58,0-1.01,0.1-1.28,0.3c-0.27,0.2-0.48,0.56-0.61,1.08l-1.2-0.16c0.11-0.51,0.29-0.93,0.54-1.25
		s0.61-0.56,1.09-0.73c0.48-0.17,1.02-0.26,1.65-0.26c0.62,0,1.12,0.07,1.51,0.22s0.67,0.33,0.85,0.55c0.18,0.22,0.31,0.5,0.38,0.84
		c0.04,0.21,0.06,0.59,0.06,1.13v1.64c0,1.14,0.03,1.87,0.08,2.17c0.05,0.3,0.16,0.59,0.31,0.87h-1.29
		C137.79,309.57,137.71,309.27,137.67,308.93z M137.57,306.18c-0.45,0.18-1.12,0.34-2.01,0.46c-0.51,0.07-0.86,0.16-1.07,0.25
		c-0.21,0.09-0.37,0.22-0.49,0.4s-0.17,0.37-0.17,0.58c0,0.33,0.12,0.6,0.37,0.82s0.61,0.33,1.09,0.33c0.47,0,0.9-0.1,1.26-0.31
		c0.36-0.21,0.64-0.49,0.81-0.85c0.13-0.28,0.2-0.69,0.2-1.23v-0.45H137.57z"/>
	<path class="st3" d="M22.43,320.15l-0.31-1.87v-1.67h1.4v1.67l-0.33,1.87H22.43z"/>
	<path class="st3" d="M29.81,326.62v-0.92c-0.46,0.72-1.14,1.08-2.03,1.08c-0.58,0-1.11-0.16-1.6-0.48
		c-0.49-0.32-0.86-0.76-1.13-1.34c-0.27-0.57-0.4-1.23-0.4-1.97c0-0.72,0.12-1.38,0.36-1.97c0.24-0.59,0.6-1.04,1.09-1.36
		s1.02-0.47,1.62-0.47c0.44,0,0.83,0.09,1.17,0.28s0.62,0.43,0.83,0.72v-3.6h1.22v10.02h-1.13V326.62z M25.92,323
		c0,0.93,0.2,1.62,0.59,2.08c0.39,0.46,0.85,0.69,1.39,0.69c0.54,0,0.99-0.22,1.37-0.66c0.38-0.44,0.56-1.11,0.56-2.01
		c0-0.99-0.19-1.72-0.57-2.19s-0.85-0.7-1.42-0.7c-0.55,0-1,0.22-1.37,0.67S25.92,322.04,25.92,323z"/>
	<path class="st3" d="M37.85,324.29l1.27,0.16c-0.2,0.74-0.57,1.32-1.11,1.73s-1.23,0.62-2.08,0.62c-1.06,0-1.9-0.33-2.53-0.98
		c-0.62-0.65-0.93-1.57-0.93-2.75c0-1.22,0.31-2.17,0.94-2.84c0.63-0.67,1.44-1.01,2.45-1.01c0.97,0,1.76,0.33,2.38,0.99
		c0.62,0.66,0.92,1.59,0.92,2.79c0,0.07,0,0.18-0.01,0.33h-5.41c0.05,0.8,0.27,1.41,0.68,1.83s0.91,0.64,1.52,0.64
		c0.45,0,0.84-0.12,1.16-0.36S37.66,324.81,37.85,324.29z M33.81,322.3h4.05c-0.05-0.61-0.21-1.07-0.46-1.37
		c-0.39-0.47-0.9-0.71-1.52-0.71c-0.56,0-1.04,0.19-1.43,0.57S33.85,321.66,33.81,322.3z"/>
	<path class="st3" d="M40.18,324.46l1.22-0.19c0.07,0.49,0.26,0.86,0.57,1.12c0.31,0.26,0.75,0.39,1.31,0.39
		c0.56,0,0.98-0.12,1.26-0.34c0.27-0.23,0.41-0.5,0.41-0.81c0-0.28-0.12-0.5-0.36-0.66c-0.17-0.11-0.59-0.25-1.26-0.42
		c-0.9-0.23-1.53-0.42-1.88-0.59c-0.35-0.17-0.61-0.4-0.79-0.69c-0.18-0.29-0.27-0.62-0.27-0.97c0-0.32,0.07-0.62,0.22-0.9
		c0.15-0.28,0.35-0.5,0.6-0.69c0.19-0.14,0.45-0.26,0.78-0.36s0.68-0.15,1.06-0.15c0.57,0,1.07,0.08,1.5,0.25s0.75,0.39,0.95,0.67
		c0.21,0.28,0.35,0.65,0.42,1.12l-1.2,0.16c-0.05-0.37-0.21-0.67-0.48-0.88c-0.27-0.21-0.63-0.31-1.11-0.31
		c-0.56,0-0.97,0.09-1.21,0.28s-0.36,0.41-0.36,0.66c0,0.16,0.05,0.3,0.15,0.43c0.1,0.13,0.26,0.24,0.47,0.33
		c0.12,0.05,0.49,0.15,1.09,0.31c0.87,0.23,1.48,0.42,1.82,0.57s0.61,0.36,0.81,0.65s0.29,0.63,0.29,1.05c0,0.41-0.12,0.8-0.36,1.16
		c-0.24,0.36-0.58,0.64-1.04,0.84c-0.45,0.2-0.96,0.3-1.53,0.3c-0.94,0-1.66-0.2-2.16-0.59S40.31,325.23,40.18,324.46z"/>
	<path class="st3" d="M52.41,323.96l1.21,0.16c-0.13,0.83-0.47,1.49-1.02,1.96c-0.54,0.47-1.21,0.71-2.01,0.71
		c-0.99,0-1.79-0.33-2.4-0.97c-0.6-0.65-0.91-1.58-0.91-2.79c0-0.78,0.13-1.47,0.39-2.06s0.66-1.03,1.19-1.32
		c0.53-0.29,1.11-0.44,1.73-0.44c0.79,0,1.43,0.2,1.93,0.6s0.82,0.96,0.96,1.7l-1.2,0.18c-0.11-0.49-0.32-0.85-0.6-1.1
		s-0.64-0.37-1.05-0.37c-0.62,0-1.12,0.22-1.51,0.67c-0.39,0.44-0.58,1.15-0.58,2.11c0,0.98,0.19,1.68,0.56,2.13
		s0.86,0.66,1.46,0.66c0.48,0,0.89-0.15,1.21-0.44C52.09,325.06,52.32,324.58,52.41,323.96z"/>
	<path class="st3" d="M59.64,324.29l1.27,0.16c-0.2,0.74-0.57,1.32-1.11,1.73s-1.23,0.62-2.08,0.62c-1.06,0-1.9-0.33-2.53-0.98
		c-0.62-0.65-0.93-1.57-0.93-2.75c0-1.22,0.31-2.17,0.94-2.84c0.63-0.67,1.44-1.01,2.45-1.01c0.97,0,1.76,0.33,2.38,0.99
		c0.62,0.66,0.92,1.59,0.92,2.79c0,0.07,0,0.18-0.01,0.33h-5.41c0.05,0.8,0.27,1.41,0.68,1.83s0.91,0.64,1.52,0.64
		c0.45,0,0.84-0.12,1.16-0.36S59.45,324.81,59.64,324.29z M55.6,322.3h4.05c-0.05-0.61-0.21-1.07-0.46-1.37
		c-0.39-0.47-0.9-0.71-1.52-0.71c-0.56,0-1.04,0.19-1.43,0.57S55.64,321.66,55.6,322.3z"/>
	<path class="st3" d="M62.45,326.62v-7.26h1.11v1.03c0.53-0.8,1.3-1.2,2.31-1.2c0.44,0,0.84,0.08,1.21,0.24
		c0.37,0.16,0.64,0.36,0.82,0.62c0.18,0.26,0.31,0.56,0.38,0.91c0.05,0.23,0.07,0.63,0.07,1.2v4.46h-1.23v-4.42
		c0-0.5-0.05-0.88-0.14-1.12c-0.1-0.25-0.27-0.45-0.51-0.6c-0.24-0.15-0.53-0.22-0.86-0.22c-0.52,0-0.98,0.17-1.36,0.5
		c-0.38,0.33-0.57,0.96-0.57,1.89v3.96L62.45,326.62L62.45,326.62z"/>
	<path class="st3" d="M74.95,326.62v-0.92c-0.46,0.72-1.14,1.08-2.03,1.08c-0.58,0-1.11-0.16-1.6-0.48
		c-0.49-0.32-0.86-0.76-1.13-1.34c-0.27-0.57-0.4-1.23-0.4-1.97c0-0.72,0.12-1.38,0.36-1.97c0.24-0.59,0.6-1.04,1.09-1.36
		s1.02-0.47,1.62-0.47c0.44,0,0.83,0.09,1.17,0.28s0.62,0.43,0.83,0.72v-3.6h1.22v10.02h-1.13V326.62z M71.06,323
		c0,0.93,0.2,1.62,0.59,2.08c0.39,0.46,0.85,0.69,1.39,0.69s0.99-0.22,1.37-0.66c0.38-0.44,0.56-1.11,0.56-2.01
		c0-0.99-0.19-1.72-0.57-2.19s-0.85-0.7-1.42-0.7c-0.55,0-1,0.22-1.37,0.67C71.24,321.33,71.06,322.04,71.06,323z"/>
	<path class="st3" d="M78.03,320.15l-0.31-1.87v-1.67h1.4v1.67l-0.33,1.87H78.03z"/>
	<path class="st3" d="M84.77,326.62V316.6h4.44c0.89,0,1.57,0.09,2.04,0.27c0.46,0.18,0.84,0.5,1.11,0.95s0.42,0.96,0.42,1.51
		c0,0.71-0.23,1.31-0.69,1.8s-1.17,0.8-2.13,0.93c0.35,0.17,0.62,0.33,0.8,0.5c0.39,0.36,0.75,0.8,1.1,1.33l1.74,2.73h-1.67
		l-1.33-2.08c-0.39-0.6-0.71-1.06-0.96-1.38s-0.48-0.54-0.67-0.67s-0.4-0.22-0.6-0.27c-0.15-0.03-0.4-0.05-0.74-0.05h-1.54v4.45
		H84.77L84.77,326.62z M86.09,321.03h2.85c0.61,0,1.08-0.06,1.42-0.19s0.6-0.33,0.78-0.6c0.18-0.28,0.27-0.58,0.27-0.9
		c0-0.47-0.17-0.86-0.52-1.17s-0.89-0.46-1.63-0.46h-3.17V321.03z"/>
	<path class="st3" d="M93.76,326.62l3.85-10.02h1.43l4.1,10.02h-1.51l-1.17-3.04h-4.19l-1.1,3.04H93.76z M96.65,322.51h3.4
		L99,319.73c-0.32-0.84-0.56-1.54-0.71-2.08c-0.13,0.64-0.31,1.28-0.54,1.91L96.65,322.51z"/>
</g>
<g id="text6">
	<rect x="171.5" y="283" class="st1" width="125" height="49"/>
	<path class="st3" d="M178.55,291.84v1.18h-6.62c-0.01-0.3,0.04-0.58,0.14-0.85c0.17-0.45,0.44-0.9,0.81-1.33
		c0.37-0.43,0.91-0.94,1.61-1.52c1.09-0.89,1.83-1.6,2.21-2.12s0.57-1.01,0.57-1.48c0-0.49-0.17-0.9-0.52-1.23s-0.8-0.5-1.36-0.5
		c-0.59,0-1.07,0.18-1.42,0.53s-0.54,0.85-0.54,1.48l-1.26-0.13c0.09-0.94,0.41-1.66,0.98-2.16s1.32-0.74,2.28-0.74
		c0.96,0,1.72,0.27,2.28,0.8c0.56,0.53,0.84,1.19,0.84,1.98c0,0.4-0.08,0.79-0.25,1.18c-0.16,0.39-0.44,0.8-0.82,1.22
		c-0.38,0.43-1.01,1.02-1.9,1.76c-0.74,0.62-1.21,1.04-1.42,1.26s-0.38,0.44-0.52,0.67L178.55,291.84L178.55,291.84z"/>
	<path class="st3" d="M180.56,293.02v-1.4h1.4v1.4H180.56z"/>
	<path class="st3" d="M190.44,293.02v-8.84h-3.3V283h7.94v1.18h-3.32v8.84L190.44,293.02L190.44,293.02z"/>
	<path class="st3" d="M203.59,289.51l1.33,0.34c-0.28,1.09-0.78,1.92-1.5,2.49s-1.61,0.86-2.65,0.86c-1.08,0-1.96-0.22-2.64-0.66
		s-1.19-1.08-1.54-1.91c-0.35-0.83-0.53-1.73-0.53-2.69c0-1.04,0.2-1.95,0.6-2.73s0.97-1.37,1.7-1.77c0.73-0.4,1.55-0.6,2.43-0.6
		c1,0,1.85,0.25,2.53,0.77c0.68,0.51,1.16,1.23,1.43,2.15l-1.31,0.31c-0.23-0.73-0.57-1.26-1.01-1.59c-0.44-0.33-1-0.5-1.67-0.5
		c-0.77,0-1.41,0.18-1.93,0.55c-0.52,0.37-0.88,0.87-1.09,1.49s-0.31,1.26-0.31,1.92c0,0.85,0.12,1.6,0.37,2.23s0.63,1.11,1.16,1.42
		s1.09,0.47,1.7,0.47c0.74,0,1.37-0.21,1.89-0.64C203.06,290.99,203.41,290.35,203.59,289.51z"/>
	<path class="st3" d="M205.45,293.02L209.3,283h1.43l4.1,10.02h-1.51l-1.17-3.04h-4.19l-1.1,3.04H205.45z M208.35,288.91h3.4
		l-1.05-2.78c-0.32-0.84-0.56-1.54-0.71-2.08c-0.13,0.64-0.31,1.28-0.54,1.91L208.35,288.91z"/>
	<path class="st3" d="M215.44,289.8l1.25-0.11c0.06,0.5,0.2,0.91,0.41,1.23c0.21,0.32,0.55,0.58,1.01,0.78
		c0.46,0.2,0.97,0.3,1.54,0.3c0.51,0,0.95-0.08,1.34-0.23c0.39-0.15,0.68-0.36,0.86-0.62c0.18-0.26,0.28-0.55,0.28-0.86
		s-0.09-0.59-0.27-0.82s-0.48-0.43-0.9-0.59c-0.27-0.11-0.86-0.27-1.78-0.49c-0.92-0.22-1.57-0.43-1.93-0.63
		c-0.48-0.25-0.83-0.56-1.07-0.93s-0.35-0.79-0.35-1.25c0-0.51,0.14-0.98,0.43-1.42s0.71-0.77,1.26-1c0.55-0.23,1.16-0.34,1.84-0.34
		c0.74,0,1.4,0.12,1.97,0.36c0.57,0.24,1,0.59,1.31,1.06c0.31,0.47,0.47,0.99,0.49,1.58l-1.27,0.1c-0.07-0.63-0.3-1.11-0.69-1.44
		c-0.39-0.32-0.98-0.49-1.75-0.49c-0.8,0-1.39,0.15-1.75,0.44c-0.36,0.29-0.55,0.65-0.55,1.06c0,0.36,0.13,0.66,0.39,0.89
		s0.92,0.47,2,0.71c1.08,0.24,1.82,0.46,2.22,0.64c0.58,0.27,1.01,0.61,1.29,1.02c0.28,0.41,0.42,0.89,0.42,1.42
		s-0.15,1.04-0.46,1.51c-0.31,0.47-0.74,0.84-1.32,1.1s-1.22,0.39-1.93,0.39c-0.91,0-1.67-0.13-2.28-0.4
		c-0.61-0.26-1.09-0.66-1.44-1.19S215.46,290.47,215.44,289.8z"/>
	<path class="st3" d="M228.95,293.02v-7.26h1.11v1.1c0.28-0.52,0.54-0.86,0.78-1.02c0.24-0.16,0.5-0.25,0.79-0.25
		c0.41,0,0.84,0.13,1.26,0.4l-0.42,1.14c-0.3-0.18-0.6-0.27-0.9-0.27c-0.27,0-0.51,0.08-0.72,0.24s-0.37,0.39-0.46,0.67
		c-0.14,0.44-0.21,0.92-0.21,1.44v3.8h-1.23V293.02z"/>
	<path class="st3" d="M238.59,290.69l1.27,0.16c-0.2,0.74-0.57,1.32-1.11,1.73c-0.54,0.41-1.23,0.62-2.08,0.62
		c-1.06,0-1.9-0.33-2.53-0.98s-0.93-1.57-0.93-2.75c0-1.22,0.31-2.17,0.94-2.84s1.44-1.01,2.45-1.01c0.97,0,1.76,0.33,2.38,0.99
		c0.62,0.66,0.92,1.59,0.92,2.79c0,0.07,0,0.18-0.01,0.33h-5.41c0.05,0.8,0.27,1.41,0.68,1.83c0.41,0.42,0.91,0.63,1.52,0.63
		c0.45,0,0.84-0.12,1.16-0.36C238.15,291.58,238.41,291.21,238.59,290.69z M234.55,288.7h4.05c-0.05-0.61-0.21-1.07-0.46-1.38
		c-0.39-0.47-0.9-0.71-1.52-0.71c-0.56,0-1.04,0.19-1.43,0.57C234.81,287.56,234.6,288.06,234.55,288.7z"/>
	<path class="st3" d="M246.12,293.02v-0.92c-0.46,0.72-1.14,1.08-2.03,1.08c-0.58,0-1.11-0.16-1.6-0.48s-0.86-0.76-1.13-1.34
		s-0.4-1.23-0.4-1.97c0-0.72,0.12-1.38,0.36-1.97s0.6-1.04,1.09-1.36s1.02-0.47,1.62-0.47c0.44,0,0.83,0.09,1.17,0.28
		s0.62,0.42,0.83,0.72V283h1.22v10.02H246.12z M242.23,289.4c0,0.93,0.2,1.63,0.59,2.09c0.39,0.46,0.85,0.69,1.39,0.69
		s0.99-0.22,1.37-0.66s0.56-1.11,0.56-2.01c0-0.99-0.19-1.72-0.57-2.19c-0.38-0.47-0.85-0.7-1.42-0.7c-0.55,0-1,0.22-1.37,0.67
		C242.42,287.74,242.23,288.44,242.23,289.4z"/>
	<path class="st3" d="M253.96,293.02v-1.07c-0.56,0.82-1.33,1.23-2.3,1.23c-0.43,0-0.83-0.08-1.2-0.25s-0.65-0.37-0.83-0.62
		s-0.31-0.55-0.38-0.91c-0.05-0.24-0.08-0.62-0.08-1.15v-4.5h1.23v4.03c0,0.64,0.02,1.08,0.08,1.3c0.08,0.32,0.24,0.58,0.49,0.76
		s0.56,0.28,0.93,0.28s0.72-0.1,1.04-0.28s0.55-0.45,0.69-0.77s0.2-0.8,0.2-1.42v-3.89h1.23v7.26L253.96,293.02L253.96,293.02z"/>
	<path class="st3" d="M261.72,290.37l1.21,0.16c-0.13,0.83-0.47,1.49-1.01,1.96c-0.54,0.47-1.21,0.71-2.01,0.71
		c-0.99,0-1.79-0.32-2.4-0.97c-0.61-0.65-0.91-1.58-0.91-2.79c0-0.78,0.13-1.47,0.39-2.06c0.26-0.59,0.66-1.03,1.19-1.32
		c0.53-0.29,1.11-0.44,1.73-0.44c0.79,0,1.43,0.2,1.93,0.6c0.5,0.4,0.82,0.96,0.96,1.7l-1.2,0.19c-0.11-0.49-0.32-0.86-0.6-1.1
		c-0.29-0.25-0.64-0.37-1.05-0.37c-0.62,0-1.12,0.22-1.51,0.67c-0.39,0.45-0.58,1.15-0.58,2.11c0,0.98,0.19,1.68,0.56,2.13
		c0.37,0.44,0.86,0.66,1.46,0.66c0.48,0,0.89-0.15,1.21-0.44C261.43,291.44,261.63,290.98,261.72,290.37z"/>
	<path class="st3" d="M268.95,290.69l1.27,0.16c-0.2,0.74-0.57,1.32-1.11,1.73c-0.54,0.41-1.24,0.62-2.08,0.62
		c-1.06,0-1.9-0.33-2.53-0.98c-0.62-0.65-0.93-1.57-0.93-2.75c0-1.22,0.31-2.17,0.94-2.84s1.44-1.01,2.45-1.01
		c0.97,0,1.76,0.33,2.38,0.99s0.92,1.59,0.92,2.79c0,0.07,0,0.18-0.01,0.33h-5.41c0.05,0.8,0.27,1.41,0.68,1.83
		c0.41,0.42,0.91,0.63,1.52,0.63c0.45,0,0.84-0.12,1.16-0.36C268.51,291.58,268.77,291.21,268.95,290.69z M264.91,288.7h4.05
		c-0.05-0.61-0.21-1.07-0.46-1.38c-0.39-0.47-0.9-0.71-1.52-0.71c-0.57,0-1.04,0.19-1.42,0.57
		C265.17,287.56,264.95,288.06,264.91,288.7z"/>
	<path class="st3" d="M271.28,290.86l1.22-0.19c0.07,0.49,0.26,0.86,0.57,1.12c0.31,0.26,0.75,0.39,1.31,0.39
		c0.57,0,0.98-0.12,1.26-0.34s0.41-0.5,0.41-0.81c0-0.28-0.12-0.5-0.36-0.66c-0.17-0.11-0.59-0.25-1.26-0.42
		c-0.9-0.23-1.53-0.42-1.88-0.59c-0.35-0.17-0.61-0.4-0.79-0.69c-0.18-0.29-0.27-0.62-0.27-0.97c0-0.32,0.07-0.62,0.22-0.9
		c0.15-0.28,0.35-0.5,0.6-0.69c0.19-0.14,0.45-0.26,0.78-0.36s0.69-0.15,1.06-0.15c0.57,0,1.07,0.08,1.5,0.25
		c0.43,0.16,0.75,0.39,0.95,0.67c0.2,0.28,0.35,0.66,0.42,1.12l-1.2,0.16c-0.05-0.37-0.21-0.67-0.47-0.88
		c-0.26-0.21-0.63-0.31-1.11-0.31c-0.56,0-0.97,0.09-1.21,0.28s-0.36,0.41-0.36,0.66c0,0.16,0.05,0.3,0.15,0.43
		c0.1,0.13,0.26,0.24,0.47,0.33c0.12,0.05,0.49,0.15,1.09,0.31c0.87,0.23,1.48,0.42,1.82,0.57c0.34,0.15,0.61,0.36,0.81,0.65
		c0.2,0.28,0.29,0.63,0.29,1.05c0,0.41-0.12,0.8-0.36,1.16c-0.24,0.36-0.58,0.64-1.04,0.84c-0.46,0.2-0.96,0.3-1.53,0.3
		c-0.94,0-1.66-0.2-2.16-0.59C271.73,292.21,271.41,291.63,271.28,290.86z"/>
	<path class="st3" d="M175.11,308.72l0.18,1.09c-0.35,0.07-0.66,0.11-0.93,0.11c-0.45,0-0.79-0.07-1.04-0.21s-0.42-0.33-0.52-0.56
		s-0.15-0.71-0.15-1.45v-4.18h-0.9v-0.96h0.9v-1.8l1.22-0.74v2.54h1.24v0.96h-1.24v4.24c0,0.35,0.02,0.58,0.06,0.68
		c0.04,0.1,0.11,0.18,0.21,0.24s0.24,0.09,0.42,0.09C174.71,308.77,174.89,308.75,175.11,308.72z"/>
	<path class="st3" d="M176.31,309.82V299.8h1.23v3.6c0.57-0.67,1.3-1,2.17-1c0.54,0,1,0.11,1.4,0.32c0.4,0.21,0.68,0.5,0.85,0.88
		c0.17,0.37,0.26,0.92,0.26,1.63v4.6H181v-4.6c0-0.62-0.13-1.06-0.4-1.34c-0.27-0.28-0.64-0.42-1.13-0.42
		c-0.36,0-0.71,0.1-1.03,0.28s-0.55,0.45-0.69,0.77s-0.21,0.77-0.21,1.34v3.97h-1.23V309.82z"/>
	<path class="st3" d="M189.07,307.49l1.27,0.16c-0.2,0.74-0.57,1.32-1.11,1.73S188,310,187.15,310c-1.06,0-1.9-0.33-2.53-0.98
		c-0.63-0.65-0.93-1.57-0.93-2.75c0-1.22,0.31-2.17,0.94-2.84c0.63-0.67,1.44-1.01,2.45-1.01c0.97,0,1.76,0.33,2.38,0.99
		c0.62,0.66,0.92,1.59,0.92,2.79c0,0.07,0,0.18-0.01,0.33h-5.41c0.05,0.8,0.27,1.41,0.68,1.83s0.91,0.64,1.52,0.64
		c0.45,0,0.84-0.12,1.16-0.36C188.63,308.38,188.88,308.01,189.07,307.49z M185.03,305.5h4.05c-0.05-0.61-0.21-1.07-0.46-1.37
		c-0.39-0.47-0.9-0.71-1.52-0.71c-0.56,0-1.04,0.19-1.43,0.57C185.28,304.36,185.07,304.86,185.03,305.5z"/>
	<path class="st3" d="M195.28,307.66l1.22-0.19c0.07,0.49,0.26,0.86,0.57,1.12s0.75,0.39,1.31,0.39s0.98-0.12,1.26-0.35
		c0.28-0.23,0.41-0.5,0.41-0.81c0-0.28-0.12-0.5-0.36-0.66c-0.17-0.11-0.59-0.25-1.26-0.42c-0.9-0.23-1.53-0.43-1.88-0.59
		s-0.61-0.4-0.79-0.69s-0.27-0.62-0.27-0.97c0-0.32,0.07-0.62,0.22-0.9s0.35-0.5,0.6-0.69c0.19-0.14,0.45-0.26,0.78-0.36
		c0.33-0.1,0.68-0.15,1.06-0.15c0.57,0,1.07,0.08,1.5,0.25c0.43,0.17,0.75,0.39,0.95,0.67s0.35,0.66,0.42,1.13l-1.2,0.16
		c-0.05-0.37-0.21-0.67-0.48-0.88c-0.26-0.21-0.63-0.31-1.11-0.31c-0.56,0-0.97,0.09-1.21,0.28s-0.36,0.41-0.36,0.66
		c0,0.16,0.05,0.3,0.15,0.43c0.1,0.13,0.26,0.24,0.47,0.33c0.12,0.04,0.49,0.15,1.09,0.31c0.87,0.23,1.48,0.42,1.82,0.57
		c0.34,0.15,0.61,0.36,0.81,0.65c0.2,0.28,0.29,0.63,0.29,1.05c0,0.41-0.12,0.8-0.36,1.16s-0.58,0.64-1.04,0.84s-0.96,0.3-1.53,0.3
		c-0.94,0-1.66-0.2-2.16-0.59C195.73,309.01,195.42,308.43,195.28,307.66z"/>
	<path class="st3" d="M205.46,308.72l0.18,1.09c-0.35,0.07-0.66,0.11-0.93,0.11c-0.45,0-0.79-0.07-1.04-0.21s-0.42-0.33-0.52-0.56
		s-0.15-0.71-0.15-1.45v-4.18h-0.9v-0.96h0.9v-1.8l1.22-0.74v2.54h1.24v0.96h-1.24v4.24c0,0.35,0.02,0.58,0.06,0.68
		c0.04,0.1,0.11,0.18,0.21,0.24s0.24,0.09,0.42,0.09C205.06,308.77,205.24,308.75,205.46,308.72z"/>
	<path class="st3" d="M206.65,309.82v-7.26h1.11v1.1c0.28-0.51,0.54-0.85,0.78-1.02s0.5-0.25,0.79-0.25c0.41,0,0.84,0.13,1.26,0.4
		l-0.42,1.14c-0.3-0.18-0.6-0.27-0.9-0.27c-0.27,0-0.51,0.08-0.72,0.24c-0.21,0.16-0.37,0.39-0.46,0.67
		c-0.14,0.44-0.21,0.92-0.21,1.44v3.8h-1.23V309.82z"/>
	<path class="st3" d="M216.3,307.49l1.27,0.16c-0.2,0.74-0.57,1.32-1.11,1.73s-1.23,0.62-2.08,0.62c-1.06,0-1.9-0.33-2.53-0.98
		c-0.63-0.65-0.93-1.57-0.93-2.75c0-1.22,0.31-2.17,0.94-2.84c0.63-0.67,1.44-1.01,2.45-1.01c0.97,0,1.76,0.33,2.38,0.99
		c0.62,0.66,0.92,1.59,0.92,2.79c0,0.07,0,0.18-0.01,0.33h-5.41c0.05,0.8,0.27,1.41,0.68,1.83s0.91,0.64,1.52,0.64
		c0.45,0,0.84-0.12,1.16-0.36C215.86,308.38,216.11,308.01,216.3,307.49z M212.26,305.5h4.05c-0.05-0.61-0.21-1.07-0.46-1.37
		c-0.39-0.47-0.9-0.71-1.52-0.71c-0.56,0-1.04,0.19-1.43,0.57C212.51,304.36,212.3,304.86,212.26,305.5z"/>
	<path class="st3" d="M219.11,309.82v-7.26h1.11v1.03c0.53-0.8,1.3-1.2,2.31-1.2c0.44,0,0.84,0.08,1.21,0.24
		c0.37,0.16,0.64,0.36,0.82,0.62c0.18,0.26,0.31,0.56,0.38,0.91c0.05,0.23,0.07,0.63,0.07,1.2v4.46h-1.23v-4.42
		c0-0.5-0.05-0.88-0.14-1.13s-0.27-0.45-0.51-0.59s-0.53-0.22-0.86-0.22c-0.52,0-0.98,0.17-1.36,0.5s-0.57,0.96-0.57,1.89v3.96
		L219.11,309.82L219.11,309.82z"/>
	<path class="st3" d="M226.67,310.43l1.2,0.18c0.05,0.37,0.19,0.64,0.42,0.81c0.31,0.23,0.72,0.34,1.25,0.34
		c0.57,0,1.01-0.11,1.32-0.34c0.31-0.23,0.52-0.55,0.63-0.96c0.06-0.25,0.09-0.78,0.09-1.58c-0.54,0.63-1.21,0.95-2.01,0.95
		c-1,0-1.77-0.36-2.32-1.08s-0.82-1.58-0.82-2.59c0-0.69,0.13-1.33,0.38-1.92c0.25-0.59,0.61-1.04,1.09-1.36s1.04-0.48,1.68-0.48
		c0.86,0,1.56,0.35,2.12,1.04v-0.88h1.13v6.28c0,1.13-0.12,1.93-0.35,2.4s-0.59,0.84-1.09,1.12s-1.11,0.41-1.84,0.41
		c-0.87,0-1.57-0.19-2.1-0.58C226.92,311.8,226.65,311.21,226.67,310.43z M227.69,306.06c0,0.95,0.19,1.65,0.57,2.08
		c0.38,0.43,0.85,0.66,1.42,0.66c0.56,0,1.04-0.22,1.42-0.65s0.57-1.12,0.57-2.05c0-0.89-0.2-1.56-0.59-2.01
		c-0.39-0.45-0.87-0.68-1.43-0.68c-0.55,0-1.01,0.22-1.39,0.67S227.69,305.19,227.69,306.06z"/>
	<path class="st3" d="M237.37,308.72l0.18,1.09c-0.35,0.07-0.66,0.11-0.93,0.11c-0.45,0-0.79-0.07-1.04-0.21s-0.42-0.33-0.52-0.56
		s-0.15-0.71-0.15-1.45v-4.18h-0.9v-0.96h0.9v-1.8l1.22-0.74v2.54h1.24v0.96h-1.24v4.24c0,0.35,0.02,0.58,0.06,0.68
		c0.04,0.1,0.11,0.18,0.21,0.24s0.24,0.09,0.42,0.09C236.97,308.77,237.15,308.75,237.37,308.72z"/>
	<path class="st3" d="M238.57,309.82V299.8h1.23v3.6c0.57-0.67,1.3-1,2.17-1c0.54,0,1,0.11,1.4,0.32c0.4,0.21,0.68,0.5,0.85,0.88
		c0.17,0.37,0.26,0.92,0.26,1.63v4.6h-1.23v-4.6c0-0.62-0.13-1.06-0.4-1.34c-0.27-0.28-0.64-0.42-1.13-0.42
		c-0.36,0-0.71,0.1-1.03,0.28s-0.55,0.45-0.69,0.77s-0.21,0.77-0.21,1.34v3.97h-1.22V309.82z"/>
	<path class="st3" d="M171.96,322.99c0-1.34,0.37-2.34,1.12-2.99c0.62-0.54,1.39-0.81,2.28-0.81c1,0,1.81,0.33,2.45,0.98
		c0.63,0.65,0.95,1.56,0.95,2.71c0,0.93-0.14,1.67-0.42,2.2c-0.28,0.54-0.69,0.95-1.22,1.25c-0.53,0.3-1.12,0.44-1.75,0.44
		c-1.02,0-1.84-0.33-2.46-0.98S171.96,324.22,171.96,322.99z M173.23,322.99c0,0.93,0.2,1.63,0.61,2.09
		c0.41,0.46,0.92,0.69,1.53,0.69s1.12-0.23,1.52-0.7s0.61-1.17,0.61-2.13c0-0.9-0.2-1.58-0.61-2.04c-0.41-0.46-0.92-0.69-1.52-0.69
		c-0.62,0-1.13,0.23-1.53,0.69C173.44,321.36,173.23,322.06,173.23,322.99z"/>
	<path class="st3" d="M180.5,326.62v-6.3h-1.09v-0.96h1.09v-0.77c0-0.49,0.04-0.85,0.13-1.09c0.12-0.32,0.33-0.58,0.63-0.78
		c0.3-0.2,0.72-0.3,1.25-0.3c0.35,0,0.73,0.04,1.15,0.12l-0.18,1.07c-0.26-0.05-0.5-0.07-0.72-0.07c-0.37,0-0.64,0.08-0.79,0.24
		c-0.15,0.16-0.23,0.46-0.23,0.9v0.67h1.42v0.96h-1.42v6.3h-1.24V326.62z"/>
	<path class="st3" d="M190.67,325.52l0.18,1.09c-0.35,0.07-0.66,0.11-0.93,0.11c-0.45,0-0.79-0.07-1.04-0.21
		c-0.25-0.14-0.42-0.33-0.52-0.56c-0.1-0.23-0.15-0.71-0.15-1.45v-4.18h-0.9v-0.96h0.9v-1.8l1.22-0.74v2.54h1.24v0.96h-1.24v4.25
		c0,0.35,0.02,0.58,0.06,0.68c0.04,0.1,0.11,0.18,0.21,0.24s0.24,0.09,0.42,0.09C190.27,325.57,190.45,325.55,190.67,325.52z"/>
	<path class="st3" d="M191.88,326.62V316.6h1.23v3.6c0.57-0.67,1.3-1,2.17-1c0.54,0,1,0.11,1.4,0.32s0.68,0.51,0.85,0.88
		s0.26,0.92,0.26,1.63v4.6h-1.23v-4.6c0-0.62-0.13-1.06-0.4-1.34c-0.27-0.28-0.64-0.42-1.13-0.42c-0.36,0-0.71,0.09-1.03,0.28
		c-0.32,0.19-0.55,0.45-0.69,0.77s-0.21,0.77-0.21,1.34v3.97h-1.22V326.62z"/>
	<path class="st3" d="M204.63,324.29l1.27,0.16c-0.2,0.74-0.57,1.32-1.11,1.73s-1.23,0.62-2.08,0.62c-1.06,0-1.9-0.33-2.53-0.98
		c-0.62-0.65-0.93-1.57-0.93-2.75c0-1.22,0.31-2.17,0.94-2.84c0.63-0.67,1.44-1.01,2.45-1.01c0.97,0,1.76,0.33,2.38,0.99
		c0.62,0.66,0.92,1.59,0.92,2.79c0,0.07,0,0.18-0.01,0.33h-5.41c0.05,0.8,0.27,1.41,0.68,1.83s0.91,0.64,1.52,0.64
		c0.45,0,0.84-0.12,1.16-0.36S204.45,324.81,204.63,324.29z M200.59,322.3h4.05c-0.05-0.61-0.21-1.07-0.46-1.37
		c-0.39-0.47-0.9-0.71-1.52-0.71c-0.56,0-1.04,0.19-1.43,0.57S200.63,321.66,200.59,322.3z"/>
	<path class="st3" d="M211.4,320.15l-0.34-1.91v-1.64h1.4v1.64l-0.31,1.91H211.4z M213.66,320.15l-0.33-1.91v-1.64h1.4v1.64
		l-0.33,1.91H213.66z"/>
	<path class="st3" d="M221.02,326.62v-0.92c-0.46,0.72-1.14,1.08-2.03,1.08c-0.58,0-1.11-0.16-1.6-0.48
		c-0.49-0.32-0.86-0.76-1.13-1.34c-0.27-0.57-0.4-1.23-0.4-1.97c0-0.72,0.12-1.38,0.36-1.97c0.24-0.59,0.6-1.04,1.09-1.36
		s1.02-0.47,1.62-0.47c0.44,0,0.83,0.09,1.17,0.28s0.62,0.43,0.83,0.72v-3.6h1.22v10.02h-1.13V326.62z M217.13,323
		c0,0.93,0.2,1.62,0.59,2.08c0.39,0.46,0.85,0.69,1.39,0.69s0.99-0.22,1.37-0.66c0.38-0.44,0.56-1.11,0.56-2.01
		c0-0.99-0.19-1.72-0.57-2.19s-0.85-0.7-1.42-0.7c-0.55,0-1,0.22-1.37,0.67S217.13,322.04,217.13,323z"/>
	<path class="st3" d="M229.07,324.29l1.27,0.16c-0.2,0.74-0.57,1.32-1.11,1.73s-1.23,0.62-2.08,0.62c-1.06,0-1.9-0.33-2.53-0.98
		c-0.62-0.65-0.93-1.57-0.93-2.75c0-1.22,0.31-2.17,0.94-2.84c0.63-0.67,1.44-1.01,2.45-1.01c0.97,0,1.76,0.33,2.38,0.99
		c0.62,0.66,0.92,1.59,0.92,2.79c0,0.07,0,0.18-0.01,0.33h-5.41c0.05,0.8,0.27,1.41,0.68,1.83s0.91,0.64,1.52,0.64
		c0.45,0,0.84-0.12,1.16-0.36S228.88,324.81,229.07,324.29z M225.03,322.3h4.05c-0.05-0.61-0.21-1.07-0.46-1.37
		c-0.39-0.47-0.9-0.71-1.52-0.71c-0.56,0-1.04,0.19-1.43,0.57S225.07,321.66,225.03,322.3z"/>
	<path class="st3" d="M231.39,324.46l1.22-0.19c0.07,0.49,0.26,0.86,0.57,1.12c0.31,0.26,0.75,0.39,1.31,0.39s0.98-0.12,1.26-0.34
		c0.27-0.23,0.41-0.5,0.41-0.81c0-0.28-0.12-0.5-0.36-0.66c-0.17-0.11-0.59-0.25-1.26-0.42c-0.9-0.23-1.53-0.42-1.88-0.59
		c-0.35-0.17-0.61-0.4-0.79-0.69c-0.18-0.29-0.27-0.62-0.27-0.97c0-0.32,0.07-0.62,0.22-0.9c0.15-0.28,0.35-0.5,0.6-0.69
		c0.19-0.14,0.45-0.26,0.78-0.36s0.68-0.15,1.06-0.15c0.57,0,1.07,0.08,1.5,0.25s0.75,0.39,0.95,0.67c0.21,0.28,0.35,0.65,0.42,1.12
		l-1.2,0.16c-0.05-0.37-0.21-0.67-0.48-0.88c-0.27-0.21-0.63-0.31-1.11-0.31c-0.56,0-0.97,0.09-1.21,0.28s-0.36,0.41-0.36,0.66
		c0,0.16,0.05,0.3,0.15,0.43c0.1,0.13,0.26,0.24,0.47,0.33c0.12,0.05,0.49,0.15,1.09,0.31c0.87,0.23,1.48,0.42,1.82,0.57
		c0.34,0.15,0.61,0.36,0.81,0.65s0.29,0.63,0.29,1.05c0,0.41-0.12,0.8-0.36,1.16c-0.24,0.36-0.58,0.64-1.04,0.84
		c-0.45,0.2-0.96,0.3-1.53,0.3c-0.94,0-1.66-0.2-2.16-0.59S231.53,325.23,231.39,324.46z"/>
	<path class="st3" d="M243.62,323.96l1.21,0.16c-0.13,0.83-0.47,1.49-1.02,1.96c-0.54,0.47-1.21,0.71-2.01,0.71
		c-0.99,0-1.79-0.33-2.4-0.97c-0.6-0.65-0.91-1.58-0.91-2.79c0-0.78,0.13-1.47,0.39-2.06s0.66-1.03,1.19-1.32
		c0.53-0.29,1.11-0.44,1.73-0.44c0.79,0,1.43,0.2,1.93,0.6s0.82,0.96,0.96,1.7l-1.2,0.18c-0.11-0.49-0.32-0.85-0.6-1.1
		s-0.64-0.37-1.05-0.37c-0.62,0-1.12,0.22-1.51,0.67c-0.39,0.44-0.58,1.15-0.58,2.11c0,0.98,0.19,1.68,0.56,2.13
		s0.86,0.66,1.46,0.66c0.48,0,0.89-0.15,1.21-0.44C243.3,325.06,243.53,324.58,243.62,323.96z"/>
	<path class="st3" d="M250.85,324.29l1.27,0.16c-0.2,0.74-0.57,1.32-1.11,1.73s-1.23,0.62-2.08,0.62c-1.06,0-1.9-0.33-2.53-0.98
		c-0.62-0.65-0.93-1.57-0.93-2.75c0-1.22,0.31-2.17,0.94-2.84c0.63-0.67,1.44-1.01,2.45-1.01c0.97,0,1.76,0.33,2.38,0.99
		c0.62,0.66,0.92,1.59,0.92,2.79c0,0.07,0,0.18-0.01,0.33h-5.41c0.05,0.8,0.27,1.41,0.68,1.83s0.91,0.64,1.52,0.64
		c0.45,0,0.84-0.12,1.16-0.36S250.66,324.81,250.85,324.29z M246.81,322.3h4.05c-0.05-0.61-0.21-1.07-0.46-1.37
		c-0.39-0.47-0.9-0.71-1.52-0.71c-0.56,0-1.04,0.19-1.43,0.57S246.85,321.66,246.81,322.3z"/>
	<path class="st3" d="M253.67,326.62v-7.26h1.11v1.03c0.53-0.8,1.3-1.2,2.31-1.2c0.44,0,0.84,0.08,1.21,0.24
		c0.37,0.16,0.64,0.36,0.82,0.62c0.18,0.26,0.31,0.56,0.38,0.91c0.05,0.23,0.07,0.63,0.07,1.2v4.46h-1.23v-4.42
		c0-0.5-0.05-0.88-0.14-1.12c-0.1-0.25-0.27-0.45-0.51-0.6c-0.24-0.15-0.53-0.22-0.86-0.22c-0.52,0-0.98,0.17-1.36,0.5
		s-0.57,0.96-0.57,1.89v3.96L253.67,326.62L253.67,326.62z"/>
	<path class="st3" d="M266.16,326.62v-0.92c-0.46,0.72-1.14,1.08-2.03,1.08c-0.58,0-1.11-0.16-1.6-0.48
		c-0.48-0.32-0.86-0.76-1.13-1.34c-0.27-0.57-0.4-1.23-0.4-1.97c0-0.72,0.12-1.38,0.36-1.97c0.24-0.59,0.6-1.04,1.09-1.36
		s1.02-0.47,1.62-0.47c0.44,0,0.83,0.09,1.17,0.28s0.62,0.43,0.83,0.72v-3.6h1.22v10.02h-1.13V326.62z M262.27,323
		c0,0.93,0.2,1.62,0.59,2.08c0.39,0.46,0.85,0.69,1.39,0.69s0.99-0.22,1.37-0.66s0.56-1.11,0.56-2.01c0-0.99-0.19-1.72-0.57-2.19
		s-0.85-0.7-1.42-0.7c-0.55,0-1,0.22-1.37,0.67C262.46,321.34,262.27,322.04,262.27,323z"/>
	<path class="st3" d="M269.3,320.15l-0.34-1.91v-1.64h1.4v1.64l-0.31,1.91H269.3z M271.56,320.15l-0.33-1.91v-1.64h1.4v1.64
		l-0.33,1.91H271.56z"/>
</g>
<g id="text1">
	<rect x="21" y="128.5" class="st1" width="109" height="32"/>
	<path class="st4" d="M59,133.57c0-1.02,0.15-1.88,0.46-2.57c0.23-0.51,0.54-0.97,0.93-1.37s0.83-0.71,1.3-0.9
		c0.62-0.26,1.34-0.4,2.16-0.4c1.48,0,2.66,0.46,3.54,1.37s1.33,2.19,1.33,3.82c0,1.62-0.44,2.88-1.32,3.8s-2.06,1.37-3.53,1.37
		c-1.49,0-2.68-0.45-3.55-1.36C59.45,136.42,59,135.17,59,133.57z M61.09,133.51c0,1.13,0.26,2,0.79,2.58s1.19,0.88,2,0.88
		s1.47-0.29,1.99-0.87c0.52-0.58,0.78-1.45,0.78-2.61c0-1.15-0.25-2.01-0.76-2.57c-0.51-0.56-1.17-0.85-2.01-0.85
		c-0.84,0-1.51,0.29-2.02,0.86C61.35,131.5,61.09,132.35,61.09,133.51z"/>
	<path class="st4" d="M71.72,138.52l-2.39-10.02h2.07l1.51,6.88l1.83-6.88h2.41l1.76,7l1.54-7h2.04l-2.43,10.02H77.9l-2-7.49
		l-1.99,7.49L71.72,138.52z"/>
	<path class="st4" d="M83.54,138.52V128.5h1.97l4.1,6.69v-6.69h1.88v10.02h-2.03l-4.04-6.54v6.54H83.54z"/>
	<path class="st4" d="M49.78,155.32h-2.2l-0.88-2.28h-4l-0.83,2.28h-2.15l3.9-10.02h2.14L49.78,155.32z M46.06,151.36l-1.38-3.72
		l-1.35,3.72H46.06z"/>
	<path class="st4" d="M50.79,155.32V145.3h2.02v10.02H50.79z"/>
	<path class="st4" d="M54.75,155.32V145.3h4.26c1.07,0,1.85,0.09,2.33,0.27c0.48,0.18,0.87,0.5,1.17,0.96s0.44,0.99,0.44,1.58
		c0,0.75-0.22,1.37-0.66,1.86s-1.1,0.8-1.98,0.93c0.44,0.26,0.8,0.54,1.08,0.84c0.28,0.3,0.67,0.85,1.15,1.63l1.22,1.96h-2.42
		l-1.46-2.18c-0.52-0.78-0.88-1.27-1.07-1.47s-0.39-0.34-0.61-0.42s-0.55-0.11-1.02-0.11h-0.41v4.18L54.75,155.32L54.75,155.32z
		 M56.78,149.54h1.5c0.97,0,1.58-0.04,1.82-0.12s0.43-0.22,0.57-0.42s0.21-0.45,0.21-0.75c0-0.34-0.09-0.61-0.27-0.82
		c-0.18-0.21-0.43-0.34-0.76-0.39c-0.18-0.03-0.67-0.04-1.49-0.04h-1.58V149.54z"/>
	<path class="st4" d="M71.27,151.64l1.96,0.62c-0.3,1.09-0.8,1.91-1.5,2.44c-0.7,0.53-1.59,0.8-2.66,0.8
		c-1.33,0-2.42-0.45-3.28-1.36s-1.29-2.15-1.29-3.73c0-1.67,0.43-2.96,1.29-3.89s1.99-1.38,3.4-1.38c1.23,0,2.22,0.36,2.99,1.09
		c0.46,0.43,0.8,1.04,1.03,1.85l-2,0.48c-0.12-0.52-0.37-0.93-0.74-1.23s-0.83-0.45-1.37-0.45c-0.74,0-1.35,0.27-1.81,0.8
		s-0.69,1.4-0.69,2.59c0,1.27,0.23,2.17,0.68,2.71c0.45,0.54,1.05,0.81,1.78,0.81c0.54,0,1-0.17,1.39-0.51
		C70.84,152.94,71.1,152.37,71.27,151.64z"/>
	<path class="st4" d="M74.97,155.32V145.3h4.26c1.07,0,1.85,0.09,2.33,0.27c0.48,0.18,0.87,0.5,1.17,0.96s0.44,0.99,0.44,1.58
		c0,0.75-0.22,1.37-0.66,1.86s-1.1,0.8-1.98,0.93c0.44,0.26,0.8,0.54,1.08,0.84c0.28,0.3,0.67,0.85,1.15,1.63l1.22,1.96h-2.42
		l-1.46-2.18c-0.52-0.78-0.88-1.27-1.07-1.47s-0.39-0.34-0.61-0.42s-0.55-0.11-1.02-0.11H77v4.18L74.97,155.32L74.97,155.32z
		 M77,149.54h1.5c0.97,0,1.58-0.04,1.82-0.12s0.43-0.22,0.57-0.42s0.21-0.45,0.21-0.75c0-0.34-0.09-0.61-0.27-0.82
		c-0.18-0.21-0.43-0.34-0.76-0.39c-0.18-0.03-0.67-0.04-1.49-0.04H77V149.54z"/>
	<path class="st4" d="M94.11,155.32h-2.2l-0.88-2.28h-4.01l-0.83,2.28h-2.15l3.9-10.02h2.14L94.11,155.32z M90.39,151.36l-1.38-3.72
		l-1.35,3.72H90.39z"/>
	<path class="st4" d="M95.2,155.32V145.3h6.87v1.7h-4.85v2.37h4.18v1.7h-4.18v4.26L95.2,155.32L95.2,155.32z"/>
	<path class="st4" d="M106,155.32V147h-2.97v-1.7h7.96v1.7h-2.97v8.33L106,155.32L106,155.32z"/>
</g>
<g id="text2">
	<rect x="387.05" y="106.83" class="st1" width="109" height="18.5"/>
	<path class="st4" d="M416.96,116.85v-8.33h-2.97v-1.7h7.96v1.7h-2.97v8.33H416.96z"/>
	<path class="st4" d="M423.26,116.85v-10.02h2.02v3.94h3.96v-3.94h2.02v10.02h-2.02v-4.38h-3.96v4.38L423.26,116.85z"/>
	<path class="st4" d="M433.37,116.85v-10.02h4.26c1.07,0,1.85,0.09,2.33,0.27s0.87,0.5,1.17,0.96c0.29,0.46,0.44,0.99,0.44,1.58
		c0,0.75-0.22,1.37-0.66,1.86s-1.1,0.8-1.98,0.93c0.44,0.26,0.8,0.54,1.08,0.84c0.29,0.31,0.67,0.85,1.15,1.63l1.22,1.96h-2.42
		l-1.46-2.18c-0.52-0.78-0.88-1.27-1.07-1.47c-0.19-0.2-0.39-0.34-0.61-0.42c-0.21-0.08-0.55-0.11-1.02-0.11h-0.41v4.18h-2.02
		V116.85z M435.39,111.07h1.5c0.97,0,1.58-0.04,1.82-0.12c0.24-0.08,0.43-0.22,0.57-0.42s0.21-0.45,0.21-0.75
		c0-0.34-0.09-0.61-0.27-0.82s-0.43-0.34-0.76-0.39c-0.16-0.02-0.66-0.03-1.48-0.03h-1.58v2.53H435.39z"/>
	<path class="st4" d="M443.47,116.85v-10.02h7.43v1.7h-5.41v2.22h5.03v1.69h-5.03v2.73h5.6v1.69h-7.62V116.85z"/>
	<path class="st4" d="M461.85,116.85h-2.2l-0.88-2.28h-4.01l-0.83,2.28h-2.15l3.9-10.02h2.14L461.85,116.85z M458.12,112.89
		l-1.38-3.72l-1.35,3.72H458.12z"/>
	<path class="st4" d="M464.14,116.85v-8.33h-2.97v-1.7h7.96v1.7h-2.97v8.33H464.14z"/>
</g>
<g id="text3">
	<rect x="19.45" y="201" class="st1" width="167.05" height="23"/>
	<path class="st5" d="M22.27,205.06h-1.92v-1.37c0-0.56,0.05-0.99,0.15-1.32s0.28-0.61,0.54-0.86c0.26-0.25,0.6-0.46,1.01-0.6
		l0.38,0.79c-0.38,0.13-0.66,0.31-0.82,0.53s-0.25,0.53-0.26,0.91h0.93v1.92H22.27z M25.48,205.06h-1.92v-1.37
		c0-0.56,0.05-1,0.15-1.32s0.28-0.61,0.55-0.86s0.6-0.46,1.01-0.6l0.38,0.79c-0.38,0.13-0.66,0.31-0.82,0.53s-0.25,0.53-0.26,0.91
		h0.93v1.92H25.48z"/>
	<path class="st5" d="M27.46,201h3.7c0.83,0,1.47,0.06,1.91,0.19c0.59,0.17,1.09,0.48,1.51,0.92c0.42,0.44,0.74,0.98,0.96,1.62
		c0.22,0.64,0.33,1.43,0.33,2.37c0,0.82-0.1,1.54-0.31,2.13c-0.25,0.73-0.61,1.32-1.07,1.77c-0.35,0.34-0.82,0.61-1.42,0.8
		c-0.45,0.14-1.04,0.21-1.79,0.21h-3.81V201H27.46z M29.49,202.7v6.64H31c0.56,0,0.97-0.03,1.22-0.1c0.33-0.08,0.6-0.22,0.82-0.42
		c0.22-0.2,0.39-0.52,0.53-0.97c0.14-0.45,0.21-1.06,0.21-1.84s-0.07-1.37-0.21-1.78c-0.14-0.41-0.33-0.74-0.57-0.97
		c-0.24-0.23-0.56-0.39-0.94-0.47c-0.28-0.06-0.84-0.1-1.66-0.1L29.49,202.7L29.49,202.7z"/>
	<path class="st5" d="M41.77,208.71l1.91,0.32c-0.25,0.7-0.63,1.24-1.17,1.6c-0.54,0.36-1.2,0.55-1.99,0.55
		c-1.26,0-2.2-0.41-2.8-1.24c-0.48-0.66-0.72-1.49-0.72-2.5c0-1.2,0.31-2.15,0.94-2.83c0.63-0.68,1.42-1.02,2.39-1.02
		c1.08,0,1.93,0.36,2.56,1.07s0.92,1.81,0.9,3.28h-4.81c0.01,0.57,0.17,1.01,0.46,1.33c0.29,0.32,0.67,0.48,1.11,0.48
		c0.3,0,0.55-0.08,0.76-0.25S41.67,209.08,41.77,208.71z M41.88,206.77c-0.01-0.56-0.16-0.98-0.43-1.27c-0.27-0.29-0.61-0.43-1-0.43
		c-0.42,0-0.77,0.15-1.04,0.46s-0.41,0.72-0.4,1.24H41.88z"/>
	<path class="st5" d="M44.68,208.95l1.93-0.29c0.08,0.37,0.25,0.66,0.5,0.85s0.6,0.29,1.05,0.29c0.5,0,0.87-0.09,1.12-0.27
		c0.17-0.13,0.25-0.3,0.25-0.51c0-0.15-0.05-0.27-0.14-0.36c-0.1-0.09-0.31-0.18-0.64-0.25c-1.55-0.34-2.53-0.65-2.95-0.94
		c-0.57-0.39-0.86-0.94-0.86-1.63c0-0.63,0.25-1.16,0.75-1.59s1.27-0.64,2.31-0.64c0.99,0,1.73,0.16,2.21,0.49
		c0.48,0.33,0.82,0.8,1,1.44l-1.81,0.33c-0.08-0.28-0.22-0.5-0.44-0.65s-0.53-0.23-0.93-0.23c-0.51,0-0.87,0.07-1.09,0.21
		c-0.15,0.1-0.22,0.23-0.22,0.39c0,0.14,0.06,0.25,0.19,0.35c0.17,0.13,0.77,0.31,1.79,0.54s1.74,0.52,2.14,0.85
		c0.4,0.34,0.6,0.82,0.6,1.43c0,0.67-0.28,1.24-0.83,1.72c-0.55,0.48-1.38,0.72-2.47,0.72c-0.99,0-1.77-0.2-2.35-0.6
		C45.21,210.2,44.85,209.64,44.68,208.95z"/>
	<path class="st5" d="M59.47,205.91l-1.89,0.34c-0.06-0.38-0.21-0.66-0.43-0.85c-0.22-0.19-0.52-0.29-0.88-0.29
		c-0.48,0-0.86,0.17-1.15,0.5s-0.43,0.88-0.43,1.66c0,0.86,0.14,1.47,0.43,1.83s0.68,0.53,1.17,0.53c0.36,0,0.66-0.1,0.9-0.31
		s0.4-0.56,0.49-1.07l1.89,0.32c-0.2,0.87-0.57,1.52-1.13,1.96s-1.3,0.66-2.24,0.66c-1.06,0-1.91-0.33-2.54-1
		c-0.63-0.67-0.95-1.6-0.95-2.78c0-1.2,0.32-2.13,0.95-2.8c0.63-0.67,1.49-1,2.57-1c0.88,0,1.59,0.19,2.11,0.57
		S59.24,205.13,59.47,205.91z"/>
	<path class="st5" d="M65.13,208.71l1.91,0.32c-0.25,0.7-0.63,1.24-1.17,1.6c-0.54,0.36-1.2,0.55-1.99,0.55
		c-1.26,0-2.2-0.41-2.8-1.24c-0.48-0.66-0.72-1.49-0.72-2.5c0-1.2,0.31-2.15,0.94-2.83s1.42-1.02,2.39-1.02
		c1.08,0,1.93,0.36,2.56,1.07s0.92,1.81,0.9,3.28h-4.81c0.01,0.57,0.17,1.01,0.46,1.33s0.67,0.48,1.11,0.48
		c0.3,0,0.55-0.08,0.76-0.25S65.02,209.08,65.13,208.71z M65.24,206.77c-0.01-0.56-0.16-0.98-0.43-1.27c-0.27-0.29-0.61-0.43-1-0.43
		c-0.42,0-0.77,0.15-1.04,0.46s-0.41,0.72-0.4,1.24H65.24z"/>
	<path class="st5" d="M75.31,211.02h-1.92v-3.71c0-0.78-0.04-1.29-0.12-1.52c-0.08-0.23-0.22-0.41-0.4-0.54
		c-0.18-0.13-0.41-0.19-0.67-0.19c-0.33,0-0.63,0.09-0.9,0.27c-0.27,0.18-0.45,0.42-0.54,0.72c-0.09,0.3-0.15,0.86-0.15,1.67v3.29
		H68.7v-7.26h1.78v1.07c0.63-0.82,1.43-1.23,2.39-1.23c0.42,0,0.81,0.08,1.16,0.23s0.62,0.35,0.8,0.58s0.31,0.51,0.38,0.81
		s0.11,0.73,0.11,1.29v4.52H75.31z"/>
	<path class="st5" d="M83.92,211.02h-1.78v-1.07c-0.3,0.41-0.65,0.72-1.05,0.93c-0.4,0.21-0.81,0.3-1.22,0.3
		c-0.83,0-1.55-0.34-2.14-1.01c-0.59-0.67-0.89-1.61-0.89-2.81c0-1.23,0.29-2.17,0.87-2.81s1.31-0.96,2.19-0.96
		c0.81,0,1.51,0.34,2.11,1.01V201h1.92v10.02H83.92z M78.79,207.24c0,0.77,0.11,1.34,0.32,1.68c0.31,0.5,0.74,0.75,1.3,0.75
		c0.44,0,0.82-0.19,1.13-0.56s0.46-0.94,0.46-1.69c0-0.83-0.15-1.43-0.45-1.8s-0.69-0.55-1.16-0.55c-0.46,0-0.84,0.18-1.15,0.54
		C78.93,205.97,78.79,206.52,78.79,207.24z"/>
	<path class="st5" d="M85.77,209.1h1.92v1.37c0,0.56-0.05,0.99-0.14,1.32c-0.09,0.33-0.28,0.61-0.54,0.87
		c-0.27,0.25-0.6,0.46-1.02,0.6l-0.38-0.79c0.39-0.13,0.66-0.3,0.83-0.53s0.25-0.53,0.26-0.92h-0.93L85.77,209.1z"/>
	<path class="st5" d="M100.25,211.02h-1.78v-1.07c-0.3,0.41-0.65,0.72-1.05,0.93c-0.4,0.21-0.81,0.3-1.22,0.3
		c-0.83,0-1.55-0.34-2.14-1.01c-0.59-0.67-0.89-1.61-0.89-2.81c0-1.23,0.29-2.17,0.87-2.81s1.31-0.96,2.19-0.96
		c0.81,0,1.51,0.34,2.11,1.01V201h1.92v10.02H100.25z M95.13,207.24c0,0.77,0.11,1.34,0.32,1.68c0.31,0.5,0.74,0.75,1.3,0.75
		c0.44,0,0.82-0.19,1.13-0.56s0.46-0.94,0.46-1.69c0-0.83-0.15-1.43-0.45-1.8s-0.69-0.55-1.16-0.55c-0.46,0-0.84,0.18-1.15,0.54
		C95.27,205.97,95.13,206.52,95.13,207.24z"/>
	<path class="st5" d="M106.35,208.71l1.91,0.32c-0.25,0.7-0.63,1.24-1.17,1.6c-0.54,0.36-1.2,0.55-1.99,0.55
		c-1.26,0-2.2-0.41-2.8-1.24c-0.48-0.66-0.72-1.49-0.72-2.5c0-1.2,0.31-2.15,0.94-2.83s1.42-1.02,2.39-1.02
		c1.08,0,1.93,0.36,2.56,1.07s0.92,1.81,0.9,3.28h-4.81c0.01,0.57,0.17,1.01,0.46,1.33s0.67,0.48,1.11,0.48
		c0.3,0,0.55-0.08,0.76-0.25S106.25,209.08,106.35,208.71z M106.46,206.77c-0.01-0.56-0.16-0.98-0.43-1.27s-0.61-0.43-1-0.43
		c-0.42,0-0.77,0.15-1.04,0.46s-0.41,0.72-0.4,1.24H106.46z"/>
	<path class="st5" d="M109.26,208.95l1.93-0.29c0.08,0.37,0.25,0.66,0.5,0.85s0.6,0.29,1.05,0.29c0.5,0,0.87-0.09,1.12-0.27
		c0.17-0.13,0.25-0.3,0.25-0.51c0-0.15-0.05-0.27-0.14-0.36c-0.1-0.09-0.31-0.18-0.64-0.25c-1.55-0.34-2.53-0.65-2.95-0.94
		c-0.57-0.39-0.86-0.94-0.86-1.63c0-0.63,0.25-1.16,0.75-1.59s1.27-0.64,2.31-0.64c0.99,0,1.73,0.16,2.21,0.49
		c0.48,0.33,0.82,0.8,1,1.44l-1.81,0.33c-0.08-0.28-0.22-0.5-0.44-0.65s-0.53-0.23-0.93-0.23c-0.51,0-0.87,0.07-1.09,0.21
		c-0.15,0.1-0.22,0.23-0.22,0.39c0,0.14,0.06,0.25,0.19,0.35c0.17,0.13,0.77,0.31,1.79,0.54s1.74,0.52,2.14,0.85
		c0.4,0.34,0.6,0.82,0.6,1.43c0,0.67-0.28,1.24-0.83,1.72c-0.55,0.48-1.38,0.72-2.47,0.72c-0.99,0-1.77-0.2-2.35-0.6
		C109.79,210.2,109.43,209.64,109.26,208.95z"/>
	<path class="st5" d="M124.05,205.91l-1.89,0.34c-0.06-0.38-0.21-0.66-0.43-0.85c-0.22-0.19-0.52-0.29-0.88-0.29
		c-0.48,0-0.86,0.17-1.15,0.5s-0.43,0.88-0.43,1.66c0,0.86,0.14,1.47,0.43,1.83s0.68,0.53,1.17,0.53c0.36,0,0.66-0.1,0.9-0.31
		s0.4-0.56,0.49-1.07l1.89,0.32c-0.2,0.87-0.57,1.52-1.13,1.96s-1.3,0.66-2.24,0.66c-1.06,0-1.91-0.33-2.54-1
		c-0.63-0.67-0.95-1.6-0.95-2.78c0-1.2,0.32-2.13,0.95-2.8c0.63-0.67,1.49-1,2.57-1c0.88,0,1.59,0.19,2.11,0.57
		S123.82,205.13,124.05,205.91z"/>
	<path class="st5" d="M129.71,208.71l1.91,0.32c-0.25,0.7-0.63,1.24-1.17,1.6c-0.54,0.36-1.2,0.55-1.99,0.55
		c-1.26,0-2.2-0.41-2.8-1.24c-0.48-0.66-0.72-1.49-0.72-2.5c0-1.2,0.31-2.15,0.94-2.83s1.42-1.02,2.39-1.02
		c1.08,0,1.93,0.36,2.56,1.07s0.92,1.81,0.9,3.28h-4.81c0.01,0.57,0.17,1.01,0.46,1.33s0.67,0.48,1.11,0.48
		c0.3,0,0.55-0.08,0.76-0.25C129.46,209.33,129.6,209.08,129.71,208.71z M129.82,206.77c-0.01-0.56-0.16-0.98-0.43-1.27
		s-0.61-0.43-1-0.43c-0.42,0-0.77,0.15-1.04,0.46s-0.41,0.72-0.4,1.24H129.82z"/>
	<path class="st5" d="M139.89,211.02h-1.92v-3.71c0-0.78-0.04-1.29-0.12-1.52c-0.08-0.23-0.22-0.41-0.4-0.54s-0.41-0.19-0.67-0.19
		c-0.33,0-0.63,0.09-0.9,0.27c-0.27,0.18-0.45,0.42-0.54,0.72c-0.09,0.3-0.15,0.86-0.15,1.67v3.29h-1.92v-7.26h1.78v1.07
		c0.63-0.82,1.43-1.23,2.39-1.23c0.42,0,0.81,0.08,1.16,0.23s0.62,0.35,0.8,0.58s0.31,0.51,0.38,0.81s0.11,0.73,0.11,1.29V211.02z"
		/>
	<path class="st5" d="M148.5,211.02h-1.78v-1.07c-0.3,0.41-0.65,0.72-1.05,0.93c-0.4,0.21-0.81,0.3-1.22,0.3
		c-0.83,0-1.55-0.34-2.14-1.01c-0.59-0.67-0.89-1.61-0.89-2.81c0-1.23,0.29-2.17,0.87-2.81s1.31-0.96,2.19-0.96
		c0.81,0,1.51,0.34,2.11,1.01V201h1.92L148.5,211.02L148.5,211.02z M143.37,207.24c0,0.77,0.11,1.34,0.32,1.68
		c0.31,0.5,0.74,0.75,1.3,0.75c0.44,0,0.82-0.19,1.13-0.56s0.46-0.94,0.46-1.69c0-0.83-0.15-1.43-0.45-1.8s-0.69-0.55-1.16-0.55
		c-0.46,0-0.84,0.18-1.15,0.54C143.51,205.97,143.37,206.52,143.37,207.24z"/>
	<path class="st5" d="M150.26,201h1.92v1.38c0,0.56-0.05,0.99-0.14,1.31c-0.09,0.32-0.28,0.61-0.54,0.86s-0.6,0.46-1.02,0.6
		l-0.38-0.8c0.39-0.13,0.66-0.31,0.83-0.53s0.25-0.53,0.26-0.91h-0.93V201z M153.49,201h1.92v1.38c0,0.56-0.05,0.99-0.15,1.31
		c-0.1,0.32-0.28,0.61-0.55,0.86s-0.6,0.46-1.01,0.6l-0.38-0.8c0.38-0.13,0.66-0.31,0.82-0.53s0.25-0.53,0.26-0.91h-0.92L153.49,201
		L153.49,201z"/>
</g>
<g id="text4">
	<rect x="18.58" y="236.19" class="st1" width="170.67" height="24"/>
	<path class="st5" d="M21.41,240.25h-1.92v-1.37c0-0.56,0.05-1,0.15-1.32c0.1-0.32,0.28-0.61,0.54-0.87s0.6-0.46,1.01-0.6l0.38,0.79
		c-0.38,0.13-0.66,0.31-0.82,0.53c-0.17,0.23-0.25,0.53-0.26,0.91h0.93V240.25z M24.61,240.25h-1.92v-1.37c0-0.56,0.05-1,0.15-1.32
		c0.1-0.32,0.28-0.61,0.55-0.86c0.27-0.25,0.6-0.46,1.01-0.6l0.38,0.79c-0.38,0.13-0.66,0.31-0.82,0.53
		c-0.17,0.23-0.25,0.53-0.26,0.91h0.93V240.25z"/>
	<path class="st5" d="M26.66,246.21v-9.94h2.02v8.25h5.03v1.69H26.66z"/>
	<path class="st5" d="M39.34,243.9l1.91,0.32c-0.25,0.7-0.63,1.24-1.17,1.6c-0.53,0.37-1.19,0.55-1.99,0.55
		c-1.26,0-2.2-0.41-2.8-1.24c-0.48-0.66-0.72-1.5-0.72-2.5c0-1.2,0.31-2.15,0.94-2.83c0.63-0.68,1.42-1.02,2.39-1.02
		c1.08,0,1.93,0.36,2.56,1.07c0.62,0.71,0.92,1.81,0.9,3.28h-4.81c0.01,0.57,0.17,1.01,0.46,1.33c0.3,0.32,0.67,0.47,1.11,0.47
		c0.3,0,0.55-0.08,0.76-0.25S39.24,244.27,39.34,243.9z M39.45,241.96c-0.01-0.56-0.16-0.98-0.43-1.27c-0.27-0.29-0.61-0.43-1-0.43
		c-0.42,0-0.77,0.15-1.04,0.46s-0.41,0.72-0.4,1.24H39.45z"/>
	<path class="st5" d="M44.92,246.21L42,238.95h2.02l1.37,3.71l0.4,1.24c0.1-0.31,0.17-0.52,0.2-0.62c0.06-0.21,0.13-0.41,0.21-0.62
		l1.38-3.71h1.98l-2.88,7.26H44.92z"/>
	<path class="st5" d="M54.92,243.9l1.91,0.32c-0.25,0.7-0.63,1.24-1.17,1.6c-0.53,0.37-1.19,0.55-1.99,0.55
		c-1.26,0-2.2-0.41-2.8-1.24c-0.48-0.66-0.72-1.5-0.72-2.5c0-1.2,0.31-2.15,0.94-2.83c0.63-0.68,1.42-1.02,2.39-1.02
		c1.08,0,1.93,0.36,2.56,1.07c0.62,0.71,0.92,1.81,0.9,3.28h-4.81c0.01,0.57,0.17,1.01,0.46,1.33c0.3,0.32,0.67,0.47,1.11,0.47
		c0.3,0,0.55-0.08,0.76-0.25S54.81,244.27,54.92,243.9z M55.02,241.96c-0.01-0.56-0.16-0.98-0.43-1.27c-0.27-0.29-0.61-0.43-1-0.43
		c-0.42,0-0.77,0.15-1.04,0.46s-0.41,0.72-0.4,1.24H55.02z"/>
	<path class="st5" d="M58.5,246.21v-10.02h1.92v10.02H58.5z"/>
	<path class="st5" d="M65.83,242.48c0-0.64,0.16-1.26,0.47-1.85s0.76-1.05,1.34-1.37c0.58-0.31,1.22-0.47,1.93-0.47
		c1.1,0,2,0.36,2.7,1.07c0.7,0.71,1.05,1.61,1.05,2.7c0,1.1-0.35,2.01-1.06,2.73c-0.71,0.72-1.6,1.08-2.68,1.08
		c-0.67,0-1.3-0.15-1.9-0.45c-0.6-0.3-1.06-0.74-1.38-1.32C65.99,244.02,65.83,243.32,65.83,242.48z M67.8,242.58
		c0,0.72,0.17,1.27,0.51,1.65s0.76,0.57,1.26,0.57s0.92-0.19,1.26-0.57c0.34-0.38,0.51-0.94,0.51-1.67c0-0.71-0.17-1.26-0.51-1.64
		c-0.34-0.38-0.76-0.57-1.26-0.57s-0.92,0.19-1.26,0.57S67.8,241.86,67.8,242.58z"/>
	<path class="st5" d="M73.99,238.95h1.07v-0.55c0-0.61,0.06-1.07,0.2-1.37c0.13-0.3,0.37-0.55,0.72-0.73
		c0.35-0.19,0.79-0.28,1.32-0.28c0.55,0,1.08,0.08,1.61,0.25l-0.26,1.34c-0.31-0.07-0.6-0.11-0.88-0.11c-0.28,0-0.48,0.07-0.6,0.19
		c-0.12,0.13-0.18,0.38-0.18,0.75v0.51h1.44v1.51h-1.44v5.75h-1.92v-5.75h-1.07V238.95z"/>
	<path class="st5" d="M78.65,238.95h1.07v-0.55c0-0.61,0.06-1.07,0.2-1.37c0.13-0.3,0.37-0.55,0.72-0.73
		c0.35-0.19,0.79-0.28,1.32-0.28c0.55,0,1.08,0.08,1.61,0.25l-0.26,1.34c-0.31-0.07-0.6-0.11-0.88-0.11c-0.28,0-0.48,0.07-0.6,0.19
		c-0.12,0.13-0.18,0.38-0.18,0.75v0.51h1.44v1.51h-1.44v5.75h-1.92v-5.75h-1.07V238.95z"/>
	<path class="st5" d="M84.1,244.29h1.92v1.37c0,0.56-0.05,0.99-0.14,1.32c-0.1,0.32-0.28,0.61-0.54,0.86
		c-0.27,0.25-0.61,0.46-1.02,0.6l-0.38-0.79c0.39-0.13,0.66-0.3,0.83-0.53s0.25-0.53,0.26-0.92H84.1V244.29z"/>
	<path class="st5" d="M91.93,246.21v-10.02h1.92v10.02H91.93z"/>
	<path class="st5" d="M100.03,243.9l1.91,0.32c-0.25,0.7-0.63,1.24-1.17,1.6c-0.53,0.37-1.19,0.55-1.99,0.55
		c-1.26,0-2.2-0.41-2.8-1.24c-0.48-0.66-0.72-1.5-0.72-2.5c0-1.2,0.31-2.15,0.94-2.83c0.63-0.68,1.42-1.02,2.39-1.02
		c1.08,0,1.93,0.36,2.56,1.07c0.62,0.71,0.92,1.81,0.9,3.28h-4.81c0.01,0.57,0.17,1.01,0.46,1.33c0.3,0.32,0.67,0.47,1.11,0.47
		c0.3,0,0.55-0.08,0.76-0.25S99.92,244.27,100.03,243.9z M100.14,241.96c-0.01-0.56-0.16-0.98-0.43-1.27
		c-0.27-0.29-0.61-0.43-1-0.43c-0.42,0-0.77,0.15-1.04,0.46s-0.41,0.72-0.4,1.24H100.14z"/>
	<path class="st5" d="M105.6,246.21l-2.93-7.26h2.02l1.37,3.71l0.4,1.24c0.1-0.31,0.17-0.52,0.2-0.62c0.06-0.21,0.13-0.41,0.21-0.62
		l1.38-3.71h1.98l-2.88,7.26H105.6z"/>
	<path class="st5" d="M115.6,243.9l1.91,0.32c-0.25,0.7-0.63,1.24-1.17,1.6c-0.53,0.37-1.19,0.55-1.99,0.55
		c-1.26,0-2.2-0.41-2.8-1.24c-0.48-0.66-0.72-1.5-0.72-2.5c0-1.2,0.31-2.15,0.94-2.83c0.63-0.68,1.42-1.02,2.39-1.02
		c1.08,0,1.93,0.36,2.56,1.07c0.62,0.71,0.92,1.81,0.9,3.28h-4.81c0.01,0.57,0.17,1.01,0.46,1.33c0.3,0.32,0.67,0.47,1.11,0.47
		c0.3,0,0.55-0.08,0.76-0.25S115.49,244.27,115.6,243.9z M115.71,241.96c-0.01-0.56-0.16-0.98-0.43-1.27
		c-0.27-0.29-0.61-0.43-1-0.43c-0.42,0-0.77,0.15-1.04,0.46s-0.41,0.72-0.4,1.24H115.71z"/>
	<path class="st5" d="M119.18,246.21v-10.02h1.92v10.02H119.18z"/>
	<path class="st5" d="M126.52,242.48c0-0.64,0.16-1.26,0.47-1.85s0.76-1.05,1.34-1.37c0.58-0.31,1.22-0.47,1.93-0.47
		c1.1,0,2,0.36,2.7,1.07c0.7,0.71,1.05,1.61,1.05,2.7c0,1.1-0.35,2.01-1.06,2.73c-0.71,0.72-1.6,1.08-2.68,1.08
		c-0.67,0-1.3-0.15-1.9-0.45c-0.6-0.3-1.06-0.74-1.38-1.32C126.67,244.02,126.52,243.32,126.52,242.48z M128.48,242.58
		c0,0.72,0.17,1.27,0.51,1.65s0.76,0.57,1.26,0.57s0.92-0.19,1.26-0.57c0.34-0.38,0.51-0.94,0.51-1.67c0-0.71-0.17-1.26-0.51-1.64
		c-0.34-0.38-0.76-0.57-1.26-0.57s-0.92,0.19-1.26,0.57S128.48,241.86,128.48,242.58z"/>
	<path class="st5" d="M134.67,238.95h1.07v-0.55c0-0.61,0.06-1.07,0.2-1.37c0.13-0.3,0.37-0.55,0.72-0.73
		c0.35-0.19,0.79-0.28,1.32-0.28c0.55,0,1.08,0.08,1.61,0.25l-0.26,1.34c-0.31-0.07-0.6-0.11-0.88-0.11c-0.28,0-0.48,0.07-0.6,0.19
		c-0.12,0.13-0.18,0.38-0.18,0.75v0.51h1.44v1.51h-1.44v5.75h-1.92v-5.75h-1.07V238.95z"/>
	<path class="st5" d="M139.33,238.95h1.07v-0.55c0-0.61,0.06-1.07,0.2-1.37c0.13-0.3,0.37-0.55,0.72-0.73
		c0.35-0.19,0.79-0.28,1.32-0.28c0.55,0,1.08,0.08,1.61,0.25l-0.26,1.34c-0.31-0.07-0.6-0.11-0.88-0.11c-0.28,0-0.48,0.07-0.6,0.19
		c-0.12,0.13-0.18,0.38-0.18,0.75v0.51h1.44v1.51h-1.44v5.75h-1.92v-5.75h-1.07V238.95z"/>
	<path class="st5" d="M144.71,236.19h1.92v1.38c0,0.56-0.05,0.99-0.14,1.31s-0.28,0.61-0.54,0.87c-0.27,0.26-0.61,0.46-1.02,0.6
		l-0.38-0.8c0.39-0.13,0.66-0.31,0.83-0.53s0.25-0.53,0.26-0.91h-0.93V236.19z M147.93,236.19h1.92v1.38c0,0.56-0.05,0.99-0.15,1.31
		c-0.1,0.32-0.28,0.61-0.55,0.87c-0.27,0.26-0.6,0.46-1.01,0.6l-0.38-0.8c0.38-0.13,0.66-0.31,0.82-0.53
		c0.17-0.23,0.25-0.53,0.26-0.91h-0.92V236.19z"/>
</g>
<g id="acft1">
	<path d="M44.31,167c2.19,2.27,4.4,4.52,6.57,6.81c3.47,3.66,7.11,6.42,12.73,6.21c10.08-0.37,20.17,0,30.26-0.14
		c6.77-0.09,13.43-0.08,19.06,4.49c0,0.89,0,1.78,0,2.67c-4.65,3.01-9.8,4.13-15.28,4.02c-2.34-0.05-4.81-0.42-6.55,1.77
		c-1.63,0-3.27,0-4.9,0c-2.29-0.59-4.55-1.52-6.88-1.72c-5.8-0.5-11.72-0.09-17.41-1.09c-8.2-1.46-16.24-3.83-23.84-7.44
		c0-0.59,0-1.19,0-1.78c1.46-0.34,2.93-0.69,4.62-1.08c-1.58-3.6-3.1-7.05-4.62-10.5c0-0.74,0-1.49,0-2.23
		C40.15,167,42.23,167,44.31,167z M77.78,187.2c-2.72-0.03-5.45-0.07-8.17-0.1c-0.05-0.31,0-0.83-0.16-0.91
		c-2.19-1.06-4.32-2.18-6.95-1.92c-1.37,0.13-2.39,0.19-2.41,1.68c-2.67,0.92-2.2-1.66-3.35-2.43c1.37-1.1,2.55-2.14,3.96-0.32
		c0.23,0.29,0.98,0.22,1.48,0.23c7.31,0.02,14.63,0.02,21.94,0.03c1.98,0,3.97,0,5.95,0c0,0.31,0,0.61,0,0.92
		c-1.13,0-2.26-0.06-3.39,0.03c-0.49,0.04-0.96,0.37-1.43,0.56c0.49,0.27,0.96,0.63,1.49,0.78c0.48,0.14,1.08-0.07,1.54,0.1
		c1.84,0.68,4.57,0.34,4.14,3.56c6.64,0.81,16.12-0.29,19.04-3.44c-0.99-2.27-3.04-1.45-5.02-1.48c0.44-0.72,0.75-1.21,1.33-2.16
		c-3.77-0.4-7.14-1.05-10.51-1.06c-14.46-0.01-28.93,0.19-43.39,0.23c-1.62,0-2.97,0.16-3.92,1.59c-0.89-0.24-1.77-0.48-2.91-0.8
		c0.9-0.29,1.62-0.52,2.86-0.92c-2.17,0-3.79,0-5.74,0c0.63,0.3,0.93,0.44,1.43,0.68c-1.05,0.06-1.82,0.1-2.6,0.14
		c-0.01,0.11-0.02,0.21-0.04,0.32c0.73,0.3,1.46,0.6,2.19,0.89c0.07,0.16,0.1,0.43,0.21,0.47c11.09,4.19,22.49,6.56,34.41,5.73
		c0.53-0.04,1.04-0.37,1.56-0.57c-0.04-0.23-0.08-0.46-0.11-0.7c-2.26,0-4.52,0.05-6.78-0.02c-1.88-0.05-3.75-0.25-5.62-0.38
		c2.36-0.03,4.73-0.01,7.09-0.12C76.54,187.82,77.16,187.41,77.78,187.2c2.29,0.74,4.58,1.21,7.24,0
		C82.37,187.2,80.08,187.2,77.78,187.2z M39.7,168.8c1.48,3.62,2.98,7.38,4.59,11.09c0.2,0.45,1.02,0.91,1.54,0.89
		c3.32-0.11,6.63-0.35,9.29-0.5c-2.68-2.89-5.6-6.02-8.5-9.16C44.82,169.16,42.97,167.33,39.7,168.8z M85.81,191.29
		c1.67,0,3.44,0.42,4.77-0.16c0.78-0.34,0.86-2.28,1.41-3.97c-2.49,0.14-4.29,0.24-6.18,0.34
		C85.81,188.71,85.81,189.73,85.81,191.29z M74.39,184.49c3.02,0.44,6.06,3.21,9.12,0.79c0-0.26,0-0.53,0.01-0.79
		C80.47,184.49,77.43,184.49,74.39,184.49z"/>
	<path class="st6" d="M49.96,183.1c0.95-1.42,2.29-1.58,3.92-1.59c14.46-0.04,28.93-0.25,43.39-0.23c3.37,0,6.74,0.66,10.51,1.06
		c-0.59,0.95-0.89,1.44-1.33,2.16c1.98,0.02,4.03-0.79,5.02,1.48c-2.92,3.15-12.4,4.25-19.04,3.44c0.43-3.22-2.3-2.88-4.14-3.56
		c-0.46-0.17-1.06,0.04-1.54-0.1c-0.53-0.15-1-0.51-1.49-0.78c0.48-0.2,0.94-0.53,1.43-0.56c1.12-0.08,2.26-0.03,3.39-0.03
		c0-0.31,0-0.61,0-0.92c-1.98,0-3.97,0-5.95,0c-7.31-0.01-14.63-0.01-21.94-0.03c-0.51,0-1.26,0.06-1.48-0.23
		c-1.42-1.82-2.6-0.78-3.96,0.32c1.14,0.77,0.68,3.35,3.35,2.43c0.02-1.5,1.04-1.55,2.41-1.68c2.63-0.26,4.76,0.86,6.95,1.92
		c0.16,0.08,0.11,0.6,0.16,0.91c-0.26,0.29-0.53,0.58-0.79,0.87c1.87,0.13,3.75,0.32,5.62,0.38c2.26,0.07,4.52,0.02,6.78,0.02
		c0.04,0.23,0.08,0.46,0.11,0.7c-0.52,0.2-1.03,0.53-1.56,0.57c-11.92,0.83-23.32-1.54-34.41-5.73c-0.11-0.04-0.14-0.31-0.21-0.47
		C46.76,183.31,48.36,183.21,49.96,183.1z M91.24,183.78c-0.01,0.15-0.01,0.29-0.02,0.44c3.12,0,6.24,0,9.36,0
		c0-0.15,0.01-0.29,0.01-0.44C97.47,183.78,94.36,183.78,91.24,183.78z M103.87,186.09c0.25-3.61,0.17-3.72-2.35-3.24
		c0.12,1.06,0.25,2.12,0.38,3.24C102.6,186.09,103.17,186.09,103.87,186.09z"/>
	<path class="st6" d="M39.7,168.8c3.28-1.48,5.12,0.36,6.93,2.32c2.9,3.14,5.82,6.27,8.5,9.16c-2.66,0.16-5.98,0.4-9.29,0.5
		c-0.52,0.02-1.35-0.44-1.54-0.89C42.68,176.18,41.18,172.42,39.7,168.8z"/>
	<path class="st6" d="M85.81,191.29c0-1.56,0-2.58,0-3.8c1.89-0.1,3.69-0.2,6.18-0.34c-0.55,1.69-0.63,3.63-1.41,3.97
		C89.25,191.71,87.48,191.29,85.81,191.29z"/>
	<path class="st6" d="M74.39,184.49c3.04,0,6.08,0,9.12,0c0,0.26,0,0.53-0.01,0.79C80.45,187.7,77.41,184.93,74.39,184.49z"/>
	<path class="st6" d="M49.96,183.1c-1.6,0.11-3.2,0.21-4.8,0.32c-0.73-0.3-1.46-0.6-2.19-0.89c0.01-0.11,0.02-0.21,0.04-0.32
		c0.78-0.04,1.55-0.09,2.6-0.14c-0.5-0.24-0.8-0.38-1.43-0.68c1.94,0,3.56,0,5.74,0c-1.24,0.4-1.96,0.63-2.86,0.92
		C48.19,182.61,49.08,182.86,49.96,183.1z"/>
	<path class="st6" d="M68.82,187.96c0.26-0.29,0.53-0.58,0.79-0.87c2.72,0.03,5.45,0.07,8.17,0.1v-0.02
		c-0.62,0.23-1.24,0.64-1.87,0.66C73.55,187.95,71.19,187.93,68.82,187.96z"/>
	<path class="st6" d="M77.78,187.2c2.29,0,4.59,0,7.24,0C82.36,188.41,80.07,187.94,77.78,187.2
		C77.78,187.18,77.78,187.2,77.78,187.2z"/>
	<path d="M91.24,183.78c3.12,0,6.23,0,9.35,0c0,0.15-0.01,0.29-0.01,0.44c-3.12,0-6.24,0-9.36,0
		C91.23,184.07,91.24,183.93,91.24,183.78z"/>
	<path d="M103.87,186.09c-0.7,0-1.28,0-1.97,0c-0.13-1.11-0.25-2.18-0.38-3.24C104.04,182.37,104.12,182.48,103.87,186.09z"/>
</g>
<g id="acft2">
	<path d="M496.41,97.77c0.25,0.7,0.51,1.4,0.76,2.09c-0.24,3.76-0.49,7.52-0.74,11.45c1.72-0.21,3.21-0.38,4.71-0.56
		c0.2,0.56,0.41,1.12,0.61,1.67c-5.9,5.98-12.65,10.97-19.85,15.14c-5,2.89-10.71,4.53-15.98,6.98c-2.12,0.98-3.93,2.62-5.88,3.97
		c-1.54,0.56-3.07,1.12-4.61,1.68c-2.4-1.47-4.58-0.27-6.77,0.58c-5.11,1.98-10.33,2.69-15.73,1.45c-0.3-0.84-0.61-1.67-0.91-2.51
		c3.73-6.22,9.98-8.51,16.37-10.74c9.52-3.32,18.89-7.12,28.48-10.22c5.35-1.73,7.83-5.57,9.84-10.19c1.26-2.89,2.56-5.77,3.84-8.65
		C492.51,99.19,494.46,98.48,496.41,97.77z M459.2,132.8c2.91,0.23,4.9-0.99,6.8-2.48c0.67,0,1.38,0.16,1.99-0.02
		c2.25-0.71,4.47-1.53,6.7-2.32c-1.72,0.76-3.41,1.59-5.15,2.28c-2.1,0.83-4.24,1.56-6.37,2.33c0.04,0.23,0.09,0.46,0.13,0.69
		c0.55,0.01,1.15,0.15,1.66,0c11.49-3.3,21.39-9.42,30.37-17.15c0.09-0.08,0.03-0.34,0.04-0.51c0.59-0.53,1.17-1.06,1.76-1.59
		c-0.05-0.1-0.1-0.19-0.14-0.29c-0.74,0.22-1.49,0.45-2.49,0.75c0.39-0.39,0.62-0.63,1.11-1.13c-1.82,0.66-3.35,1.22-5.39,1.96
		c1.3-0.05,2.06-0.08,3-0.11c-0.96,0.68-1.71,1.21-2.46,1.74c-1.38-1.01-2.7-0.7-4.22-0.15c-13.61,4.91-27.27,9.66-40.85,14.62
		c-3.17,1.16-6.11,2.93-9.52,4.59c0.88,0.69,1.33,1.05,1.99,1.57c-1.85,0.7-4.06,0.63-4.21,3.1c3.82,1.96,13.1-0.25,19.06-3.28
		c-1.51-2.88,1.18-3.5,2.67-4.76c0.38-0.32,1.01-0.33,1.41-0.63c0.44-0.33,0.76-0.82,1.13-1.25c-0.52-0.02-1.07-0.17-1.54-0.04
		c-1.08,0.3-2.13,0.75-3.19,1.13c-0.11-0.29-0.21-0.57-0.32-0.86c1.86-0.68,3.73-1.35,5.59-2.03c6.87-2.51,13.74-5.01,20.61-7.53
		c0.48-0.18,1.2-0.37,1.32-0.72c0.71-2.19,2.18-1.62,3.84-1.05c-0.81,1.11,0.51,3.38-2.31,3.43c-0.53-1.4-1.51-1.1-2.84-0.76
		c-2.56,0.66-4.18,2.44-5.87,4.18c-0.13,0.13,0.1,0.6,0.16,0.91c-2.55,0.96-5.1,1.93-7.65,2.89
		C463.85,131.11,461.69,131.89,459.2,132.8z M489.79,104.56c-1.65,3.95-3.32,7.88-4.85,11.51c2.56-0.76,5.75-1.67,8.9-2.71
		c0.49-0.16,1.11-0.87,1.14-1.36c0.25-4.04,0.37-8.08,0.52-11.99C491.92,99.75,490.82,102.1,489.79,104.56z M458.57,133.35
		c-1.81,0.55-3.54,1.07-5.92,1.8c1.09,1.4,1.83,3.2,2.68,3.25c1.45,0.09,2.96-0.91,4.54-1.48
		C459.33,135.45,458.98,134.49,458.57,133.35z M459.7,129.74c0.09,0.25,0.18,0.49,0.27,0.74c3.7,1.24,5.61-2.41,8.3-3.86
		C465.41,127.66,462.55,128.7,459.7,129.74z"/>
	<path class="st6" d="M495.37,115.62c-0.01,0.17,0.05,0.43-0.04,0.51c-8.99,7.73-18.88,13.86-30.37,17.15
		c-0.51,0.15-1.1,0.01-1.66,0c-0.04-0.23-0.09-0.46-0.13-0.69c2.12-0.77,4.27-1.5,6.37-2.33c1.74-0.69,3.44-1.51,5.15-2.28
		c-0.35-0.18-0.69-0.36-1.04-0.55c-0.06-0.31-0.29-0.78-0.16-0.91c1.69-1.75,3.31-3.52,5.87-4.18c1.34-0.34,2.31-0.64,2.84,0.76
		c2.82-0.05,1.5-2.31,2.31-3.43c-1.66-0.57-3.12-1.14-3.84,1.05c-0.11,0.35-0.84,0.54-1.32,0.72c-6.87,2.52-13.74,5.03-20.61,7.53
		c-1.86,0.68-3.73,1.36-5.59,2.03c0.11,0.29,0.21,0.57,0.32,0.86c1.06-0.39,2.11-0.83,3.19-1.13c0.47-0.13,1.02,0.02,1.54,0.04
		c-0.37,0.42-0.69,0.92-1.13,1.25c-0.41,0.3-1.04,0.31-1.41,0.63c-1.49,1.26-4.18,1.88-2.67,4.76c-5.96,3.03-15.24,5.24-19.06,3.28
		c0.15-2.47,2.36-2.4,4.21-3.1c-0.66-0.52-1.12-0.88-1.99-1.57c3.4-1.66,6.35-3.43,9.52-4.59c13.59-4.96,27.25-9.71,40.85-14.62
		c1.53-0.55,2.85-0.86,4.22,0.15C492.29,116.51,493.83,116.07,495.37,115.62z M443.41,134.92c0.05,0.14,0.11,0.27,0.16,0.41
		c2.93-1.07,5.86-2.13,8.79-3.2c-0.06-0.14-0.11-0.27-0.17-0.41C449.27,132.78,446.34,133.85,443.41,134.92z M442.97,137.53
		c-0.26-1.09-0.51-2.13-0.75-3.17c-2.54,0.41-2.57,0.53-1.1,3.85C441.77,137.97,442.31,137.77,442.97,137.53z"/>
	<path class="st6" d="M495.51,100.02c-3.58-0.27-4.69,2.09-5.72,4.55c-1.65,3.95-3.32,7.88-4.85,11.51c2.56-0.76,5.75-1.67,8.9-2.71
		c0.49-0.16,1.11-0.87,1.14-1.36C495.23,107.97,495.35,103.93,495.51,100.02z"/>
	<path class="st6" d="M459.86,136.92c-0.53-1.47-0.88-2.42-1.3-3.57c-1.81,0.55-3.54,1.07-5.92,1.8c1.09,1.4,1.83,3.2,2.68,3.25
		C456.77,138.49,458.29,137.49,459.86,136.92z"/>
	<path class="st6" d="M468.27,126.62c-2.86,1.04-5.72,2.08-8.57,3.12c0.09,0.25,0.18,0.49,0.27,0.74
		C463.67,131.72,465.58,128.07,468.27,126.62z"/>
	<path class="st6" d="M490.75,116.96c1.54-0.45,3.08-0.89,4.62-1.34c0.59-0.53,1.17-1.06,1.76-1.59c-0.05-0.1-0.1-0.19-0.14-0.29
		c-0.74,0.22-1.49,0.45-2.49,0.75c0.39-0.39,0.62-0.63,1.11-1.13c-1.82,0.66-3.35,1.22-5.39,1.96c1.3-0.05,2.06-0.08,3-0.11
		C492.25,115.9,491.5,116.43,490.75,116.96z"/>
	<path class="st6" d="M474.69,127.98c-0.35-0.18-0.69-0.36-1.04-0.55c-2.55,0.96-5.1,1.93-7.65,2.89v-0.01
		c0.67,0,1.38,0.17,1.99-0.02C470.24,129.59,472.46,128.76,474.69,127.98z"/>
	<path class="st6" d="M466.01,130.33c-2.16,0.78-4.31,1.57-6.81,2.48c2.91,0.23,4.9-0.99,6.8-2.49
		C466,130.31,466.01,130.33,466.01,130.33z"/>
	<path d="M452.19,131.72c-2.93,1.07-5.86,2.13-8.78,3.2c0.05,0.14,0.11,0.27,0.16,0.41c2.93-1.07,5.86-2.13,8.79-3.2
		C452.3,131.99,452.25,131.86,452.19,131.72z"/>
	<path d="M441.11,138.21c0.66-0.24,1.2-0.44,1.86-0.68c-0.26-1.09-0.51-2.13-0.75-3.17C439.68,134.77,439.64,134.9,441.11,138.21z"
		/>
</g>
<g id="CPA">
	<g id="title_7_">
		<rect x="252.5" y="115.06" class="st1" width="39.25" height="16"/>
		<path class="st5" d="M266.49,120.49l1.68,0.53c-0.26,0.94-0.69,1.63-1.29,2.09s-1.36,0.68-2.28,0.68c-1.14,0-2.08-0.39-2.81-1.17
			s-1.1-1.84-1.1-3.2c0-1.43,0.37-2.54,1.11-3.33c0.74-0.79,1.71-1.19,2.91-1.19c1.05,0,1.9,0.31,2.56,0.93
			c0.39,0.37,0.68,0.89,0.88,1.58l-1.72,0.41c-0.1-0.45-0.31-0.8-0.64-1.05c-0.33-0.25-0.71-0.39-1.17-0.39
			c-0.64,0-1.15,0.23-1.55,0.69c-0.4,0.46-0.59,1.2-0.59,2.22c0,1.09,0.2,1.86,0.59,2.32c0.39,0.46,0.9,0.69,1.52,0.69
			c0.46,0,0.86-0.15,1.19-0.44C266.11,121.57,266.35,121.12,266.49,120.49z"/>
		<path class="st5" d="M269.66,123.65v-8.59h2.78c1.05,0,1.74,0.04,2.06,0.13c0.49,0.13,0.9,0.41,1.24,0.84s0.5,0.99,0.5,1.67
			c0,0.53-0.1,0.97-0.29,1.33s-0.43,0.64-0.73,0.85c-0.3,0.21-0.59,0.34-0.9,0.41c-0.41,0.08-1.01,0.12-1.8,0.12h-1.13v3.24H269.66z
			 M271.4,116.51v2.44h0.95c0.68,0,1.14-0.04,1.37-0.13s0.41-0.23,0.54-0.42s0.2-0.41,0.2-0.67c0-0.31-0.09-0.57-0.28-0.77
			c-0.19-0.2-0.42-0.33-0.7-0.38c-0.21-0.04-0.62-0.06-1.25-0.06h-0.83V116.51z"/>
		<path class="st5" d="M284.52,123.65h-1.89l-0.75-1.95h-3.43l-0.71,1.95h-1.84l3.35-8.59h1.83L284.52,123.65z M281.33,120.25
			l-1.18-3.19l-1.16,3.19H281.33z"/>
	</g>
	<g>
		<line class="st1" x1="271" y1="130" x2="271" y2="269"/>
		<g>
			<line class="st7" x1="271.5" y1="130" x2="271.5" y2="132"/>
			<line class="st8" x1="271.5" y1="135" x2="271.5" y2="266"/>
			<line class="st7" x1="271.5" y1="268" x2="271.5" y2="269"/>
		</g>
	</g>
</g>
<g id="arrow1">
	<g>
		<line class="st9" x1="118" y1="186" x2="124" y2="186"/>
		<line class="st10" x1="135" y1="186" x2="241" y2="186"/>
		<line class="st9" x1="247" y1="186" x2="253" y2="186"/>
		<g>
			<polygon class="st11" points="267,186 247.1,194.13 251.82,186 247.1,177.87 			"/>
		</g>
	</g>
</g>
<g id="arrow2">
	<g>
		<line class="st9" x1="288.62" y1="182.26" x2="294.4" y2="180.67"/>
		<line class="st12" x1="306.02" y1="177.48" x2="416.4" y2="147.18"/>
		<line class="st9" x1="422.21" y1="145.59" x2="428" y2="144"/>
		<g>
			<polygon class="st11" points="275,186 296.34,188.57 289.64,181.98 292.04,172.89 			"/>
		</g>
	</g>
</g>
<g id="arrow4">
	<g>
		<path class="st13" d="M222.11,169.3c1.91,0,3.92,0,6-0.01"/>
		<path class="st14" d="M239.71,169.2c14.5-0.15,29.59-0.39,37.29-0.2c78.6,1.95,104.33-10.08,139.73-21.52"/>
		<path class="st13" d="M422.26,145.73c1.88-0.58,3.79-1.16,5.74-1.73"/>
		<g>
			<polygon class="st15" points="208,169 227.75,177.49 223.17,169.28 228.04,161.24 			"/>
		</g>
	</g>
</g>
<g id="arrow3">
	<g>
		<path class="st13" d="M118,186c2.03-0.01,4.03,0.01,6,0.06"/>
		<path class="st16" d="M135.98,186.64c26.72,2,46.86,8.38,61.02,14.36c28.46,12.02,37.86,24.56,64,33
			c17.54,5.66,35.02,8.01,49.9,8.84"/>
		<path class="st13" d="M316.89,243.1c2.06,0.07,4.07,0.1,6,0.12"/>
		<g>
			<polygon class="st15" points="337,243 317.2,251.37 321.82,243.18 317.01,235.11 			"/>
		</g>
	</g>
</g>
<g id="buttonStart">
	<g>
		<g>
			<circle class="st17" cx="474.76" cy="302.4" r="19.85"/>
		</g>
	</g>
	<g>
		<g>
			<polygon class="st6" points="469.39,294.07 483.82,302.4 469.39,310.73 			"/>
		</g>
	</g>
</g>
<g id="buttonReplay">
	<g>
		<g>
			<circle class="st17" cx="474.76" cy="302.4" r="19.85"/>
		</g>
	</g>
	<g>
		<g>
			<polygon class="st6" points="476.82,286.11 465.89,292.42 476.82,298.73 			"/>
		</g>
	</g>
	<path class="st18" d="M475.11,292.07c5.92,0,10.71,4.8,10.71,10.71c0,5.92-4.8,10.71-10.71,10.71s-10.71-4.8-10.71-10.71"/>
	<path class="st18" d="M475.11,292.07"/>
	<path class="st18" d="M464.39,302.79"/>
</g>
<g id="buttonNext">
	<g>
		<g>
			<circle class="st17" cx="474.76" cy="302.4" r="19.85"/>
		</g>
	</g>
	<g>
		<g>
			<polygon class="st6" points="469.39,294.07 483.82,302.4 469.39,310.73 			"/>
		</g>
	</g>
</g>
</svg>
