<?xml version="1.0" encoding="utf-8"?>
<!-- Generator: Adobe Illustrator 18.1.1, SVG Export Plug-In . SVG Version: 6.00 Build 0)  -->
<svg version="1.1" id="Layer_1" xmlns="http://www.w3.org/2000/svg" xmlns:xlink="http://www.w3.org/1999/xlink" x="0px" y="0px"
	 width="220px" height="250px" viewBox="0 0 220 250" style="enable-background:new 0 0 220 250;" xml:space="preserve">
<style type="text/css">
	.st0{fill:#A2CEF9;}
	.st1{fill:none;}
	.st2{fill:#003366;}
	.st3{fill:#FFFFFF;}
	.st4{fill:none;stroke:#003366;stroke-miterlimit:10;}
	.st5{fill:none;stroke:#003366;stroke-miterlimit:10;stroke-dasharray:2,2;}
	.st6{fill:#FF0000;stroke:#003366;stroke-miterlimit:10;}
	.st7{fill:#76B82A;}
	.st8{fill:none;stroke:#FFFFFF;stroke-width:3;stroke-miterlimit:10;}
</style>
<rect id="bg_1_" x="0" y="0" class="st0" width="220" height="250"/>
<g id="CPA">
	<rect x="81.23" y="90.97" class="st1" width="61.67" height="16"/>
	<path class="st2" d="M107.56,96.55l1.14,0.29c-0.24,0.93-0.67,1.65-1.29,2.14s-1.38,0.74-2.27,0.74c-0.93,0-1.68-0.19-2.26-0.57
		s-1.02-0.92-1.32-1.64s-0.45-1.48-0.45-2.3c0-0.89,0.17-1.67,0.51-2.34s0.83-1.17,1.46-1.52s1.33-0.52,2.08-0.52
		c0.86,0,1.58,0.22,2.17,0.66s0.99,1.05,1.22,1.85l-1.12,0.26c-0.2-0.63-0.49-1.08-0.87-1.37s-0.86-0.43-1.43-0.43
		c-0.66,0-1.21,0.16-1.66,0.47s-0.75,0.74-0.93,1.27s-0.27,1.08-0.27,1.65c0,0.73,0.11,1.37,0.32,1.91s0.54,0.95,0.99,1.22
		s0.94,0.4,1.46,0.4c0.64,0,1.18-0.18,1.62-0.55S107.4,97.27,107.56,96.55z"/>
	<path class="st2" d="M110.1,99.56v-8.59h3.24c0.57,0,1.01,0.03,1.31,0.08c0.42,0.07,0.78,0.2,1.06,0.4s0.51,0.47,0.69,0.83
		s0.26,0.75,0.26,1.17c0,0.73-0.23,1.35-0.7,1.85s-1.3,0.76-2.52,0.76h-2.2v3.49H110.1z M111.23,95.05h2.22
		c0.73,0,1.26-0.14,1.56-0.41s0.46-0.66,0.46-1.15c0-0.36-0.09-0.67-0.27-0.92s-0.42-0.42-0.72-0.51c-0.19-0.05-0.54-0.08-1.06-0.08
		h-2.2V95.05z"/>
	<path class="st2" d="M116.27,99.56l3.3-8.59h1.22l3.52,8.59h-1.29l-1-2.6h-3.59l-0.94,2.6H116.27z M118.74,96.03h2.91l-0.9-2.38
		c-0.27-0.72-0.48-1.32-0.61-1.78c-0.11,0.55-0.26,1.1-0.46,1.64L118.74,96.03z"/>
</g>
<g id="acft2Shadow">
	<g>
		<path d="M101.9,16.42c0,0.1,0,0.19,0,0.29c-0.22,0.22-0.34,0.5-0.44,0.79c-0.32,0.9-0.66,1.79-0.99,2.69
			c0.2,0.07,0.4-0.01,0.62,0.14c0.21,0.14,0.53,0.13,0.8,0.18c0,0.1,0,0.19,0,0.29c-0.52-0.01-0.96,0.29-1.43,0.31
			c0.09,0.24,0.18,0.45,0.25,0.66c0.31,0.84,0.61,1.69,0.94,2.53c0.08,0.22,0.09,0.4,0.02,0.59c-0.41,0-0.8,0-1.22-0.01
			c-0.91-1.09-1.66-2.32-2.64-3.44c-0.8,0.4-1.65,0.29-2.47,0.46c-0.81,0.17-1.66,0.14-2.49,0.16c-0.87,0.02-1.74,0-2.62-0.01
			c0,0.41,0,0.79-0.01,1.14c0.16,0.03,0.29,0.05,0.55,0.1c-0.27,0.19-0.42,0.3-0.59,0.42c0,0.32,0.02,0.64-0.01,0.95
			c-0.03,0.25,0.09,0.45,0.16,0.67c0.08,0.23,0.33,0.22,0.54,0.27c0.09,0.02,0.17,0.08,0.29,0.14c-0.27,0.18-0.42,0.27-0.55,0.36
			c0.17,0.43,0.33,0.82,0.47,1.15c0.22,0.09,0.39,0.16,0.58,0.23c-0.14,0.16-0.25,0.28-0.34,0.39c0,0.39,0.34,0.63,0.34,1
			c0,0.13,0.21,0.25,0.41,0.21c0.04-0.01,0.1,0.06,0.21,0.12c-0.14,0.15-0.25,0.27-0.32,0.35c0.09,0.27,0.13,0.56,0.26,0.78
			c0.25,0.43,0.17,1.04,0.71,1.31c0.03,0.01,0,0.14,0,0.21c-0.49,0-0.97,0-1.46-0.01c-0.24-0.39-0.49-0.77-0.72-1.16
			c-0.37-0.62-0.75-1.24-1.08-1.88c-0.4-0.79-0.91-1.52-1.37-2.28c-0.31-0.53-0.62-1.06-0.89-1.52c-0.58-0.17-0.92,0.35-1.43,0.27
			c-0.47-0.08-0.96-0.02-1.43-0.02c-0.28-0.4-0.21-0.83-0.2-1.2c0.14-0.21,0.26-0.38,0.39-0.57c0.3,0.05,0.62,0.15,0.94,0.16
			c0.34,0.01,0.67,0.06,1,0.16c-0.34-0.69-0.59-1.39-1.28-1.75c-0.82,0-1.65-0.01-2.47-0.01c-0.46,0-0.93,0.03-1.38-0.02
			c-0.45-0.05-0.89-0.18-1.34-0.28c-0.91-0.2-1.61-0.5-2.27-1.04c0-0.15,0-0.29,0-0.44c0.68-0.35,1.29-0.89,2.12-0.87
			c0.22-0.26,0.56-0.12,0.84-0.27c0.22-0.12,0.53-0.01,0.82-0.14c0.26-0.12,0.62-0.02,0.94-0.02c0.95,0,1.89,0.01,2.8,0.01
			c0.74-0.36,0.86-1.12,1.36-1.72c-0.82,0.22-1.54,0.07-2.21,0.12c-0.31-0.44-0.19-0.86-0.21-1.15c0.17-0.22,0.27-0.35,0.34-0.45
			c0.59,0,1.12,0.01,1.62,0.01c0.34,0.26,0.68,0.34,1.11,0.25c0.1-0.16,0.21-0.34,0.32-0.51c0.26-0.42,0.48-0.88,0.75-1.29
			c0.66-1.01,1.23-2.07,1.87-3.09c0.4-0.63,0.73-1.31,1.18-1.92c0.49,0,0.97,0,1.46,0.01C93,9.32,92.98,9.49,92.97,9.49
			c-0.3-0.01-0.34,0.29-0.37,0.42c-0.12,0.61-0.47,1.13-0.61,1.72c0.11,0.06,0.21,0.12,0.41,0.24c-0.28,0.14-0.48,0.23-0.65,0.32
			c-0.13,0.35-0.26,0.68-0.38,1.01c0.12,0.14,0.22,0.25,0.37,0.42c-0.26,0.08-0.43,0.13-0.6,0.18c-0.16,0.4-0.32,0.79-0.48,1.18
			c0.15,0.15,0.49,0.12,0.42,0.51c-0.17,0-0.35,0-0.53,0c-0.13,0.22-0.23,0.39-0.32,0.54c0,0.52,0,1-0.01,1.49
			c0.15,0.02,0.28,0.05,0.41,0.07c0,0.08,0.01,0.13,0.01,0.17c-0.15,0.1-0.3,0.19-0.41,0.26c0,0.36,0,0.67,0,0.99
			c0.63,0,1.24-0.01,1.85,0.01c0.61,0.03,1.22,0.1,1.83,0.15c0.61,0.05,1.22,0.1,1.83,0.15c0.02,0,0.06-0.01,0.07,0
			c0.31,0.33,0.75,0.01,1.08,0.21c0.36,0.21,0.75,0.02,1.08,0.1c0.84-1.1,1.67-2.17,2.46-3.21
			C100.97,16.42,101.43,16.42,101.9,16.42z"/>
	</g>
</g>
<g id="acft2">
	<g>
		<path class="st3" d="M183.37,16.42c0,0.1,0,0.19,0,0.29c-0.22,0.22-0.34,0.5-0.44,0.79c-0.32,0.9-0.66,1.79-0.99,2.69
			c0.2,0.07,0.4-0.01,0.62,0.14c0.21,0.14,0.53,0.13,0.8,0.18c0,0.1,0,0.19,0,0.29c-0.52-0.01-0.96,0.29-1.43,0.31
			c0.09,0.24,0.18,0.45,0.25,0.66c0.31,0.84,0.61,1.69,0.94,2.53c0.08,0.22,0.09,0.4,0.02,0.59c-0.41,0-0.8,0-1.22-0.01
			c-0.91-1.09-1.66-2.32-2.64-3.44c-0.8,0.4-1.65,0.29-2.47,0.46c-0.81,0.17-1.66,0.14-2.49,0.16c-0.87,0.02-1.74,0-2.62-0.01
			c0,0.41,0,0.79-0.01,1.14c0.16,0.03,0.29,0.05,0.55,0.1c-0.27,0.19-0.42,0.3-0.59,0.42c0,0.32,0.02,0.64-0.01,0.95
			c-0.03,0.25,0.09,0.45,0.16,0.67c0.08,0.23,0.33,0.22,0.54,0.27c0.09,0.02,0.17,0.08,0.29,0.14c-0.27,0.18-0.42,0.27-0.55,0.36
			c0.17,0.43,0.33,0.82,0.47,1.15c0.22,0.09,0.39,0.16,0.58,0.23c-0.14,0.16-0.25,0.28-0.34,0.39c0,0.39,0.34,0.63,0.34,1
			c0,0.13,0.21,0.25,0.41,0.21c0.04-0.01,0.1,0.06,0.21,0.12c-0.14,0.15-0.25,0.27-0.32,0.35c0.09,0.27,0.13,0.56,0.26,0.78
			c0.25,0.43,0.17,1.04,0.71,1.31c0.03,0.01,0,0.14,0,0.21c-0.49,0-0.97,0-1.46-0.01c-0.24-0.39-0.49-0.77-0.72-1.16
			c-0.37-0.62-0.75-1.24-1.08-1.88c-0.4-0.79-0.91-1.52-1.37-2.28c-0.31-0.53-0.62-1.06-0.89-1.52c-0.58-0.17-0.92,0.35-1.43,0.27
			c-0.47-0.08-0.96-0.02-1.43-0.02c-0.28-0.4-0.21-0.83-0.2-1.2c0.14-0.21,0.26-0.38,0.39-0.57c0.3,0.05,0.62,0.15,0.94,0.16
			c0.34,0.01,0.67,0.06,1,0.16c-0.34-0.69-0.59-1.39-1.28-1.75c-0.82,0-1.65-0.01-2.47-0.01c-0.46,0-0.93,0.03-1.38-0.02
			c-0.45-0.05-0.89-0.18-1.34-0.28c-0.91-0.2-1.61-0.5-2.27-1.04c0-0.15,0-0.29,0-0.44c0.68-0.35,1.29-0.89,2.12-0.87
			c0.22-0.26,0.56-0.12,0.84-0.27c0.22-0.12,0.53-0.01,0.82-0.14c0.26-0.12,0.62-0.02,0.94-0.02c0.95,0,1.89,0.01,2.8,0.01
			c0.74-0.36,0.86-1.12,1.36-1.72c-0.82,0.22-1.54,0.07-2.21,0.12c-0.31-0.44-0.19-0.86-0.21-1.15c0.17-0.22,0.27-0.35,0.34-0.45
			c0.59,0,1.12,0.01,1.62,0.01c0.34,0.26,0.68,0.34,1.11,0.25c0.1-0.16,0.21-0.34,0.32-0.51c0.26-0.42,0.48-0.88,0.75-1.29
			c0.66-1.01,1.23-2.07,1.87-3.09c0.4-0.63,0.73-1.31,1.18-1.92c0.49,0,0.97,0,1.46,0.01c-0.02,0.09-0.04,0.26-0.05,0.26
			c-0.3-0.01-0.34,0.29-0.37,0.42c-0.12,0.61-0.47,1.13-0.61,1.72c0.11,0.06,0.21,0.12,0.41,0.24c-0.28,0.14-0.48,0.23-0.65,0.32
			c-0.13,0.35-0.26,0.68-0.38,1.01c0.12,0.14,0.22,0.25,0.37,0.42c-0.26,0.08-0.43,0.13-0.6,0.18c-0.16,0.4-0.32,0.79-0.48,1.18
			c0.15,0.15,0.49,0.12,0.42,0.51c-0.17,0-0.35,0-0.53,0c-0.13,0.22-0.23,0.39-0.32,0.54c0,0.52,0,1-0.01,1.49
			c0.15,0.02,0.28,0.05,0.41,0.07c0,0.08,0.01,0.13,0.01,0.17c-0.15,0.1-0.3,0.19-0.41,0.26c0,0.36,0,0.67,0,0.99
			c0.63,0,1.24-0.01,1.85,0.01c0.61,0.03,1.22,0.1,1.83,0.15c0.61,0.05,1.22,0.1,1.83,0.15c0.02,0,0.06-0.01,0.07,0
			c0.31,0.33,0.75,0.01,1.08,0.21c0.36,0.21,0.75,0.02,1.08,0.1c0.84-1.1,1.67-2.17,2.46-3.21
			C182.44,16.42,182.91,16.42,183.37,16.42z"/>
	</g>
	<g>
		<g>
			<path d="M159.65,20.46c0.46-0.23,0.91-0.49,1.38-0.7c0.63-0.28,1.31-0.34,1.98-0.48c1.37-0.28,2.76-0.07,4.16-0.16
				c0.12-0.06,0.27-0.14,0.44-0.23c0.29-0.46,0.59-0.93,0.92-1.46c-0.72,0.17-1.37,0.05-2.07,0.11c-0.11-0.11-0.24-0.25-0.34-0.37
				c0-0.32,0-0.59,0-0.91c0.17-0.11,0.37-0.23,0.55-0.35c0.64,0.01,1.26-0.07,1.86,0.25c0.19,0.1,0.47,0.05,0.68,0.06
				c0.88-1.46,1.75-2.89,2.61-4.33c0.41-0.69,0.79-1.39,1.19-2.09c0.09-0.16,0.2-0.32,0.3-0.48c0.49,0,0.98,0,1.47,0
				c0,0.02,0.01,0.05,0,0.07c-0.12,0.31-0.43,0.49-0.48,0.88c-0.04,0.31-0.26,0.6-0.39,0.9c-0.07,0.15-0.12,0.3-0.19,0.49
				c0.12,0.1,0.23,0.19,0.41,0.34c-0.23,0.07-0.37,0.12-0.58,0.19c-0.13,0.32-0.27,0.69-0.42,1.07c0.11,0.15,0.21,0.27,0.34,0.44
				c-0.2,0.08-0.37,0.15-0.56,0.23c-0.15,0.36-0.31,0.75-0.49,1.17c0.13,0.1,0.27,0.21,0.41,0.31c-0.12,0.31-0.41,0.18-0.67,0.25
				c-0.06,0.31-0.14,0.62-0.16,0.95c-0.03,0.33-0.01,0.67-0.01,1.01c0.17,0.04,0.3,0.08,0.42,0.11c0.05,0.37-0.31,0.15-0.41,0.33
				c0,0.32,0,0.66,0,1.03c0.27,0.1,0.56,0.04,0.84,0.05c1.11,0.05,2.22,0.05,3.32,0.17c0.73,0.08,1.45,0.2,2.18,0.28
				c0.41,0.04,0.82,0.16,1.23,0.24c0.11-0.08,0.22-0.17,0.34-0.25l0.02,0.02c0,0.07,0,0.14,0,0.25c0.42,0.07,0.83,0.15,1.26,0.23
				c0.53-1.14,1.04-2.23,1.58-3.39c-0.41,0.09-0.62,0.28-0.8,0.54c-0.16,0.23-0.38,0.41-0.57,0.62l-0.02-0.02
				c0.19-0.53,0.56-0.93,0.96-1.3c0.41,0,0.79,0,1.21,0c-0.46,1.26-0.92,2.5-1.38,3.75c0.47,0.13,0.95,0.27,1.53,0.44
				c-0.5,0.41-1.08,0.23-1.52,0.55c0.44,1.2,0.88,2.42,1.34,3.69c-0.47,0.11-0.88,0.04-1.36,0.07c-0.83-1.11-1.69-2.25-2.55-3.39
				c-0.79,0.14-1.54,0.23-2.29,0.34c-0.4,0.06-0.81,0.05-1.2,0.12c-1.34,0.24-2.7,0.09-4.07,0.16c0,0.38,0,0.74,0,1.1
				c0.14,0.04,0.27,0.07,0.49,0.13c-0.21,0.17-0.36,0.3-0.52,0.44c0.02,0.6-0.1,1.2,0.22,1.78c0.19,0.05,0.41,0.11,0.75,0.2
				c-0.24,0.18-0.38,0.28-0.52,0.39c0,0.16,0,0.33,0,0.51c0.1,0.2,0.21,0.41,0.34,0.66c0.14,0.07,0.33,0.17,0.55,0.28
				c-0.15,0.11-0.29,0.2-0.4,0.28c0.16,0.38,0.32,0.77,0.49,1.17c0.17,0.05,0.32,0.09,0.55,0.15c-0.14,0.14-0.24,0.24-0.38,0.38
				c0.41,0.69,0.39,1.6,1.12,2.25c-0.51,0.15-0.96,0.04-1.46,0.09c-0.2-0.26-0.47-0.51-0.63-0.82c-0.49-0.97-1.14-1.86-1.61-2.83
				c-0.3-0.61-0.6-1.22-0.92-1.82c-0.27-0.5-0.59-0.97-0.92-1.49c-0.89,0.29-1.75,0.47-2.72,0.32c-0.06-0.07-0.17-0.2-0.3-0.35
				c0-0.27,0-0.56,0-0.87c0.09-0.06,0.18-0.13,0.28-0.2c0.01,0.38,0.02,0.77,0.02,1.13c0.66,0,1.26,0,1.86,0
				c0.01-0.08,0.01-0.13,0.02-0.24c-0.46-0.01-0.91-0.02-1.37-0.03c-0.03,0-0.05-0.07-0.11-0.15c0.08-0.09,0.17-0.19,0.27-0.3
				c0.4,0,0.78,0,1.36,0c-0.22-0.15-0.31-0.21-0.33-0.23c-0.63-0.07-1.17-0.13-1.72-0.19c0.06-0.09,0.13-0.19,0.18-0.26
				c0.64,0.09,1.26,0.18,1.87,0.27c0.03,0.04,0.05,0.08-0.01-0.01c0.09,0.06,0.05,0.03,0.01,0.01c-0.08-0.41-0.4-0.71-0.57-1.07
				c-0.09-0.18-0.2-0.35-0.3-0.53c0.26,0.15,0.53-0.06,0.79,0.01c0.39,0.73,0.78,1.46,1.18,2.18c0.19,0.35,0.4,0.69,0.6,1.04
				c0.19,0.33,0.35,0.67,0.56,0.98c0.21,0.32,0.51,0.59,0.43,1.02c0.37,0.39,0.5,0.91,0.76,1.36c0.54,0.91,1.08,1.83,1.62,2.76
				c0.14,0,0.3,0,0.5,0c-0.04-0.54-0.36-0.94-0.47-1.38c-0.2-0.1-0.36-0.18-0.48-0.24c-0.29-0.6-0.57-1.14-0.81-1.7
				c-0.17-0.4-0.51-0.74-0.56-1.14c-0.06-0.54-0.29-0.99-0.47-1.47c-0.03-0.08,0-0.19,0-0.27c0.11-0.06,0.19-0.1,0.27-0.15
				c-0.19-0.08-0.38-0.16-0.58-0.25c0.08-0.11,0.12-0.17,0.16-0.23c-0.08-0.22-0.18-0.43-0.23-0.66c-0.04-0.19-0.07-0.42,0.01-0.57
				c0.11-0.22-0.06-0.4,0.03-0.62c0.1-0.26,0.09-0.55-0.01-0.83c-0.4,0-0.77,0.04-1.13-0.01c-0.32-0.04-0.62,0.07-0.95,0.06
				c-0.32-0.01-0.63-0.14-0.95-0.05c-0.1,0.03-0.19,0.09-0.29,0.14c-0.38-0.16-0.79-0.14-1.2-0.14c-0.75,0-1.51-0.03-2.26,0.01
				c-1.16,0.05-2.24-0.31-3.32-0.62c-0.41-0.12-0.76-0.47-1.13-0.71C159.65,20.75,159.65,20.6,159.65,20.46z M172.69,30.87
				c0.03,0.04,0.05,0.08,0.08,0.12c0.02-0.01,0.03-0.03,0.05-0.04C172.78,30.92,172.74,30.89,172.69,30.87
				c-0.02-0.05-0.05-0.09-0.07-0.13c-0.01,0.01-0.03,0.03-0.04,0.04C172.61,30.82,172.65,30.84,172.69,30.87z M162.72,21.78
				C162.75,21.82,162.78,21.86,162.72,21.78C162.81,21.83,162.77,21.8,162.72,21.78C162.7,21.74,162.67,21.69,162.72,21.78
				C162.64,21.73,162.68,21.75,162.72,21.78z M172.26,11.52c0.04-0.03,0.08-0.05-0.02,0.01C172.31,11.43,172.28,11.47,172.26,11.52
				c-0.05,0.02-0.09,0.05,0.01-0.02C172.2,11.6,172.23,11.56,172.26,11.52z M172.7,10.78c0.04-0.03,0.08-0.06,0.12-0.08
				c-0.01-0.01-0.03-0.03-0.04-0.04C172.75,10.7,172.72,10.74,172.7,10.78c-0.05,0.02-0.09,0.05-0.13,0.07
				c0.01,0.01,0.03,0.03,0.04,0.04C172.65,10.86,172.67,10.82,172.7,10.78z M169.62,25.29C169.59,25.25,169.57,25.21,169.62,25.29
				C169.53,25.24,169.58,25.27,169.62,25.29c0.01,0.12-0.05,0.27,0.15,0.29c-0.02,0.22,0.07,0.37,0.29,0.44
				c0.01,0.12-0.05,0.27,0.15,0.29c0.01,0.12-0.05,0.27,0.15,0.29c0.05,0.05,0.1,0.1,0.15,0.15c0.01,0.12-0.04,0.27,0.15,0.29
				c0.01,0.12-0.04,0.27,0.15,0.29c0.03,0.04,0.05,0.08,0-0.01c0.09,0.06,0.05,0.03,0.01,0c-0.01-0.12,0.04-0.27-0.15-0.29
				c-0.01-0.12,0.04-0.27-0.15-0.29c-0.05-0.05-0.1-0.1-0.15-0.15c-0.01-0.12,0.05-0.27-0.15-0.29c-0.01-0.12,0.05-0.27-0.15-0.29
				c0.02-0.22-0.07-0.37-0.29-0.44C169.75,25.47,169.81,25.32,169.62,25.29z M171.81,15.03c-0.16,0.06-0.2,0.14-0.01,0.32
				C171.81,15.2,171.81,15.12,171.81,15.03c0.04-0.02,0.08-0.05-0.01,0.01C171.87,14.95,171.84,14.99,171.81,15.03z M170.06,15.32
				c0.19-0.03,0.13-0.18,0.15-0.29c0.22-0.07,0.31-0.22,0.29-0.44c0.19-0.03,0.13-0.18,0.15-0.29c0.19-0.03,0.13-0.18,0.15-0.29
				c0.05-0.05,0.1-0.1,0.15-0.15c0.19-0.03,0.13-0.18,0.15-0.29c0.17-0.05,0.2-0.14,0.01-0.32c-0.01,0.15-0.01,0.23-0.02,0.32
				c-0.19,0.03-0.13,0.18-0.15,0.29c-0.05,0.05-0.1,0.1-0.15,0.15c-0.19,0.03-0.13,0.18-0.15,0.29c-0.19,0.03-0.13,0.18-0.15,0.29
				c-0.22,0.07-0.31,0.22-0.29,0.44C170.01,15.06,170.07,15.21,170.06,15.32c-0.19,0.03-0.14,0.18-0.15,0.29
				c-0.22,0.07-0.31,0.22-0.29,0.44c-0.04,0.03-0.08,0.05,0,0c-0.05,0.08-0.03,0.04,0,0c0.22-0.07,0.31-0.22,0.29-0.44
				C170.1,15.59,170.04,15.44,170.06,15.32z M171.67,12.54c0.19-0.03,0.13-0.18,0.15-0.29c0.04-0.03,0.08-0.05-0.02,0.01
				c0.06-0.1,0.04-0.06,0.01-0.02C171.63,12.27,171.68,12.42,171.67,12.54c-0.17,0.05-0.2,0.13-0.02,0.31
				C171.66,12.71,171.67,12.63,171.67,12.54z M172.11,29.84c-0.03-0.04-0.05-0.08,0.01,0.02C172.03,29.79,172.07,29.82,172.11,29.84
				c0.01,0.12-0.04,0.27,0.14,0.3c0.03,0.04,0.05,0.08-0.02-0.02c0.1,0.07,0.06,0.04,0.02,0.02
				C172.21,30.03,172.16,29.93,172.11,29.84z M171.52,28.81c-0.03-0.04-0.05-0.08,0.01,0.01C171.44,28.76,171.48,28.79,171.52,28.81
				c0.01,0.12-0.05,0.27,0.14,0.3c0.03,0.04,0.05,0.08-0.01-0.01c0.09,0.06,0.05,0.04,0.01,0.01
				C171.66,28.99,171.71,28.84,171.52,28.81z M169.03,17.08c0.29-0.08,0.29-0.35,0.5-0.69C169.13,16.61,169.05,16.83,169.03,17.08
				c-0.19,0.03-0.13,0.18-0.15,0.29c-0.32,0.14-0.39,0.43-0.44,0.73c-0.29,0.08-0.29,0.35-0.33,0.59c0.16-0.16,0.35-0.31,0.33-0.59
				c0.32-0.14,0.39-0.43,0.44-0.73C169.08,17.35,169.02,17.2,169.03,17.08z M169.03,24.27c0.12,0.45,0.12,0.45,0.49,0.71
				C169.36,24.67,169.34,24.38,169.03,24.27c-0.11-0.39-0.2-0.79-0.59-1.03c-0.02-0.25-0.1-0.47-0.37-0.57
				c0.08,0.22,0.07,0.49,0.37,0.57C168.56,23.63,168.64,24.03,169.03,24.27z M181.93,19.87c0.04-0.02,0.1-0.03,0.12-0.07
				c0.29-0.76,0.57-1.53,0.84-2.29c0.08-0.22,0.14-0.45,0.2-0.68c-0.15,0.07-0.23,0.16-0.28,0.26c-0.31,0.66-0.6,1.32-0.91,1.98
				c-0.13,0.28-0.28,0.54-0.4,0.82c-0.03,0.07,0.02,0.17,0.04,0.27c0.15-0.02,0.26-0.03,0.37-0.04
				C181.92,20.01,181.93,19.94,181.93,19.87C181.93,19.87,181.93,19.87,181.93,19.87z M177.28,20.02c-0.26-0.16-0.63-0.09-0.72-0.45
				c-0.64,0.02-1.23-0.1-1.82-0.12c-1.85-0.06-3.71-0.03-5.57-0.02c-0.21,0-0.41,0.07-0.52,0.09c-0.32-0.04-0.55-0.09-0.78-0.09
				c-1.54,0-3.08,0-4.61,0.01c-0.02,0-0.04,0.03-0.06,0.06c-0.02,0.1-0.05,0.21-0.07,0.35c-0.24,0.07-0.49,0.14-0.72,0.2
				c-0.09-0.14-0.15-0.23-0.2-0.31c-0.17,0-0.31,0-0.31,0c-0.41,0.36-0.74,0.65-1.1,0.96c0.29,0.21,0.54,0.35,0.74,0.55
				c0.21,0.21,0.33,0.51,0.7,0.49c0.03-0.13,0.07-0.26,0.12-0.44c0.29,0.08,0.55,0.16,0.79,0.23c0.03,0.15,0.05,0.27,0.06,0.36
				c0.5,0.03,0.96,0.08,1.41,0.08c0.84,0.02,1.67,0.01,2.51,0.02c0.18,0,0.35,0.04,0.52,0.04c0.16,0,0.35-0.11,0.46-0.06
				c0.29,0.14,0.3-0.28,0.54-0.21c0.11,0.03,0.23,0.01,0.32,0.01c0.07,0.13,0.11,0.21,0.14,0.26c0.17,0.09,0.27-0.19,0.41-0.01
				c0.89-0.03,1.79-0.01,2.68-0.01c0.37,0,0.76,0.19,1.09,0.03c0.38-0.18,0.76-0.11,1.13-0.12c0.74-0.02,1.49,0.06,2.21-0.22
				c0.03-0.07,0.07-0.15,0.14-0.28c0.34,0.07,0.66,0.18,0.98,0.19c0.33,0.01,0.65-0.13,0.98-0.12c0.79,0.01,1.52-0.38,2.31-0.37
				c-0.16-0.06-0.32-0.08-0.48-0.08c-1.12,0-2.25-0.01-3.37,0.01c-0.28,0-0.52-0.06-0.75-0.18c-0.03-0.02-0.04-0.08-0.08-0.16
				c0.07-0.07,0.15-0.16,0.25-0.27c0.33,0,0.67,0.05,1-0.01c0.74-0.14,1.84-0.17,2.49,0c0.25,0.06,0.71,0.03,1.02-0.06
				c-1.15-0.2-2.33-0.41-3.5-0.62C177.5,19.83,177.39,19.93,177.28,20.02z M170.87,19.11c0.21-0.52,0.01-1.04-0.01-1.53
				c-0.02-0.56,0.27-1,0.26-1.5c0.16-0.03,0.26-0.05,0.41-0.08c-0.14-0.08-0.22-0.12-0.36-0.2c0.32-0.77,0.62-1.55,1.02-2.29
				c0.39-0.73,0.67-1.53,0.97-2.24c0.2-0.1,0.35-0.17,0.53-0.26c0.1-0.45,0.43-0.85,0.46-1.38c-0.21,0-0.37,0-0.51,0
				c-0.28,0.51-0.54,1.01-0.82,1.51c-0.45,0.8-0.9,1.6-1.36,2.4c-0.54,0.94-1.09,1.88-1.63,2.81c-0.34,0.59-0.71,1.17-1.02,1.78
				c-0.15,0.29-0.46,0.56-0.33,0.98C169.29,19.11,170.09,19.11,170.87,19.11z M182.72,24.66c-0.22-0.43-0.42-0.81-0.61-1.18
				c-0.18-0.36-0.3-0.75-0.53-1.07c-0.23-0.33-0.15-0.79-0.49-1.06c-0.4,0.1-0.8,0.2-1.24,0.31c0.79,1.05,1.55,2.05,2.31,3.06
				C182.34,24.7,182.5,24.69,182.72,24.66z M168.29,16.98c-0.47-0.14-0.99,0.06-1.53-0.14c0.13-0.15,0.22-0.26,0.3-0.34
				c0.42-0.02,0.82,0.02,1.29-0.03c-0.15-0.14-0.22-0.2-0.28-0.26c-0.28,0-0.55-0.01-0.81,0c-0.28,0.01-0.57-0.05-0.81,0.04
				c0,0.35,0,0.66,0,0.95c0.64,0,1.24,0,1.84,0C168.27,17.12,168.28,17.07,168.29,16.98z M182.99,24.7
				c0.04-0.02,0.09-0.04,0.13-0.05c-0.42-1.15-0.83-2.29-1.25-3.43c-0.13,0.07-0.25,0.14-0.42,0.24
				C181.97,22.54,182.48,23.62,182.99,24.7z M180.56,20.75c0.01-0.04,0.01-0.07,0.02-0.11c-1,0-2.01,0-3.05,0
				c0.07,0.06,0.11,0.11,0.14,0.11C178.63,20.75,179.59,20.75,180.56,20.75z M171.63,17.06c0-0.25,0-0.47,0-0.77
				c-0.17,0.11-0.28,0.18-0.37,0.24c0,0.19,0,0.35,0,0.53C171.39,17.06,171.5,17.06,171.63,17.06z M160.51,21.18
				c-0.11-0.16-0.2-0.29-0.29-0.43c0.09-0.15,0.18-0.28,0.26-0.41c-0.03-0.02-0.06-0.05-0.1-0.07c-0.15,0.13-0.29,0.26-0.44,0.39
				C160.13,20.86,160.1,21.19,160.51,21.18z M171.68,25.07c-0.02-0.29-0.03-0.47-0.04-0.66c-0.16,0.01-0.27,0.01-0.36,0.02
				C171.17,24.76,171.3,24.91,171.68,25.07z M171.34,18.1c0.01-0.18,0.04-0.37,0.03-0.54c-0.01-0.07-0.12-0.13-0.18-0.19
				C171.14,17.65,170.98,17.89,171.34,18.1z M171.06,23.42c0.03,0.22,0.05,0.39,0.09,0.65c0.29-0.26,0.23-0.46,0.17-0.67
				C171.25,23.4,171.2,23.41,171.06,23.42z M171.27,18.97c0.14-0.23,0.14-0.45,0-0.84C171.27,18.53,171.27,18.75,171.27,18.97z
				 M171.27,23.07c0.04-0.22,0.21-0.45,0-0.68C171.27,22.64,171.27,22.85,171.27,23.07z M168.13,19.11
				c-0.06-0.11-0.11-0.21-0.17-0.32c-0.12,0.15-0.17,0.22-0.28,0.34C167.88,19.13,168,19.12,168.13,19.11z M171.78,26.05
				c-0.03,0-0.06,0.01-0.08,0.01c0.01,0.07,0.02,0.15,0.03,0.22c0.03,0,0.06-0.01,0.09-0.01C171.8,26.2,171.79,26.12,171.78,26.05z
				 M172.07,27.07c-0.03,0-0.05,0.01-0.08,0.01c0.01,0.08,0.02,0.15,0.02,0.23c0.03,0,0.06-0.01,0.09-0.01
				C172.09,27.22,172.08,27.15,172.07,27.07z M170.97,28.06c0.03,0,0.06-0.01,0.08-0.01c-0.01-0.07-0.02-0.15-0.03-0.22
				c-0.03,0-0.06,0.01-0.09,0.01C170.96,27.91,170.96,27.99,170.97,28.06z M172.22,14.02c-0.03,0-0.05,0.01-0.08,0.01
				c0.01,0.08,0.02,0.15,0.02,0.23c0.03,0,0.06-0.01,0.09-0.01C172.24,14.17,172.23,14.1,172.22,14.02z M168.46,16.39
				c0,0.03,0.01,0.05,0.01,0.08c0.08-0.01,0.15-0.02,0.23-0.02c0-0.03-0.01-0.06-0.01-0.09C168.61,16.37,168.54,16.38,168.46,16.39z
				 M168.68,17.07c0-0.04,0-0.09,0-0.13c-0.07,0.01-0.15,0.02-0.22,0.03c0,0.02,0,0.04,0,0.06
				C168.54,17.05,168.61,17.06,168.68,17.07z M162.59,19.62c0,0.03,0.01,0.05,0.01,0.08c0.08-0.01,0.15-0.02,0.23-0.02
				c0-0.03-0.01-0.06-0.01-0.09C162.75,19.6,162.67,19.61,162.59,19.62z M168.46,24.89c0,0.03,0.01,0.05,0.01,0.08
				c0.08-0.01,0.15-0.02,0.23-0.02c0-0.03-0.01-0.06-0.01-0.09C168.61,24.87,168.54,24.88,168.46,24.89z M173.1,10.1
				c-0.01-0.01-0.03-0.02-0.04-0.02c-0.02,0.01-0.03,0.03-0.05,0.04c0.03,0.01,0.06,0.02,0.09,0.03
				C173.1,10.13,173.1,10.11,173.1,10.1z M172.96,10.4c-0.01-0.02-0.03-0.03-0.04-0.05c-0.02,0.01-0.03,0.03-0.05,0.04
				c0.02,0.02,0.04,0.03,0.06,0.05C172.94,10.43,172.95,10.42,172.96,10.4z M172.51,11.12c-0.01-0.01-0.03-0.02-0.04-0.02
				c-0.02,0.01-0.03,0.03-0.05,0.04c0.03,0.01,0.06,0.02,0.09,0.03C172.51,11.15,172.51,11.14,172.51,11.12z M172.08,11.87
				c-0.01-0.02-0.03-0.03-0.04-0.05c-0.02,0.01-0.03,0.03-0.05,0.04c0.02,0.02,0.04,0.03,0.07,0.05
				C172.06,11.9,172.07,11.88,172.08,11.87z M171.92,15.67c-0.01-0.01-0.03-0.02-0.04-0.02c-0.02,0.01-0.03,0.03-0.05,0.04
				c0.03,0.01,0.06,0.02,0.09,0.03C171.92,15.7,171.92,15.68,171.92,15.67z M171.6,15.59c0.02-0.01,0.03-0.03,0.05-0.04
				c-0.01-0.02-0.03-0.03-0.04-0.05c-0.02,0.02-0.03,0.04-0.05,0.07C171.58,15.57,171.59,15.58,171.6,15.59z M172.04,15.44
				c0.02-0.01,0.03-0.03,0.05-0.04c-0.01-0.02-0.03-0.03-0.04-0.05c-0.02,0.02-0.03,0.04-0.05,0.07
				C172.02,15.43,172.03,15.43,172.04,15.44z M172.23,14.95c-0.01-0.02-0.03-0.03-0.04-0.05c-0.02,0.01-0.03,0.03-0.05,0.04
				c0.02,0.02,0.04,0.03,0.06,0.05C172.21,14.98,172.22,14.96,172.23,14.95z M168.56,24.33c-0.01-0.02-0.03-0.03-0.04-0.05
				c-0.02,0.01-0.03,0.03-0.05,0.04c0.02,0.02,0.04,0.03,0.07,0.05C168.55,24.36,168.55,24.35,168.56,24.33z M172.08,14.51
				c-0.01-0.02-0.03-0.03-0.04-0.05c-0.02,0.01-0.03,0.03-0.05,0.04c0.02,0.02,0.04,0.03,0.06,0.05
				C172.06,14.54,172.07,14.52,172.08,14.51z M171.78,25.35c-0.01-0.01-0.03-0.02-0.04-0.02c-0.02,0.01-0.03,0.03-0.05,0.04
				c0.03,0.01,0.06,0.02,0.09,0.03C171.78,25.38,171.78,25.36,171.78,25.35z M171.92,25.64c-0.01-0.01-0.03-0.02-0.04-0.02
				c-0.02,0.01-0.03,0.03-0.05,0.04c0.03,0.01,0.06,0.02,0.09,0.03C171.92,25.67,171.92,25.65,171.92,25.64z M171.57,25.77
				c-0.01,0.01-0.02,0.03-0.02,0.04c0.01,0.02,0.03,0.03,0.04,0.05c0.01-0.03,0.02-0.06,0.03-0.09
				C171.6,25.77,171.59,25.77,171.57,25.77z M172.23,26.39c-0.01-0.02-0.03-0.03-0.04-0.05c-0.02,0.01-0.03,0.03-0.05,0.04
				c0.02,0.02,0.04,0.03,0.06,0.05C172.21,26.42,172.22,26.4,172.23,26.39z M171.92,26.81c-0.01-0.01-0.03-0.02-0.04-0.02
				c-0.02,0.01-0.03,0.03-0.05,0.04c0.03,0.01,0.06,0.02,0.09,0.03C171.92,26.84,171.92,26.83,171.92,26.81z M172.34,27.17
				c0.02-0.01,0.03-0.03,0.05-0.04c-0.01-0.02-0.03-0.03-0.04-0.05c-0.02,0.02-0.03,0.04-0.05,0.07
				C172.31,27.16,172.32,27.16,172.34,27.17z M171.35,28.44c-0.01-0.02-0.03-0.03-0.04-0.05c-0.02,0.01-0.03,0.03-0.05,0.04
				c0.02,0.02,0.04,0.03,0.07,0.05C171.33,28.47,171.34,28.45,171.35,28.44z M171.92,29.45c-0.01-0.01-0.03-0.02-0.04-0.02
				c-0.02,0.01-0.03,0.03-0.05,0.04c0.03,0.01,0.06,0.02,0.09,0.03C171.92,29.48,171.92,29.47,171.92,29.45z M172.51,30.48
				c-0.01-0.01-0.03-0.02-0.04-0.02c-0.02,0.01-0.03,0.03-0.05,0.04c0.03,0.01,0.06,0.02,0.09,0.03
				C172.51,30.51,172.51,30.49,172.51,30.48z M172.89,31.2c-0.01,0.01-0.02,0.03-0.02,0.04c0.01,0.02,0.03,0.03,0.04,0.05
				c0.01-0.03,0.02-0.06,0.03-0.09C172.92,31.2,172.91,31.2,172.89,31.2z"/>
			<path d="M180.48,18.85c0.01,0.31-0.22,0.45-0.44,0.59l-0.02-0.02c0-0.31,0.22-0.45,0.44-0.59L180.48,18.85z"/>
			<path d="M180.04,19.44c-0.05,0.05-0.1,0.1-0.15,0.15c0,0-0.02-0.02-0.02-0.02c0.05-0.05,0.1-0.1,0.14-0.15
				C180.02,19.42,180.04,19.44,180.04,19.44z"/>
			<path d="M180.62,18.7c-0.05,0.05-0.1,0.1-0.14,0.15l-0.02-0.01c0.05-0.05,0.1-0.1,0.15-0.14
				C180.61,18.69,180.62,18.7,180.62,18.7z"/>
			<path d="M180.76,18.55c-0.05,0.05-0.1,0.1-0.14,0.15l-0.01-0.01C180.66,18.64,180.71,18.6,180.76,18.55L180.76,18.55z"/>
			<path d="M180.76,18.55C180.78,18.51,180.81,18.47,180.76,18.55C180.84,18.5,180.8,18.53,180.76,18.55L180.76,18.55z"/>
			<path d="M181.05,18.11C181.03,18.15,181,18.19,181.05,18.11C180.97,18.16,181.01,18.14,181.05,18.11
				C181.05,18.11,181.05,18.11,181.05,18.11z"/>
			<path d="M181.2,17.97c-0.05,0.05-0.1,0.1-0.15,0.14c0,0,0,0,0,0C181.1,18.06,181.15,18.01,181.2,17.97
				C181.2,17.96,181.2,17.97,181.2,17.97z"/>
			<path d="M181.2,17.96c0.05-0.05,0.09-0.1,0.14-0.15c0,0,0.02,0.02,0.02,0.02C181.3,17.87,181.25,17.92,181.2,17.96
				C181.2,17.97,181.2,17.96,181.2,17.96z"/>
			<path d="M168.96,18.67c-0.01-0.01-0.03-0.01-0.04-0.02c0.02-0.02,0.03-0.04,0.05-0.07c0.01,0.02,0.03,0.03,0.04,0.05
				C169,18.64,168.98,18.65,168.96,18.67z"/>
			<path d="M181.93,19.87C181.89,19.84,181.85,19.82,181.93,19.87C181.88,19.79,181.91,19.83,181.93,19.87L181.93,19.87z"/>
		</g>
	</g>
</g>
<g id="acft1Shadow">
	<g>
		<path d="M81.04,189.66c-0.04-0.09-0.08-0.18-0.12-0.26c0.1-0.3,0.09-0.6,0.06-0.91c-0.09-0.95-0.17-1.9-0.26-2.85
			c-0.21,0.03-0.36,0.18-0.62,0.14c-0.25-0.04-0.53,0.11-0.8,0.18c-0.04-0.09-0.08-0.18-0.12-0.26c0.47-0.21,0.75-0.67,1.16-0.89
			c-0.19-0.18-0.35-0.33-0.51-0.48c-0.64-0.63-1.27-1.27-1.93-1.89c-0.17-0.16-0.25-0.32-0.27-0.53c0.37-0.17,0.73-0.34,1.11-0.52
			c1.29,0.59,2.5,1.39,3.85,1.98c0.55-0.7,1.37-0.97,2.04-1.47c0.66-0.5,1.44-0.83,2.18-1.2c0.78-0.39,1.58-0.74,2.37-1.11
			c-0.17-0.37-0.33-0.71-0.48-1.04c-0.16,0.04-0.28,0.08-0.54,0.14c0.16-0.29,0.26-0.46,0.35-0.63c-0.14-0.29-0.29-0.57-0.39-0.86
			c-0.08-0.24-0.28-0.37-0.43-0.54c-0.17-0.18-0.39-0.05-0.6-0.01c-0.09,0.02-0.18,0-0.32,0c0.17-0.28,0.26-0.42,0.35-0.56
			c-0.34-0.31-0.65-0.6-0.91-0.84c-0.24,0.01-0.42,0.02-0.63,0.04c0.06-0.21,0.1-0.36,0.14-0.5c-0.16-0.35-0.57-0.43-0.73-0.76
			c-0.06-0.12-0.29-0.13-0.46-0.02c-0.04,0.03-0.12-0.01-0.24-0.02c0.06-0.19,0.11-0.35,0.14-0.46c-0.2-0.21-0.35-0.45-0.57-0.6
			c-0.41-0.28-0.59-0.87-1.2-0.88c-0.03,0-0.06-0.12-0.09-0.19c0.44-0.21,0.88-0.41,1.32-0.62c0.38,0.25,0.77,0.48,1.15,0.74
			c0.6,0.41,1.2,0.8,1.78,1.24c0.7,0.54,1.47,0.99,2.21,1.48c0.51,0.34,1.01,0.69,1.46,1c0.6-0.09,0.68-0.71,1.18-0.85
			c0.46-0.13,0.88-0.39,1.3-0.59c0.43,0.24,0.54,0.66,0.69,1c-0.04,0.25-0.07,0.45-0.11,0.68c-0.29,0.08-0.62,0.13-0.92,0.25
			c-0.31,0.14-0.63,0.23-0.97,0.28c0.6,0.48,1.12,1.01,1.9,1.04c0.75-0.35,1.49-0.7,2.24-1.05c0.42-0.2,0.82-0.42,1.26-0.58
			c0.43-0.15,0.88-0.22,1.33-0.32c0.91-0.2,1.67-0.24,2.49-0.02c0.06,0.13,0.12,0.26,0.19,0.4c-0.46,0.61-0.78,1.35-1.55,1.69
			c-0.09,0.33-0.46,0.35-0.64,0.6c-0.15,0.2-0.47,0.23-0.68,0.47c-0.19,0.22-0.55,0.29-0.84,0.42c-0.86,0.4-1.71,0.8-2.53,1.18
			c-0.51,0.64-0.3,1.38-0.5,2.14c0.64-0.55,1.36-0.72,1.95-1.05c0.46,0.26,0.54,0.7,0.68,0.95c-0.06,0.27-0.09,0.43-0.12,0.55
			c-0.54,0.25-1.02,0.47-1.47,0.69c-0.42-0.09-0.76-0.02-1.11,0.24c-0.02,0.19-0.05,0.4-0.07,0.6c-0.06,0.49-0.05,1-0.12,1.48
			c-0.17,1.19-0.22,2.4-0.37,3.59c-0.09,0.74-0.1,1.5-0.25,2.24c-0.44,0.21-0.88,0.41-1.32,0.62c-0.02-0.09-0.08-0.25-0.06-0.26
			c0.28-0.12,0.19-0.41,0.15-0.54c-0.16-0.6-0.05-1.22-0.18-1.82c-0.12-0.01-0.25-0.02-0.47-0.04c0.2-0.25,0.33-0.41,0.45-0.57
			c-0.03-0.37-0.06-0.73-0.09-1.07c-0.17-0.07-0.31-0.13-0.51-0.22c0.2-0.18,0.33-0.3,0.46-0.42c-0.02-0.43-0.05-0.85-0.07-1.28
			c-0.2-0.08-0.5,0.1-0.6-0.28c0.15-0.07,0.32-0.15,0.48-0.22c0.02-0.25,0.04-0.45,0.06-0.62c-0.22-0.47-0.42-0.91-0.63-1.35
			c-0.15,0.04-0.28,0.08-0.4,0.11c-0.04-0.07-0.06-0.11-0.08-0.15c0.1-0.15,0.19-0.3,0.26-0.41c-0.15-0.33-0.28-0.61-0.42-0.9
			c-0.58,0.27-1.12,0.54-1.67,0.78c-0.57,0.24-1.15,0.43-1.72,0.65c-0.57,0.21-1.15,0.43-1.72,0.64c-0.02,0.01-0.05,0.03-0.07,0.03
			c-0.42-0.16-0.68,0.31-1.07,0.28c-0.42-0.04-0.69,0.3-1.02,0.37c-0.29,1.35-0.58,2.67-0.86,3.95
			C81.88,189.26,81.46,189.46,81.04,189.66z"/>
	</g>
</g>
<g id="acft1">
	<g>
		<path class="st3" d="M11.04,221.66c-0.04-0.09-0.08-0.18-0.12-0.26c0.1-0.3,0.09-0.6,0.06-0.91c-0.09-0.95-0.17-1.9-0.26-2.85
			c-0.21,0.03-0.36,0.18-0.62,0.14c-0.25-0.04-0.53,0.11-0.8,0.18c-0.04-0.09-0.08-0.18-0.12-0.26c0.47-0.21,0.75-0.67,1.16-0.89
			c-0.19-0.18-0.35-0.33-0.51-0.48c-0.64-0.63-1.27-1.27-1.93-1.89c-0.17-0.16-0.25-0.32-0.27-0.53c0.37-0.17,0.73-0.34,1.11-0.52
			c1.29,0.59,2.5,1.39,3.85,1.98c0.55-0.7,1.37-0.97,2.04-1.47c0.66-0.5,1.44-0.83,2.18-1.2c0.78-0.39,1.58-0.74,2.37-1.11
			c-0.17-0.37-0.33-0.71-0.48-1.04c-0.16,0.04-0.28,0.08-0.54,0.14c0.16-0.29,0.26-0.46,0.35-0.63c-0.14-0.29-0.29-0.57-0.39-0.86
			c-0.08-0.24-0.28-0.37-0.43-0.54c-0.17-0.18-0.39-0.05-0.6-0.01c-0.09,0.02-0.18,0-0.32,0c0.17-0.28,0.26-0.42,0.35-0.56
			c-0.34-0.31-0.65-0.6-0.91-0.84c-0.24,0.01-0.42,0.02-0.63,0.04c0.06-0.21,0.1-0.36,0.14-0.5c-0.16-0.35-0.57-0.43-0.73-0.76
			c-0.06-0.12-0.29-0.13-0.46-0.02c-0.04,0.03-0.12-0.01-0.24-0.02c0.06-0.19,0.11-0.35,0.14-0.46c-0.2-0.21-0.35-0.45-0.57-0.6
			c-0.41-0.28-0.59-0.87-1.2-0.88c-0.03,0-0.06-0.12-0.09-0.19c0.44-0.21,0.88-0.41,1.32-0.62c0.38,0.25,0.77,0.48,1.15,0.74
			c0.6,0.41,1.2,0.8,1.78,1.24c0.7,0.54,1.47,0.99,2.21,1.48c0.51,0.34,1.01,0.69,1.46,1c0.6-0.09,0.68-0.71,1.18-0.85
			c0.46-0.13,0.88-0.39,1.3-0.59c0.43,0.24,0.54,0.66,0.69,1c-0.04,0.25-0.07,0.45-0.11,0.68c-0.29,0.08-0.62,0.13-0.92,0.25
			c-0.31,0.14-0.63,0.23-0.97,0.28c0.6,0.48,1.12,1.01,1.9,1.04c0.75-0.35,1.49-0.7,2.24-1.05c0.42-0.2,0.82-0.42,1.26-0.58
			c0.43-0.15,0.88-0.22,1.33-0.32c0.91-0.2,1.67-0.24,2.49-0.02c0.06,0.13,0.12,0.26,0.19,0.4c-0.46,0.61-0.78,1.35-1.55,1.69
			c-0.09,0.33-0.46,0.35-0.64,0.6c-0.15,0.2-0.47,0.23-0.68,0.47c-0.19,0.22-0.55,0.29-0.84,0.42c-0.86,0.4-1.71,0.8-2.53,1.18
			c-0.51,0.64-0.3,1.38-0.5,2.14c0.64-0.55,1.36-0.72,1.95-1.05c0.46,0.26,0.54,0.7,0.68,0.95c-0.06,0.27-0.09,0.43-0.12,0.55
			c-0.54,0.25-1.02,0.47-1.47,0.69c-0.42-0.09-0.76-0.02-1.11,0.24c-0.02,0.19-0.05,0.4-0.07,0.6c-0.06,0.49-0.05,1-0.12,1.48
			c-0.17,1.19-0.22,2.4-0.37,3.59c-0.09,0.74-0.1,1.5-0.25,2.24c-0.44,0.21-0.88,0.41-1.32,0.62c-0.02-0.09-0.08-0.25-0.06-0.26
			c0.28-0.12,0.19-0.41,0.15-0.54c-0.16-0.6-0.05-1.22-0.18-1.82c-0.12-0.01-0.25-0.02-0.47-0.04c0.2-0.25,0.33-0.41,0.45-0.57
			c-0.03-0.37-0.06-0.73-0.09-1.07c-0.17-0.07-0.31-0.13-0.51-0.22c0.2-0.18,0.33-0.3,0.46-0.42c-0.02-0.43-0.05-0.85-0.07-1.28
			c-0.2-0.08-0.5,0.1-0.6-0.28c0.15-0.07,0.32-0.15,0.48-0.22c0.02-0.25,0.04-0.45,0.06-0.62c-0.22-0.47-0.42-0.91-0.63-1.35
			c-0.15,0.04-0.28,0.08-0.4,0.11c-0.04-0.07-0.06-0.11-0.08-0.15c0.1-0.15,0.19-0.3,0.26-0.41c-0.15-0.33-0.28-0.61-0.42-0.9
			c-0.58,0.27-1.12,0.54-1.67,0.78c-0.57,0.24-1.15,0.43-1.72,0.65c-0.57,0.21-1.15,0.43-1.72,0.64c-0.02,0.01-0.05,0.03-0.07,0.03
			c-0.42-0.16-0.68,0.31-1.07,0.28c-0.42-0.04-0.69,0.3-1.02,0.37c-0.29,1.35-0.58,2.67-0.86,3.95
			C11.88,221.26,11.46,221.46,11.04,221.66z"/>
	</g>
	<g>
		<g>
			<path d="M17.7,215.66c0.39-0.22,0.77-0.47,1.18-0.66c0.63-0.3,1.29-0.56,1.92-0.85c0.67-0.3,1.31-0.69,2-0.91
				c0.37-0.12,0.54-0.49,0.98-0.52c0.4-0.03,0.79-0.29,1.18-0.47c0.39-0.18,0.77-0.38,1.16-0.57c0.38-0.19,0.76-0.39,1.16-0.57
				c0.29-0.13,0.59-0.23,0.95-0.24c-0.07,0.08-0.12,0.19-0.21,0.23c-0.61,0.27-1.19,0.61-1.83,0.84c-0.58,0.2-1.08,0.62-1.61,0.93
				c0,0.37,0,0.68,0,1.03c-0.09,0.09-0.17,0.17-0.25,0.25c-0.11-0.06-0.18-0.1-0.29-0.16c0,0.38,0,0.71,0,1.05
				c0.03,0.01,0.06,0.01,0.09,0.02c0.05-0.23,0.09-0.45,0.15-0.73c0.09,0.16,0.15,0.27,0.21,0.4c0.05-0.1,0.08-0.18,0.15-0.32
				c0.69,0.01,1.18-0.83,2.06-0.57c0.12,0.32,0.25,0.65,0.38,0.97c-0.1,0.06-0.15,0.09-0.2,0.12l-0.02-0.02
				c-0.16-0.32-0.32-0.63-0.52-1.03c-0.48,0.43-1.14,0.46-1.59,1.01c0.59,0.03,0.99-0.5,1.52-0.31c-0.25,0.62-0.9,0.57-1.32,0.89
				c-0.11,0.03-0.21,0.06-0.32,0.09c0.02,0.04,0.04,0.08,0.06,0.13c0.1-0.06,0.19-0.12,0.29-0.18c0.12,0.05,0.24,0.11,0.36,0.16
				l0.02,0.02c-0.06,0.06-0.11,0.16-0.18,0.18c-0.31,0.09-0.63,0.15-0.9,0.21c0,0.68,0,1.28,0,1.86c-0.17,0.23-0.31,0.42-0.45,0.6
				c-0.03-0.05-0.07-0.11,0,0c-0.11-0.07-0.06-0.04,0,0c0,0.06,0,0.13,0,0.19c-0.4,0.2-0.12,0.47,0,0.71c0-0.24,0-0.47,0-0.71
				c0.31,0.37,0.24,0.76,0.08,1.17c-0.04,0.11-0.05,0.24-0.08,0.35l0,0c-0.06,0-0.13,0-0.19,0c-0.11-0.15-0.21-0.3-0.29-0.42
				c0.1-0.89,0.2-1.77,0.29-2.65c0.03-0.28-0.07-0.61,0.05-0.83c0.18-0.33-0.22-0.58-0.04-0.86c0.31-0.49,0.14-1.03,0.19-1.55
				c0.01-0.12,0.03-0.23,0.05-0.35c0.14-0.01,0.23-0.01,0.33-0.02c0.03,0.05,0.07,0.11,0,0c0.11,0.07,0.06,0.04,0,0
				c-0.17-0.17-0.34-0.35-0.51-0.51c-0.72,0.37-1.43,0.73-2.15,1.1c0.14,0.29,0.26,0.53,0.39,0.79c-0.13,0.14-0.25,0.28-0.37,0.42
				c0.09,0.16,0.18,0.32,0.28,0.49c0.14-0.05,0.27-0.1,0.4-0.14c0.29,0.48,0.5,1.94,0.5,3.36c-0.08,0.04-0.16,0.07-0.25,0.12
				c0.13,0.07,0.23,0.12,0.28,0.15c0,0.33,0,0.62,0,0.91c0,0.28-0.26,0.57,0.05,0.83c-0.3,0.32-0.09,0.62,0.04,0.9
				c-0.14,0.28-0.27,0.52-0.39,0.75c0.05,0.45-0.06,0.89,0.11,1.4c0.2-0.15,0.34-0.25,0.42-0.31c0.17-0.4-0.14-0.82,0.25-1.1
				c0.03,0.05,0.07,0.1-0.02-0.02c0.13,0.09,0.08,0.05,0.02,0.02c-0.05-0.08-0.15-0.18-0.13-0.23c0.23-0.59,0.07-1.2,0.13-1.8
				c0.01-0.09,0.12-0.17,0.18-0.26c0.02,0.05,0.04,0.09,0.06,0.14c0.04-0.05,0.09-0.09,0.13-0.14c0.06,0,0.12-0.01,0.18-0.01
				l0.01,0.01c0.27,0.25-0.02,0.5-0.01,0.75c0.02,0.28,0.06,0.59-0.02,0.85c-0.18,0.55-0.15,1.1-0.17,1.66
				c-0.25,0.67-1.01,0.52-1.48,0.91c0.39-0.78-0.09-1.58,0.1-2.43c-0.03-0.02-0.1-0.09-0.18-0.14c-0.08-0.05-0.17-0.08-0.34-0.15
				c0.11-0.13,0.22-0.25,0.32-0.38c0.23-0.34-0.23-0.68,0.02-1.04c-0.16-0.1-0.31-0.19-0.51-0.32c0.1-0.12,0.21-0.26,0.34-0.4
				c0-0.43,0-0.87,0-1.33c-0.19-0.06-0.37-0.12-0.67-0.22c0.27-0.2,0.46-0.34,0.63-0.47c-0.01-0.73-0.42-1.27-0.75-1.86
				c-0.11,0.06-0.18,0.1-0.35,0.19c0.08-0.26,0.14-0.44,0.23-0.7c-0.12-0.24-0.27-0.54-0.42-0.84c-0.63,0.32-1.2,0.61-1.76,0.91
				c-0.34,0.18-0.69,0.27-1.07,0.24L17.7,215.66z M22.3,218.36c0.19-0.08,0.26-0.19,0.02-0.41c-0.02,0.17-0.02,0.28-0.03,0.39
				c-0.05,0.04-0.1,0.07-0.15,0.11c0.02,0.02,0.04,0.04,0.06,0.06C22.22,218.46,22.26,218.41,22.3,218.36z M21.98,216.99
				c0.27-0.17,0.4-0.38,0.23-0.71c-0.15,0-0.3,0-0.44,0C21.85,216.54,21.92,216.76,21.98,216.99z M23.96,216.47
				c-0.08,0.42-0.24,0.83,0,1.46C23.96,217.3,23.96,216.89,23.96,216.47z M24.21,215.4c-0.05-0.02-0.1-0.04-0.14-0.06
				c-0.06,0.17-0.13,0.34-0.19,0.51c0.06,0.02,0.11,0.03,0.17,0.05C24.1,215.73,24.16,215.56,24.21,215.4z M24.21,213.13
				c0.06,0,0.11,0,0.17,0c-0.01-0.1-0.03-0.19-0.04-0.29c-0.03,0-0.06,0-0.08,0C24.23,212.94,24.22,213.04,24.21,213.13z
				 M21.47,214.75c-0.04,0-0.07,0.01-0.11,0.01c0.01,0.1,0.02,0.2,0.03,0.3c0.04,0,0.08-0.01,0.11-0.01
				C21.5,214.94,21.49,214.85,21.47,214.75z M23.57,221.42c-0.04,0-0.07,0.01-0.11,0.01c0.01,0.1,0.02,0.2,0.03,0.3
				c0.04,0,0.08-0.01,0.11-0.01C23.6,221.62,23.58,221.52,23.57,221.42z M21.21,214.4c-0.01,0.02-0.03,0.04-0.02,0.05
				c0.01,0.02,0.03,0.04,0.05,0.06c0.01-0.04,0.02-0.08,0.03-0.11C21.25,214.4,21.23,214.4,21.21,214.4z M22.43,217.65
				c-0.02-0.01-0.04-0.03-0.05-0.03c-0.02,0.01-0.04,0.03-0.06,0.05c0.04,0.01,0.08,0.02,0.11,0.03
				C22.43,217.69,22.43,217.67,22.43,217.65z M23.54,221.17c0.02-0.02,0.04-0.04,0.06-0.05c-0.02-0.02-0.04-0.04-0.06-0.06
				c-0.02,0.03-0.04,0.06-0.06,0.09C23.5,221.15,23.52,221.16,23.54,221.17z M24.49,215.07c0.02-0.02,0.04-0.04,0.06-0.05
				c-0.02-0.02-0.04-0.04-0.06-0.06c-0.02,0.03-0.04,0.06-0.06,0.08C24.45,215.05,24.47,215.06,24.49,215.07z M23.35,223.27
				c0.02-0.02,0.04-0.04,0.06-0.05c-0.02-0.02-0.04-0.04-0.06-0.06c-0.02,0.03-0.04,0.06-0.06,0.09
				C23.31,223.25,23.33,223.26,23.35,223.27z"/>
			<path d="M12.76,217.01c0.15,0,0.3,0,0.46,0c0.12,0.21,0.24,0.42-0.07,0.58l-0.02-0.02c-0.06-0.06-0.12-0.18-0.16-0.17
				c-0.38,0.06-0.76,0.14-1.16,0.21c0,0.72,0,1.38,0,2.03c0,0.28,0,0.55-0.18,0.79l-0.02,0.02c-0.3-0.27-0.18-0.59-0.12-0.91
				c0.04-0.2,0.11-0.43,0.04-0.59c-0.15-0.34,0.05-0.62,0.04-0.97c-0.13-0.06-0.27-0.14-0.46-0.23c-0.15,0.5,0.15,0.94-0.05,1.36
				l-0.01,0.01c-0.06-0.09-0.17-0.18-0.18-0.27c-0.02-0.31-0.01-0.63-0.01-0.94c-0.52-0.1-0.98,0.37-1.63,0.14
				c0.59-0.48,1.11-0.9,1.68-1.36c-0.22-0.28-0.43-0.54-0.64-0.81l0.02-0.02c0.46-0.05,0.56,0.47,0.96,0.59
				c0.3-0.21,0.61-0.44,0.9-0.65c-0.14-0.19-0.25-0.35-0.36-0.5l0.01-0.01c0.38,0.02,0.72,0.32,1.13,0.19c0,0,0.02,0.02,0.02,0.02
				c-0.12,0.12-0.23,0.25-0.35,0.37c-0.14,0.13-0.28,0.26-0.43,0.38c-0.05,0.03-0.1,0.07,0.02-0.01c-0.08,0.12-0.05,0.07-0.01,0.02
				c0.29-0.08,0.6-0.12,0.87-0.24c0.56-0.26,1.09-0.56,1.64-0.84c0.39-0.2,0.78-0.38,1.27-0.2c-0.27,0.41-0.62,0.66-1.11,0.69
				c-0.04-0.05-0.08-0.1-0.12-0.15c-0.02,0.02-0.04,0.04-0.05,0.05c0.05,0.04,0.1,0.08,0.15,0.12c0,0.09,0,0.19,0,0.3
				c-0.64,0.28-1.28,0.55-1.91,0.83C12.85,216.86,12.81,216.95,12.76,217.01c-0.25-0.03-0.18-0.22-0.19-0.38
				c0.15-0.02,0.34,0.05,0.38-0.19c0.15-0.02,0.34,0.05,0.38-0.19c0.15-0.02,0.34,0.05,0.38-0.19c0.11-0.03,0.22-0.05,0.33-0.08
				c-0.02-0.04-0.04-0.09-0.07-0.13c-0.09,0.07-0.18,0.13-0.27,0.2c-0.15,0.02-0.34-0.05-0.38,0.19c-0.15,0.02-0.34-0.05-0.38,0.19
				c-0.15,0.02-0.34-0.05-0.38,0.19c-0.12,0.01-0.24,0.03-0.37,0.05c0.06,0.12,0.1,0.19,0.14,0.25c-0.12,0.09-0.23,0.18-0.35,0.27
				c-0.11,0.03-0.22,0.05-0.32,0.08c0.02,0.04,0.04,0.08,0.07,0.13c0.09-0.06,0.18-0.13,0.27-0.19c0.17,0,0.35,0.01,0.52-0.02
				C12.61,217.18,12.68,217.08,12.76,217.01z M14.43,215.76c-0.02-0.02-0.04-0.04-0.05-0.06c-0.02,0.02-0.04,0.04-0.06,0.06
				c0.03,0.02,0.06,0.04,0.08,0.06C14.41,215.8,14.42,215.78,14.43,215.76z M11.75,216.51c-0.02-0.01-0.04-0.03-0.05-0.02
				c-0.02,0.01-0.04,0.03-0.06,0.05c0.04,0.01,0.08,0.02,0.11,0.03C11.75,216.55,11.75,216.53,11.75,216.51z"/>
			<path d="M18.09,209.01c-0.14-0.06-0.28-0.13-0.59-0.27c0.01,0-0.18,0.04-0.37,0.06c-0.05,0.01-0.1-0.05-0.2-0.11
				c0.05-0.13,0.11-0.25,0.16-0.38c-0.26-0.27-0.53-0.54-0.78-0.8c-0.23-0.02-0.44-0.04-0.77-0.07c0.15-0.19,0.25-0.3,0.35-0.42
				c-0.29-0.26-0.62-0.55-0.97-0.86c-0.06,0.02-0.14,0.03-0.22,0.06c-0.05,0.02-0.1,0.05-0.16,0.09c-0.08-0.09-0.15-0.18-0.24-0.28
				c0.11-0.04,0.2-0.07,0.29-0.1c0-0.04,0.01-0.11-0.01-0.13c-0.19-0.15-0.4-0.28-0.58-0.44c-0.07-0.07-0.07-0.22-0.1-0.34l0,0
				c0.35,0.08,0.71,0.17,1,0.24c0.63,0.55,1.23,1.07,1.83,1.6c0.04-0.02,0.09-0.06,0.13-0.08c0.56,0.56,1.12,1.11,1.66,1.65
				c-0.1,0.19-0.16,0.3-0.21,0.4c0,0-0.03,0.03-0.03,0.03c-0.06,0.06-0.11,0.11-0.17,0.17C18.1,209,18.09,209.01,18.09,209.01z
				 M17.86,208.14c-0.02-0.02-0.04-0.04-0.05-0.06c-0.02,0.02-0.04,0.04-0.06,0.06c0.03,0.02,0.06,0.04,0.08,0.06
				C17.85,208.17,17.86,208.16,17.86,208.14z M17.1,207.38c-0.02-0.02-0.04-0.04-0.05-0.06c-0.02,0.02-0.04,0.04-0.06,0.06
				c0.03,0.02,0.06,0.04,0.08,0.06C17.08,207.41,17.09,207.39,17.1,207.38z"/>
			<path d="M30.67,208.63c-0.08,0.25-0.29,0.51-0.54,0.66c-0.01,0.11-0.03,0.24-0.04,0.33c-0.51,0.37-1.01,0.73-1.56,1.13
				c-0.11-0.17-0.21-0.34-0.31-0.51c0.15-0.17,0.3-0.33,0.47-0.52c0.16,0.09,0.3,0.16,0.43,0.23c0.49-0.09,0.39-0.48,0.42-0.84
				c0.09-0.05,0.2-0.11,0.34-0.18c0-0.13,0-0.27,0-0.42c-0.52-0.17-1.04-0.33-1.65-0.53c0.07,0.22,0.11,0.34,0.17,0.54
				c-0.3,0.07-0.6,0.14-0.92,0.22c-0.05-0.09-0.1-0.2-0.16-0.32c-0.57,0.21-1.13,0.42-1.68,0.63c1.06-1,3.26-1.54,5.19-1.35
				c0.07,0.13,0.19,0.28,0.22,0.45c0.04,0.25-0.12,0.4-0.36,0.47c0.03-0.18,0.07-0.36,0.1-0.55c-0.12-0.01-0.21-0.01-0.3-0.02
				c-0.07-0.21-0.18-0.26-0.42-0.02c0.19,0.01,0.3,0.02,0.41,0.02C30.55,208.25,30.33,208.53,30.67,208.63z M27.95,208.31
				c-0.02-0.01-0.04-0.03-0.05-0.02c-0.02,0.01-0.04,0.03-0.06,0.05c0.04,0.01,0.08,0.02,0.12,0.03
				C27.95,208.35,27.95,208.33,27.95,208.31z M28.64,210.2c-0.01,0.02-0.03,0.04-0.02,0.05c0.01,0.02,0.03,0.04,0.05,0.06
				c0.01-0.04,0.02-0.08,0.03-0.12C28.69,210.2,28.67,210.2,28.64,210.2z"/>
			<path d="M21.33,207.48c0.41-0.6,1.11-0.67,1.67-0.99c0.51,0.21,0.49,0.73,0.76,1.04c-0.07,0.22-0.14,0.44-0.2,0.62
				c-0.28,0.09-0.54,0.16-0.79,0.26c-0.31,0.13-0.62,0.27-0.97,0.22c-0.08-0.01-0.17,0.11-0.26,0.17l-0.02,0.02
				c-0.15,0-0.33-0.06-0.38,0.17c-0.29,0.04-0.48-0.08-0.55-0.36c0.12-0.02,0.23-0.03,0.49-0.07c-0.28-0.15-0.44-0.24-0.69-0.38
				c0.1,0.23,0.14,0.33,0.19,0.43c-0.36-0.1-0.85-0.42-1.14-0.75l0,0c0.17-0.04,0.33-0.09,0.51-0.14c0.32,0.04,0.66,0.08,1.01,0.13
				l0.02,0.02c0.07,0.06,0.15,0.12,0.22,0.18c0.05-0.06,0.09-0.11,0.14-0.17c0,0,0.03-0.03,0.03-0.03c0.49-0.18,0.98-0.36,1.53-0.57
				c-0.1,0.77-0.93,0.57-1.15,1.15c0.58-0.16,1.12-0.32,1.68-0.47c0.09-0.41-0.04-0.76-0.38-1.1c-0.27,0.13-0.54,0.29-0.82,0.39
				C21.93,207.35,21.63,207.41,21.33,207.48C21.34,207.48,21.33,207.48,21.33,207.48z"/>
			<path d="M18.85,212.05c0.11-0.09,0.22-0.18,0.39-0.31c-0.14-0.31-0.3-0.65-0.44-0.97c-0.15,0.06-0.28,0.11-0.56,0.21
				c0.11-0.31,0.17-0.5,0.24-0.69c-0.13-0.42-0.26-0.84-0.39-1.27c0,0,0.01-0.01,0.01-0.01c0.06-0.06,0.11-0.11,0.17-0.17
				c0,0,0.03-0.03,0.03-0.03c0.17-0.03,0.33-0.07,0.51-0.1c0.2,0.34,0.41,0.7,0.62,1.06c0,0-0.01,0.01-0.01,0.01
				c-0.12,0.09-0.25,0.17-0.36,0.25c0.1,0.17,0.19,0.32,0.24,0.41c0.24-0.03,0.44-0.06,0.68-0.1c-0.23,0.51,0.11,0.7,0.31,0.96
				c0.24-0.08,0.44-0.14,0.64-0.21l0.03,0.04c-0.1,0.11-0.19,0.27-0.32,0.33c-0.25,0.13-0.53,0.22-0.81,0.34
				c-0.03-0.02-0.09-0.05-0.14-0.09c-0.05,0.11-0.11,0.22-0.18,0.36c-0.21,0-0.43,0-0.65,0L18.85,212.05z M19.63,210.9
				c-0.04-0.05-0.08-0.1-0.11-0.15c-0.02,0.02-0.04,0.04-0.06,0.06c0.05,0.04,0.1,0.08,0.15,0.11c0.03,0.11,0.06,0.22,0.08,0.32
				c0.04-0.02,0.09-0.04,0.13-0.06C19.76,211.09,19.69,211,19.63,210.9z M18.99,209.59c-0.04-0.31-0.26-0.41-0.47-0.58
				c0,0.19,0,0.36,0,0.54C18.67,209.56,18.79,209.58,18.99,209.59z"/>
			<path d="M10.27,215.88c-0.5-0.32-1.01-0.64-1.51-0.96l-0.01-0.01c-0.12-0.13-0.25-0.25-0.37-0.38c-0.03-0.05-0.07-0.1,0.01,0.02
				c-0.12-0.08-0.07-0.05-0.02-0.01c0,0.13,0,0.25,0,0.38c0,0,0,0,0,0c-0.25-0.22-0.51-0.43-0.85-0.72
				c0.53-0.23,0.96-0.43,1.47-0.65c0.23,0.19,0.48,0.4,0.72,0.61c0,0,0,0,0,0c-0.37-0.06-0.74-0.11-1.29-0.19
				c0.22,0.29,0.31,0.47,0.44,0.57c0.36,0.28,0.75,0.52,1.13,0.78c0.19,0.13,0.33,0.29,0.31,0.54L10.27,215.88z"/>
			<path d="M11.62,220.43c0.38,0.14,0.03,0.53,0.31,0.79c0.11-0.19,0.22-0.38,0.43-0.74c0.01-0.26,0.01-0.78,0.39-1.18l0,0
				c0.06,0.7-0.19,1.33-0.38,1.99c-0.33,0.17-0.65,0.33-1.07,0.54c-0.07-0.12-0.15-0.25-0.22-0.36c0.11-0.09,0.22-0.18,0.32-0.27
				c0,0,0.01-0.01,0.01-0.01c0.05-0.04,0.09-0.08,0.14-0.12c-0.05-0.02-0.09-0.04-0.14-0.06c0,0-0.01-0.01-0.01-0.01
				c0.06-0.19,0.12-0.37,0.18-0.56L11.62,220.43z"/>
			<path d="M14.65,204.25c0.01,0.06,0.02,0.11,0.02,0.17l-0.02,0.02c-0.42,0.05-0.55-0.37-0.83-0.54c-0.16,0.08-0.32,0.16-0.49,0.24
				c0,0.09,0,0.19,0,0.28l-0.02,0.02c-0.24-0.1-0.48-0.2-0.75-0.31c0.24-0.11,0.46-0.2,0.67-0.31c0.22-0.11,0.42-0.23,0.65-0.35
				c0.32,0.16,0.63,0.33,1.03,0.53c-0.11,0.1-0.18,0.17-0.25,0.23c-0.04-0.05-0.07-0.1-0.11-0.15c-0.02,0.02-0.04,0.04-0.06,0.06
				C14.55,204.17,14.6,204.21,14.65,204.25z"/>
			<path d="M13.71,214.91c0.31-0.53,0.93-0.62,1.39-0.95c0.26-0.19,0.6-0.27,0.9-0.4l0.02,0.02
				C15.05,214.54,15.05,214.54,13.71,214.91L13.71,214.91z"/>
			<path d="M15.23,216.44c0.08-0.16,0.16-0.33,0.24-0.5c0.31,0.04,0.65,0.17,0.94,0.1c0.34-0.08,0.65-0.32,0.98-0.49
				c0.09,0.04,0.2,0.08,0.3,0.12l0.02,0.02c-0.32,0.41-0.84,0.38-1.27,0.56c-0.3,0.13-0.62,0.19-1,0.3
				C15.44,216.54,15.34,216.49,15.23,216.44L15.23,216.44z"/>
			<path d="M22.68,209.78c0,0.12,0,0.24,0,0.36l-0.03,0.03c-0.54-0.18-0.95-0.53-1.31-0.96c0.12,0,0.25,0,0.37,0
				c0.04,0.05,0.07,0.1-0.02-0.03c0.14,0.09,0.08,0.06,0.03,0.02c0-0.06-0.01-0.12-0.01-0.18l0,0c0.14,0,0.29,0,0.47,0
				c0.09,0.12,0.19,0.25,0.29,0.38l0,0c-0.12,0.01-0.24,0.02-0.36,0.04c-0.01,0.04-0.02,0.09-0.03,0.13
				c0.19,0.07,0.38,0.13,0.56,0.2L22.68,209.78z"/>
			<path d="M18.1,212.45c-0.13,0.12-0.23,0.29-0.38,0.36c-0.56,0.28-1.14,0.52-1.72,0.78l-0.02-0.02c0.18-0.29,0.38-0.5,0.77-0.59
				c0.46-0.1,0.89-0.36,1.33-0.56C18.09,212.43,18.1,212.45,18.1,212.45z"/>
			<path d="M14.67,204.42c0.16-0.04,0.32-0.07,0.56-0.13c0.16,0.14,0.37,0.33,0.58,0.51l0,0c-0.05,0.04-0.1,0.08-0.14,0.12
				c0.05,0.02,0.09,0.04,0.14,0.06l0.01,0.01c0,0.06-0.01,0.12-0.01,0.18c-0.52-0.04-0.88-0.31-1.14-0.75L14.67,204.42z"/>
			<path d="M16.76,205.57c0.39,0.07,0.77,0.15,0.95,0.58l0,0c-0.09,0.11-0.18,0.21-0.27,0.33c-0.34-0.16-0.71-0.3-0.87-0.71
				l0.01-0.01C16.63,205.7,16.69,205.64,16.76,205.57L16.76,205.57z"/>
			<path d="M11.42,221.21c-0.09-0.01-0.18-0.01-0.35-0.02c0.08-0.69-0.27-1.37-0.03-2.07l0.01-0.01c0.06,0.09,0.17,0.17,0.18,0.26
				c0.02,0.46,0,0.93,0.02,1.39c0,0.09,0.12,0.17,0.18,0.26c0,0,0.01,0.01,0.01,0.01C11.42,221.08,11.42,221.14,11.42,221.21
				C11.42,221.2,11.42,221.21,11.42,221.21z"/>
			<path d="M17.9,206.34c0.14,0,0.29,0,0.49,0c0.03,0.12,0.06,0.24,0.1,0.37l-0.02,0.03c-0.05,0.02-0.09,0.04-0.14,0.05
				c0.05,0.04,0.09,0.08,0.14,0.12l0.01,0.01c0.06,0.06,0.12,0.12,0.18,0.18l0,0c0,0.06,0,0.12,0,0.19l-0.01,0.01
				c-0.46,0.03-0.6-0.44-1.09-0.54c0.2-0.13,0.26-0.18,0.33-0.22c0.03,0.05,0.07,0.1-0.01-0.02c0.13,0.08,0.07,0.05,0.02,0.01
				C17.9,206.46,17.9,206.4,17.9,206.34L17.9,206.34z"/>
			<path d="M26.87,214.93c-0.01,0.09-0.02,0.18-0.04,0.36c-0.48,0.13-0.98,0.27-1.49,0.4c0,0-0.02-0.02-0.02-0.02
				c0.51-0.25,1.01-0.51,1.52-0.76L26.87,214.93z"/>
			<path d="M22.68,210.35c0.01,0.27-0.11,0.46-0.35,0.55c-0.2-0.06-0.4-0.11-0.59-0.16l-0.03-0.03c0.12-0.13,0.24-0.26,0.34-0.37
				c0.25,0,0.44,0,0.62,0L22.68,210.35z"/>
			<path d="M16,205c0.62,0.03,0.64,0.04,0.77,0.57l-0.01,0.01c-0.06,0-0.12-0.01-0.18-0.01c-0.04-0.05-0.07-0.1,0.02,0.03
				c-0.13-0.09-0.08-0.06-0.03-0.02c0,0.06,0.01,0.12,0.01,0.18l-0.01,0.01c-0.28,0.02-0.48-0.09-0.56-0.38
				c0.05-0.02,0.09-0.05,0.14-0.07c-0.05-0.04-0.09-0.09-0.14-0.13C16,205.13,16,205.07,16,205L16,205z"/>
			<path d="M9.9,216.44c-0.32-0.28-0.64-0.56-0.96-0.84C9.48,215.65,9.83,215.9,9.9,216.44C9.9,216.44,9.9,216.44,9.9,216.44z"/>
			<path d="M19.05,207.1c0.18,0.06,0.36,0.13,0.59,0.2c-0.18,0.16-0.29,0.27-0.4,0.37l-0.01,0.01c-0.29,0.02-0.48-0.1-0.57-0.38
				l0.01-0.01C18.82,207.27,19.01,207.35,19.05,207.1L19.05,207.1z"/>
			<path d="M24.2,209.59c-0.12,0.12-0.23,0.28-0.38,0.36c-0.23,0.13-0.48,0.21-0.74,0.32c-0.01-0.07-0.02-0.18-0.04-0.3l0.01-0.01
				c0.38-0.13,0.75-0.26,1.13-0.38L24.2,209.59z"/>
			<path d="M10.28,214.53c0.38,0.2,0.94,0.03,1.14,0.58l0,0c-0.39-0.18-0.94-0.03-1.15-0.57L10.28,214.53z"/>
			<path d="M13.71,214.92c-0.01,0.09-0.01,0.18-0.02,0.32c-0.24,0.08-0.48,0.17-0.73,0.26c0,0-0.02-0.02-0.02-0.02
				c0.01-0.09,0.02-0.18,0.03-0.32C13.2,215.08,13.46,215,13.71,214.92L13.71,214.92z"/>
			<path d="M24.97,209.21c-0.15,0.18-0.29,0.36-0.44,0.54c-0.13-0.06-0.23-0.11-0.33-0.16l-0.02-0.02c0.19-0.26,0.46-0.35,0.76-0.38
				C24.95,209.19,24.97,209.21,24.97,209.21z"/>
			<path d="M21.73,210.74c-0.15,0.18-0.3,0.36-0.44,0.53c-0.12-0.05-0.22-0.1-0.32-0.14l-0.03-0.04c0.25-0.13,0.51-0.25,0.76-0.38
				L21.73,210.74z"/>
			<path d="M15.24,216.44c-0.48,0.33-0.48,0.33-1.16,0.27C14.61,216.59,14.92,216.51,15.24,216.44L15.24,216.44z"/>
			<path d="M13.9,205c-0.19-0.19-0.38-0.38-0.58-0.57l0.02-0.02C13.72,204.43,13.92,204.61,13.9,205L13.9,205z"/>
			<path d="M13.49,217.03c0.17-0.13,0.34-0.25,0.52-0.38C14.3,217.17,13.58,216.88,13.49,217.03z"/>
			<path d="M8.76,214.92c-0.01,0.11-0.02,0.22-0.04,0.35c-0.12,0-0.2,0-0.31,0c-0.01-0.12-0.02-0.24-0.04-0.35l0,0
				C8.5,214.91,8.62,214.91,8.76,214.92L8.76,214.92z"/>
			<path d="M9.9,216.44c0.26-0.02,0.44,0.06,0.54,0.35C10.11,216.85,9.98,216.68,9.9,216.44L9.9,216.44z"/>
			<path d="M18.49,206.71c0.28-0.01,0.48,0.11,0.56,0.39l-0.01,0.01c-0.13,0-0.25,0-0.38,0l0,0c-0.06-0.06-0.12-0.12-0.18-0.18
				l-0.01-0.01c0.01-0.06,0-0.11-0.01-0.17L18.49,206.71z"/>
			<path d="M9.71,214.15c0.29-0.02,0.48,0.1,0.58,0.38l-0.01,0.01C9.98,214.56,9.79,214.44,9.71,214.15L9.71,214.15z"/>
			<path d="M13.15,217.6c-0.08,0.18,0.15,0.48-0.2,0.56l0,0c0.06-0.19-0.15-0.47,0.18-0.58L13.15,217.6z"/>
			<path d="M22.68,209.57c0.11,0.01,0.21,0.03,0.34,0.04c0.02,0.13,0.03,0.23,0.04,0.34l-0.01,0.01c-0.12-0.06-0.24-0.12-0.36-0.18
				l-0.02-0.03c0.01-0.06,0.01-0.11,0-0.17L22.68,209.57z"/>
			<path d="M24.95,209.19c0.29-0.21,0.29-0.21,0.33,0.15c-0.11-0.04-0.21-0.09-0.31-0.13L24.95,209.19z"/>
			<path d="M20.95,207.85c0.13-0.13,0.26-0.25,0.39-0.38c0,0,0.01,0.01,0.01,0.01c0,0.12,0.01,0.24,0.01,0.36
				c0,0-0.03,0.03-0.03,0.03c-0.12,0-0.24,0-0.35-0.01L20.95,207.85z"/>
			<path d="M18.46,212.24c0.13-0.06,0.26-0.13,0.38-0.19l0.02,0.02c-0.01,0.11-0.02,0.23-0.03,0.36c-0.15-0.07-0.25-0.12-0.35-0.17
				L18.46,212.24z"/>
			<path d="M18.09,212.43c0.13-0.06,0.25-0.13,0.38-0.19l0.02,0.02c-0.13,0.06-0.25,0.13-0.38,0.19L18.09,212.43z"/>
			<path d="M11.42,215.11c0.15,0.01,0.34-0.06,0.39,0.19l-0.01,0.01C11.65,215.28,11.45,215.36,11.42,215.11L11.42,215.11z"/>
			<path d="M12.75,218.92c0-0.11,0.01-0.22,0.02-0.41C13.02,218.74,12.98,218.85,12.75,218.92L12.75,218.92z"/>
			<path d="M17.71,206.15c0.06,0.06,0.13,0.13,0.19,0.19l0,0C17.84,206.27,17.78,206.21,17.71,206.15L17.71,206.15z"/>
			<path d="M19.24,207.67c0.06,0.06,0.13,0.13,0.19,0.19l0,0C19.36,207.8,19.3,207.74,19.24,207.67L19.24,207.67z"/>
			<path d="M22.68,210.14c0.04,0.05,0.09,0.09,0.13,0.14c-0.05,0.02-0.09,0.05-0.14,0.07l-0.02-0.02c0.01-0.06,0.01-0.11-0.01-0.17
				L22.68,210.14z"/>
			<path d="M22.48,209.39c0.07,0.06,0.13,0.12,0.2,0.18l-0.01,0.01C22.6,209.52,22.54,209.45,22.48,209.39L22.48,209.39z"/>
			<path d="M15.81,204.81c0.06,0.06,0.13,0.13,0.19,0.19l0,0c-0.06,0-0.12,0-0.18,0L15.8,205
				C15.81,204.94,15.81,204.87,15.81,204.81L15.81,204.81z"/>
			<path d="M12.95,218.16c-0.03,0.05-0.07,0.11,0.01-0.01C12.84,218.22,12.89,218.19,12.95,218.16
				C12.94,218.16,12.95,218.16,12.95,218.16z"/>
			<path d="M12.76,218.92c0,0.06,0,0.13,0,0.19l0,0c-0.05-0.04-0.1-0.09-0.14-0.13C12.66,218.96,12.71,218.94,12.76,218.92
				L12.76,218.92z"/>
			<path d="M12.75,219.3c0-0.06,0-0.13,0-0.19l0,0c0.05,0.04,0.1,0.09,0.14,0.13C12.85,219.26,12.81,219.28,12.75,219.3L12.75,219.3
				z"/>
			<path d="M21.53,208.81c0.06,0.07,0.12,0.13,0.18,0.2c0,0,0,0,0,0c-0.07-0.06-0.13-0.12-0.2-0.18
				C21.52,208.82,21.53,208.81,21.53,208.81z"/>
			<path d="M23.81,220.25c0.05,0.04,0.1,0.08,0.14,0.13c-0.05,0.02-0.09,0.05-0.14,0.07l-0.01-0.01
				C23.81,220.38,23.81,220.32,23.81,220.25L23.81,220.25z"/>
			<path d="M22.27,215.44c-0.1,0.01-0.2,0.03-0.3,0.04c0-0.04-0.01-0.08-0.01-0.12c0.1-0.01,0.2-0.02,0.3-0.03
				C22.26,215.37,22.26,215.4,22.27,215.44z"/>
			<path d="M23.57,213.65c0,0.02,0,0.04,0,0.06c-0.04-0.01-0.08-0.02-0.12-0.03c0.02-0.02,0.04-0.04,0.06-0.05
				C23.53,213.62,23.55,213.64,23.57,213.65z"/>
			<path d="M23.62,220.44l-0.09,0.01l-0.09,0c0.06-0.06,0.13-0.13,0.19-0.19C23.62,220.32,23.62,220.38,23.62,220.44z"/>
			<path d="M19.43,209.76c0.12,0.08,0.23,0.16,0.37,0.26C19.5,210.11,19.5,210.11,19.43,209.76L19.43,209.76z"/>
			<path d="M15.99,205.2c0.01,0.06,0.01,0.12-0.01,0.17c-0.06-0.06-0.11-0.11-0.17-0.17C15.87,205.19,15.93,205.19,15.99,205.2z"/>
			<path d="M21.15,209.02c0.06,0.06,0.11,0.12,0.17,0.17C21.27,209.13,21.21,209.07,21.15,209.02z"/>
		</g>
	</g>
</g>
<g id="nm">
	<rect x="66.4" y="64.17" class="st1" width="16" height="61.67"/>
	<path class="st2" d="M73.98,107.3h1.01v5.68c-0.25,0.01-0.5-0.03-0.73-0.12c-0.39-0.14-0.77-0.38-1.14-0.69s-0.81-0.78-1.3-1.38
		c-0.77-0.93-1.37-1.56-1.82-1.89s-0.87-0.49-1.27-0.49c-0.42,0-0.77,0.15-1.06,0.45s-0.43,0.69-0.43,1.17
		c0,0.51,0.15,0.91,0.46,1.22s0.73,0.46,1.27,0.46l-0.11,1.08c-0.81-0.07-1.42-0.35-1.85-0.84s-0.64-1.13-0.64-1.95
		c0-0.82,0.23-1.48,0.69-1.96s1.02-0.72,1.7-0.72c0.34,0,0.68,0.07,1.01,0.21s0.68,0.37,1.05,0.7s0.87,0.87,1.51,1.63
		c0.53,0.63,0.89,1.04,1.08,1.22s0.38,0.33,0.57,0.45V107.3z"/>
	<path class="st2" d="M74.99,105.58h-1.2v-1.2h1.2V105.58z"/>
	<path class="st2" d="M74.99,99.46h-2.06v3.73h-0.97l-5.57-3.92V98.4h5.57v-1.16h0.97v1.16h2.06V99.46z M71.97,99.46h-3.87
		l3.87,2.69V99.46z"/>
	<path class="st2" d="M74.99,92.54h-6.22v-0.95h0.88c-0.68-0.46-1.03-1.12-1.03-1.98c0-0.38,0.07-0.72,0.2-1.03s0.31-0.55,0.53-0.71
		s0.48-0.27,0.78-0.33c0.2-0.04,0.54-0.06,1.03-0.06h3.83v1.05H71.2c-0.43,0-0.75,0.04-0.96,0.12s-0.38,0.23-0.51,0.44
		s-0.19,0.45-0.19,0.74c0,0.45,0.14,0.84,0.43,1.16s0.83,0.49,1.62,0.49h3.4V92.54z"/>
	<path class="st2" d="M74.99,85.86h-6.22v-0.94h0.87c-0.3-0.2-0.55-0.46-0.74-0.78s-0.28-0.69-0.28-1.11c0-0.46,0.1-0.84,0.29-1.13
		s0.46-0.5,0.8-0.62c-0.73-0.49-1.09-1.13-1.09-1.92c0-0.62,0.17-1.09,0.51-1.42s0.87-0.5,1.58-0.5h4.27v1.05h-3.92
		c-0.42,0-0.73,0.03-0.91,0.1s-0.33,0.19-0.45,0.37s-0.17,0.39-0.17,0.63c0,0.44,0.15,0.8,0.44,1.09s0.76,0.43,1.4,0.43h3.62v1.05
		h-4.04c-0.47,0-0.82,0.09-1.05,0.26s-0.35,0.45-0.35,0.84c0,0.3,0.08,0.57,0.23,0.82s0.38,0.43,0.69,0.55s0.73,0.17,1.3,0.17h3.23
		V85.86z"/>
</g>
<g>
	<g>
		<line class="st4" x1="89.06" y1="36.52" x2="89.06" y2="37.52"/>
		<line class="st5" x1="89.06" y1="39.52" x2="89.06" y2="164.52"/>
		<line class="st4" x1="89.06" y1="165.52" x2="89.06" y2="166.52"/>
	</g>
</g>
<circle class="st6" cx="89.03" cy="95" r="3.97"/>
<g id="feedback">
	<rect x="97.23" y="191.24" class="st1" width="113.83" height="61.78"/>
	<path class="st2" d="M140.62,199.84v-8.59h1.17l4.51,6.74v-6.74h1.09v8.59h-1.17l-4.51-6.75v6.75H140.62z"/>
	<path class="st2" d="M148.77,196.72c0-1.15,0.32-2.01,0.96-2.56c0.54-0.46,1.19-0.69,1.96-0.69c0.86,0,1.55,0.28,2.1,0.84
		s0.81,1.33,0.81,2.32c0,0.8-0.12,1.43-0.36,1.89s-0.59,0.82-1.05,1.07s-0.96,0.38-1.5,0.38c-0.87,0-1.58-0.28-2.11-0.84
		C149.04,198.58,148.77,197.77,148.77,196.72z M149.85,196.72c0,0.8,0.17,1.39,0.52,1.79s0.79,0.59,1.31,0.59
		c0.52,0,0.96-0.2,1.31-0.6s0.52-1.01,0.52-1.82c0-0.77-0.17-1.35-0.52-1.75s-0.78-0.59-1.3-0.59c-0.53,0-0.96,0.2-1.31,0.59
		S149.85,195.93,149.85,196.72z"/>
	<path class="st2" d="M159.32,199.84v-8.59h3.81c0.77,0,1.35,0.08,1.75,0.23s0.72,0.43,0.96,0.82s0.36,0.82,0.36,1.29
		c0,0.61-0.2,1.12-0.59,1.54s-1,0.68-1.83,0.8c0.3,0.14,0.53,0.29,0.69,0.43c0.33,0.3,0.65,0.69,0.94,1.14l1.49,2.34h-1.43
		l-1.14-1.79c-0.33-0.52-0.61-0.91-0.82-1.18s-0.41-0.46-0.58-0.57s-0.34-0.19-0.52-0.23c-0.13-0.03-0.34-0.04-0.63-0.04h-1.32v3.81
		H159.32z M160.46,195.04h2.44c0.52,0,0.93-0.05,1.22-0.16s0.52-0.28,0.67-0.52s0.23-0.49,0.23-0.77c0-0.41-0.15-0.74-0.44-1
		s-0.76-0.39-1.4-0.39h-2.72V195.04z"/>
	<path class="st2" d="M167.03,199.84l3.3-8.59h1.22l3.52,8.59h-1.29l-1-2.6h-3.59l-0.94,2.6H167.03z M169.5,196.31h2.91l-0.9-2.38
		c-0.27-0.72-0.48-1.32-0.61-1.78c-0.11,0.55-0.26,1.1-0.46,1.64L169.5,196.31z"/>
	<path class="st2" d="M179.66,199.84l-1.9-6.22h1.09l0.99,3.59l0.37,1.34c0.02-0.07,0.12-0.49,0.32-1.28l0.99-3.64h1.08l0.93,3.61
		l0.31,1.19l0.36-1.2l1.07-3.6h1.03l-1.95,6.22h-1.1l-0.99-3.73l-0.24-1.06l-1.26,4.79H179.66z"/>
	<path class="st2" d="M187.18,192.46v-1.21h1.05v1.21H187.18z M187.18,199.84v-6.22h1.05v6.22H187.18z"/>
	<path class="st2" d="M189.82,199.84v-8.59h1.05v8.59H189.82z"/>
	<path class="st2" d="M192.48,199.84v-8.59h1.05v8.59H192.48z"/>
	<path class="st2" d="M199.48,199.84h-0.98v-8.59h1.05v3.06c0.45-0.56,1.01-0.84,1.71-0.84c0.38,0,0.75,0.08,1.09,0.23
		s0.62,0.37,0.84,0.65s0.39,0.62,0.52,1.01s0.19,0.82,0.19,1.27c0,1.07-0.26,1.89-0.79,2.47s-1.16,0.87-1.9,0.87
		c-0.73,0-1.31-0.31-1.73-0.92V199.84z M199.47,196.68c0,0.75,0.1,1.29,0.3,1.62c0.33,0.54,0.78,0.81,1.35,0.81
		c0.46,0,0.86-0.2,1.2-0.6s0.5-1,0.5-1.79c0-0.81-0.16-1.41-0.48-1.8s-0.71-0.58-1.17-0.58c-0.46,0-0.86,0.2-1.2,0.6
		S199.47,195.92,199.47,196.68z"/>
	<path class="st2" d="M209.44,197.83l1.09,0.13c-0.17,0.64-0.49,1.13-0.96,1.48s-1.06,0.53-1.78,0.53c-0.91,0-1.63-0.28-2.17-0.84
		s-0.8-1.35-0.8-2.36c0-1.05,0.27-1.86,0.81-2.44s1.24-0.87,2.1-0.87c0.83,0,1.51,0.28,2.04,0.85s0.79,1.36,0.79,2.39
		c0,0.06,0,0.16-0.01,0.28h-4.64c0.04,0.68,0.23,1.21,0.58,1.57s0.78,0.54,1.3,0.54c0.39,0,0.72-0.1,0.99-0.3
		S209.28,198.28,209.44,197.83z M205.98,196.13h3.47c-0.05-0.52-0.18-0.92-0.4-1.18c-0.34-0.41-0.77-0.61-1.31-0.61
		c-0.48,0-0.89,0.16-1.22,0.49S206.01,195.58,205.98,196.13z"/>
	<path class="st2" d="M108.24,214.75l1.03,0.15c0.04,0.32,0.16,0.55,0.36,0.69c0.26,0.2,0.62,0.29,1.07,0.29
		c0.49,0,0.87-0.1,1.13-0.29s0.45-0.47,0.54-0.82c0.05-0.21,0.08-0.67,0.08-1.35c-0.46,0.54-1.04,0.81-1.72,0.81
		c-0.86,0-1.52-0.31-1.99-0.93s-0.7-1.36-0.7-2.22c0-0.59,0.11-1.14,0.32-1.64s0.53-0.89,0.93-1.16s0.89-0.41,1.44-0.41
		c0.73,0,1.34,0.3,1.82,0.89v-0.75h0.97v5.38c0,0.97-0.1,1.66-0.3,2.06s-0.51,0.72-0.94,0.96s-0.95,0.35-1.58,0.35
		c-0.74,0-1.34-0.17-1.8-0.5S108.22,215.42,108.24,214.75z M109.11,211.01c0,0.82,0.16,1.41,0.49,1.79s0.73,0.56,1.22,0.56
		c0.48,0,0.89-0.19,1.22-0.56s0.49-0.96,0.49-1.75c0-0.76-0.17-1.34-0.51-1.72s-0.75-0.58-1.22-0.58c-0.47,0-0.87,0.19-1.2,0.57
		S109.11,210.26,109.11,211.01z"/>
	<path class="st2" d="M119.36,212.23l1.09,0.13c-0.17,0.64-0.49,1.13-0.96,1.48s-1.06,0.53-1.78,0.53c-0.91,0-1.63-0.28-2.17-0.84
		s-0.8-1.35-0.8-2.36c0-1.05,0.27-1.86,0.81-2.44s1.24-0.87,2.1-0.87c0.83,0,1.51,0.28,2.04,0.85s0.79,1.36,0.79,2.39
		c0,0.06,0,0.16-0.01,0.28h-4.64c0.04,0.68,0.23,1.21,0.58,1.57s0.78,0.54,1.3,0.54c0.39,0,0.72-0.1,0.99-0.3
		S119.2,212.68,119.36,212.23z M115.9,210.53h3.47c-0.05-0.52-0.18-0.92-0.4-1.18c-0.34-0.41-0.77-0.61-1.31-0.61
		c-0.48,0-0.89,0.16-1.22,0.49S115.94,209.98,115.9,210.53z"/>
	<path class="st2" d="M121.78,214.24v-6.22h0.95v0.88c0.46-0.68,1.12-1.03,1.98-1.03c0.38,0,0.72,0.07,1.03,0.2s0.55,0.31,0.71,0.53
		s0.27,0.48,0.33,0.78c0.04,0.2,0.06,0.54,0.06,1.03v3.83h-1.05v-3.79c0-0.43-0.04-0.75-0.12-0.96s-0.23-0.38-0.44-0.51
		s-0.45-0.19-0.74-0.19c-0.45,0-0.84,0.14-1.16,0.43s-0.49,0.83-0.49,1.62v3.4H121.78z"/>
	<path class="st2" d="M132.71,212.23l1.09,0.13c-0.17,0.64-0.49,1.13-0.96,1.48s-1.06,0.53-1.78,0.53c-0.91,0-1.63-0.28-2.17-0.84
		s-0.8-1.35-0.8-2.36c0-1.05,0.27-1.86,0.81-2.44s1.24-0.87,2.1-0.87c0.83,0,1.51,0.28,2.04,0.85s0.79,1.36,0.79,2.39
		c0,0.06,0,0.16-0.01,0.28h-4.64c0.04,0.68,0.23,1.21,0.58,1.57s0.78,0.54,1.3,0.54c0.39,0,0.72-0.1,0.99-0.3
		S132.55,212.68,132.71,212.23z M129.25,210.53h3.47c-0.05-0.52-0.18-0.92-0.4-1.18c-0.34-0.41-0.77-0.61-1.31-0.61
		c-0.48,0-0.89,0.16-1.22,0.49S129.28,209.98,129.25,210.53z"/>
	<path class="st2" d="M135.11,214.24v-6.22h0.95v0.94c0.24-0.44,0.47-0.73,0.67-0.87s0.43-0.21,0.68-0.21
		c0.36,0,0.72,0.11,1.08,0.34l-0.36,0.98c-0.26-0.15-0.52-0.23-0.77-0.23c-0.23,0-0.44,0.07-0.62,0.21s-0.31,0.33-0.39,0.58
		c-0.12,0.38-0.18,0.79-0.18,1.23v3.26H135.11z"/>
	<path class="st2" d="M143.18,213.47c-0.39,0.33-0.77,0.57-1.13,0.7s-0.75,0.21-1.16,0.21c-0.68,0-1.21-0.17-1.58-0.5
		s-0.55-0.76-0.55-1.28c0-0.3,0.07-0.58,0.21-0.83s0.32-0.45,0.54-0.61s0.48-0.27,0.76-0.35c0.21-0.05,0.52-0.11,0.94-0.16
		c0.85-0.1,1.48-0.22,1.88-0.36c0-0.14,0.01-0.24,0.01-0.28c0-0.43-0.1-0.73-0.3-0.91c-0.27-0.24-0.67-0.36-1.2-0.36
		c-0.5,0-0.86,0.09-1.1,0.26s-0.41,0.48-0.52,0.92l-1.03-0.14c0.09-0.44,0.25-0.8,0.46-1.07s0.53-0.48,0.93-0.63
		s0.88-0.22,1.41-0.22c0.53,0,0.96,0.06,1.29,0.19s0.58,0.28,0.73,0.47s0.27,0.43,0.33,0.72c0.04,0.18,0.05,0.5,0.05,0.97v1.41
		c0,0.98,0.02,1.6,0.07,1.86s0.13,0.51,0.27,0.75h-1.1C143.28,214.02,143.21,213.76,143.18,213.47z M143.1,211.11
		c-0.38,0.16-0.96,0.29-1.72,0.4c-0.43,0.06-0.74,0.13-0.92,0.21s-0.32,0.19-0.42,0.34s-0.15,0.32-0.15,0.5
		c0,0.28,0.11,0.52,0.32,0.7s0.52,0.28,0.93,0.28c0.41,0,0.77-0.09,1.08-0.27s0.55-0.42,0.7-0.73c0.11-0.24,0.17-0.59,0.17-1.05
		V211.11z"/>
	<path class="st2" d="M148.1,213.29l0.15,0.93c-0.3,0.06-0.56,0.09-0.8,0.09c-0.38,0-0.68-0.06-0.89-0.18s-0.36-0.28-0.45-0.48
		s-0.13-0.61-0.13-1.25v-3.58h-0.77v-0.82h0.77v-1.54l1.05-0.63v2.17h1.06v0.82h-1.06v3.64c0,0.3,0.02,0.49,0.06,0.58
		s0.1,0.15,0.18,0.21s0.2,0.08,0.36,0.08C147.75,213.33,147.91,213.32,148.1,213.29z"/>
	<path class="st2" d="M153.39,212.23l1.09,0.13c-0.17,0.64-0.49,1.13-0.96,1.48s-1.06,0.53-1.78,0.53c-0.91,0-1.63-0.28-2.17-0.84
		c-0.53-0.56-0.8-1.35-0.8-2.36c0-1.05,0.27-1.86,0.81-2.44c0.54-0.58,1.24-0.87,2.1-0.87c0.83,0,1.51,0.28,2.04,0.85
		s0.79,1.36,0.79,2.39c0,0.06,0,0.16-0.01,0.28h-4.64c0.04,0.68,0.23,1.21,0.58,1.57s0.78,0.54,1.3,0.54c0.39,0,0.72-0.1,0.99-0.3
		S153.23,212.68,153.39,212.23z M149.93,210.53h3.47c-0.05-0.52-0.18-0.92-0.4-1.18c-0.34-0.41-0.77-0.61-1.31-0.61
		c-0.48,0-0.89,0.16-1.22,0.49S149.96,209.98,149.93,210.53z"/>
	<path class="st2" d="M159.84,214.24v-0.79c-0.39,0.62-0.97,0.93-1.74,0.93c-0.5,0-0.95-0.14-1.37-0.41s-0.74-0.66-0.97-1.15
		s-0.34-1.05-0.34-1.69c0-0.62,0.1-1.18,0.31-1.69s0.52-0.89,0.93-1.16s0.88-0.4,1.39-0.4c0.38,0,0.71,0.08,1,0.24
		s0.53,0.36,0.71,0.62v-3.08h1.05v8.59H159.84z M156.51,211.13c0,0.8,0.17,1.39,0.5,1.79s0.73,0.59,1.19,0.59
		c0.46,0,0.85-0.19,1.17-0.57s0.48-0.95,0.48-1.73c0-0.85-0.16-1.48-0.49-1.88s-0.73-0.6-1.21-0.6c-0.47,0-0.86,0.19-1.17,0.57
		S156.51,210.31,156.51,211.13z"/>
	<path class="st2" d="M162.75,214.24v-1.2h1.2v1.2c0,0.44-0.08,0.8-0.23,1.07s-0.4,0.48-0.74,0.63l-0.29-0.45
		c0.22-0.1,0.39-0.24,0.49-0.43s0.16-0.46,0.18-0.82H162.75z"/>
	<path class="st2" d="M169.87,213.47c-0.39,0.33-0.77,0.57-1.13,0.7s-0.75,0.21-1.16,0.21c-0.68,0-1.21-0.17-1.58-0.5
		s-0.55-0.76-0.55-1.28c0-0.3,0.07-0.58,0.21-0.83s0.32-0.45,0.54-0.61s0.48-0.27,0.76-0.35c0.21-0.05,0.52-0.11,0.94-0.16
		c0.85-0.1,1.48-0.22,1.88-0.36c0-0.14,0.01-0.24,0.01-0.28c0-0.43-0.1-0.73-0.3-0.91c-0.27-0.24-0.67-0.36-1.2-0.36
		c-0.5,0-0.86,0.09-1.1,0.26s-0.41,0.48-0.52,0.92l-1.03-0.14c0.09-0.44,0.25-0.8,0.46-1.07s0.53-0.48,0.93-0.63
		s0.88-0.22,1.41-0.22c0.53,0,0.96,0.06,1.29,0.19s0.58,0.28,0.73,0.47s0.27,0.43,0.33,0.72c0.04,0.18,0.05,0.5,0.05,0.97v1.41
		c0,0.98,0.02,1.6,0.07,1.86s0.13,0.51,0.27,0.75h-1.1C169.97,214.02,169.9,213.76,169.87,213.47z M169.79,211.11
		c-0.38,0.16-0.96,0.29-1.72,0.4c-0.43,0.06-0.74,0.13-0.92,0.21s-0.32,0.19-0.42,0.34s-0.15,0.32-0.15,0.5
		c0,0.28,0.11,0.52,0.32,0.7s0.52,0.28,0.93,0.28c0.41,0,0.77-0.09,1.08-0.27s0.55-0.42,0.7-0.73c0.11-0.24,0.17-0.59,0.17-1.05
		V211.11z"/>
	<path class="st2" d="M172.46,214.24v-8.59h1.05v8.59H172.46z"/>
	<path class="st2" d="M177.46,213.29l0.15,0.93c-0.3,0.06-0.56,0.09-0.8,0.09c-0.38,0-0.68-0.06-0.89-0.18s-0.36-0.28-0.45-0.48
		s-0.13-0.61-0.13-1.25v-3.58h-0.77v-0.82h0.77v-1.54l1.05-0.63v2.17h1.06v0.82h-1.06v3.64c0,0.3,0.02,0.49,0.06,0.58
		s0.1,0.15,0.18,0.21s0.2,0.08,0.36,0.08C177.11,213.33,177.26,213.32,177.46,213.29z"/>
	<path class="st2" d="M178.49,214.24v-8.59h1.05v3.08c0.49-0.57,1.11-0.86,1.86-0.86c0.46,0,0.86,0.09,1.2,0.27s0.58,0.43,0.73,0.75
		s0.22,0.79,0.22,1.39v3.94h-1.05v-3.94c0-0.53-0.11-0.91-0.34-1.15s-0.55-0.36-0.97-0.36c-0.31,0-0.61,0.08-0.88,0.24
		s-0.47,0.38-0.59,0.66s-0.18,0.66-0.18,1.15v3.4H178.49z"/>
	<path class="st2" d="M184.77,211.12c0-1.15,0.32-2.01,0.96-2.56c0.54-0.46,1.19-0.69,1.96-0.69c0.86,0,1.55,0.28,2.1,0.84
		s0.81,1.33,0.81,2.32c0,0.8-0.12,1.43-0.36,1.89s-0.59,0.82-1.05,1.07s-0.96,0.38-1.5,0.38c-0.87,0-1.58-0.28-2.11-0.84
		S184.77,212.17,184.77,211.12z M185.85,211.12c0,0.8,0.17,1.39,0.52,1.79s0.79,0.59,1.31,0.59c0.52,0,0.96-0.2,1.31-0.6
		s0.52-1.01,0.52-1.82c0-0.77-0.17-1.35-0.52-1.75s-0.78-0.59-1.3-0.59c-0.53,0-0.96,0.2-1.31,0.59S185.85,210.33,185.85,211.12z"/>
	<path class="st2" d="M195.91,214.24v-0.91c-0.48,0.7-1.14,1.05-1.97,1.05c-0.37,0-0.71-0.07-1.03-0.21s-0.55-0.32-0.71-0.53
		s-0.26-0.47-0.33-0.78c-0.04-0.21-0.06-0.54-0.06-0.98v-3.86h1.05v3.45c0,0.55,0.02,0.92,0.06,1.11c0.07,0.28,0.21,0.5,0.42,0.65
		s0.48,0.24,0.8,0.24s0.61-0.08,0.89-0.24s0.47-0.38,0.59-0.66s0.17-0.68,0.17-1.22v-3.33h1.05v6.22H195.91z"/>
	<path class="st2" d="M198.31,214.75l1.03,0.15c0.04,0.32,0.16,0.55,0.36,0.69c0.26,0.2,0.62,0.29,1.07,0.29
		c0.49,0,0.87-0.1,1.13-0.29s0.45-0.47,0.54-0.82c0.05-0.21,0.08-0.67,0.08-1.35c-0.46,0.54-1.04,0.81-1.72,0.81
		c-0.86,0-1.52-0.31-1.99-0.93s-0.7-1.36-0.7-2.22c0-0.59,0.11-1.14,0.32-1.64s0.53-0.89,0.93-1.16s0.89-0.41,1.44-0.41
		c0.73,0,1.34,0.3,1.82,0.89v-0.75h0.97v5.38c0,0.97-0.1,1.66-0.3,2.06s-0.51,0.72-0.94,0.96s-0.95,0.35-1.58,0.35
		c-0.74,0-1.34-0.17-1.8-0.5S198.3,215.42,198.31,214.75z M199.19,211.01c0,0.82,0.16,1.41,0.49,1.79s0.73,0.56,1.22,0.56
		c0.48,0,0.89-0.19,1.22-0.56s0.49-0.96,0.49-1.75c0-0.76-0.17-1.34-0.51-1.72s-0.75-0.58-1.22-0.58c-0.47,0-0.87,0.19-1.2,0.57
		S199.19,210.26,199.19,211.01z"/>
	<path class="st2" d="M205.18,214.24v-8.59h1.05v3.08c0.49-0.57,1.11-0.86,1.86-0.86c0.46,0,0.86,0.09,1.2,0.27s0.58,0.43,0.73,0.75
		s0.22,0.79,0.22,1.39v3.94h-1.05v-3.94c0-0.53-0.11-0.91-0.34-1.15s-0.55-0.36-0.97-0.36c-0.31,0-0.61,0.08-0.88,0.24
		s-0.47,0.38-0.59,0.66s-0.18,0.66-0.18,1.15v3.4H205.18z"/>
	<path class="st2" d="M135.4,226.78l1.04-0.16c0.06,0.42,0.22,0.74,0.49,0.96s0.64,0.33,1.12,0.33c0.48,0,0.84-0.1,1.08-0.3
		s0.35-0.43,0.35-0.69c0-0.24-0.1-0.43-0.31-0.56c-0.14-0.09-0.5-0.21-1.08-0.36c-0.77-0.2-1.31-0.36-1.61-0.51
		s-0.53-0.34-0.68-0.59s-0.23-0.53-0.23-0.83c0-0.28,0.06-0.53,0.19-0.77s0.3-0.43,0.52-0.59c0.16-0.12,0.39-0.22,0.67-0.31
		s0.59-0.13,0.91-0.13c0.49,0,0.92,0.07,1.29,0.21s0.64,0.33,0.82,0.57s0.3,0.56,0.36,0.96l-1.03,0.14
		c-0.05-0.32-0.18-0.57-0.41-0.75s-0.54-0.27-0.95-0.27c-0.48,0-0.83,0.08-1.04,0.24s-0.31,0.35-0.31,0.56
		c0,0.14,0.04,0.26,0.13,0.37c0.09,0.11,0.22,0.21,0.4,0.28c0.11,0.04,0.42,0.13,0.93,0.27c0.75,0.2,1.27,0.36,1.56,0.49
		s0.53,0.31,0.69,0.55s0.25,0.54,0.25,0.9c0,0.35-0.1,0.68-0.31,0.99s-0.5,0.55-0.89,0.72s-0.82,0.25-1.31,0.25
		c-0.81,0-1.42-0.17-1.85-0.5S135.51,227.44,135.4,226.78z"/>
	<path class="st2" d="M146.08,226.63l1.09,0.13c-0.17,0.64-0.49,1.13-0.96,1.48s-1.06,0.53-1.78,0.53c-0.91,0-1.63-0.28-2.17-0.84
		s-0.8-1.35-0.8-2.36c0-1.05,0.27-1.86,0.81-2.44s1.24-0.87,2.1-0.87c0.83,0,1.51,0.28,2.04,0.85s0.79,1.36,0.79,2.39
		c0,0.06,0,0.16-0.01,0.28h-4.64c0.04,0.68,0.23,1.21,0.58,1.57s0.78,0.54,1.3,0.54c0.39,0,0.72-0.1,0.99-0.3
		S145.92,227.08,146.08,226.63z M142.61,224.93h3.47c-0.05-0.52-0.18-0.92-0.4-1.18c-0.34-0.41-0.77-0.61-1.31-0.61
		c-0.48,0-0.89,0.16-1.22,0.49S142.65,224.38,142.61,224.93z"/>
	<path class="st2" d="M148.49,231.02v-8.61h0.96v0.81c0.23-0.32,0.48-0.55,0.77-0.71s0.63-0.24,1.04-0.24c0.53,0,1,0.14,1.41,0.41
		s0.71,0.66,0.92,1.16s0.31,1.04,0.31,1.64c0,0.64-0.11,1.21-0.34,1.72s-0.56,0.9-1,1.17s-0.89,0.41-1.37,0.41
		c-0.35,0-0.67-0.07-0.95-0.22s-0.51-0.34-0.69-0.56v3.03H148.49z M149.45,225.56c0,0.8,0.16,1.39,0.49,1.78s0.72,0.57,1.18,0.57
		c0.47,0,0.87-0.2,1.2-0.59s0.5-1.01,0.5-1.84c0-0.79-0.16-1.39-0.49-1.78s-0.72-0.59-1.17-0.59c-0.45,0-0.85,0.21-1.19,0.63
		S149.45,224.76,149.45,225.56z"/>
	<path class="st2" d="M159.23,227.87c-0.39,0.33-0.77,0.57-1.13,0.7s-0.75,0.21-1.16,0.21c-0.68,0-1.21-0.17-1.58-0.5
		s-0.55-0.76-0.55-1.28c0-0.3,0.07-0.58,0.21-0.83s0.32-0.45,0.54-0.61s0.48-0.27,0.76-0.35c0.21-0.05,0.52-0.11,0.94-0.16
		c0.85-0.1,1.48-0.22,1.88-0.36c0-0.14,0.01-0.24,0.01-0.28c0-0.43-0.1-0.73-0.3-0.91c-0.27-0.24-0.67-0.36-1.2-0.36
		c-0.5,0-0.86,0.09-1.1,0.26s-0.41,0.48-0.52,0.92l-1.03-0.14c0.09-0.44,0.25-0.8,0.46-1.07s0.53-0.48,0.93-0.63
		s0.88-0.22,1.41-0.22c0.53,0,0.96,0.06,1.29,0.19s0.58,0.28,0.73,0.47s0.27,0.43,0.33,0.72c0.04,0.18,0.05,0.5,0.05,0.97v1.41
		c0,0.98,0.02,1.6,0.07,1.86s0.13,0.51,0.27,0.75h-1.1C159.33,228.42,159.26,228.16,159.23,227.87z M159.14,225.51
		c-0.38,0.16-0.96,0.29-1.72,0.4c-0.43,0.06-0.74,0.13-0.92,0.21s-0.32,0.19-0.42,0.34s-0.15,0.32-0.15,0.5
		c0,0.28,0.11,0.52,0.32,0.7s0.52,0.28,0.93,0.28c0.41,0,0.77-0.09,1.08-0.27s0.55-0.42,0.7-0.73c0.11-0.24,0.17-0.59,0.17-1.05
		V225.51z"/>
	<path class="st2" d="M161.83,228.64v-6.22h0.95v0.94c0.24-0.44,0.47-0.73,0.67-0.87s0.43-0.21,0.68-0.21
		c0.36,0,0.72,0.11,1.08,0.34l-0.36,0.98c-0.26-0.15-0.52-0.23-0.77-0.23c-0.23,0-0.44,0.07-0.62,0.21s-0.31,0.33-0.39,0.58
		c-0.12,0.38-0.18,0.79-0.18,1.23v3.26H161.83z"/>
	<path class="st2" d="M169.9,227.87c-0.39,0.33-0.77,0.57-1.13,0.7s-0.75,0.21-1.16,0.21c-0.68,0-1.21-0.17-1.58-0.5
		s-0.55-0.76-0.55-1.28c0-0.3,0.07-0.58,0.21-0.83s0.32-0.45,0.54-0.61s0.48-0.27,0.76-0.35c0.21-0.05,0.52-0.11,0.94-0.16
		c0.85-0.1,1.48-0.22,1.88-0.36c0-0.14,0.01-0.24,0.01-0.28c0-0.43-0.1-0.73-0.3-0.91c-0.27-0.24-0.67-0.36-1.2-0.36
		c-0.5,0-0.86,0.09-1.1,0.26s-0.41,0.48-0.52,0.92l-1.03-0.14c0.09-0.44,0.25-0.8,0.46-1.07s0.53-0.48,0.93-0.63
		s0.88-0.22,1.41-0.22c0.53,0,0.96,0.06,1.29,0.19s0.58,0.28,0.73,0.47s0.27,0.43,0.33,0.72c0.04,0.18,0.05,0.5,0.05,0.97v1.41
		c0,0.98,0.02,1.6,0.07,1.86s0.13,0.51,0.27,0.75h-1.1C170,228.42,169.93,228.16,169.9,227.87z M169.81,225.51
		c-0.38,0.16-0.96,0.29-1.72,0.4c-0.43,0.06-0.74,0.13-0.92,0.21s-0.32,0.19-0.42,0.34s-0.15,0.32-0.15,0.5
		c0,0.28,0.11,0.52,0.32,0.7s0.52,0.28,0.93,0.28c0.41,0,0.77-0.09,1.08-0.27s0.55-0.42,0.7-0.73c0.11-0.24,0.17-0.59,0.17-1.05
		V225.51z"/>
	<path class="st2" d="M174.81,227.69l0.15,0.93c-0.3,0.06-0.56,0.09-0.8,0.09c-0.38,0-0.68-0.06-0.89-0.18s-0.36-0.28-0.45-0.48
		s-0.13-0.61-0.13-1.25v-3.58h-0.77v-0.82h0.77v-1.54l1.05-0.63v2.17h1.06v0.82h-1.06v3.64c0,0.3,0.02,0.49,0.06,0.58
		s0.1,0.15,0.18,0.21s0.2,0.08,0.36,0.08C174.47,227.73,174.62,227.72,174.81,227.69z"/>
	<path class="st2" d="M175.85,221.26v-1.21h1.05v1.21H175.85z M175.85,228.64v-6.22h1.05v6.22H175.85z"/>
	<path class="st2" d="M178.12,225.52c0-1.15,0.32-2.01,0.96-2.56c0.54-0.46,1.19-0.69,1.96-0.69c0.86,0,1.55,0.28,2.1,0.84
		s0.81,1.33,0.81,2.32c0,0.8-0.12,1.43-0.36,1.89s-0.59,0.82-1.05,1.07s-0.96,0.38-1.5,0.38c-0.87,0-1.58-0.28-2.11-0.84
		S178.12,226.58,178.12,225.52z M179.2,225.52c0,0.8,0.17,1.39,0.52,1.79s0.79,0.59,1.31,0.59c0.52,0,0.96-0.2,1.31-0.6
		s0.52-1.01,0.52-1.82c0-0.77-0.17-1.35-0.52-1.75s-0.78-0.59-1.3-0.59c-0.53,0-0.96,0.2-1.31,0.59S179.2,224.73,179.2,225.52z"/>
	<path class="st2" d="M185.18,228.64v-6.22h0.95v0.88c0.46-0.68,1.12-1.03,1.98-1.03c0.38,0,0.72,0.07,1.03,0.2s0.55,0.31,0.71,0.53
		s0.27,0.48,0.33,0.78c0.04,0.2,0.06,0.54,0.06,1.03v3.83h-1.05v-3.79c0-0.43-0.04-0.75-0.12-0.96s-0.23-0.38-0.44-0.51
		s-0.45-0.19-0.74-0.19c-0.45,0-0.84,0.14-1.16,0.43s-0.49,0.83-0.49,1.62v3.4H185.18z"/>
	<path class="st2" d="M196.34,228.64l-1.9-6.22h1.09l0.99,3.59l0.37,1.34c0.02-0.07,0.12-0.49,0.32-1.28l0.99-3.64h1.08l0.93,3.61
		l0.31,1.19l0.36-1.2l1.07-3.6h1.03l-1.95,6.22h-1.1l-0.99-3.73l-0.24-1.06l-1.26,4.79H196.34z"/>
	<path class="st2" d="M203.86,221.26v-1.21h1.05v1.21H203.86z M203.86,228.64v-6.22h1.05v6.22H203.86z"/>
	<path class="st2" d="M206.5,228.64v-8.59h1.05v8.59H206.5z"/>
	<path class="st2" d="M209.17,228.64v-8.59h1.05v8.59H209.17z"/>
	<path class="st2" d="M130.46,243.04v-8.59h1.05v3.08c0.49-0.57,1.11-0.86,1.86-0.86c0.46,0,0.86,0.09,1.2,0.27s0.58,0.43,0.73,0.75
		s0.22,0.79,0.22,1.39v3.94h-1.05v-3.94c0-0.53-0.11-0.91-0.34-1.15s-0.55-0.36-0.97-0.36c-0.31,0-0.61,0.08-0.88,0.24
		s-0.47,0.38-0.59,0.66s-0.18,0.66-0.18,1.15v3.4H130.46z"/>
	<path class="st2" d="M141.2,242.27c-0.39,0.33-0.77,0.57-1.13,0.7s-0.75,0.21-1.16,0.21c-0.68,0-1.21-0.17-1.58-0.5
		s-0.55-0.76-0.55-1.28c0-0.3,0.07-0.58,0.21-0.83s0.32-0.45,0.54-0.61s0.48-0.27,0.76-0.35c0.21-0.05,0.52-0.11,0.94-0.16
		c0.85-0.1,1.48-0.22,1.88-0.36c0-0.14,0.01-0.24,0.01-0.28c0-0.43-0.1-0.73-0.3-0.91c-0.27-0.24-0.67-0.36-1.2-0.36
		c-0.5,0-0.86,0.09-1.1,0.26s-0.41,0.48-0.52,0.92l-1.03-0.14c0.09-0.44,0.25-0.8,0.46-1.07s0.53-0.48,0.93-0.63
		s0.88-0.22,1.41-0.22c0.53,0,0.96,0.06,1.29,0.19s0.58,0.28,0.73,0.47s0.27,0.43,0.33,0.72c0.04,0.18,0.05,0.5,0.05,0.97v1.41
		c0,0.98,0.02,1.6,0.07,1.86s0.13,0.51,0.27,0.75h-1.1C141.3,242.82,141.23,242.56,141.2,242.27z M141.11,239.91
		c-0.38,0.16-0.96,0.29-1.72,0.4c-0.43,0.06-0.74,0.13-0.92,0.21s-0.32,0.19-0.42,0.34s-0.15,0.32-0.15,0.5
		c0,0.28,0.11,0.52,0.32,0.7s0.52,0.28,0.93,0.28c0.41,0,0.77-0.09,1.08-0.27s0.55-0.42,0.7-0.73c0.11-0.24,0.17-0.59,0.17-1.05
		V239.91z"/>
	<path class="st2" d="M145.54,243.04l-2.37-6.22h1.11l1.34,3.73c0.14,0.4,0.28,0.82,0.4,1.25c0.09-0.33,0.22-0.72,0.39-1.18
		l1.38-3.8h1.08l-2.36,6.22H145.54z"/>
	<path class="st2" d="M154.07,241.03l1.09,0.13c-0.17,0.64-0.49,1.13-0.96,1.48s-1.06,0.53-1.78,0.53c-0.91,0-1.63-0.28-2.17-0.84
		s-0.8-1.35-0.8-2.36c0-1.05,0.27-1.86,0.81-2.44s1.24-0.87,2.1-0.87c0.83,0,1.51,0.28,2.04,0.85s0.79,1.36,0.79,2.39
		c0,0.06,0,0.16-0.01,0.28h-4.64c0.04,0.68,0.23,1.21,0.58,1.57s0.78,0.54,1.3,0.54c0.39,0,0.72-0.1,0.99-0.3
		S153.91,241.48,154.07,241.03z M150.61,239.33h3.47c-0.05-0.52-0.18-0.92-0.4-1.18c-0.34-0.41-0.77-0.61-1.31-0.61
		c-0.48,0-0.89,0.16-1.22,0.49S150.64,238.78,150.61,239.33z"/>
	<path class="st2" d="M160.79,243.04h-0.98v-8.59h1.05v3.06c0.45-0.56,1.01-0.84,1.71-0.84c0.38,0,0.75,0.08,1.09,0.23
		s0.62,0.37,0.84,0.65s0.39,0.62,0.52,1.01s0.19,0.82,0.19,1.27c0,1.07-0.26,1.89-0.79,2.47s-1.16,0.87-1.9,0.87
		c-0.73,0-1.31-0.31-1.73-0.92V243.04z M160.78,239.88c0,0.75,0.1,1.29,0.3,1.62c0.33,0.54,0.78,0.81,1.35,0.81
		c0.46,0,0.86-0.2,1.2-0.6s0.5-1,0.5-1.79c0-0.81-0.16-1.41-0.48-1.8s-0.71-0.58-1.17-0.58c-0.46,0-0.86,0.2-1.2,0.6
		S160.78,239.12,160.78,239.88z"/>
	<path class="st2" d="M170.75,241.03l1.09,0.13c-0.17,0.64-0.49,1.13-0.96,1.48s-1.06,0.53-1.78,0.53c-0.91,0-1.63-0.28-2.17-0.84
		s-0.8-1.35-0.8-2.36c0-1.05,0.27-1.86,0.81-2.44s1.24-0.87,2.1-0.87c0.83,0,1.51,0.28,2.04,0.85s0.79,1.36,0.79,2.39
		c0,0.06,0,0.16-0.01,0.28h-4.64c0.04,0.68,0.23,1.21,0.58,1.57s0.78,0.54,1.3,0.54c0.39,0,0.72-0.1,0.99-0.3
		S170.59,241.48,170.75,241.03z M167.29,239.33h3.47c-0.05-0.52-0.18-0.92-0.4-1.18c-0.34-0.41-0.77-0.61-1.31-0.61
		c-0.48,0-0.89,0.16-1.22,0.49S167.32,238.78,167.29,239.33z"/>
	<path class="st2" d="M177.43,241.03l1.09,0.13c-0.17,0.64-0.49,1.13-0.96,1.48s-1.06,0.53-1.78,0.53c-0.91,0-1.63-0.28-2.17-0.84
		s-0.8-1.35-0.8-2.36c0-1.05,0.27-1.86,0.81-2.44s1.24-0.87,2.1-0.87c0.83,0,1.51,0.28,2.04,0.85s0.79,1.36,0.79,2.39
		c0,0.06,0,0.16-0.01,0.28h-4.64c0.04,0.68,0.23,1.21,0.58,1.57s0.78,0.54,1.3,0.54c0.39,0,0.72-0.1,0.99-0.3
		S177.27,241.48,177.43,241.03z M173.96,239.33h3.47c-0.05-0.52-0.18-0.92-0.4-1.18c-0.34-0.41-0.77-0.61-1.31-0.61
		c-0.48,0-0.89,0.16-1.22,0.49S174,238.78,173.96,239.33z"/>
	<path class="st2" d="M179.84,243.04v-6.22h0.95v0.88c0.46-0.68,1.12-1.03,1.98-1.03c0.38,0,0.72,0.07,1.03,0.2s0.55,0.31,0.71,0.53
		s0.27,0.48,0.33,0.78c0.04,0.2,0.06,0.54,0.06,1.03v3.83h-1.05v-3.79c0-0.43-0.04-0.75-0.12-0.96s-0.23-0.38-0.44-0.51
		s-0.45-0.19-0.74-0.19c-0.45,0-0.84,0.14-1.16,0.43s-0.49,0.83-0.49,1.62v3.4H179.84z"/>
	<path class="st2" d="M189.82,243.04v-8.59h1.05v8.59H189.82z"/>
	<path class="st2" d="M192.12,239.92c0-1.15,0.32-2.01,0.96-2.56c0.54-0.46,1.19-0.69,1.96-0.69c0.86,0,1.55,0.28,2.1,0.84
		s0.81,1.33,0.81,2.32c0,0.8-0.12,1.43-0.36,1.89s-0.59,0.82-1.05,1.07s-0.96,0.38-1.5,0.38c-0.87,0-1.58-0.28-2.11-0.84
		S192.12,240.97,192.12,239.92z M193.21,239.92c0,0.8,0.17,1.39,0.52,1.79s0.79,0.59,1.31,0.59c0.52,0,0.96-0.2,1.31-0.6
		s0.52-1.01,0.52-1.82c0-0.77-0.17-1.35-0.52-1.75s-0.78-0.59-1.3-0.59c-0.53,0-0.96,0.2-1.31,0.59S193.21,239.13,193.21,239.92z"/>
	<path class="st2" d="M198.77,241.18l1.04-0.16c0.06,0.42,0.22,0.74,0.49,0.96s0.64,0.33,1.12,0.33c0.48,0,0.84-0.1,1.08-0.3
		s0.35-0.43,0.35-0.69c0-0.24-0.1-0.43-0.31-0.56c-0.14-0.09-0.5-0.21-1.08-0.36c-0.77-0.2-1.31-0.36-1.61-0.51
		s-0.53-0.34-0.68-0.59s-0.23-0.53-0.23-0.83c0-0.28,0.06-0.53,0.19-0.77s0.3-0.43,0.52-0.59c0.16-0.12,0.39-0.22,0.67-0.31
		s0.59-0.13,0.91-0.13c0.49,0,0.92,0.07,1.29,0.21s0.64,0.33,0.82,0.57s0.3,0.56,0.36,0.96l-1.03,0.14
		c-0.05-0.32-0.18-0.57-0.41-0.75s-0.54-0.27-0.95-0.27c-0.48,0-0.83,0.08-1.04,0.24s-0.31,0.35-0.31,0.56
		c0,0.14,0.04,0.26,0.13,0.37c0.09,0.11,0.22,0.21,0.4,0.28c0.11,0.04,0.42,0.13,0.93,0.27c0.75,0.2,1.27,0.36,1.56,0.49
		s0.53,0.31,0.69,0.55s0.25,0.54,0.25,0.9c0,0.35-0.1,0.68-0.31,0.99s-0.5,0.55-0.89,0.72s-0.82,0.25-1.31,0.25
		c-0.81,0-1.42-0.17-1.85-0.5S198.88,241.84,198.77,241.18z"/>
	<path class="st2" d="M207.49,242.09l0.15,0.93c-0.3,0.06-0.56,0.09-0.8,0.09c-0.38,0-0.68-0.06-0.89-0.18s-0.36-0.28-0.45-0.48
		s-0.13-0.61-0.13-1.25v-3.58h-0.77v-0.82h0.77v-1.54l1.05-0.63v2.17h1.06v0.82h-1.06v3.64c0,0.3,0.02,0.49,0.06,0.58
		s0.1,0.15,0.18,0.21s0.2,0.08,0.36,0.08C207.14,242.13,207.3,242.12,207.49,242.09z"/>
	<path class="st2" d="M208.82,243.04v-1.2h1.2v1.2H208.82z"/>
</g>
<g id="buttonReplay">
	<circle class="st7" cx="41.76" cy="215.4" r="19.85"/>
	<g>
		<g>
			<polygon class="st3" points="43.82,199.11 32.89,205.42 43.82,211.73 			"/>
		</g>
	</g>
	<path class="st8" d="M42.11,205.07c5.92,0,10.71,4.8,10.71,10.71c0,5.92-4.8,10.71-10.71,10.71s-10.71-4.8-10.71-10.71"/>
	<path class="st8" d="M42.11,205.07"/>
	<path class="st8" d="M31.39,215.79"/>
</g>
<g>
</g>
<g>
</g>
<g>
</g>
<g>
</g>
<g>
</g>
<g>
</g>
<g>
</g>
<g>
</g>
<g>
</g>
<g>
</g>
<g>
</g>
<g>
</g>
<g>
</g>
<g>
</g>
<g>
</g>
</svg>
