<?xml version="1.0" encoding="utf-8"?>
<!-- Generator: Adobe Illustrator 18.1.1, SVG Export Plug-In . SVG Version: 6.00 Build 0)  -->
<svg version="1.1" id="scene1" xmlns="http://www.w3.org/2000/svg" xmlns:xlink="http://www.w3.org/1999/xlink" x="0px" y="0px"
	 width="500px" height="250px" viewBox="0 0 500 250" style="enable-background:new 0 0 500 250;" xml:space="preserve">
<style type="text/css">
	.st0{fill:#A2CEF9;}
	.st1{fill:none;}
	.st2{fill:#F2F2F2;}
	.st3{fill:#003366;}
	.st4{fill:#606060;}
	.st5{fill:#FF4425;}
	.st6{fill:#FFFFFF;}
	.st7{fill:#F15A24;}
	.st8{fill:none;stroke:#FF4425;stroke-width:3;stroke-miterlimit:10;}
	.st9{fill:none;stroke:#FF4425;stroke-width:3;stroke-miterlimit:10;stroke-dasharray:3,3;}
	.st10{fill:none;stroke:#EAE8EA;stroke-width:2;stroke-miterlimit:10;}
	.st11{fill:none;stroke:#EAE8EA;stroke-width:2;stroke-miterlimit:10;stroke-dasharray:11,11;}
	.st12{fill:#EAE8EA;}
	.st13{fill:none;stroke:#EAE8EA;stroke-width:2;stroke-miterlimit:10;stroke-dasharray:12.049,12.049;}
	.st14{fill:none;stroke:#00FF18;stroke-width:2;stroke-miterlimit:10;}
	.st15{fill:none;stroke:#00FF18;stroke-width:2;stroke-miterlimit:10;stroke-dasharray:11.5935,11.5935;}
	.st16{fill:#00FF18;}
	.st17{fill:none;stroke:#00FF18;stroke-width:2;stroke-miterlimit:10;stroke-dasharray:11.995,11.995;}
	.st18{fill:#76B82A;}
	.st19{fill:none;stroke:#FFFFFF;stroke-width:3;stroke-miterlimit:10;}
</style>
<rect id="bg_1_" class="st0" width="500" height="250"/>
<g id="title">
	<rect x="9" y="10.5" class="st1" width="256" height="21.5"/>
	<path class="st2" d="M10.17,21.96V10.5h4.87c1.22,0,2.11,0.1,2.67,0.31c0.55,0.21,1,0.57,1.33,1.1c0.33,0.53,0.5,1.13,0.5,1.8
		c0,0.86-0.25,1.57-0.76,2.13c-0.51,0.56-1.26,0.91-2.27,1.06c0.5,0.29,0.91,0.61,1.24,0.96c0.33,0.35,0.76,0.97,1.32,1.86l1.4,2.23
		H17.7l-1.67-2.49c-0.59-0.89-1-1.45-1.22-1.68c-0.22-0.23-0.45-0.39-0.7-0.48c-0.25-0.09-0.63-0.13-1.16-0.13h-0.47v4.78H10.17z
		 M12.48,15.35h1.71c1.11,0,1.8-0.05,2.08-0.14c0.28-0.09,0.49-0.25,0.65-0.48c0.16-0.23,0.23-0.52,0.23-0.86
		c0-0.39-0.1-0.7-0.31-0.93c-0.21-0.24-0.5-0.39-0.87-0.45c-0.19-0.03-0.75-0.04-1.69-0.04h-1.8V15.35z"/>
	<path class="st2" d="M26.51,19.31l2.19,0.37c-0.28,0.8-0.73,1.41-1.33,1.83c-0.61,0.42-1.37,0.63-2.28,0.63
		c-1.44,0-2.51-0.47-3.2-1.41c-0.55-0.75-0.82-1.71-0.82-2.86c0-1.38,0.36-2.45,1.08-3.23c0.72-0.78,1.63-1.17,2.73-1.17
		c1.23,0,2.21,0.41,2.92,1.22c0.71,0.82,1.05,2.06,1.02,3.75h-5.5c0.02,0.65,0.19,1.16,0.53,1.52c0.34,0.36,0.76,0.54,1.27,0.54
		c0.34,0,0.63-0.09,0.87-0.28S26.39,19.73,26.51,19.31z M26.63,17.1c-0.02-0.64-0.18-1.12-0.49-1.45c-0.31-0.33-0.69-0.5-1.14-0.5
		c-0.48,0-0.88,0.17-1.19,0.52c-0.31,0.35-0.47,0.82-0.46,1.42H26.63z"/>
	<path class="st2" d="M38.21,21.96h-2.04v-1.22c-0.34,0.47-0.74,0.83-1.2,1.06s-0.93,0.35-1.39,0.35c-0.95,0-1.77-0.38-2.45-1.15
		c-0.68-0.77-1.02-1.84-1.02-3.21c0-1.41,0.33-2.48,0.99-3.21c0.66-0.73,1.5-1.1,2.51-1.1c0.93,0,1.73,0.39,2.41,1.16V10.5h2.2
		V21.96z M32.35,17.63c0,0.89,0.12,1.53,0.37,1.92c0.35,0.57,0.85,0.86,1.48,0.86c0.5,0,0.93-0.21,1.29-0.64
		c0.35-0.43,0.53-1.07,0.53-1.93c0-0.95-0.17-1.64-0.52-2.06c-0.34-0.42-0.78-0.63-1.32-0.63c-0.52,0-0.96,0.21-1.31,0.62
		S32.35,16.8,32.35,17.63z"/>
	<path class="st2" d="M45.84,21.96v-1.24c-0.3,0.44-0.7,0.79-1.19,1.05s-1.01,0.38-1.56,0.38c-0.56,0-1.06-0.12-1.5-0.37
		c-0.44-0.24-0.76-0.59-0.96-1.03c-0.2-0.44-0.3-1.05-0.3-1.84v-5.25h2.2v3.81c0,1.17,0.04,1.88,0.12,2.14
		c0.08,0.26,0.23,0.47,0.44,0.63c0.21,0.15,0.48,0.23,0.81,0.23c0.38,0,0.71-0.1,1.01-0.31c0.3-0.21,0.5-0.46,0.61-0.77
		s0.16-1.05,0.16-2.24v-3.5h2.2v8.3H45.84z"/>
	<path class="st2" d="M57.38,16.11l-2.16,0.39c-0.07-0.43-0.24-0.76-0.5-0.98s-0.59-0.33-1-0.33c-0.55,0-0.98,0.19-1.31,0.57
		c-0.33,0.38-0.49,1.01-0.49,1.89c0,0.98,0.17,1.68,0.5,2.09c0.33,0.41,0.77,0.61,1.33,0.61c0.42,0,0.76-0.12,1.02-0.36
		c0.27-0.24,0.45-0.64,0.56-1.22l2.16,0.37c-0.22,0.99-0.65,1.74-1.29,2.24c-0.64,0.51-1.49,0.76-2.55,0.76
		c-1.21,0-2.18-0.38-2.9-1.15c-0.72-0.77-1.08-1.83-1.08-3.18c0-1.37,0.36-2.44,1.09-3.2c0.72-0.76,1.7-1.14,2.94-1.14
		c1.01,0,1.81,0.22,2.41,0.65C56.69,14.56,57.12,15.22,57.38,16.11z"/>
	<path class="st2" d="M63.85,19.31l2.19,0.37c-0.28,0.8-0.73,1.41-1.33,1.83c-0.61,0.42-1.37,0.63-2.28,0.63
		c-1.44,0-2.51-0.47-3.2-1.41c-0.55-0.75-0.82-1.71-0.82-2.86c0-1.38,0.36-2.45,1.08-3.23c0.72-0.78,1.63-1.17,2.73-1.17
		c1.23,0,2.21,0.41,2.92,1.22c0.71,0.82,1.05,2.06,1.02,3.75h-5.5c0.02,0.65,0.19,1.16,0.53,1.52c0.34,0.36,0.76,0.54,1.27,0.54
		c0.34,0,0.63-0.09,0.87-0.28S63.73,19.73,63.85,19.31z M63.98,17.1c-0.02-0.64-0.18-1.12-0.49-1.45c-0.31-0.33-0.69-0.5-1.14-0.5
		c-0.48,0-0.88,0.17-1.19,0.52c-0.31,0.35-0.47,0.82-0.46,1.42H63.98z"/>
	<path class="st2" d="M74.67,21.96l-3.34-8.3h2.3l1.56,4.23l0.45,1.41c0.12-0.36,0.2-0.6,0.23-0.71c0.07-0.23,0.15-0.47,0.23-0.7
		l1.58-4.23h2.26l-3.3,8.3H74.67z"/>
	<path class="st2" d="M86.09,19.31l2.19,0.37c-0.28,0.8-0.73,1.41-1.33,1.83c-0.61,0.42-1.37,0.63-2.28,0.63
		c-1.44,0-2.51-0.47-3.2-1.41c-0.55-0.75-0.82-1.71-0.82-2.86c0-1.38,0.36-2.45,1.08-3.23c0.72-0.78,1.63-1.17,2.73-1.17
		c1.23,0,2.21,0.41,2.92,1.22c0.71,0.82,1.05,2.06,1.02,3.75h-5.5c0.02,0.65,0.19,1.16,0.53,1.52c0.34,0.36,0.76,0.54,1.27,0.54
		c0.34,0,0.63-0.09,0.87-0.28S85.97,19.73,86.09,19.31z M86.22,17.1c-0.02-0.64-0.18-1.12-0.49-1.45c-0.31-0.33-0.69-0.5-1.14-0.5
		c-0.48,0-0.88,0.17-1.19,0.52c-0.31,0.35-0.47,0.82-0.46,1.42H86.22z"/>
	<path class="st2" d="M92.29,21.96h-2.2v-8.3h2.04v1.18c0.35-0.56,0.66-0.92,0.94-1.1c0.28-0.18,0.59-0.27,0.95-0.27
		c0.5,0,0.98,0.14,1.45,0.41l-0.68,1.91c-0.37-0.24-0.71-0.36-1.03-0.36c-0.31,0-0.57,0.08-0.78,0.25c-0.21,0.17-0.38,0.48-0.5,0.92
		c-0.12,0.44-0.18,1.37-0.18,2.78V21.96z"/>
	<path class="st2" d="M100.22,13.66v1.75h-1.5v3.34c0,0.68,0.01,1.07,0.04,1.18c0.03,0.11,0.09,0.2,0.2,0.28
		c0.1,0.07,0.23,0.11,0.37,0.11c0.2,0,0.5-0.07,0.88-0.21l0.19,1.7c-0.51,0.22-1.09,0.33-1.73,0.33c-0.4,0-0.75-0.07-1.07-0.2
		c-0.32-0.13-0.55-0.3-0.7-0.52s-0.25-0.5-0.31-0.86c-0.05-0.25-0.07-0.77-0.07-1.55v-3.62h-1.01v-1.75h1.01v-1.65l2.2-1.28v2.93
		H100.22z"/>
	<path class="st2" d="M101.74,12.53V10.5h2.2v2.03H101.74z M101.74,21.96v-8.3h2.2v8.3H101.74z"/>
	<path class="st2" d="M113.42,16.11l-2.16,0.39c-0.07-0.43-0.24-0.76-0.5-0.98s-0.59-0.33-1-0.33c-0.55,0-0.98,0.19-1.31,0.57
		c-0.33,0.38-0.49,1.01-0.49,1.89c0,0.98,0.17,1.68,0.5,2.09c0.33,0.41,0.77,0.61,1.33,0.61c0.42,0,0.76-0.12,1.02-0.36
		c0.27-0.24,0.45-0.64,0.56-1.22l2.16,0.37c-0.22,0.99-0.65,1.74-1.29,2.24c-0.64,0.51-1.49,0.76-2.55,0.76
		c-1.21,0-2.18-0.38-2.9-1.15c-0.72-0.77-1.08-1.83-1.08-3.18c0-1.37,0.36-2.44,1.09-3.2c0.72-0.76,1.7-1.14,2.94-1.14
		c1.01,0,1.81,0.22,2.41,0.65C112.73,14.56,113.16,15.22,113.42,16.11z"/>
	<path class="st2" d="M116.73,16.19l-1.99-0.36c0.22-0.8,0.61-1.4,1.16-1.78c0.55-0.39,1.36-0.58,2.44-0.58
		c0.98,0,1.71,0.12,2.19,0.35c0.48,0.23,0.82,0.53,1.01,0.88c0.2,0.36,0.29,1.01,0.29,1.96l-0.02,2.56c0,0.73,0.04,1.27,0.11,1.61
		c0.07,0.35,0.2,0.72,0.39,1.11h-2.17c-0.06-0.15-0.13-0.36-0.21-0.65c-0.04-0.13-0.06-0.22-0.08-0.26
		c-0.38,0.36-0.78,0.64-1.2,0.82c-0.43,0.18-0.88,0.27-1.37,0.27c-0.85,0-1.53-0.23-2.02-0.7c-0.49-0.46-0.74-1.05-0.74-1.76
		c0-0.47,0.11-0.89,0.34-1.25c0.22-0.37,0.54-0.65,0.94-0.84c0.4-0.2,0.99-0.37,1.75-0.51c1.03-0.19,1.74-0.37,2.13-0.54v-0.22
		c0-0.42-0.1-0.72-0.31-0.9c-0.21-0.18-0.6-0.27-1.18-0.27c-0.39,0-0.7,0.08-0.91,0.23C117.04,15.54,116.86,15.8,116.73,16.19z
		 M119.66,17.97c-0.28,0.09-0.73,0.21-1.34,0.34c-0.61,0.13-1.01,0.26-1.2,0.38c-0.29,0.2-0.43,0.46-0.43,0.77
		c0,0.31,0.11,0.57,0.34,0.8c0.23,0.22,0.52,0.34,0.88,0.34c0.4,0,0.77-0.13,1.13-0.39c0.27-0.2,0.44-0.44,0.52-0.73
		c0.06-0.19,0.09-0.54,0.09-1.07V17.97z"/>
	<path class="st2" d="M123.98,21.96V10.5h2.2v11.45H123.98z"/>
	<path class="st2" d="M132.1,19.59l2.2-0.34c0.09,0.43,0.28,0.75,0.57,0.97c0.29,0.22,0.69,0.33,1.2,0.33c0.57,0,0.99-0.1,1.28-0.31
		c0.19-0.15,0.29-0.34,0.29-0.59c0-0.17-0.05-0.3-0.16-0.41c-0.11-0.1-0.35-0.2-0.73-0.29c-1.77-0.39-2.89-0.75-3.37-1.07
		c-0.66-0.45-0.98-1.07-0.98-1.87c0-0.72,0.28-1.32,0.85-1.81c0.57-0.49,1.45-0.73,2.64-0.73c1.14,0,1.98,0.19,2.53,0.55
		c0.55,0.37,0.93,0.92,1.14,1.64l-2.07,0.38c-0.09-0.32-0.26-0.57-0.5-0.74c-0.25-0.17-0.6-0.26-1.06-0.26
		c-0.58,0-0.99,0.08-1.24,0.24c-0.17,0.11-0.25,0.26-0.25,0.45c0,0.16,0.07,0.29,0.22,0.4c0.2,0.15,0.88,0.35,2.05,0.62
		c1.17,0.27,1.99,0.59,2.45,0.98c0.46,0.39,0.69,0.94,0.69,1.63c0,0.76-0.32,1.41-0.95,1.96c-0.64,0.55-1.58,0.82-2.82,0.82
		c-1.13,0-2.02-0.23-2.68-0.69C132.74,21,132.3,20.38,132.1,19.59z"/>
	<path class="st2" d="M141.71,13.66h2.05v1.22c0.27-0.42,0.63-0.75,1.08-1.02c0.45-0.26,0.96-0.39,1.51-0.39
		c0.96,0,1.78,0.38,2.45,1.13c0.67,0.76,1.01,1.81,1.01,3.16c0,1.39-0.34,2.46-1.02,3.23c-0.68,0.77-1.5,1.15-2.46,1.15
		c-0.46,0-0.87-0.09-1.25-0.27c-0.37-0.18-0.76-0.49-1.18-0.94v4.18h-2.2V13.66z M143.88,17.67c0,0.93,0.18,1.62,0.55,2.07
		c0.37,0.45,0.82,0.67,1.35,0.67c0.51,0,0.93-0.2,1.27-0.61c0.34-0.41,0.51-1.08,0.51-2.01c0-0.87-0.17-1.52-0.52-1.94
		c-0.35-0.42-0.78-0.63-1.3-0.63c-0.54,0-0.98,0.21-1.34,0.62C144.06,16.24,143.88,16.85,143.88,17.67z"/>
	<path class="st2" d="M156.35,19.31l2.19,0.37c-0.28,0.8-0.73,1.41-1.33,1.83c-0.61,0.42-1.37,0.63-2.28,0.63
		c-1.44,0-2.51-0.47-3.2-1.41c-0.55-0.75-0.82-1.71-0.82-2.86c0-1.38,0.36-2.45,1.08-3.23c0.72-0.78,1.63-1.17,2.73-1.17
		c1.23,0,2.21,0.41,2.92,1.22c0.71,0.82,1.05,2.06,1.02,3.75h-5.5c0.02,0.65,0.19,1.16,0.53,1.52c0.34,0.36,0.76,0.54,1.27,0.54
		c0.34,0,0.63-0.09,0.87-0.28S156.23,19.73,156.35,19.31z M156.48,17.1c-0.02-0.64-0.18-1.12-0.49-1.45
		c-0.31-0.33-0.69-0.5-1.14-0.5c-0.48,0-0.88,0.17-1.19,0.52c-0.31,0.35-0.47,0.82-0.46,1.42H156.48z"/>
	<path class="st2" d="M165.25,19.31l2.19,0.37c-0.28,0.8-0.73,1.41-1.33,1.83c-0.61,0.42-1.37,0.63-2.28,0.63
		c-1.44,0-2.51-0.47-3.2-1.41c-0.55-0.75-0.82-1.71-0.82-2.86c0-1.38,0.36-2.45,1.08-3.23c0.72-0.78,1.63-1.17,2.73-1.17
		c1.23,0,2.21,0.41,2.92,1.22c0.71,0.82,1.05,2.06,1.02,3.75h-5.5c0.02,0.65,0.19,1.16,0.53,1.52c0.34,0.36,0.76,0.54,1.27,0.54
		c0.34,0,0.63-0.09,0.87-0.28S165.13,19.73,165.25,19.31z M165.38,17.1c-0.02-0.64-0.18-1.12-0.49-1.45
		c-0.31-0.33-0.69-0.5-1.14-0.5c-0.48,0-0.88,0.17-1.19,0.52c-0.31,0.35-0.47,0.82-0.46,1.42H165.38z"/>
	<path class="st2" d="M176.95,21.96h-2.04v-1.22c-0.34,0.47-0.74,0.83-1.2,1.06s-0.93,0.35-1.39,0.35c-0.95,0-1.77-0.38-2.45-1.15
		c-0.68-0.77-1.02-1.84-1.02-3.21c0-1.41,0.33-2.48,0.99-3.21c0.66-0.73,1.5-1.1,2.51-1.1c0.93,0,1.73,0.39,2.41,1.16V10.5h2.2
		V21.96z M171.09,17.63c0,0.89,0.12,1.53,0.37,1.92c0.35,0.57,0.85,0.86,1.48,0.86c0.5,0,0.93-0.21,1.29-0.64
		c0.35-0.43,0.53-1.07,0.53-1.93c0-0.95-0.17-1.64-0.52-2.06c-0.34-0.42-0.78-0.63-1.32-0.63c-0.52,0-0.96,0.21-1.31,0.62
		S171.09,16.8,171.09,17.63z"/>
</g>
<g id="text5">
	<rect x="11.5" y="197" class="st1" width="139.5" height="49"/>
	<path class="st3" d="M16.72,207.02h-1.23v-7.84c-0.3,0.28-0.68,0.56-1.17,0.85c-0.48,0.28-0.91,0.49-1.3,0.63v-1.19
		c0.69-0.32,1.29-0.71,1.8-1.18c0.52-0.46,0.88-0.91,1.09-1.34h0.79V207.02z"/>
	<path class="st3" d="M20.56,207.02v-1.4h1.4v1.4H20.56z"/>
	<path class="st3" d="M30.44,207.02v-8.84h-3.3V197h7.94v1.18h-3.32v8.84H30.44z"/>
	<path class="st3" d="M43.59,203.51l1.33,0.34c-0.28,1.09-0.78,1.92-1.5,2.49s-1.61,0.86-2.65,0.86c-1.08,0-1.96-0.22-2.64-0.66
		s-1.19-1.08-1.54-1.91s-0.53-1.73-0.53-2.69c0-1.04,0.2-1.95,0.6-2.73s0.97-1.37,1.7-1.77s1.55-0.6,2.43-0.6
		c1,0,1.85,0.25,2.53,0.77c0.68,0.51,1.16,1.23,1.43,2.15l-1.31,0.31c-0.23-0.73-0.57-1.26-1.01-1.59c-0.44-0.33-1-0.5-1.67-0.5
		c-0.77,0-1.41,0.18-1.93,0.55s-0.88,0.87-1.09,1.49s-0.31,1.26-0.31,1.92c0,0.85,0.12,1.6,0.37,2.23s0.63,1.11,1.16,1.42
		s1.09,0.47,1.7,0.47c0.74,0,1.37-0.21,1.89-0.64C43.06,204.99,43.41,204.35,43.59,203.51z"/>
	<path class="st3" d="M45.45,207.02L49.3,197h1.43l4.1,10.02h-1.51l-1.17-3.04h-4.19l-1.1,3.04H45.45z M48.35,202.91h3.4l-1.05-2.78
		c-0.32-0.84-0.56-1.54-0.71-2.08c-0.13,0.64-0.31,1.28-0.54,1.91L48.35,202.91z"/>
	<path class="st3" d="M55.44,203.8l1.25-0.11c0.06,0.5,0.2,0.91,0.41,1.23s0.55,0.58,1.01,0.78s0.97,0.3,1.54,0.3
		c0.51,0,0.95-0.08,1.34-0.23s0.68-0.36,0.86-0.62s0.28-0.55,0.28-0.86c0-0.31-0.09-0.59-0.27-0.82s-0.48-0.43-0.9-0.59
		c-0.27-0.11-0.86-0.27-1.78-0.49s-1.57-0.43-1.93-0.63c-0.48-0.25-0.83-0.56-1.07-0.93s-0.35-0.79-0.35-1.25
		c0-0.51,0.14-0.98,0.43-1.42s0.71-0.77,1.26-1c0.55-0.23,1.16-0.34,1.84-0.34c0.74,0,1.4,0.12,1.97,0.36s1,0.59,1.31,1.06
		s0.47,0.99,0.49,1.58l-1.27,0.1c-0.07-0.63-0.3-1.11-0.69-1.44c-0.39-0.32-0.98-0.49-1.75-0.49c-0.8,0-1.39,0.15-1.75,0.44
		s-0.55,0.65-0.55,1.06c0,0.36,0.13,0.66,0.39,0.89c0.26,0.23,0.92,0.47,2,0.71s1.82,0.46,2.22,0.64c0.58,0.27,1.01,0.61,1.29,1.02
		s0.42,0.89,0.42,1.42c0,0.53-0.15,1.04-0.46,1.51s-0.74,0.84-1.32,1.1s-1.22,0.39-1.93,0.39c-0.91,0-1.67-0.13-2.28-0.4
		c-0.61-0.26-1.09-0.66-1.44-1.19S55.46,204.47,55.44,203.8z"/>
	<path class="st3" d="M73.67,207.02v-0.92c-0.46,0.72-1.14,1.08-2.03,1.08c-0.58,0-1.11-0.16-1.6-0.48
		c-0.49-0.32-0.86-0.76-1.13-1.34s-0.4-1.23-0.4-1.97c0-0.72,0.12-1.38,0.36-1.97s0.6-1.04,1.09-1.36s1.02-0.47,1.62-0.47
		c0.44,0,0.83,0.09,1.17,0.28s0.62,0.42,0.83,0.72V197h1.22v10.02H73.67z M69.78,203.4c0,0.93,0.2,1.63,0.59,2.09
		c0.39,0.46,0.85,0.69,1.39,0.69c0.54,0,0.99-0.22,1.37-0.66s0.56-1.11,0.56-2.01c0-0.99-0.19-1.72-0.57-2.19s-0.85-0.7-1.42-0.7
		c-0.55,0-1,0.22-1.37,0.67C69.97,201.74,69.78,202.44,69.78,203.4z"/>
	<path class="st3" d="M81.72,204.69l1.27,0.16c-0.2,0.74-0.57,1.32-1.11,1.73s-1.23,0.62-2.08,0.62c-1.06,0-1.9-0.33-2.53-0.98
		s-0.93-1.57-0.93-2.75c0-1.22,0.31-2.17,0.94-2.84c0.63-0.67,1.44-1.01,2.45-1.01c0.97,0,1.76,0.33,2.38,0.99
		c0.62,0.66,0.92,1.59,0.92,2.79c0,0.07,0,0.18-0.01,0.33h-5.41c0.05,0.8,0.27,1.41,0.68,1.83s0.91,0.63,1.52,0.63
		c0.45,0,0.84-0.12,1.16-0.36C81.28,205.58,81.53,205.21,81.72,204.69z M77.68,202.7h4.05c-0.05-0.61-0.21-1.07-0.46-1.38
		c-0.39-0.47-0.9-0.71-1.52-0.71c-0.56,0-1.04,0.19-1.43,0.57C77.93,201.56,77.72,202.06,77.68,202.7z"/>
	<path class="st3" d="M87.22,205.92l0.18,1.09c-0.35,0.07-0.66,0.11-0.93,0.11c-0.45,0-0.79-0.07-1.04-0.21
		c-0.25-0.14-0.42-0.33-0.52-0.56s-0.15-0.71-0.15-1.45v-4.18h-0.9v-0.96h0.9v-1.8l1.22-0.74v2.54h1.24v0.96h-1.24v4.25
		c0,0.35,0.02,0.58,0.06,0.68c0.04,0.1,0.11,0.18,0.21,0.24c0.1,0.06,0.24,0.09,0.42,0.09C86.82,205.97,87,205.96,87.22,205.92z"/>
	<path class="st3" d="M93.39,204.69l1.27,0.16c-0.2,0.74-0.57,1.32-1.11,1.73s-1.23,0.62-2.08,0.62c-1.06,0-1.9-0.33-2.53-0.98
		s-0.93-1.57-0.93-2.75c0-1.22,0.31-2.17,0.94-2.84c0.63-0.67,1.44-1.01,2.45-1.01c0.97,0,1.76,0.33,2.38,0.99
		c0.62,0.66,0.92,1.59,0.92,2.79c0,0.07,0,0.18-0.01,0.33h-5.41c0.05,0.8,0.27,1.41,0.68,1.83s0.91,0.63,1.52,0.63
		c0.45,0,0.84-0.12,1.16-0.36C92.95,205.58,93.21,205.21,93.39,204.69z M89.35,202.7h4.05c-0.05-0.61-0.21-1.07-0.46-1.38
		c-0.39-0.47-0.9-0.71-1.52-0.71c-0.56,0-1.04,0.19-1.43,0.57C89.61,201.56,89.4,202.06,89.35,202.7z"/>
	<path class="st3" d="M100.95,204.37l1.21,0.16c-0.13,0.83-0.47,1.49-1.02,1.96s-1.21,0.71-2.01,0.71c-0.99,0-1.79-0.32-2.4-0.97
		s-0.91-1.58-0.91-2.79c0-0.78,0.13-1.47,0.39-2.06s0.66-1.03,1.19-1.32s1.11-0.44,1.73-0.44c0.79,0,1.43,0.2,1.93,0.6
		s0.82,0.96,0.96,1.7l-1.2,0.19c-0.11-0.49-0.32-0.86-0.6-1.1s-0.64-0.37-1.05-0.37c-0.62,0-1.12,0.22-1.51,0.67
		s-0.58,1.15-0.58,2.11c0,0.98,0.19,1.68,0.56,2.13c0.37,0.44,0.86,0.66,1.46,0.66c0.48,0,0.89-0.15,1.21-0.44
		C100.66,205.44,100.86,204.98,100.95,204.37z"/>
	<path class="st3" d="M105.9,205.92l0.18,1.09c-0.35,0.07-0.66,0.11-0.93,0.11c-0.45,0-0.79-0.07-1.04-0.21
		c-0.25-0.14-0.42-0.33-0.52-0.56s-0.15-0.71-0.15-1.45v-4.18h-0.9v-0.96h0.9v-1.8l1.22-0.74v2.54h1.24v0.96h-1.24v4.25
		c0,0.35,0.02,0.58,0.06,0.68c0.04,0.1,0.11,0.18,0.21,0.24c0.1,0.06,0.24,0.09,0.42,0.09C105.49,205.97,105.67,205.96,105.9,205.92
		z"/>
	<path class="st3" d="M106.61,204.86l1.22-0.19c0.07,0.49,0.26,0.86,0.57,1.12s0.75,0.39,1.31,0.39c0.56,0,0.98-0.12,1.26-0.34
		s0.41-0.5,0.41-0.81c0-0.28-0.12-0.5-0.36-0.66c-0.17-0.11-0.59-0.25-1.26-0.42c-0.9-0.23-1.53-0.42-1.88-0.59s-0.61-0.4-0.79-0.69
		s-0.27-0.62-0.27-0.97c0-0.32,0.07-0.62,0.22-0.9s0.35-0.5,0.6-0.69c0.19-0.14,0.45-0.26,0.78-0.36s0.68-0.15,1.06-0.15
		c0.57,0,1.07,0.08,1.5,0.25s0.75,0.39,0.95,0.67s0.35,0.66,0.42,1.12l-1.2,0.16c-0.05-0.37-0.21-0.67-0.48-0.88
		c-0.26-0.21-0.63-0.31-1.11-0.31c-0.56,0-0.97,0.09-1.21,0.28c-0.24,0.19-0.36,0.41-0.36,0.66c0,0.16,0.05,0.3,0.15,0.43
		c0.1,0.13,0.26,0.24,0.47,0.33c0.12,0.05,0.49,0.15,1.09,0.31c0.87,0.23,1.48,0.42,1.82,0.57s0.61,0.36,0.81,0.65
		c0.2,0.28,0.29,0.63,0.29,1.05c0,0.41-0.12,0.8-0.36,1.16s-0.58,0.64-1.04,0.84s-0.96,0.3-1.53,0.3c-0.94,0-1.66-0.2-2.16-0.59
		C107.06,206.21,106.75,205.63,106.61,204.86z"/>
	<path class="st3" d="M122.73,206.13c-0.46,0.39-0.89,0.66-1.32,0.82c-0.42,0.16-0.87,0.24-1.36,0.24c-0.8,0-1.41-0.19-1.84-0.58
		s-0.64-0.89-0.64-1.49c0-0.36,0.08-0.68,0.24-0.97s0.37-0.53,0.64-0.71s0.56-0.31,0.89-0.4c0.24-0.06,0.61-0.13,1.09-0.19
		c0.99-0.12,1.73-0.26,2.19-0.42c0-0.17,0.01-0.28,0.01-0.32c0-0.5-0.12-0.86-0.35-1.06c-0.31-0.28-0.78-0.42-1.4-0.42
		c-0.58,0-1.01,0.1-1.28,0.3s-0.48,0.56-0.61,1.08l-1.2-0.16c0.11-0.52,0.29-0.93,0.54-1.25s0.61-0.56,1.09-0.73
		s1.02-0.26,1.65-0.26c0.62,0,1.12,0.07,1.51,0.22c0.39,0.15,0.67,0.33,0.85,0.55s0.31,0.5,0.38,0.84c0.04,0.21,0.06,0.59,0.06,1.13
		v1.64c0,1.14,0.03,1.87,0.08,2.17s0.16,0.59,0.31,0.87h-1.29C122.85,206.77,122.76,206.47,122.73,206.13z M122.63,203.38
		c-0.45,0.18-1.12,0.34-2.01,0.46c-0.51,0.07-0.86,0.15-1.07,0.25c-0.21,0.09-0.37,0.22-0.49,0.4s-0.17,0.37-0.17,0.58
		c0,0.33,0.12,0.6,0.37,0.82s0.61,0.33,1.09,0.33c0.47,0,0.9-0.1,1.26-0.31s0.64-0.49,0.81-0.85c0.13-0.28,0.2-0.69,0.2-1.23V203.38
		z"/>
	<path class="st3" d="M15.11,222.72l0.18,1.09c-0.35,0.07-0.66,0.11-0.93,0.11c-0.45,0-0.79-0.07-1.04-0.21
		c-0.25-0.14-0.42-0.33-0.52-0.56s-0.15-0.71-0.15-1.45v-4.18h-0.9v-0.96h0.9v-1.8l1.22-0.74v2.54h1.24v0.96h-1.24v4.24
		c0,0.35,0.02,0.58,0.06,0.68c0.04,0.1,0.11,0.18,0.21,0.24c0.1,0.06,0.24,0.09,0.42,0.09C14.71,222.77,14.89,222.75,15.11,222.72z"
		/>
	<path class="st3" d="M16.31,223.82V213.8h1.23v3.6c0.57-0.67,1.3-1,2.17-1c0.54,0,1,0.11,1.4,0.32s0.68,0.5,0.85,0.88
		c0.17,0.37,0.26,0.92,0.26,1.63v4.6H21v-4.6c0-0.62-0.13-1.06-0.4-1.34s-0.64-0.42-1.13-0.42c-0.36,0-0.71,0.1-1.03,0.28
		s-0.55,0.45-0.69,0.77c-0.14,0.32-0.21,0.77-0.21,1.34v3.97H16.31z"/>
	<path class="st3" d="M24.08,223.82v-7.26h1.11v1.1c0.28-0.51,0.54-0.85,0.78-1.02s0.5-0.25,0.79-0.25c0.41,0,0.84,0.13,1.26,0.4
		l-0.42,1.14c-0.3-0.18-0.6-0.27-0.9-0.27c-0.27,0-0.51,0.08-0.72,0.24s-0.37,0.39-0.46,0.67c-0.14,0.44-0.21,0.92-0.21,1.44v3.8
		H24.08z"/>
	<path class="st3" d="M33.73,221.49l1.27,0.16c-0.2,0.74-0.57,1.32-1.11,1.73s-1.23,0.62-2.08,0.62c-1.06,0-1.9-0.33-2.53-0.98
		s-0.93-1.57-0.93-2.75c0-1.22,0.31-2.17,0.94-2.84c0.63-0.67,1.44-1.01,2.45-1.01c0.97,0,1.76,0.33,2.38,0.99
		c0.62,0.66,0.92,1.59,0.92,2.79c0,0.07,0,0.18-0.01,0.33h-5.41c0.05,0.8,0.27,1.41,0.68,1.83s0.91,0.64,1.52,0.64
		c0.45,0,0.84-0.12,1.16-0.36C33.29,222.38,33.54,222.01,33.73,221.49z M29.69,219.5h4.05c-0.05-0.61-0.21-1.07-0.46-1.37
		c-0.39-0.47-0.9-0.71-1.52-0.71c-0.56,0-1.04,0.19-1.43,0.57C29.94,218.36,29.73,218.86,29.69,219.5z"/>
	<path class="st3" d="M41.28,222.93c-0.46,0.39-0.89,0.66-1.32,0.82c-0.42,0.16-0.87,0.24-1.36,0.24c-0.8,0-1.41-0.2-1.84-0.58
		s-0.64-0.89-0.64-1.49c0-0.36,0.08-0.68,0.24-0.97s0.37-0.53,0.64-0.71s0.56-0.31,0.89-0.4c0.24-0.06,0.61-0.13,1.09-0.18
		c0.99-0.12,1.73-0.26,2.19-0.42c0-0.17,0.01-0.28,0.01-0.32c0-0.5-0.12-0.85-0.35-1.06c-0.31-0.28-0.78-0.42-1.4-0.42
		c-0.58,0-1.01,0.1-1.28,0.3s-0.48,0.56-0.61,1.08l-1.2-0.16c0.11-0.51,0.29-0.93,0.54-1.25s0.61-0.56,1.09-0.73
		s1.02-0.26,1.65-0.26c0.62,0,1.12,0.07,1.51,0.22c0.39,0.15,0.67,0.33,0.85,0.55s0.31,0.5,0.38,0.84c0.04,0.21,0.06,0.59,0.06,1.13
		v1.64c0,1.14,0.03,1.87,0.08,2.17s0.16,0.59,0.31,0.87h-1.29C41.4,223.57,41.32,223.27,41.28,222.93z M41.18,220.18
		c-0.45,0.18-1.12,0.34-2.01,0.46c-0.51,0.07-0.86,0.16-1.07,0.25c-0.21,0.09-0.37,0.22-0.49,0.4s-0.17,0.37-0.17,0.58
		c0,0.33,0.12,0.6,0.37,0.82s0.61,0.33,1.09,0.33c0.47,0,0.9-0.1,1.26-0.31s0.64-0.49,0.81-0.85c0.13-0.28,0.2-0.69,0.2-1.23V220.18
		z"/>
	<path class="st3" d="M47.02,222.72l0.18,1.09c-0.35,0.07-0.66,0.11-0.93,0.11c-0.45,0-0.79-0.07-1.04-0.21
		c-0.25-0.14-0.42-0.33-0.52-0.56s-0.15-0.71-0.15-1.45v-4.18h-0.9v-0.96h0.9v-1.8l1.22-0.74v2.54h1.24v0.96h-1.24v4.24
		c0,0.35,0.02,0.58,0.06,0.68c0.04,0.1,0.11,0.18,0.21,0.24c0.1,0.06,0.24,0.09,0.42,0.09C46.62,222.77,46.8,222.75,47.02,222.72z"
		/>
	<path class="st3" d="M56.85,222.93c-0.46,0.39-0.89,0.66-1.32,0.82c-0.42,0.16-0.87,0.24-1.36,0.24c-0.8,0-1.41-0.2-1.84-0.58
		s-0.64-0.89-0.64-1.49c0-0.36,0.08-0.68,0.24-0.97s0.37-0.53,0.64-0.71s0.56-0.31,0.89-0.4c0.24-0.06,0.61-0.13,1.09-0.18
		c0.99-0.12,1.73-0.26,2.19-0.42c0-0.17,0.01-0.28,0.01-0.32c0-0.5-0.12-0.85-0.35-1.06c-0.31-0.28-0.78-0.42-1.4-0.42
		c-0.58,0-1.01,0.1-1.28,0.3s-0.48,0.56-0.61,1.08l-1.2-0.16c0.11-0.51,0.29-0.93,0.54-1.25s0.61-0.56,1.09-0.73
		s1.02-0.26,1.65-0.26c0.62,0,1.12,0.07,1.51,0.22c0.39,0.15,0.67,0.33,0.85,0.55s0.31,0.5,0.38,0.84c0.04,0.21,0.06,0.59,0.06,1.13
		v1.64c0,1.14,0.03,1.87,0.08,2.17s0.16,0.59,0.31,0.87H57.1C56.97,223.57,56.89,223.27,56.85,222.93z M56.75,220.18
		c-0.45,0.18-1.12,0.34-2.01,0.46c-0.51,0.07-0.86,0.16-1.07,0.25c-0.21,0.09-0.37,0.22-0.49,0.4s-0.17,0.37-0.17,0.58
		c0,0.33,0.12,0.6,0.37,0.82s0.61,0.33,1.09,0.33c0.47,0,0.9-0.1,1.26-0.31s0.64-0.49,0.81-0.85c0.13-0.28,0.2-0.69,0.2-1.23V220.18
		z"/>
	<path class="st3" d="M59.9,223.82v-7.26h1.11v1.03c0.53-0.8,1.3-1.2,2.31-1.2c0.44,0,0.84,0.08,1.21,0.24s0.64,0.36,0.82,0.62
		c0.18,0.26,0.31,0.56,0.38,0.91c0.05,0.23,0.07,0.63,0.07,1.2v4.46h-1.23v-4.42c0-0.5-0.05-0.88-0.14-1.13s-0.27-0.45-0.51-0.59
		s-0.53-0.22-0.86-0.22c-0.52,0-0.98,0.17-1.36,0.5c-0.38,0.33-0.57,0.96-0.57,1.89v3.96H59.9z"/>
	<path class="st3" d="M72.39,223.82v-0.92c-0.46,0.72-1.14,1.08-2.03,1.08c-0.58,0-1.11-0.16-1.6-0.48
		c-0.49-0.32-0.86-0.77-1.13-1.34s-0.4-1.23-0.4-1.97c0-0.72,0.12-1.38,0.36-1.97s0.6-1.04,1.09-1.36s1.02-0.47,1.62-0.47
		c0.44,0,0.83,0.09,1.17,0.28s0.62,0.42,0.83,0.72v-3.6h1.22v10.02H72.39z M68.5,220.2c0,0.93,0.2,1.62,0.59,2.08
		c0.39,0.46,0.85,0.69,1.39,0.69c0.54,0,0.99-0.22,1.37-0.66s0.56-1.11,0.56-2.01c0-0.99-0.19-1.72-0.57-2.19s-0.85-0.7-1.42-0.7
		c-0.55,0-1,0.22-1.37,0.67C68.69,218.54,68.5,219.24,68.5,220.2z"/>
	<path class="st3" d="M79.37,215.22v-1.41h1.23v1.41H79.37z M79.37,223.82v-7.26h1.23v7.26H79.37z"/>
	<path class="st3" d="M81.98,221.66l1.22-0.19c0.07,0.49,0.26,0.86,0.57,1.12s0.75,0.39,1.31,0.39c0.56,0,0.98-0.12,1.26-0.35
		s0.41-0.5,0.41-0.81c0-0.28-0.12-0.5-0.36-0.66c-0.17-0.11-0.59-0.25-1.26-0.42c-0.9-0.23-1.53-0.43-1.88-0.59s-0.61-0.4-0.79-0.69
		s-0.27-0.62-0.27-0.97c0-0.32,0.07-0.62,0.22-0.9s0.35-0.5,0.6-0.69c0.19-0.14,0.45-0.26,0.78-0.36s0.68-0.15,1.06-0.15
		c0.57,0,1.07,0.08,1.5,0.25s0.75,0.39,0.95,0.67s0.35,0.66,0.42,1.13l-1.2,0.16c-0.05-0.37-0.21-0.67-0.48-0.88
		c-0.26-0.21-0.63-0.31-1.11-0.31c-0.56,0-0.97,0.09-1.21,0.28c-0.24,0.19-0.36,0.41-0.36,0.66c0,0.16,0.05,0.3,0.15,0.43
		c0.1,0.13,0.26,0.24,0.47,0.33c0.12,0.04,0.49,0.15,1.09,0.31c0.87,0.23,1.48,0.42,1.82,0.57s0.61,0.36,0.81,0.65
		c0.2,0.28,0.29,0.63,0.29,1.05c0,0.41-0.12,0.8-0.36,1.16s-0.58,0.64-1.04,0.84s-0.96,0.3-1.53,0.3c-0.94,0-1.66-0.2-2.16-0.59
		C82.43,223.01,82.12,222.43,81.98,221.66z"/>
	<path class="st3" d="M88.98,221.66l1.22-0.19c0.07,0.49,0.26,0.86,0.57,1.12s0.75,0.39,1.31,0.39c0.56,0,0.98-0.12,1.26-0.35
		s0.41-0.5,0.41-0.81c0-0.28-0.12-0.5-0.36-0.66c-0.17-0.11-0.59-0.25-1.26-0.42c-0.9-0.23-1.53-0.43-1.88-0.59s-0.61-0.4-0.79-0.69
		s-0.27-0.62-0.27-0.97c0-0.32,0.07-0.62,0.22-0.9s0.35-0.5,0.6-0.69c0.19-0.14,0.45-0.26,0.78-0.36s0.68-0.15,1.06-0.15
		c0.57,0,1.07,0.08,1.5,0.25s0.75,0.39,0.95,0.67s0.35,0.66,0.42,1.13l-1.2,0.16c-0.05-0.37-0.21-0.67-0.48-0.88
		c-0.26-0.21-0.63-0.31-1.11-0.31c-0.56,0-0.97,0.09-1.21,0.28c-0.24,0.19-0.36,0.41-0.36,0.66c0,0.16,0.05,0.3,0.15,0.43
		c0.1,0.13,0.26,0.24,0.47,0.33c0.12,0.04,0.49,0.15,1.09,0.31c0.87,0.23,1.48,0.42,1.82,0.57s0.61,0.36,0.81,0.65
		c0.2,0.28,0.29,0.63,0.29,1.05c0,0.41-0.12,0.8-0.36,1.16s-0.58,0.64-1.04,0.84s-0.96,0.3-1.53,0.3c-0.94,0-1.66-0.2-2.16-0.59
		C89.43,223.01,89.12,222.43,88.98,221.66z"/>
	<path class="st3" d="M101.23,223.82v-1.07c-0.56,0.82-1.33,1.23-2.3,1.23c-0.43,0-0.83-0.08-1.2-0.25s-0.65-0.37-0.83-0.62
		s-0.31-0.55-0.38-0.91c-0.05-0.24-0.08-0.63-0.08-1.15v-4.5h1.23v4.03c0,0.64,0.02,1.08,0.08,1.3c0.08,0.32,0.24,0.58,0.49,0.76
		s0.56,0.28,0.93,0.28s0.72-0.09,1.04-0.28s0.55-0.45,0.69-0.77s0.2-0.8,0.2-1.42v-3.89h1.23v7.26H101.23z"/>
	<path class="st3" d="M109.23,221.49l1.27,0.16c-0.2,0.74-0.57,1.32-1.11,1.73s-1.23,0.62-2.08,0.62c-1.06,0-1.9-0.33-2.53-0.98
		s-0.93-1.57-0.93-2.75c0-1.22,0.31-2.17,0.94-2.84c0.63-0.67,1.44-1.01,2.45-1.01c0.97,0,1.76,0.33,2.38,0.99
		c0.62,0.66,0.92,1.59,0.92,2.79c0,0.07,0,0.18-0.01,0.33h-5.41c0.05,0.8,0.27,1.41,0.68,1.83s0.91,0.64,1.52,0.64
		c0.45,0,0.84-0.12,1.16-0.36C108.79,222.38,109.04,222.01,109.23,221.49z M105.19,219.5h4.05c-0.05-0.61-0.21-1.07-0.46-1.37
		c-0.39-0.47-0.9-0.71-1.52-0.71c-0.56,0-1.04,0.19-1.43,0.57C105.44,218.36,105.23,218.86,105.19,219.5z"/>
	<path class="st3" d="M111.55,221.66l1.22-0.19c0.07,0.49,0.26,0.86,0.57,1.12s0.75,0.39,1.31,0.39c0.56,0,0.98-0.12,1.26-0.35
		s0.41-0.5,0.41-0.81c0-0.28-0.12-0.5-0.36-0.66c-0.17-0.11-0.59-0.25-1.26-0.42c-0.9-0.23-1.53-0.43-1.88-0.59s-0.61-0.4-0.79-0.69
		s-0.27-0.62-0.27-0.97c0-0.32,0.07-0.62,0.22-0.9s0.35-0.5,0.6-0.69c0.19-0.14,0.45-0.26,0.78-0.36s0.68-0.15,1.06-0.15
		c0.57,0,1.07,0.08,1.5,0.25s0.75,0.39,0.95,0.67s0.35,0.66,0.42,1.13l-1.2,0.16c-0.05-0.37-0.21-0.67-0.48-0.88
		c-0.26-0.21-0.63-0.31-1.11-0.31c-0.56,0-0.97,0.09-1.21,0.28c-0.24,0.19-0.36,0.41-0.36,0.66c0,0.16,0.05,0.3,0.15,0.43
		c0.1,0.13,0.26,0.24,0.47,0.33c0.12,0.04,0.49,0.15,1.09,0.31c0.87,0.23,1.48,0.42,1.82,0.57s0.61,0.36,0.81,0.65
		c0.2,0.28,0.29,0.63,0.29,1.05c0,0.41-0.12,0.8-0.36,1.16s-0.58,0.64-1.04,0.84s-0.96,0.3-1.53,0.3c-0.94,0-1.66-0.2-2.16-0.59
		C112,223.01,111.69,222.43,111.55,221.66z"/>
	<path class="st3" d="M127.67,222.93c-0.46,0.39-0.89,0.66-1.32,0.82c-0.42,0.16-0.87,0.24-1.36,0.24c-0.8,0-1.41-0.2-1.84-0.58
		s-0.64-0.89-0.64-1.49c0-0.36,0.08-0.68,0.24-0.97s0.37-0.53,0.64-0.71s0.56-0.31,0.89-0.4c0.24-0.06,0.61-0.13,1.09-0.18
		c0.99-0.12,1.73-0.26,2.19-0.42c0-0.17,0.01-0.28,0.01-0.32c0-0.5-0.12-0.85-0.35-1.06c-0.31-0.28-0.78-0.42-1.4-0.42
		c-0.58,0-1.01,0.1-1.28,0.3s-0.48,0.56-0.61,1.08l-1.2-0.16c0.11-0.51,0.29-0.93,0.54-1.25s0.61-0.56,1.09-0.73
		s1.02-0.26,1.65-0.26c0.62,0,1.12,0.07,1.51,0.22c0.39,0.15,0.67,0.33,0.85,0.55s0.31,0.5,0.38,0.84c0.04,0.21,0.06,0.59,0.06,1.13
		v1.64c0,1.14,0.03,1.87,0.08,2.17s0.16,0.59,0.31,0.87h-1.29C127.79,223.57,127.71,223.27,127.67,222.93z M127.57,220.18
		c-0.45,0.18-1.12,0.34-2.01,0.46c-0.51,0.07-0.86,0.16-1.07,0.25c-0.21,0.09-0.37,0.22-0.49,0.4s-0.17,0.37-0.17,0.58
		c0,0.33,0.12,0.6,0.37,0.82s0.61,0.33,1.09,0.33c0.47,0,0.9-0.1,1.26-0.31s0.64-0.49,0.81-0.85c0.13-0.28,0.2-0.69,0.2-1.23V220.18
		z"/>
	<path class="st3" d="M12.43,234.15l-0.31-1.87v-1.67h1.4v1.67l-0.33,1.87H12.43z"/>
	<path class="st3" d="M19.81,240.62v-0.92c-0.46,0.72-1.14,1.08-2.03,1.08c-0.58,0-1.11-0.16-1.6-0.48s-0.86-0.76-1.13-1.34
		c-0.27-0.57-0.4-1.23-0.4-1.97c0-0.72,0.12-1.38,0.36-1.97c0.24-0.59,0.6-1.04,1.09-1.36s1.02-0.47,1.62-0.47
		c0.44,0,0.83,0.09,1.17,0.28c0.34,0.19,0.62,0.43,0.83,0.72v-3.6h1.22v10.02H19.81z M15.92,237c0,0.93,0.2,1.62,0.59,2.08
		s0.85,0.69,1.39,0.69c0.54,0,0.99-0.22,1.37-0.66c0.38-0.44,0.56-1.11,0.56-2.01c0-0.99-0.19-1.72-0.57-2.19s-0.85-0.7-1.42-0.7
		c-0.55,0-1,0.22-1.37,0.67S15.92,236.04,15.92,237z"/>
	<path class="st3" d="M27.85,238.29l1.27,0.16c-0.2,0.74-0.57,1.32-1.11,1.73s-1.23,0.62-2.08,0.62c-1.06,0-1.9-0.33-2.53-0.98
		c-0.62-0.65-0.93-1.57-0.93-2.75c0-1.22,0.31-2.17,0.94-2.84s1.44-1.01,2.45-1.01c0.97,0,1.76,0.33,2.38,0.99s0.92,1.59,0.92,2.79
		c0,0.07,0,0.18-0.01,0.33h-5.41c0.05,0.8,0.27,1.41,0.68,1.83s0.91,0.64,1.52,0.64c0.45,0,0.84-0.12,1.16-0.36
		S27.66,238.81,27.85,238.29z M23.81,236.3h4.05c-0.05-0.61-0.21-1.07-0.46-1.37c-0.39-0.47-0.9-0.71-1.52-0.71
		c-0.56,0-1.04,0.19-1.43,0.57S23.85,235.66,23.81,236.3z"/>
	<path class="st3" d="M30.18,238.46l1.22-0.19c0.07,0.49,0.26,0.86,0.57,1.12s0.75,0.39,1.31,0.39c0.56,0,0.98-0.12,1.26-0.34
		c0.27-0.23,0.41-0.5,0.41-0.81c0-0.28-0.12-0.5-0.36-0.66c-0.17-0.11-0.59-0.25-1.26-0.42c-0.9-0.23-1.53-0.42-1.88-0.59
		c-0.35-0.17-0.61-0.4-0.79-0.69c-0.18-0.29-0.27-0.62-0.27-0.97c0-0.32,0.07-0.62,0.22-0.9c0.15-0.28,0.35-0.5,0.6-0.69
		c0.19-0.14,0.45-0.26,0.78-0.36c0.33-0.1,0.68-0.15,1.06-0.15c0.57,0,1.07,0.08,1.5,0.25s0.75,0.39,0.95,0.67
		c0.21,0.28,0.35,0.65,0.42,1.12l-1.2,0.16c-0.05-0.37-0.21-0.67-0.48-0.88s-0.63-0.31-1.11-0.31c-0.56,0-0.97,0.09-1.21,0.28
		s-0.36,0.41-0.36,0.66c0,0.16,0.05,0.3,0.15,0.43c0.1,0.13,0.26,0.24,0.47,0.33c0.12,0.05,0.49,0.15,1.09,0.31
		c0.87,0.23,1.48,0.42,1.82,0.57c0.34,0.15,0.61,0.36,0.81,0.65s0.29,0.63,0.29,1.05c0,0.41-0.12,0.8-0.36,1.16
		c-0.24,0.36-0.58,0.64-1.04,0.84c-0.45,0.2-0.96,0.3-1.53,0.3c-0.94,0-1.66-0.2-2.16-0.59S30.31,239.23,30.18,238.46z"/>
	<path class="st3" d="M42.41,237.96l1.21,0.16c-0.13,0.83-0.47,1.49-1.02,1.96c-0.54,0.47-1.21,0.71-2.01,0.71
		c-0.99,0-1.79-0.33-2.4-0.97c-0.6-0.65-0.91-1.58-0.91-2.79c0-0.78,0.13-1.47,0.39-2.06s0.66-1.03,1.19-1.32
		c0.53-0.29,1.11-0.44,1.73-0.44c0.79,0,1.43,0.2,1.93,0.6c0.5,0.4,0.82,0.96,0.96,1.7l-1.2,0.18c-0.11-0.49-0.32-0.85-0.6-1.1
		s-0.64-0.37-1.05-0.37c-0.62,0-1.12,0.22-1.51,0.67c-0.39,0.44-0.58,1.15-0.58,2.11c0,0.98,0.19,1.68,0.56,2.13
		s0.86,0.66,1.46,0.66c0.48,0,0.89-0.15,1.21-0.44S42.32,238.58,42.41,237.96z"/>
	<path class="st3" d="M49.64,238.29l1.27,0.16c-0.2,0.74-0.57,1.32-1.11,1.73s-1.23,0.62-2.08,0.62c-1.06,0-1.9-0.33-2.53-0.98
		c-0.62-0.65-0.93-1.57-0.93-2.75c0-1.22,0.31-2.17,0.94-2.84s1.44-1.01,2.45-1.01c0.97,0,1.76,0.33,2.38,0.99s0.92,1.59,0.92,2.79
		c0,0.07,0,0.18-0.01,0.33h-5.41c0.05,0.8,0.27,1.41,0.68,1.83s0.91,0.64,1.52,0.64c0.45,0,0.84-0.12,1.16-0.36
		S49.45,238.81,49.64,238.29z M45.6,236.3h4.05c-0.05-0.61-0.21-1.07-0.46-1.37c-0.39-0.47-0.9-0.71-1.52-0.71
		c-0.56,0-1.04,0.19-1.43,0.57S45.64,235.66,45.6,236.3z"/>
	<path class="st3" d="M52.45,240.62v-7.26h1.11v1.03c0.53-0.8,1.3-1.2,2.31-1.2c0.44,0,0.84,0.08,1.21,0.24
		c0.37,0.16,0.64,0.36,0.82,0.62s0.31,0.56,0.38,0.91c0.05,0.23,0.07,0.63,0.07,1.2v4.46h-1.23v-4.42c0-0.5-0.05-0.88-0.14-1.12
		c-0.1-0.25-0.27-0.45-0.51-0.6c-0.24-0.15-0.53-0.22-0.86-0.22c-0.52,0-0.98,0.17-1.36,0.5s-0.57,0.96-0.57,1.89v3.96H52.45z"/>
	<path class="st3" d="M64.95,240.62v-0.92c-0.46,0.72-1.14,1.08-2.03,1.08c-0.58,0-1.11-0.16-1.6-0.48s-0.86-0.76-1.13-1.34
		c-0.27-0.57-0.4-1.23-0.4-1.97c0-0.72,0.12-1.38,0.36-1.97c0.24-0.59,0.6-1.04,1.09-1.36s1.02-0.47,1.62-0.47
		c0.44,0,0.83,0.09,1.17,0.28c0.34,0.19,0.62,0.43,0.83,0.72v-3.6h1.22v10.02H64.95z M61.06,237c0,0.93,0.2,1.62,0.59,2.08
		s0.85,0.69,1.39,0.69c0.54,0,0.99-0.22,1.37-0.66c0.38-0.44,0.56-1.11,0.56-2.01c0-0.99-0.19-1.72-0.57-2.19s-0.85-0.7-1.42-0.7
		c-0.55,0-1,0.22-1.37,0.67S61.06,236.04,61.06,237z"/>
	<path class="st3" d="M68.03,234.15l-0.31-1.87v-1.67h1.4v1.67l-0.33,1.87H68.03z"/>
	<path class="st3" d="M74.77,240.62V230.6h4.44c0.89,0,1.57,0.09,2.04,0.27c0.46,0.18,0.84,0.5,1.11,0.95s0.42,0.96,0.42,1.51
		c0,0.71-0.23,1.31-0.69,1.8s-1.17,0.8-2.13,0.93c0.35,0.17,0.62,0.33,0.8,0.5c0.39,0.36,0.75,0.8,1.1,1.33l1.74,2.73h-1.67
		l-1.33-2.08c-0.39-0.6-0.71-1.06-0.96-1.38s-0.48-0.54-0.67-0.67s-0.4-0.22-0.6-0.27c-0.15-0.03-0.4-0.05-0.74-0.05h-1.54v4.45
		H74.77z M76.09,235.03h2.85c0.61,0,1.08-0.06,1.42-0.19c0.34-0.13,0.6-0.33,0.78-0.6c0.18-0.28,0.27-0.58,0.27-0.9
		c0-0.47-0.17-0.86-0.52-1.17s-0.89-0.46-1.63-0.46h-3.17V235.03z"/>
	<path class="st3" d="M83.76,240.62l3.85-10.02h1.43l4.1,10.02h-1.51l-1.17-3.04h-4.19l-1.1,3.04H83.76z M86.65,236.51h3.4
		L89,233.73c-0.32-0.84-0.56-1.54-0.71-2.08c-0.13,0.64-0.31,1.28-0.54,1.91L86.65,236.51z"/>
</g>
<g id="text6">
	<rect x="161.5" y="197" class="st1" width="125" height="49"/>
	<path class="st3" d="M168.55,205.84v1.18h-6.62c-0.01-0.3,0.04-0.58,0.14-0.85c0.17-0.45,0.44-0.9,0.81-1.33s0.91-0.94,1.61-1.52
		c1.09-0.89,1.83-1.6,2.21-2.12s0.57-1.01,0.57-1.48c0-0.49-0.17-0.9-0.52-1.23s-0.8-0.5-1.36-0.5c-0.59,0-1.07,0.18-1.42,0.53
		s-0.54,0.85-0.54,1.48l-1.26-0.13c0.09-0.94,0.41-1.66,0.98-2.16s1.32-0.74,2.28-0.74c0.96,0,1.72,0.27,2.28,0.8
		s0.84,1.19,0.84,1.98c0,0.4-0.08,0.79-0.25,1.18c-0.16,0.39-0.44,0.8-0.82,1.22c-0.38,0.43-1.01,1.02-1.9,1.76
		c-0.74,0.62-1.21,1.04-1.42,1.26s-0.38,0.44-0.52,0.67H168.55z"/>
	<path class="st3" d="M170.56,207.02v-1.4h1.4v1.4H170.56z"/>
	<path class="st3" d="M180.44,207.02v-8.84h-3.3V197h7.94v1.18h-3.32v8.84H180.44z"/>
	<path class="st3" d="M193.59,203.51l1.33,0.34c-0.28,1.09-0.78,1.92-1.5,2.49s-1.61,0.86-2.65,0.86c-1.08,0-1.96-0.22-2.64-0.66
		s-1.19-1.08-1.54-1.91s-0.53-1.73-0.53-2.69c0-1.04,0.2-1.95,0.6-2.73s0.97-1.37,1.7-1.77s1.55-0.6,2.43-0.6
		c1,0,1.85,0.25,2.53,0.77c0.68,0.51,1.16,1.23,1.43,2.15l-1.31,0.31c-0.23-0.73-0.57-1.26-1.01-1.59c-0.44-0.33-1-0.5-1.67-0.5
		c-0.77,0-1.41,0.18-1.93,0.55s-0.88,0.87-1.09,1.49s-0.31,1.26-0.31,1.92c0,0.85,0.12,1.6,0.37,2.23s0.63,1.11,1.16,1.42
		s1.09,0.47,1.7,0.47c0.74,0,1.37-0.21,1.89-0.64C193.06,204.99,193.41,204.35,193.59,203.51z"/>
	<path class="st3" d="M195.45,207.02L199.3,197h1.43l4.1,10.02h-1.51l-1.17-3.04h-4.19l-1.1,3.04H195.45z M198.35,202.91h3.4
		l-1.05-2.78c-0.32-0.84-0.56-1.54-0.71-2.08c-0.13,0.64-0.31,1.28-0.54,1.91L198.35,202.91z"/>
	<path class="st3" d="M205.44,203.8l1.25-0.11c0.06,0.5,0.2,0.91,0.41,1.23s0.55,0.58,1.01,0.78s0.97,0.3,1.54,0.3
		c0.51,0,0.95-0.08,1.34-0.23s0.68-0.36,0.86-0.62s0.28-0.55,0.28-0.86c0-0.31-0.09-0.59-0.27-0.82s-0.48-0.43-0.9-0.59
		c-0.27-0.11-0.86-0.27-1.78-0.49s-1.57-0.43-1.93-0.63c-0.48-0.25-0.83-0.56-1.07-0.93s-0.35-0.79-0.35-1.25
		c0-0.51,0.14-0.98,0.43-1.42s0.71-0.77,1.26-1c0.55-0.23,1.16-0.34,1.84-0.34c0.74,0,1.4,0.12,1.97,0.36s1,0.59,1.31,1.06
		s0.47,0.99,0.49,1.58l-1.27,0.1c-0.07-0.63-0.3-1.11-0.69-1.44c-0.39-0.32-0.98-0.49-1.75-0.49c-0.8,0-1.39,0.15-1.75,0.44
		s-0.55,0.65-0.55,1.06c0,0.36,0.13,0.66,0.39,0.89c0.26,0.23,0.92,0.47,2,0.71s1.82,0.46,2.22,0.64c0.58,0.27,1.01,0.61,1.29,1.02
		s0.42,0.89,0.42,1.42c0,0.53-0.15,1.04-0.46,1.51s-0.74,0.84-1.32,1.1s-1.22,0.39-1.93,0.39c-0.91,0-1.67-0.13-2.28-0.4
		c-0.61-0.26-1.09-0.66-1.44-1.19S205.46,204.47,205.44,203.8z"/>
	<path class="st3" d="M218.95,207.02v-7.26h1.11v1.1c0.28-0.52,0.54-0.86,0.78-1.02s0.5-0.25,0.79-0.25c0.41,0,0.84,0.13,1.26,0.4
		l-0.42,1.14c-0.3-0.18-0.6-0.27-0.9-0.27c-0.27,0-0.51,0.08-0.72,0.24s-0.37,0.39-0.46,0.67c-0.14,0.44-0.21,0.92-0.21,1.44v3.8
		H218.95z"/>
	<path class="st3" d="M228.59,204.69l1.27,0.16c-0.2,0.74-0.57,1.32-1.11,1.73s-1.23,0.62-2.08,0.62c-1.06,0-1.9-0.33-2.53-0.98
		s-0.93-1.57-0.93-2.75c0-1.22,0.31-2.17,0.94-2.84c0.63-0.67,1.44-1.01,2.45-1.01c0.97,0,1.76,0.33,2.38,0.99
		c0.62,0.66,0.92,1.59,0.92,2.79c0,0.07,0,0.18-0.01,0.33h-5.41c0.05,0.8,0.27,1.41,0.68,1.83s0.91,0.63,1.52,0.63
		c0.45,0,0.84-0.12,1.16-0.36C228.15,205.58,228.41,205.21,228.59,204.69z M224.55,202.7h4.05c-0.05-0.61-0.21-1.07-0.46-1.38
		c-0.39-0.47-0.9-0.71-1.52-0.71c-0.56,0-1.04,0.19-1.43,0.57C224.81,201.56,224.6,202.06,224.55,202.7z"/>
	<path class="st3" d="M236.12,207.02v-0.92c-0.46,0.72-1.14,1.08-2.03,1.08c-0.58,0-1.11-0.16-1.6-0.48
		c-0.49-0.32-0.86-0.76-1.13-1.34s-0.4-1.23-0.4-1.97c0-0.72,0.12-1.38,0.36-1.97s0.6-1.04,1.09-1.36s1.02-0.47,1.62-0.47
		c0.44,0,0.83,0.09,1.17,0.28s0.62,0.42,0.83,0.72V197h1.22v10.02H236.12z M232.23,203.4c0,0.93,0.2,1.63,0.59,2.09
		c0.39,0.46,0.85,0.69,1.39,0.69c0.54,0,0.99-0.22,1.37-0.66s0.56-1.11,0.56-2.01c0-0.99-0.19-1.72-0.57-2.19s-0.85-0.7-1.42-0.7
		c-0.55,0-1,0.22-1.37,0.67C232.42,201.74,232.23,202.44,232.23,203.4z"/>
	<path class="st3" d="M243.96,207.02v-1.07c-0.56,0.82-1.33,1.23-2.3,1.23c-0.43,0-0.83-0.08-1.2-0.25s-0.65-0.37-0.83-0.62
		s-0.31-0.55-0.38-0.91c-0.05-0.24-0.08-0.62-0.08-1.15v-4.5h1.23v4.03c0,0.64,0.02,1.08,0.08,1.3c0.08,0.32,0.24,0.58,0.49,0.76
		s0.56,0.28,0.93,0.28s0.72-0.1,1.04-0.28s0.55-0.45,0.69-0.77s0.2-0.8,0.2-1.42v-3.89h1.23v7.26H243.96z"/>
	<path class="st3" d="M251.72,204.37l1.21,0.16c-0.13,0.83-0.47,1.49-1.01,1.96c-0.54,0.47-1.21,0.71-2.01,0.71
		c-0.99,0-1.79-0.32-2.4-0.97s-0.91-1.58-0.91-2.79c0-0.78,0.13-1.47,0.39-2.06s0.66-1.03,1.19-1.32s1.11-0.44,1.73-0.44
		c0.79,0,1.43,0.2,1.93,0.6s0.82,0.96,0.96,1.7l-1.2,0.19c-0.11-0.49-0.32-0.86-0.6-1.1c-0.29-0.25-0.64-0.37-1.05-0.37
		c-0.62,0-1.12,0.22-1.51,0.67s-0.58,1.15-0.58,2.11c0,0.98,0.19,1.68,0.56,2.13c0.37,0.44,0.86,0.66,1.46,0.66
		c0.48,0,0.89-0.15,1.21-0.44C251.43,205.44,251.63,204.98,251.72,204.37z"/>
	<path class="st3" d="M258.95,204.69l1.27,0.16c-0.2,0.74-0.57,1.32-1.11,1.73s-1.24,0.62-2.08,0.62c-1.06,0-1.9-0.33-2.53-0.98
		c-0.62-0.65-0.93-1.57-0.93-2.75c0-1.22,0.31-2.17,0.94-2.84c0.63-0.67,1.44-1.01,2.45-1.01c0.97,0,1.76,0.33,2.38,0.99
		c0.62,0.66,0.92,1.59,0.92,2.79c0,0.07,0,0.18-0.01,0.33h-5.41c0.05,0.8,0.27,1.41,0.68,1.83s0.91,0.63,1.52,0.63
		c0.45,0,0.84-0.12,1.16-0.36C258.51,205.58,258.77,205.21,258.95,204.69z M254.91,202.7h4.05c-0.05-0.61-0.21-1.07-0.46-1.38
		c-0.39-0.47-0.9-0.71-1.52-0.71c-0.57,0-1.04,0.19-1.42,0.57C255.17,201.56,254.95,202.06,254.91,202.7z"/>
	<path class="st3" d="M261.28,204.86l1.22-0.19c0.07,0.49,0.26,0.86,0.57,1.12c0.31,0.26,0.75,0.39,1.31,0.39
		c0.57,0,0.98-0.12,1.26-0.34s0.41-0.5,0.41-0.81c0-0.28-0.12-0.5-0.36-0.66c-0.17-0.11-0.59-0.25-1.26-0.42
		c-0.9-0.23-1.53-0.42-1.88-0.59c-0.35-0.17-0.61-0.4-0.79-0.69c-0.18-0.29-0.27-0.62-0.27-0.97c0-0.32,0.07-0.62,0.22-0.9
		c0.15-0.28,0.35-0.5,0.6-0.69c0.19-0.14,0.45-0.26,0.78-0.36c0.33-0.1,0.69-0.15,1.06-0.15c0.57,0,1.07,0.08,1.5,0.25
		c0.43,0.16,0.75,0.39,0.95,0.67s0.35,0.66,0.42,1.12l-1.2,0.16c-0.05-0.37-0.21-0.67-0.47-0.88c-0.26-0.21-0.63-0.31-1.11-0.31
		c-0.56,0-0.97,0.09-1.21,0.28c-0.24,0.19-0.36,0.41-0.36,0.66c0,0.16,0.05,0.3,0.15,0.43c0.1,0.13,0.26,0.24,0.47,0.33
		c0.12,0.05,0.49,0.15,1.09,0.31c0.87,0.23,1.48,0.42,1.82,0.57c0.34,0.15,0.61,0.36,0.81,0.65c0.2,0.28,0.29,0.63,0.29,1.05
		c0,0.41-0.12,0.8-0.36,1.16c-0.24,0.36-0.58,0.64-1.04,0.84s-0.96,0.3-1.53,0.3c-0.94,0-1.66-0.2-2.16-0.59
		C261.73,206.21,261.41,205.63,261.28,204.86z"/>
	<path class="st3" d="M165.11,222.72l0.18,1.09c-0.35,0.07-0.66,0.11-0.93,0.11c-0.45,0-0.79-0.07-1.04-0.21
		c-0.25-0.14-0.42-0.33-0.52-0.56s-0.15-0.71-0.15-1.45v-4.18h-0.9v-0.96h0.9v-1.8l1.22-0.74v2.54h1.24v0.96h-1.24v4.24
		c0,0.35,0.02,0.58,0.06,0.68c0.04,0.1,0.11,0.18,0.21,0.24c0.1,0.06,0.24,0.09,0.42,0.09
		C164.71,222.77,164.89,222.75,165.11,222.72z"/>
	<path class="st3" d="M166.31,223.82V213.8h1.23v3.6c0.57-0.67,1.3-1,2.17-1c0.54,0,1,0.11,1.4,0.32s0.68,0.5,0.85,0.88
		c0.17,0.37,0.26,0.92,0.26,1.63v4.6H171v-4.6c0-0.62-0.13-1.06-0.4-1.34s-0.64-0.42-1.13-0.42c-0.36,0-0.71,0.1-1.03,0.28
		s-0.55,0.45-0.69,0.77c-0.14,0.32-0.21,0.77-0.21,1.34v3.97H166.31z"/>
	<path class="st3" d="M179.07,221.49l1.27,0.16c-0.2,0.74-0.57,1.32-1.11,1.73s-1.23,0.62-2.08,0.62c-1.06,0-1.9-0.33-2.53-0.98
		s-0.93-1.57-0.93-2.75c0-1.22,0.31-2.17,0.94-2.84c0.63-0.67,1.44-1.01,2.45-1.01c0.97,0,1.76,0.33,2.38,0.99
		c0.62,0.66,0.92,1.59,0.92,2.79c0,0.07,0,0.18-0.01,0.33h-5.41c0.05,0.8,0.27,1.41,0.68,1.83s0.91,0.64,1.52,0.64
		c0.45,0,0.84-0.12,1.16-0.36C178.63,222.38,178.88,222.01,179.07,221.49z M175.03,219.5h4.05c-0.05-0.61-0.21-1.07-0.46-1.37
		c-0.39-0.47-0.9-0.71-1.52-0.71c-0.56,0-1.04,0.19-1.43,0.57C175.28,218.36,175.07,218.86,175.03,219.5z"/>
	<path class="st3" d="M185.28,221.66l1.22-0.19c0.07,0.49,0.26,0.86,0.57,1.12s0.75,0.39,1.31,0.39c0.56,0,0.98-0.12,1.26-0.35
		s0.41-0.5,0.41-0.81c0-0.28-0.12-0.5-0.36-0.66c-0.17-0.11-0.59-0.25-1.26-0.42c-0.9-0.23-1.53-0.43-1.88-0.59s-0.61-0.4-0.79-0.69
		s-0.27-0.62-0.27-0.97c0-0.32,0.07-0.62,0.22-0.9s0.35-0.5,0.6-0.69c0.19-0.14,0.45-0.26,0.78-0.36s0.68-0.15,1.06-0.15
		c0.57,0,1.07,0.08,1.5,0.25s0.75,0.39,0.95,0.67s0.35,0.66,0.42,1.13l-1.2,0.16c-0.05-0.37-0.21-0.67-0.48-0.88
		c-0.26-0.21-0.63-0.31-1.11-0.31c-0.56,0-0.97,0.09-1.21,0.28c-0.24,0.19-0.36,0.41-0.36,0.66c0,0.16,0.05,0.3,0.15,0.43
		c0.1,0.13,0.26,0.24,0.47,0.33c0.12,0.04,0.49,0.15,1.09,0.31c0.87,0.23,1.48,0.42,1.82,0.57s0.61,0.36,0.81,0.65
		c0.2,0.28,0.29,0.63,0.29,1.05c0,0.41-0.12,0.8-0.36,1.16s-0.58,0.64-1.04,0.84s-0.96,0.3-1.53,0.3c-0.94,0-1.66-0.2-2.16-0.59
		C185.73,223.01,185.42,222.43,185.28,221.66z"/>
	<path class="st3" d="M195.46,222.72l0.18,1.09c-0.35,0.07-0.66,0.11-0.93,0.11c-0.45,0-0.79-0.07-1.04-0.21
		c-0.25-0.14-0.42-0.33-0.52-0.56s-0.15-0.71-0.15-1.45v-4.18h-0.9v-0.96h0.9v-1.8l1.22-0.74v2.54h1.24v0.96h-1.24v4.24
		c0,0.35,0.02,0.58,0.06,0.68c0.04,0.1,0.11,0.18,0.21,0.24c0.1,0.06,0.24,0.09,0.42,0.09
		C195.06,222.77,195.24,222.75,195.46,222.72z"/>
	<path class="st3" d="M196.65,223.82v-7.26h1.11v1.1c0.28-0.51,0.54-0.85,0.78-1.02s0.5-0.25,0.79-0.25c0.41,0,0.84,0.13,1.26,0.4
		l-0.42,1.14c-0.3-0.18-0.6-0.27-0.9-0.27c-0.27,0-0.51,0.08-0.72,0.24s-0.37,0.39-0.46,0.67c-0.14,0.44-0.21,0.92-0.21,1.44v3.8
		H196.65z"/>
	<path class="st3" d="M206.3,221.49l1.27,0.16c-0.2,0.74-0.57,1.32-1.11,1.73s-1.23,0.62-2.08,0.62c-1.06,0-1.9-0.33-2.53-0.98
		s-0.93-1.57-0.93-2.75c0-1.22,0.31-2.17,0.94-2.84c0.63-0.67,1.44-1.01,2.45-1.01c0.97,0,1.76,0.33,2.38,0.99
		c0.62,0.66,0.92,1.59,0.92,2.79c0,0.07,0,0.18-0.01,0.33h-5.41c0.05,0.8,0.27,1.41,0.68,1.83s0.91,0.64,1.52,0.64
		c0.45,0,0.84-0.12,1.16-0.36C205.86,222.38,206.11,222.01,206.3,221.49z M202.26,219.5h4.05c-0.05-0.61-0.21-1.07-0.46-1.37
		c-0.39-0.47-0.9-0.71-1.52-0.71c-0.56,0-1.04,0.19-1.43,0.57C202.51,218.36,202.3,218.86,202.26,219.5z"/>
	<path class="st3" d="M209.11,223.82v-7.26h1.11v1.03c0.53-0.8,1.3-1.2,2.31-1.2c0.44,0,0.84,0.08,1.21,0.24s0.64,0.36,0.82,0.62
		c0.18,0.26,0.31,0.56,0.38,0.91c0.05,0.23,0.07,0.63,0.07,1.2v4.46h-1.23v-4.42c0-0.5-0.05-0.88-0.14-1.13s-0.27-0.45-0.51-0.59
		s-0.53-0.22-0.86-0.22c-0.52,0-0.98,0.17-1.36,0.5c-0.38,0.33-0.57,0.96-0.57,1.89v3.96H209.11z"/>
	<path class="st3" d="M216.67,224.43l1.2,0.18c0.05,0.37,0.19,0.64,0.42,0.81c0.31,0.23,0.72,0.34,1.25,0.34
		c0.57,0,1.01-0.11,1.32-0.34c0.31-0.23,0.52-0.55,0.63-0.96c0.06-0.25,0.09-0.78,0.09-1.58c-0.54,0.63-1.21,0.95-2.01,0.95
		c-1,0-1.77-0.36-2.32-1.08c-0.55-0.72-0.82-1.58-0.82-2.59c0-0.69,0.13-1.33,0.38-1.92s0.61-1.04,1.09-1.36
		c0.48-0.32,1.04-0.48,1.68-0.48c0.86,0,1.56,0.35,2.12,1.04v-0.88h1.13v6.28c0,1.13-0.12,1.93-0.35,2.4s-0.59,0.84-1.09,1.12
		s-1.11,0.41-1.84,0.41c-0.87,0-1.57-0.19-2.1-0.58S216.65,225.21,216.67,224.43z M217.69,220.06c0,0.95,0.19,1.65,0.57,2.08
		s0.85,0.66,1.42,0.66c0.56,0,1.04-0.22,1.42-0.65s0.57-1.12,0.57-2.05c0-0.89-0.2-1.56-0.59-2.01s-0.87-0.68-1.43-0.68
		c-0.55,0-1.01,0.22-1.39,0.67S217.69,219.19,217.69,220.06z"/>
	<path class="st3" d="M227.37,222.72l0.18,1.09c-0.35,0.07-0.66,0.11-0.93,0.11c-0.45,0-0.79-0.07-1.04-0.21
		c-0.25-0.14-0.42-0.33-0.52-0.56s-0.15-0.71-0.15-1.45v-4.18h-0.9v-0.96h0.9v-1.8l1.22-0.74v2.54h1.24v0.96h-1.24v4.24
		c0,0.35,0.02,0.58,0.06,0.68c0.04,0.1,0.11,0.18,0.21,0.24c0.1,0.06,0.24,0.09,0.42,0.09
		C226.97,222.77,227.15,222.75,227.37,222.72z"/>
	<path class="st3" d="M228.57,223.82V213.8h1.23v3.6c0.57-0.67,1.3-1,2.17-1c0.54,0,1,0.11,1.4,0.32s0.68,0.5,0.85,0.88
		c0.17,0.37,0.26,0.92,0.26,1.63v4.6h-1.23v-4.6c0-0.62-0.13-1.06-0.4-1.34s-0.64-0.42-1.13-0.42c-0.36,0-0.71,0.1-1.03,0.28
		s-0.55,0.45-0.69,0.77c-0.14,0.32-0.21,0.77-0.21,1.34v3.97H228.57z"/>
	<path class="st3" d="M161.96,236.99c0-1.34,0.37-2.34,1.12-2.99c0.62-0.54,1.39-0.81,2.28-0.81c1,0,1.81,0.33,2.45,0.98
		c0.63,0.65,0.95,1.56,0.95,2.71c0,0.93-0.14,1.67-0.42,2.2c-0.28,0.54-0.69,0.95-1.22,1.25s-1.12,0.44-1.75,0.44
		c-1.02,0-1.84-0.33-2.46-0.98S161.96,238.22,161.96,236.99z M163.23,236.99c0,0.93,0.2,1.63,0.61,2.09
		c0.41,0.46,0.92,0.69,1.53,0.69c0.61,0,1.12-0.23,1.52-0.7s0.61-1.17,0.61-2.13c0-0.9-0.2-1.58-0.61-2.04
		c-0.41-0.46-0.92-0.69-1.52-0.69c-0.62,0-1.13,0.23-1.53,0.69S163.23,236.06,163.23,236.99z"/>
	<path class="st3" d="M170.5,240.62v-6.3h-1.09v-0.96h1.09v-0.77c0-0.49,0.04-0.85,0.13-1.09c0.12-0.32,0.33-0.58,0.63-0.78
		c0.3-0.2,0.72-0.3,1.25-0.3c0.35,0,0.73,0.04,1.15,0.12l-0.18,1.07c-0.26-0.05-0.5-0.07-0.72-0.07c-0.37,0-0.64,0.08-0.79,0.24
		s-0.23,0.46-0.23,0.9v0.67h1.42v0.96h-1.42v6.3H170.5z"/>
	<path class="st3" d="M180.67,239.52l0.18,1.09c-0.35,0.07-0.66,0.11-0.93,0.11c-0.45,0-0.79-0.07-1.04-0.21s-0.42-0.33-0.52-0.56
		c-0.1-0.23-0.15-0.71-0.15-1.45v-4.18h-0.9v-0.96h0.9v-1.8l1.22-0.74v2.54h1.24v0.96h-1.24v4.25c0,0.35,0.02,0.58,0.06,0.68
		s0.11,0.18,0.21,0.24s0.24,0.09,0.42,0.09C180.27,239.57,180.45,239.55,180.67,239.52z"/>
	<path class="st3" d="M181.88,240.62V230.6h1.23v3.6c0.57-0.67,1.3-1,2.17-1c0.54,0,1,0.11,1.4,0.32c0.4,0.21,0.68,0.51,0.85,0.88
		s0.26,0.92,0.26,1.63v4.6h-1.23v-4.6c0-0.62-0.13-1.06-0.4-1.34c-0.27-0.28-0.64-0.42-1.13-0.42c-0.36,0-0.71,0.09-1.03,0.28
		c-0.32,0.19-0.55,0.45-0.69,0.77s-0.21,0.77-0.21,1.34v3.97H181.88z"/>
	<path class="st3" d="M194.63,238.29l1.27,0.16c-0.2,0.74-0.57,1.32-1.11,1.73s-1.23,0.62-2.08,0.62c-1.06,0-1.9-0.33-2.53-0.98
		c-0.62-0.65-0.93-1.57-0.93-2.75c0-1.22,0.31-2.17,0.94-2.84s1.44-1.01,2.45-1.01c0.97,0,1.76,0.33,2.38,0.99s0.92,1.59,0.92,2.79
		c0,0.07,0,0.18-0.01,0.33h-5.41c0.05,0.8,0.27,1.41,0.68,1.83s0.91,0.64,1.52,0.64c0.45,0,0.84-0.12,1.16-0.36
		S194.45,238.81,194.63,238.29z M190.59,236.3h4.05c-0.05-0.61-0.21-1.07-0.46-1.37c-0.39-0.47-0.9-0.71-1.52-0.71
		c-0.56,0-1.04,0.19-1.43,0.57S190.63,235.66,190.59,236.3z"/>
	<path class="st3" d="M201.4,234.15l-0.34-1.91v-1.64h1.4v1.64l-0.31,1.91H201.4z M203.66,234.15l-0.33-1.91v-1.64h1.4v1.64
		l-0.33,1.91H203.66z"/>
	<path class="st3" d="M211.02,240.62v-0.92c-0.46,0.72-1.14,1.08-2.03,1.08c-0.58,0-1.11-0.16-1.6-0.48s-0.86-0.76-1.13-1.34
		c-0.27-0.57-0.4-1.23-0.4-1.97c0-0.72,0.12-1.38,0.36-1.97c0.24-0.59,0.6-1.04,1.09-1.36s1.02-0.47,1.62-0.47
		c0.44,0,0.83,0.09,1.17,0.28c0.34,0.19,0.62,0.43,0.83,0.72v-3.6h1.22v10.02H211.02z M207.13,237c0,0.93,0.2,1.62,0.59,2.08
		s0.85,0.69,1.39,0.69c0.54,0,0.99-0.22,1.37-0.66c0.38-0.44,0.56-1.11,0.56-2.01c0-0.99-0.19-1.72-0.57-2.19s-0.85-0.7-1.42-0.7
		c-0.55,0-1,0.22-1.37,0.67S207.13,236.04,207.13,237z"/>
	<path class="st3" d="M219.07,238.29l1.27,0.16c-0.2,0.74-0.57,1.32-1.11,1.73s-1.23,0.62-2.08,0.62c-1.06,0-1.9-0.33-2.53-0.98
		c-0.62-0.65-0.93-1.57-0.93-2.75c0-1.22,0.31-2.17,0.94-2.84s1.44-1.01,2.45-1.01c0.97,0,1.76,0.33,2.38,0.99s0.92,1.59,0.92,2.79
		c0,0.07,0,0.18-0.01,0.33h-5.41c0.05,0.8,0.27,1.41,0.68,1.83s0.91,0.64,1.52,0.64c0.45,0,0.84-0.12,1.16-0.36
		S218.88,238.81,219.07,238.29z M215.03,236.3h4.05c-0.05-0.61-0.21-1.07-0.46-1.37c-0.39-0.47-0.9-0.71-1.52-0.71
		c-0.56,0-1.04,0.19-1.43,0.57S215.07,235.66,215.03,236.3z"/>
	<path class="st3" d="M221.39,238.46l1.22-0.19c0.07,0.49,0.26,0.86,0.57,1.12s0.75,0.39,1.31,0.39c0.56,0,0.98-0.12,1.26-0.34
		c0.27-0.23,0.41-0.5,0.41-0.81c0-0.28-0.12-0.5-0.36-0.66c-0.17-0.11-0.59-0.25-1.26-0.42c-0.9-0.23-1.53-0.42-1.88-0.59
		c-0.35-0.17-0.61-0.4-0.79-0.69c-0.18-0.29-0.27-0.62-0.27-0.97c0-0.32,0.07-0.62,0.22-0.9c0.15-0.28,0.35-0.5,0.6-0.69
		c0.19-0.14,0.45-0.26,0.78-0.36c0.33-0.1,0.68-0.15,1.06-0.15c0.57,0,1.07,0.08,1.5,0.25s0.75,0.39,0.95,0.67
		c0.21,0.28,0.35,0.65,0.42,1.12l-1.2,0.16c-0.05-0.37-0.21-0.67-0.48-0.88s-0.63-0.31-1.11-0.31c-0.56,0-0.97,0.09-1.21,0.28
		s-0.36,0.41-0.36,0.66c0,0.16,0.05,0.3,0.15,0.43c0.1,0.13,0.26,0.24,0.47,0.33c0.12,0.05,0.49,0.15,1.09,0.31
		c0.87,0.23,1.48,0.42,1.82,0.57c0.34,0.15,0.61,0.36,0.81,0.65s0.29,0.63,0.29,1.05c0,0.41-0.12,0.8-0.36,1.16
		c-0.24,0.36-0.58,0.64-1.04,0.84c-0.45,0.2-0.96,0.3-1.53,0.3c-0.94,0-1.66-0.2-2.16-0.59S221.53,239.23,221.39,238.46z"/>
	<path class="st3" d="M233.62,237.96l1.21,0.16c-0.13,0.83-0.47,1.49-1.02,1.96c-0.54,0.47-1.21,0.71-2.01,0.71
		c-0.99,0-1.79-0.33-2.4-0.97c-0.6-0.65-0.91-1.58-0.91-2.79c0-0.78,0.13-1.47,0.39-2.06s0.66-1.03,1.19-1.32
		c0.53-0.29,1.11-0.44,1.73-0.44c0.79,0,1.43,0.2,1.93,0.6c0.5,0.4,0.82,0.96,0.96,1.7l-1.2,0.18c-0.11-0.49-0.32-0.85-0.6-1.1
		s-0.64-0.37-1.05-0.37c-0.62,0-1.12,0.22-1.51,0.67c-0.39,0.44-0.58,1.15-0.58,2.11c0,0.98,0.19,1.68,0.56,2.13
		s0.86,0.66,1.46,0.66c0.48,0,0.89-0.15,1.21-0.44S233.53,238.58,233.62,237.96z"/>
	<path class="st3" d="M240.85,238.29l1.27,0.16c-0.2,0.74-0.57,1.32-1.11,1.73s-1.23,0.62-2.08,0.62c-1.06,0-1.9-0.33-2.53-0.98
		c-0.62-0.65-0.93-1.57-0.93-2.75c0-1.22,0.31-2.17,0.94-2.84s1.44-1.01,2.45-1.01c0.97,0,1.76,0.33,2.38,0.99s0.92,1.59,0.92,2.79
		c0,0.07,0,0.18-0.01,0.33h-5.41c0.05,0.8,0.27,1.41,0.68,1.83s0.91,0.64,1.52,0.64c0.45,0,0.84-0.12,1.16-0.36
		S240.66,238.81,240.85,238.29z M236.81,236.3h4.05c-0.05-0.61-0.21-1.07-0.46-1.37c-0.39-0.47-0.9-0.71-1.52-0.71
		c-0.56,0-1.04,0.19-1.43,0.57S236.85,235.66,236.81,236.3z"/>
	<path class="st3" d="M243.67,240.62v-7.26h1.11v1.03c0.53-0.8,1.3-1.2,2.31-1.2c0.44,0,0.84,0.08,1.21,0.24
		c0.37,0.16,0.64,0.36,0.82,0.62s0.31,0.56,0.38,0.91c0.05,0.23,0.07,0.63,0.07,1.2v4.46h-1.23v-4.42c0-0.5-0.05-0.88-0.14-1.12
		c-0.1-0.25-0.27-0.45-0.51-0.6c-0.24-0.15-0.53-0.22-0.86-0.22c-0.52,0-0.98,0.17-1.36,0.5s-0.57,0.96-0.57,1.89v3.96H243.67z"/>
	<path class="st3" d="M256.16,240.62v-0.92c-0.46,0.72-1.14,1.08-2.03,1.08c-0.58,0-1.11-0.16-1.6-0.48
		c-0.48-0.32-0.86-0.76-1.13-1.34c-0.27-0.57-0.4-1.23-0.4-1.97c0-0.72,0.12-1.38,0.36-1.97c0.24-0.59,0.6-1.04,1.09-1.36
		s1.02-0.47,1.62-0.47c0.44,0,0.83,0.09,1.17,0.28c0.34,0.19,0.62,0.43,0.83,0.72v-3.6h1.22v10.02H256.16z M252.27,237
		c0,0.93,0.2,1.62,0.59,2.08s0.85,0.69,1.39,0.69c0.54,0,0.99-0.22,1.37-0.66c0.38-0.44,0.56-1.11,0.56-2.01
		c0-0.99-0.19-1.72-0.57-2.19s-0.85-0.7-1.42-0.7c-0.55,0-1,0.22-1.37,0.67C252.46,235.34,252.27,236.04,252.27,237z"/>
	<path class="st3" d="M259.3,234.15l-0.34-1.91v-1.64h1.4v1.64l-0.31,1.91H259.3z M261.56,234.15l-0.33-1.91v-1.64h1.4v1.64
		l-0.33,1.91H261.56z"/>
</g>
<g id="text1">
	<rect x="11" y="42.5" class="st1" width="109" height="32"/>
	<path class="st4" d="M49,47.57c0-1.02,0.15-1.88,0.46-2.57c0.23-0.51,0.54-0.97,0.93-1.37s0.83-0.71,1.3-0.9
		c0.62-0.26,1.34-0.4,2.16-0.4c1.48,0,2.66,0.46,3.54,1.37s1.33,2.19,1.33,3.82c0,1.62-0.44,2.88-1.32,3.8s-2.06,1.37-3.53,1.37
		c-1.49,0-2.68-0.45-3.55-1.36S49,49.17,49,47.57z M51.09,47.51c0,1.13,0.26,2,0.79,2.58s1.19,0.88,2,0.88s1.47-0.29,1.99-0.87
		s0.78-1.45,0.78-2.61c0-1.15-0.25-2.01-0.76-2.57s-1.17-0.85-2.01-0.85s-1.51,0.29-2.02,0.86S51.09,46.35,51.09,47.51z"/>
	<path class="st4" d="M61.72,52.52L59.33,42.5h2.07l1.51,6.88l1.83-6.88h2.41l1.76,7l1.54-7h2.04l-2.43,10.02H67.9l-2-7.49
		l-1.99,7.49H61.72z"/>
	<path class="st4" d="M73.54,52.52V42.5h1.97l4.1,6.69V42.5h1.88v10.02h-2.03l-4.04-6.54v6.54H73.54z"/>
	<path class="st4" d="M39.78,69.32h-2.2l-0.88-2.28H32.7l-0.83,2.28h-2.15l3.9-10.02h2.14L39.78,69.32z M36.06,65.36l-1.38-3.72
		l-1.35,3.72H36.06z"/>
	<path class="st4" d="M40.79,69.32V59.3h2.02v10.02H40.79z"/>
	<path class="st4" d="M44.75,69.32V59.3h4.26c1.07,0,1.85,0.09,2.33,0.27s0.87,0.5,1.17,0.96s0.44,0.99,0.44,1.58
		c0,0.75-0.22,1.37-0.66,1.86s-1.1,0.8-1.98,0.93c0.44,0.26,0.8,0.54,1.08,0.84s0.67,0.85,1.15,1.63l1.22,1.96h-2.42l-1.46-2.18
		c-0.52-0.78-0.88-1.27-1.07-1.47s-0.39-0.34-0.61-0.42s-0.55-0.11-1.02-0.11h-0.41v4.18H44.75z M46.78,63.54h1.5
		c0.97,0,1.58-0.04,1.82-0.12s0.43-0.22,0.57-0.42s0.21-0.45,0.21-0.75c0-0.34-0.09-0.61-0.27-0.82s-0.43-0.34-0.76-0.39
		C49.67,61.01,49.18,61,48.36,61h-1.58V63.54z"/>
	<path class="st4" d="M61.27,65.64l1.96,0.62c-0.3,1.09-0.8,1.91-1.5,2.44s-1.59,0.8-2.66,0.8c-1.33,0-2.42-0.45-3.28-1.36
		s-1.29-2.15-1.29-3.73c0-1.67,0.43-2.96,1.29-3.89s1.99-1.38,3.4-1.38c1.23,0,2.22,0.36,2.99,1.09c0.46,0.43,0.8,1.04,1.03,1.85
		l-2,0.48c-0.12-0.52-0.37-0.93-0.74-1.23s-0.83-0.45-1.37-0.45c-0.74,0-1.35,0.27-1.81,0.8s-0.69,1.4-0.69,2.59
		c0,1.27,0.23,2.17,0.68,2.71s1.05,0.81,1.78,0.81c0.54,0,1-0.17,1.39-0.51S61.1,66.37,61.27,65.64z"/>
	<path class="st4" d="M64.97,69.32V59.3h4.26c1.07,0,1.85,0.09,2.33,0.27s0.87,0.5,1.17,0.96s0.44,0.99,0.44,1.58
		c0,0.75-0.22,1.37-0.66,1.86s-1.1,0.8-1.98,0.93c0.44,0.26,0.8,0.54,1.08,0.84s0.67,0.85,1.15,1.63l1.22,1.96h-2.42l-1.46-2.18
		c-0.52-0.78-0.88-1.27-1.07-1.47s-0.39-0.34-0.61-0.42s-0.55-0.11-1.02-0.11H67v4.18H64.97z M67,63.54h1.5
		c0.97,0,1.58-0.04,1.82-0.12s0.43-0.22,0.57-0.42s0.21-0.45,0.21-0.75c0-0.34-0.09-0.61-0.27-0.82s-0.43-0.34-0.76-0.39
		C69.89,61.01,69.4,61,68.58,61H67V63.54z"/>
	<path class="st4" d="M84.11,69.32h-2.2l-0.88-2.28h-4.01l-0.83,2.28h-2.15l3.9-10.02h2.14L84.11,69.32z M80.39,65.36l-1.38-3.72
		l-1.35,3.72H80.39z"/>
	<path class="st4" d="M85.2,69.32V59.3h6.87V61h-4.85v2.37h4.18v1.7h-4.18v4.26H85.2z"/>
	<path class="st4" d="M96,69.32V61h-2.97v-1.7h7.96V61h-2.97v8.33H96z"/>
</g>
<g id="text2">
	<rect x="377.05" y="20.83" class="st1" width="109" height="18.5"/>
	<path class="st4" d="M406.96,30.85v-8.33h-2.97v-1.7h7.96v1.7h-2.97v8.33H406.96z"/>
	<path class="st4" d="M413.26,30.85V20.83h2.02v3.94h3.96v-3.94h2.02v10.02h-2.02v-4.38h-3.96v4.38H413.26z"/>
	<path class="st4" d="M423.37,30.85V20.83h4.26c1.07,0,1.85,0.09,2.33,0.27s0.87,0.5,1.17,0.96c0.29,0.46,0.44,0.99,0.44,1.58
		c0,0.75-0.22,1.37-0.66,1.86c-0.44,0.49-1.1,0.8-1.98,0.93c0.44,0.26,0.8,0.54,1.08,0.84c0.29,0.31,0.67,0.85,1.15,1.63l1.22,1.96
		h-2.42l-1.46-2.18c-0.52-0.78-0.88-1.27-1.07-1.47s-0.39-0.34-0.61-0.42c-0.21-0.08-0.55-0.11-1.02-0.11h-0.41v4.18H423.37z
		 M425.39,25.07h1.5c0.97,0,1.58-0.04,1.82-0.12c0.24-0.08,0.43-0.22,0.57-0.42s0.21-0.45,0.21-0.75c0-0.34-0.09-0.61-0.27-0.82
		c-0.18-0.21-0.43-0.34-0.76-0.39c-0.16-0.02-0.66-0.03-1.48-0.03h-1.58V25.07z"/>
	<path class="st4" d="M433.47,30.85V20.83h7.43v1.7h-5.41v2.22h5.03v1.69h-5.03v2.73h5.6v1.69H433.47z"/>
	<path class="st4" d="M451.85,30.85h-2.2l-0.88-2.28h-4.01l-0.83,2.28h-2.15l3.9-10.02h2.14L451.85,30.85z M448.12,26.89l-1.38-3.72
		l-1.35,3.72H448.12z"/>
	<path class="st4" d="M454.14,30.85v-8.33h-2.97v-1.7h7.96v1.7h-2.97v8.33H454.14z"/>
</g>
<g id="text3">
	<rect x="9.45" y="115" class="st1" width="167.05" height="23"/>
	<path class="st5" d="M12.27,119.06h-1.92v-1.37c0-0.56,0.05-0.99,0.15-1.32s0.28-0.61,0.54-0.86s0.6-0.46,1.01-0.6l0.38,0.79
		c-0.38,0.13-0.66,0.31-0.82,0.53s-0.25,0.53-0.26,0.91h0.93V119.06z M15.48,119.06h-1.92v-1.37c0-0.56,0.05-1,0.15-1.32
		s0.28-0.61,0.55-0.86s0.6-0.46,1.01-0.6l0.38,0.79c-0.38,0.13-0.66,0.31-0.82,0.53s-0.25,0.53-0.26,0.91h0.93V119.06z"/>
	<path class="st5" d="M17.46,115h3.7c0.83,0,1.47,0.06,1.91,0.19c0.59,0.17,1.09,0.48,1.51,0.92s0.74,0.98,0.96,1.62
		s0.33,1.43,0.33,2.37c0,0.82-0.1,1.54-0.31,2.13c-0.25,0.73-0.61,1.32-1.07,1.77c-0.35,0.34-0.82,0.61-1.42,0.8
		c-0.45,0.14-1.04,0.21-1.79,0.21h-3.81V115z M19.49,116.7v6.64H21c0.56,0,0.97-0.03,1.22-0.1c0.33-0.08,0.6-0.22,0.82-0.42
		s0.39-0.52,0.53-0.97s0.21-1.06,0.21-1.84s-0.07-1.37-0.21-1.78s-0.33-0.74-0.57-0.97s-0.56-0.39-0.94-0.47
		c-0.28-0.06-0.84-0.1-1.66-0.1H19.49z"/>
	<path class="st5" d="M31.77,122.71l1.91,0.32c-0.25,0.7-0.63,1.24-1.17,1.6s-1.2,0.55-1.99,0.55c-1.26,0-2.2-0.41-2.8-1.24
		c-0.48-0.66-0.72-1.49-0.72-2.5c0-1.2,0.31-2.15,0.94-2.83s1.42-1.02,2.39-1.02c1.08,0,1.93,0.36,2.56,1.07s0.92,1.81,0.9,3.28
		h-4.81c0.01,0.57,0.17,1.01,0.46,1.33s0.67,0.48,1.11,0.48c0.3,0,0.55-0.08,0.76-0.25S31.67,123.08,31.77,122.71z M31.88,120.77
		c-0.01-0.56-0.16-0.98-0.43-1.27s-0.61-0.43-1-0.43c-0.42,0-0.77,0.15-1.04,0.46s-0.41,0.72-0.4,1.24H31.88z"/>
	<path class="st5" d="M34.68,122.95l1.93-0.29c0.08,0.37,0.25,0.66,0.5,0.85s0.6,0.29,1.05,0.29c0.5,0,0.87-0.09,1.12-0.27
		c0.17-0.13,0.25-0.3,0.25-0.51c0-0.15-0.05-0.27-0.14-0.36c-0.1-0.09-0.31-0.18-0.64-0.25c-1.55-0.34-2.53-0.65-2.95-0.94
		c-0.57-0.39-0.86-0.94-0.86-1.63c0-0.63,0.25-1.16,0.75-1.59s1.27-0.64,2.31-0.64c0.99,0,1.73,0.16,2.21,0.49s0.82,0.8,1,1.44
		l-1.81,0.33c-0.08-0.28-0.22-0.5-0.44-0.65s-0.53-0.23-0.93-0.23c-0.51,0-0.87,0.07-1.09,0.21c-0.15,0.1-0.22,0.23-0.22,0.39
		c0,0.14,0.06,0.25,0.19,0.35c0.17,0.13,0.77,0.31,1.79,0.54s1.74,0.52,2.14,0.85c0.4,0.34,0.6,0.82,0.6,1.43
		c0,0.67-0.28,1.24-0.83,1.72s-1.38,0.72-2.47,0.72c-0.99,0-1.77-0.2-2.35-0.6S34.85,123.64,34.68,122.95z"/>
	<path class="st5" d="M49.47,119.91l-1.89,0.34c-0.06-0.38-0.21-0.66-0.43-0.85s-0.52-0.29-0.88-0.29c-0.48,0-0.86,0.17-1.15,0.5
		s-0.43,0.88-0.43,1.66c0,0.86,0.14,1.47,0.43,1.83s0.68,0.53,1.17,0.53c0.36,0,0.66-0.1,0.9-0.31s0.4-0.56,0.49-1.07l1.89,0.32
		c-0.2,0.87-0.57,1.52-1.13,1.96s-1.3,0.66-2.24,0.66c-1.06,0-1.91-0.33-2.54-1s-0.95-1.6-0.95-2.78c0-1.2,0.32-2.13,0.95-2.8
		s1.49-1,2.57-1c0.88,0,1.59,0.19,2.11,0.57S49.24,119.13,49.47,119.91z"/>
	<path class="st5" d="M55.13,122.71l1.91,0.32c-0.25,0.7-0.63,1.24-1.17,1.6s-1.2,0.55-1.99,0.55c-1.26,0-2.2-0.41-2.8-1.24
		c-0.48-0.66-0.72-1.49-0.72-2.5c0-1.2,0.31-2.15,0.94-2.83s1.42-1.02,2.39-1.02c1.08,0,1.93,0.36,2.56,1.07s0.92,1.81,0.9,3.28
		h-4.81c0.01,0.57,0.17,1.01,0.46,1.33s0.67,0.48,1.11,0.48c0.3,0,0.55-0.08,0.76-0.25S55.02,123.08,55.13,122.71z M55.24,120.77
		c-0.01-0.56-0.16-0.98-0.43-1.27s-0.61-0.43-1-0.43c-0.42,0-0.77,0.15-1.04,0.46s-0.41,0.72-0.4,1.24H55.24z"/>
	<path class="st5" d="M65.31,125.02h-1.92v-3.71c0-0.78-0.04-1.29-0.12-1.52s-0.22-0.41-0.4-0.54s-0.41-0.19-0.67-0.19
		c-0.33,0-0.63,0.09-0.9,0.27s-0.45,0.42-0.54,0.72s-0.15,0.86-0.15,1.67v3.29H58.7v-7.26h1.78v1.07c0.63-0.82,1.43-1.23,2.39-1.23
		c0.42,0,0.81,0.08,1.16,0.23s0.62,0.35,0.8,0.58s0.31,0.51,0.38,0.81s0.11,0.73,0.11,1.29V125.02z"/>
	<path class="st5" d="M73.92,125.02h-1.78v-1.07c-0.3,0.41-0.65,0.72-1.05,0.93s-0.81,0.3-1.22,0.3c-0.83,0-1.55-0.34-2.14-1.01
		s-0.89-1.61-0.89-2.81c0-1.23,0.29-2.17,0.87-2.81s1.31-0.96,2.19-0.96c0.81,0,1.51,0.34,2.11,1.01V115h1.92V125.02z M68.79,121.24
		c0,0.77,0.11,1.34,0.32,1.68c0.31,0.5,0.74,0.75,1.3,0.75c0.44,0,0.82-0.19,1.13-0.56s0.46-0.94,0.46-1.69
		c0-0.83-0.15-1.43-0.45-1.8s-0.69-0.55-1.16-0.55c-0.46,0-0.84,0.18-1.15,0.54S68.79,120.52,68.79,121.24z"/>
	<path class="st5" d="M75.77,123.1h1.92v1.37c0,0.56-0.05,0.99-0.14,1.32s-0.28,0.61-0.54,0.87c-0.27,0.25-0.6,0.46-1.02,0.6
		l-0.38-0.79c0.39-0.13,0.66-0.3,0.83-0.53s0.25-0.53,0.26-0.92h-0.93V123.1z"/>
	<path class="st5" d="M90.25,125.02h-1.78v-1.07c-0.3,0.41-0.65,0.72-1.05,0.93s-0.81,0.3-1.22,0.3c-0.83,0-1.55-0.34-2.14-1.01
		s-0.89-1.61-0.89-2.81c0-1.23,0.29-2.17,0.87-2.81s1.31-0.96,2.19-0.96c0.81,0,1.51,0.34,2.11,1.01V115h1.92V125.02z M85.13,121.24
		c0,0.77,0.11,1.34,0.32,1.68c0.31,0.5,0.74,0.75,1.3,0.75c0.44,0,0.82-0.19,1.13-0.56s0.46-0.94,0.46-1.69
		c0-0.83-0.15-1.43-0.45-1.8s-0.69-0.55-1.16-0.55c-0.46,0-0.84,0.18-1.15,0.54S85.13,120.52,85.13,121.24z"/>
	<path class="st5" d="M96.35,122.71l1.91,0.32c-0.25,0.7-0.63,1.24-1.17,1.6s-1.2,0.55-1.99,0.55c-1.26,0-2.2-0.41-2.8-1.24
		c-0.48-0.66-0.72-1.49-0.72-2.5c0-1.2,0.31-2.15,0.94-2.83s1.42-1.02,2.39-1.02c1.08,0,1.93,0.36,2.56,1.07s0.92,1.81,0.9,3.28
		h-4.81c0.01,0.57,0.17,1.01,0.46,1.33s0.67,0.48,1.11,0.48c0.3,0,0.55-0.08,0.76-0.25S96.25,123.08,96.35,122.71z M96.46,120.77
		c-0.01-0.56-0.16-0.98-0.43-1.27s-0.61-0.43-1-0.43c-0.42,0-0.77,0.15-1.04,0.46s-0.41,0.72-0.4,1.24H96.46z"/>
	<path class="st5" d="M99.26,122.95l1.93-0.29c0.08,0.37,0.25,0.66,0.5,0.85s0.6,0.29,1.05,0.29c0.5,0,0.87-0.09,1.12-0.27
		c0.17-0.13,0.25-0.3,0.25-0.51c0-0.15-0.05-0.27-0.14-0.36c-0.1-0.09-0.31-0.18-0.64-0.25c-1.55-0.34-2.53-0.65-2.95-0.94
		c-0.57-0.39-0.86-0.94-0.86-1.63c0-0.63,0.25-1.16,0.75-1.59s1.27-0.64,2.31-0.64c0.99,0,1.73,0.16,2.21,0.49s0.82,0.8,1,1.44
		l-1.81,0.33c-0.08-0.28-0.22-0.5-0.44-0.65s-0.53-0.23-0.93-0.23c-0.51,0-0.87,0.07-1.09,0.21c-0.15,0.1-0.22,0.23-0.22,0.39
		c0,0.14,0.06,0.25,0.19,0.35c0.17,0.13,0.77,0.31,1.79,0.54s1.74,0.52,2.14,0.85c0.4,0.34,0.6,0.82,0.6,1.43
		c0,0.67-0.28,1.24-0.83,1.72s-1.38,0.72-2.47,0.72c-0.99,0-1.77-0.2-2.35-0.6S99.43,123.64,99.26,122.95z"/>
	<path class="st5" d="M114.05,119.91l-1.89,0.34c-0.06-0.38-0.21-0.66-0.43-0.85s-0.52-0.29-0.88-0.29c-0.48,0-0.86,0.17-1.15,0.5
		s-0.43,0.88-0.43,1.66c0,0.86,0.14,1.47,0.43,1.83s0.68,0.53,1.17,0.53c0.36,0,0.66-0.1,0.9-0.31s0.4-0.56,0.49-1.07l1.89,0.32
		c-0.2,0.87-0.57,1.52-1.13,1.96s-1.3,0.66-2.24,0.66c-1.06,0-1.91-0.33-2.54-1s-0.95-1.6-0.95-2.78c0-1.2,0.32-2.13,0.95-2.8
		s1.49-1,2.57-1c0.88,0,1.59,0.19,2.11,0.57S113.82,119.13,114.05,119.91z"/>
	<path class="st5" d="M119.71,122.71l1.91,0.32c-0.25,0.7-0.63,1.24-1.17,1.6s-1.2,0.55-1.99,0.55c-1.26,0-2.2-0.41-2.8-1.24
		c-0.48-0.66-0.72-1.49-0.72-2.5c0-1.2,0.31-2.15,0.94-2.83s1.42-1.02,2.39-1.02c1.08,0,1.93,0.36,2.56,1.07s0.92,1.81,0.9,3.28
		h-4.81c0.01,0.57,0.17,1.01,0.46,1.33s0.67,0.48,1.11,0.48c0.3,0,0.55-0.08,0.76-0.25S119.6,123.08,119.71,122.71z M119.82,120.77
		c-0.01-0.56-0.16-0.98-0.43-1.27s-0.61-0.43-1-0.43c-0.42,0-0.77,0.15-1.04,0.46s-0.41,0.72-0.4,1.24H119.82z"/>
	<path class="st5" d="M129.89,125.02h-1.92v-3.71c0-0.78-0.04-1.29-0.12-1.52s-0.22-0.41-0.4-0.54s-0.41-0.19-0.67-0.19
		c-0.33,0-0.63,0.09-0.9,0.27s-0.45,0.42-0.54,0.72s-0.15,0.86-0.15,1.67v3.29h-1.92v-7.26h1.78v1.07c0.63-0.82,1.43-1.23,2.39-1.23
		c0.42,0,0.81,0.08,1.16,0.23s0.62,0.35,0.8,0.58s0.31,0.51,0.38,0.81s0.11,0.73,0.11,1.29V125.02z"/>
	<path class="st5" d="M138.5,125.02h-1.78v-1.07c-0.3,0.41-0.65,0.72-1.05,0.93s-0.81,0.3-1.22,0.3c-0.83,0-1.55-0.34-2.14-1.01
		s-0.89-1.61-0.89-2.81c0-1.23,0.29-2.17,0.87-2.81s1.31-0.96,2.19-0.96c0.81,0,1.51,0.34,2.11,1.01V115h1.92V125.02z
		 M133.37,121.24c0,0.77,0.11,1.34,0.32,1.68c0.31,0.5,0.74,0.75,1.3,0.75c0.44,0,0.82-0.19,1.13-0.56s0.46-0.94,0.46-1.69
		c0-0.83-0.15-1.43-0.45-1.8s-0.69-0.55-1.16-0.55c-0.46,0-0.84,0.18-1.15,0.54S133.37,120.52,133.37,121.24z"/>
	<path class="st5" d="M140.26,115h1.92v1.38c0,0.56-0.05,0.99-0.14,1.31s-0.28,0.61-0.54,0.86s-0.6,0.46-1.02,0.6l-0.38-0.8
		c0.39-0.13,0.66-0.31,0.83-0.53s0.25-0.53,0.26-0.91h-0.93V115z M143.49,115h1.92v1.38c0,0.56-0.05,0.99-0.15,1.31
		s-0.28,0.61-0.55,0.86s-0.6,0.46-1.01,0.6l-0.38-0.8c0.38-0.13,0.66-0.31,0.82-0.53s0.25-0.53,0.26-0.91h-0.92V115z"/>
</g>
<g id="text4">
	<rect x="8.22" y="150" class="st1" width="214.28" height="20"/>
	<path class="st5" d="M11.04,154.06H9.12v-1.37c0-0.56,0.05-1,0.15-1.32s0.28-0.61,0.54-0.87c0.26-0.25,0.6-0.46,1.01-0.6l0.38,0.79
		c-0.38,0.13-0.66,0.31-0.82,0.53c-0.17,0.23-0.25,0.53-0.26,0.91h0.93V154.06z M14.25,154.06h-1.92v-1.37c0-0.56,0.05-1,0.15-1.32
		c0.1-0.32,0.28-0.61,0.55-0.86c0.27-0.25,0.6-0.46,1.01-0.6l0.38,0.79c-0.38,0.13-0.66,0.31-0.82,0.53
		c-0.17,0.23-0.25,0.53-0.26,0.91h0.93V154.06z"/>
	<path class="st5" d="M25.27,160.02h-2.2l-0.88-2.28h-4.01l-0.83,2.28h-2.15l3.9-10.02h2.14L25.27,160.02z M21.55,156.06l-1.38-3.72
		l-1.35,3.72H21.55z"/>
	<path class="st5" d="M32.99,160.02h-1.78v-1.07c-0.3,0.42-0.65,0.72-1.05,0.93s-0.81,0.3-1.22,0.3c-0.83,0-1.55-0.34-2.14-1.01
		s-0.89-1.61-0.89-2.81c0-1.23,0.29-2.17,0.87-2.81s1.31-0.96,2.19-0.96c0.81,0,1.51,0.34,2.11,1.01V150h1.92V160.02z M27.86,156.24
		c0,0.78,0.11,1.34,0.32,1.68c0.31,0.5,0.74,0.75,1.3,0.75c0.44,0,0.82-0.19,1.13-0.56s0.46-0.94,0.46-1.68
		c0-0.83-0.15-1.44-0.45-1.8s-0.69-0.55-1.16-0.55c-0.46,0-0.84,0.18-1.15,0.54S27.86,155.52,27.86,156.24z"/>
	<path class="st5" d="M36.76,152.76v7.04c0,0.92-0.06,1.58-0.18,1.96s-0.35,0.68-0.7,0.89c-0.34,0.21-0.78,0.32-1.32,0.32
		c-0.19,0-0.4-0.02-0.62-0.05s-0.46-0.08-0.71-0.15l0.33-1.64c0.09,0.02,0.18,0.03,0.26,0.04s0.15,0.02,0.22,0.02
		c0.2,0,0.36-0.04,0.48-0.13s0.21-0.19,0.25-0.3c0.04-0.12,0.06-0.47,0.06-1.07v-6.93H36.76z M34.84,151.78V150h1.92v1.78H34.84z"/>
	<path class="st5" d="M43.55,160.02v-1.09c-0.26,0.39-0.61,0.69-1.04,0.92c-0.43,0.22-0.89,0.33-1.36,0.33
		c-0.49,0-0.93-0.11-1.31-0.32c-0.39-0.21-0.67-0.52-0.84-0.9c-0.17-0.39-0.26-0.92-0.26-1.61v-4.59h1.92v3.34
		c0,1.02,0.04,1.65,0.11,1.88s0.2,0.41,0.39,0.55s0.42,0.2,0.71,0.2c0.33,0,0.62-0.09,0.88-0.27s0.44-0.4,0.53-0.67
		s0.14-0.92,0.14-1.96v-3.06h1.92v7.26H43.55z"/>
	<path class="st5" d="M46.65,157.95l1.93-0.29c0.08,0.37,0.25,0.66,0.5,0.85s0.6,0.29,1.05,0.29c0.5,0,0.87-0.09,1.12-0.27
		c0.17-0.13,0.25-0.3,0.25-0.51c0-0.15-0.05-0.27-0.14-0.36c-0.1-0.09-0.31-0.18-0.64-0.25c-1.55-0.34-2.53-0.65-2.95-0.94
		c-0.57-0.39-0.86-0.94-0.86-1.63c0-0.63,0.25-1.16,0.75-1.59c0.5-0.43,1.27-0.64,2.31-0.64c0.99,0,1.73,0.16,2.21,0.49
		c0.48,0.32,0.82,0.8,1,1.44l-1.81,0.33c-0.08-0.28-0.22-0.5-0.44-0.65s-0.53-0.23-0.93-0.23c-0.51,0-0.87,0.07-1.09,0.21
		c-0.15,0.1-0.22,0.23-0.22,0.39c0,0.14,0.06,0.25,0.19,0.35c0.17,0.13,0.77,0.31,1.79,0.54s1.74,0.52,2.14,0.86
		c0.4,0.34,0.6,0.82,0.6,1.43c0,0.67-0.28,1.24-0.83,1.72s-1.38,0.72-2.47,0.72c-0.99,0-1.77-0.2-2.35-0.6
		C47.2,159.19,46.83,158.64,46.65,157.95z"/>
	<path class="st5" d="M58.44,152.76v1.53h-1.31v2.93c0,0.59,0.01,0.94,0.04,1.04s0.08,0.18,0.17,0.24c0.09,0.06,0.2,0.1,0.32,0.1
		c0.18,0,0.44-0.06,0.77-0.19l0.16,1.49c-0.45,0.19-0.95,0.29-1.52,0.29c-0.35,0-0.66-0.06-0.94-0.17s-0.48-0.27-0.61-0.45
		s-0.22-0.43-0.27-0.75c-0.04-0.22-0.06-0.67-0.06-1.35v-3.17h-0.88v-1.53h0.88v-1.44l1.93-1.12v2.56H58.44z"/>
	<path class="st5" d="M65.66,160.02l-2.93-7.26h2.02l1.37,3.71l0.4,1.24c0.1-0.31,0.17-0.52,0.2-0.62c0.06-0.21,0.13-0.41,0.21-0.62
		l1.38-3.71h1.98l-2.88,7.26H65.66z"/>
	<path class="st5" d="M75.65,157.71l1.91,0.32c-0.25,0.7-0.63,1.24-1.17,1.6s-1.2,0.55-1.99,0.55c-1.26,0-2.2-0.41-2.8-1.24
		c-0.48-0.66-0.72-1.5-0.72-2.5c0-1.2,0.31-2.15,0.94-2.83s1.42-1.02,2.39-1.02c1.08,0,1.93,0.36,2.56,1.07s0.92,1.81,0.9,3.28
		h-4.81c0.01,0.57,0.17,1.01,0.46,1.33s0.67,0.47,1.11,0.47c0.3,0,0.55-0.08,0.76-0.25S75.55,158.08,75.65,157.71z M75.76,155.77
		c-0.01-0.56-0.16-0.98-0.43-1.27s-0.61-0.43-1-0.43c-0.42,0-0.77,0.15-1.04,0.46c-0.27,0.31-0.41,0.72-0.4,1.24H75.76z"/>
	<path class="st5" d="M81.08,160.02h-1.92v-7.26h1.78v1.03c0.31-0.49,0.58-0.81,0.82-0.96c0.24-0.15,0.52-0.23,0.83-0.23
		c0.44,0,0.86,0.12,1.26,0.36l-0.59,1.67c-0.32-0.21-0.62-0.31-0.9-0.31c-0.27,0-0.5,0.07-0.68,0.22s-0.33,0.42-0.44,0.8
		c-0.11,0.39-0.16,1.2-0.16,2.43V160.02z"/>
	<path class="st5" d="M88.01,152.76v1.53H86.7v2.93c0,0.59,0.01,0.94,0.04,1.04s0.08,0.18,0.17,0.24c0.09,0.06,0.2,0.1,0.32,0.1
		c0.18,0,0.44-0.06,0.77-0.19l0.16,1.49c-0.45,0.19-0.95,0.29-1.52,0.29c-0.35,0-0.66-0.06-0.94-0.17s-0.48-0.27-0.61-0.45
		s-0.22-0.43-0.27-0.75c-0.04-0.22-0.06-0.67-0.06-1.35v-3.17h-0.88v-1.53h0.88v-1.44l1.93-1.12v2.56H88.01z"/>
	<path class="st5" d="M89.35,151.78V150h1.92v1.78H89.35z M89.35,160.02v-7.26h1.92v7.26H89.35z"/>
	<path class="st5" d="M99.57,154.91l-1.89,0.34c-0.06-0.38-0.21-0.66-0.43-0.85s-0.52-0.29-0.88-0.29c-0.48,0-0.86,0.16-1.15,0.5
		s-0.43,0.88-0.43,1.66c0,0.86,0.14,1.47,0.43,1.83s0.68,0.53,1.17,0.53c0.36,0,0.66-0.1,0.9-0.31s0.4-0.56,0.49-1.07l1.89,0.32
		c-0.2,0.87-0.57,1.52-1.13,1.96c-0.56,0.44-1.3,0.66-2.24,0.66c-1.06,0-1.91-0.33-2.54-1s-0.95-1.6-0.95-2.78
		c0-1.2,0.32-2.13,0.95-2.8s1.49-1,2.57-1c0.88,0,1.59,0.19,2.11,0.57S99.34,154.13,99.57,154.91z"/>
	<path class="st5" d="M102.46,154.98l-1.74-0.31c0.2-0.7,0.53-1.22,1.01-1.56c0.48-0.34,1.19-0.51,2.13-0.51
		c0.86,0,1.49,0.1,1.91,0.3s0.71,0.46,0.89,0.77s0.26,0.89,0.26,1.72l-0.02,2.24c0,0.64,0.03,1.11,0.09,1.41s0.18,0.63,0.35,0.97
		h-1.9c-0.05-0.13-0.11-0.32-0.18-0.57c-0.03-0.11-0.05-0.19-0.07-0.23c-0.33,0.32-0.68,0.56-1.05,0.72
		c-0.37,0.16-0.77,0.24-1.2,0.24c-0.75,0-1.34-0.2-1.77-0.61c-0.43-0.41-0.65-0.92-0.65-1.54c0-0.41,0.1-0.78,0.29-1.1
		s0.47-0.57,0.82-0.74s0.86-0.32,1.53-0.45c0.9-0.17,1.52-0.33,1.87-0.47v-0.19c0-0.37-0.09-0.63-0.27-0.79s-0.53-0.24-1.03-0.24
		c-0.34,0-0.61,0.07-0.8,0.2S102.58,154.64,102.46,154.98z M105.03,156.54c-0.25,0.08-0.64,0.18-1.17,0.29
		c-0.53,0.11-0.88,0.22-1.05,0.33c-0.25,0.18-0.38,0.4-0.38,0.68c0,0.27,0.1,0.5,0.3,0.7c0.2,0.2,0.46,0.29,0.77,0.29
		c0.35,0,0.68-0.11,0.99-0.34c0.23-0.17,0.39-0.38,0.46-0.63c0.05-0.16,0.08-0.48,0.08-0.94V156.54z"/>
	<path class="st5" d="M108.81,160.02V150h1.92v10.02H108.81z"/>
	<path class="st5" d="M115.91,157.95l1.93-0.29c0.08,0.37,0.25,0.66,0.5,0.85s0.6,0.29,1.05,0.29c0.5,0,0.87-0.09,1.12-0.27
		c0.17-0.13,0.25-0.3,0.25-0.51c0-0.15-0.05-0.27-0.14-0.36c-0.1-0.09-0.31-0.18-0.64-0.25c-1.55-0.34-2.53-0.65-2.95-0.94
		c-0.57-0.39-0.86-0.94-0.86-1.63c0-0.63,0.25-1.16,0.75-1.59c0.5-0.43,1.27-0.64,2.31-0.64c0.99,0,1.73,0.16,2.21,0.49
		c0.48,0.32,0.82,0.8,1,1.44l-1.81,0.33c-0.08-0.28-0.22-0.5-0.44-0.65s-0.53-0.23-0.93-0.23c-0.51,0-0.87,0.07-1.09,0.21
		c-0.15,0.1-0.22,0.23-0.22,0.39c0,0.14,0.06,0.25,0.19,0.35c0.17,0.13,0.77,0.31,1.79,0.54s1.74,0.52,2.14,0.86
		c0.4,0.34,0.6,0.82,0.6,1.43c0,0.67-0.28,1.24-0.83,1.72s-1.38,0.72-2.47,0.72c-0.99,0-1.77-0.2-2.35-0.6
		C116.47,159.19,116.09,158.64,115.91,157.95z"/>
	<path class="st5" d="M124.32,152.76h1.79v1.07c0.23-0.36,0.55-0.66,0.94-0.89c0.4-0.23,0.84-0.34,1.32-0.34
		c0.84,0,1.56,0.33,2.15,0.99c0.59,0.66,0.88,1.58,0.88,2.76c0,1.21-0.3,2.15-0.89,2.83s-1.31,1.01-2.15,1.01
		c-0.4,0-0.76-0.08-1.09-0.24c-0.33-0.16-0.67-0.43-1.03-0.82v3.66h-1.92V152.76z M126.22,156.27c0,0.82,0.16,1.42,0.49,1.81
		s0.72,0.58,1.18,0.58c0.45,0,0.82-0.18,1.11-0.54s0.44-0.94,0.44-1.76c0-0.76-0.15-1.33-0.46-1.7s-0.68-0.55-1.13-0.55
		c-0.47,0-0.86,0.18-1.17,0.54S126.22,155.56,126.22,156.27z"/>
	<path class="st5" d="M137.13,157.71l1.91,0.32c-0.25,0.7-0.63,1.24-1.17,1.6s-1.2,0.55-1.99,0.55c-1.26,0-2.2-0.41-2.8-1.24
		c-0.48-0.66-0.72-1.5-0.72-2.5c0-1.2,0.31-2.15,0.94-2.83s1.42-1.02,2.39-1.02c1.08,0,1.93,0.36,2.56,1.07s0.92,1.81,0.9,3.28
		h-4.81c0.01,0.57,0.17,1.01,0.46,1.33s0.67,0.47,1.11,0.47c0.3,0,0.55-0.08,0.76-0.25S137.02,158.08,137.13,157.71z M137.24,155.77
		c-0.01-0.56-0.16-0.98-0.43-1.27s-0.61-0.43-1-0.43c-0.42,0-0.77,0.15-1.04,0.46c-0.27,0.31-0.41,0.72-0.4,1.24H137.24z"/>
	<path class="st5" d="M144.92,157.71l1.91,0.32c-0.25,0.7-0.63,1.24-1.17,1.6s-1.2,0.55-1.99,0.55c-1.26,0-2.2-0.41-2.8-1.24
		c-0.48-0.66-0.72-1.5-0.72-2.5c0-1.2,0.31-2.15,0.94-2.83s1.42-1.02,2.39-1.02c1.08,0,1.93,0.36,2.56,1.07s0.92,1.81,0.9,3.28
		h-4.81c0.01,0.57,0.17,1.01,0.46,1.33s0.67,0.47,1.11,0.47c0.3,0,0.55-0.08,0.76-0.25S144.81,158.08,144.92,157.71z M145.03,155.77
		c-0.01-0.56-0.16-0.98-0.43-1.27s-0.61-0.43-1-0.43c-0.42,0-0.77,0.15-1.04,0.46c-0.27,0.31-0.41,0.72-0.4,1.24H145.03z"/>
	<path class="st5" d="M155.16,160.02h-1.78v-1.07c-0.3,0.42-0.65,0.72-1.05,0.93s-0.81,0.3-1.22,0.3c-0.83,0-1.55-0.34-2.14-1.01
		s-0.89-1.61-0.89-2.81c0-1.23,0.29-2.17,0.87-2.81s1.31-0.96,2.19-0.96c0.81,0,1.51,0.34,2.11,1.01V150h1.92V160.02z
		 M150.03,156.24c0,0.78,0.11,1.34,0.32,1.68c0.31,0.5,0.74,0.75,1.3,0.75c0.44,0,0.82-0.19,1.13-0.56s0.46-0.94,0.46-1.68
		c0-0.83-0.15-1.44-0.45-1.8s-0.69-0.55-1.16-0.55c-0.46,0-0.84,0.18-1.15,0.54S150.03,155.52,150.03,156.24z"/>
	<path class="st5" d="M157,158.1h1.92v1.37c0,0.56-0.05,1-0.14,1.32s-0.28,0.61-0.54,0.87c-0.27,0.25-0.6,0.46-1.02,0.6l-0.38-0.79
		c0.39-0.13,0.66-0.3,0.83-0.53c0.16-0.22,0.25-0.53,0.26-0.92H157V158.1z"/>
	<path class="st5" d="M166.26,154.98l-1.74-0.31c0.2-0.7,0.53-1.22,1.01-1.56c0.48-0.34,1.19-0.51,2.13-0.51
		c0.86,0,1.49,0.1,1.91,0.3s0.71,0.46,0.89,0.77s0.26,0.89,0.26,1.72l-0.02,2.24c0,0.64,0.03,1.11,0.09,1.41s0.18,0.63,0.35,0.97
		h-1.9c-0.05-0.13-0.11-0.32-0.18-0.57c-0.03-0.11-0.05-0.19-0.07-0.23c-0.33,0.32-0.68,0.56-1.05,0.72
		c-0.37,0.16-0.77,0.24-1.2,0.24c-0.75,0-1.34-0.2-1.77-0.61c-0.43-0.41-0.65-0.92-0.65-1.54c0-0.41,0.1-0.78,0.29-1.1
		s0.47-0.57,0.82-0.74s0.86-0.32,1.53-0.45c0.9-0.17,1.52-0.33,1.87-0.47v-0.19c0-0.37-0.09-0.63-0.27-0.79s-0.53-0.24-1.03-0.24
		c-0.34,0-0.61,0.07-0.8,0.2S166.38,154.64,166.26,154.98z M168.83,156.54c-0.25,0.08-0.64,0.18-1.17,0.29
		c-0.53,0.11-0.88,0.22-1.05,0.33c-0.25,0.18-0.38,0.4-0.38,0.68c0,0.27,0.1,0.5,0.3,0.7c0.2,0.2,0.46,0.29,0.77,0.29
		c0.35,0,0.68-0.11,0.99-0.34c0.23-0.17,0.39-0.38,0.46-0.63c0.05-0.16,0.08-0.48,0.08-0.94V156.54z"/>
	<path class="st5" d="M179.27,160.02h-1.78v-1.07c-0.3,0.42-0.65,0.72-1.05,0.93s-0.81,0.3-1.22,0.3c-0.83,0-1.55-0.34-2.14-1.01
		s-0.89-1.61-0.89-2.81c0-1.23,0.29-2.17,0.87-2.81s1.31-0.96,2.19-0.96c0.81,0,1.51,0.34,2.11,1.01V150h1.92V160.02z
		 M174.15,156.24c0,0.78,0.11,1.34,0.32,1.68c0.31,0.5,0.74,0.75,1.3,0.75c0.44,0,0.82-0.19,1.13-0.56s0.46-0.94,0.46-1.68
		c0-0.83-0.15-1.44-0.45-1.8s-0.69-0.55-1.16-0.55c-0.46,0-0.84,0.18-1.15,0.54S174.15,155.52,174.15,156.24z"/>
	<path class="st5" d="M183.05,152.76v7.04c0,0.92-0.06,1.58-0.18,1.96s-0.35,0.68-0.7,0.89c-0.34,0.21-0.78,0.32-1.32,0.32
		c-0.19,0-0.4-0.02-0.62-0.05s-0.46-0.08-0.71-0.15l0.33-1.64c0.09,0.02,0.18,0.03,0.26,0.04s0.15,0.02,0.22,0.02
		c0.2,0,0.36-0.04,0.48-0.13s0.21-0.19,0.25-0.3c0.04-0.12,0.06-0.47,0.06-1.07v-6.93H183.05z M181.13,151.78V150h1.92v1.78H181.13z
		"/>
	<path class="st5" d="M189.83,160.02v-1.09c-0.26,0.39-0.61,0.69-1.04,0.92c-0.43,0.22-0.89,0.33-1.36,0.33
		c-0.49,0-0.93-0.11-1.31-0.32c-0.39-0.21-0.67-0.52-0.84-0.9c-0.17-0.39-0.26-0.92-0.26-1.61v-4.59h1.92v3.34
		c0,1.02,0.04,1.65,0.11,1.88s0.2,0.41,0.39,0.55s0.42,0.2,0.71,0.2c0.33,0,0.62-0.09,0.88-0.27s0.44-0.4,0.53-0.67
		s0.14-0.92,0.14-1.96v-3.06h1.92v7.26H189.83z"/>
	<path class="st5" d="M192.93,157.95l1.93-0.29c0.08,0.37,0.25,0.66,0.5,0.85s0.6,0.29,1.05,0.29c0.5,0,0.87-0.09,1.12-0.27
		c0.17-0.13,0.25-0.3,0.25-0.51c0-0.15-0.05-0.27-0.14-0.36c-0.1-0.09-0.31-0.18-0.64-0.25c-1.55-0.34-2.53-0.65-2.95-0.94
		c-0.57-0.39-0.86-0.94-0.86-1.63c0-0.63,0.25-1.16,0.75-1.59c0.5-0.43,1.27-0.64,2.31-0.64c0.99,0,1.73,0.16,2.21,0.49
		c0.48,0.32,0.82,0.8,1,1.44l-1.81,0.33c-0.08-0.28-0.22-0.5-0.44-0.65s-0.53-0.23-0.93-0.23c-0.51,0-0.87,0.07-1.09,0.21
		c-0.15,0.1-0.22,0.23-0.22,0.39c0,0.14,0.06,0.25,0.19,0.35c0.17,0.13,0.77,0.31,1.79,0.54s1.74,0.52,2.14,0.86
		c0.4,0.34,0.6,0.82,0.6,1.43c0,0.67-0.28,1.24-0.83,1.72s-1.38,0.72-2.47,0.72c-0.99,0-1.77-0.2-2.35-0.6
		C193.49,159.19,193.11,158.64,192.93,157.95z"/>
	<path class="st5" d="M204.72,152.76v1.53h-1.31v2.93c0,0.59,0.01,0.94,0.04,1.04s0.08,0.18,0.17,0.24c0.09,0.06,0.2,0.1,0.32,0.1
		c0.18,0,0.44-0.06,0.77-0.19l0.16,1.49c-0.45,0.19-0.95,0.29-1.52,0.29c-0.35,0-0.66-0.06-0.94-0.17s-0.48-0.27-0.61-0.45
		s-0.22-0.43-0.27-0.75c-0.04-0.22-0.06-0.67-0.06-1.35v-3.17h-0.88v-1.53h0.88v-1.44l1.93-1.12v2.56H204.72z"/>
</g>
<g id="acft1">
	<path d="M34.31,81c2.19,2.27,4.4,4.52,6.57,6.81c3.47,3.66,7.11,6.42,12.73,6.21c10.08-0.37,20.17,0,30.26-0.14
		c6.77-0.09,13.43-0.08,19.06,4.49c0,0.89,0,1.78,0,2.67c-4.65,3.01-9.8,4.13-15.28,4.02c-2.34-0.05-4.81-0.42-6.55,1.77
		c-1.63,0-3.27,0-4.9,0c-2.29-0.59-4.55-1.52-6.88-1.72c-5.8-0.5-11.72-0.09-17.41-1.09c-8.2-1.46-16.24-3.83-23.84-7.44
		c0-0.59,0-1.19,0-1.78c1.46-0.34,2.93-0.69,4.62-1.08c-1.58-3.6-3.1-7.05-4.62-10.5c0-0.74,0-1.49,0-2.23
		C30.15,81,32.23,81,34.31,81z M67.78,101.2c-2.72-0.03-5.45-0.07-8.17-0.1c-0.05-0.31,0-0.83-0.16-0.91
		c-2.19-1.06-4.32-2.18-6.95-1.92c-1.37,0.13-2.39,0.19-2.41,1.68c-2.67,0.92-2.2-1.66-3.35-2.43c1.37-1.1,2.55-2.14,3.96-0.32
		c0.23,0.29,0.98,0.22,1.48,0.23c7.31,0.02,14.63,0.02,21.94,0.03c1.98,0,3.97,0,5.95,0c0,0.31,0,0.61,0,0.92
		c-1.13,0-2.26-0.06-3.39,0.03c-0.49,0.04-0.96,0.37-1.43,0.56c0.49,0.27,0.96,0.63,1.49,0.78c0.48,0.14,1.08-0.07,1.54,0.1
		c1.84,0.68,4.57,0.34,4.14,3.56c6.64,0.81,16.12-0.29,19.04-3.44c-0.99-2.27-3.04-1.45-5.02-1.48c0.44-0.72,0.75-1.21,1.33-2.16
		c-3.77-0.4-7.14-1.05-10.51-1.06c-14.46-0.01-28.93,0.19-43.39,0.23c-1.62,0-2.97,0.16-3.92,1.59c-0.89-0.24-1.77-0.48-2.91-0.8
		c0.9-0.29,1.62-0.52,2.86-0.92c-2.17,0-3.79,0-5.74,0c0.63,0.3,0.93,0.44,1.43,0.68c-1.05,0.06-1.82,0.1-2.6,0.14
		c-0.01,0.11-0.02,0.21-0.04,0.32c0.73,0.3,1.46,0.6,2.19,0.89c0.07,0.16,0.1,0.43,0.21,0.47c11.09,4.19,22.49,6.56,34.41,5.73
		c0.53-0.04,1.04-0.37,1.56-0.57c-0.04-0.23-0.08-0.46-0.11-0.7c-2.26,0-4.52,0.05-6.78-0.02c-1.88-0.05-3.75-0.25-5.62-0.38
		c2.36-0.03,4.73-0.01,7.09-0.12C66.54,101.82,67.16,101.41,67.78,101.2c2.29,0.74,4.58,1.21,7.24,0
		C72.37,101.2,70.08,101.2,67.78,101.2z M29.7,82.8c1.48,3.62,2.98,7.38,4.59,11.09c0.2,0.45,1.02,0.91,1.54,0.89
		c3.32-0.11,6.63-0.35,9.29-0.5c-2.68-2.89-5.6-6.02-8.5-9.16C34.82,83.16,32.97,81.33,29.7,82.8z M75.81,105.29
		c1.67,0,3.44,0.42,4.77-0.16c0.78-0.34,0.86-2.28,1.41-3.97c-2.49,0.14-4.29,0.24-6.18,0.34
		C75.81,102.71,75.81,103.73,75.81,105.29z M64.39,98.49c3.02,0.44,6.06,3.21,9.12,0.79c0-0.26,0-0.53,0.01-0.79
		C70.47,98.49,67.43,98.49,64.39,98.49z"/>
	<path class="st6" d="M39.96,97.1c0.95-1.42,2.29-1.58,3.92-1.59c14.46-0.04,28.93-0.25,43.39-0.23c3.37,0,6.74,0.66,10.51,1.06
		c-0.59,0.95-0.89,1.44-1.33,2.16c1.98,0.02,4.03-0.79,5.02,1.48c-2.92,3.15-12.4,4.25-19.04,3.44c0.43-3.22-2.3-2.88-4.14-3.56
		c-0.46-0.17-1.06,0.04-1.54-0.1c-0.53-0.15-1-0.51-1.49-0.78c0.48-0.2,0.94-0.53,1.43-0.56c1.12-0.08,2.26-0.03,3.39-0.03
		c0-0.31,0-0.61,0-0.92c-1.98,0-3.97,0-5.95,0c-7.31-0.01-14.63-0.01-21.94-0.03c-0.51,0-1.26,0.06-1.48-0.23
		c-1.42-1.82-2.6-0.78-3.96,0.32c1.14,0.77,0.68,3.35,3.35,2.43c0.02-1.5,1.04-1.55,2.41-1.68c2.63-0.26,4.76,0.86,6.95,1.92
		c0.16,0.08,0.11,0.6,0.16,0.91c-0.26,0.29-0.53,0.58-0.79,0.87c1.87,0.13,3.75,0.32,5.62,0.38c2.26,0.07,4.52,0.02,6.78,0.02
		c0.04,0.23,0.08,0.46,0.11,0.7c-0.52,0.2-1.03,0.53-1.56,0.57c-11.92,0.83-23.32-1.54-34.41-5.73c-0.11-0.04-0.14-0.31-0.21-0.47
		C36.76,97.31,38.36,97.21,39.96,97.1z M81.24,97.78c-0.01,0.15-0.01,0.29-0.02,0.44c3.12,0,6.24,0,9.36,0
		c0-0.15,0.01-0.29,0.01-0.44C87.47,97.78,84.36,97.78,81.24,97.78z M93.87,100.09c0.25-3.61,0.17-3.72-2.35-3.24
		c0.12,1.06,0.25,2.12,0.38,3.24C92.6,100.09,93.17,100.09,93.87,100.09z"/>
	<path class="st6" d="M29.7,82.8c3.28-1.48,5.12,0.36,6.93,2.32c2.9,3.14,5.82,6.27,8.5,9.16c-2.66,0.16-5.98,0.4-9.29,0.5
		c-0.52,0.02-1.35-0.44-1.54-0.89C32.68,90.18,31.18,86.42,29.7,82.8z"/>
	<path class="st6" d="M75.81,105.29c0-1.56,0-2.58,0-3.8c1.89-0.1,3.69-0.2,6.18-0.34c-0.55,1.69-0.63,3.63-1.41,3.97
		C79.25,105.71,77.48,105.29,75.81,105.29z"/>
	<path class="st6" d="M64.39,98.49c3.04,0,6.08,0,9.12,0c0,0.26,0,0.53-0.01,0.79C70.45,101.7,67.41,98.93,64.39,98.49z"/>
	<path class="st6" d="M39.96,97.1c-1.6,0.11-3.2,0.21-4.8,0.32c-0.73-0.3-1.46-0.6-2.19-0.89c0.01-0.11,0.02-0.21,0.04-0.32
		c0.78-0.04,1.55-0.09,2.6-0.14c-0.5-0.24-0.8-0.38-1.43-0.68c1.94,0,3.56,0,5.74,0c-1.24,0.4-1.96,0.63-2.86,0.92
		C38.19,96.61,39.08,96.86,39.96,97.1z"/>
	<path class="st6" d="M58.82,101.96c0.26-0.29,0.53-0.58,0.79-0.87c2.72,0.03,5.45,0.07,8.17,0.1l0-0.02
		c-0.62,0.23-1.24,0.64-1.87,0.66C63.55,101.95,61.19,101.93,58.82,101.96z"/>
	<path class="st6" d="M67.78,101.2c2.29,0,4.59,0,7.24,0c-2.66,1.21-4.95,0.74-7.24-0.01C67.78,101.18,67.78,101.2,67.78,101.2z"/>
	<path d="M81.24,97.78c3.12,0,6.23,0,9.35,0c0,0.15-0.01,0.29-0.01,0.44c-3.12,0-6.24,0-9.36,0C81.23,98.07,81.24,97.93,81.24,97.78
		z"/>
	<path d="M93.87,100.09c-0.7,0-1.28,0-1.97,0c-0.13-1.11-0.25-2.18-0.38-3.24C94.04,96.37,94.12,96.48,93.87,100.09z"/>
</g>
<g id="acft2">
	<path d="M486.41,11.77c0.25,0.7,0.51,1.4,0.76,2.09c-0.24,3.76-0.49,7.52-0.74,11.45c1.72-0.21,3.21-0.38,4.71-0.56
		c0.2,0.56,0.41,1.12,0.61,1.67c-5.9,5.98-12.65,10.97-19.85,15.14c-5,2.89-10.71,4.53-15.98,6.98c-2.12,0.98-3.93,2.62-5.88,3.97
		c-1.54,0.56-3.07,1.12-4.61,1.68c-2.4-1.47-4.58-0.27-6.77,0.58c-5.11,1.98-10.33,2.69-15.73,1.45c-0.3-0.84-0.61-1.67-0.91-2.51
		c3.73-6.22,9.98-8.51,16.37-10.74c9.52-3.32,18.89-7.12,28.48-10.22c5.35-1.73,7.83-5.57,9.84-10.19c1.26-2.89,2.56-5.77,3.84-8.65
		C482.51,13.19,484.46,12.48,486.41,11.77z M449.2,46.8c2.91,0.23,4.9-0.99,6.8-2.48c0.67,0,1.38,0.16,1.99-0.02
		c2.25-0.71,4.47-1.53,6.7-2.32c-1.72,0.76-3.41,1.59-5.15,2.28c-2.1,0.83-4.24,1.56-6.37,2.33c0.04,0.23,0.09,0.46,0.13,0.69
		c0.55,0.01,1.15,0.15,1.66,0c11.49-3.3,21.39-9.42,30.37-17.15c0.09-0.08,0.03-0.34,0.04-0.51c0.59-0.53,1.17-1.06,1.76-1.59
		c-0.05-0.1-0.1-0.19-0.14-0.29c-0.74,0.22-1.49,0.45-2.49,0.75c0.39-0.39,0.62-0.63,1.11-1.13c-1.82,0.66-3.35,1.22-5.39,1.96
		c1.3-0.05,2.06-0.08,3-0.11c-0.96,0.68-1.71,1.21-2.46,1.74c-1.38-1.01-2.7-0.7-4.22-0.15c-13.61,4.91-27.27,9.66-40.85,14.62
		c-3.17,1.16-6.11,2.93-9.52,4.59c0.88,0.69,1.33,1.05,1.99,1.57c-1.85,0.7-4.06,0.63-4.21,3.1c3.82,1.96,13.1-0.25,19.06-3.28
		c-1.51-2.88,1.18-3.5,2.67-4.76c0.38-0.32,1.01-0.33,1.41-0.63c0.44-0.33,0.76-0.82,1.13-1.25c-0.52-0.02-1.07-0.17-1.54-0.04
		c-1.08,0.3-2.13,0.75-3.19,1.13c-0.11-0.29-0.21-0.57-0.32-0.86c1.86-0.68,3.73-1.35,5.59-2.03c6.87-2.51,13.74-5.01,20.61-7.53
		c0.48-0.18,1.2-0.37,1.32-0.72c0.71-2.19,2.18-1.62,3.84-1.05c-0.81,1.11,0.51,3.38-2.31,3.43c-0.53-1.4-1.51-1.1-2.84-0.76
		c-2.56,0.66-4.18,2.44-5.87,4.18c-0.13,0.13,0.1,0.6,0.16,0.91c-2.55,0.96-5.1,1.93-7.65,2.89
		C453.85,45.11,451.69,45.89,449.2,46.8z M479.79,18.56c-1.65,3.95-3.32,7.88-4.85,11.51c2.56-0.76,5.75-1.67,8.9-2.71
		c0.49-0.16,1.11-0.87,1.14-1.36c0.25-4.04,0.37-8.08,0.52-11.99C481.92,13.75,480.82,16.1,479.79,18.56z M448.57,47.35
		c-1.81,0.55-3.54,1.07-5.92,1.8c1.09,1.4,1.83,3.2,2.68,3.25c1.45,0.09,2.96-0.91,4.54-1.48
		C449.33,49.45,448.98,48.49,448.57,47.35z M449.7,43.74c0.09,0.25,0.18,0.49,0.27,0.74c3.7,1.24,5.61-2.41,8.3-3.86
		C455.41,41.66,452.55,42.7,449.7,43.74z"/>
	<path class="st6" d="M485.37,29.62c-0.01,0.17,0.05,0.43-0.04,0.51c-8.99,7.73-18.88,13.86-30.37,17.15c-0.51,0.15-1.1,0.01-1.66,0
		c-0.04-0.23-0.09-0.46-0.13-0.69c2.12-0.77,4.27-1.5,6.37-2.33c1.74-0.69,3.44-1.51,5.15-2.28c-0.35-0.18-0.69-0.36-1.04-0.55
		c-0.06-0.31-0.29-0.78-0.16-0.91c1.69-1.75,3.31-3.52,5.87-4.18c1.34-0.34,2.31-0.64,2.84,0.76c2.82-0.05,1.5-2.31,2.31-3.43
		c-1.66-0.57-3.12-1.14-3.84,1.05c-0.11,0.35-0.84,0.54-1.32,0.72c-6.87,2.52-13.74,5.03-20.61,7.53c-1.86,0.68-3.73,1.36-5.59,2.03
		c0.11,0.29,0.21,0.57,0.32,0.86c1.06-0.39,2.11-0.83,3.19-1.13c0.47-0.13,1.02,0.02,1.54,0.04c-0.37,0.42-0.69,0.92-1.13,1.25
		c-0.41,0.3-1.04,0.31-1.41,0.63c-1.49,1.26-4.18,1.88-2.67,4.76c-5.96,3.03-15.24,5.24-19.06,3.28c0.15-2.47,2.36-2.4,4.21-3.1
		c-0.66-0.52-1.12-0.88-1.99-1.57c3.4-1.66,6.35-3.43,9.52-4.59c13.59-4.96,27.25-9.71,40.85-14.62c1.53-0.55,2.85-0.86,4.22,0.15
		C482.29,30.51,483.83,30.07,485.37,29.62z M433.41,48.92c0.05,0.14,0.11,0.27,0.16,0.41c2.93-1.07,5.86-2.13,8.79-3.2
		c-0.06-0.14-0.11-0.27-0.17-0.41C439.27,46.78,436.34,47.85,433.41,48.92z M432.97,51.53c-0.26-1.09-0.51-2.13-0.75-3.17
		c-2.54,0.41-2.57,0.53-1.1,3.85C431.77,51.97,432.31,51.77,432.97,51.53z"/>
	<path class="st6" d="M485.51,14.02c-3.58-0.27-4.69,2.09-5.72,4.55c-1.65,3.95-3.32,7.88-4.85,11.51c2.56-0.76,5.75-1.67,8.9-2.71
		c0.49-0.16,1.11-0.87,1.14-1.36C485.23,21.97,485.35,17.93,485.51,14.02z"/>
	<path class="st6" d="M449.86,50.92c-0.53-1.47-0.88-2.42-1.3-3.57c-1.81,0.55-3.54,1.07-5.92,1.8c1.09,1.4,1.83,3.2,2.68,3.25
		C446.77,52.49,448.29,51.49,449.86,50.92z"/>
	<path class="st6" d="M458.27,40.62c-2.86,1.04-5.72,2.08-8.57,3.12c0.09,0.25,0.18,0.49,0.27,0.74
		C453.67,45.72,455.58,42.07,458.27,40.62z"/>
	<path class="st6" d="M480.75,30.96c1.54-0.45,3.08-0.89,4.62-1.34c0.59-0.53,1.17-1.06,1.76-1.59c-0.05-0.1-0.1-0.19-0.14-0.29
		c-0.74,0.22-1.49,0.45-2.49,0.75c0.39-0.39,0.62-0.63,1.11-1.13c-1.82,0.66-3.35,1.22-5.39,1.96c1.3-0.05,2.06-0.08,3-0.11
		C482.25,29.9,481.5,30.43,480.75,30.96z"/>
	<path class="st6" d="M464.69,41.98c-0.35-0.18-0.69-0.36-1.04-0.55c-2.55,0.96-5.1,1.93-7.65,2.89l0-0.01
		c0.67,0,1.38,0.17,1.99-0.02C460.24,43.59,462.46,42.76,464.69,41.98z"/>
	<path class="st6" d="M456.01,44.33c-2.16,0.78-4.31,1.57-6.81,2.48c2.91,0.23,4.9-0.99,6.8-2.49
		C456,44.31,456.01,44.33,456.01,44.33z"/>
	<path d="M442.19,45.72c-2.93,1.07-5.86,2.13-8.78,3.2c0.05,0.14,0.11,0.27,0.16,0.41c2.93-1.07,5.86-2.13,8.79-3.2
		C442.3,45.99,442.25,45.86,442.19,45.72z"/>
	<path d="M431.11,52.21c0.66-0.24,1.2-0.44,1.86-0.68c-0.26-1.09-0.51-2.13-0.75-3.17C429.68,48.77,429.64,48.9,431.11,52.21z"/>
</g>
<g id="CPA">
	<g id="title_7_">
		<rect x="242.5" y="29.06" class="st1" width="39.25" height="16"/>
		<path class="st5" d="M256.49,34.49l1.68,0.53c-0.26,0.94-0.69,1.63-1.29,2.09s-1.36,0.68-2.28,0.68c-1.14,0-2.08-0.39-2.81-1.17
			s-1.1-1.84-1.1-3.2c0-1.43,0.37-2.54,1.11-3.33s1.71-1.19,2.91-1.19c1.05,0,1.9,0.31,2.56,0.93c0.39,0.37,0.68,0.89,0.88,1.58
			l-1.72,0.41c-0.1-0.45-0.31-0.8-0.64-1.05s-0.71-0.39-1.17-0.39c-0.64,0-1.15,0.23-1.55,0.69s-0.59,1.2-0.59,2.22
			c0,1.09,0.2,1.86,0.59,2.32s0.9,0.69,1.52,0.69c0.46,0,0.86-0.15,1.19-0.44S256.35,35.12,256.49,34.49z"/>
		<path class="st5" d="M259.66,37.65v-8.59h2.78c1.05,0,1.74,0.04,2.06,0.13c0.49,0.13,0.9,0.41,1.24,0.84s0.5,0.99,0.5,1.67
			c0,0.53-0.1,0.97-0.29,1.33s-0.43,0.64-0.73,0.85s-0.59,0.34-0.9,0.41c-0.41,0.08-1.01,0.12-1.8,0.12h-1.13v3.24H259.66z
			 M261.4,30.51v2.44h0.95c0.68,0,1.14-0.04,1.37-0.13s0.41-0.23,0.54-0.42s0.2-0.41,0.2-0.67c0-0.31-0.09-0.57-0.28-0.77
			s-0.42-0.33-0.7-0.38c-0.21-0.04-0.62-0.06-1.25-0.06H261.4z"/>
		<path class="st5" d="M274.52,37.65h-1.89l-0.75-1.95h-3.43l-0.71,1.95h-1.84l3.35-8.59h1.83L274.52,37.65z M271.33,34.25
			l-1.18-3.19l-1.16,3.19H271.33z"/>
	</g>
	<g>
		<line class="st7" x1="261" y1="44" x2="261" y2="183"/>
		<g>
			<line class="st8" x1="261.5" y1="44" x2="261.5" y2="46"/>
			<line class="st9" x1="261.5" y1="49" x2="261.5" y2="180"/>
			<line class="st8" x1="261.5" y1="182" x2="261.5" y2="183"/>
		</g>
	</g>
</g>
<g id="arrow1">
	<g>
		<line class="st10" x1="108" y1="100" x2="114" y2="100"/>
		<line class="st11" x1="125" y1="100" x2="231" y2="100"/>
		<line class="st10" x1="237" y1="100" x2="243" y2="100"/>
		<g>
			<polygon class="st12" points="257,100 237.1,108.13 241.82,100 237.1,91.87 			"/>
		</g>
	</g>
</g>
<g id="arrow2">
	<g>
		<line class="st10" x1="278.62" y1="96.26" x2="284.4" y2="94.67"/>
		<line class="st13" x1="296.02" y1="91.48" x2="406.4" y2="61.18"/>
		<line class="st10" x1="412.21" y1="59.59" x2="418" y2="58"/>
		<g>
			<polygon class="st12" points="265,100 286.34,102.57 279.64,95.98 282.04,86.89 			"/>
		</g>
	</g>
</g>
<g id="arrow4">
	<g>
		<path class="st14" d="M212.11,83.3c1.91,0,3.92,0,6-0.01"/>
		<path class="st15" d="M229.71,83.2c14.5-0.15,29.59-0.39,37.29-0.2c78.6,1.95,104.33-10.08,139.73-21.52"/>
		<path class="st14" d="M412.26,59.73c1.88-0.58,3.79-1.16,5.74-1.73"/>
		<g>
			<polygon class="st16" points="198,83 217.75,91.49 213.17,83.28 218.04,75.24 			"/>
		</g>
	</g>
</g>
<g id="arrow3">
	<g>
		<path class="st14" d="M108,100c2.03-0.01,4.03,0.01,6,0.06"/>
		<path class="st17" d="M125.98,100.64c26.72,2,46.86,8.38,61.02,14.36c28.46,12.02,37.86,24.56,64,33
			c17.54,5.66,35.02,8.01,49.9,8.84"/>
		<path class="st14" d="M306.89,157.1c2.06,0.07,4.07,0.1,6,0.12"/>
		<g>
			<polygon class="st16" points="327,157 307.2,165.37 311.82,157.18 307.01,149.11 			"/>
		</g>
	</g>
</g>
<g id="buttonStart">
	<g>
		
			
		<g>
			<circle class="st18" cx="464.76" cy="216.4" r="19.85"/>
		</g>
	</g>
	<g>
		<g>
			<polygon class="st6" points="459.39,208.07 473.82,216.4 459.39,224.73 			"/>
		</g>
	</g>
</g>
<g id="buttonReplay">
	<g>
		
			
		<g>
			<circle class="st18" cx="464.76" cy="216.4" r="19.85"/>
		</g>
	</g>
	<g>
		<g>
			<polygon class="st6" points="466.82,200.11 455.89,206.42 466.82,212.73 			"/>
		</g>
	</g>
	<path class="st19" d="M465.11,206.07c5.92,0,10.71,4.8,10.71,10.71c0,5.92-4.8,10.71-10.71,10.71s-10.71-4.8-10.71-10.71"/>
	<path class="st19" d="M465.11,206.07"/>
	<path class="st19" d="M454.39,216.79"/>
</g>
<g id="buttonNext">
	<g>
		
			
		<g>
			<circle class="st18" cx="464.76" cy="216.4" r="19.85"/>
		</g>
	</g>
	<g>
		<g>
			<polygon class="st6" points="459.39,208.07 473.82,216.4 459.39,224.73 			"/>
		</g>
	</g>
</g>

</svg>
